G04 #@! TF.GenerationSoftware,KiCad,Pcbnew,(5.0.2)-1*
G04 #@! TF.CreationDate,2019-05-29T12:52:51-04:00*
G04 #@! TF.ProjectId,switch_plate,73776974-6368-45f7-906c-6174652e6b69,rev?*
G04 #@! TF.SameCoordinates,Original*
G04 #@! TF.FileFunction,Profile,NP*
%FSLAX46Y46*%
G04 Gerber Fmt 4.6, Leading zero omitted, Abs format (unit mm)*
G04 Created by KiCad (PCBNEW (5.0.2)-1) date 5/29/2019 12:52:51 PM*
%MOMM*%
%LPD*%
G01*
G04 APERTURE LIST*
%ADD10C,0.200000*%
%ADD11C,0.150000*%
G04 APERTURE END LIST*
D10*
X237617000Y-56197500D02*
X237617000Y-53848000D01*
X245046500Y-56197500D02*
X245046500Y-53848000D01*
X237617000Y-53848000D02*
X245046500Y-53848000D01*
X237617000Y-43726100D02*
X245046500Y-43726100D01*
X175133000Y-80822800D02*
X175133000Y-81762600D01*
X173329600Y-80822800D02*
X175133000Y-80822800D01*
X175133000Y-95034100D02*
X175133000Y-94068900D01*
X171831000Y-95034100D02*
X175133000Y-95034100D01*
X171831000Y-94310200D02*
X171831000Y-95034100D01*
X151333200Y-94297500D02*
X152768300Y-94297500D01*
X151333200Y-95034100D02*
X151333200Y-94297500D01*
X148031200Y-95034100D02*
X151333200Y-95034100D01*
X148031200Y-94297500D02*
X148031200Y-95034100D01*
X127215900Y-94068900D02*
X127215900Y-94297500D01*
X127508000Y-80822800D02*
X127508000Y-81762600D01*
X125704600Y-80822800D02*
X127508000Y-80822800D01*
X118833900Y-37147500D02*
X118833900Y-23139400D01*
X132842000Y-37147500D02*
X118833900Y-37147500D01*
X49784000Y-80289400D02*
X63792100Y-80289400D01*
X73583800Y-80289400D02*
X87604600Y-80289400D01*
X25971500Y-80289400D02*
X39979600Y-80289400D01*
X192659000Y-94297500D02*
X200380600Y-94297500D01*
X145034000Y-84988400D02*
X133972300Y-84988400D01*
X181597300Y-81762600D02*
X175133000Y-81762600D01*
X133972300Y-84988400D02*
X133972300Y-81762600D01*
X192659000Y-84988400D02*
X181597300Y-84988400D01*
X156083000Y-94297500D02*
X159042100Y-94297500D01*
X159042100Y-94297500D02*
X171831000Y-94297500D01*
X133972300Y-89598500D02*
X145034000Y-89598500D01*
X25971500Y-94297500D02*
X25971500Y-80289400D01*
X39979600Y-80289400D02*
X39979600Y-94297500D01*
X181597300Y-89598500D02*
X192659000Y-89598500D01*
X145034000Y-80289400D02*
X145034000Y-84988400D01*
X125704600Y-80822800D02*
X125704600Y-80289400D01*
X181597300Y-94068900D02*
X181597300Y-89598500D01*
X125704600Y-80289400D02*
X106959400Y-80289400D01*
X181597300Y-84988400D02*
X181597300Y-81762600D01*
X97828100Y-84988400D02*
X97828100Y-87807800D01*
X133972300Y-94068900D02*
X133972300Y-89598500D01*
X108458000Y-94297500D02*
X127215900Y-94297500D01*
X132257800Y-94068900D02*
X133972300Y-94068900D01*
X127215900Y-94068900D02*
X128943100Y-94068900D01*
X98653600Y-81762600D02*
X98653600Y-84988400D01*
X106959400Y-81762600D02*
X98653600Y-81762600D01*
X145034000Y-89598500D02*
X145034000Y-94297500D01*
X97828100Y-87807800D02*
X98653600Y-87807800D01*
X103695500Y-94068900D02*
X105143300Y-94068900D01*
X114071400Y-61239400D02*
X128079500Y-61239400D01*
X109029500Y-61239400D02*
X109029500Y-75260200D01*
X257530600Y-76225400D02*
X260845300Y-76225400D01*
X185229500Y-75247500D02*
X171221400Y-75247500D01*
X247142000Y-80289400D02*
X247142000Y-94297500D01*
X106959400Y-80289400D02*
X106959400Y-81762600D01*
X166179500Y-75247500D02*
X152171400Y-75247500D01*
X30734000Y-61239400D02*
X44742100Y-61239400D01*
X98653600Y-84988400D02*
X97828100Y-84988400D01*
X237045500Y-75247500D02*
X257530600Y-75247500D01*
X228371400Y-61239400D02*
X228371400Y-75247500D01*
X95021400Y-75247500D02*
X95021400Y-61239400D01*
X56921400Y-75247500D02*
X56921400Y-61239400D01*
X98653600Y-87807800D02*
X98653600Y-94068900D01*
X257530600Y-75247500D02*
X257530600Y-76225400D01*
X147129500Y-61239400D02*
X147129500Y-75247500D01*
X114071400Y-75247500D02*
X114071400Y-61239400D01*
X147129500Y-75247500D02*
X133121400Y-75247500D01*
X98653600Y-94068900D02*
X100380800Y-94068900D01*
X145034000Y-94297500D02*
X148031200Y-94297500D01*
X95021400Y-61239400D02*
X109029500Y-61239400D01*
X223329500Y-61239400D02*
X223329500Y-75247500D01*
X233730800Y-76225400D02*
X237045500Y-76225400D01*
X75971400Y-61239400D02*
X89979500Y-61239400D01*
X263817100Y-75247500D02*
X263817100Y-61239400D01*
X89979500Y-61239400D02*
X89979500Y-75247500D01*
X128079500Y-61239400D02*
X128079500Y-75247500D01*
X233730800Y-75247500D02*
X233730800Y-76225400D01*
X133121400Y-61239400D02*
X147129500Y-61239400D01*
X44742100Y-61239400D02*
X44742100Y-75247500D01*
X128079500Y-75247500D02*
X114071400Y-75247500D01*
X42354500Y-56197500D02*
X25971500Y-56197500D01*
X70929500Y-61239400D02*
X70929500Y-75247500D01*
X252183900Y-80289400D02*
X266192000Y-80289400D01*
X75971400Y-75247500D02*
X75971400Y-61239400D01*
X214083900Y-94297500D02*
X214083900Y-80289400D01*
X260845300Y-75247500D02*
X263817100Y-75247500D01*
X237045500Y-76225400D02*
X237045500Y-75247500D01*
X247142000Y-94297500D02*
X233133900Y-94297500D01*
X228371400Y-75247500D02*
X233730800Y-75247500D01*
X42354500Y-42189400D02*
X42354500Y-56197500D01*
X233133900Y-80289400D02*
X247142000Y-80289400D01*
X133121400Y-75247500D02*
X133121400Y-61239400D01*
X89979500Y-75247500D02*
X75971400Y-75247500D01*
X152171400Y-75247500D02*
X152171400Y-61239400D01*
X152171400Y-61239400D02*
X166179500Y-61239400D01*
X223329500Y-75247500D02*
X209321400Y-75247500D01*
X190271400Y-75247500D02*
X190271400Y-61239400D01*
X171221400Y-75247500D02*
X171221400Y-61239400D01*
X171221400Y-61239400D02*
X185229500Y-61239400D01*
X204279500Y-75247500D02*
X190271400Y-75247500D01*
X252183900Y-94297500D02*
X252183900Y-80289400D01*
X56921400Y-61239400D02*
X70929500Y-61239400D01*
X233133900Y-94297500D02*
X233133900Y-80289400D01*
X30721300Y-75247500D02*
X30734000Y-61239400D01*
X204279500Y-61239400D02*
X204279500Y-75247500D01*
X209321400Y-61239400D02*
X223329500Y-61239400D01*
X263817100Y-61239400D02*
X228371400Y-61239400D01*
X109029500Y-75260200D02*
X95021400Y-75247500D01*
X185229500Y-61239400D02*
X185229500Y-75247500D01*
X209321400Y-75247500D02*
X209308700Y-61239400D01*
X44742100Y-75247500D02*
X30721300Y-75247500D01*
X266192000Y-80289400D02*
X266192000Y-94297500D01*
X266192000Y-94297500D02*
X252183900Y-94297500D01*
X260845300Y-76225400D02*
X260845300Y-75247500D01*
X25971500Y-42189400D02*
X42354500Y-42189400D01*
X70929500Y-75247500D02*
X56921400Y-75247500D01*
X166179500Y-61239400D02*
X166179500Y-75247500D01*
X190271400Y-61239400D02*
X204279500Y-61239400D01*
X179882800Y-94068900D02*
X181597300Y-94068900D01*
X175133000Y-94068900D02*
X176568100Y-94068900D01*
X63792100Y-80289400D02*
X63792100Y-94297500D01*
X49784000Y-94297500D02*
X49784000Y-80289400D01*
X228092000Y-80289400D02*
X228092000Y-94297500D01*
X214083900Y-80289400D02*
X228092000Y-80289400D01*
X228092000Y-94297500D02*
X214083900Y-94297500D01*
X87604600Y-94297500D02*
X73583800Y-94297500D01*
X39979600Y-94297500D02*
X25971500Y-94297500D01*
X73583800Y-94297500D02*
X73583800Y-80289400D01*
X173329600Y-80289400D02*
X159131000Y-80289400D01*
X159131000Y-80289400D02*
X145034000Y-80289400D01*
X87604600Y-80289400D02*
X87604600Y-94297500D01*
X133972300Y-81762600D02*
X127508000Y-81762600D01*
X192659000Y-80289400D02*
X192659000Y-84988400D01*
X173329600Y-80822800D02*
X173329600Y-80289400D01*
X63792100Y-94297500D02*
X49784000Y-94297500D01*
X192659000Y-89598500D02*
X192659000Y-94297500D01*
X137883900Y-37147500D02*
X137883900Y-23139400D01*
X261429500Y-56197500D02*
X245046500Y-56197500D01*
X261429500Y-42189400D02*
X261429500Y-56197500D01*
X61683900Y-23139400D02*
X75692000Y-23139400D01*
X245046500Y-43726100D02*
X245046500Y-42189400D01*
X47396400Y-56197500D02*
X47396400Y-42189400D01*
X47396400Y-42189400D02*
X212521800Y-42189400D01*
X237617000Y-42189400D02*
X237617000Y-43726100D01*
X237617000Y-56197500D02*
X214236300Y-56197500D01*
X203695300Y-94297500D02*
X206667100Y-94297500D01*
X175983900Y-37147500D02*
X175983900Y-23139400D01*
X212521800Y-42189400D02*
X237617000Y-42189400D01*
X259918200Y-37147500D02*
X259918200Y-38112700D01*
X214236300Y-56197500D02*
X47396400Y-56197500D01*
X25971500Y-56197500D02*
X25971500Y-42189400D01*
X206667100Y-94297500D02*
X206667100Y-80289400D01*
X137883900Y-23139400D02*
X151892000Y-23139400D01*
X206667100Y-80289400D02*
X192659000Y-80289400D01*
X245046500Y-42189400D02*
X261429500Y-42189400D01*
X113792000Y-37147500D02*
X99783900Y-37147500D01*
X42633900Y-23139400D02*
X56642000Y-23139400D01*
X132842000Y-23139400D02*
X132842000Y-37147500D01*
X80733900Y-37147500D02*
X80733900Y-23139400D01*
X56642000Y-37147500D02*
X42633900Y-37147500D01*
X209042000Y-23139400D02*
X209042000Y-37147500D01*
X151892000Y-37147500D02*
X137883900Y-37147500D01*
X170942000Y-23139400D02*
X170942000Y-37147500D01*
X151892000Y-23139400D02*
X151892000Y-37147500D01*
X239420400Y-38112700D02*
X239420400Y-37147500D01*
X80733900Y-23139400D02*
X94742000Y-23139400D01*
X75692000Y-37147500D02*
X61683900Y-37147500D01*
X170942000Y-37147500D02*
X156933900Y-37147500D01*
X42633900Y-37147500D02*
X42633900Y-23139400D01*
X236118400Y-38112700D02*
X239420400Y-38112700D01*
X23596600Y-37134800D02*
X23596600Y-23139400D01*
X156933900Y-37147500D02*
X156933900Y-23139400D01*
X266192000Y-37147500D02*
X266192000Y-23139400D01*
X61683900Y-37147500D02*
X61683900Y-23139400D01*
X94742000Y-23139400D02*
X94742000Y-37147500D01*
X189992000Y-23139400D02*
X189992000Y-37147500D01*
X156933900Y-23139400D02*
X170942000Y-23139400D01*
X37592000Y-23139400D02*
X37592000Y-37147500D01*
X195033900Y-23139400D02*
X209042000Y-23139400D01*
X266192000Y-23139400D02*
X233133900Y-23139400D01*
X233133900Y-37147500D02*
X236118400Y-37147500D01*
X99783900Y-37147500D02*
X99783900Y-23139400D01*
X37592000Y-37147500D02*
X23596600Y-37134800D01*
X23596600Y-23139400D02*
X37592000Y-23139400D01*
X259918200Y-38112700D02*
X263220200Y-38112700D01*
X233121200Y-23139400D02*
X233133900Y-37147500D01*
X236118400Y-37147500D02*
X236118400Y-38112700D01*
X118833900Y-23139400D02*
X132842000Y-23139400D01*
X239420400Y-37147500D02*
X259918200Y-37147500D01*
X263220200Y-37147500D02*
X266192000Y-37147500D01*
X214083900Y-23139400D02*
X228092000Y-23139400D01*
X228092000Y-23139400D02*
X228092000Y-37147500D01*
X209042000Y-37147500D02*
X195033900Y-37147500D01*
X175983900Y-23139400D02*
X189992000Y-23139400D01*
X75692000Y-23139400D02*
X75692000Y-37147500D01*
X189992000Y-37147500D02*
X175983900Y-37147500D01*
X94742000Y-37147500D02*
X80733900Y-37147500D01*
X228092000Y-37147500D02*
X214083900Y-37147500D01*
X99783900Y-23139400D02*
X113792000Y-23139400D01*
X214083900Y-37147500D02*
X214083900Y-23139400D01*
X56642000Y-23139400D02*
X56642000Y-37147500D01*
X113792000Y-23139400D02*
X113792000Y-37147500D01*
X263220200Y-38112700D02*
X263220200Y-37147500D01*
X195033900Y-37147500D02*
X195033900Y-23139400D01*
X128943100Y-94068900D02*
X128943100Y-95275400D01*
X128943100Y-95275400D02*
X132257800Y-95275400D01*
X105143300Y-94068900D02*
X105143300Y-95275400D01*
X132257800Y-95275400D02*
X132257800Y-94068900D01*
X100380800Y-95275400D02*
X103695500Y-95275400D01*
X105143300Y-95275400D02*
X108458000Y-95275400D01*
X103695500Y-95275400D02*
X103695500Y-94068900D01*
X100380800Y-94068900D02*
X100380800Y-95275400D01*
X108458000Y-95275400D02*
X108458000Y-94297500D01*
X156083000Y-95275400D02*
X156083000Y-94297500D01*
X203695300Y-95275400D02*
X203695300Y-94297500D01*
X152768300Y-95275400D02*
X156083000Y-95275400D01*
X152768300Y-94297500D02*
X152768300Y-95275400D01*
X176568100Y-95275400D02*
X179882800Y-95275400D01*
X200380600Y-94297500D02*
X200380600Y-95275400D01*
X200380600Y-95275400D02*
X203695300Y-95275400D01*
X179882800Y-95275400D02*
X179882800Y-94068900D01*
X176568100Y-94068900D02*
X176568100Y-95275400D01*
D11*
X17716500Y-100076000D02*
X17081500Y-98806000D01*
X19050000Y-100774500D02*
X17716500Y-100076000D01*
X272224500Y-100012500D02*
X272796000Y-98856800D01*
X270764000Y-100774500D02*
X272224500Y-100012500D01*
X272097500Y-17272000D02*
X272796000Y-18542000D01*
X270764000Y-16510000D02*
X272097500Y-17272000D01*
X17716500Y-17208500D02*
X19050000Y-16510000D01*
X17081500Y-18542000D02*
X17716500Y-17208500D01*
X17081500Y-98806000D02*
X17081500Y-18542000D01*
X270764000Y-100774500D02*
X19050000Y-100774500D01*
X272796000Y-18542000D02*
X272796000Y-98856800D01*
X19050000Y-16510000D02*
X270764000Y-16510000D01*
M02*
