G04 #@! TF.GenerationSoftware,KiCad,Pcbnew,(5.0.2)-1*
G04 #@! TF.CreationDate,2019-01-21T23:38:19-05:00*
G04 #@! TF.ProjectId,TG4x,54473478-2e6b-4696-9361-645f70636258,rev?*
G04 #@! TF.SameCoordinates,Original*
G04 #@! TF.FileFunction,Copper,L2,Bot*
G04 #@! TF.FilePolarity,Positive*
%FSLAX46Y46*%
G04 Gerber Fmt 4.6, Leading zero omitted, Abs format (unit mm)*
G04 Created by KiCad (PCBNEW (5.0.2)-1) date 1/21/2019 11:38:19 PM*
%MOMM*%
%LPD*%
G01*
G04 APERTURE LIST*
G04 #@! TA.AperFunction,ComponentPad*
%ADD10C,2.200000*%
G04 #@! TD*
G04 #@! TA.AperFunction,ComponentPad*
%ADD11O,1.600000X1.600000*%
G04 #@! TD*
G04 #@! TA.AperFunction,ComponentPad*
%ADD12R,1.600000X1.600000*%
G04 #@! TD*
G04 #@! TA.AperFunction,ComponentPad*
%ADD13C,1.600000*%
G04 #@! TD*
G04 #@! TA.AperFunction,Conductor*
%ADD14C,0.250000*%
G04 #@! TD*
G04 APERTURE END LIST*
D10*
G04 #@! TO.P,SW2,2*
G04 #@! TO.N,Net-(D2-Pad2)*
X30810200Y-102946200D03*
G04 #@! TO.P,SW2,1*
G04 #@! TO.N,Net-(SW1-Pad1)*
X37160200Y-100406200D03*
G04 #@! TD*
D11*
G04 #@! TO.P,D39,2*
G04 #@! TO.N,Net-(D39-Pad2)*
X230733600Y-84099400D03*
D12*
G04 #@! TO.P,D39,1*
G04 #@! TO.N,Net-(D12-Pad1)*
X230733600Y-91719400D03*
G04 #@! TD*
D11*
G04 #@! TO.P,D43,2*
G04 #@! TO.N,Net-(D43-Pad2)*
X251993400Y-83921600D03*
D12*
G04 #@! TO.P,D43,1*
G04 #@! TO.N,Net-(D12-Pad1)*
X251993400Y-91541600D03*
G04 #@! TD*
D11*
G04 #@! TO.P,D42,2*
G04 #@! TO.N,Net-(D42-Pad2)*
X246913400Y-64947800D03*
D12*
G04 #@! TO.P,D42,1*
G04 #@! TO.N,Net-(D11-Pad1)*
X246913400Y-72567800D03*
G04 #@! TD*
D10*
G04 #@! TO.P,SW38,1*
G04 #@! TO.N,Net-(SW37-Pad1)*
X232486200Y-62407800D03*
G04 #@! TO.P,SW38,2*
G04 #@! TO.N,Net-(D38-Pad2)*
X226136200Y-64947800D03*
G04 #@! TD*
D12*
G04 #@! TO.P,D38,1*
G04 #@! TO.N,Net-(D11-Pad1)*
X221183200Y-72567800D03*
D11*
G04 #@! TO.P,D38,2*
G04 #@! TO.N,Net-(D38-Pad2)*
X221183200Y-64947800D03*
G04 #@! TD*
D10*
G04 #@! TO.P,SW37,2*
G04 #@! TO.N,Net-(D37-Pad2)*
X221361000Y-45872400D03*
G04 #@! TO.P,SW37,1*
G04 #@! TO.N,Net-(SW37-Pad1)*
X227711000Y-43332400D03*
G04 #@! TD*
D12*
G04 #@! TO.P,D1,1*
G04 #@! TO.N,Net-(D1-Pad1)*
X26187400Y-53771800D03*
D11*
G04 #@! TO.P,D1,2*
G04 #@! TO.N,Net-(D1-Pad2)*
X26187400Y-46151800D03*
G04 #@! TD*
G04 #@! TO.P,D2,2*
G04 #@! TO.N,Net-(D2-Pad2)*
X26289000Y-102946200D03*
D12*
G04 #@! TO.P,D2,1*
G04 #@! TO.N,Net-(D10-Pad1)*
X26289000Y-110566200D03*
G04 #@! TD*
D11*
G04 #@! TO.P,D3,2*
G04 #@! TO.N,Net-(D3-Pad2)*
X28219400Y-64871600D03*
D12*
G04 #@! TO.P,D3,1*
G04 #@! TO.N,Net-(D11-Pad1)*
X28219400Y-72491600D03*
G04 #@! TD*
G04 #@! TO.P,D4,1*
G04 #@! TO.N,Net-(D12-Pad1)*
X33223200Y-91541600D03*
D11*
G04 #@! TO.P,D4,2*
G04 #@! TO.N,Net-(D4-Pad2)*
X33223200Y-83921600D03*
G04 #@! TD*
G04 #@! TO.P,D5,2*
G04 #@! TO.N,Net-(D5-Pad2)*
X44932600Y-45923200D03*
D12*
G04 #@! TO.P,D5,1*
G04 #@! TO.N,Net-(D1-Pad1)*
X44932600Y-53543200D03*
G04 #@! TD*
G04 #@! TO.P,D6,1*
G04 #@! TO.N,Net-(D10-Pad1)*
X45237400Y-110617000D03*
D11*
G04 #@! TO.P,D6,2*
G04 #@! TO.N,Net-(D6-Pad2)*
X45237400Y-102997000D03*
G04 #@! TD*
D12*
G04 #@! TO.P,D7,1*
G04 #@! TO.N,Net-(D11-Pad1)*
X49530000Y-72466200D03*
D11*
G04 #@! TO.P,D7,2*
G04 #@! TO.N,Net-(D7-Pad2)*
X49530000Y-64846200D03*
G04 #@! TD*
D12*
G04 #@! TO.P,D8,1*
G04 #@! TO.N,Net-(D12-Pad1)*
X59258200Y-91541600D03*
D11*
G04 #@! TO.P,D8,2*
G04 #@! TO.N,Net-(D8-Pad2)*
X59258200Y-83921600D03*
G04 #@! TD*
D12*
G04 #@! TO.P,D9,1*
G04 #@! TO.N,Net-(D1-Pad1)*
X63500000Y-53467000D03*
D11*
G04 #@! TO.P,D9,2*
G04 #@! TO.N,Net-(D9-Pad2)*
X63500000Y-45847000D03*
G04 #@! TD*
G04 #@! TO.P,D10,2*
G04 #@! TO.N,Net-(D10-Pad2)*
X64236600Y-102997000D03*
D12*
G04 #@! TO.P,D10,1*
G04 #@! TO.N,Net-(D10-Pad1)*
X64236600Y-110617000D03*
G04 #@! TD*
D11*
G04 #@! TO.P,D11,2*
G04 #@! TO.N,Net-(D11-Pad2)*
X68681600Y-65176400D03*
D12*
G04 #@! TO.P,D11,1*
G04 #@! TO.N,Net-(D11-Pad1)*
X68681600Y-72796400D03*
G04 #@! TD*
D11*
G04 #@! TO.P,D12,2*
G04 #@! TO.N,Net-(D12-Pad2)*
X78003400Y-83997800D03*
D12*
G04 #@! TO.P,D12,1*
G04 #@! TO.N,Net-(D12-Pad1)*
X78003400Y-91617800D03*
G04 #@! TD*
G04 #@! TO.P,D13,1*
G04 #@! TO.N,Net-(D1-Pad1)*
X82727800Y-53467000D03*
D11*
G04 #@! TO.P,D13,2*
G04 #@! TO.N,Net-(D13-Pad2)*
X82727800Y-45847000D03*
G04 #@! TD*
G04 #@! TO.P,D14,2*
G04 #@! TO.N,Net-(D14-Pad2)*
X87884000Y-64922400D03*
D12*
G04 #@! TO.P,D14,1*
G04 #@! TO.N,Net-(D11-Pad1)*
X87884000Y-72542400D03*
G04 #@! TD*
G04 #@! TO.P,D15,1*
G04 #@! TO.N,Net-(D12-Pad1)*
X97637600Y-91643200D03*
D11*
G04 #@! TO.P,D15,2*
G04 #@! TO.N,Net-(D15-Pad2)*
X97637600Y-84023200D03*
G04 #@! TD*
G04 #@! TO.P,D16,2*
G04 #@! TO.N,Net-(D16-Pad2)*
X101828600Y-45897800D03*
D12*
G04 #@! TO.P,D16,1*
G04 #@! TO.N,Net-(D1-Pad1)*
X101828600Y-53517800D03*
G04 #@! TD*
G04 #@! TO.P,D17,1*
G04 #@! TO.N,Net-(D11-Pad1)*
X106705400Y-72593200D03*
D11*
G04 #@! TO.P,D17,2*
G04 #@! TO.N,Net-(D17-Pad2)*
X106705400Y-64973200D03*
G04 #@! TD*
G04 #@! TO.P,D18,2*
G04 #@! TO.N,Net-(D18-Pad2)*
X116636800Y-84251800D03*
D12*
G04 #@! TO.P,D18,1*
G04 #@! TO.N,Net-(D12-Pad1)*
X116636800Y-91871800D03*
G04 #@! TD*
G04 #@! TO.P,D19,1*
G04 #@! TO.N,Net-(D1-Pad1)*
X121005600Y-53492400D03*
D11*
G04 #@! TO.P,D19,2*
G04 #@! TO.N,Net-(D19-Pad2)*
X121005600Y-45872400D03*
G04 #@! TD*
G04 #@! TO.P,D20,2*
G04 #@! TO.N,Net-(D20-Pad2)*
X125933200Y-64998600D03*
D12*
G04 #@! TO.P,D20,1*
G04 #@! TO.N,Net-(D11-Pad1)*
X125933200Y-72618600D03*
G04 #@! TD*
G04 #@! TO.P,D21,1*
G04 #@! TO.N,Net-(D12-Pad1)*
X135509000Y-91694000D03*
D11*
G04 #@! TO.P,D21,2*
G04 #@! TO.N,Net-(D21-Pad2)*
X135509000Y-84074000D03*
G04 #@! TD*
G04 #@! TO.P,D22,2*
G04 #@! TO.N,Net-(D22-Pad2)*
X140487400Y-103073200D03*
D12*
G04 #@! TO.P,D22,1*
G04 #@! TO.N,Net-(D10-Pad1)*
X140487400Y-110693200D03*
G04 #@! TD*
G04 #@! TO.P,D23,1*
G04 #@! TO.N,Net-(D1-Pad1)*
X140030200Y-53594000D03*
D11*
G04 #@! TO.P,D23,2*
G04 #@! TO.N,Net-(D23-Pad2)*
X140030200Y-45974000D03*
G04 #@! TD*
G04 #@! TO.P,D24,2*
G04 #@! TO.N,Net-(D24-Pad2)*
X144856200Y-64973200D03*
D12*
G04 #@! TO.P,D24,1*
G04 #@! TO.N,Net-(D11-Pad1)*
X144856200Y-72593200D03*
G04 #@! TD*
G04 #@! TO.P,D25,1*
G04 #@! TO.N,Net-(D12-Pad1)*
X154305000Y-91617800D03*
D11*
G04 #@! TO.P,D25,2*
G04 #@! TO.N,Net-(D25-Pad2)*
X154305000Y-83997800D03*
G04 #@! TD*
G04 #@! TO.P,D26,2*
G04 #@! TO.N,Net-(D26-Pad2)*
X159232600Y-45897800D03*
D12*
G04 #@! TO.P,D26,1*
G04 #@! TO.N,Net-(D1-Pad1)*
X159232600Y-53517800D03*
G04 #@! TD*
G04 #@! TO.P,D27,1*
G04 #@! TO.N,Net-(D11-Pad1)*
X163931600Y-72618600D03*
D11*
G04 #@! TO.P,D27,2*
G04 #@! TO.N,Net-(D27-Pad2)*
X163931600Y-64998600D03*
G04 #@! TD*
G04 #@! TO.P,D28,2*
G04 #@! TO.N,Net-(D28-Pad2)*
X173507400Y-84074000D03*
D12*
G04 #@! TO.P,D28,1*
G04 #@! TO.N,Net-(D12-Pad1)*
X173507400Y-91694000D03*
G04 #@! TD*
G04 #@! TO.P,D29,1*
G04 #@! TO.N,Net-(D1-Pad1)*
X178460400Y-53492400D03*
D11*
G04 #@! TO.P,D29,2*
G04 #@! TO.N,Net-(D29-Pad2)*
X178460400Y-45872400D03*
G04 #@! TD*
D12*
G04 #@! TO.P,D30,1*
G04 #@! TO.N,Net-(D11-Pad1)*
X183388000Y-72618600D03*
D11*
G04 #@! TO.P,D30,2*
G04 #@! TO.N,Net-(D30-Pad2)*
X183388000Y-64998600D03*
G04 #@! TD*
D12*
G04 #@! TO.P,D31,1*
G04 #@! TO.N,Net-(D12-Pad1)*
X192405000Y-91871800D03*
D11*
G04 #@! TO.P,D31,2*
G04 #@! TO.N,Net-(D31-Pad2)*
X192405000Y-84251800D03*
G04 #@! TD*
G04 #@! TO.P,D32,2*
G04 #@! TO.N,Net-(D32-Pad2)*
X197129400Y-102997000D03*
D12*
G04 #@! TO.P,D32,1*
G04 #@! TO.N,Net-(D10-Pad1)*
X197129400Y-110617000D03*
G04 #@! TD*
D11*
G04 #@! TO.P,D33,2*
G04 #@! TO.N,Net-(D33-Pad2)*
X197485000Y-45923200D03*
D12*
G04 #@! TO.P,D33,1*
G04 #@! TO.N,Net-(D1-Pad1)*
X197485000Y-53543200D03*
G04 #@! TD*
D11*
G04 #@! TO.P,D34,2*
G04 #@! TO.N,Net-(D34-Pad2)*
X202209400Y-64998600D03*
D12*
G04 #@! TO.P,D34,1*
G04 #@! TO.N,Net-(D11-Pad1)*
X202209400Y-72618600D03*
G04 #@! TD*
G04 #@! TO.P,D35,1*
G04 #@! TO.N,Net-(D12-Pad1)*
X211759800Y-91592400D03*
D11*
G04 #@! TO.P,D35,2*
G04 #@! TO.N,Net-(D35-Pad2)*
X211759800Y-83972400D03*
G04 #@! TD*
G04 #@! TO.P,D36,2*
G04 #@! TO.N,Net-(D36-Pad2)*
X216331800Y-103124000D03*
D12*
G04 #@! TO.P,D36,1*
G04 #@! TO.N,Net-(D10-Pad1)*
X216331800Y-110744000D03*
G04 #@! TD*
G04 #@! TO.P,D37,1*
G04 #@! TO.N,Net-(D1-Pad1)*
X215849200Y-53390800D03*
D11*
G04 #@! TO.P,D37,2*
G04 #@! TO.N,Net-(D37-Pad2)*
X215849200Y-45770800D03*
G04 #@! TD*
G04 #@! TO.P,D40,2*
G04 #@! TO.N,Net-(D40-Pad2)*
X235458000Y-103124000D03*
D12*
G04 #@! TO.P,D40,1*
G04 #@! TO.N,Net-(D10-Pad1)*
X235458000Y-110744000D03*
G04 #@! TD*
G04 #@! TO.P,D41,1*
G04 #@! TO.N,Net-(D1-Pad1)*
X235483400Y-53543200D03*
D11*
G04 #@! TO.P,D41,2*
G04 #@! TO.N,Net-(D41-Pad2)*
X235483400Y-45923200D03*
G04 #@! TD*
D12*
G04 #@! TO.P,D44,1*
G04 #@! TO.N,Net-(D10-Pad1)*
X254635000Y-110617000D03*
D11*
G04 #@! TO.P,D44,2*
G04 #@! TO.N,Net-(D44-Pad2)*
X254635000Y-102997000D03*
G04 #@! TD*
D12*
G04 #@! TO.P,D45,1*
G04 #@! TO.N,Net-(D1-Pad1)*
X254457200Y-53365400D03*
D11*
G04 #@! TO.P,D45,2*
G04 #@! TO.N,Net-(D45-Pad2)*
X254457200Y-45745400D03*
G04 #@! TD*
D10*
G04 #@! TO.P,SW1,1*
G04 #@! TO.N,Net-(SW1-Pad1)*
X37160200Y-43307000D03*
G04 #@! TO.P,SW1,2*
G04 #@! TO.N,Net-(D1-Pad2)*
X30810200Y-45847000D03*
G04 #@! TD*
G04 #@! TO.P,SW3,1*
G04 #@! TO.N,Net-(SW1-Pad1)*
X39547800Y-62306200D03*
G04 #@! TO.P,SW3,2*
G04 #@! TO.N,Net-(D3-Pad2)*
X33197800Y-64846200D03*
G04 #@! TD*
G04 #@! TO.P,SW4,1*
G04 #@! TO.N,Net-(SW1-Pad1)*
X44323000Y-81356200D03*
G04 #@! TO.P,SW4,2*
G04 #@! TO.N,Net-(D4-Pad2)*
X37973000Y-83896200D03*
G04 #@! TD*
G04 #@! TO.P,SW5,1*
G04 #@! TO.N,Net-(SW5-Pad1)*
X56184800Y-43357800D03*
G04 #@! TO.P,SW5,2*
G04 #@! TO.N,Net-(D5-Pad2)*
X49834800Y-45897800D03*
G04 #@! TD*
G04 #@! TO.P,SW6,1*
G04 #@! TO.N,Net-(SW5-Pad1)*
X56210200Y-100406200D03*
G04 #@! TO.P,SW6,2*
G04 #@! TO.N,Net-(D6-Pad2)*
X49860200Y-102946200D03*
G04 #@! TD*
G04 #@! TO.P,SW7,2*
G04 #@! TO.N,Net-(D7-Pad2)*
X54635400Y-64846200D03*
G04 #@! TO.P,SW7,1*
G04 #@! TO.N,Net-(SW5-Pad1)*
X60985400Y-62306200D03*
G04 #@! TD*
G04 #@! TO.P,SW8,1*
G04 #@! TO.N,Net-(SW5-Pad1)*
X70510400Y-81330800D03*
G04 #@! TO.P,SW8,2*
G04 #@! TO.N,Net-(D8-Pad2)*
X64160400Y-83870800D03*
G04 #@! TD*
G04 #@! TO.P,SW9,2*
G04 #@! TO.N,Net-(D9-Pad2)*
X68961000Y-45897800D03*
G04 #@! TO.P,SW9,1*
G04 #@! TO.N,Net-(SW10-Pad1)*
X75311000Y-43357800D03*
G04 #@! TD*
G04 #@! TO.P,SW10,2*
G04 #@! TO.N,Net-(D10-Pad2)*
X68910200Y-102946200D03*
G04 #@! TO.P,SW10,1*
G04 #@! TO.N,Net-(SW10-Pad1)*
X75260200Y-100406200D03*
G04 #@! TD*
G04 #@! TO.P,SW11,2*
G04 #@! TO.N,Net-(D11-Pad2)*
X73710800Y-64846200D03*
G04 #@! TO.P,SW11,1*
G04 #@! TO.N,Net-(SW10-Pad1)*
X80060800Y-62306200D03*
G04 #@! TD*
G04 #@! TO.P,SW12,1*
G04 #@! TO.N,Net-(SW10-Pad1)*
X89585800Y-81356200D03*
G04 #@! TO.P,SW12,2*
G04 #@! TO.N,Net-(D12-Pad2)*
X83235800Y-83896200D03*
G04 #@! TD*
G04 #@! TO.P,SW13,1*
G04 #@! TO.N,Net-(SW13-Pad1)*
X94361000Y-43230800D03*
G04 #@! TO.P,SW13,2*
G04 #@! TO.N,Net-(D13-Pad2)*
X88011000Y-45770800D03*
G04 #@! TD*
G04 #@! TO.P,SW14,2*
G04 #@! TO.N,Net-(D14-Pad2)*
X92760800Y-64998600D03*
G04 #@! TO.P,SW14,1*
G04 #@! TO.N,Net-(SW13-Pad1)*
X99110800Y-62458600D03*
G04 #@! TD*
G04 #@! TO.P,SW15,1*
G04 #@! TO.N,Net-(SW13-Pad1)*
X108635800Y-81432400D03*
G04 #@! TO.P,SW15,2*
G04 #@! TO.N,Net-(D15-Pad2)*
X102285800Y-83972400D03*
G04 #@! TD*
G04 #@! TO.P,SW16,2*
G04 #@! TO.N,Net-(D16-Pad2)*
X106984800Y-45923200D03*
G04 #@! TO.P,SW16,1*
G04 #@! TO.N,Net-(SW16-Pad1)*
X113334800Y-43383200D03*
G04 #@! TD*
G04 #@! TO.P,SW17,1*
G04 #@! TO.N,Net-(SW16-Pad1)*
X118186200Y-62357000D03*
G04 #@! TO.P,SW17,2*
G04 #@! TO.N,Net-(D17-Pad2)*
X111836200Y-64897000D03*
G04 #@! TD*
G04 #@! TO.P,SW18,2*
G04 #@! TO.N,Net-(D18-Pad2)*
X121310400Y-83870800D03*
G04 #@! TO.P,SW18,1*
G04 #@! TO.N,Net-(SW16-Pad1)*
X127660400Y-81330800D03*
G04 #@! TD*
G04 #@! TO.P,SW19,1*
G04 #@! TO.N,Net-(SW19-Pad1)*
X132384800Y-43307000D03*
G04 #@! TO.P,SW19,2*
G04 #@! TO.N,Net-(D19-Pad2)*
X126034800Y-45847000D03*
G04 #@! TD*
G04 #@! TO.P,SW20,2*
G04 #@! TO.N,Net-(D20-Pad2)*
X130860800Y-64922400D03*
G04 #@! TO.P,SW20,1*
G04 #@! TO.N,Net-(SW19-Pad1)*
X137210800Y-62382400D03*
G04 #@! TD*
G04 #@! TO.P,SW21,1*
G04 #@! TO.N,Net-(SW19-Pad1)*
X146710400Y-81432400D03*
G04 #@! TO.P,SW21,2*
G04 #@! TO.N,Net-(D21-Pad2)*
X140360400Y-83972400D03*
G04 #@! TD*
G04 #@! TO.P,SW22,2*
G04 #@! TO.N,Net-(D22-Pad2)*
X145186400Y-103073200D03*
G04 #@! TO.P,SW22,1*
G04 #@! TO.N,Net-(SW19-Pad1)*
X151536400Y-100533200D03*
G04 #@! TD*
G04 #@! TO.P,SW23,1*
G04 #@! TO.N,Net-(SW23-Pad1)*
X151485600Y-43332400D03*
G04 #@! TO.P,SW23,2*
G04 #@! TO.N,Net-(D23-Pad2)*
X145135600Y-45872400D03*
G04 #@! TD*
G04 #@! TO.P,SW24,2*
G04 #@! TO.N,Net-(D24-Pad2)*
X149910800Y-64947800D03*
G04 #@! TO.P,SW24,1*
G04 #@! TO.N,Net-(SW23-Pad1)*
X156260800Y-62407800D03*
G04 #@! TD*
G04 #@! TO.P,SW25,1*
G04 #@! TO.N,Net-(SW23-Pad1)*
X165862000Y-81432400D03*
G04 #@! TO.P,SW25,2*
G04 #@! TO.N,Net-(D25-Pad2)*
X159512000Y-83972400D03*
G04 #@! TD*
G04 #@! TO.P,SW26,2*
G04 #@! TO.N,Net-(D26-Pad2)*
X164236400Y-45923200D03*
G04 #@! TO.P,SW26,1*
G04 #@! TO.N,Net-(SW26-Pad1)*
X170586400Y-43383200D03*
G04 #@! TD*
G04 #@! TO.P,SW27,1*
G04 #@! TO.N,Net-(SW26-Pad1)*
X175310800Y-62433200D03*
G04 #@! TO.P,SW27,2*
G04 #@! TO.N,Net-(D27-Pad2)*
X168960800Y-64973200D03*
G04 #@! TD*
G04 #@! TO.P,SW28,2*
G04 #@! TO.N,Net-(D28-Pad2)*
X178562000Y-83997800D03*
G04 #@! TO.P,SW28,1*
G04 #@! TO.N,Net-(SW26-Pad1)*
X184912000Y-81457800D03*
G04 #@! TD*
G04 #@! TO.P,SW29,1*
G04 #@! TO.N,Net-(SW29-Pad1)*
X189585600Y-43307000D03*
G04 #@! TO.P,SW29,2*
G04 #@! TO.N,Net-(D29-Pad2)*
X183235600Y-45847000D03*
G04 #@! TD*
G04 #@! TO.P,SW30,2*
G04 #@! TO.N,Net-(D30-Pad2)*
X188036200Y-64947800D03*
G04 #@! TO.P,SW30,1*
G04 #@! TO.N,Net-(SW29-Pad1)*
X194386200Y-62407800D03*
G04 #@! TD*
G04 #@! TO.P,SW31,1*
G04 #@! TO.N,Net-(SW29-Pad1)*
X203936600Y-81432400D03*
G04 #@! TO.P,SW31,2*
G04 #@! TO.N,Net-(D31-Pad2)*
X197586600Y-83972400D03*
G04 #@! TD*
G04 #@! TO.P,SW32,1*
G04 #@! TO.N,Net-(SW29-Pad1)*
X208661000Y-100457000D03*
G04 #@! TO.P,SW32,2*
G04 #@! TO.N,Net-(D32-Pad2)*
X202311000Y-102997000D03*
G04 #@! TD*
G04 #@! TO.P,SW33,2*
G04 #@! TO.N,Net-(D33-Pad2)*
X202311000Y-45872400D03*
G04 #@! TO.P,SW33,1*
G04 #@! TO.N,Net-(SW33-Pad1)*
X208661000Y-43332400D03*
G04 #@! TD*
G04 #@! TO.P,SW34,1*
G04 #@! TO.N,Net-(SW33-Pad1)*
X213436200Y-62357000D03*
G04 #@! TO.P,SW34,2*
G04 #@! TO.N,Net-(D34-Pad2)*
X207086200Y-64897000D03*
G04 #@! TD*
G04 #@! TO.P,SW35,2*
G04 #@! TO.N,Net-(D35-Pad2)*
X216611200Y-83947000D03*
G04 #@! TO.P,SW35,1*
G04 #@! TO.N,Net-(SW33-Pad1)*
X222961200Y-81407000D03*
G04 #@! TD*
G04 #@! TO.P,SW36,1*
G04 #@! TO.N,Net-(SW33-Pad1)*
X227660200Y-100507800D03*
G04 #@! TO.P,SW36,2*
G04 #@! TO.N,Net-(D36-Pad2)*
X221310200Y-103047800D03*
G04 #@! TD*
G04 #@! TO.P,SW39,2*
G04 #@! TO.N,Net-(D39-Pad2)*
X235686600Y-84023200D03*
G04 #@! TO.P,SW39,1*
G04 #@! TO.N,Net-(SW37-Pad1)*
X242036600Y-81483200D03*
G04 #@! TD*
G04 #@! TO.P,SW40,1*
G04 #@! TO.N,Net-(SW37-Pad1)*
X246786400Y-100507800D03*
G04 #@! TO.P,SW40,2*
G04 #@! TO.N,Net-(D40-Pad2)*
X240436400Y-103047800D03*
G04 #@! TD*
G04 #@! TO.P,SW41,2*
G04 #@! TO.N,Net-(D41-Pad2)*
X240411000Y-45897800D03*
G04 #@! TO.P,SW41,1*
G04 #@! TO.N,Net-(SW41-Pad1)*
X246761000Y-43357800D03*
G04 #@! TD*
G04 #@! TO.P,SW42,2*
G04 #@! TO.N,Net-(D42-Pad2)*
X252323600Y-64922400D03*
G04 #@! TO.P,SW42,1*
G04 #@! TO.N,Net-(SW41-Pad1)*
X258673600Y-62382400D03*
G04 #@! TD*
G04 #@! TO.P,SW43,2*
G04 #@! TO.N,Net-(D43-Pad2)*
X257073400Y-83947000D03*
G04 #@! TO.P,SW43,1*
G04 #@! TO.N,Net-(SW41-Pad1)*
X263423400Y-81407000D03*
G04 #@! TD*
G04 #@! TO.P,SW44,2*
G04 #@! TO.N,Net-(D44-Pad2)*
X259537200Y-103022400D03*
G04 #@! TO.P,SW44,1*
G04 #@! TO.N,Net-(SW41-Pad1)*
X265887200Y-100482400D03*
G04 #@! TD*
G04 #@! TO.P,SW45,1*
G04 #@! TO.N,Net-(SW45-Pad1)*
X265836400Y-43357800D03*
G04 #@! TO.P,SW45,2*
G04 #@! TO.N,Net-(D45-Pad2)*
X259486400Y-45897800D03*
G04 #@! TD*
D12*
G04 #@! TO.P,U1,1*
G04 #@! TO.N,Net-(U1-Pad1)*
X27406600Y-21666200D03*
D13*
G04 #@! TO.P,U1,2*
G04 #@! TO.N,Net-(SW29-Pad1)*
X29946600Y-21666200D03*
G04 #@! TO.P,U1,3*
G04 #@! TO.N,Net-(U1-Pad3)*
X32486600Y-21666200D03*
G04 #@! TO.P,U1,4*
G04 #@! TO.N,Net-(U1-Pad4)*
X35026600Y-21666200D03*
G04 #@! TO.P,U1,5*
G04 #@! TO.N,Net-(SW33-Pad1)*
X37566600Y-21666200D03*
G04 #@! TO.P,U1,6*
G04 #@! TO.N,Net-(SW37-Pad1)*
X40106600Y-21666200D03*
G04 #@! TO.P,U1,7*
G04 #@! TO.N,Net-(SW41-Pad1)*
X42646600Y-21666200D03*
G04 #@! TO.P,U1,8*
G04 #@! TO.N,Net-(SW45-Pad1)*
X45186600Y-21666200D03*
G04 #@! TO.P,U1,9*
G04 #@! TO.N,Net-(D1-Pad1)*
X47726600Y-21666200D03*
G04 #@! TO.P,U1,10*
G04 #@! TO.N,Net-(D11-Pad1)*
X50266600Y-21666200D03*
G04 #@! TO.P,U1,11*
G04 #@! TO.N,Net-(D12-Pad1)*
X52806600Y-21666200D03*
G04 #@! TO.P,U1,12*
G04 #@! TO.N,Net-(D10-Pad1)*
X55346600Y-21666200D03*
G04 #@! TO.P,U1,13*
G04 #@! TO.N,Net-(SW26-Pad1)*
X55346600Y-36906200D03*
G04 #@! TO.P,U1,14*
G04 #@! TO.N,Net-(SW23-Pad1)*
X52806600Y-36906200D03*
G04 #@! TO.P,U1,15*
G04 #@! TO.N,Net-(SW19-Pad1)*
X50266600Y-36906200D03*
G04 #@! TO.P,U1,16*
G04 #@! TO.N,Net-(SW16-Pad1)*
X47726600Y-36906200D03*
G04 #@! TO.P,U1,17*
G04 #@! TO.N,Net-(SW13-Pad1)*
X45186600Y-36906200D03*
G04 #@! TO.P,U1,18*
G04 #@! TO.N,Net-(SW10-Pad1)*
X42646600Y-36906200D03*
G04 #@! TO.P,U1,19*
G04 #@! TO.N,Net-(SW5-Pad1)*
X40106600Y-36906200D03*
G04 #@! TO.P,U1,20*
G04 #@! TO.N,Net-(SW1-Pad1)*
X37566600Y-36906200D03*
G04 #@! TO.P,U1,21*
G04 #@! TO.N,Net-(U1-Pad21)*
X35026600Y-36906200D03*
G04 #@! TO.P,U1,22*
G04 #@! TO.N,Net-(U1-Pad22)*
X32486600Y-36906200D03*
G04 #@! TO.P,U1,23*
G04 #@! TO.N,Net-(U1-Pad23)*
X29946600Y-36906200D03*
G04 #@! TO.P,U1,24*
G04 #@! TO.N,Net-(U1-Pad24)*
X27406600Y-36906200D03*
G04 #@! TD*
D14*
G04 #@! TO.N,Net-(SW1-Pad1)*
X44323000Y-93243400D02*
X44323000Y-81356200D01*
X37160200Y-100406200D02*
X44323000Y-93243400D01*
X39547800Y-76581000D02*
X44323000Y-81356200D01*
X39547800Y-62306200D02*
X39547800Y-76581000D01*
X37160200Y-59918600D02*
X37160200Y-43307000D01*
X39547800Y-62306200D02*
X37160200Y-59918600D01*
G04 #@! TO.N,Net-(SW5-Pad1)*
X56184800Y-57505600D02*
X60985400Y-62306200D01*
X56184800Y-43357800D02*
X56184800Y-57505600D01*
X60985400Y-71805800D02*
X70510400Y-81330800D01*
X60985400Y-62306200D02*
X60985400Y-71805800D01*
X70510400Y-82886434D02*
X70510400Y-81330800D01*
X70510400Y-87311802D02*
X70510400Y-82886434D01*
X58516001Y-99306201D02*
X70510400Y-87311802D01*
X57310199Y-99306201D02*
X58516001Y-99306201D01*
X56210200Y-100406200D02*
X57310199Y-99306201D01*
G04 #@! TO.N,Net-(SW10-Pad1)*
X80060800Y-71831200D02*
X80060800Y-62306200D01*
X89585800Y-81356200D02*
X80060800Y-71831200D01*
X75311000Y-57556400D02*
X80060800Y-62306200D01*
X75311000Y-43357800D02*
X75311000Y-57556400D01*
X89585800Y-82911834D02*
X89458800Y-83038834D01*
X89585800Y-81356200D02*
X89585800Y-82911834D01*
X76815834Y-100406200D02*
X75260200Y-100406200D01*
X89458800Y-87763234D02*
X76815834Y-100406200D01*
X89458800Y-83038834D02*
X89458800Y-87763234D01*
G04 #@! TO.N,Net-(SW13-Pad1)*
X94361000Y-57708800D02*
X99110800Y-62458600D01*
X94361000Y-43230800D02*
X94361000Y-57708800D01*
X99110800Y-71907400D02*
X108635800Y-81432400D01*
X99110800Y-62458600D02*
X99110800Y-71907400D01*
G04 #@! TO.N,Net-(SW16-Pad1)*
X113334800Y-57505600D02*
X118186200Y-62357000D01*
X113334800Y-43383200D02*
X113334800Y-57505600D01*
X118186200Y-71856600D02*
X127660400Y-81330800D01*
X118186200Y-62357000D02*
X118186200Y-71856600D01*
G04 #@! TO.N,Net-(SW19-Pad1)*
X132384800Y-57556400D02*
X137210800Y-62382400D01*
X132384800Y-43307000D02*
X132384800Y-57556400D01*
X137210800Y-71932800D02*
X146710400Y-81432400D01*
X137210800Y-62382400D02*
X137210800Y-71932800D01*
X146710400Y-95707200D02*
X151536400Y-100533200D01*
X146710400Y-81432400D02*
X146710400Y-95707200D01*
G04 #@! TO.N,Net-(SW23-Pad1)*
X151485600Y-57632600D02*
X156260800Y-62407800D01*
X151485600Y-43332400D02*
X151485600Y-57632600D01*
X156260800Y-71831200D02*
X165862000Y-81432400D01*
X156260800Y-62407800D02*
X156260800Y-71831200D01*
G04 #@! TO.N,Net-(SW26-Pad1)*
X170586400Y-57708800D02*
X175310800Y-62433200D01*
X170586400Y-43383200D02*
X170586400Y-57708800D01*
X175310800Y-71856600D02*
X184912000Y-81457800D01*
X175310800Y-62433200D02*
X175310800Y-71856600D01*
G04 #@! TO.N,Net-(SW29-Pad1)*
X208661000Y-86156800D02*
X203936600Y-81432400D01*
X208661000Y-100457000D02*
X208661000Y-86156800D01*
X194386200Y-71882000D02*
X194386200Y-62407800D01*
X203936600Y-81432400D02*
X194386200Y-71882000D01*
X189585600Y-57607200D02*
X189585600Y-43307000D01*
X194386200Y-62407800D02*
X189585600Y-57607200D01*
G04 #@! TO.N,Net-(SW33-Pad1)*
X208661000Y-57581800D02*
X213436200Y-62357000D01*
X208661000Y-43332400D02*
X208661000Y-57581800D01*
X213436200Y-71882000D02*
X222961200Y-81407000D01*
X213436200Y-62357000D02*
X213436200Y-71882000D01*
X222961200Y-95808800D02*
X227660200Y-100507800D01*
X222961200Y-81407000D02*
X222961200Y-95808800D01*
G04 #@! TO.N,Net-(SW37-Pad1)*
X242036600Y-95758000D02*
X242036600Y-81483200D01*
X246786400Y-100507800D02*
X242036600Y-95758000D01*
X232486200Y-48107600D02*
X227711000Y-43332400D01*
X232486200Y-62407800D02*
X232486200Y-48107600D01*
X242036600Y-81483200D02*
X242036600Y-71958200D01*
X242036600Y-71958200D02*
X232486200Y-62407800D01*
G04 #@! TO.N,Net-(SW41-Pad1)*
X246761000Y-43357800D02*
X258673600Y-55270400D01*
X263423400Y-98018600D02*
X265887200Y-100482400D01*
X263423400Y-81407000D02*
X263423400Y-98018600D01*
X258673600Y-62382400D02*
X258673600Y-76657200D01*
X258673600Y-55270400D02*
X258673600Y-62382400D01*
X258673600Y-76657200D02*
X263423400Y-81407000D01*
G04 #@! TD*
M02*
