  0
SECTION
  2
HEADER
  9
$ACADVER
  1
AC1009
  9
$EXTMIN
 10
0.0
 20
0.0
 30
0.0
  9
$EXTMAX
 10
1000.0
 20
1000.0
 30
0.0
  9
$FILLMODE
 70
 0
  9
$SPLFRAME
 70
 1
  0
ENDSEC
  0
SECTION
  2
TABLES
  0
TABLE
  2
LAYER
 70
1
  0
LAYER
  2
0
 70
     0
 62
     7
  6
CONTINUOUS
  0
ENDTAB
  0
ENDSEC
  0
SECTION
  2
ENTITIES
  0
LINE
  8
0
 62
     0
 10
253.745
 20
84.2793
 30
0.0
 11
253.902
 21
84.274
 31
0.0
  0
LINE
  8
0
 62
     0
 10
253.902
 20
84.274
 30
0.0
 11
254.058
 21
84.256
 31
0.0
  0
LINE
  8
0
 62
     0
 10
254.058
 20
84.256
 30
0.0
 11
254.212
 21
84.2243
 31
0.0
  0
LINE
  8
0
 62
     0
 10
254.212
 20
84.2243
 30
0.0
 11
254.364
 21
84.183
 31
0.0
  0
LINE
  8
0
 62
     0
 10
254.364
 20
84.183
 30
0.0
 11
254.511
 21
84.128
 31
0.0
  0
LINE
  8
0
 62
     0
 10
254.511
 20
84.128
 30
0.0
 11
254.653
 21
84.0631
 31
0.0
  0
LINE
  8
0
 62
     0
 10
254.653
 20
84.0631
 30
0.0
 11
254.79
 21
83.9858
 31
0.0
  0
LINE
  8
0
 62
     0
 10
254.79
 20
83.9858
 30
0.0
 11
254.92
 21
83.899
 31
0.0
  0
LINE
  8
0
 62
     0
 10
254.92
 20
83.899
 30
0.0
 11
255.043
 21
83.8013
 31
0.0
  0
LINE
  8
0
 62
     0
 10
255.043
 20
83.8013
 30
0.0
 11
255.16
 21
83.6951
 31
0.0
  0
LINE
  8
0
 62
     0
 10
255.16
 20
83.6951
 30
0.0
 11
255.266
 21
83.5794
 31
0.0
  0
LINE
  8
0
 62
     0
 10
255.266
 20
83.5794
 30
0.0
 11
255.364
 21
83.4552
 31
0.0
  0
LINE
  8
0
 62
     0
 10
255.364
 20
83.4552
 30
0.0
 11
255.451
 21
83.3244
 31
0.0
  0
LINE
  8
0
 62
     0
 10
255.451
 20
83.3244
 30
0.0
 11
255.528
 21
83.1882
 31
0.0
  0
LINE
  8
0
 62
     0
 10
255.528
 20
83.1882
 30
0.0
 11
255.593
 21
83.046
 31
0.0
  0
LINE
  8
0
 62
     0
 10
255.593
 20
83.046
 30
0.0
 11
255.648
 21
82.8985
 31
0.0
  0
LINE
  8
0
 62
     0
 10
255.648
 20
82.8985
 30
0.0
 11
255.689
 21
82.7472
 31
0.0
  0
LINE
  8
0
 62
     0
 10
255.689
 20
82.7472
 30
0.0
 11
255.72
 21
82.5927
 31
0.0
  0
LINE
  8
0
 62
     0
 10
255.72
 20
82.5927
 30
0.0
 11
255.739
 21
82.4371
 31
0.0
  0
LINE
  8
0
 62
     0
 10
255.739
 20
82.4371
 30
0.0
 11
255.746
 21
82.2798
 31
0.0
  0
LINE
  8
0
 62
     0
 10
255.746
 20
82.2798
 30
0.0
 11
255.746
 21
2.07946
 31
0.0
  0
LINE
  8
0
 62
     0
 10
255.746
 20
2.07946
 30
0.0
 11
255.739
 21
1.92236
 31
0.0
  0
LINE
  8
0
 62
     0
 10
255.739
 20
1.92236
 30
0.0
 11
255.72
 21
1.76664
 31
0.0
  0
LINE
  8
0
 62
     0
 10
255.72
 20
1.76664
 30
0.0
 11
255.689
 21
1.6123
 31
0.0
  0
LINE
  8
0
 62
     0
 10
255.689
 20
1.6123
 30
0.0
 11
255.648
 21
1.46072
 31
0.0
  0
LINE
  8
0
 62
     0
 10
255.648
 20
1.46072
 30
0.0
 11
255.593
 21
1.31327
 31
0.0
  0
LINE
  8
0
 62
     0
 10
255.593
 20
1.31327
 30
0.0
 11
255.528
 21
1.17133
 31
0.0
  0
LINE
  8
0
 62
     0
 10
255.528
 20
1.17133
 30
0.0
 11
255.451
 21
1.03491
 31
0.0
  0
LINE
  8
0
 62
     0
 10
255.451
 20
1.03491
 30
0.0
 11
255.364
 21
0.903993
 31
0.0
  0
LINE
  8
0
 62
     0
 10
255.364
 20
0.903993
 30
0.0
 11
255.266
 21
0.781346
 31
0.0
  0
LINE
  8
0
 62
     0
 10
255.266
 20
0.781346
 30
0.0
 11
255.16
 21
0.664214
 31
0.0
  0
LINE
  8
0
 62
     0
 10
255.16
 20
0.664214
 30
0.0
 11
255.043
 21
0.558105
 31
0.0
  0
LINE
  8
0
 62
     0
 10
255.043
 20
0.558105
 30
0.0
 11
254.92
 21
0.460266
 31
0.0
  0
LINE
  8
0
 62
     0
 10
254.92
 20
0.460266
 30
0.0
 11
254.79
 21
0.373447
 31
0.0
  0
LINE
  8
0
 62
     0
 10
254.79
 20
0.373447
 30
0.0
 11
254.653
 21
0.296278
 31
0.0
  0
LINE
  8
0
 62
     0
 10
254.653
 20
0.296278
 30
0.0
 11
254.511
 21
0.23151
 31
0.0
  0
LINE
  8
0
 62
     0
 10
254.511
 20
0.23151
 30
0.0
 11
254.364
 21
0.176389
 31
0.0
  0
LINE
  8
0
 62
     0
 10
254.364
 20
0.176389
 30
0.0
 11
254.212
 21
0.135048
 31
0.0
  0
LINE
  8
0
 62
     0
 10
254.212
 20
0.135048
 30
0.0
 11
254.058
 21
0.103353
 31
0.0
  0
LINE
  8
0
 62
     0
 10
254.058
 20
0.103353
 30
0.0
 11
253.902
 21
0.0854385
 31
0.0
  0
LINE
  8
0
 62
     0
 10
253.902
 20
0.0854385
 30
0.0
 11
253.744
 21
0.0799264
 31
0.0
  0
LINE
  8
0
 62
     0
 10
253.744
 20
0.0799264
 30
0.0
 11
2.09462
 21
0.0785481
 31
0.0
  0
LINE
  8
0
 62
     0
 10
2.09462
 20
0.0785481
 30
0.0
 11
1.93752
 21
0.0854385
 31
0.0
  0
LINE
  8
0
 62
     0
 10
1.93752
 20
0.0854385
 30
0.0
 11
1.7818
 21
0.103353
 31
0.0
  0
LINE
  8
0
 62
     0
 10
1.7818
 20
0.103353
 30
0.0
 11
1.62746
 21
0.135048
 31
0.0
  0
LINE
  8
0
 62
     0
 10
1.62746
 20
0.135048
 30
0.0
 11
1.47588
 21
0.176389
 31
0.0
  0
LINE
  8
0
 62
     0
 10
1.47588
 20
0.176389
 30
0.0
 11
1.32843
 21
0.23151
 31
0.0
  0
LINE
  8
0
 62
     0
 10
1.32843
 20
0.23151
 30
0.0
 11
1.18649
 21
0.296278
 31
0.0
  0
LINE
  8
0
 62
     0
 10
1.18649
 20
0.296278
 30
0.0
 11
1.05006
 21
0.373447
 31
0.0
  0
LINE
  8
0
 62
     0
 10
1.05006
 20
0.373447
 30
0.0
 11
0.919152
 21
0.460266
 31
0.0
  0
LINE
  8
0
 62
     0
 10
0.919152
 20
0.460266
 30
0.0
 11
0.795129
 21
0.558105
 31
0.0
  0
LINE
  8
0
 62
     0
 10
0.795129
 20
0.558105
 30
0.0
 11
0.679372
 21
0.664214
 31
0.0
  0
LINE
  8
0
 62
     0
 10
0.679372
 20
0.664214
 30
0.0
 11
0.573264
 21
0.781346
 31
0.0
  0
LINE
  8
0
 62
     0
 10
0.573264
 20
0.781346
 30
0.0
 11
0.475424
 21
0.903993
 31
0.0
  0
LINE
  8
0
 62
     0
 10
0.475424
 20
0.903993
 30
0.0
 11
0.388606
 21
1.03491
 31
0.0
  0
LINE
  8
0
 62
     0
 10
0.388606
 20
1.03491
 30
0.0
 11
0.311437
 21
1.17133
 31
0.0
  0
LINE
  8
0
 62
     0
 10
0.311437
 20
1.17133
 30
0.0
 11
0.246669
 21
1.31327
 31
0.0
  0
LINE
  8
0
 62
     0
 10
0.246669
 20
1.31327
 30
0.0
 11
0.191547
 21
1.46072
 31
0.0
  0
LINE
  8
0
 62
     0
 10
0.191547
 20
1.46072
 30
0.0
 11
0.150206
 21
1.6123
 31
0.0
  0
LINE
  8
0
 62
     0
 10
0.150206
 20
1.6123
 30
0.0
 11
0.118511
 21
1.76664
 31
0.0
  0
LINE
  8
0
 62
     0
 10
0.118511
 20
1.76664
 30
0.0
 11
0.100597
 21
1.92236
 31
0.0
  0
LINE
  8
0
 62
     0
 10
0.100597
 20
1.92236
 30
0.0
 11
0.0937066
 21
2.07946
 31
0.0
  0
LINE
  8
0
 62
     0
 10
0.0937066
 20
2.07946
 30
0.0
 11
0.0950846
 21
82.2798
 31
0.0
  0
LINE
  8
0
 62
     0
 10
0.0950846
 20
82.2798
 30
0.0
 11
0.100597
 21
82.4371
 31
0.0
  0
LINE
  8
0
 62
     0
 10
0.100597
 20
82.4371
 30
0.0
 11
0.118511
 21
82.5927
 31
0.0
  0
LINE
  8
0
 62
     0
 10
0.118511
 20
82.5927
 30
0.0
 11
0.150206
 21
82.7472
 31
0.0
  0
LINE
  8
0
 62
     0
 10
0.150206
 20
82.7472
 30
0.0
 11
0.191547
 21
82.8985
 31
0.0
  0
LINE
  8
0
 62
     0
 10
0.191547
 20
82.8985
 30
0.0
 11
0.246669
 21
83.046
 31
0.0
  0
LINE
  8
0
 62
     0
 10
0.246669
 20
83.046
 30
0.0
 11
0.311437
 21
83.1882
 31
0.0
  0
LINE
  8
0
 62
     0
 10
0.311437
 20
83.1882
 30
0.0
 11
0.388606
 21
83.3244
 31
0.0
  0
LINE
  8
0
 62
     0
 10
0.388606
 20
83.3244
 30
0.0
 11
0.475424
 21
83.4552
 31
0.0
  0
LINE
  8
0
 62
     0
 10
0.475424
 20
83.4552
 30
0.0
 11
0.573264
 21
83.5794
 31
0.0
  0
LINE
  8
0
 62
     0
 10
0.573264
 20
83.5794
 30
0.0
 11
0.679372
 21
83.6951
 31
0.0
  0
LINE
  8
0
 62
     0
 10
0.679372
 20
83.6951
 30
0.0
 11
0.795129
 21
83.8013
 31
0.0
  0
LINE
  8
0
 62
     0
 10
0.795129
 20
83.8013
 30
0.0
 11
0.919152
 21
83.899
 31
0.0
  0
LINE
  8
0
 62
     0
 10
0.919152
 20
83.899
 30
0.0
 11
1.05006
 21
83.9858
 31
0.0
  0
LINE
  8
0
 62
     0
 10
1.05006
 20
83.9858
 30
0.0
 11
1.18649
 21
84.0631
 31
0.0
  0
LINE
  8
0
 62
     0
 10
1.18649
 20
84.0631
 30
0.0
 11
1.32843
 21
84.128
 31
0.0
  0
LINE
  8
0
 62
     0
 10
1.32843
 20
84.128
 30
0.0
 11
1.47588
 21
84.183
 31
0.0
  0
LINE
  8
0
 62
     0
 10
1.47588
 20
84.183
 30
0.0
 11
1.62746
 21
84.2243
 31
0.0
  0
LINE
  8
0
 62
     0
 10
1.62746
 20
84.2243
 30
0.0
 11
1.7818
 21
84.256
 31
0.0
  0
LINE
  8
0
 62
     0
 10
1.7818
 20
84.256
 30
0.0
 11
1.93752
 21
84.274
 31
0.0
  0
LINE
  8
0
 62
     0
 10
1.93752
 20
84.274
 30
0.0
 11
2.09462
 21
84.2807
 31
0.0
  0
LINE
  8
0
 62
     0
 10
2.09462
 20
84.2807
 30
0.0
 11
253.745
 21
84.2793
 31
0.0
  0
LINE
  8
0
 62
     0
 10
253.436
 20
3.0303
 30
0.0
 11
253.158
 21
2.88837
 31
0.0
  0
LINE
  8
0
 62
     0
 10
253.158
 20
2.88837
 30
0.0
 11
252.936
 21
2.6665
 31
0.0
  0
LINE
  8
0
 62
     0
 10
252.936
 20
2.6665
 30
0.0
 11
252.794
 21
2.38814
 31
0.0
  0
LINE
  8
0
 62
     0
 10
252.794
 20
2.38814
 30
0.0
 11
252.746
 21
2.07946
 31
0.0
  0
LINE
  8
0
 62
     0
 10
252.746
 20
2.07946
 30
0.0
 11
252.794
 21
1.7694
 31
0.0
  0
LINE
  8
0
 62
     0
 10
252.794
 20
1.7694
 30
0.0
 11
252.936
 21
1.49242
 31
0.0
  0
LINE
  8
0
 62
     0
 10
252.936
 20
1.49242
 30
0.0
 11
253.158
 21
1.26917
 31
0.0
  0
LINE
  8
0
 62
     0
 10
253.158
 20
1.26917
 30
0.0
 11
253.436
 21
1.12723
 31
0.0
  0
LINE
  8
0
 62
     0
 10
253.436
 20
1.12723
 30
0.0
 11
253.745
 21
1.079
 31
0.0
  0
LINE
  8
0
 62
     0
 10
253.745
 20
1.079
 30
0.0
 11
254.054
 21
1.12723
 31
0.0
  0
LINE
  8
0
 62
     0
 10
254.054
 20
1.12723
 30
0.0
 11
254.332
 21
1.26917
 31
0.0
  0
LINE
  8
0
 62
     0
 10
254.332
 20
1.26917
 30
0.0
 11
254.554
 21
1.49242
 31
0.0
  0
LINE
  8
0
 62
     0
 10
254.554
 20
1.49242
 30
0.0
 11
254.696
 21
1.7694
 31
0.0
  0
LINE
  8
0
 62
     0
 10
254.696
 20
1.7694
 30
0.0
 11
254.745
 21
2.07946
 31
0.0
  0
LINE
  8
0
 62
     0
 10
254.745
 20
2.07946
 30
0.0
 11
254.696
 21
2.38814
 31
0.0
  0
LINE
  8
0
 62
     0
 10
254.696
 20
2.38814
 30
0.0
 11
254.554
 21
2.6665
 31
0.0
  0
LINE
  8
0
 62
     0
 10
254.554
 20
2.6665
 30
0.0
 11
254.332
 21
2.88837
 31
0.0
  0
LINE
  8
0
 62
     0
 10
254.332
 20
2.88837
 30
0.0
 11
254.054
 21
3.0303
 31
0.0
  0
LINE
  8
0
 62
     0
 10
254.054
 20
3.0303
 30
0.0
 11
253.745
 21
3.07854
 31
0.0
  0
LINE
  8
0
 62
     0
 10
253.745
 20
3.07854
 30
0.0
 11
253.436
 21
3.0303
 31
0.0
  0
LINE
  8
0
 62
     0
 10
190.523
 20
3.0303
 30
0.0
 11
190.245
 21
2.88837
 31
0.0
  0
LINE
  8
0
 62
     0
 10
190.245
 20
2.88837
 30
0.0
 11
190.023
 21
2.6665
 31
0.0
  0
LINE
  8
0
 62
     0
 10
190.023
 20
2.6665
 30
0.0
 11
189.881
 21
2.38814
 31
0.0
  0
LINE
  8
0
 62
     0
 10
189.881
 20
2.38814
 30
0.0
 11
189.833
 21
2.07946
 31
0.0
  0
LINE
  8
0
 62
     0
 10
189.833
 20
2.07946
 30
0.0
 11
189.881
 21
1.7694
 31
0.0
  0
LINE
  8
0
 62
     0
 10
189.881
 20
1.7694
 30
0.0
 11
190.023
 21
1.49242
 31
0.0
  0
LINE
  8
0
 62
     0
 10
190.023
 20
1.49242
 30
0.0
 11
190.245
 21
1.26917
 31
0.0
  0
LINE
  8
0
 62
     0
 10
190.245
 20
1.26917
 30
0.0
 11
190.523
 21
1.12723
 31
0.0
  0
LINE
  8
0
 62
     0
 10
190.523
 20
1.12723
 30
0.0
 11
190.832
 21
1.079
 31
0.0
  0
LINE
  8
0
 62
     0
 10
190.832
 20
1.079
 30
0.0
 11
191.142
 21
1.12723
 31
0.0
  0
LINE
  8
0
 62
     0
 10
191.142
 20
1.12723
 30
0.0
 11
191.42
 21
1.26917
 31
0.0
  0
LINE
  8
0
 62
     0
 10
191.42
 20
1.26917
 30
0.0
 11
191.642
 21
1.49242
 31
0.0
  0
LINE
  8
0
 62
     0
 10
191.642
 20
1.49242
 30
0.0
 11
191.784
 21
1.7694
 31
0.0
  0
LINE
  8
0
 62
     0
 10
191.784
 20
1.7694
 30
0.0
 11
191.832
 21
2.07946
 31
0.0
  0
LINE
  8
0
 62
     0
 10
191.832
 20
2.07946
 30
0.0
 11
191.784
 21
2.38814
 31
0.0
  0
LINE
  8
0
 62
     0
 10
191.784
 20
2.38814
 30
0.0
 11
191.642
 21
2.6665
 31
0.0
  0
LINE
  8
0
 62
     0
 10
191.642
 20
2.6665
 30
0.0
 11
191.42
 21
2.88837
 31
0.0
  0
LINE
  8
0
 62
     0
 10
191.42
 20
2.88837
 30
0.0
 11
191.142
 21
3.0303
 31
0.0
  0
LINE
  8
0
 62
     0
 10
191.142
 20
3.0303
 30
0.0
 11
190.832
 21
3.07854
 31
0.0
  0
LINE
  8
0
 62
     0
 10
190.832
 20
3.07854
 30
0.0
 11
190.523
 21
3.0303
 31
0.0
  0
LINE
  8
0
 62
     0
 10
127.61
 20
3.0303
 30
0.0
 11
127.332
 21
2.88837
 31
0.0
  0
LINE
  8
0
 62
     0
 10
127.332
 20
2.88837
 30
0.0
 11
127.11
 21
2.6665
 31
0.0
  0
LINE
  8
0
 62
     0
 10
127.11
 20
2.6665
 30
0.0
 11
126.968
 21
2.38814
 31
0.0
  0
LINE
  8
0
 62
     0
 10
126.968
 20
2.38814
 30
0.0
 11
126.92
 21
2.07946
 31
0.0
  0
LINE
  8
0
 62
     0
 10
126.92
 20
2.07946
 30
0.0
 11
126.968
 21
1.7694
 31
0.0
  0
LINE
  8
0
 62
     0
 10
126.968
 20
1.7694
 30
0.0
 11
127.11
 21
1.49242
 31
0.0
  0
LINE
  8
0
 62
     0
 10
127.11
 20
1.49242
 30
0.0
 11
127.332
 21
1.26917
 31
0.0
  0
LINE
  8
0
 62
     0
 10
127.332
 20
1.26917
 30
0.0
 11
127.61
 21
1.12723
 31
0.0
  0
LINE
  8
0
 62
     0
 10
127.61
 20
1.12723
 30
0.0
 11
127.919
 21
1.079
 31
0.0
  0
LINE
  8
0
 62
     0
 10
127.919
 20
1.079
 30
0.0
 11
128.229
 21
1.12723
 31
0.0
  0
LINE
  8
0
 62
     0
 10
128.229
 20
1.12723
 30
0.0
 11
128.507
 21
1.26917
 31
0.0
  0
LINE
  8
0
 62
     0
 10
128.507
 20
1.26917
 30
0.0
 11
128.729
 21
1.49242
 31
0.0
  0
LINE
  8
0
 62
     0
 10
128.729
 20
1.49242
 30
0.0
 11
128.871
 21
1.7694
 31
0.0
  0
LINE
  8
0
 62
     0
 10
128.871
 20
1.7694
 30
0.0
 11
128.919
 21
2.07946
 31
0.0
  0
LINE
  8
0
 62
     0
 10
128.919
 20
2.07946
 30
0.0
 11
128.871
 21
2.38814
 31
0.0
  0
LINE
  8
0
 62
     0
 10
128.871
 20
2.38814
 30
0.0
 11
128.729
 21
2.6665
 31
0.0
  0
LINE
  8
0
 62
     0
 10
128.729
 20
2.6665
 30
0.0
 11
128.507
 21
2.88837
 31
0.0
  0
LINE
  8
0
 62
     0
 10
128.507
 20
2.88837
 30
0.0
 11
128.229
 21
3.0303
 31
0.0
  0
LINE
  8
0
 62
     0
 10
128.229
 20
3.0303
 30
0.0
 11
127.919
 21
3.07854
 31
0.0
  0
LINE
  8
0
 62
     0
 10
127.919
 20
3.07854
 30
0.0
 11
127.61
 21
3.0303
 31
0.0
  0
LINE
  8
0
 62
     0
 10
64.6977
 20
3.0303
 30
0.0
 11
64.419
 21
2.88837
 31
0.0
  0
LINE
  8
0
 62
     0
 10
64.419
 20
2.88837
 30
0.0
 11
64.1974
 21
2.6665
 31
0.0
  0
LINE
  8
0
 62
     0
 10
64.1974
 20
2.6665
 30
0.0
 11
64.0553
 21
2.38814
 31
0.0
  0
LINE
  8
0
 62
     0
 10
64.0553
 20
2.38814
 30
0.0
 11
64.0073
 21
2.07946
 31
0.0
  0
LINE
  8
0
 62
     0
 10
64.0073
 20
2.07946
 30
0.0
 11
64.0553
 21
1.7694
 31
0.0
  0
LINE
  8
0
 62
     0
 10
64.0553
 20
1.7694
 30
0.0
 11
64.1974
 21
1.49242
 31
0.0
  0
LINE
  8
0
 62
     0
 10
64.1974
 20
1.49242
 30
0.0
 11
64.419
 21
1.26917
 31
0.0
  0
LINE
  8
0
 62
     0
 10
64.419
 20
1.26917
 30
0.0
 11
64.6977
 21
1.12723
 31
0.0
  0
LINE
  8
0
 62
     0
 10
64.6977
 20
1.12723
 30
0.0
 11
65.0064
 21
1.079
 31
0.0
  0
LINE
  8
0
 62
     0
 10
65.0064
 20
1.079
 30
0.0
 11
65.3161
 21
1.12723
 31
0.0
  0
LINE
  8
0
 62
     0
 10
65.3161
 20
1.12723
 30
0.0
 11
65.5948
 21
1.26917
 31
0.0
  0
LINE
  8
0
 62
     0
 10
65.5948
 20
1.26917
 30
0.0
 11
65.8153
 21
1.49242
 31
0.0
  0
LINE
  8
0
 62
     0
 10
65.8153
 20
1.49242
 30
0.0
 11
65.9585
 21
1.7694
 31
0.0
  0
LINE
  8
0
 62
     0
 10
65.9585
 20
1.7694
 30
0.0
 11
66.0065
 21
2.07946
 31
0.0
  0
LINE
  8
0
 62
     0
 10
66.0065
 20
2.07946
 30
0.0
 11
65.9585
 21
2.38814
 31
0.0
  0
LINE
  8
0
 62
     0
 10
65.9585
 20
2.38814
 30
0.0
 11
65.8153
 21
2.6665
 31
0.0
  0
LINE
  8
0
 62
     0
 10
65.8153
 20
2.6665
 30
0.0
 11
65.5948
 21
2.88837
 31
0.0
  0
LINE
  8
0
 62
     0
 10
65.5948
 20
2.88837
 30
0.0
 11
65.3161
 21
3.0303
 31
0.0
  0
LINE
  8
0
 62
     0
 10
65.3161
 20
3.0303
 30
0.0
 11
65.0064
 21
3.07854
 31
0.0
  0
LINE
  8
0
 62
     0
 10
65.0064
 20
3.07854
 30
0.0
 11
64.6977
 21
3.0303
 31
0.0
  0
LINE
  8
0
 62
     0
 10
1.78456
 20
3.0303
 30
0.0
 11
1.5062
 21
2.88837
 31
0.0
  0
LINE
  8
0
 62
     0
 10
1.5062
 20
2.88837
 30
0.0
 11
1.28433
 21
2.6665
 31
0.0
  0
LINE
  8
0
 62
     0
 10
1.28433
 20
2.6665
 30
0.0
 11
1.14239
 21
2.38814
 31
0.0
  0
LINE
  8
0
 62
     0
 10
1.14239
 20
2.38814
 30
0.0
 11
1.09416
 21
2.07946
 31
0.0
  0
LINE
  8
0
 62
     0
 10
1.09416
 20
2.07946
 30
0.0
 11
1.14239
 21
1.7694
 31
0.0
  0
LINE
  8
0
 62
     0
 10
1.14239
 20
1.7694
 30
0.0
 11
1.28433
 21
1.49242
 31
0.0
  0
LINE
  8
0
 62
     0
 10
1.28433
 20
1.49242
 30
0.0
 11
1.5062
 21
1.26917
 31
0.0
  0
LINE
  8
0
 62
     0
 10
1.5062
 20
1.26917
 30
0.0
 11
1.78456
 21
1.12723
 31
0.0
  0
LINE
  8
0
 62
     0
 10
1.78456
 20
1.12723
 30
0.0
 11
2.09462
 21
1.079
 31
0.0
  0
LINE
  8
0
 62
     0
 10
2.09462
 20
1.079
 30
0.0
 11
2.4033
 21
1.12723
 31
0.0
  0
LINE
  8
0
 62
     0
 10
2.4033
 20
1.12723
 30
0.0
 11
2.68166
 21
1.26917
 31
0.0
  0
LINE
  8
0
 62
     0
 10
2.68166
 20
1.26917
 30
0.0
 11
2.90353
 21
1.49242
 31
0.0
  0
LINE
  8
0
 62
     0
 10
2.90353
 20
1.49242
 30
0.0
 11
3.04546
 21
1.7694
 31
0.0
  0
LINE
  8
0
 62
     0
 10
3.04546
 20
1.7694
 30
0.0
 11
3.09507
 21
2.07946
 31
0.0
  0
LINE
  8
0
 62
     0
 10
3.09507
 20
2.07946
 30
0.0
 11
3.04546
 21
2.38814
 31
0.0
  0
LINE
  8
0
 62
     0
 10
3.04546
 20
2.38814
 30
0.0
 11
2.90353
 21
2.6665
 31
0.0
  0
LINE
  8
0
 62
     0
 10
2.90353
 20
2.6665
 30
0.0
 11
2.68166
 21
2.88837
 31
0.0
  0
LINE
  8
0
 62
     0
 10
2.68166
 20
2.88837
 30
0.0
 11
2.4033
 21
3.0303
 31
0.0
  0
LINE
  8
0
 62
     0
 10
2.4033
 20
3.0303
 30
0.0
 11
2.09462
 21
3.07854
 31
0.0
  0
LINE
  8
0
 62
     0
 10
2.09462
 20
3.07854
 30
0.0
 11
1.78456
 21
3.0303
 31
0.0
  0
LINE
  8
0
 62
     0
 10
94.7265
 20
20.6044
 30
0.0
 11
94.7265
 21
19.6053
 31
0.0
  0
LINE
  8
0
 62
     0
 10
94.7265
 20
19.6053
 30
0.0
 11
93.9257
 21
19.6053
 31
0.0
  0
LINE
  8
0
 62
     0
 10
93.9257
 20
19.6053
 30
0.0
 11
93.9257
 21
16.5062
 31
0.0
  0
LINE
  8
0
 62
     0
 10
93.9257
 20
16.5062
 30
0.0
 11
94.7265
 21
16.5062
 31
0.0
  0
LINE
  8
0
 62
     0
 10
94.7265
 20
16.5062
 30
0.0
 11
94.7265
 21
15.9053
 31
0.0
  0
LINE
  8
0
 62
     0
 10
94.7265
 20
15.9053
 30
0.0
 11
93.2007
 21
15.9053
 31
0.0
  0
LINE
  8
0
 62
     0
 10
93.2007
 20
15.9053
 30
0.0
 11
93.2007
 21
19.1354
 31
0.0
  0
LINE
  8
0
 62
     0
 10
93.2007
 20
19.1354
 30
0.0
 11
91.4756
 21
19.1354
 31
0.0
  0
LINE
  8
0
 62
     0
 10
91.4756
 20
19.1354
 30
0.0
 11
91.4756
 21
20.0546
 31
0.0
  0
LINE
  8
0
 62
     0
 10
91.4756
 20
20.0546
 30
0.0
 11
88.175
 21
20.0546
 31
0.0
  0
LINE
  8
0
 62
     0
 10
88.175
 20
20.0546
 30
0.0
 11
88.175
 21
19.1354
 31
0.0
  0
LINE
  8
0
 62
     0
 10
88.175
 20
19.1354
 30
0.0
 11
86.7131
 21
19.1354
 31
0.0
  0
LINE
  8
0
 62
     0
 10
86.7131
 20
19.1354
 30
0.0
 11
86.7131
 21
20.0546
 31
0.0
  0
LINE
  8
0
 62
     0
 10
86.7131
 20
20.0546
 30
0.0
 11
83.4125
 21
20.0546
 31
0.0
  0
LINE
  8
0
 62
     0
 10
83.4125
 20
20.0546
 30
0.0
 11
83.4125
 21
19.1354
 31
0.0
  0
LINE
  8
0
 62
     0
 10
83.4125
 20
19.1354
 30
0.0
 11
81.6875
 21
19.1354
 31
0.0
  0
LINE
  8
0
 62
     0
 10
81.6875
 20
19.1354
 30
0.0
 11
81.6875
 21
15.9053
 31
0.0
  0
LINE
  8
0
 62
     0
 10
81.6875
 20
15.9053
 30
0.0
 11
80.8634
 21
15.9053
 31
0.0
  0
LINE
  8
0
 62
     0
 10
80.8634
 20
15.9053
 30
0.0
 11
80.8634
 21
13.1051
 31
0.0
  0
LINE
  8
0
 62
     0
 10
80.8634
 20
13.1051
 30
0.0
 11
81.6875
 21
13.1051
 31
0.0
  0
LINE
  8
0
 62
     0
 10
81.6875
 20
13.1051
 30
0.0
 11
81.6875
 21
6.83507
 31
0.0
  0
LINE
  8
0
 62
     0
 10
81.6875
 20
6.83507
 30
0.0
 11
83.4125
 21
6.83507
 31
0.0
  0
LINE
  8
0
 62
     0
 10
83.4125
 20
6.83507
 30
0.0
 11
83.4125
 21
5.8553
 31
0.0
  0
LINE
  8
0
 62
     0
 10
83.4125
 20
5.8553
 30
0.0
 11
86.7131
 21
5.8553
 31
0.0
  0
LINE
  8
0
 62
     0
 10
86.7131
 20
5.8553
 30
0.0
 11
86.7131
 21
6.83507
 31
0.0
  0
LINE
  8
0
 62
     0
 10
86.7131
 20
6.83507
 30
0.0
 11
88.175
 21
6.83507
 31
0.0
  0
LINE
  8
0
 62
     0
 10
88.175
 20
6.83507
 30
0.0
 11
88.175
 21
5.8553
 31
0.0
  0
LINE
  8
0
 62
     0
 10
88.175
 20
5.8553
 30
0.0
 11
91.4756
 21
5.8553
 31
0.0
  0
LINE
  8
0
 62
     0
 10
91.4756
 20
5.8553
 30
0.0
 11
91.4756
 21
6.83507
 31
0.0
  0
LINE
  8
0
 62
     0
 10
91.4756
 20
6.83507
 30
0.0
 11
93.2007
 21
6.83507
 31
0.0
  0
LINE
  8
0
 62
     0
 10
93.2007
 20
6.83507
 30
0.0
 11
93.2007
 21
11.3054
 31
0.0
  0
LINE
  8
0
 62
     0
 10
93.2007
 20
11.3054
 30
0.0
 11
94.7265
 21
11.3054
 31
0.0
  0
LINE
  8
0
 62
     0
 10
94.7265
 20
11.3054
 30
0.0
 11
94.7265
 21
10.7046
 31
0.0
  0
LINE
  8
0
 62
     0
 10
94.7265
 20
10.7046
 30
0.0
 11
93.9257
 21
10.7046
 31
0.0
  0
LINE
  8
0
 62
     0
 10
93.9257
 20
10.7046
 30
0.0
 11
93.9257
 21
7.60539
 31
0.0
  0
LINE
  8
0
 62
     0
 10
93.9257
 20
7.60539
 30
0.0
 11
94.7265
 21
7.60539
 31
0.0
  0
LINE
  8
0
 62
     0
 10
94.7265
 20
7.60539
 30
0.0
 11
94.7265
 21
6.60495
 31
0.0
  0
LINE
  8
0
 62
     0
 10
94.7265
 20
6.60495
 30
0.0
 11
108.726
 21
6.60495
 31
0.0
  0
LINE
  8
0
 62
     0
 10
108.726
 20
6.60495
 30
0.0
 11
108.726
 21
7.60539
 31
0.0
  0
LINE
  8
0
 62
     0
 10
108.726
 20
7.60539
 30
0.0
 11
109.525
 21
7.60539
 31
0.0
  0
LINE
  8
0
 62
     0
 10
109.525
 20
7.60539
 30
0.0
 11
109.525
 21
10.7046
 31
0.0
  0
LINE
  8
0
 62
     0
 10
109.525
 20
10.7046
 30
0.0
 11
108.726
 21
10.7046
 31
0.0
  0
LINE
  8
0
 62
     0
 10
108.726
 20
10.7046
 30
0.0
 11
108.726
 21
11.3054
 31
0.0
  0
LINE
  8
0
 62
     0
 10
108.726
 20
11.3054
 30
0.0
 11
110.251
 21
11.3054
 31
0.0
  0
LINE
  8
0
 62
     0
 10
110.251
 20
11.3054
 30
0.0
 11
110.251
 21
6.83507
 31
0.0
  0
LINE
  8
0
 62
     0
 10
110.251
 20
6.83507
 30
0.0
 11
111.975
 21
6.83507
 31
0.0
  0
LINE
  8
0
 62
     0
 10
111.975
 20
6.83507
 30
0.0
 11
111.975
 21
5.8553
 31
0.0
  0
LINE
  8
0
 62
     0
 10
111.975
 20
5.8553
 30
0.0
 11
115.276
 21
5.8553
 31
0.0
  0
LINE
  8
0
 62
     0
 10
115.276
 20
5.8553
 30
0.0
 11
115.276
 21
6.83507
 31
0.0
  0
LINE
  8
0
 62
     0
 10
115.276
 20
6.83507
 30
0.0
 11
117.001
 21
6.83507
 31
0.0
  0
LINE
  8
0
 62
     0
 10
117.001
 20
6.83507
 30
0.0
 11
117.001
 21
11.3054
 31
0.0
  0
LINE
  8
0
 62
     0
 10
117.001
 20
11.3054
 30
0.0
 11
128.063
 21
11.3054
 31
0.0
  0
LINE
  8
0
 62
     0
 10
128.063
 20
11.3054
 30
0.0
 11
128.063
 21
10.7046
 31
0.0
  0
LINE
  8
0
 62
     0
 10
128.063
 20
10.7046
 30
0.0
 11
127.263
 21
10.7046
 31
0.0
  0
LINE
  8
0
 62
     0
 10
127.263
 20
10.7046
 30
0.0
 11
127.263
 21
7.60539
 31
0.0
  0
LINE
  8
0
 62
     0
 10
127.263
 20
7.60539
 30
0.0
 11
128.063
 21
7.60539
 31
0.0
  0
LINE
  8
0
 62
     0
 10
128.063
 20
7.60539
 30
0.0
 11
128.063
 21
6.60495
 31
0.0
  0
LINE
  8
0
 62
     0
 10
128.063
 20
6.60495
 30
0.0
 11
135.8
 21
6.60495
 31
0.0
  0
LINE
  8
0
 62
     0
 10
135.8
 20
6.60495
 30
0.0
 11
135.8
 21
5.8553
 31
0.0
  0
LINE
  8
0
 62
     0
 10
135.8
 20
5.8553
 30
0.0
 11
139.101
 21
5.8553
 31
0.0
  0
LINE
  8
0
 62
     0
 10
139.101
 20
5.8553
 30
0.0
 11
139.101
 21
6.60495
 31
0.0
  0
LINE
  8
0
 62
     0
 10
139.101
 20
6.60495
 30
0.0
 11
142.063
 21
6.60495
 31
0.0
  0
LINE
  8
0
 62
     0
 10
142.063
 20
6.60495
 30
0.0
 11
142.063
 21
7.60539
 31
0.0
  0
LINE
  8
0
 62
     0
 10
142.063
 20
7.60539
 30
0.0
 11
142.351
 21
7.60539
 31
0.0
  0
LINE
  8
0
 62
     0
 10
142.351
 20
7.60539
 30
0.0
 11
142.351
 21
6.60495
 31
0.0
  0
LINE
  8
0
 62
     0
 10
142.351
 20
6.60495
 30
0.0
 11
156.351
 21
6.60495
 31
0.0
  0
LINE
  8
0
 62
     0
 10
156.351
 20
6.60495
 30
0.0
 11
156.351
 21
7.60539
 31
0.0
  0
LINE
  8
0
 62
     0
 10
156.351
 20
7.60539
 30
0.0
 11
157.15
 21
7.60539
 31
0.0
  0
LINE
  8
0
 62
     0
 10
157.15
 20
7.60539
 30
0.0
 11
157.15
 21
10.7046
 31
0.0
  0
LINE
  8
0
 62
     0
 10
157.15
 20
10.7046
 30
0.0
 11
156.351
 21
10.7046
 31
0.0
  0
LINE
  8
0
 62
     0
 10
156.351
 20
10.7046
 30
0.0
 11
156.351
 21
11.3054
 31
0.0
  0
LINE
  8
0
 62
     0
 10
156.351
 20
11.3054
 30
0.0
 11
157.876
 21
11.3054
 31
0.0
  0
LINE
  8
0
 62
     0
 10
157.876
 20
11.3054
 30
0.0
 11
157.876
 21
6.83507
 31
0.0
  0
LINE
  8
0
 62
     0
 10
157.876
 20
6.83507
 30
0.0
 11
159.6
 21
6.83507
 31
0.0
  0
LINE
  8
0
 62
     0
 10
159.6
 20
6.83507
 30
0.0
 11
159.6
 21
5.8553
 31
0.0
  0
LINE
  8
0
 62
     0
 10
159.6
 20
5.8553
 30
0.0
 11
162.901
 21
5.8553
 31
0.0
  0
LINE
  8
0
 62
     0
 10
162.901
 20
5.8553
 30
0.0
 11
162.901
 21
6.83507
 31
0.0
  0
LINE
  8
0
 62
     0
 10
162.901
 20
6.83507
 30
0.0
 11
164.626
 21
6.83507
 31
0.0
  0
LINE
  8
0
 62
     0
 10
164.626
 20
6.83507
 30
0.0
 11
164.626
 21
11.3054
 31
0.0
  0
LINE
  8
0
 62
     0
 10
164.626
 20
11.3054
 30
0.0
 11
175.688
 21
11.3054
 31
0.0
  0
LINE
  8
0
 62
     0
 10
175.688
 20
11.3054
 30
0.0
 11
175.688
 21
10.7046
 31
0.0
  0
LINE
  8
0
 62
     0
 10
175.688
 20
10.7046
 30
0.0
 11
174.888
 21
10.7046
 31
0.0
  0
LINE
  8
0
 62
     0
 10
174.888
 20
10.7046
 30
0.0
 11
174.888
 21
7.60539
 31
0.0
  0
LINE
  8
0
 62
     0
 10
174.888
 20
7.60539
 30
0.0
 11
175.688
 21
7.60539
 31
0.0
  0
LINE
  8
0
 62
     0
 10
175.688
 20
7.60539
 30
0.0
 11
175.688
 21
6.60495
 31
0.0
  0
LINE
  8
0
 62
     0
 10
175.688
 20
6.60495
 30
0.0
 11
183.413
 21
6.60495
 31
0.0
  0
LINE
  8
0
 62
     0
 10
183.413
 20
6.60495
 30
0.0
 11
183.413
 21
5.8553
 31
0.0
  0
LINE
  8
0
 62
     0
 10
183.413
 20
5.8553
 30
0.0
 11
186.713
 21
5.8553
 31
0.0
  0
LINE
  8
0
 62
     0
 10
186.713
 20
5.8553
 30
0.0
 11
186.713
 21
6.60495
 31
0.0
  0
LINE
  8
0
 62
     0
 10
186.713
 20
6.60495
 30
0.0
 11
189.688
 21
6.60495
 31
0.0
  0
LINE
  8
0
 62
     0
 10
189.688
 20
6.60495
 30
0.0
 11
189.688
 21
7.60539
 31
0.0
  0
LINE
  8
0
 62
     0
 10
189.688
 20
7.60539
 30
0.0
 11
190.488
 21
7.60539
 31
0.0
  0
LINE
  8
0
 62
     0
 10
190.488
 20
7.60539
 30
0.0
 11
190.488
 21
10.7046
 31
0.0
  0
LINE
  8
0
 62
     0
 10
190.488
 20
10.7046
 30
0.0
 11
189.688
 21
10.7046
 31
0.0
  0
LINE
  8
0
 62
     0
 10
189.688
 20
10.7046
 30
0.0
 11
189.688
 21
16.5062
 31
0.0
  0
LINE
  8
0
 62
     0
 10
189.688
 20
16.5062
 30
0.0
 11
190.488
 21
16.5062
 31
0.0
  0
LINE
  8
0
 62
     0
 10
190.488
 20
16.5062
 30
0.0
 11
190.488
 21
19.6053
 31
0.0
  0
LINE
  8
0
 62
     0
 10
190.488
 20
19.6053
 30
0.0
 11
189.688
 21
19.6053
 31
0.0
  0
LINE
  8
0
 62
     0
 10
189.688
 20
19.6053
 30
0.0
 11
189.688
 21
20.6044
 31
0.0
  0
LINE
  8
0
 62
     0
 10
189.688
 20
20.6044
 30
0.0
 11
175.688
 21
20.6044
 31
0.0
  0
LINE
  8
0
 62
     0
 10
175.688
 20
20.6044
 30
0.0
 11
175.688
 21
19.6053
 31
0.0
  0
LINE
  8
0
 62
     0
 10
175.688
 20
19.6053
 30
0.0
 11
174.888
 21
19.6053
 31
0.0
  0
LINE
  8
0
 62
     0
 10
174.888
 20
19.6053
 30
0.0
 11
174.888
 21
16.5062
 31
0.0
  0
LINE
  8
0
 62
     0
 10
174.888
 20
16.5062
 30
0.0
 11
175.688
 21
16.5062
 31
0.0
  0
LINE
  8
0
 62
     0
 10
175.688
 20
16.5062
 30
0.0
 11
175.688
 21
15.9053
 31
0.0
  0
LINE
  8
0
 62
     0
 10
175.688
 20
15.9053
 30
0.0
 11
164.626
 21
15.9053
 31
0.0
  0
LINE
  8
0
 62
     0
 10
164.626
 20
15.9053
 30
0.0
 11
164.626
 21
19.1354
 31
0.0
  0
LINE
  8
0
 62
     0
 10
164.626
 20
19.1354
 30
0.0
 11
162.901
 21
19.1354
 31
0.0
  0
LINE
  8
0
 62
     0
 10
162.901
 20
19.1354
 30
0.0
 11
162.901
 21
20.0546
 31
0.0
  0
LINE
  8
0
 62
     0
 10
162.901
 20
20.0546
 30
0.0
 11
159.6
 21
20.0546
 31
0.0
  0
LINE
  8
0
 62
     0
 10
159.6
 20
20.0546
 30
0.0
 11
159.6
 21
19.1354
 31
0.0
  0
LINE
  8
0
 62
     0
 10
159.6
 20
19.1354
 30
0.0
 11
157.876
 21
19.1354
 31
0.0
  0
LINE
  8
0
 62
     0
 10
157.876
 20
19.1354
 30
0.0
 11
157.876
 21
15.9053
 31
0.0
  0
LINE
  8
0
 62
     0
 10
157.876
 20
15.9053
 30
0.0
 11
156.351
 21
15.9053
 31
0.0
  0
LINE
  8
0
 62
     0
 10
156.351
 20
15.9053
 30
0.0
 11
156.351
 21
16.5062
 31
0.0
  0
LINE
  8
0
 62
     0
 10
156.351
 20
16.5062
 30
0.0
 11
157.15
 21
16.5062
 31
0.0
  0
LINE
  8
0
 62
     0
 10
157.15
 20
16.5062
 30
0.0
 11
157.15
 21
19.6053
 31
0.0
  0
LINE
  8
0
 62
     0
 10
157.15
 20
19.6053
 30
0.0
 11
156.351
 21
19.6053
 31
0.0
  0
LINE
  8
0
 62
     0
 10
156.351
 20
19.6053
 30
0.0
 11
156.351
 21
20.6044
 31
0.0
  0
LINE
  8
0
 62
     0
 10
156.351
 20
20.6044
 30
0.0
 11
142.351
 21
20.6044
 31
0.0
  0
LINE
  8
0
 62
     0
 10
142.351
 20
20.6044
 30
0.0
 11
142.351
 21
19.6053
 31
0.0
  0
LINE
  8
0
 62
     0
 10
142.351
 20
19.6053
 30
0.0
 11
142.063
 21
19.6053
 31
0.0
  0
LINE
  8
0
 62
     0
 10
142.063
 20
19.6053
 30
0.0
 11
142.063
 21
20.6044
 31
0.0
  0
LINE
  8
0
 62
     0
 10
142.063
 20
20.6044
 30
0.0
 11
128.063
 21
20.6044
 31
0.0
  0
LINE
  8
0
 62
     0
 10
128.063
 20
20.6044
 30
0.0
 11
128.063
 21
19.6053
 31
0.0
  0
LINE
  8
0
 62
     0
 10
128.063
 20
19.6053
 30
0.0
 11
127.263
 21
19.6053
 31
0.0
  0
LINE
  8
0
 62
     0
 10
127.263
 20
19.6053
 30
0.0
 11
127.263
 21
16.5062
 31
0.0
  0
LINE
  8
0
 62
     0
 10
127.263
 20
16.5062
 30
0.0
 11
128.063
 21
16.5062
 31
0.0
  0
LINE
  8
0
 62
     0
 10
128.063
 20
16.5062
 30
0.0
 11
128.063
 21
15.9053
 31
0.0
  0
LINE
  8
0
 62
     0
 10
128.063
 20
15.9053
 30
0.0
 11
117.001
 21
15.9053
 31
0.0
  0
LINE
  8
0
 62
     0
 10
117.001
 20
15.9053
 30
0.0
 11
117.001
 21
19.1354
 31
0.0
  0
LINE
  8
0
 62
     0
 10
117.001
 20
19.1354
 30
0.0
 11
115.276
 21
19.1354
 31
0.0
  0
LINE
  8
0
 62
     0
 10
115.276
 20
19.1354
 30
0.0
 11
115.276
 21
20.0546
 31
0.0
  0
LINE
  8
0
 62
     0
 10
115.276
 20
20.0546
 30
0.0
 11
111.975
 21
20.0546
 31
0.0
  0
LINE
  8
0
 62
     0
 10
111.975
 20
20.0546
 30
0.0
 11
111.975
 21
19.1354
 31
0.0
  0
LINE
  8
0
 62
     0
 10
111.975
 20
19.1354
 30
0.0
 11
110.251
 21
19.1354
 31
0.0
  0
LINE
  8
0
 62
     0
 10
110.251
 20
19.1354
 30
0.0
 11
110.251
 21
15.9053
 31
0.0
  0
LINE
  8
0
 62
     0
 10
110.251
 20
15.9053
 30
0.0
 11
108.726
 21
15.9053
 31
0.0
  0
LINE
  8
0
 62
     0
 10
108.726
 20
15.9053
 30
0.0
 11
108.726
 21
16.5062
 31
0.0
  0
LINE
  8
0
 62
     0
 10
108.726
 20
16.5062
 30
0.0
 11
109.525
 21
16.5062
 31
0.0
  0
LINE
  8
0
 62
     0
 10
109.525
 20
16.5062
 30
0.0
 11
109.525
 21
19.6053
 31
0.0
  0
LINE
  8
0
 62
     0
 10
109.525
 20
19.6053
 30
0.0
 11
108.726
 21
19.6053
 31
0.0
  0
LINE
  8
0
 62
     0
 10
108.726
 20
19.6053
 30
0.0
 11
108.726
 21
20.6044
 31
0.0
  0
LINE
  8
0
 62
     0
 10
108.726
 20
20.6044
 30
0.0
 11
94.7265
 21
20.6044
 31
0.0
  0
LINE
  8
0
 62
     0
 10
9.00134
 20
20.6044
 30
0.0
 11
9.00134
 21
19.6053
 31
0.0
  0
LINE
  8
0
 62
     0
 10
9.00134
 20
19.6053
 30
0.0
 11
8.20071
 21
19.6053
 31
0.0
  0
LINE
  8
0
 62
     0
 10
8.20071
 20
19.6053
 30
0.0
 11
8.20071
 21
16.5062
 31
0.0
  0
LINE
  8
0
 62
     0
 10
8.20071
 20
16.5062
 30
0.0
 11
9.00134
 21
16.5062
 31
0.0
  0
LINE
  8
0
 62
     0
 10
9.00134
 20
16.5062
 30
0.0
 11
9.00134
 21
10.7046
 31
0.0
  0
LINE
  8
0
 62
     0
 10
9.00134
 20
10.7046
 30
0.0
 11
8.20071
 21
10.7046
 31
0.0
  0
LINE
  8
0
 62
     0
 10
8.20071
 20
10.7046
 30
0.0
 11
8.20071
 21
7.60539
 31
0.0
  0
LINE
  8
0
 62
     0
 10
8.20071
 20
7.60539
 30
0.0
 11
9.00134
 21
7.60539
 31
0.0
  0
LINE
  8
0
 62
     0
 10
9.00134
 20
7.60539
 30
0.0
 11
9.00134
 21
6.60495
 31
0.0
  0
LINE
  8
0
 62
     0
 10
9.00134
 20
6.60495
 30
0.0
 11
23.0008
 21
6.60495
 31
0.0
  0
LINE
  8
0
 62
     0
 10
23.0008
 20
6.60495
 30
0.0
 11
23.0008
 21
7.60539
 31
0.0
  0
LINE
  8
0
 62
     0
 10
23.0008
 20
7.60539
 30
0.0
 11
23.8001
 21
7.60539
 31
0.0
  0
LINE
  8
0
 62
     0
 10
23.8001
 20
7.60539
 30
0.0
 11
23.8001
 21
10.7046
 31
0.0
  0
LINE
  8
0
 62
     0
 10
23.8001
 20
10.7046
 30
0.0
 11
23.0008
 21
10.7046
 31
0.0
  0
LINE
  8
0
 62
     0
 10
23.0008
 20
10.7046
 30
0.0
 11
23.0008
 21
16.5062
 31
0.0
  0
LINE
  8
0
 62
     0
 10
23.0008
 20
16.5062
 30
0.0
 11
23.8001
 21
16.5062
 31
0.0
  0
LINE
  8
0
 62
     0
 10
23.8001
 20
16.5062
 30
0.0
 11
23.8001
 21
19.6053
 31
0.0
  0
LINE
  8
0
 62
     0
 10
23.8001
 20
19.6053
 30
0.0
 11
23.0008
 21
19.6053
 31
0.0
  0
LINE
  8
0
 62
     0
 10
23.0008
 20
19.6053
 30
0.0
 11
23.0008
 21
20.6044
 31
0.0
  0
LINE
  8
0
 62
     0
 10
23.0008
 20
20.6044
 30
0.0
 11
9.00134
 21
20.6044
 31
0.0
  0
LINE
  8
0
 62
     0
 10
32.8125
 20
20.6044
 30
0.0
 11
32.8125
 21
19.6053
 31
0.0
  0
LINE
  8
0
 62
     0
 10
32.8125
 20
19.6053
 30
0.0
 11
32.0132
 21
19.6053
 31
0.0
  0
LINE
  8
0
 62
     0
 10
32.0132
 20
19.6053
 30
0.0
 11
32.0132
 21
16.5062
 31
0.0
  0
LINE
  8
0
 62
     0
 10
32.0132
 20
16.5062
 30
0.0
 11
32.8125
 21
16.5062
 31
0.0
  0
LINE
  8
0
 62
     0
 10
32.8125
 20
16.5062
 30
0.0
 11
32.8125
 21
10.7046
 31
0.0
  0
LINE
  8
0
 62
     0
 10
32.8125
 20
10.7046
 30
0.0
 11
32.0132
 21
10.7046
 31
0.0
  0
LINE
  8
0
 62
     0
 10
32.0132
 20
10.7046
 30
0.0
 11
32.0132
 21
7.60539
 31
0.0
  0
LINE
  8
0
 62
     0
 10
32.0132
 20
7.60539
 30
0.0
 11
32.8125
 21
7.60539
 31
0.0
  0
LINE
  8
0
 62
     0
 10
32.8125
 20
7.60539
 30
0.0
 11
32.8125
 21
6.60495
 31
0.0
  0
LINE
  8
0
 62
     0
 10
32.8125
 20
6.60495
 30
0.0
 11
46.8133
 21
6.60495
 31
0.0
  0
LINE
  8
0
 62
     0
 10
46.8133
 20
6.60495
 30
0.0
 11
46.8133
 21
7.60539
 31
0.0
  0
LINE
  8
0
 62
     0
 10
46.8133
 20
7.60539
 30
0.0
 11
47.6127
 21
7.60539
 31
0.0
  0
LINE
  8
0
 62
     0
 10
47.6127
 20
7.60539
 30
0.0
 11
47.6127
 21
10.7046
 31
0.0
  0
LINE
  8
0
 62
     0
 10
47.6127
 20
10.7046
 30
0.0
 11
46.8133
 21
10.7046
 31
0.0
  0
LINE
  8
0
 62
     0
 10
46.8133
 20
10.7046
 30
0.0
 11
46.8133
 21
16.5062
 31
0.0
  0
LINE
  8
0
 62
     0
 10
46.8133
 20
16.5062
 30
0.0
 11
47.6127
 21
16.5062
 31
0.0
  0
LINE
  8
0
 62
     0
 10
47.6127
 20
16.5062
 30
0.0
 11
47.6127
 21
19.6053
 31
0.0
  0
LINE
  8
0
 62
     0
 10
47.6127
 20
19.6053
 30
0.0
 11
46.8133
 21
19.6053
 31
0.0
  0
LINE
  8
0
 62
     0
 10
46.8133
 20
19.6053
 30
0.0
 11
46.8133
 21
20.6044
 31
0.0
  0
LINE
  8
0
 62
     0
 10
46.8133
 20
20.6044
 30
0.0
 11
32.8125
 21
20.6044
 31
0.0
  0
LINE
  8
0
 62
     0
 10
56.6265
 20
20.6044
 30
0.0
 11
56.6265
 21
19.6053
 31
0.0
  0
LINE
  8
0
 62
     0
 10
56.6265
 20
19.6053
 30
0.0
 11
55.8257
 21
19.6053
 31
0.0
  0
LINE
  8
0
 62
     0
 10
55.8257
 20
19.6053
 30
0.0
 11
55.8257
 21
16.5062
 31
0.0
  0
LINE
  8
0
 62
     0
 10
55.8257
 20
16.5062
 30
0.0
 11
56.6265
 21
16.5062
 31
0.0
  0
LINE
  8
0
 62
     0
 10
56.6265
 20
16.5062
 30
0.0
 11
56.6265
 21
10.7046
 31
0.0
  0
LINE
  8
0
 62
     0
 10
56.6265
 20
10.7046
 30
0.0
 11
55.8257
 21
10.7046
 31
0.0
  0
LINE
  8
0
 62
     0
 10
55.8257
 20
10.7046
 30
0.0
 11
55.8257
 21
7.60539
 31
0.0
  0
LINE
  8
0
 62
     0
 10
55.8257
 20
7.60539
 30
0.0
 11
56.6265
 21
7.60539
 31
0.0
  0
LINE
  8
0
 62
     0
 10
56.6265
 20
7.60539
 30
0.0
 11
56.6265
 21
6.60495
 31
0.0
  0
LINE
  8
0
 62
     0
 10
56.6265
 20
6.60495
 30
0.0
 11
70.6258
 21
6.60495
 31
0.0
  0
LINE
  8
0
 62
     0
 10
70.6258
 20
6.60495
 30
0.0
 11
70.6258
 21
7.60539
 31
0.0
  0
LINE
  8
0
 62
     0
 10
70.6258
 20
7.60539
 30
0.0
 11
71.4252
 21
7.60539
 31
0.0
  0
LINE
  8
0
 62
     0
 10
71.4252
 20
7.60539
 30
0.0
 11
71.4252
 21
10.7046
 31
0.0
  0
LINE
  8
0
 62
     0
 10
71.4252
 20
10.7046
 30
0.0
 11
70.6258
 21
10.7046
 31
0.0
  0
LINE
  8
0
 62
     0
 10
70.6258
 20
10.7046
 30
0.0
 11
70.6258
 21
16.5062
 31
0.0
  0
LINE
  8
0
 62
     0
 10
70.6258
 20
16.5062
 30
0.0
 11
71.4252
 21
16.5062
 31
0.0
  0
LINE
  8
0
 62
     0
 10
71.4252
 20
16.5062
 30
0.0
 11
71.4252
 21
19.6053
 31
0.0
  0
LINE
  8
0
 62
     0
 10
71.4252
 20
19.6053
 30
0.0
 11
70.6258
 21
19.6053
 31
0.0
  0
LINE
  8
0
 62
     0
 10
70.6258
 20
19.6053
 30
0.0
 11
70.6258
 21
20.6044
 31
0.0
  0
LINE
  8
0
 62
     0
 10
70.6258
 20
20.6044
 30
0.0
 11
56.6265
 21
20.6044
 31
0.0
  0
LINE
  8
0
 62
     0
 10
197.12
 20
20.6044
 30
0.0
 11
197.12
 21
19.6053
 31
0.0
  0
LINE
  8
0
 62
     0
 10
197.12
 20
19.6053
 30
0.0
 11
196.319
 21
19.6053
 31
0.0
  0
LINE
  8
0
 62
     0
 10
196.319
 20
19.6053
 30
0.0
 11
196.319
 21
16.5062
 31
0.0
  0
LINE
  8
0
 62
     0
 10
196.319
 20
16.5062
 30
0.0
 11
197.12
 21
16.5062
 31
0.0
  0
LINE
  8
0
 62
     0
 10
197.12
 20
16.5062
 30
0.0
 11
197.12
 21
10.7046
 31
0.0
  0
LINE
  8
0
 62
     0
 10
197.12
 20
10.7046
 30
0.0
 11
196.319
 21
10.7046
 31
0.0
  0
LINE
  8
0
 62
     0
 10
196.319
 20
10.7046
 30
0.0
 11
196.319
 21
7.60539
 31
0.0
  0
LINE
  8
0
 62
     0
 10
196.319
 20
7.60539
 30
0.0
 11
197.12
 21
7.60539
 31
0.0
  0
LINE
  8
0
 62
     0
 10
197.12
 20
7.60539
 30
0.0
 11
197.12
 21
6.60495
 31
0.0
  0
LINE
  8
0
 62
     0
 10
197.12
 20
6.60495
 30
0.0
 11
211.12
 21
6.60495
 31
0.0
  0
LINE
  8
0
 62
     0
 10
211.12
 20
6.60495
 30
0.0
 11
211.12
 21
7.60539
 31
0.0
  0
LINE
  8
0
 62
     0
 10
211.12
 20
7.60539
 30
0.0
 11
211.92
 21
7.60539
 31
0.0
  0
LINE
  8
0
 62
     0
 10
211.92
 20
7.60539
 30
0.0
 11
211.92
 21
10.7046
 31
0.0
  0
LINE
  8
0
 62
     0
 10
211.92
 20
10.7046
 30
0.0
 11
211.12
 21
10.7046
 31
0.0
  0
LINE
  8
0
 62
     0
 10
211.12
 20
10.7046
 30
0.0
 11
211.12
 21
16.5062
 31
0.0
  0
LINE
  8
0
 62
     0
 10
211.12
 20
16.5062
 30
0.0
 11
211.92
 21
16.5062
 31
0.0
  0
LINE
  8
0
 62
     0
 10
211.92
 20
16.5062
 30
0.0
 11
211.92
 21
19.6053
 31
0.0
  0
LINE
  8
0
 62
     0
 10
211.92
 20
19.6053
 30
0.0
 11
211.12
 21
19.6053
 31
0.0
  0
LINE
  8
0
 62
     0
 10
211.12
 20
19.6053
 30
0.0
 11
211.12
 21
20.6044
 31
0.0
  0
LINE
  8
0
 62
     0
 10
211.12
 20
20.6044
 30
0.0
 11
197.12
 21
20.6044
 31
0.0
  0
LINE
  8
0
 62
     0
 10
216.17
 20
20.6044
 30
0.0
 11
216.17
 21
19.6053
 31
0.0
  0
LINE
  8
0
 62
     0
 10
216.17
 20
19.6053
 30
0.0
 11
215.369
 21
19.6053
 31
0.0
  0
LINE
  8
0
 62
     0
 10
215.369
 20
19.6053
 30
0.0
 11
215.369
 21
16.5062
 31
0.0
  0
LINE
  8
0
 62
     0
 10
215.369
 20
16.5062
 30
0.0
 11
216.17
 21
16.5062
 31
0.0
  0
LINE
  8
0
 62
     0
 10
216.17
 20
16.5062
 30
0.0
 11
216.17
 21
10.7046
 31
0.0
  0
LINE
  8
0
 62
     0
 10
216.17
 20
10.7046
 30
0.0
 11
215.369
 21
10.7046
 31
0.0
  0
LINE
  8
0
 62
     0
 10
215.369
 20
10.7046
 30
0.0
 11
215.369
 21
7.60539
 31
0.0
  0
LINE
  8
0
 62
     0
 10
215.369
 20
7.60539
 30
0.0
 11
216.17
 21
7.60539
 31
0.0
  0
LINE
  8
0
 62
     0
 10
216.17
 20
7.60539
 30
0.0
 11
216.17
 21
6.60495
 31
0.0
  0
LINE
  8
0
 62
     0
 10
216.17
 20
6.60495
 30
0.0
 11
230.17
 21
6.60495
 31
0.0
  0
LINE
  8
0
 62
     0
 10
230.17
 20
6.60495
 30
0.0
 11
230.17
 21
7.60539
 31
0.0
  0
LINE
  8
0
 62
     0
 10
230.17
 20
7.60539
 30
0.0
 11
230.97
 21
7.60539
 31
0.0
  0
LINE
  8
0
 62
     0
 10
230.97
 20
7.60539
 30
0.0
 11
230.97
 21
10.7046
 31
0.0
  0
LINE
  8
0
 62
     0
 10
230.97
 20
10.7046
 30
0.0
 11
230.17
 21
10.7046
 31
0.0
  0
LINE
  8
0
 62
     0
 10
230.17
 20
10.7046
 30
0.0
 11
230.17
 21
16.5062
 31
0.0
  0
LINE
  8
0
 62
     0
 10
230.17
 20
16.5062
 30
0.0
 11
230.97
 21
16.5062
 31
0.0
  0
LINE
  8
0
 62
     0
 10
230.97
 20
16.5062
 30
0.0
 11
230.97
 21
19.6053
 31
0.0
  0
LINE
  8
0
 62
     0
 10
230.97
 20
19.6053
 30
0.0
 11
230.17
 21
19.6053
 31
0.0
  0
LINE
  8
0
 62
     0
 10
230.17
 20
19.6053
 30
0.0
 11
230.17
 21
20.6044
 31
0.0
  0
LINE
  8
0
 62
     0
 10
230.17
 20
20.6044
 30
0.0
 11
216.17
 21
20.6044
 31
0.0
  0
LINE
  8
0
 62
     0
 10
235.22
 20
20.6044
 30
0.0
 11
235.22
 21
19.6053
 31
0.0
  0
LINE
  8
0
 62
     0
 10
235.22
 20
19.6053
 30
0.0
 11
234.419
 21
19.6053
 31
0.0
  0
LINE
  8
0
 62
     0
 10
234.419
 20
19.6053
 30
0.0
 11
234.419
 21
16.5062
 31
0.0
  0
LINE
  8
0
 62
     0
 10
234.419
 20
16.5062
 30
0.0
 11
235.22
 21
16.5062
 31
0.0
  0
LINE
  8
0
 62
     0
 10
235.22
 20
16.5062
 30
0.0
 11
235.22
 21
10.7046
 31
0.0
  0
LINE
  8
0
 62
     0
 10
235.22
 20
10.7046
 30
0.0
 11
234.419
 21
10.7046
 31
0.0
  0
LINE
  8
0
 62
     0
 10
234.419
 20
10.7046
 30
0.0
 11
234.419
 21
7.60539
 31
0.0
  0
LINE
  8
0
 62
     0
 10
234.419
 20
7.60539
 30
0.0
 11
235.22
 21
7.60539
 31
0.0
  0
LINE
  8
0
 62
     0
 10
235.22
 20
7.60539
 30
0.0
 11
235.22
 21
6.60495
 31
0.0
  0
LINE
  8
0
 62
     0
 10
235.22
 20
6.60495
 30
0.0
 11
249.22
 21
6.60495
 31
0.0
  0
LINE
  8
0
 62
     0
 10
249.22
 20
6.60495
 30
0.0
 11
249.22
 21
7.60539
 31
0.0
  0
LINE
  8
0
 62
     0
 10
249.22
 20
7.60539
 30
0.0
 11
250.02
 21
7.60539
 31
0.0
  0
LINE
  8
0
 62
     0
 10
250.02
 20
7.60539
 30
0.0
 11
250.02
 21
10.7046
 31
0.0
  0
LINE
  8
0
 62
     0
 10
250.02
 20
10.7046
 30
0.0
 11
249.22
 21
10.7046
 31
0.0
  0
LINE
  8
0
 62
     0
 10
249.22
 20
10.7046
 30
0.0
 11
249.22
 21
16.5062
 31
0.0
  0
LINE
  8
0
 62
     0
 10
249.22
 20
16.5062
 30
0.0
 11
250.02
 21
16.5062
 31
0.0
  0
LINE
  8
0
 62
     0
 10
250.02
 20
16.5062
 30
0.0
 11
250.02
 21
19.6053
 31
0.0
  0
LINE
  8
0
 62
     0
 10
250.02
 20
19.6053
 30
0.0
 11
249.22
 21
19.6053
 31
0.0
  0
LINE
  8
0
 62
     0
 10
249.22
 20
19.6053
 30
0.0
 11
249.22
 21
20.6044
 31
0.0
  0
LINE
  8
0
 62
     0
 10
249.22
 20
20.6044
 30
0.0
 11
235.22
 21
20.6044
 31
0.0
  0
LINE
  8
0
 62
     0
 10
142.063
 20
11.3054
 30
0.0
 11
142.351
 21
11.3054
 31
0.0
  0
LINE
  8
0
 62
     0
 10
142.351
 20
11.3054
 30
0.0
 11
142.351
 21
10.7046
 31
0.0
  0
LINE
  8
0
 62
     0
 10
142.351
 20
10.7046
 30
0.0
 11
142.063
 21
10.7046
 31
0.0
  0
LINE
  8
0
 62
     0
 10
142.063
 20
10.7046
 30
0.0
 11
142.063
 21
11.3054
 31
0.0
  0
LINE
  8
0
 62
     0
 10
142.063
 20
16.5062
 30
0.0
 11
142.351
 21
16.5062
 31
0.0
  0
LINE
  8
0
 62
     0
 10
142.351
 20
16.5062
 30
0.0
 11
142.351
 21
15.9053
 31
0.0
  0
LINE
  8
0
 62
     0
 10
142.351
 20
15.9053
 30
0.0
 11
142.063
 21
15.9053
 31
0.0
  0
LINE
  8
0
 62
     0
 10
142.063
 20
15.9053
 30
0.0
 11
142.063
 21
16.5062
 31
0.0
  0
LINE
  8
0
 62
     0
 10
211.406
 20
39.6543
 30
0.0
 11
211.406
 21
38.6553
 31
0.0
  0
LINE
  8
0
 62
     0
 10
211.406
 20
38.6553
 30
0.0
 11
210.607
 21
38.6553
 31
0.0
  0
LINE
  8
0
 62
     0
 10
210.607
 20
38.6553
 30
0.0
 11
210.607
 21
35.5547
 31
0.0
  0
LINE
  8
0
 62
     0
 10
210.607
 20
35.5547
 30
0.0
 11
211.406
 21
35.5547
 31
0.0
  0
LINE
  8
0
 62
     0
 10
211.406
 20
35.5547
 30
0.0
 11
211.406
 21
29.7546
 31
0.0
  0
LINE
  8
0
 62
     0
 10
211.406
 20
29.7546
 30
0.0
 11
210.607
 21
29.7546
 31
0.0
  0
LINE
  8
0
 62
     0
 10
210.607
 20
29.7546
 30
0.0
 11
210.607
 21
26.6554
 31
0.0
  0
LINE
  8
0
 62
     0
 10
210.607
 20
26.6554
 30
0.0
 11
211.406
 21
26.6554
 31
0.0
  0
LINE
  8
0
 62
     0
 10
211.406
 20
26.6554
 30
0.0
 11
211.406
 21
25.655
 31
0.0
  0
LINE
  8
0
 62
     0
 10
211.406
 20
25.655
 30
0.0
 11
216.763
 21
25.655
 31
0.0
  0
LINE
  8
0
 62
     0
 10
216.763
 20
25.655
 30
0.0
 11
216.763
 21
24.9053
 31
0.0
  0
LINE
  8
0
 62
     0
 10
216.763
 20
24.9053
 30
0.0
 11
220.063
 21
24.9053
 31
0.0
  0
LINE
  8
0
 62
     0
 10
220.063
 20
24.9053
 30
0.0
 11
220.063
 21
25.655
 31
0.0
  0
LINE
  8
0
 62
     0
 10
220.063
 20
25.655
 30
0.0
 11
240.563
 21
25.655
 31
0.0
  0
LINE
  8
0
 62
     0
 10
240.563
 20
25.655
 30
0.0
 11
240.563
 21
24.9053
 31
0.0
  0
LINE
  8
0
 62
     0
 10
240.563
 20
24.9053
 30
0.0
 11
243.863
 21
24.9053
 31
0.0
  0
LINE
  8
0
 62
     0
 10
243.863
 20
24.9053
 30
0.0
 11
243.863
 21
25.655
 31
0.0
  0
LINE
  8
0
 62
     0
 10
243.863
 20
25.655
 30
0.0
 11
246.838
 21
25.655
 31
0.0
  0
LINE
  8
0
 62
     0
 10
246.838
 20
25.655
 30
0.0
 11
246.838
 21
26.6554
 31
0.0
  0
LINE
  8
0
 62
     0
 10
246.838
 20
26.6554
 30
0.0
 11
247.638
 21
26.6554
 31
0.0
  0
LINE
  8
0
 62
     0
 10
247.638
 20
26.6554
 30
0.0
 11
247.638
 21
29.7546
 31
0.0
  0
LINE
  8
0
 62
     0
 10
247.638
 20
29.7546
 30
0.0
 11
246.838
 21
29.7546
 31
0.0
  0
LINE
  8
0
 62
     0
 10
246.838
 20
29.7546
 30
0.0
 11
246.838
 21
35.5547
 31
0.0
  0
LINE
  8
0
 62
     0
 10
246.838
 20
35.5547
 30
0.0
 11
247.638
 21
35.5547
 31
0.0
  0
LINE
  8
0
 62
     0
 10
247.638
 20
35.5547
 30
0.0
 11
247.638
 21
38.6553
 31
0.0
  0
LINE
  8
0
 62
     0
 10
247.638
 20
38.6553
 30
0.0
 11
246.838
 21
38.6553
 31
0.0
  0
LINE
  8
0
 62
     0
 10
246.838
 20
38.6553
 30
0.0
 11
246.838
 21
39.6543
 31
0.0
  0
LINE
  8
0
 62
     0
 10
246.838
 20
39.6543
 30
0.0
 11
211.406
 21
39.6543
 31
0.0
  0
LINE
  8
0
 62
     0
 10
13.7625
 20
39.6543
 30
0.0
 11
13.7625
 21
38.6553
 31
0.0
  0
LINE
  8
0
 62
     0
 10
13.7625
 20
38.6553
 30
0.0
 11
12.9632
 21
38.6553
 31
0.0
  0
LINE
  8
0
 62
     0
 10
12.9632
 20
38.6553
 30
0.0
 11
12.9632
 21
35.5547
 31
0.0
  0
LINE
  8
0
 62
     0
 10
12.9632
 20
35.5547
 30
0.0
 11
13.7625
 21
35.5547
 31
0.0
  0
LINE
  8
0
 62
     0
 10
13.7625
 20
35.5547
 30
0.0
 11
13.7625
 21
29.7546
 31
0.0
  0
LINE
  8
0
 62
     0
 10
13.7625
 20
29.7546
 30
0.0
 11
12.9632
 21
29.7546
 31
0.0
  0
LINE
  8
0
 62
     0
 10
12.9632
 20
29.7546
 30
0.0
 11
12.9632
 21
26.6554
 31
0.0
  0
LINE
  8
0
 62
     0
 10
12.9632
 20
26.6554
 30
0.0
 11
13.7625
 21
26.6554
 31
0.0
  0
LINE
  8
0
 62
     0
 10
13.7625
 20
26.6554
 30
0.0
 11
13.7625
 21
25.655
 31
0.0
  0
LINE
  8
0
 62
     0
 10
13.7625
 20
25.655
 30
0.0
 11
27.7633
 21
25.655
 31
0.0
  0
LINE
  8
0
 62
     0
 10
27.7633
 20
25.655
 30
0.0
 11
27.7633
 21
26.6554
 31
0.0
  0
LINE
  8
0
 62
     0
 10
27.7633
 20
26.6554
 30
0.0
 11
28.5626
 21
26.6554
 31
0.0
  0
LINE
  8
0
 62
     0
 10
28.5626
 20
26.6554
 30
0.0
 11
28.5626
 21
29.7546
 31
0.0
  0
LINE
  8
0
 62
     0
 10
28.5626
 20
29.7546
 30
0.0
 11
27.7633
 21
29.7546
 31
0.0
  0
LINE
  8
0
 62
     0
 10
27.7633
 20
29.7546
 30
0.0
 11
27.7633
 21
35.5547
 31
0.0
  0
LINE
  8
0
 62
     0
 10
27.7633
 20
35.5547
 30
0.0
 11
28.5626
 21
35.5547
 31
0.0
  0
LINE
  8
0
 62
     0
 10
28.5626
 20
35.5547
 30
0.0
 11
28.5626
 21
38.6553
 31
0.0
  0
LINE
  8
0
 62
     0
 10
28.5626
 20
38.6553
 30
0.0
 11
27.7633
 21
38.6553
 31
0.0
  0
LINE
  8
0
 62
     0
 10
27.7633
 20
38.6553
 30
0.0
 11
27.7633
 21
39.6543
 31
0.0
  0
LINE
  8
0
 62
     0
 10
27.7633
 20
39.6543
 30
0.0
 11
13.7625
 21
39.6543
 31
0.0
  0
LINE
  8
0
 62
     0
 10
39.9563
 20
39.6543
 30
0.0
 11
39.9563
 21
38.6553
 31
0.0
  0
LINE
  8
0
 62
     0
 10
39.9563
 20
38.6553
 30
0.0
 11
39.1569
 21
38.6553
 31
0.0
  0
LINE
  8
0
 62
     0
 10
39.1569
 20
38.6553
 30
0.0
 11
39.1569
 21
35.5547
 31
0.0
  0
LINE
  8
0
 62
     0
 10
39.1569
 20
35.5547
 30
0.0
 11
39.9563
 21
35.5547
 31
0.0
  0
LINE
  8
0
 62
     0
 10
39.9563
 20
35.5547
 30
0.0
 11
39.9563
 21
29.7546
 31
0.0
  0
LINE
  8
0
 62
     0
 10
39.9563
 20
29.7546
 30
0.0
 11
39.1569
 21
29.7546
 31
0.0
  0
LINE
  8
0
 62
     0
 10
39.1569
 20
29.7546
 30
0.0
 11
39.1569
 21
26.6554
 31
0.0
  0
LINE
  8
0
 62
     0
 10
39.1569
 20
26.6554
 30
0.0
 11
39.9563
 21
26.6554
 31
0.0
  0
LINE
  8
0
 62
     0
 10
39.9563
 20
26.6554
 30
0.0
 11
39.9563
 21
25.655
 31
0.0
  0
LINE
  8
0
 62
     0
 10
39.9563
 20
25.655
 30
0.0
 11
53.957
 21
25.655
 31
0.0
  0
LINE
  8
0
 62
     0
 10
53.957
 20
25.655
 30
0.0
 11
53.957
 21
26.6554
 31
0.0
  0
LINE
  8
0
 62
     0
 10
53.957
 20
26.6554
 30
0.0
 11
54.7564
 21
26.6554
 31
0.0
  0
LINE
  8
0
 62
     0
 10
54.7564
 20
26.6554
 30
0.0
 11
54.7564
 21
29.7546
 31
0.0
  0
LINE
  8
0
 62
     0
 10
54.7564
 20
29.7546
 30
0.0
 11
53.957
 21
29.7546
 31
0.0
  0
LINE
  8
0
 62
     0
 10
53.957
 20
29.7546
 30
0.0
 11
53.957
 21
35.5547
 31
0.0
  0
LINE
  8
0
 62
     0
 10
53.957
 20
35.5547
 30
0.0
 11
54.7564
 21
35.5547
 31
0.0
  0
LINE
  8
0
 62
     0
 10
54.7564
 20
35.5547
 30
0.0
 11
54.7564
 21
38.6553
 31
0.0
  0
LINE
  8
0
 62
     0
 10
54.7564
 20
38.6553
 30
0.0
 11
53.957
 21
38.6553
 31
0.0
  0
LINE
  8
0
 62
     0
 10
53.957
 20
38.6553
 30
0.0
 11
53.957
 21
39.6543
 31
0.0
  0
LINE
  8
0
 62
     0
 10
53.957
 20
39.6543
 30
0.0
 11
39.9563
 21
39.6543
 31
0.0
  0
LINE
  8
0
 62
     0
 10
59.0063
 20
39.6543
 30
0.0
 11
59.0063
 21
38.6553
 31
0.0
  0
LINE
  8
0
 62
     0
 10
59.0063
 20
38.6553
 30
0.0
 11
58.2069
 21
38.6553
 31
0.0
  0
LINE
  8
0
 62
     0
 10
58.2069
 20
38.6553
 30
0.0
 11
58.2069
 21
35.5547
 31
0.0
  0
LINE
  8
0
 62
     0
 10
58.2069
 20
35.5547
 30
0.0
 11
59.0063
 21
35.5547
 31
0.0
  0
LINE
  8
0
 62
     0
 10
59.0063
 20
35.5547
 30
0.0
 11
59.0063
 21
29.7546
 31
0.0
  0
LINE
  8
0
 62
     0
 10
59.0063
 20
29.7546
 30
0.0
 11
58.2069
 21
29.7546
 31
0.0
  0
LINE
  8
0
 62
     0
 10
58.2069
 20
29.7546
 30
0.0
 11
58.2069
 21
26.6554
 31
0.0
  0
LINE
  8
0
 62
     0
 10
58.2069
 20
26.6554
 30
0.0
 11
59.0063
 21
26.6554
 31
0.0
  0
LINE
  8
0
 62
     0
 10
59.0063
 20
26.6554
 30
0.0
 11
59.0063
 21
25.655
 31
0.0
  0
LINE
  8
0
 62
     0
 10
59.0063
 20
25.655
 30
0.0
 11
73.007
 21
25.655
 31
0.0
  0
LINE
  8
0
 62
     0
 10
73.007
 20
25.655
 30
0.0
 11
73.007
 21
26.6554
 31
0.0
  0
LINE
  8
0
 62
     0
 10
73.007
 20
26.6554
 30
0.0
 11
73.8064
 21
26.6554
 31
0.0
  0
LINE
  8
0
 62
     0
 10
73.8064
 20
26.6554
 30
0.0
 11
73.8064
 21
29.7546
 31
0.0
  0
LINE
  8
0
 62
     0
 10
73.8064
 20
29.7546
 30
0.0
 11
73.007
 21
29.7546
 31
0.0
  0
LINE
  8
0
 62
     0
 10
73.007
 20
29.7546
 30
0.0
 11
73.007
 21
35.5547
 31
0.0
  0
LINE
  8
0
 62
     0
 10
73.007
 20
35.5547
 30
0.0
 11
73.8064
 21
35.5547
 31
0.0
  0
LINE
  8
0
 62
     0
 10
73.8064
 20
35.5547
 30
0.0
 11
73.8064
 21
38.6553
 31
0.0
  0
LINE
  8
0
 62
     0
 10
73.8064
 20
38.6553
 30
0.0
 11
73.007
 21
38.6553
 31
0.0
  0
LINE
  8
0
 62
     0
 10
73.007
 20
38.6553
 30
0.0
 11
73.007
 21
39.6543
 31
0.0
  0
LINE
  8
0
 62
     0
 10
73.007
 20
39.6543
 30
0.0
 11
59.0063
 21
39.6543
 31
0.0
  0
LINE
  8
0
 62
     0
 10
78.0563
 20
39.6543
 30
0.0
 11
78.0563
 21
38.6553
 31
0.0
  0
LINE
  8
0
 62
     0
 10
78.0563
 20
38.6553
 30
0.0
 11
77.2569
 21
38.6553
 31
0.0
  0
LINE
  8
0
 62
     0
 10
77.2569
 20
38.6553
 30
0.0
 11
77.2569
 21
35.5547
 31
0.0
  0
LINE
  8
0
 62
     0
 10
77.2569
 20
35.5547
 30
0.0
 11
78.0563
 21
35.5547
 31
0.0
  0
LINE
  8
0
 62
     0
 10
78.0563
 20
35.5547
 30
0.0
 11
78.0563
 21
29.7546
 31
0.0
  0
LINE
  8
0
 62
     0
 10
78.0563
 20
29.7546
 30
0.0
 11
77.2569
 21
29.7546
 31
0.0
  0
LINE
  8
0
 62
     0
 10
77.2569
 20
29.7546
 30
0.0
 11
77.2569
 21
26.6554
 31
0.0
  0
LINE
  8
0
 62
     0
 10
77.2569
 20
26.6554
 30
0.0
 11
78.0563
 21
26.6554
 31
0.0
  0
LINE
  8
0
 62
     0
 10
78.0563
 20
26.6554
 30
0.0
 11
78.0563
 21
25.655
 31
0.0
  0
LINE
  8
0
 62
     0
 10
78.0563
 20
25.655
 30
0.0
 11
92.057
 21
25.655
 31
0.0
  0
LINE
  8
0
 62
     0
 10
92.057
 20
25.655
 30
0.0
 11
92.057
 21
26.6554
 31
0.0
  0
LINE
  8
0
 62
     0
 10
92.057
 20
26.6554
 30
0.0
 11
92.8564
 21
26.6554
 31
0.0
  0
LINE
  8
0
 62
     0
 10
92.8564
 20
26.6554
 30
0.0
 11
92.8564
 21
29.7546
 31
0.0
  0
LINE
  8
0
 62
     0
 10
92.8564
 20
29.7546
 30
0.0
 11
92.057
 21
29.7546
 31
0.0
  0
LINE
  8
0
 62
     0
 10
92.057
 20
29.7546
 30
0.0
 11
92.057
 21
35.5547
 31
0.0
  0
LINE
  8
0
 62
     0
 10
92.057
 20
35.5547
 30
0.0
 11
92.8564
 21
35.5547
 31
0.0
  0
LINE
  8
0
 62
     0
 10
92.8564
 20
35.5547
 30
0.0
 11
92.8564
 21
38.6553
 31
0.0
  0
LINE
  8
0
 62
     0
 10
92.8564
 20
38.6553
 30
0.0
 11
92.057
 21
38.6553
 31
0.0
  0
LINE
  8
0
 62
     0
 10
92.057
 20
38.6553
 30
0.0
 11
92.057
 21
39.6543
 31
0.0
  0
LINE
  8
0
 62
     0
 10
92.057
 20
39.6543
 30
0.0
 11
78.0563
 21
39.6543
 31
0.0
  0
LINE
  8
0
 62
     0
 10
97.1063
 20
39.6543
 30
0.0
 11
97.1063
 21
38.6553
 31
0.0
  0
LINE
  8
0
 62
     0
 10
97.1063
 20
38.6553
 30
0.0
 11
96.3069
 21
38.6553
 31
0.0
  0
LINE
  8
0
 62
     0
 10
96.3069
 20
38.6553
 30
0.0
 11
96.3069
 21
35.5547
 31
0.0
  0
LINE
  8
0
 62
     0
 10
96.3069
 20
35.5547
 30
0.0
 11
97.1063
 21
35.5547
 31
0.0
  0
LINE
  8
0
 62
     0
 10
97.1063
 20
35.5547
 30
0.0
 11
97.1063
 21
29.7546
 31
0.0
  0
LINE
  8
0
 62
     0
 10
97.1063
 20
29.7546
 30
0.0
 11
96.3069
 21
29.7546
 31
0.0
  0
LINE
  8
0
 62
     0
 10
96.3069
 20
29.7546
 30
0.0
 11
96.3069
 21
26.6554
 31
0.0
  0
LINE
  8
0
 62
     0
 10
96.3069
 20
26.6554
 30
0.0
 11
97.1063
 21
26.6554
 31
0.0
  0
LINE
  8
0
 62
     0
 10
97.1063
 20
26.6554
 30
0.0
 11
97.1063
 21
25.655
 31
0.0
  0
LINE
  8
0
 62
     0
 10
97.1063
 20
25.655
 30
0.0
 11
111.107
 21
25.655
 31
0.0
  0
LINE
  8
0
 62
     0
 10
111.107
 20
25.655
 30
0.0
 11
111.107
 21
26.6554
 31
0.0
  0
LINE
  8
0
 62
     0
 10
111.107
 20
26.6554
 30
0.0
 11
111.906
 21
26.6554
 31
0.0
  0
LINE
  8
0
 62
     0
 10
111.906
 20
26.6554
 30
0.0
 11
111.906
 21
29.7546
 31
0.0
  0
LINE
  8
0
 62
     0
 10
111.906
 20
29.7546
 30
0.0
 11
111.107
 21
29.7546
 31
0.0
  0
LINE
  8
0
 62
     0
 10
111.107
 20
29.7546
 30
0.0
 11
111.107
 21
35.5547
 31
0.0
  0
LINE
  8
0
 62
     0
 10
111.107
 20
35.5547
 30
0.0
 11
111.906
 21
35.5547
 31
0.0
  0
LINE
  8
0
 62
     0
 10
111.906
 20
35.5547
 30
0.0
 11
111.906
 21
38.6553
 31
0.0
  0
LINE
  8
0
 62
     0
 10
111.906
 20
38.6553
 30
0.0
 11
111.107
 21
38.6553
 31
0.0
  0
LINE
  8
0
 62
     0
 10
111.107
 20
38.6553
 30
0.0
 11
111.107
 21
39.6543
 31
0.0
  0
LINE
  8
0
 62
     0
 10
111.107
 20
39.6543
 30
0.0
 11
97.1063
 21
39.6543
 31
0.0
  0
LINE
  8
0
 62
     0
 10
116.156
 20
39.6543
 30
0.0
 11
116.156
 21
38.6553
 31
0.0
  0
LINE
  8
0
 62
     0
 10
116.156
 20
38.6553
 30
0.0
 11
115.357
 21
38.6553
 31
0.0
  0
LINE
  8
0
 62
     0
 10
115.357
 20
38.6553
 30
0.0
 11
115.357
 21
35.5547
 31
0.0
  0
LINE
  8
0
 62
     0
 10
115.357
 20
35.5547
 30
0.0
 11
116.156
 21
35.5547
 31
0.0
  0
LINE
  8
0
 62
     0
 10
116.156
 20
35.5547
 30
0.0
 11
116.156
 21
29.7546
 31
0.0
  0
LINE
  8
0
 62
     0
 10
116.156
 20
29.7546
 30
0.0
 11
115.357
 21
29.7546
 31
0.0
  0
LINE
  8
0
 62
     0
 10
115.357
 20
29.7546
 30
0.0
 11
115.357
 21
26.6554
 31
0.0
  0
LINE
  8
0
 62
     0
 10
115.357
 20
26.6554
 30
0.0
 11
116.156
 21
26.6554
 31
0.0
  0
LINE
  8
0
 62
     0
 10
116.156
 20
26.6554
 30
0.0
 11
116.156
 21
25.655
 31
0.0
  0
LINE
  8
0
 62
     0
 10
116.156
 20
25.655
 30
0.0
 11
130.157
 21
25.655
 31
0.0
  0
LINE
  8
0
 62
     0
 10
130.157
 20
25.655
 30
0.0
 11
130.157
 21
26.6554
 31
0.0
  0
LINE
  8
0
 62
     0
 10
130.157
 20
26.6554
 30
0.0
 11
130.956
 21
26.6554
 31
0.0
  0
LINE
  8
0
 62
     0
 10
130.956
 20
26.6554
 30
0.0
 11
130.956
 21
29.7546
 31
0.0
  0
LINE
  8
0
 62
     0
 10
130.956
 20
29.7546
 30
0.0
 11
130.157
 21
29.7546
 31
0.0
  0
LINE
  8
0
 62
     0
 10
130.157
 20
29.7546
 30
0.0
 11
130.157
 21
35.5547
 31
0.0
  0
LINE
  8
0
 62
     0
 10
130.157
 20
35.5547
 30
0.0
 11
130.956
 21
35.5547
 31
0.0
  0
LINE
  8
0
 62
     0
 10
130.956
 20
35.5547
 30
0.0
 11
130.956
 21
38.6553
 31
0.0
  0
LINE
  8
0
 62
     0
 10
130.956
 20
38.6553
 30
0.0
 11
130.157
 21
38.6553
 31
0.0
  0
LINE
  8
0
 62
     0
 10
130.157
 20
38.6553
 30
0.0
 11
130.157
 21
39.6543
 31
0.0
  0
LINE
  8
0
 62
     0
 10
130.157
 20
39.6543
 30
0.0
 11
116.156
 21
39.6543
 31
0.0
  0
LINE
  8
0
 62
     0
 10
135.206
 20
39.6543
 30
0.0
 11
135.206
 21
38.6553
 31
0.0
  0
LINE
  8
0
 62
     0
 10
135.206
 20
38.6553
 30
0.0
 11
134.407
 21
38.6553
 31
0.0
  0
LINE
  8
0
 62
     0
 10
134.407
 20
38.6553
 30
0.0
 11
134.407
 21
35.5547
 31
0.0
  0
LINE
  8
0
 62
     0
 10
134.407
 20
35.5547
 30
0.0
 11
135.206
 21
35.5547
 31
0.0
  0
LINE
  8
0
 62
     0
 10
135.206
 20
35.5547
 30
0.0
 11
135.206
 21
29.7546
 31
0.0
  0
LINE
  8
0
 62
     0
 10
135.206
 20
29.7546
 30
0.0
 11
134.407
 21
29.7546
 31
0.0
  0
LINE
  8
0
 62
     0
 10
134.407
 20
29.7546
 30
0.0
 11
134.407
 21
26.6554
 31
0.0
  0
LINE
  8
0
 62
     0
 10
134.407
 20
26.6554
 30
0.0
 11
135.206
 21
26.6554
 31
0.0
  0
LINE
  8
0
 62
     0
 10
135.206
 20
26.6554
 30
0.0
 11
135.206
 21
25.655
 31
0.0
  0
LINE
  8
0
 62
     0
 10
135.206
 20
25.655
 30
0.0
 11
149.207
 21
25.655
 31
0.0
  0
LINE
  8
0
 62
     0
 10
149.207
 20
25.655
 30
0.0
 11
149.207
 21
26.6554
 31
0.0
  0
LINE
  8
0
 62
     0
 10
149.207
 20
26.6554
 30
0.0
 11
150.006
 21
26.6554
 31
0.0
  0
LINE
  8
0
 62
     0
 10
150.006
 20
26.6554
 30
0.0
 11
150.006
 21
29.7546
 31
0.0
  0
LINE
  8
0
 62
     0
 10
150.006
 20
29.7546
 30
0.0
 11
149.207
 21
29.7546
 31
0.0
  0
LINE
  8
0
 62
     0
 10
149.207
 20
29.7546
 30
0.0
 11
149.207
 21
35.5547
 31
0.0
  0
LINE
  8
0
 62
     0
 10
149.207
 20
35.5547
 30
0.0
 11
150.006
 21
35.5547
 31
0.0
  0
LINE
  8
0
 62
     0
 10
150.006
 20
35.5547
 30
0.0
 11
150.006
 21
38.6553
 31
0.0
  0
LINE
  8
0
 62
     0
 10
150.006
 20
38.6553
 30
0.0
 11
149.207
 21
38.6553
 31
0.0
  0
LINE
  8
0
 62
     0
 10
149.207
 20
38.6553
 30
0.0
 11
149.207
 21
39.6543
 31
0.0
  0
LINE
  8
0
 62
     0
 10
149.207
 20
39.6543
 30
0.0
 11
135.206
 21
39.6543
 31
0.0
  0
LINE
  8
0
 62
     0
 10
154.256
 20
39.6543
 30
0.0
 11
154.256
 21
38.6553
 31
0.0
  0
LINE
  8
0
 62
     0
 10
154.256
 20
38.6553
 30
0.0
 11
153.457
 21
38.6553
 31
0.0
  0
LINE
  8
0
 62
     0
 10
153.457
 20
38.6553
 30
0.0
 11
153.457
 21
35.5547
 31
0.0
  0
LINE
  8
0
 62
     0
 10
153.457
 20
35.5547
 30
0.0
 11
154.256
 21
35.5547
 31
0.0
  0
LINE
  8
0
 62
     0
 10
154.256
 20
35.5547
 30
0.0
 11
154.256
 21
29.7546
 31
0.0
  0
LINE
  8
0
 62
     0
 10
154.256
 20
29.7546
 30
0.0
 11
153.457
 21
29.7546
 31
0.0
  0
LINE
  8
0
 62
     0
 10
153.457
 20
29.7546
 30
0.0
 11
153.457
 21
26.6554
 31
0.0
  0
LINE
  8
0
 62
     0
 10
153.457
 20
26.6554
 30
0.0
 11
154.256
 21
26.6554
 31
0.0
  0
LINE
  8
0
 62
     0
 10
154.256
 20
26.6554
 30
0.0
 11
154.256
 21
25.655
 31
0.0
  0
LINE
  8
0
 62
     0
 10
154.256
 20
25.655
 30
0.0
 11
168.257
 21
25.655
 31
0.0
  0
LINE
  8
0
 62
     0
 10
168.257
 20
25.655
 30
0.0
 11
168.257
 21
26.6554
 31
0.0
  0
LINE
  8
0
 62
     0
 10
168.257
 20
26.6554
 30
0.0
 11
169.056
 21
26.6554
 31
0.0
  0
LINE
  8
0
 62
     0
 10
169.056
 20
26.6554
 30
0.0
 11
169.056
 21
29.7546
 31
0.0
  0
LINE
  8
0
 62
     0
 10
169.056
 20
29.7546
 30
0.0
 11
168.257
 21
29.7546
 31
0.0
  0
LINE
  8
0
 62
     0
 10
168.257
 20
29.7546
 30
0.0
 11
168.257
 21
35.5547
 31
0.0
  0
LINE
  8
0
 62
     0
 10
168.257
 20
35.5547
 30
0.0
 11
169.056
 21
35.5547
 31
0.0
  0
LINE
  8
0
 62
     0
 10
169.056
 20
35.5547
 30
0.0
 11
169.056
 21
38.6553
 31
0.0
  0
LINE
  8
0
 62
     0
 10
169.056
 20
38.6553
 30
0.0
 11
168.257
 21
38.6553
 31
0.0
  0
LINE
  8
0
 62
     0
 10
168.257
 20
38.6553
 30
0.0
 11
168.257
 21
39.6543
 31
0.0
  0
LINE
  8
0
 62
     0
 10
168.257
 20
39.6543
 30
0.0
 11
154.256
 21
39.6543
 31
0.0
  0
LINE
  8
0
 62
     0
 10
173.306
 20
39.6543
 30
0.0
 11
173.306
 21
38.6553
 31
0.0
  0
LINE
  8
0
 62
     0
 10
173.306
 20
38.6553
 30
0.0
 11
172.507
 21
38.6553
 31
0.0
  0
LINE
  8
0
 62
     0
 10
172.507
 20
38.6553
 30
0.0
 11
172.507
 21
35.5547
 31
0.0
  0
LINE
  8
0
 62
     0
 10
172.507
 20
35.5547
 30
0.0
 11
173.306
 21
35.5547
 31
0.0
  0
LINE
  8
0
 62
     0
 10
173.306
 20
35.5547
 30
0.0
 11
173.306
 21
29.7546
 31
0.0
  0
LINE
  8
0
 62
     0
 10
173.306
 20
29.7546
 30
0.0
 11
172.507
 21
29.7546
 31
0.0
  0
LINE
  8
0
 62
     0
 10
172.507
 20
29.7546
 30
0.0
 11
172.507
 21
26.6554
 31
0.0
  0
LINE
  8
0
 62
     0
 10
172.507
 20
26.6554
 30
0.0
 11
173.306
 21
26.6554
 31
0.0
  0
LINE
  8
0
 62
     0
 10
173.306
 20
26.6554
 30
0.0
 11
173.306
 21
25.655
 31
0.0
  0
LINE
  8
0
 62
     0
 10
173.306
 20
25.655
 30
0.0
 11
187.307
 21
25.655
 31
0.0
  0
LINE
  8
0
 62
     0
 10
187.307
 20
25.655
 30
0.0
 11
187.307
 21
26.6554
 31
0.0
  0
LINE
  8
0
 62
     0
 10
187.307
 20
26.6554
 30
0.0
 11
188.106
 21
26.6554
 31
0.0
  0
LINE
  8
0
 62
     0
 10
188.106
 20
26.6554
 30
0.0
 11
188.106
 21
29.7546
 31
0.0
  0
LINE
  8
0
 62
     0
 10
188.106
 20
29.7546
 30
0.0
 11
187.307
 21
29.7546
 31
0.0
  0
LINE
  8
0
 62
     0
 10
187.307
 20
29.7546
 30
0.0
 11
187.307
 21
35.5547
 31
0.0
  0
LINE
  8
0
 62
     0
 10
187.307
 20
35.5547
 30
0.0
 11
188.106
 21
35.5547
 31
0.0
  0
LINE
  8
0
 62
     0
 10
188.106
 20
35.5547
 30
0.0
 11
188.106
 21
38.6553
 31
0.0
  0
LINE
  8
0
 62
     0
 10
188.106
 20
38.6553
 30
0.0
 11
187.307
 21
38.6553
 31
0.0
  0
LINE
  8
0
 62
     0
 10
187.307
 20
38.6553
 30
0.0
 11
187.307
 21
39.6543
 31
0.0
  0
LINE
  8
0
 62
     0
 10
187.307
 20
39.6543
 30
0.0
 11
173.306
 21
39.6543
 31
0.0
  0
LINE
  8
0
 62
     0
 10
192.356
 20
39.6543
 30
0.0
 11
192.356
 21
38.6553
 31
0.0
  0
LINE
  8
0
 62
     0
 10
192.356
 20
38.6553
 30
0.0
 11
191.557
 21
38.6553
 31
0.0
  0
LINE
  8
0
 62
     0
 10
191.557
 20
38.6553
 30
0.0
 11
191.557
 21
35.5547
 31
0.0
  0
LINE
  8
0
 62
     0
 10
191.557
 20
35.5547
 30
0.0
 11
192.356
 21
35.5547
 31
0.0
  0
LINE
  8
0
 62
     0
 10
192.356
 20
35.5547
 30
0.0
 11
192.356
 21
29.7546
 31
0.0
  0
LINE
  8
0
 62
     0
 10
192.356
 20
29.7546
 30
0.0
 11
191.557
 21
29.7546
 31
0.0
  0
LINE
  8
0
 62
     0
 10
191.557
 20
29.7546
 30
0.0
 11
191.557
 21
26.6554
 31
0.0
  0
LINE
  8
0
 62
     0
 10
191.557
 20
26.6554
 30
0.0
 11
192.356
 21
26.6554
 31
0.0
  0
LINE
  8
0
 62
     0
 10
192.356
 20
26.6554
 30
0.0
 11
192.356
 21
25.655
 31
0.0
  0
LINE
  8
0
 62
     0
 10
192.356
 20
25.655
 30
0.0
 11
206.357
 21
25.655
 31
0.0
  0
LINE
  8
0
 62
     0
 10
206.357
 20
25.655
 30
0.0
 11
206.357
 21
26.6554
 31
0.0
  0
LINE
  8
0
 62
     0
 10
206.357
 20
26.6554
 30
0.0
 11
207.156
 21
26.6554
 31
0.0
  0
LINE
  8
0
 62
     0
 10
207.156
 20
26.6554
 30
0.0
 11
207.156
 21
29.7546
 31
0.0
  0
LINE
  8
0
 62
     0
 10
207.156
 20
29.7546
 30
0.0
 11
206.357
 21
29.7546
 31
0.0
  0
LINE
  8
0
 62
     0
 10
206.357
 20
29.7546
 30
0.0
 11
206.357
 21
35.5547
 31
0.0
  0
LINE
  8
0
 62
     0
 10
206.357
 20
35.5547
 30
0.0
 11
207.156
 21
35.5547
 31
0.0
  0
LINE
  8
0
 62
     0
 10
207.156
 20
35.5547
 30
0.0
 11
207.156
 21
38.6553
 31
0.0
  0
LINE
  8
0
 62
     0
 10
207.156
 20
38.6553
 30
0.0
 11
206.357
 21
38.6553
 31
0.0
  0
LINE
  8
0
 62
     0
 10
206.357
 20
38.6553
 30
0.0
 11
206.357
 21
39.6543
 31
0.0
  0
LINE
  8
0
 62
     0
 10
206.357
 20
39.6543
 30
0.0
 11
192.356
 21
39.6543
 31
0.0
  0
LINE
  8
0
 62
     0
 10
9.00134
 20
58.7043
 30
0.0
 11
9.00134
 21
57.7053
 31
0.0
  0
LINE
  8
0
 62
     0
 10
9.00134
 20
57.7053
 30
0.0
 11
8.20071
 21
57.7053
 31
0.0
  0
LINE
  8
0
 62
     0
 10
8.20071
 20
57.7053
 30
0.0
 11
8.20071
 21
54.6047
 31
0.0
  0
LINE
  8
0
 62
     0
 10
8.20071
 20
54.6047
 30
0.0
 11
9.00134
 21
54.6047
 31
0.0
  0
LINE
  8
0
 62
     0
 10
9.00134
 20
54.6047
 30
0.0
 11
9.00134
 21
48.8047
 31
0.0
  0
LINE
  8
0
 62
     0
 10
9.00134
 20
48.8047
 30
0.0
 11
8.20071
 21
48.8047
 31
0.0
  0
LINE
  8
0
 62
     0
 10
8.20071
 20
48.8047
 30
0.0
 11
8.20071
 21
45.7055
 31
0.0
  0
LINE
  8
0
 62
     0
 10
8.20071
 20
45.7055
 30
0.0
 11
9.00134
 21
45.7055
 31
0.0
  0
LINE
  8
0
 62
     0
 10
9.00134
 20
45.7055
 30
0.0
 11
9.00134
 21
44.7051
 31
0.0
  0
LINE
  8
0
 62
     0
 10
9.00134
 20
44.7051
 30
0.0
 11
25.3821
 21
44.7051
 31
0.0
  0
LINE
  8
0
 62
     0
 10
25.3821
 20
44.7051
 30
0.0
 11
25.3821
 21
45.7055
 31
0.0
  0
LINE
  8
0
 62
     0
 10
25.3821
 20
45.7055
 30
0.0
 11
26.1813
 21
45.7055
 31
0.0
  0
LINE
  8
0
 62
     0
 10
26.1813
 20
45.7055
 30
0.0
 11
26.1813
 21
48.8047
 31
0.0
  0
LINE
  8
0
 62
     0
 10
26.1813
 20
48.8047
 30
0.0
 11
25.3821
 21
48.8047
 31
0.0
  0
LINE
  8
0
 62
     0
 10
25.3821
 20
48.8047
 30
0.0
 11
25.3821
 21
54.6047
 31
0.0
  0
LINE
  8
0
 62
     0
 10
25.3821
 20
54.6047
 30
0.0
 11
26.1813
 21
54.6047
 31
0.0
  0
LINE
  8
0
 62
     0
 10
26.1813
 20
54.6047
 30
0.0
 11
26.1813
 21
57.7053
 31
0.0
  0
LINE
  8
0
 62
     0
 10
26.1813
 20
57.7053
 30
0.0
 11
25.3821
 21
57.7053
 31
0.0
  0
LINE
  8
0
 62
     0
 10
25.3821
 20
57.7053
 30
0.0
 11
25.3821
 21
58.7043
 31
0.0
  0
LINE
  8
0
 62
     0
 10
25.3821
 20
58.7043
 30
0.0
 11
9.00134
 21
58.7043
 31
0.0
  0
LINE
  8
0
 62
     0
 10
30.4312
 20
58.7043
 30
0.0
 11
30.4312
 21
57.7053
 31
0.0
  0
LINE
  8
0
 62
     0
 10
30.4312
 20
57.7053
 30
0.0
 11
29.632
 21
57.7053
 31
0.0
  0
LINE
  8
0
 62
     0
 10
29.632
 20
57.7053
 30
0.0
 11
29.632
 21
54.6047
 31
0.0
  0
LINE
  8
0
 62
     0
 10
29.632
 20
54.6047
 30
0.0
 11
30.4312
 21
54.6047
 31
0.0
  0
LINE
  8
0
 62
     0
 10
30.4312
 20
54.6047
 30
0.0
 11
30.4312
 21
48.8047
 31
0.0
  0
LINE
  8
0
 62
     0
 10
30.4312
 20
48.8047
 30
0.0
 11
29.632
 21
48.8047
 31
0.0
  0
LINE
  8
0
 62
     0
 10
29.632
 20
48.8047
 30
0.0
 11
29.632
 21
45.7055
 31
0.0
  0
LINE
  8
0
 62
     0
 10
29.632
 20
45.7055
 30
0.0
 11
30.4312
 21
45.7055
 31
0.0
  0
LINE
  8
0
 62
     0
 10
30.4312
 20
45.7055
 30
0.0
 11
30.4312
 21
44.7051
 31
0.0
  0
LINE
  8
0
 62
     0
 10
30.4312
 20
44.7051
 30
0.0
 11
49.1945
 21
44.7051
 31
0.0
  0
LINE
  8
0
 62
     0
 10
49.1945
 20
44.7051
 30
0.0
 11
49.1945
 21
45.7055
 31
0.0
  0
LINE
  8
0
 62
     0
 10
49.1945
 20
45.7055
 30
0.0
 11
49.4813
 21
45.7055
 31
0.0
  0
LINE
  8
0
 62
     0
 10
49.4813
 20
45.7055
 30
0.0
 11
49.4813
 21
44.7051
 31
0.0
  0
LINE
  8
0
 62
     0
 10
49.4813
 20
44.7051
 30
0.0
 11
68.2445
 21
44.7051
 31
0.0
  0
LINE
  8
0
 62
     0
 10
68.2445
 20
44.7051
 30
0.0
 11
68.2445
 21
45.7055
 31
0.0
  0
LINE
  8
0
 62
     0
 10
68.2445
 20
45.7055
 30
0.0
 11
68.5313
 21
45.7055
 31
0.0
  0
LINE
  8
0
 62
     0
 10
68.5313
 20
45.7055
 30
0.0
 11
68.5313
 21
44.7051
 31
0.0
  0
LINE
  8
0
 62
     0
 10
68.5313
 20
44.7051
 30
0.0
 11
87.2945
 21
44.7051
 31
0.0
  0
LINE
  8
0
 62
     0
 10
87.2945
 20
44.7051
 30
0.0
 11
87.2945
 21
45.7055
 31
0.0
  0
LINE
  8
0
 62
     0
 10
87.2945
 20
45.7055
 30
0.0
 11
87.5813
 21
45.7055
 31
0.0
  0
LINE
  8
0
 62
     0
 10
87.5813
 20
45.7055
 30
0.0
 11
87.5813
 21
44.7051
 31
0.0
  0
LINE
  8
0
 62
     0
 10
87.5813
 20
44.7051
 30
0.0
 11
106.345
 21
44.7051
 31
0.0
  0
LINE
  8
0
 62
     0
 10
106.345
 20
44.7051
 30
0.0
 11
106.345
 21
45.7055
 31
0.0
  0
LINE
  8
0
 62
     0
 10
106.345
 20
45.7055
 30
0.0
 11
106.631
 21
45.7055
 31
0.0
  0
LINE
  8
0
 62
     0
 10
106.631
 20
45.7055
 30
0.0
 11
106.631
 21
44.7051
 31
0.0
  0
LINE
  8
0
 62
     0
 10
106.631
 20
44.7051
 30
0.0
 11
125.395
 21
44.7051
 31
0.0
  0
LINE
  8
0
 62
     0
 10
125.395
 20
44.7051
 30
0.0
 11
125.395
 21
45.7055
 31
0.0
  0
LINE
  8
0
 62
     0
 10
125.395
 20
45.7055
 30
0.0
 11
125.681
 21
45.7055
 31
0.0
  0
LINE
  8
0
 62
     0
 10
125.681
 20
45.7055
 30
0.0
 11
125.681
 21
44.7051
 31
0.0
  0
LINE
  8
0
 62
     0
 10
125.681
 20
44.7051
 30
0.0
 11
144.445
 21
44.7051
 31
0.0
  0
LINE
  8
0
 62
     0
 10
144.445
 20
44.7051
 30
0.0
 11
144.445
 21
45.7055
 31
0.0
  0
LINE
  8
0
 62
     0
 10
144.445
 20
45.7055
 30
0.0
 11
144.731
 21
45.7055
 31
0.0
  0
LINE
  8
0
 62
     0
 10
144.731
 20
45.7055
 30
0.0
 11
144.731
 21
44.7051
 31
0.0
  0
LINE
  8
0
 62
     0
 10
144.731
 20
44.7051
 30
0.0
 11
163.495
 21
44.7051
 31
0.0
  0
LINE
  8
0
 62
     0
 10
163.495
 20
44.7051
 30
0.0
 11
163.495
 21
45.7055
 31
0.0
  0
LINE
  8
0
 62
     0
 10
163.495
 20
45.7055
 30
0.0
 11
163.781
 21
45.7055
 31
0.0
  0
LINE
  8
0
 62
     0
 10
163.781
 20
45.7055
 30
0.0
 11
163.781
 21
44.7051
 31
0.0
  0
LINE
  8
0
 62
     0
 10
163.781
 20
44.7051
 30
0.0
 11
182.545
 21
44.7051
 31
0.0
  0
LINE
  8
0
 62
     0
 10
182.545
 20
44.7051
 30
0.0
 11
182.545
 21
45.7055
 31
0.0
  0
LINE
  8
0
 62
     0
 10
182.545
 20
45.7055
 30
0.0
 11
182.831
 21
45.7055
 31
0.0
  0
LINE
  8
0
 62
     0
 10
182.831
 20
45.7055
 30
0.0
 11
182.831
 21
44.7051
 31
0.0
  0
LINE
  8
0
 62
     0
 10
182.831
 20
44.7051
 30
0.0
 11
201.593
 21
44.7051
 31
0.0
  0
LINE
  8
0
 62
     0
 10
201.593
 20
44.7051
 30
0.0
 11
201.593
 21
45.7055
 31
0.0
  0
LINE
  8
0
 62
     0
 10
201.593
 20
45.7055
 30
0.0
 11
201.881
 21
45.7055
 31
0.0
  0
LINE
  8
0
 62
     0
 10
201.881
 20
45.7055
 30
0.0
 11
201.881
 21
44.7051
 31
0.0
  0
LINE
  8
0
 62
     0
 10
201.881
 20
44.7051
 30
0.0
 11
220.643
 21
44.7051
 31
0.0
  0
LINE
  8
0
 62
     0
 10
220.643
 20
44.7051
 30
0.0
 11
220.643
 21
45.7055
 31
0.0
  0
LINE
  8
0
 62
     0
 10
220.643
 20
45.7055
 30
0.0
 11
221.444
 21
45.7055
 31
0.0
  0
LINE
  8
0
 62
     0
 10
221.444
 20
45.7055
 30
0.0
 11
221.444
 21
48.8047
 31
0.0
  0
LINE
  8
0
 62
     0
 10
221.444
 20
48.8047
 30
0.0
 11
220.643
 21
48.8047
 31
0.0
  0
LINE
  8
0
 62
     0
 10
220.643
 20
48.8047
 30
0.0
 11
220.643
 21
54.6047
 31
0.0
  0
LINE
  8
0
 62
     0
 10
220.643
 20
54.6047
 30
0.0
 11
221.444
 21
54.6047
 31
0.0
  0
LINE
  8
0
 62
     0
 10
221.444
 20
54.6047
 30
0.0
 11
221.444
 21
57.7053
 31
0.0
  0
LINE
  8
0
 62
     0
 10
221.444
 20
57.7053
 30
0.0
 11
220.643
 21
57.7053
 31
0.0
  0
LINE
  8
0
 62
     0
 10
220.643
 20
57.7053
 30
0.0
 11
220.643
 21
58.7043
 31
0.0
  0
LINE
  8
0
 62
     0
 10
220.643
 20
58.7043
 30
0.0
 11
201.881
 21
58.7043
 31
0.0
  0
LINE
  8
0
 62
     0
 10
201.881
 20
58.7043
 30
0.0
 11
201.881
 21
57.7053
 31
0.0
  0
LINE
  8
0
 62
     0
 10
201.881
 20
57.7053
 30
0.0
 11
201.593
 21
57.7053
 31
0.0
  0
LINE
  8
0
 62
     0
 10
201.593
 20
57.7053
 30
0.0
 11
201.593
 21
58.7043
 31
0.0
  0
LINE
  8
0
 62
     0
 10
201.593
 20
58.7043
 30
0.0
 11
182.831
 21
58.7043
 31
0.0
  0
LINE
  8
0
 62
     0
 10
182.831
 20
58.7043
 30
0.0
 11
182.831
 21
57.7053
 31
0.0
  0
LINE
  8
0
 62
     0
 10
182.831
 20
57.7053
 30
0.0
 11
182.545
 21
57.7053
 31
0.0
  0
LINE
  8
0
 62
     0
 10
182.545
 20
57.7053
 30
0.0
 11
182.545
 21
58.7043
 31
0.0
  0
LINE
  8
0
 62
     0
 10
182.545
 20
58.7043
 30
0.0
 11
163.781
 21
58.7043
 31
0.0
  0
LINE
  8
0
 62
     0
 10
163.781
 20
58.7043
 30
0.0
 11
163.781
 21
57.7053
 31
0.0
  0
LINE
  8
0
 62
     0
 10
163.781
 20
57.7053
 30
0.0
 11
163.495
 21
57.7053
 31
0.0
  0
LINE
  8
0
 62
     0
 10
163.495
 20
57.7053
 30
0.0
 11
163.495
 21
58.7043
 31
0.0
  0
LINE
  8
0
 62
     0
 10
163.495
 20
58.7043
 30
0.0
 11
144.731
 21
58.7043
 31
0.0
  0
LINE
  8
0
 62
     0
 10
144.731
 20
58.7043
 30
0.0
 11
144.731
 21
57.7053
 31
0.0
  0
LINE
  8
0
 62
     0
 10
144.731
 20
57.7053
 30
0.0
 11
144.445
 21
57.7053
 31
0.0
  0
LINE
  8
0
 62
     0
 10
144.445
 20
57.7053
 30
0.0
 11
144.445
 21
58.7043
 31
0.0
  0
LINE
  8
0
 62
     0
 10
144.445
 20
58.7043
 30
0.0
 11
125.681
 21
58.7043
 31
0.0
  0
LINE
  8
0
 62
     0
 10
125.681
 20
58.7043
 30
0.0
 11
125.681
 21
57.7053
 31
0.0
  0
LINE
  8
0
 62
     0
 10
125.681
 20
57.7053
 30
0.0
 11
125.395
 21
57.7053
 31
0.0
  0
LINE
  8
0
 62
     0
 10
125.395
 20
57.7053
 30
0.0
 11
125.395
 21
58.7043
 31
0.0
  0
LINE
  8
0
 62
     0
 10
125.395
 20
58.7043
 30
0.0
 11
106.631
 21
58.7043
 31
0.0
  0
LINE
  8
0
 62
     0
 10
106.631
 20
58.7043
 30
0.0
 11
106.631
 21
57.7053
 31
0.0
  0
LINE
  8
0
 62
     0
 10
106.631
 20
57.7053
 30
0.0
 11
106.345
 21
57.7053
 31
0.0
  0
LINE
  8
0
 62
     0
 10
106.345
 20
57.7053
 30
0.0
 11
106.345
 21
58.7043
 31
0.0
  0
LINE
  8
0
 62
     0
 10
106.345
 20
58.7043
 30
0.0
 11
87.5813
 21
58.7043
 31
0.0
  0
LINE
  8
0
 62
     0
 10
87.5813
 20
58.7043
 30
0.0
 11
87.5813
 21
57.7053
 31
0.0
  0
LINE
  8
0
 62
     0
 10
87.5813
 20
57.7053
 30
0.0
 11
87.2945
 21
57.7053
 31
0.0
  0
LINE
  8
0
 62
     0
 10
87.2945
 20
57.7053
 30
0.0
 11
87.2945
 21
58.7043
 31
0.0
  0
LINE
  8
0
 62
     0
 10
87.2945
 20
58.7043
 30
0.0
 11
68.5313
 21
58.7043
 31
0.0
  0
LINE
  8
0
 62
     0
 10
68.5313
 20
58.7043
 30
0.0
 11
68.5313
 21
57.7053
 31
0.0
  0
LINE
  8
0
 62
     0
 10
68.5313
 20
57.7053
 30
0.0
 11
68.2445
 21
57.7053
 31
0.0
  0
LINE
  8
0
 62
     0
 10
68.2445
 20
57.7053
 30
0.0
 11
68.2445
 21
58.7043
 31
0.0
  0
LINE
  8
0
 62
     0
 10
68.2445
 20
58.7043
 30
0.0
 11
49.4813
 21
58.7043
 31
0.0
  0
LINE
  8
0
 62
     0
 10
49.4813
 20
58.7043
 30
0.0
 11
49.4813
 21
57.7053
 31
0.0
  0
LINE
  8
0
 62
     0
 10
49.4813
 20
57.7053
 30
0.0
 11
49.1945
 21
57.7053
 31
0.0
  0
LINE
  8
0
 62
     0
 10
49.1945
 20
57.7053
 30
0.0
 11
49.1945
 21
58.7043
 31
0.0
  0
LINE
  8
0
 62
     0
 10
49.1945
 20
58.7043
 30
0.0
 11
30.4312
 21
58.7043
 31
0.0
  0
LINE
  8
0
 62
     0
 10
228.076
 20
58.7043
 30
0.0
 11
228.076
 21
57.7053
 31
0.0
  0
LINE
  8
0
 62
     0
 10
228.076
 20
57.7053
 30
0.0
 11
227.276
 21
57.7053
 31
0.0
  0
LINE
  8
0
 62
     0
 10
227.276
 20
57.7053
 30
0.0
 11
227.276
 21
54.6047
 31
0.0
  0
LINE
  8
0
 62
     0
 10
227.276
 20
54.6047
 30
0.0
 11
228.076
 21
54.6047
 31
0.0
  0
LINE
  8
0
 62
     0
 10
228.076
 20
54.6047
 30
0.0
 11
228.076
 21
48.8047
 31
0.0
  0
LINE
  8
0
 62
     0
 10
228.076
 20
48.8047
 30
0.0
 11
227.276
 21
48.8047
 31
0.0
  0
LINE
  8
0
 62
     0
 10
227.276
 20
48.8047
 30
0.0
 11
227.276
 21
45.7055
 31
0.0
  0
LINE
  8
0
 62
     0
 10
227.276
 20
45.7055
 30
0.0
 11
228.076
 21
45.7055
 31
0.0
  0
LINE
  8
0
 62
     0
 10
228.076
 20
45.7055
 30
0.0
 11
228.076
 21
44.7051
 31
0.0
  0
LINE
  8
0
 62
     0
 10
228.076
 20
44.7051
 30
0.0
 11
244.457
 21
44.7051
 31
0.0
  0
LINE
  8
0
 62
     0
 10
244.457
 20
44.7051
 30
0.0
 11
244.457
 21
45.7055
 31
0.0
  0
LINE
  8
0
 62
     0
 10
244.457
 20
45.7055
 30
0.0
 11
245.256
 21
45.7055
 31
0.0
  0
LINE
  8
0
 62
     0
 10
245.256
 20
45.7055
 30
0.0
 11
245.256
 21
48.8047
 31
0.0
  0
LINE
  8
0
 62
     0
 10
245.256
 20
48.8047
 30
0.0
 11
244.457
 21
48.8047
 31
0.0
  0
LINE
  8
0
 62
     0
 10
244.457
 20
48.8047
 30
0.0
 11
244.457
 21
54.6047
 31
0.0
  0
LINE
  8
0
 62
     0
 10
244.457
 20
54.6047
 30
0.0
 11
245.256
 21
54.6047
 31
0.0
  0
LINE
  8
0
 62
     0
 10
245.256
 20
54.6047
 30
0.0
 11
245.256
 21
57.7053
 31
0.0
  0
LINE
  8
0
 62
     0
 10
245.256
 20
57.7053
 30
0.0
 11
244.457
 21
57.7053
 31
0.0
  0
LINE
  8
0
 62
     0
 10
244.457
 20
57.7053
 30
0.0
 11
244.457
 21
58.7043
 31
0.0
  0
LINE
  8
0
 62
     0
 10
244.457
 20
58.7043
 30
0.0
 11
228.076
 21
58.7043
 31
0.0
  0
LINE
  8
0
 62
     0
 10
49.1945
 20
54.6047
 30
0.0
 11
49.4813
 21
54.6047
 31
0.0
  0
LINE
  8
0
 62
     0
 10
49.4813
 20
54.6047
 30
0.0
 11
49.4813
 21
48.8047
 31
0.0
  0
LINE
  8
0
 62
     0
 10
49.4813
 20
48.8047
 30
0.0
 11
49.1945
 21
48.8047
 31
0.0
  0
LINE
  8
0
 62
     0
 10
49.1945
 20
48.8047
 30
0.0
 11
49.1945
 21
54.6047
 31
0.0
  0
LINE
  8
0
 62
     0
 10
68.2445
 20
54.6047
 30
0.0
 11
68.5313
 21
54.6047
 31
0.0
  0
LINE
  8
0
 62
     0
 10
68.5313
 20
54.6047
 30
0.0
 11
68.5313
 21
48.8047
 31
0.0
  0
LINE
  8
0
 62
     0
 10
68.5313
 20
48.8047
 30
0.0
 11
68.2445
 21
48.8047
 31
0.0
  0
LINE
  8
0
 62
     0
 10
68.2445
 20
48.8047
 30
0.0
 11
68.2445
 21
54.6047
 31
0.0
  0
LINE
  8
0
 62
     0
 10
87.2945
 20
54.6047
 30
0.0
 11
87.5813
 21
54.6047
 31
0.0
  0
LINE
  8
0
 62
     0
 10
87.5813
 20
54.6047
 30
0.0
 11
87.5813
 21
48.8047
 31
0.0
  0
LINE
  8
0
 62
     0
 10
87.5813
 20
48.8047
 30
0.0
 11
87.2945
 21
48.8047
 31
0.0
  0
LINE
  8
0
 62
     0
 10
87.2945
 20
48.8047
 30
0.0
 11
87.2945
 21
54.6047
 31
0.0
  0
LINE
  8
0
 62
     0
 10
106.345
 20
54.6047
 30
0.0
 11
106.631
 21
54.6047
 31
0.0
  0
LINE
  8
0
 62
     0
 10
106.631
 20
54.6047
 30
0.0
 11
106.631
 21
48.8047
 31
0.0
  0
LINE
  8
0
 62
     0
 10
106.631
 20
48.8047
 30
0.0
 11
106.345
 21
48.8047
 31
0.0
  0
LINE
  8
0
 62
     0
 10
106.345
 20
48.8047
 30
0.0
 11
106.345
 21
54.6047
 31
0.0
  0
LINE
  8
0
 62
     0
 10
125.395
 20
54.6047
 30
0.0
 11
125.681
 21
54.6047
 31
0.0
  0
LINE
  8
0
 62
     0
 10
125.681
 20
54.6047
 30
0.0
 11
125.681
 21
48.8047
 31
0.0
  0
LINE
  8
0
 62
     0
 10
125.681
 20
48.8047
 30
0.0
 11
125.395
 21
48.8047
 31
0.0
  0
LINE
  8
0
 62
     0
 10
125.395
 20
48.8047
 30
0.0
 11
125.395
 21
54.6047
 31
0.0
  0
LINE
  8
0
 62
     0
 10
144.445
 20
54.6047
 30
0.0
 11
144.731
 21
54.6047
 31
0.0
  0
LINE
  8
0
 62
     0
 10
144.731
 20
54.6047
 30
0.0
 11
144.731
 21
48.8047
 31
0.0
  0
LINE
  8
0
 62
     0
 10
144.731
 20
48.8047
 30
0.0
 11
144.445
 21
48.8047
 31
0.0
  0
LINE
  8
0
 62
     0
 10
144.445
 20
48.8047
 30
0.0
 11
144.445
 21
54.6047
 31
0.0
  0
LINE
  8
0
 62
     0
 10
163.495
 20
54.6047
 30
0.0
 11
163.781
 21
54.6047
 31
0.0
  0
LINE
  8
0
 62
     0
 10
163.781
 20
54.6047
 30
0.0
 11
163.781
 21
48.8047
 31
0.0
  0
LINE
  8
0
 62
     0
 10
163.781
 20
48.8047
 30
0.0
 11
163.495
 21
48.8047
 31
0.0
  0
LINE
  8
0
 62
     0
 10
163.495
 20
48.8047
 30
0.0
 11
163.495
 21
54.6047
 31
0.0
  0
LINE
  8
0
 62
     0
 10
182.545
 20
54.6047
 30
0.0
 11
182.831
 21
54.6047
 31
0.0
  0
LINE
  8
0
 62
     0
 10
182.831
 20
54.6047
 30
0.0
 11
182.831
 21
48.8047
 31
0.0
  0
LINE
  8
0
 62
     0
 10
182.831
 20
48.8047
 30
0.0
 11
182.545
 21
48.8047
 31
0.0
  0
LINE
  8
0
 62
     0
 10
182.545
 20
48.8047
 30
0.0
 11
182.545
 21
54.6047
 31
0.0
  0
LINE
  8
0
 62
     0
 10
201.593
 20
54.6047
 30
0.0
 11
201.881
 21
54.6047
 31
0.0
  0
LINE
  8
0
 62
     0
 10
201.881
 20
54.6047
 30
0.0
 11
201.881
 21
48.8047
 31
0.0
  0
LINE
  8
0
 62
     0
 10
201.881
 20
48.8047
 30
0.0
 11
201.593
 21
48.8047
 31
0.0
  0
LINE
  8
0
 62
     0
 10
201.593
 20
48.8047
 30
0.0
 11
201.593
 21
54.6047
 31
0.0
  0
LINE
  8
0
 62
     0
 10
216.17
 20
77.7558
 30
0.0
 11
216.17
 21
76.7553
 31
0.0
  0
LINE
  8
0
 62
     0
 10
216.17
 20
76.7553
 30
0.0
 11
215.369
 21
76.7553
 31
0.0
  0
LINE
  8
0
 62
     0
 10
215.369
 20
76.7553
 30
0.0
 11
215.369
 21
73.6561
 31
0.0
  0
LINE
  8
0
 62
     0
 10
215.369
 20
73.6561
 30
0.0
 11
216.17
 21
73.6561
 31
0.0
  0
LINE
  8
0
 62
     0
 10
216.17
 20
73.6561
 30
0.0
 11
216.17
 21
67.8561
 31
0.0
  0
LINE
  8
0
 62
     0
 10
216.17
 20
67.8561
 30
0.0
 11
215.369
 21
67.8561
 31
0.0
  0
LINE
  8
0
 62
     0
 10
215.369
 20
67.8561
 30
0.0
 11
215.369
 21
64.7555
 31
0.0
  0
LINE
  8
0
 62
     0
 10
215.369
 20
64.7555
 30
0.0
 11
216.17
 21
64.7555
 31
0.0
  0
LINE
  8
0
 62
     0
 10
216.17
 20
64.7555
 30
0.0
 11
216.17
 21
63.7551
 31
0.0
  0
LINE
  8
0
 62
     0
 10
216.17
 20
63.7551
 30
0.0
 11
219.145
 21
63.7551
 31
0.0
  0
LINE
  8
0
 62
     0
 10
219.145
 20
63.7551
 30
0.0
 11
219.145
 21
63.0054
 31
0.0
  0
LINE
  8
0
 62
     0
 10
219.145
 20
63.0054
 30
0.0
 11
222.444
 21
63.0054
 31
0.0
  0
LINE
  8
0
 62
     0
 10
222.444
 20
63.0054
 30
0.0
 11
222.444
 21
63.7551
 31
0.0
  0
LINE
  8
0
 62
     0
 10
222.444
 20
63.7551
 30
0.0
 11
242.945
 21
63.7551
 31
0.0
  0
LINE
  8
0
 62
     0
 10
242.945
 20
63.7551
 30
0.0
 11
242.945
 21
63.0054
 31
0.0
  0
LINE
  8
0
 62
     0
 10
242.945
 20
63.0054
 30
0.0
 11
246.245
 21
63.0054
 31
0.0
  0
LINE
  8
0
 62
     0
 10
246.245
 20
63.0054
 30
0.0
 11
246.245
 21
63.7551
 31
0.0
  0
LINE
  8
0
 62
     0
 10
246.245
 20
63.7551
 30
0.0
 11
249.22
 21
63.7551
 31
0.0
  0
LINE
  8
0
 62
     0
 10
249.22
 20
63.7551
 30
0.0
 11
249.22
 21
64.7555
 31
0.0
  0
LINE
  8
0
 62
     0
 10
249.22
 20
64.7555
 30
0.0
 11
250.02
 21
64.7555
 31
0.0
  0
LINE
  8
0
 62
     0
 10
250.02
 20
64.7555
 30
0.0
 11
250.02
 21
67.8561
 31
0.0
  0
LINE
  8
0
 62
     0
 10
250.02
 20
67.8561
 30
0.0
 11
249.22
 21
67.8561
 31
0.0
  0
LINE
  8
0
 62
     0
 10
249.22
 20
67.8561
 30
0.0
 11
249.22
 21
73.6561
 31
0.0
  0
LINE
  8
0
 62
     0
 10
249.22
 20
73.6561
 30
0.0
 11
250.02
 21
73.6561
 31
0.0
  0
LINE
  8
0
 62
     0
 10
250.02
 20
73.6561
 30
0.0
 11
250.02
 21
76.7553
 31
0.0
  0
LINE
  8
0
 62
     0
 10
250.02
 20
76.7553
 30
0.0
 11
249.22
 21
76.7553
 31
0.0
  0
LINE
  8
0
 62
     0
 10
249.22
 20
76.7553
 30
0.0
 11
249.22
 21
77.7558
 31
0.0
  0
LINE
  8
0
 62
     0
 10
249.22
 20
77.7558
 30
0.0
 11
216.17
 21
77.7558
 31
0.0
  0
LINE
  8
0
 62
     0
 10
6.61871
 20
77.7558
 30
0.0
 11
6.61871
 21
76.7553
 31
0.0
  0
LINE
  8
0
 62
     0
 10
6.61871
 20
76.7553
 30
0.0
 11
5.81808
 21
76.7553
 31
0.0
  0
LINE
  8
0
 62
     0
 10
5.81808
 20
76.7553
 30
0.0
 11
5.81808
 21
73.6561
 31
0.0
  0
LINE
  8
0
 62
     0
 10
5.81808
 20
73.6561
 30
0.0
 11
6.61871
 21
73.6561
 31
0.0
  0
LINE
  8
0
 62
     0
 10
6.61871
 20
73.6561
 30
0.0
 11
6.61871
 21
67.8561
 31
0.0
  0
LINE
  8
0
 62
     0
 10
6.61871
 20
67.8561
 30
0.0
 11
5.81808
 21
67.8561
 31
0.0
  0
LINE
  8
0
 62
     0
 10
5.81808
 20
67.8561
 30
0.0
 11
5.81808
 21
64.7555
 31
0.0
  0
LINE
  8
0
 62
     0
 10
5.81808
 20
64.7555
 30
0.0
 11
6.61871
 21
64.7555
 31
0.0
  0
LINE
  8
0
 62
     0
 10
6.61871
 20
64.7555
 30
0.0
 11
6.61871
 21
63.7551
 31
0.0
  0
LINE
  8
0
 62
     0
 10
6.61871
 20
63.7551
 30
0.0
 11
20.6196
 21
63.7551
 31
0.0
  0
LINE
  8
0
 62
     0
 10
20.6196
 20
63.7551
 30
0.0
 11
20.6196
 21
64.7555
 31
0.0
  0
LINE
  8
0
 62
     0
 10
20.6196
 20
64.7555
 30
0.0
 11
21.4202
 21
64.7555
 31
0.0
  0
LINE
  8
0
 62
     0
 10
21.4202
 20
64.7555
 30
0.0
 11
21.4202
 21
67.8561
 31
0.0
  0
LINE
  8
0
 62
     0
 10
21.4202
 20
67.8561
 30
0.0
 11
20.6196
 21
67.8561
 31
0.0
  0
LINE
  8
0
 62
     0
 10
20.6196
 20
67.8561
 30
0.0
 11
20.6196
 21
73.6561
 31
0.0
  0
LINE
  8
0
 62
     0
 10
20.6196
 20
73.6561
 30
0.0
 11
21.4202
 21
73.6561
 31
0.0
  0
LINE
  8
0
 62
     0
 10
21.4202
 20
73.6561
 30
0.0
 11
21.4202
 21
76.7553
 31
0.0
  0
LINE
  8
0
 62
     0
 10
21.4202
 20
76.7553
 30
0.0
 11
20.6196
 21
76.7553
 31
0.0
  0
LINE
  8
0
 62
     0
 10
20.6196
 20
76.7553
 30
0.0
 11
20.6196
 21
77.7558
 31
0.0
  0
LINE
  8
0
 62
     0
 10
20.6196
 20
77.7558
 30
0.0
 11
6.61871
 21
77.7558
 31
0.0
  0
LINE
  8
0
 62
     0
 10
25.6701
 20
77.7558
 30
0.0
 11
25.6701
 21
76.7553
 31
0.0
  0
LINE
  8
0
 62
     0
 10
25.6701
 20
76.7553
 30
0.0
 11
24.8695
 21
76.7553
 31
0.0
  0
LINE
  8
0
 62
     0
 10
24.8695
 20
76.7553
 30
0.0
 11
24.8695
 21
73.6561
 31
0.0
  0
LINE
  8
0
 62
     0
 10
24.8695
 20
73.6561
 30
0.0
 11
25.6701
 21
73.6561
 31
0.0
  0
LINE
  8
0
 62
     0
 10
25.6701
 20
73.6561
 30
0.0
 11
25.6701
 21
67.8561
 31
0.0
  0
LINE
  8
0
 62
     0
 10
25.6701
 20
67.8561
 30
0.0
 11
24.8695
 21
67.8561
 31
0.0
  0
LINE
  8
0
 62
     0
 10
24.8695
 20
67.8561
 30
0.0
 11
24.8695
 21
64.7555
 31
0.0
  0
LINE
  8
0
 62
     0
 10
24.8695
 20
64.7555
 30
0.0
 11
25.6701
 21
64.7555
 31
0.0
  0
LINE
  8
0
 62
     0
 10
25.6701
 20
64.7555
 30
0.0
 11
25.6701
 21
63.7551
 31
0.0
  0
LINE
  8
0
 62
     0
 10
25.6701
 20
63.7551
 30
0.0
 11
39.6695
 21
63.7551
 31
0.0
  0
LINE
  8
0
 62
     0
 10
39.6695
 20
63.7551
 30
0.0
 11
39.6695
 21
64.7555
 31
0.0
  0
LINE
  8
0
 62
     0
 10
39.6695
 20
64.7555
 30
0.0
 11
40.4703
 21
64.7555
 31
0.0
  0
LINE
  8
0
 62
     0
 10
40.4703
 20
64.7555
 30
0.0
 11
40.4703
 21
67.8561
 31
0.0
  0
LINE
  8
0
 62
     0
 10
40.4703
 20
67.8561
 30
0.0
 11
39.6695
 21
67.8561
 31
0.0
  0
LINE
  8
0
 62
     0
 10
39.6695
 20
67.8561
 30
0.0
 11
39.6695
 21
73.6561
 31
0.0
  0
LINE
  8
0
 62
     0
 10
39.6695
 20
73.6561
 30
0.0
 11
40.4703
 21
73.6561
 31
0.0
  0
LINE
  8
0
 62
     0
 10
40.4703
 20
73.6561
 30
0.0
 11
40.4703
 21
76.7553
 31
0.0
  0
LINE
  8
0
 62
     0
 10
40.4703
 20
76.7553
 30
0.0
 11
39.6695
 21
76.7553
 31
0.0
  0
LINE
  8
0
 62
     0
 10
39.6695
 20
76.7553
 30
0.0
 11
39.6695
 21
77.7558
 31
0.0
  0
LINE
  8
0
 62
     0
 10
39.6695
 20
77.7558
 30
0.0
 11
25.6701
 21
77.7558
 31
0.0
  0
LINE
  8
0
 62
     0
 10
44.7202
 20
77.7558
 30
0.0
 11
44.7202
 21
76.7553
 31
0.0
  0
LINE
  8
0
 62
     0
 10
44.7202
 20
76.7553
 30
0.0
 11
43.9194
 21
76.7553
 31
0.0
  0
LINE
  8
0
 62
     0
 10
43.9194
 20
76.7553
 30
0.0
 11
43.9194
 21
73.6561
 31
0.0
  0
LINE
  8
0
 62
     0
 10
43.9194
 20
73.6561
 30
0.0
 11
44.7202
 21
73.6561
 31
0.0
  0
LINE
  8
0
 62
     0
 10
44.7202
 20
73.6561
 30
0.0
 11
44.7202
 21
67.8561
 31
0.0
  0
LINE
  8
0
 62
     0
 10
44.7202
 20
67.8561
 30
0.0
 11
43.9194
 21
67.8561
 31
0.0
  0
LINE
  8
0
 62
     0
 10
43.9194
 20
67.8561
 30
0.0
 11
43.9194
 21
64.7555
 31
0.0
  0
LINE
  8
0
 62
     0
 10
43.9194
 20
64.7555
 30
0.0
 11
44.7202
 21
64.7555
 31
0.0
  0
LINE
  8
0
 62
     0
 10
44.7202
 20
64.7555
 30
0.0
 11
44.7202
 21
63.7551
 31
0.0
  0
LINE
  8
0
 62
     0
 10
44.7202
 20
63.7551
 30
0.0
 11
58.7195
 21
63.7551
 31
0.0
  0
LINE
  8
0
 62
     0
 10
58.7195
 20
63.7551
 30
0.0
 11
58.7195
 21
64.7555
 31
0.0
  0
LINE
  8
0
 62
     0
 10
58.7195
 20
64.7555
 30
0.0
 11
59.5203
 21
64.7555
 31
0.0
  0
LINE
  8
0
 62
     0
 10
59.5203
 20
64.7555
 30
0.0
 11
59.5203
 21
67.8561
 31
0.0
  0
LINE
  8
0
 62
     0
 10
59.5203
 20
67.8561
 30
0.0
 11
58.7195
 21
67.8561
 31
0.0
  0
LINE
  8
0
 62
     0
 10
58.7195
 20
67.8561
 30
0.0
 11
58.7195
 21
73.6561
 31
0.0
  0
LINE
  8
0
 62
     0
 10
58.7195
 20
73.6561
 30
0.0
 11
59.5203
 21
73.6561
 31
0.0
  0
LINE
  8
0
 62
     0
 10
59.5203
 20
73.6561
 30
0.0
 11
59.5203
 21
76.7553
 31
0.0
  0
LINE
  8
0
 62
     0
 10
59.5203
 20
76.7553
 30
0.0
 11
58.7195
 21
76.7553
 31
0.0
  0
LINE
  8
0
 62
     0
 10
58.7195
 20
76.7553
 30
0.0
 11
58.7195
 21
77.7558
 31
0.0
  0
LINE
  8
0
 62
     0
 10
58.7195
 20
77.7558
 30
0.0
 11
44.7202
 21
77.7558
 31
0.0
  0
LINE
  8
0
 62
     0
 10
63.7702
 20
77.7558
 30
0.0
 11
63.7702
 21
76.7553
 31
0.0
  0
LINE
  8
0
 62
     0
 10
63.7702
 20
76.7553
 30
0.0
 11
62.9694
 21
76.7553
 31
0.0
  0
LINE
  8
0
 62
     0
 10
62.9694
 20
76.7553
 30
0.0
 11
62.9694
 21
73.6561
 31
0.0
  0
LINE
  8
0
 62
     0
 10
62.9694
 20
73.6561
 30
0.0
 11
63.7702
 21
73.6561
 31
0.0
  0
LINE
  8
0
 62
     0
 10
63.7702
 20
73.6561
 30
0.0
 11
63.7702
 21
67.8561
 31
0.0
  0
LINE
  8
0
 62
     0
 10
63.7702
 20
67.8561
 30
0.0
 11
62.9694
 21
67.8561
 31
0.0
  0
LINE
  8
0
 62
     0
 10
62.9694
 20
67.8561
 30
0.0
 11
62.9694
 21
64.7555
 31
0.0
  0
LINE
  8
0
 62
     0
 10
62.9694
 20
64.7555
 30
0.0
 11
63.7702
 21
64.7555
 31
0.0
  0
LINE
  8
0
 62
     0
 10
63.7702
 20
64.7555
 30
0.0
 11
63.7702
 21
63.7551
 31
0.0
  0
LINE
  8
0
 62
     0
 10
63.7702
 20
63.7551
 30
0.0
 11
77.7695
 21
63.7551
 31
0.0
  0
LINE
  8
0
 62
     0
 10
77.7695
 20
63.7551
 30
0.0
 11
77.7695
 21
64.7555
 31
0.0
  0
LINE
  8
0
 62
     0
 10
77.7695
 20
64.7555
 30
0.0
 11
78.5703
 21
64.7555
 31
0.0
  0
LINE
  8
0
 62
     0
 10
78.5703
 20
64.7555
 30
0.0
 11
78.5703
 21
67.8561
 31
0.0
  0
LINE
  8
0
 62
     0
 10
78.5703
 20
67.8561
 30
0.0
 11
77.7695
 21
67.8561
 31
0.0
  0
LINE
  8
0
 62
     0
 10
77.7695
 20
67.8561
 30
0.0
 11
77.7695
 21
73.6561
 31
0.0
  0
LINE
  8
0
 62
     0
 10
77.7695
 20
73.6561
 30
0.0
 11
78.5703
 21
73.6561
 31
0.0
  0
LINE
  8
0
 62
     0
 10
78.5703
 20
73.6561
 30
0.0
 11
78.5703
 21
76.7553
 31
0.0
  0
LINE
  8
0
 62
     0
 10
78.5703
 20
76.7553
 30
0.0
 11
77.7695
 21
76.7553
 31
0.0
  0
LINE
  8
0
 62
     0
 10
77.7695
 20
76.7553
 30
0.0
 11
77.7695
 21
77.7558
 31
0.0
  0
LINE
  8
0
 62
     0
 10
77.7695
 20
77.7558
 30
0.0
 11
63.7702
 21
77.7558
 31
0.0
  0
LINE
  8
0
 62
     0
 10
82.8202
 20
77.7558
 30
0.0
 11
82.8202
 21
76.7553
 31
0.0
  0
LINE
  8
0
 62
     0
 10
82.8202
 20
76.7553
 30
0.0
 11
82.0194
 21
76.7553
 31
0.0
  0
LINE
  8
0
 62
     0
 10
82.0194
 20
76.7553
 30
0.0
 11
82.0194
 21
73.6561
 31
0.0
  0
LINE
  8
0
 62
     0
 10
82.0194
 20
73.6561
 30
0.0
 11
82.8202
 21
73.6561
 31
0.0
  0
LINE
  8
0
 62
     0
 10
82.8202
 20
73.6561
 30
0.0
 11
82.8202
 21
67.8561
 31
0.0
  0
LINE
  8
0
 62
     0
 10
82.8202
 20
67.8561
 30
0.0
 11
82.0194
 21
67.8561
 31
0.0
  0
LINE
  8
0
 62
     0
 10
82.0194
 20
67.8561
 30
0.0
 11
82.0194
 21
64.7555
 31
0.0
  0
LINE
  8
0
 62
     0
 10
82.0194
 20
64.7555
 30
0.0
 11
82.8202
 21
64.7555
 31
0.0
  0
LINE
  8
0
 62
     0
 10
82.8202
 20
64.7555
 30
0.0
 11
82.8202
 21
63.7551
 31
0.0
  0
LINE
  8
0
 62
     0
 10
82.8202
 20
63.7551
 30
0.0
 11
96.8195
 21
63.7551
 31
0.0
  0
LINE
  8
0
 62
     0
 10
96.8195
 20
63.7551
 30
0.0
 11
96.8195
 21
64.7555
 31
0.0
  0
LINE
  8
0
 62
     0
 10
96.8195
 20
64.7555
 30
0.0
 11
97.6189
 21
64.7555
 31
0.0
  0
LINE
  8
0
 62
     0
 10
97.6189
 20
64.7555
 30
0.0
 11
97.6189
 21
67.8561
 31
0.0
  0
LINE
  8
0
 62
     0
 10
97.6189
 20
67.8561
 30
0.0
 11
96.8195
 21
67.8561
 31
0.0
  0
LINE
  8
0
 62
     0
 10
96.8195
 20
67.8561
 30
0.0
 11
96.8195
 21
73.6561
 31
0.0
  0
LINE
  8
0
 62
     0
 10
96.8195
 20
73.6561
 30
0.0
 11
97.6189
 21
73.6561
 31
0.0
  0
LINE
  8
0
 62
     0
 10
97.6189
 20
73.6561
 30
0.0
 11
97.6189
 21
76.7553
 31
0.0
  0
LINE
  8
0
 62
     0
 10
97.6189
 20
76.7553
 30
0.0
 11
96.8195
 21
76.7553
 31
0.0
  0
LINE
  8
0
 62
     0
 10
96.8195
 20
76.7553
 30
0.0
 11
96.8195
 21
77.7558
 31
0.0
  0
LINE
  8
0
 62
     0
 10
96.8195
 20
77.7558
 30
0.0
 11
82.8202
 21
77.7558
 31
0.0
  0
LINE
  8
0
 62
     0
 10
101.869
 20
77.7558
 30
0.0
 11
101.869
 21
76.7553
 31
0.0
  0
LINE
  8
0
 62
     0
 10
101.869
 20
76.7553
 30
0.0
 11
101.069
 21
76.7553
 31
0.0
  0
LINE
  8
0
 62
     0
 10
101.069
 20
76.7553
 30
0.0
 11
101.069
 21
73.6561
 31
0.0
  0
LINE
  8
0
 62
     0
 10
101.069
 20
73.6561
 30
0.0
 11
101.869
 21
73.6561
 31
0.0
  0
LINE
  8
0
 62
     0
 10
101.869
 20
73.6561
 30
0.0
 11
101.869
 21
67.8561
 31
0.0
  0
LINE
  8
0
 62
     0
 10
101.869
 20
67.8561
 30
0.0
 11
101.069
 21
67.8561
 31
0.0
  0
LINE
  8
0
 62
     0
 10
101.069
 20
67.8561
 30
0.0
 11
101.069
 21
64.7555
 31
0.0
  0
LINE
  8
0
 62
     0
 10
101.069
 20
64.7555
 30
0.0
 11
101.869
 21
64.7555
 31
0.0
  0
LINE
  8
0
 62
     0
 10
101.869
 20
64.7555
 30
0.0
 11
101.869
 21
63.7551
 31
0.0
  0
LINE
  8
0
 62
     0
 10
101.869
 20
63.7551
 30
0.0
 11
115.868
 21
63.7551
 31
0.0
  0
LINE
  8
0
 62
     0
 10
115.868
 20
63.7551
 30
0.0
 11
115.868
 21
64.7555
 31
0.0
  0
LINE
  8
0
 62
     0
 10
115.868
 20
64.7555
 30
0.0
 11
116.669
 21
64.7555
 31
0.0
  0
LINE
  8
0
 62
     0
 10
116.669
 20
64.7555
 30
0.0
 11
116.669
 21
67.8561
 31
0.0
  0
LINE
  8
0
 62
     0
 10
116.669
 20
67.8561
 30
0.0
 11
115.868
 21
67.8561
 31
0.0
  0
LINE
  8
0
 62
     0
 10
115.868
 20
67.8561
 30
0.0
 11
115.868
 21
73.6561
 31
0.0
  0
LINE
  8
0
 62
     0
 10
115.868
 20
73.6561
 30
0.0
 11
116.669
 21
73.6561
 31
0.0
  0
LINE
  8
0
 62
     0
 10
116.669
 20
73.6561
 30
0.0
 11
116.669
 21
76.7553
 31
0.0
  0
LINE
  8
0
 62
     0
 10
116.669
 20
76.7553
 30
0.0
 11
115.868
 21
76.7553
 31
0.0
  0
LINE
  8
0
 62
     0
 10
115.868
 20
76.7553
 30
0.0
 11
115.868
 21
77.7558
 31
0.0
  0
LINE
  8
0
 62
     0
 10
115.868
 20
77.7558
 30
0.0
 11
101.869
 21
77.7558
 31
0.0
  0
LINE
  8
0
 62
     0
 10
120.919
 20
77.7558
 30
0.0
 11
120.919
 21
76.7553
 31
0.0
  0
LINE
  8
0
 62
     0
 10
120.919
 20
76.7553
 30
0.0
 11
120.118
 21
76.7553
 31
0.0
  0
LINE
  8
0
 62
     0
 10
120.118
 20
76.7553
 30
0.0
 11
120.118
 21
73.6561
 31
0.0
  0
LINE
  8
0
 62
     0
 10
120.118
 20
73.6561
 30
0.0
 11
120.919
 21
73.6561
 31
0.0
  0
LINE
  8
0
 62
     0
 10
120.919
 20
73.6561
 30
0.0
 11
120.919
 21
67.8561
 31
0.0
  0
LINE
  8
0
 62
     0
 10
120.919
 20
67.8561
 30
0.0
 11
120.118
 21
67.8561
 31
0.0
  0
LINE
  8
0
 62
     0
 10
120.118
 20
67.8561
 30
0.0
 11
120.118
 21
64.7555
 31
0.0
  0
LINE
  8
0
 62
     0
 10
120.118
 20
64.7555
 30
0.0
 11
120.919
 21
64.7555
 31
0.0
  0
LINE
  8
0
 62
     0
 10
120.919
 20
64.7555
 30
0.0
 11
120.919
 21
63.7551
 31
0.0
  0
LINE
  8
0
 62
     0
 10
120.919
 20
63.7551
 30
0.0
 11
134.92
 21
63.7551
 31
0.0
  0
LINE
  8
0
 62
     0
 10
134.92
 20
63.7551
 30
0.0
 11
134.92
 21
64.7555
 31
0.0
  0
LINE
  8
0
 62
     0
 10
134.92
 20
64.7555
 30
0.0
 11
135.72
 21
64.7555
 31
0.0
  0
LINE
  8
0
 62
     0
 10
135.72
 20
64.7555
 30
0.0
 11
135.72
 21
67.8561
 31
0.0
  0
LINE
  8
0
 62
     0
 10
135.72
 20
67.8561
 30
0.0
 11
134.92
 21
67.8561
 31
0.0
  0
LINE
  8
0
 62
     0
 10
134.92
 20
67.8561
 30
0.0
 11
134.92
 21
73.6561
 31
0.0
  0
LINE
  8
0
 62
     0
 10
134.92
 20
73.6561
 30
0.0
 11
135.72
 21
73.6561
 31
0.0
  0
LINE
  8
0
 62
     0
 10
135.72
 20
73.6561
 30
0.0
 11
135.72
 21
76.7553
 31
0.0
  0
LINE
  8
0
 62
     0
 10
135.72
 20
76.7553
 30
0.0
 11
134.92
 21
76.7553
 31
0.0
  0
LINE
  8
0
 62
     0
 10
134.92
 20
76.7553
 30
0.0
 11
134.92
 21
77.7558
 31
0.0
  0
LINE
  8
0
 62
     0
 10
134.92
 20
77.7558
 30
0.0
 11
120.919
 21
77.7558
 31
0.0
  0
LINE
  8
0
 62
     0
 10
139.97
 20
77.7558
 30
0.0
 11
139.97
 21
76.7553
 31
0.0
  0
LINE
  8
0
 62
     0
 10
139.97
 20
76.7553
 30
0.0
 11
139.169
 21
76.7553
 31
0.0
  0
LINE
  8
0
 62
     0
 10
139.169
 20
76.7553
 30
0.0
 11
139.169
 21
73.6561
 31
0.0
  0
LINE
  8
0
 62
     0
 10
139.169
 20
73.6561
 30
0.0
 11
139.97
 21
73.6561
 31
0.0
  0
LINE
  8
0
 62
     0
 10
139.97
 20
73.6561
 30
0.0
 11
139.97
 21
67.8561
 31
0.0
  0
LINE
  8
0
 62
     0
 10
139.97
 20
67.8561
 30
0.0
 11
139.169
 21
67.8561
 31
0.0
  0
LINE
  8
0
 62
     0
 10
139.169
 20
67.8561
 30
0.0
 11
139.169
 21
64.7555
 31
0.0
  0
LINE
  8
0
 62
     0
 10
139.169
 20
64.7555
 30
0.0
 11
139.97
 21
64.7555
 31
0.0
  0
LINE
  8
0
 62
     0
 10
139.97
 20
64.7555
 30
0.0
 11
139.97
 21
63.7551
 31
0.0
  0
LINE
  8
0
 62
     0
 10
139.97
 20
63.7551
 30
0.0
 11
153.97
 21
63.7551
 31
0.0
  0
LINE
  8
0
 62
     0
 10
153.97
 20
63.7551
 30
0.0
 11
153.97
 21
64.7555
 31
0.0
  0
LINE
  8
0
 62
     0
 10
153.97
 20
64.7555
 30
0.0
 11
154.77
 21
64.7555
 31
0.0
  0
LINE
  8
0
 62
     0
 10
154.77
 20
64.7555
 30
0.0
 11
154.77
 21
67.8561
 31
0.0
  0
LINE
  8
0
 62
     0
 10
154.77
 20
67.8561
 30
0.0
 11
153.97
 21
67.8561
 31
0.0
  0
LINE
  8
0
 62
     0
 10
153.97
 20
67.8561
 30
0.0
 11
153.97
 21
73.6561
 31
0.0
  0
LINE
  8
0
 62
     0
 10
153.97
 20
73.6561
 30
0.0
 11
154.77
 21
73.6561
 31
0.0
  0
LINE
  8
0
 62
     0
 10
154.77
 20
73.6561
 30
0.0
 11
154.77
 21
76.7553
 31
0.0
  0
LINE
  8
0
 62
     0
 10
154.77
 20
76.7553
 30
0.0
 11
153.97
 21
76.7553
 31
0.0
  0
LINE
  8
0
 62
     0
 10
153.97
 20
76.7553
 30
0.0
 11
153.97
 21
77.7558
 31
0.0
  0
LINE
  8
0
 62
     0
 10
153.97
 20
77.7558
 30
0.0
 11
139.97
 21
77.7558
 31
0.0
  0
LINE
  8
0
 62
     0
 10
159.02
 20
77.7558
 30
0.0
 11
159.02
 21
76.7553
 31
0.0
  0
LINE
  8
0
 62
     0
 10
159.02
 20
76.7553
 30
0.0
 11
158.219
 21
76.7553
 31
0.0
  0
LINE
  8
0
 62
     0
 10
158.219
 20
76.7553
 30
0.0
 11
158.219
 21
73.6561
 31
0.0
  0
LINE
  8
0
 62
     0
 10
158.219
 20
73.6561
 30
0.0
 11
159.02
 21
73.6561
 31
0.0
  0
LINE
  8
0
 62
     0
 10
159.02
 20
73.6561
 30
0.0
 11
159.02
 21
67.8561
 31
0.0
  0
LINE
  8
0
 62
     0
 10
159.02
 20
67.8561
 30
0.0
 11
158.219
 21
67.8561
 31
0.0
  0
LINE
  8
0
 62
     0
 10
158.219
 20
67.8561
 30
0.0
 11
158.219
 21
64.7555
 31
0.0
  0
LINE
  8
0
 62
     0
 10
158.219
 20
64.7555
 30
0.0
 11
159.02
 21
64.7555
 31
0.0
  0
LINE
  8
0
 62
     0
 10
159.02
 20
64.7555
 30
0.0
 11
159.02
 21
63.7551
 31
0.0
  0
LINE
  8
0
 62
     0
 10
159.02
 20
63.7551
 30
0.0
 11
173.02
 21
63.7551
 31
0.0
  0
LINE
  8
0
 62
     0
 10
173.02
 20
63.7551
 30
0.0
 11
173.02
 21
64.7555
 31
0.0
  0
LINE
  8
0
 62
     0
 10
173.02
 20
64.7555
 30
0.0
 11
173.82
 21
64.7555
 31
0.0
  0
LINE
  8
0
 62
     0
 10
173.82
 20
64.7555
 30
0.0
 11
173.82
 21
67.8561
 31
0.0
  0
LINE
  8
0
 62
     0
 10
173.82
 20
67.8561
 30
0.0
 11
173.02
 21
67.8561
 31
0.0
  0
LINE
  8
0
 62
     0
 10
173.02
 20
67.8561
 30
0.0
 11
173.02
 21
73.6561
 31
0.0
  0
LINE
  8
0
 62
     0
 10
173.02
 20
73.6561
 30
0.0
 11
173.82
 21
73.6561
 31
0.0
  0
LINE
  8
0
 62
     0
 10
173.82
 20
73.6561
 30
0.0
 11
173.82
 21
76.7553
 31
0.0
  0
LINE
  8
0
 62
     0
 10
173.82
 20
76.7553
 30
0.0
 11
173.02
 21
76.7553
 31
0.0
  0
LINE
  8
0
 62
     0
 10
173.02
 20
76.7553
 30
0.0
 11
173.02
 21
77.7558
 31
0.0
  0
LINE
  8
0
 62
     0
 10
173.02
 20
77.7558
 30
0.0
 11
159.02
 21
77.7558
 31
0.0
  0
LINE
  8
0
 62
     0
 10
178.07
 20
77.7558
 30
0.0
 11
178.07
 21
76.7553
 31
0.0
  0
LINE
  8
0
 62
     0
 10
178.07
 20
76.7553
 30
0.0
 11
177.269
 21
76.7553
 31
0.0
  0
LINE
  8
0
 62
     0
 10
177.269
 20
76.7553
 30
0.0
 11
177.269
 21
73.6561
 31
0.0
  0
LINE
  8
0
 62
     0
 10
177.269
 20
73.6561
 30
0.0
 11
178.07
 21
73.6561
 31
0.0
  0
LINE
  8
0
 62
     0
 10
178.07
 20
73.6561
 30
0.0
 11
178.07
 21
67.8561
 31
0.0
  0
LINE
  8
0
 62
     0
 10
178.07
 20
67.8561
 30
0.0
 11
177.269
 21
67.8561
 31
0.0
  0
LINE
  8
0
 62
     0
 10
177.269
 20
67.8561
 30
0.0
 11
177.269
 21
64.7555
 31
0.0
  0
LINE
  8
0
 62
     0
 10
177.269
 20
64.7555
 30
0.0
 11
178.07
 21
64.7555
 31
0.0
  0
LINE
  8
0
 62
     0
 10
178.07
 20
64.7555
 30
0.0
 11
178.07
 21
63.7551
 31
0.0
  0
LINE
  8
0
 62
     0
 10
178.07
 20
63.7551
 30
0.0
 11
192.07
 21
63.7551
 31
0.0
  0
LINE
  8
0
 62
     0
 10
192.07
 20
63.7551
 30
0.0
 11
192.07
 21
64.7555
 31
0.0
  0
LINE
  8
0
 62
     0
 10
192.07
 20
64.7555
 30
0.0
 11
192.87
 21
64.7555
 31
0.0
  0
LINE
  8
0
 62
     0
 10
192.87
 20
64.7555
 30
0.0
 11
192.87
 21
67.8561
 31
0.0
  0
LINE
  8
0
 62
     0
 10
192.87
 20
67.8561
 30
0.0
 11
192.07
 21
67.8561
 31
0.0
  0
LINE
  8
0
 62
     0
 10
192.07
 20
67.8561
 30
0.0
 11
192.07
 21
73.6561
 31
0.0
  0
LINE
  8
0
 62
     0
 10
192.07
 20
73.6561
 30
0.0
 11
192.87
 21
73.6561
 31
0.0
  0
LINE
  8
0
 62
     0
 10
192.87
 20
73.6561
 30
0.0
 11
192.87
 21
76.7553
 31
0.0
  0
LINE
  8
0
 62
     0
 10
192.87
 20
76.7553
 30
0.0
 11
192.07
 21
76.7553
 31
0.0
  0
LINE
  8
0
 62
     0
 10
192.07
 20
76.7553
 30
0.0
 11
192.07
 21
77.7558
 31
0.0
  0
LINE
  8
0
 62
     0
 10
192.07
 20
77.7558
 30
0.0
 11
178.07
 21
77.7558
 31
0.0
  0
LINE
  8
0
 62
     0
 10
197.12
 20
77.7558
 30
0.0
 11
197.12
 21
76.7553
 31
0.0
  0
LINE
  8
0
 62
     0
 10
197.12
 20
76.7553
 30
0.0
 11
196.319
 21
76.7553
 31
0.0
  0
LINE
  8
0
 62
     0
 10
196.319
 20
76.7553
 30
0.0
 11
196.319
 21
73.6561
 31
0.0
  0
LINE
  8
0
 62
     0
 10
196.319
 20
73.6561
 30
0.0
 11
197.12
 21
73.6561
 31
0.0
  0
LINE
  8
0
 62
     0
 10
197.12
 20
73.6561
 30
0.0
 11
197.12
 21
67.8561
 31
0.0
  0
LINE
  8
0
 62
     0
 10
197.12
 20
67.8561
 30
0.0
 11
196.319
 21
67.8561
 31
0.0
  0
LINE
  8
0
 62
     0
 10
196.319
 20
67.8561
 30
0.0
 11
196.319
 21
64.7555
 31
0.0
  0
LINE
  8
0
 62
     0
 10
196.319
 20
64.7555
 30
0.0
 11
197.12
 21
64.7555
 31
0.0
  0
LINE
  8
0
 62
     0
 10
197.12
 20
64.7555
 30
0.0
 11
197.12
 21
63.7551
 31
0.0
  0
LINE
  8
0
 62
     0
 10
197.12
 20
63.7551
 30
0.0
 11
211.12
 21
63.7551
 31
0.0
  0
LINE
  8
0
 62
     0
 10
211.12
 20
63.7551
 30
0.0
 11
211.12
 21
64.7555
 31
0.0
  0
LINE
  8
0
 62
     0
 10
211.12
 20
64.7555
 30
0.0
 11
211.92
 21
64.7555
 31
0.0
  0
LINE
  8
0
 62
     0
 10
211.92
 20
64.7555
 30
0.0
 11
211.92
 21
67.8561
 31
0.0
  0
LINE
  8
0
 62
     0
 10
211.92
 20
67.8561
 30
0.0
 11
211.12
 21
67.8561
 31
0.0
  0
LINE
  8
0
 62
     0
 10
211.12
 20
67.8561
 30
0.0
 11
211.12
 21
73.6561
 31
0.0
  0
LINE
  8
0
 62
     0
 10
211.12
 20
73.6561
 30
0.0
 11
211.92
 21
73.6561
 31
0.0
  0
LINE
  8
0
 62
     0
 10
211.92
 20
73.6561
 30
0.0
 11
211.92
 21
76.7553
 31
0.0
  0
LINE
  8
0
 62
     0
 10
211.92
 20
76.7553
 30
0.0
 11
211.12
 21
76.7553
 31
0.0
  0
LINE
  8
0
 62
     0
 10
211.12
 20
76.7553
 30
0.0
 11
211.12
 21
77.7558
 31
0.0
  0
LINE
  8
0
 62
     0
 10
211.12
 20
77.7558
 30
0.0
 11
197.12
 21
77.7558
 31
0.0
  0
LINE
  8
0
 62
     0
 10
64.6977
 20
83.2323
 30
0.0
 11
64.419
 21
83.0901
 31
0.0
  0
LINE
  8
0
 62
     0
 10
64.419
 20
83.0901
 30
0.0
 11
64.1974
 21
82.8682
 31
0.0
  0
LINE
  8
0
 62
     0
 10
64.1974
 20
82.8682
 30
0.0
 11
64.0553
 21
82.5899
 31
0.0
  0
LINE
  8
0
 62
     0
 10
64.0553
 20
82.5899
 30
0.0
 11
64.0073
 21
82.2798
 31
0.0
  0
LINE
  8
0
 62
     0
 10
64.0073
 20
82.2798
 30
0.0
 11
64.0553
 21
81.9711
 31
0.0
  0
LINE
  8
0
 62
     0
 10
64.0553
 20
81.9711
 30
0.0
 11
64.1974
 21
81.6928
 31
0.0
  0
LINE
  8
0
 62
     0
 10
64.1974
 20
81.6928
 30
0.0
 11
64.419
 21
81.4709
 31
0.0
  0
LINE
  8
0
 62
     0
 10
64.419
 20
81.4709
 30
0.0
 11
64.6977
 21
81.329
 31
0.0
  0
LINE
  8
0
 62
     0
 10
64.6977
 20
81.329
 30
0.0
 11
65.0064
 21
81.2793
 31
0.0
  0
LINE
  8
0
 62
     0
 10
65.0064
 20
81.2793
 30
0.0
 11
65.3161
 21
81.329
 31
0.0
  0
LINE
  8
0
 62
     0
 10
65.3161
 20
81.329
 30
0.0
 11
65.5948
 21
81.4709
 31
0.0
  0
LINE
  8
0
 62
     0
 10
65.5948
 20
81.4709
 30
0.0
 11
65.8153
 21
81.6928
 31
0.0
  0
LINE
  8
0
 62
     0
 10
65.8153
 20
81.6928
 30
0.0
 11
65.9585
 21
81.9711
 31
0.0
  0
LINE
  8
0
 62
     0
 10
65.9585
 20
81.9711
 30
0.0
 11
66.0065
 21
82.2798
 31
0.0
  0
LINE
  8
0
 62
     0
 10
66.0065
 20
82.2798
 30
0.0
 11
65.9585
 21
82.5899
 31
0.0
  0
LINE
  8
0
 62
     0
 10
65.9585
 20
82.5899
 30
0.0
 11
65.8153
 21
82.8682
 31
0.0
  0
LINE
  8
0
 62
     0
 10
65.8153
 20
82.8682
 30
0.0
 11
65.5948
 21
83.0901
 31
0.0
  0
LINE
  8
0
 62
     0
 10
65.5948
 20
83.0901
 30
0.0
 11
65.3161
 21
83.2323
 31
0.0
  0
LINE
  8
0
 62
     0
 10
65.3161
 20
83.2323
 30
0.0
 11
65.0064
 21
83.2803
 31
0.0
  0
LINE
  8
0
 62
     0
 10
65.0064
 20
83.2803
 30
0.0
 11
64.6977
 21
83.2323
 31
0.0
  0
LINE
  8
0
 62
     0
 10
127.61
 20
83.2323
 30
0.0
 11
127.332
 21
83.0901
 31
0.0
  0
LINE
  8
0
 62
     0
 10
127.332
 20
83.0901
 30
0.0
 11
127.11
 21
82.8682
 31
0.0
  0
LINE
  8
0
 62
     0
 10
127.11
 20
82.8682
 30
0.0
 11
126.968
 21
82.5899
 31
0.0
  0
LINE
  8
0
 62
     0
 10
126.968
 20
82.5899
 30
0.0
 11
126.92
 21
82.2798
 31
0.0
  0
LINE
  8
0
 62
     0
 10
126.92
 20
82.2798
 30
0.0
 11
126.968
 21
81.9711
 31
0.0
  0
LINE
  8
0
 62
     0
 10
126.968
 20
81.9711
 30
0.0
 11
127.11
 21
81.6928
 31
0.0
  0
LINE
  8
0
 62
     0
 10
127.11
 20
81.6928
 30
0.0
 11
127.332
 21
81.4709
 31
0.0
  0
LINE
  8
0
 62
     0
 10
127.332
 20
81.4709
 30
0.0
 11
127.61
 21
81.329
 31
0.0
  0
LINE
  8
0
 62
     0
 10
127.61
 20
81.329
 30
0.0
 11
127.919
 21
81.2793
 31
0.0
  0
LINE
  8
0
 62
     0
 10
127.919
 20
81.2793
 30
0.0
 11
128.229
 21
81.329
 31
0.0
  0
LINE
  8
0
 62
     0
 10
128.229
 20
81.329
 30
0.0
 11
128.507
 21
81.4709
 31
0.0
  0
LINE
  8
0
 62
     0
 10
128.507
 20
81.4709
 30
0.0
 11
128.729
 21
81.6928
 31
0.0
  0
LINE
  8
0
 62
     0
 10
128.729
 20
81.6928
 30
0.0
 11
128.871
 21
81.9711
 31
0.0
  0
LINE
  8
0
 62
     0
 10
128.871
 20
81.9711
 30
0.0
 11
128.919
 21
82.2798
 31
0.0
  0
LINE
  8
0
 62
     0
 10
128.919
 20
82.2798
 30
0.0
 11
128.871
 21
82.5899
 31
0.0
  0
LINE
  8
0
 62
     0
 10
128.871
 20
82.5899
 30
0.0
 11
128.729
 21
82.8682
 31
0.0
  0
LINE
  8
0
 62
     0
 10
128.729
 20
82.8682
 30
0.0
 11
128.507
 21
83.0901
 31
0.0
  0
LINE
  8
0
 62
     0
 10
128.507
 20
83.0901
 30
0.0
 11
128.229
 21
83.2323
 31
0.0
  0
LINE
  8
0
 62
     0
 10
128.229
 20
83.2323
 30
0.0
 11
127.919
 21
83.2803
 31
0.0
  0
LINE
  8
0
 62
     0
 10
127.919
 20
83.2803
 30
0.0
 11
127.61
 21
83.2323
 31
0.0
  0
LINE
  8
0
 62
     0
 10
190.523
 20
83.2323
 30
0.0
 11
190.245
 21
83.0901
 31
0.0
  0
LINE
  8
0
 62
     0
 10
190.245
 20
83.0901
 30
0.0
 11
190.023
 21
82.8682
 31
0.0
  0
LINE
  8
0
 62
     0
 10
190.023
 20
82.8682
 30
0.0
 11
189.881
 21
82.5899
 31
0.0
  0
LINE
  8
0
 62
     0
 10
189.881
 20
82.5899
 30
0.0
 11
189.833
 21
82.2798
 31
0.0
  0
LINE
  8
0
 62
     0
 10
189.833
 20
82.2798
 30
0.0
 11
189.881
 21
81.9711
 31
0.0
  0
LINE
  8
0
 62
     0
 10
189.881
 20
81.9711
 30
0.0
 11
190.023
 21
81.6928
 31
0.0
  0
LINE
  8
0
 62
     0
 10
190.023
 20
81.6928
 30
0.0
 11
190.245
 21
81.4709
 31
0.0
  0
LINE
  8
0
 62
     0
 10
190.245
 20
81.4709
 30
0.0
 11
190.523
 21
81.329
 31
0.0
  0
LINE
  8
0
 62
     0
 10
190.523
 20
81.329
 30
0.0
 11
190.832
 21
81.2793
 31
0.0
  0
LINE
  8
0
 62
     0
 10
190.832
 20
81.2793
 30
0.0
 11
191.142
 21
81.329
 31
0.0
  0
LINE
  8
0
 62
     0
 10
191.142
 20
81.329
 30
0.0
 11
191.42
 21
81.4709
 31
0.0
  0
LINE
  8
0
 62
     0
 10
191.42
 20
81.4709
 30
0.0
 11
191.642
 21
81.6928
 31
0.0
  0
LINE
  8
0
 62
     0
 10
191.642
 20
81.6928
 30
0.0
 11
191.784
 21
81.9711
 31
0.0
  0
LINE
  8
0
 62
     0
 10
191.784
 20
81.9711
 30
0.0
 11
191.832
 21
82.2798
 31
0.0
  0
LINE
  8
0
 62
     0
 10
191.832
 20
82.2798
 30
0.0
 11
191.784
 21
82.5899
 31
0.0
  0
LINE
  8
0
 62
     0
 10
191.784
 20
82.5899
 30
0.0
 11
191.642
 21
82.8682
 31
0.0
  0
LINE
  8
0
 62
     0
 10
191.642
 20
82.8682
 30
0.0
 11
191.42
 21
83.0901
 31
0.0
  0
LINE
  8
0
 62
     0
 10
191.42
 20
83.0901
 30
0.0
 11
191.142
 21
83.2323
 31
0.0
  0
LINE
  8
0
 62
     0
 10
191.142
 20
83.2323
 30
0.0
 11
190.832
 21
83.2803
 31
0.0
  0
LINE
  8
0
 62
     0
 10
190.832
 20
83.2803
 30
0.0
 11
190.523
 21
83.2323
 31
0.0
  0
LINE
  8
0
 62
     0
 10
253.436
 20
83.2323
 30
0.0
 11
253.158
 21
83.0901
 31
0.0
  0
LINE
  8
0
 62
     0
 10
253.158
 20
83.0901
 30
0.0
 11
252.936
 21
82.8682
 31
0.0
  0
LINE
  8
0
 62
     0
 10
252.936
 20
82.8682
 30
0.0
 11
252.794
 21
82.5899
 31
0.0
  0
LINE
  8
0
 62
     0
 10
252.794
 20
82.5899
 30
0.0
 11
252.746
 21
82.2798
 31
0.0
  0
LINE
  8
0
 62
     0
 10
252.746
 20
82.2798
 30
0.0
 11
252.794
 21
81.9711
 31
0.0
  0
LINE
  8
0
 62
     0
 10
252.794
 20
81.9711
 30
0.0
 11
252.936
 21
81.6928
 31
0.0
  0
LINE
  8
0
 62
     0
 10
252.936
 20
81.6928
 30
0.0
 11
253.158
 21
81.4709
 31
0.0
  0
LINE
  8
0
 62
     0
 10
253.158
 20
81.4709
 30
0.0
 11
253.436
 21
81.329
 31
0.0
  0
LINE
  8
0
 62
     0
 10
253.436
 20
81.329
 30
0.0
 11
253.745
 21
81.2793
 31
0.0
  0
LINE
  8
0
 62
     0
 10
253.745
 20
81.2793
 30
0.0
 11
254.054
 21
81.329
 31
0.0
  0
LINE
  8
0
 62
     0
 10
254.054
 20
81.329
 30
0.0
 11
254.332
 21
81.4709
 31
0.0
  0
LINE
  8
0
 62
     0
 10
254.332
 20
81.4709
 30
0.0
 11
254.554
 21
81.6928
 31
0.0
  0
LINE
  8
0
 62
     0
 10
254.554
 20
81.6928
 30
0.0
 11
254.696
 21
81.9711
 31
0.0
  0
LINE
  8
0
 62
     0
 10
254.696
 20
81.9711
 30
0.0
 11
254.745
 21
82.2798
 31
0.0
  0
LINE
  8
0
 62
     0
 10
254.745
 20
82.2798
 30
0.0
 11
254.696
 21
82.5899
 31
0.0
  0
LINE
  8
0
 62
     0
 10
254.696
 20
82.5899
 30
0.0
 11
254.554
 21
82.8682
 31
0.0
  0
LINE
  8
0
 62
     0
 10
254.554
 20
82.8682
 30
0.0
 11
254.332
 21
83.0901
 31
0.0
  0
LINE
  8
0
 62
     0
 10
254.332
 20
83.0901
 30
0.0
 11
254.054
 21
83.2323
 31
0.0
  0
LINE
  8
0
 62
     0
 10
254.054
 20
83.2323
 30
0.0
 11
253.745
 21
83.2803
 31
0.0
  0
LINE
  8
0
 62
     0
 10
253.745
 20
83.2803
 30
0.0
 11
253.436
 21
83.2323
 31
0.0
  0
LINE
  8
0
 62
     0
 10
1.78456
 20
83.2323
 30
0.0
 11
1.5062
 21
83.0901
 31
0.0
  0
LINE
  8
0
 62
     0
 10
1.5062
 20
83.0901
 30
0.0
 11
1.28433
 21
82.8682
 31
0.0
  0
LINE
  8
0
 62
     0
 10
1.28433
 20
82.8682
 30
0.0
 11
1.14239
 21
82.5899
 31
0.0
  0
LINE
  8
0
 62
     0
 10
1.14239
 20
82.5899
 30
0.0
 11
1.09416
 21
82.2798
 31
0.0
  0
LINE
  8
0
 62
     0
 10
1.09416
 20
82.2798
 30
0.0
 11
1.14239
 21
81.9711
 31
0.0
  0
LINE
  8
0
 62
     0
 10
1.14239
 20
81.9711
 30
0.0
 11
1.28433
 21
81.6928
 31
0.0
  0
LINE
  8
0
 62
     0
 10
1.28433
 20
81.6928
 30
0.0
 11
1.5062
 21
81.4709
 31
0.0
  0
LINE
  8
0
 62
     0
 10
1.5062
 20
81.4709
 30
0.0
 11
1.78456
 21
81.329
 31
0.0
  0
LINE
  8
0
 62
     0
 10
1.78456
 20
81.329
 30
0.0
 11
2.09462
 21
81.2793
 31
0.0
  0
LINE
  8
0
 62
     0
 10
2.09462
 20
81.2793
 30
0.0
 11
2.4033
 21
81.329
 31
0.0
  0
LINE
  8
0
 62
     0
 10
2.4033
 20
81.329
 30
0.0
 11
2.68166
 21
81.4709
 31
0.0
  0
LINE
  8
0
 62
     0
 10
2.68166
 20
81.4709
 30
0.0
 11
2.90353
 21
81.6928
 31
0.0
  0
LINE
  8
0
 62
     0
 10
2.90353
 20
81.6928
 30
0.0
 11
3.04546
 21
81.9711
 31
0.0
  0
LINE
  8
0
 62
     0
 10
3.04546
 20
81.9711
 30
0.0
 11
3.09507
 21
82.2798
 31
0.0
  0
LINE
  8
0
 62
     0
 10
3.09507
 20
82.2798
 30
0.0
 11
3.04546
 21
82.5899
 31
0.0
  0
LINE
  8
0
 62
     0
 10
3.04546
 20
82.5899
 30
0.0
 11
2.90353
 21
82.8682
 31
0.0
  0
LINE
  8
0
 62
     0
 10
2.90353
 20
82.8682
 30
0.0
 11
2.68166
 21
83.0901
 31
0.0
  0
LINE
  8
0
 62
     0
 10
2.68166
 20
83.0901
 30
0.0
 11
2.4033
 21
83.2323
 31
0.0
  0
LINE
  8
0
 62
     0
 10
2.4033
 20
83.2323
 30
0.0
 11
2.09462
 21
83.2803
 31
0.0
  0
LINE
  8
0
 62
     0
 10
2.09462
 20
83.2803
 30
0.0
 11
1.78456
 21
83.2323
 31
0.0
  0
ENDSEC
  0
EOF
