M48
;DRILL file {KiCad (5.0.2)-1} date 2/24/2019 10:28:10 PM
;FORMAT={-:-/ absolute / metric / decimal}
FMAT,2
METRIC,TZ
T1C0.400
T2C0.800
T3C1.092
T4C1.100
T5C1.499
T6C1.800
T7C3.500
T8C3.988
%
G90
G05
T1
X38.862Y-76.962
X41.91Y-98.552
X44.984Y-106.299
X48.768Y-90.424
X50.8Y-90.424
X56.388Y-90.03
X81.026Y-102.616
T2
X192.405Y-84.252
X192.405Y-91.872
X126.111Y-61.595
X126.111Y-69.215
X121.006Y-45.872
X121.006Y-53.492
X255.143Y-103.124
X255.143Y-110.744
X235.483Y-45.923
X235.483Y-53.543
X173.507Y-84.074
X173.507Y-91.694
X251.993Y-83.922
X251.993Y-91.542
X82.728Y-45.847
X82.728Y-53.467
X159.233Y-45.898
X159.233Y-53.518
X47.244Y-62.992
X47.244Y-70.612
X211.76Y-83.972
X211.76Y-91.592
X197.129Y-102.997
X197.129Y-110.617
X45.974Y-44.704
X45.974Y-52.324
X154.305Y-83.998
X154.305Y-91.618
X106.705Y-64.973
X106.705Y-72.593
X61.849Y-102.997
X61.849Y-110.617
X197.485Y-45.923
X197.485Y-53.543
X29.464Y-88.646
X29.464Y-96.266
X33.274Y-88.075
X33.274Y-95.694
X130.556Y-103.124
X130.556Y-110.744
X97.638Y-84.023
X97.638Y-91.643
X252.666Y-103.124
X252.666Y-110.744
X183.388Y-61.722
X183.388Y-69.342
X202.209Y-64.999
X202.209Y-72.619
X144.856Y-64.973
X144.856Y-72.593
X50.292Y-62.992
X50.292Y-70.612
X230.734Y-84.099
X230.734Y-91.719
X101.829Y-45.898
X101.829Y-53.518
X87.884Y-64.922
X87.884Y-72.542
X116.637Y-84.252
X116.637Y-91.872
X254.457Y-45.745
X254.457Y-53.365
X163.932Y-64.999
X163.932Y-72.619
X178.46Y-45.872
X178.46Y-53.492
X221.183Y-64.948
X221.183Y-72.568
X59.258Y-83.922
X59.258Y-91.542
X68.682Y-65.176
X68.682Y-72.796
X140.03Y-45.974
X140.03Y-53.594
X216.332Y-103.124
X216.332Y-110.744
X43.18Y-44.704
X43.18Y-52.324
X215.849Y-45.771
X215.849Y-53.391
X246.913Y-64.948
X246.913Y-72.568
X64.237Y-102.997
X64.237Y-110.617
X63.5Y-45.847
X63.5Y-53.467
X78.003Y-83.998
X78.003Y-91.618
X135.509Y-84.074
X135.509Y-91.694
T3
X28.956Y-59.461
X28.956Y-75.159
X31.496Y-59.919
X31.496Y-74.701
X34.036Y-59.461
X34.036Y-75.159
X36.576Y-59.919
X36.576Y-74.701
X39.116Y-59.461
X39.116Y-75.159
X41.656Y-59.919
X41.656Y-74.701
X44.196Y-59.461
X44.196Y-75.159
X46.736Y-59.919
X46.736Y-74.701
X49.276Y-59.461
X49.276Y-75.159
X51.816Y-59.919
X51.816Y-74.701
X54.356Y-59.461
X54.356Y-75.159
X56.896Y-59.919
X56.896Y-74.701
T4
X28.52Y-77.914
X28.52Y-84.414
X33.02Y-77.914
X33.02Y-84.414
T5
X178.562Y-84.074
X184.912Y-81.534
X169.215Y-65.227
X175.565Y-62.687
X259.588Y-103.124
X265.938Y-100.584
X252.476Y-65.024
X258.826Y-62.484
X226.39Y-65.202
X232.74Y-62.662
X164.49Y-46.177
X170.84Y-43.637
X221.488Y-103.124
X227.838Y-100.584
X64.262Y-84.074
X70.612Y-81.534
X54.889Y-65.1
X61.239Y-62.56
X197.612Y-84.074
X203.962Y-81.534
X202.438Y-103.124
X208.788Y-100.584
X221.615Y-46.126
X227.965Y-43.586
X259.74Y-46.152
X266.09Y-43.612
X31.064Y-46.101
X37.414Y-43.561
X188.29Y-65.202
X194.64Y-62.662
X73.965Y-65.1
X80.315Y-62.56
X121.412Y-84.074
X127.762Y-81.534
X50.089Y-46.152
X56.439Y-43.612
X216.662Y-84.074
X223.012Y-81.534
X126.289Y-46.101
X132.639Y-43.561
X150.165Y-65.202
X156.515Y-62.662
X135.636Y-103.124
X141.986Y-100.584
X93.015Y-65.253
X99.365Y-62.713
X240.538Y-103.124
X246.888Y-100.584
X140.462Y-84.074
X146.812Y-81.534
X145.39Y-46.126
X151.74Y-43.586
X68.834Y-103.124
X75.184Y-100.584
X107.239Y-46.177
X113.589Y-43.637
X37.846Y-84.074
X44.196Y-81.534
X49.784Y-103.124
X56.134Y-100.584
X102.362Y-84.074
X108.712Y-81.534
X30.734Y-103.124
X37.084Y-100.584
X240.665Y-46.152
X247.015Y-43.612
X88.265Y-46.025
X94.615Y-43.485
X112.09Y-65.151
X118.44Y-62.611
X235.712Y-84.074
X242.062Y-81.534
X202.565Y-46.126
X208.915Y-43.586
X83.312Y-84.074
X89.662Y-81.534
X131.115Y-65.176
X137.465Y-62.636
X257.048Y-84.074
X263.398Y-81.534
X183.49Y-46.101
X189.84Y-43.561
X69.215Y-46.152
X75.565Y-43.612
X159.512Y-84.074
X165.862Y-81.534
X33.02Y-64.77
X39.37Y-62.23
X207.34Y-65.151
X213.69Y-62.611
T6
X163.22Y-48.717
X173.38Y-48.717
X220.218Y-105.664
X230.378Y-105.664
X62.992Y-86.614
X73.152Y-86.614
X53.619Y-67.64
X63.779Y-67.64
X196.342Y-86.614
X206.502Y-86.614
X201.168Y-105.664
X211.328Y-105.664
X220.345Y-48.666
X230.505Y-48.666
X258.47Y-48.692
X268.63Y-48.692
X29.794Y-48.641
X39.954Y-48.641
X187.02Y-67.742
X197.18Y-67.742
X72.695Y-67.64
X82.855Y-67.64
X120.142Y-86.614
X130.302Y-86.614
X48.819Y-48.692
X58.979Y-48.692
X215.392Y-86.614
X225.552Y-86.614
X125.019Y-48.641
X135.179Y-48.641
X148.895Y-67.742
X159.055Y-67.742
X134.366Y-105.664
X144.526Y-105.664
X91.745Y-67.793
X101.905Y-67.793
X239.268Y-105.664
X249.428Y-105.664
X139.192Y-86.614
X149.352Y-86.614
X144.12Y-48.666
X154.28Y-48.666
X67.564Y-105.664
X77.724Y-105.664
X105.969Y-48.717
X116.129Y-48.717
X36.576Y-86.614
X46.736Y-86.614
X48.514Y-105.664
X58.674Y-105.664
X101.092Y-86.614
X111.252Y-86.614
X29.464Y-105.664
X39.624Y-105.664
X239.395Y-48.692
X249.555Y-48.692
X86.995Y-48.565
X97.155Y-48.565
X110.82Y-67.691
X120.98Y-67.691
X234.442Y-86.614
X244.602Y-86.614
X201.295Y-48.666
X211.455Y-48.666
X82.042Y-86.614
X92.202Y-86.614
X129.845Y-67.716
X140.005Y-67.716
X255.778Y-86.614
X265.938Y-86.614
X182.22Y-48.641
X192.38Y-48.641
X67.945Y-48.692
X78.105Y-48.692
X158.242Y-86.614
X168.402Y-86.614
X31.75Y-67.31
X41.91Y-67.31
X206.07Y-67.691
X216.23Y-67.691
X177.292Y-86.614
X187.452Y-86.614
X167.945Y-67.767
X178.105Y-67.767
X258.318Y-105.664
X268.478Y-105.664
X251.206Y-67.564
X261.366Y-67.564
X225.12Y-67.742
X235.28Y-67.742
T7
X124.968Y-73.914
X182.372Y-74.168
T8
X201.422Y-86.614
X206.248Y-105.664
X225.425Y-48.666
X263.55Y-48.692
X34.874Y-48.641
X192.1Y-67.742
X77.775Y-67.64
X125.222Y-86.614
X53.899Y-48.692
X220.472Y-86.614
X130.099Y-48.641
X153.975Y-67.742
X139.446Y-105.664
X96.825Y-67.793
X244.348Y-105.664
X144.272Y-86.614
X149.2Y-48.666
X72.644Y-105.664
X111.049Y-48.717
X41.656Y-86.614
X53.594Y-105.664
X106.172Y-86.614
X34.544Y-105.664
X244.475Y-48.692
X92.075Y-48.565
X115.9Y-67.691
X239.522Y-86.614
X206.375Y-48.666
X87.122Y-86.614
X134.925Y-67.716
X260.858Y-86.614
X187.3Y-48.641
X73.025Y-48.692
X163.322Y-86.614
X36.83Y-67.31
X211.15Y-67.691
X182.372Y-86.614
X173.025Y-67.767
X263.398Y-105.664
X256.286Y-67.564
X230.2Y-67.742
X168.3Y-48.717
X225.298Y-105.664
X68.072Y-86.614
X58.699Y-67.64
T0
M30
