G04 #@! TF.GenerationSoftware,KiCad,Pcbnew,(5.0.2)-1*
G04 #@! TF.CreationDate,2019-02-08T00:11:31-05:00*
G04 #@! TF.ProjectId,TG4x,54473478-2e6b-4696-9361-645f70636258,rev?*
G04 #@! TF.SameCoordinates,Original*
G04 #@! TF.FileFunction,Legend,Bot*
G04 #@! TF.FilePolarity,Positive*
%FSLAX46Y46*%
G04 Gerber Fmt 4.6, Leading zero omitted, Abs format (unit mm)*
G04 Created by KiCad (PCBNEW (5.0.2)-1) date 2/8/2019 12:11:31 AM*
%MOMM*%
%LPD*%
G01*
G04 APERTURE LIST*
%ADD10C,0.400000*%
%ADD11C,0.200000*%
%ADD12C,0.300000*%
%ADD13C,0.125000*%
%ADD14C,0.250000*%
%ADD15C,2.750000*%
%ADD16C,1.375000*%
%ADD17C,0.381000*%
%ADD18C,0.150000*%
%ADD19C,0.120000*%
G04 APERTURE END LIST*
D10*
X41656000Y-86360000D02*
X110490000Y-86360000D01*
D11*
X41656000Y-86360000D02*
X260858000Y-86360000D01*
D10*
X68072000Y-86360000D02*
X58420000Y-67310000D01*
D11*
X58420000Y-67310000D02*
X68072000Y-86360000D01*
D10*
X53594000Y-105410000D02*
X68072000Y-86360000D01*
D11*
X68072000Y-86360000D02*
X53594000Y-105410000D01*
D10*
X96520000Y-67310000D02*
X91694000Y-48260000D01*
X263144000Y-48260000D02*
X30734000Y-48260000D01*
D12*
X194005714Y-101770571D02*
X194005714Y-100270571D01*
X193362857Y-101770571D02*
X193362857Y-100984857D01*
X193434285Y-100842000D01*
X193577142Y-100770571D01*
X193791428Y-100770571D01*
X193934285Y-100842000D01*
X194005714Y-100913428D01*
X192862857Y-100770571D02*
X192291428Y-100770571D01*
X192648571Y-100270571D02*
X192648571Y-101556285D01*
X192577142Y-101699142D01*
X192434285Y-101770571D01*
X192291428Y-101770571D01*
X192005714Y-100770571D02*
X191434285Y-100770571D01*
X191791428Y-100270571D02*
X191791428Y-101556285D01*
X191720000Y-101699142D01*
X191577142Y-101770571D01*
X191434285Y-101770571D01*
X190934285Y-100770571D02*
X190934285Y-102270571D01*
X190934285Y-100842000D02*
X190791428Y-100770571D01*
X190505714Y-100770571D01*
X190362857Y-100842000D01*
X190291428Y-100913428D01*
X190220000Y-101056285D01*
X190220000Y-101484857D01*
X190291428Y-101627714D01*
X190362857Y-101699142D01*
X190505714Y-101770571D01*
X190791428Y-101770571D01*
X190934285Y-101699142D01*
X189648571Y-101699142D02*
X189505714Y-101770571D01*
X189220000Y-101770571D01*
X189077142Y-101699142D01*
X189005714Y-101556285D01*
X189005714Y-101484857D01*
X189077142Y-101342000D01*
X189220000Y-101270571D01*
X189434285Y-101270571D01*
X189577142Y-101199142D01*
X189648571Y-101056285D01*
X189648571Y-100984857D01*
X189577142Y-100842000D01*
X189434285Y-100770571D01*
X189220000Y-100770571D01*
X189077142Y-100842000D01*
X188362857Y-101627714D02*
X188291428Y-101699142D01*
X188362857Y-101770571D01*
X188434285Y-101699142D01*
X188362857Y-101627714D01*
X188362857Y-101770571D01*
X188362857Y-100842000D02*
X188291428Y-100913428D01*
X188362857Y-100984857D01*
X188434285Y-100913428D01*
X188362857Y-100842000D01*
X188362857Y-100984857D01*
X186577142Y-100199142D02*
X187862857Y-102127714D01*
X185005714Y-100199142D02*
X186291428Y-102127714D01*
X183862857Y-100770571D02*
X183862857Y-101984857D01*
X183934285Y-102127714D01*
X184005714Y-102199142D01*
X184148571Y-102270571D01*
X184362857Y-102270571D01*
X184505714Y-102199142D01*
X183862857Y-101699142D02*
X184005714Y-101770571D01*
X184291428Y-101770571D01*
X184434285Y-101699142D01*
X184505714Y-101627714D01*
X184577142Y-101484857D01*
X184577142Y-101056285D01*
X184505714Y-100913428D01*
X184434285Y-100842000D01*
X184291428Y-100770571D01*
X184005714Y-100770571D01*
X183862857Y-100842000D01*
X183148571Y-101770571D02*
X183148571Y-100770571D01*
X183148571Y-100270571D02*
X183220000Y-100342000D01*
X183148571Y-100413428D01*
X183077142Y-100342000D01*
X183148571Y-100270571D01*
X183148571Y-100413428D01*
X182648571Y-100770571D02*
X182077142Y-100770571D01*
X182434285Y-100270571D02*
X182434285Y-101556285D01*
X182362857Y-101699142D01*
X182220000Y-101770571D01*
X182077142Y-101770571D01*
X181577142Y-101770571D02*
X181577142Y-100270571D01*
X180934285Y-101770571D02*
X180934285Y-100984857D01*
X181005714Y-100842000D01*
X181148571Y-100770571D01*
X181362857Y-100770571D01*
X181505714Y-100842000D01*
X181577142Y-100913428D01*
X179577142Y-100770571D02*
X179577142Y-101770571D01*
X180220000Y-100770571D02*
X180220000Y-101556285D01*
X180148571Y-101699142D01*
X180005714Y-101770571D01*
X179791428Y-101770571D01*
X179648571Y-101699142D01*
X179577142Y-101627714D01*
X178862857Y-101770571D02*
X178862857Y-100270571D01*
X178862857Y-100842000D02*
X178720000Y-100770571D01*
X178434285Y-100770571D01*
X178291428Y-100842000D01*
X178220000Y-100913428D01*
X178148571Y-101056285D01*
X178148571Y-101484857D01*
X178220000Y-101627714D01*
X178291428Y-101699142D01*
X178434285Y-101770571D01*
X178720000Y-101770571D01*
X178862857Y-101699142D01*
X177505714Y-101627714D02*
X177434285Y-101699142D01*
X177505714Y-101770571D01*
X177577142Y-101699142D01*
X177505714Y-101627714D01*
X177505714Y-101770571D01*
X176148571Y-101699142D02*
X176291428Y-101770571D01*
X176577142Y-101770571D01*
X176720000Y-101699142D01*
X176791428Y-101627714D01*
X176862857Y-101484857D01*
X176862857Y-101056285D01*
X176791428Y-100913428D01*
X176720000Y-100842000D01*
X176577142Y-100770571D01*
X176291428Y-100770571D01*
X176148571Y-100842000D01*
X175291428Y-101770571D02*
X175434285Y-101699142D01*
X175505714Y-101627714D01*
X175577142Y-101484857D01*
X175577142Y-101056285D01*
X175505714Y-100913428D01*
X175434285Y-100842000D01*
X175291428Y-100770571D01*
X175077142Y-100770571D01*
X174934285Y-100842000D01*
X174862857Y-100913428D01*
X174791428Y-101056285D01*
X174791428Y-101484857D01*
X174862857Y-101627714D01*
X174934285Y-101699142D01*
X175077142Y-101770571D01*
X175291428Y-101770571D01*
X174148571Y-101770571D02*
X174148571Y-100770571D01*
X174148571Y-100913428D02*
X174077142Y-100842000D01*
X173934285Y-100770571D01*
X173720000Y-100770571D01*
X173577142Y-100842000D01*
X173505714Y-100984857D01*
X173505714Y-101770571D01*
X173505714Y-100984857D02*
X173434285Y-100842000D01*
X173291428Y-100770571D01*
X173077142Y-100770571D01*
X172934285Y-100842000D01*
X172862857Y-100984857D01*
X172862857Y-101770571D01*
X171077142Y-100199142D02*
X172362857Y-102127714D01*
X170577142Y-101770571D02*
X170577142Y-100270571D01*
X170077142Y-101342000D01*
X169577142Y-100270571D01*
X169577142Y-101770571D01*
X169005714Y-100770571D02*
X168648571Y-101770571D01*
X168291428Y-100770571D02*
X168648571Y-101770571D01*
X168791428Y-102127714D01*
X168862857Y-102199142D01*
X169005714Y-102270571D01*
X167934285Y-100770571D02*
X167362857Y-100770571D01*
X167720000Y-100270571D02*
X167720000Y-101556285D01*
X167648571Y-101699142D01*
X167505714Y-101770571D01*
X167362857Y-101770571D01*
X166862857Y-101770571D02*
X166862857Y-100270571D01*
X166220000Y-101770571D02*
X166220000Y-100984857D01*
X166291428Y-100842000D01*
X166434285Y-100770571D01*
X166648571Y-100770571D01*
X166791428Y-100842000D01*
X166862857Y-100913428D01*
X165291428Y-101770571D02*
X165434285Y-101699142D01*
X165505714Y-101627714D01*
X165577142Y-101484857D01*
X165577142Y-101056285D01*
X165505714Y-100913428D01*
X165434285Y-100842000D01*
X165291428Y-100770571D01*
X165077142Y-100770571D01*
X164934285Y-100842000D01*
X164862857Y-100913428D01*
X164791428Y-101056285D01*
X164791428Y-101484857D01*
X164862857Y-101627714D01*
X164934285Y-101699142D01*
X165077142Y-101770571D01*
X165291428Y-101770571D01*
X164220000Y-101699142D02*
X164077142Y-101770571D01*
X163791428Y-101770571D01*
X163648571Y-101699142D01*
X163577142Y-101556285D01*
X163577142Y-101484857D01*
X163648571Y-101342000D01*
X163791428Y-101270571D01*
X164005714Y-101270571D01*
X164148571Y-101199142D01*
X164220000Y-101056285D01*
X164220000Y-100984857D01*
X164148571Y-100842000D01*
X164005714Y-100770571D01*
X163791428Y-100770571D01*
X163648571Y-100842000D01*
X162934285Y-101770571D02*
X162934285Y-100270571D01*
X162434285Y-101342000D01*
X161934285Y-100270571D01*
X161934285Y-101770571D01*
X160577142Y-101770571D02*
X160577142Y-100984857D01*
X160648571Y-100842000D01*
X160791428Y-100770571D01*
X161077142Y-100770571D01*
X161220000Y-100842000D01*
X160577142Y-101699142D02*
X160720000Y-101770571D01*
X161077142Y-101770571D01*
X161220000Y-101699142D01*
X161291428Y-101556285D01*
X161291428Y-101413428D01*
X161220000Y-101270571D01*
X161077142Y-101199142D01*
X160720000Y-101199142D01*
X160577142Y-101127714D01*
X159862857Y-100770571D02*
X159862857Y-101770571D01*
X159862857Y-100913428D02*
X159791428Y-100842000D01*
X159648571Y-100770571D01*
X159434285Y-100770571D01*
X159291428Y-100842000D01*
X159220000Y-100984857D01*
X159220000Y-101770571D01*
X158505714Y-100770571D02*
X158505714Y-101770571D01*
X158505714Y-100913428D02*
X158434285Y-100842000D01*
X158291428Y-100770571D01*
X158077142Y-100770571D01*
X157934285Y-100842000D01*
X157862857Y-100984857D01*
X157862857Y-101770571D01*
X156077142Y-100199142D02*
X157362857Y-102127714D01*
X155791428Y-100770571D02*
X155220000Y-100770571D01*
X155577142Y-100270571D02*
X155577142Y-101556285D01*
X155505714Y-101699142D01*
X155362857Y-101770571D01*
X155220000Y-101770571D01*
X154077142Y-100770571D02*
X154077142Y-101984857D01*
X154148571Y-102127714D01*
X154220000Y-102199142D01*
X154362857Y-102270571D01*
X154577142Y-102270571D01*
X154720000Y-102199142D01*
X154077142Y-101699142D02*
X154220000Y-101770571D01*
X154505714Y-101770571D01*
X154648571Y-101699142D01*
X154720000Y-101627714D01*
X154791428Y-101484857D01*
X154791428Y-101056285D01*
X154720000Y-100913428D01*
X154648571Y-100842000D01*
X154505714Y-100770571D01*
X154220000Y-100770571D01*
X154077142Y-100842000D01*
X152720000Y-100770571D02*
X152720000Y-101770571D01*
X153077142Y-100199142D02*
X153434285Y-101270571D01*
X152505714Y-101270571D01*
X152077142Y-101770571D02*
X151291428Y-100770571D01*
X152077142Y-100770571D02*
X151291428Y-101770571D01*
D13*
X27051047Y-59670190D02*
X27336761Y-59670190D01*
X27193904Y-60170190D02*
X27193904Y-59670190D01*
X27455809Y-59670190D02*
X27789142Y-60170190D01*
X27789142Y-59670190D02*
X27455809Y-60170190D01*
D14*
X44600761Y-72659904D02*
X44648380Y-72564666D01*
X44648380Y-72374190D01*
X44600761Y-72278952D01*
X44553142Y-72231333D01*
X44457904Y-72183714D01*
X44172190Y-72183714D01*
X44076952Y-72231333D01*
X44029333Y-72278952D01*
X43981714Y-72374190D01*
X43981714Y-72564666D01*
X44029333Y-72659904D01*
X44076952Y-73231333D02*
X44029333Y-73136095D01*
X43981714Y-73088476D01*
X43886476Y-73040857D01*
X43838857Y-73040857D01*
X43743619Y-73088476D01*
X43696000Y-73136095D01*
X43648380Y-73231333D01*
X43648380Y-73421809D01*
X43696000Y-73517047D01*
X43743619Y-73564666D01*
X43838857Y-73612285D01*
X43886476Y-73612285D01*
X43981714Y-73564666D01*
X44029333Y-73517047D01*
X44076952Y-73421809D01*
X44076952Y-73231333D01*
X44124571Y-73136095D01*
X44172190Y-73088476D01*
X44267428Y-73040857D01*
X44457904Y-73040857D01*
X44553142Y-73088476D01*
X44600761Y-73136095D01*
X44648380Y-73231333D01*
X44648380Y-73421809D01*
X44600761Y-73517047D01*
X44553142Y-73564666D01*
X44457904Y-73612285D01*
X44267428Y-73612285D01*
X44172190Y-73564666D01*
X44124571Y-73517047D01*
X44076952Y-73421809D01*
X47140761Y-72659904D02*
X47188380Y-72564666D01*
X47188380Y-72374190D01*
X47140761Y-72278952D01*
X47093142Y-72231333D01*
X46997904Y-72183714D01*
X46712190Y-72183714D01*
X46616952Y-72231333D01*
X46569333Y-72278952D01*
X46521714Y-72374190D01*
X46521714Y-72564666D01*
X46569333Y-72659904D01*
X47188380Y-73136095D02*
X47188380Y-73326571D01*
X47140761Y-73421809D01*
X47093142Y-73469428D01*
X46950285Y-73564666D01*
X46759809Y-73612285D01*
X46378857Y-73612285D01*
X46283619Y-73564666D01*
X46236000Y-73517047D01*
X46188380Y-73421809D01*
X46188380Y-73231333D01*
X46236000Y-73136095D01*
X46283619Y-73088476D01*
X46378857Y-73040857D01*
X46616952Y-73040857D01*
X46712190Y-73088476D01*
X46759809Y-73136095D01*
X46807428Y-73231333D01*
X46807428Y-73421809D01*
X46759809Y-73517047D01*
X46712190Y-73564666D01*
X46616952Y-73612285D01*
X49680761Y-72707523D02*
X49728380Y-72612285D01*
X49728380Y-72421809D01*
X49680761Y-72326571D01*
X49633142Y-72278952D01*
X49537904Y-72231333D01*
X49252190Y-72231333D01*
X49156952Y-72278952D01*
X49109333Y-72326571D01*
X49061714Y-72421809D01*
X49061714Y-72612285D01*
X49109333Y-72707523D01*
X49442666Y-73088476D02*
X49442666Y-73564666D01*
X49728380Y-72993238D02*
X48728380Y-73326571D01*
X49728380Y-73659904D01*
X52220761Y-72636095D02*
X52268380Y-72540857D01*
X52268380Y-72350380D01*
X52220761Y-72255142D01*
X52173142Y-72207523D01*
X52077904Y-72159904D01*
X51792190Y-72159904D01*
X51696952Y-72207523D01*
X51649333Y-72255142D01*
X51601714Y-72350380D01*
X51601714Y-72540857D01*
X51649333Y-72636095D01*
X51744571Y-73398000D02*
X51792190Y-73540857D01*
X51839809Y-73588476D01*
X51935047Y-73636095D01*
X52077904Y-73636095D01*
X52173142Y-73588476D01*
X52220761Y-73540857D01*
X52268380Y-73445619D01*
X52268380Y-73064666D01*
X51268380Y-73064666D01*
X51268380Y-73398000D01*
X51316000Y-73493238D01*
X51363619Y-73540857D01*
X51458857Y-73588476D01*
X51554095Y-73588476D01*
X51649333Y-73540857D01*
X51696952Y-73493238D01*
X51744571Y-73398000D01*
X51744571Y-73064666D01*
X54760761Y-72636095D02*
X54808380Y-72540857D01*
X54808380Y-72350380D01*
X54760761Y-72255142D01*
X54713142Y-72207523D01*
X54617904Y-72159904D01*
X54332190Y-72159904D01*
X54236952Y-72207523D01*
X54189333Y-72255142D01*
X54141714Y-72350380D01*
X54141714Y-72540857D01*
X54189333Y-72636095D01*
X54713142Y-73636095D02*
X54760761Y-73588476D01*
X54808380Y-73445619D01*
X54808380Y-73350380D01*
X54760761Y-73207523D01*
X54665523Y-73112285D01*
X54570285Y-73064666D01*
X54379809Y-73017047D01*
X54236952Y-73017047D01*
X54046476Y-73064666D01*
X53951238Y-73112285D01*
X53856000Y-73207523D01*
X53808380Y-73350380D01*
X53808380Y-73445619D01*
X53856000Y-73588476D01*
X53903619Y-73636095D01*
X57348380Y-71747142D02*
X57348380Y-71270952D01*
X56348380Y-71270952D01*
X56824571Y-72080476D02*
X56824571Y-72413809D01*
X57348380Y-72556666D02*
X57348380Y-72080476D01*
X56348380Y-72080476D01*
X56348380Y-72556666D01*
X57348380Y-72985238D02*
X56348380Y-72985238D01*
X56348380Y-73223333D01*
X56396000Y-73366190D01*
X56491238Y-73461428D01*
X56586476Y-73509047D01*
X56776952Y-73556666D01*
X56919809Y-73556666D01*
X57110285Y-73509047D01*
X57205523Y-73461428D01*
X57300761Y-73366190D01*
X57348380Y-73223333D01*
X57348380Y-72985238D01*
X42108380Y-72350380D02*
X41441714Y-72350380D01*
X41632190Y-72350380D02*
X41536952Y-72398000D01*
X41489333Y-72445619D01*
X41441714Y-72540857D01*
X41441714Y-72636095D01*
X41203619Y-72921809D02*
X41156000Y-72969428D01*
X41108380Y-73064666D01*
X41108380Y-73302761D01*
X41156000Y-73398000D01*
X41203619Y-73445619D01*
X41298857Y-73493238D01*
X41394095Y-73493238D01*
X41536952Y-73445619D01*
X42108380Y-72874190D01*
X42108380Y-73493238D01*
X39568380Y-72350380D02*
X38901714Y-72350380D01*
X39092190Y-72350380D02*
X38996952Y-72398000D01*
X38949333Y-72445619D01*
X38901714Y-72540857D01*
X38901714Y-72636095D01*
X38568380Y-72874190D02*
X38568380Y-73493238D01*
X38949333Y-73159904D01*
X38949333Y-73302761D01*
X38996952Y-73398000D01*
X39044571Y-73445619D01*
X39139809Y-73493238D01*
X39377904Y-73493238D01*
X39473142Y-73445619D01*
X39520761Y-73398000D01*
X39568380Y-73302761D01*
X39568380Y-73017047D01*
X39520761Y-72921809D01*
X39473142Y-72874190D01*
X36028380Y-71056666D02*
X37028380Y-71390000D01*
X36028380Y-71723333D01*
X36933142Y-72628095D02*
X36980761Y-72580476D01*
X37028380Y-72437619D01*
X37028380Y-72342380D01*
X36980761Y-72199523D01*
X36885523Y-72104285D01*
X36790285Y-72056666D01*
X36599809Y-72009047D01*
X36456952Y-72009047D01*
X36266476Y-72056666D01*
X36171238Y-72104285D01*
X36076000Y-72199523D01*
X36028380Y-72342380D01*
X36028380Y-72437619D01*
X36076000Y-72580476D01*
X36123619Y-72628095D01*
X36933142Y-73628095D02*
X36980761Y-73580476D01*
X37028380Y-73437619D01*
X37028380Y-73342380D01*
X36980761Y-73199523D01*
X36885523Y-73104285D01*
X36790285Y-73056666D01*
X36599809Y-73009047D01*
X36456952Y-73009047D01*
X36266476Y-73056666D01*
X36171238Y-73104285D01*
X36076000Y-73199523D01*
X36028380Y-73342380D01*
X36028380Y-73437619D01*
X36076000Y-73580476D01*
X36123619Y-73628095D01*
X34488380Y-71842380D02*
X34012190Y-71509047D01*
X34488380Y-71270952D02*
X33488380Y-71270952D01*
X33488380Y-71651904D01*
X33536000Y-71747142D01*
X33583619Y-71794761D01*
X33678857Y-71842380D01*
X33821714Y-71842380D01*
X33916952Y-71794761D01*
X33964571Y-71747142D01*
X34012190Y-71651904D01*
X34012190Y-71270952D01*
X34440761Y-72223333D02*
X34488380Y-72366190D01*
X34488380Y-72604285D01*
X34440761Y-72699523D01*
X34393142Y-72747142D01*
X34297904Y-72794761D01*
X34202666Y-72794761D01*
X34107428Y-72747142D01*
X34059809Y-72699523D01*
X34012190Y-72604285D01*
X33964571Y-72413809D01*
X33916952Y-72318571D01*
X33869333Y-72270952D01*
X33774095Y-72223333D01*
X33678857Y-72223333D01*
X33583619Y-72270952D01*
X33536000Y-72318571D01*
X33488380Y-72413809D01*
X33488380Y-72651904D01*
X33536000Y-72794761D01*
X33488380Y-73080476D02*
X33488380Y-73651904D01*
X34488380Y-73366190D02*
X33488380Y-73366190D01*
X30996000Y-71628095D02*
X30948380Y-71532857D01*
X30948380Y-71390000D01*
X30996000Y-71247142D01*
X31091238Y-71151904D01*
X31186476Y-71104285D01*
X31376952Y-71056666D01*
X31519809Y-71056666D01*
X31710285Y-71104285D01*
X31805523Y-71151904D01*
X31900761Y-71247142D01*
X31948380Y-71390000D01*
X31948380Y-71485238D01*
X31900761Y-71628095D01*
X31853142Y-71675714D01*
X31519809Y-71675714D01*
X31519809Y-71485238D01*
X31948380Y-72104285D02*
X30948380Y-72104285D01*
X31948380Y-72675714D01*
X30948380Y-72675714D01*
X31948380Y-73151904D02*
X30948380Y-73151904D01*
X30948380Y-73390000D01*
X30996000Y-73532857D01*
X31091238Y-73628095D01*
X31186476Y-73675714D01*
X31376952Y-73723333D01*
X31519809Y-73723333D01*
X31710285Y-73675714D01*
X31805523Y-73628095D01*
X31900761Y-73532857D01*
X31948380Y-73390000D01*
X31948380Y-73151904D01*
X29408380Y-71699523D02*
X28932190Y-71366190D01*
X29408380Y-71128095D02*
X28408380Y-71128095D01*
X28408380Y-71509047D01*
X28456000Y-71604285D01*
X28503619Y-71651904D01*
X28598857Y-71699523D01*
X28741714Y-71699523D01*
X28836952Y-71651904D01*
X28884571Y-71604285D01*
X28932190Y-71509047D01*
X28932190Y-71128095D01*
X29122666Y-72080476D02*
X29122666Y-72556666D01*
X29408380Y-71985238D02*
X28408380Y-72318571D01*
X29408380Y-72651904D01*
X28408380Y-72890000D02*
X29408380Y-73128095D01*
X28694095Y-73318571D01*
X29408380Y-73509047D01*
X28408380Y-73747142D01*
X57300761Y-57165904D02*
X57348380Y-57070666D01*
X57348380Y-56880190D01*
X57300761Y-56784952D01*
X57253142Y-56737333D01*
X57157904Y-56689714D01*
X56872190Y-56689714D01*
X56776952Y-56737333D01*
X56729333Y-56784952D01*
X56681714Y-56880190D01*
X56681714Y-57070666D01*
X56729333Y-57165904D01*
X56348380Y-57784952D02*
X56348380Y-57880190D01*
X56396000Y-57975428D01*
X56443619Y-58023047D01*
X56538857Y-58070666D01*
X56729333Y-58118285D01*
X56967428Y-58118285D01*
X57157904Y-58070666D01*
X57253142Y-58023047D01*
X57300761Y-57975428D01*
X57348380Y-57880190D01*
X57348380Y-57784952D01*
X57300761Y-57689714D01*
X57253142Y-57642095D01*
X57157904Y-57594476D01*
X56967428Y-57546857D01*
X56729333Y-57546857D01*
X56538857Y-57594476D01*
X56443619Y-57642095D01*
X56396000Y-57689714D01*
X56348380Y-57784952D01*
X54760761Y-57165904D02*
X54808380Y-57070666D01*
X54808380Y-56880190D01*
X54760761Y-56784952D01*
X54713142Y-56737333D01*
X54617904Y-56689714D01*
X54332190Y-56689714D01*
X54236952Y-56737333D01*
X54189333Y-56784952D01*
X54141714Y-56880190D01*
X54141714Y-57070666D01*
X54189333Y-57165904D01*
X54808380Y-58118285D02*
X54808380Y-57546857D01*
X54808380Y-57832571D02*
X53808380Y-57832571D01*
X53951238Y-57737333D01*
X54046476Y-57642095D01*
X54094095Y-57546857D01*
X52220761Y-57165904D02*
X52268380Y-57070666D01*
X52268380Y-56880190D01*
X52220761Y-56784952D01*
X52173142Y-56737333D01*
X52077904Y-56689714D01*
X51792190Y-56689714D01*
X51696952Y-56737333D01*
X51649333Y-56784952D01*
X51601714Y-56880190D01*
X51601714Y-57070666D01*
X51649333Y-57165904D01*
X51363619Y-57546857D02*
X51316000Y-57594476D01*
X51268380Y-57689714D01*
X51268380Y-57927809D01*
X51316000Y-58023047D01*
X51363619Y-58070666D01*
X51458857Y-58118285D01*
X51554095Y-58118285D01*
X51696952Y-58070666D01*
X52268380Y-57499238D01*
X52268380Y-58118285D01*
X49680761Y-57165904D02*
X49728380Y-57070666D01*
X49728380Y-56880190D01*
X49680761Y-56784952D01*
X49633142Y-56737333D01*
X49537904Y-56689714D01*
X49252190Y-56689714D01*
X49156952Y-56737333D01*
X49109333Y-56784952D01*
X49061714Y-56880190D01*
X49061714Y-57070666D01*
X49109333Y-57165904D01*
X48728380Y-57499238D02*
X48728380Y-58118285D01*
X49109333Y-57784952D01*
X49109333Y-57927809D01*
X49156952Y-58023047D01*
X49204571Y-58070666D01*
X49299809Y-58118285D01*
X49537904Y-58118285D01*
X49633142Y-58070666D01*
X49680761Y-58023047D01*
X49728380Y-57927809D01*
X49728380Y-57642095D01*
X49680761Y-57546857D01*
X49633142Y-57499238D01*
X47140761Y-57165904D02*
X47188380Y-57070666D01*
X47188380Y-56880190D01*
X47140761Y-56784952D01*
X47093142Y-56737333D01*
X46997904Y-56689714D01*
X46712190Y-56689714D01*
X46616952Y-56737333D01*
X46569333Y-56784952D01*
X46521714Y-56880190D01*
X46521714Y-57070666D01*
X46569333Y-57165904D01*
X46521714Y-58023047D02*
X47188380Y-58023047D01*
X46140761Y-57784952D02*
X46855047Y-57546857D01*
X46855047Y-58165904D01*
X44600761Y-57165904D02*
X44648380Y-57070666D01*
X44648380Y-56880190D01*
X44600761Y-56784952D01*
X44553142Y-56737333D01*
X44457904Y-56689714D01*
X44172190Y-56689714D01*
X44076952Y-56737333D01*
X44029333Y-56784952D01*
X43981714Y-56880190D01*
X43981714Y-57070666D01*
X44029333Y-57165904D01*
X43648380Y-58070666D02*
X43648380Y-57594476D01*
X44124571Y-57546857D01*
X44076952Y-57594476D01*
X44029333Y-57689714D01*
X44029333Y-57927809D01*
X44076952Y-58023047D01*
X44124571Y-58070666D01*
X44219809Y-58118285D01*
X44457904Y-58118285D01*
X44553142Y-58070666D01*
X44600761Y-58023047D01*
X44648380Y-57927809D01*
X44648380Y-57689714D01*
X44600761Y-57594476D01*
X44553142Y-57546857D01*
X42060761Y-57165904D02*
X42108380Y-57070666D01*
X42108380Y-56880190D01*
X42060761Y-56784952D01*
X42013142Y-56737333D01*
X41917904Y-56689714D01*
X41632190Y-56689714D01*
X41536952Y-56737333D01*
X41489333Y-56784952D01*
X41441714Y-56880190D01*
X41441714Y-57070666D01*
X41489333Y-57165904D01*
X41108380Y-58023047D02*
X41108380Y-57832571D01*
X41156000Y-57737333D01*
X41203619Y-57689714D01*
X41346476Y-57594476D01*
X41536952Y-57546857D01*
X41917904Y-57546857D01*
X42013142Y-57594476D01*
X42060761Y-57642095D01*
X42108380Y-57737333D01*
X42108380Y-57927809D01*
X42060761Y-58023047D01*
X42013142Y-58070666D01*
X41917904Y-58118285D01*
X41679809Y-58118285D01*
X41584571Y-58070666D01*
X41536952Y-58023047D01*
X41489333Y-57927809D01*
X41489333Y-57737333D01*
X41536952Y-57642095D01*
X41584571Y-57594476D01*
X41679809Y-57546857D01*
X39568380Y-56856380D02*
X38901714Y-56856380D01*
X39092190Y-56856380D02*
X38996952Y-56904000D01*
X38949333Y-56951619D01*
X38901714Y-57046857D01*
X38901714Y-57142095D01*
X38663619Y-57427809D02*
X38616000Y-57475428D01*
X38568380Y-57570666D01*
X38568380Y-57808761D01*
X38616000Y-57904000D01*
X38663619Y-57951619D01*
X38758857Y-57999238D01*
X38854095Y-57999238D01*
X38996952Y-57951619D01*
X39568380Y-57380190D01*
X39568380Y-57999238D01*
X36076000Y-56134095D02*
X36028380Y-56038857D01*
X36028380Y-55896000D01*
X36076000Y-55753142D01*
X36171238Y-55657904D01*
X36266476Y-55610285D01*
X36456952Y-55562666D01*
X36599809Y-55562666D01*
X36790285Y-55610285D01*
X36885523Y-55657904D01*
X36980761Y-55753142D01*
X37028380Y-55896000D01*
X37028380Y-55991238D01*
X36980761Y-56134095D01*
X36933142Y-56181714D01*
X36599809Y-56181714D01*
X36599809Y-55991238D01*
X37028380Y-56610285D02*
X36028380Y-56610285D01*
X37028380Y-57181714D01*
X36028380Y-57181714D01*
X37028380Y-57657904D02*
X36028380Y-57657904D01*
X36028380Y-57896000D01*
X36076000Y-58038857D01*
X36171238Y-58134095D01*
X36266476Y-58181714D01*
X36456952Y-58229333D01*
X36599809Y-58229333D01*
X36790285Y-58181714D01*
X36885523Y-58134095D01*
X36980761Y-58038857D01*
X37028380Y-57896000D01*
X37028380Y-57657904D01*
X33536000Y-56134095D02*
X33488380Y-56038857D01*
X33488380Y-55896000D01*
X33536000Y-55753142D01*
X33631238Y-55657904D01*
X33726476Y-55610285D01*
X33916952Y-55562666D01*
X34059809Y-55562666D01*
X34250285Y-55610285D01*
X34345523Y-55657904D01*
X34440761Y-55753142D01*
X34488380Y-55896000D01*
X34488380Y-55991238D01*
X34440761Y-56134095D01*
X34393142Y-56181714D01*
X34059809Y-56181714D01*
X34059809Y-55991238D01*
X34488380Y-56610285D02*
X33488380Y-56610285D01*
X34488380Y-57181714D01*
X33488380Y-57181714D01*
X34488380Y-57657904D02*
X33488380Y-57657904D01*
X33488380Y-57896000D01*
X33536000Y-58038857D01*
X33631238Y-58134095D01*
X33726476Y-58181714D01*
X33916952Y-58229333D01*
X34059809Y-58229333D01*
X34250285Y-58181714D01*
X34345523Y-58134095D01*
X34440761Y-58038857D01*
X34488380Y-57896000D01*
X34488380Y-57657904D01*
X31900761Y-57165904D02*
X31948380Y-57070666D01*
X31948380Y-56880190D01*
X31900761Y-56784952D01*
X31853142Y-56737333D01*
X31757904Y-56689714D01*
X31472190Y-56689714D01*
X31376952Y-56737333D01*
X31329333Y-56784952D01*
X31281714Y-56880190D01*
X31281714Y-57070666D01*
X31329333Y-57165904D01*
X30948380Y-57499238D02*
X30948380Y-58165904D01*
X31948380Y-57737333D01*
X29408380Y-56856380D02*
X28741714Y-56856380D01*
X28932190Y-56856380D02*
X28836952Y-56904000D01*
X28789333Y-56951619D01*
X28741714Y-57046857D01*
X28741714Y-57142095D01*
X28408380Y-57665904D02*
X28408380Y-57761142D01*
X28456000Y-57856380D01*
X28503619Y-57904000D01*
X28598857Y-57951619D01*
X28789333Y-57999238D01*
X29027428Y-57999238D01*
X29217904Y-57951619D01*
X29313142Y-57904000D01*
X29360761Y-57856380D01*
X29408380Y-57761142D01*
X29408380Y-57665904D01*
X29360761Y-57570666D01*
X29313142Y-57523047D01*
X29217904Y-57475428D01*
X29027428Y-57427809D01*
X28789333Y-57427809D01*
X28598857Y-57475428D01*
X28503619Y-57523047D01*
X28456000Y-57570666D01*
X28408380Y-57665904D01*
D10*
X54102000Y-42164000D02*
X53594000Y-41656000D01*
X53086000Y-42164000D02*
X54102000Y-42164000D01*
X53594000Y-41656000D02*
X53086000Y-42164000D01*
X53594000Y-48260000D02*
X53594000Y-41656000D01*
X58420000Y-67310000D02*
X53594000Y-48260000D01*
X73406000Y-42164000D02*
X72898000Y-41656000D01*
X72390000Y-42164000D02*
X73406000Y-42164000D01*
X72898000Y-41656000D02*
X72390000Y-42164000D01*
X72898000Y-48260000D02*
X72898000Y-41656000D01*
X77470000Y-67310000D02*
X72898000Y-48260000D01*
X87122000Y-86360000D02*
X77470000Y-67310000D01*
X72644000Y-105410000D02*
X87122000Y-86360000D01*
X92202000Y-41910000D02*
X91694000Y-41402000D01*
X91186000Y-41910000D02*
X92202000Y-41910000D01*
X91694000Y-41402000D02*
X91186000Y-41910000D01*
X91694000Y-48260000D02*
X91694000Y-41402000D01*
X106172000Y-86360000D02*
X96520000Y-67310000D01*
X115570000Y-67310000D02*
X124968000Y-86360000D01*
X110744000Y-48260000D02*
X115570000Y-67310000D01*
X110744000Y-41656000D02*
X110744000Y-48260000D01*
X111252000Y-42164000D02*
X110744000Y-41656000D01*
X110236000Y-42164000D02*
X111252000Y-42164000D01*
X110744000Y-41656000D02*
X110236000Y-42164000D01*
X130302000Y-42164000D02*
X129794000Y-41656000D01*
X129286000Y-42164000D02*
X130302000Y-42164000D01*
X129794000Y-41656000D02*
X129286000Y-42164000D01*
X129794000Y-48260000D02*
X129794000Y-41656000D01*
X134620000Y-67310000D02*
X129794000Y-48260000D01*
X144272000Y-86360000D02*
X134620000Y-67310000D01*
X138938000Y-105410000D02*
X144272000Y-86360000D01*
X153670000Y-67310000D02*
X163322000Y-86360000D01*
X148844000Y-48260000D02*
X153670000Y-67310000D01*
X148844000Y-42164000D02*
X148844000Y-48260000D01*
X148336000Y-42164000D02*
X148844000Y-42164000D01*
X148844000Y-41656000D02*
X148336000Y-42164000D01*
X149352000Y-42164000D02*
X148844000Y-41656000D01*
X148336000Y-42164000D02*
X149352000Y-42164000D01*
X168402000Y-42164000D02*
X167894000Y-41656000D01*
X167386000Y-42164000D02*
X168402000Y-42164000D01*
X167894000Y-41656000D02*
X167386000Y-42164000D01*
X167894000Y-48260000D02*
X167894000Y-41656000D01*
X172720000Y-67310000D02*
X167894000Y-48260000D01*
X182118000Y-86360000D02*
X172720000Y-67310000D01*
X201422000Y-86614000D02*
X205994000Y-105410000D01*
X191770000Y-67310000D02*
X201422000Y-86614000D01*
X186944000Y-48260000D02*
X191770000Y-67310000D01*
X186944000Y-41656000D02*
X186944000Y-48260000D01*
X187452000Y-42164000D02*
X186944000Y-41656000D01*
X186436000Y-42164000D02*
X187452000Y-42164000D01*
X186944000Y-41656000D02*
X186436000Y-42164000D01*
X206502000Y-42164000D02*
X205994000Y-41656000D01*
X205486000Y-42164000D02*
X206502000Y-42164000D01*
X205994000Y-41656000D02*
X205486000Y-42164000D01*
X205994000Y-48260000D02*
X205994000Y-41656000D01*
X210820000Y-67310000D02*
X205994000Y-48260000D01*
X220218000Y-86360000D02*
X210820000Y-67310000D01*
X225044000Y-105410000D02*
X220218000Y-86360000D01*
X239522000Y-86614000D02*
X244094000Y-105410000D01*
X225552000Y-42164000D02*
X225044000Y-41656000D01*
X224536000Y-42164000D02*
X225552000Y-42164000D01*
X225044000Y-41656000D02*
X224536000Y-42164000D01*
X225044000Y-48260000D02*
X225044000Y-41656000D01*
X229870000Y-67564000D02*
X225044000Y-48260000D01*
X239522000Y-86614000D02*
X229870000Y-67564000D01*
X260858000Y-86360000D02*
X239268000Y-86360000D01*
X110490000Y-86360000D02*
X260858000Y-86360000D01*
X30734000Y-86360000D02*
X41656000Y-86360000D01*
X30734000Y-85852000D02*
X30734000Y-86360000D01*
X30226000Y-86360000D02*
X30734000Y-85852000D01*
X30734000Y-86868000D02*
X30226000Y-86360000D01*
X30734000Y-85852000D02*
X30734000Y-86868000D01*
X30734000Y-67818000D02*
X30226000Y-67310000D01*
X30734000Y-66802000D02*
X30734000Y-67818000D01*
X30226000Y-67310000D02*
X30734000Y-66802000D01*
X256032000Y-67310000D02*
X30226000Y-67310000D01*
X244602000Y-42164000D02*
X244094000Y-41656000D01*
X243586000Y-42164000D02*
X244602000Y-42164000D01*
X244094000Y-41656000D02*
X243586000Y-42164000D01*
X244094000Y-48260000D02*
X244094000Y-41656000D01*
X256032000Y-67310000D02*
X244094000Y-48260000D01*
X260858000Y-86360000D02*
X256032000Y-67310000D01*
X263398000Y-105410000D02*
X260858000Y-86360000D01*
X53594000Y-105410000D02*
X263398000Y-105410000D01*
X30226000Y-105410000D02*
X53594000Y-105410000D01*
X30734000Y-105918000D02*
X30226000Y-105410000D01*
X30734000Y-104902000D02*
X30734000Y-105918000D01*
X30226000Y-105410000D02*
X30734000Y-104902000D01*
X34544000Y-105410000D02*
X30226000Y-105410000D01*
X41656000Y-86360000D02*
X34544000Y-105410000D01*
X36830000Y-67310000D02*
X41656000Y-86360000D01*
X34544000Y-48260000D02*
X36830000Y-67310000D01*
X34544000Y-41656000D02*
X34544000Y-48260000D01*
X35052000Y-42164000D02*
X34544000Y-41656000D01*
X34036000Y-42164000D02*
X35052000Y-42164000D01*
X34544000Y-41656000D02*
X34036000Y-42164000D01*
X34544000Y-48260000D02*
X34544000Y-41656000D01*
X30734000Y-48260000D02*
X34544000Y-48260000D01*
X30734000Y-48768000D02*
X30734000Y-48260000D01*
X30226000Y-48260000D02*
X30734000Y-48768000D01*
X30734000Y-47752000D02*
X30226000Y-48260000D01*
X30734000Y-48260000D02*
X30734000Y-47752000D01*
X263144000Y-41656000D02*
X263144000Y-48260000D01*
X263652000Y-42164000D02*
X263144000Y-41656000D01*
X262636000Y-42164000D02*
X263652000Y-42164000D01*
X263144000Y-41656000D02*
X262636000Y-42164000D01*
D11*
X263652000Y-42164000D02*
X263144000Y-41656000D01*
X262636000Y-42164000D02*
X263652000Y-42164000D01*
X263144000Y-41656000D02*
X262636000Y-42164000D01*
X244602000Y-42164000D02*
X244094000Y-41656000D01*
X243586000Y-42164000D02*
X244602000Y-42164000D01*
X244094000Y-41656000D02*
X243586000Y-42164000D01*
X225552000Y-42164000D02*
X225044000Y-41656000D01*
X224536000Y-42164000D02*
X225552000Y-42164000D01*
X225044000Y-41656000D02*
X224536000Y-42164000D01*
X206502000Y-42164000D02*
X205994000Y-41656000D01*
X205486000Y-42164000D02*
X206502000Y-42164000D01*
X205994000Y-41656000D02*
X205486000Y-42164000D01*
X187452000Y-42164000D02*
X186944000Y-41656000D01*
X186436000Y-42164000D02*
X187452000Y-42164000D01*
X186944000Y-41656000D02*
X186436000Y-42164000D01*
X168402000Y-42164000D02*
X167894000Y-41656000D01*
X167386000Y-42164000D02*
X168402000Y-42164000D01*
X167894000Y-41656000D02*
X167386000Y-42164000D01*
X149352000Y-42164000D02*
X148844000Y-41656000D01*
X148336000Y-42164000D02*
X149352000Y-42164000D01*
X148844000Y-41656000D02*
X148336000Y-42164000D01*
X130302000Y-42164000D02*
X129794000Y-41656000D01*
X129286000Y-42164000D02*
X130302000Y-42164000D01*
X129794000Y-41656000D02*
X129286000Y-42164000D01*
X111252000Y-42164000D02*
X110744000Y-41656000D01*
X110236000Y-42164000D02*
X111252000Y-42164000D01*
X110744000Y-41656000D02*
X110236000Y-42164000D01*
X92202000Y-41910000D02*
X91694000Y-41402000D01*
X91186000Y-41910000D02*
X92202000Y-41910000D01*
X91694000Y-41402000D02*
X91186000Y-41910000D01*
X73406000Y-42164000D02*
X72898000Y-41656000D01*
X72390000Y-42164000D02*
X73406000Y-42164000D01*
X72898000Y-41656000D02*
X72390000Y-42164000D01*
X54102000Y-42164000D02*
X53594000Y-41656000D01*
X53086000Y-42164000D02*
X54102000Y-42164000D01*
X53594000Y-41656000D02*
X53086000Y-42164000D01*
X35052000Y-42164000D02*
X34544000Y-41656000D01*
X34036000Y-42164000D02*
X35052000Y-42164000D01*
X34544000Y-41656000D02*
X34036000Y-42164000D01*
X30734000Y-48768000D02*
X30226000Y-48260000D01*
X30734000Y-47752000D02*
X30734000Y-48768000D01*
X30226000Y-48260000D02*
X30734000Y-47752000D01*
X30734000Y-105918000D02*
X30226000Y-105410000D01*
X30734000Y-104902000D02*
X30734000Y-105918000D01*
X30226000Y-105410000D02*
X30734000Y-104902000D01*
X34544000Y-105410000D02*
X30226000Y-105410000D01*
X30734000Y-86868000D02*
X30226000Y-86360000D01*
X30734000Y-85852000D02*
X30734000Y-86868000D01*
X30226000Y-86360000D02*
X30734000Y-85852000D01*
X41656000Y-86360000D02*
X30226000Y-86360000D01*
X30734000Y-67818000D02*
X30226000Y-67310000D01*
X30734000Y-66802000D02*
X30734000Y-67818000D01*
X30226000Y-67310000D02*
X30734000Y-66802000D01*
X36830000Y-67310000D02*
X30226000Y-67310000D01*
X36830000Y-67310000D02*
X256032000Y-67310000D01*
X30226000Y-48260000D02*
X263144000Y-48260000D01*
X41656000Y-86360000D02*
X34544000Y-105410000D01*
X36830000Y-67310000D02*
X41656000Y-86360000D01*
X34544000Y-48260000D02*
X36830000Y-67310000D01*
X34544000Y-41656000D02*
X34544000Y-48260000D01*
X53594000Y-48514000D02*
X53594000Y-41656000D01*
X72898000Y-48514000D02*
X72898000Y-41656000D01*
X53594000Y-48514000D02*
X58420000Y-67310000D01*
X87122000Y-86360000D02*
X72644000Y-105410000D01*
X77470000Y-67310000D02*
X87122000Y-86360000D01*
X72898000Y-48514000D02*
X77470000Y-67310000D01*
X115570000Y-67564000D02*
X124968000Y-86360000D01*
X110744000Y-48514000D02*
X115570000Y-67564000D01*
X110744000Y-41656000D02*
X110744000Y-48514000D01*
X144272000Y-86614000D02*
X138938000Y-105664000D01*
X134620000Y-67564000D02*
X144272000Y-86614000D01*
X129794000Y-48514000D02*
X134620000Y-67564000D01*
X129794000Y-41656000D02*
X129794000Y-48514000D01*
X148844000Y-48260000D02*
X153670000Y-67310000D01*
X148844000Y-41656000D02*
X148844000Y-48260000D01*
X148844000Y-48260000D02*
X148844000Y-41656000D01*
X167894000Y-48260000D02*
X172720000Y-67564000D01*
X167894000Y-41656000D02*
X167894000Y-48260000D01*
X167894000Y-48260000D02*
X167894000Y-41656000D01*
X201422000Y-86614000D02*
X205994000Y-105410000D01*
X191770000Y-67310000D02*
X201422000Y-86614000D01*
X186944000Y-48260000D02*
X191770000Y-67310000D01*
X186944000Y-48260000D02*
X186944000Y-41656000D01*
X220218000Y-86360000D02*
X225044000Y-105410000D01*
X210820000Y-67310000D02*
X220218000Y-86360000D01*
X205994000Y-48260000D02*
X210820000Y-67310000D01*
X205994000Y-48260000D02*
X205994000Y-41656000D01*
X239522000Y-86614000D02*
X244094000Y-105410000D01*
X229870000Y-67564000D02*
X239522000Y-86614000D01*
X225044000Y-48514000D02*
X229870000Y-67564000D01*
X225044000Y-41656000D02*
X225044000Y-48514000D01*
X256159000Y-67437000D02*
X260985000Y-86487000D01*
X244094000Y-48514000D02*
X256159000Y-67437000D01*
X244094000Y-41656000D02*
X244094000Y-48514000D01*
D12*
X28864571Y-106464571D02*
X29364571Y-105750285D01*
X29721714Y-106464571D02*
X29721714Y-104964571D01*
X29150285Y-104964571D01*
X29007428Y-105036000D01*
X28936000Y-105107428D01*
X28864571Y-105250285D01*
X28864571Y-105464571D01*
X28936000Y-105607428D01*
X29007428Y-105678857D01*
X29150285Y-105750285D01*
X29721714Y-105750285D01*
X27936000Y-104964571D02*
X27650285Y-104964571D01*
X27507428Y-105036000D01*
X27364571Y-105178857D01*
X27293142Y-105464571D01*
X27293142Y-105964571D01*
X27364571Y-106250285D01*
X27507428Y-106393142D01*
X27650285Y-106464571D01*
X27936000Y-106464571D01*
X28078857Y-106393142D01*
X28221714Y-106250285D01*
X28293142Y-105964571D01*
X28293142Y-105464571D01*
X28221714Y-105178857D01*
X28078857Y-105036000D01*
X27936000Y-104964571D01*
X26793142Y-104964571D02*
X26436000Y-106464571D01*
X26150285Y-105393142D01*
X25864571Y-106464571D01*
X25507428Y-104964571D01*
X26471714Y-107514571D02*
X25543142Y-107514571D01*
X26043142Y-108086000D01*
X25828857Y-108086000D01*
X25686000Y-108157428D01*
X25614571Y-108228857D01*
X25543142Y-108371714D01*
X25543142Y-108728857D01*
X25614571Y-108871714D01*
X25686000Y-108943142D01*
X25828857Y-109014571D01*
X26257428Y-109014571D01*
X26400285Y-108943142D01*
X26471714Y-108871714D01*
X28864571Y-87541571D02*
X29364571Y-86827285D01*
X29721714Y-87541571D02*
X29721714Y-86041571D01*
X29150285Y-86041571D01*
X29007428Y-86113000D01*
X28936000Y-86184428D01*
X28864571Y-86327285D01*
X28864571Y-86541571D01*
X28936000Y-86684428D01*
X29007428Y-86755857D01*
X29150285Y-86827285D01*
X29721714Y-86827285D01*
X27936000Y-86041571D02*
X27650285Y-86041571D01*
X27507428Y-86113000D01*
X27364571Y-86255857D01*
X27293142Y-86541571D01*
X27293142Y-87041571D01*
X27364571Y-87327285D01*
X27507428Y-87470142D01*
X27650285Y-87541571D01*
X27936000Y-87541571D01*
X28078857Y-87470142D01*
X28221714Y-87327285D01*
X28293142Y-87041571D01*
X28293142Y-86541571D01*
X28221714Y-86255857D01*
X28078857Y-86113000D01*
X27936000Y-86041571D01*
X26793142Y-86041571D02*
X26436000Y-87541571D01*
X26150285Y-86470142D01*
X25864571Y-87541571D01*
X25507428Y-86041571D01*
X26400285Y-88734428D02*
X26328857Y-88663000D01*
X26186000Y-88591571D01*
X25828857Y-88591571D01*
X25686000Y-88663000D01*
X25614571Y-88734428D01*
X25543142Y-88877285D01*
X25543142Y-89020142D01*
X25614571Y-89234428D01*
X26471714Y-90091571D01*
X25543142Y-90091571D01*
X28864571Y-68364571D02*
X29364571Y-67650285D01*
X29721714Y-68364571D02*
X29721714Y-66864571D01*
X29150285Y-66864571D01*
X29007428Y-66936000D01*
X28936000Y-67007428D01*
X28864571Y-67150285D01*
X28864571Y-67364571D01*
X28936000Y-67507428D01*
X29007428Y-67578857D01*
X29150285Y-67650285D01*
X29721714Y-67650285D01*
X27936000Y-66864571D02*
X27650285Y-66864571D01*
X27507428Y-66936000D01*
X27364571Y-67078857D01*
X27293142Y-67364571D01*
X27293142Y-67864571D01*
X27364571Y-68150285D01*
X27507428Y-68293142D01*
X27650285Y-68364571D01*
X27936000Y-68364571D01*
X28078857Y-68293142D01*
X28221714Y-68150285D01*
X28293142Y-67864571D01*
X28293142Y-67364571D01*
X28221714Y-67078857D01*
X28078857Y-66936000D01*
X27936000Y-66864571D01*
X26793142Y-66864571D02*
X26436000Y-68364571D01*
X26150285Y-67293142D01*
X25864571Y-68364571D01*
X25507428Y-66864571D01*
X25543142Y-70914571D02*
X26400285Y-70914571D01*
X25971714Y-70914571D02*
X25971714Y-69414571D01*
X26114571Y-69628857D01*
X26257428Y-69771714D01*
X26400285Y-69843142D01*
X28864571Y-49441571D02*
X29364571Y-48727285D01*
X29721714Y-49441571D02*
X29721714Y-47941571D01*
X29150285Y-47941571D01*
X29007428Y-48013000D01*
X28936000Y-48084428D01*
X28864571Y-48227285D01*
X28864571Y-48441571D01*
X28936000Y-48584428D01*
X29007428Y-48655857D01*
X29150285Y-48727285D01*
X29721714Y-48727285D01*
X27936000Y-47941571D02*
X27650285Y-47941571D01*
X27507428Y-48013000D01*
X27364571Y-48155857D01*
X27293142Y-48441571D01*
X27293142Y-48941571D01*
X27364571Y-49227285D01*
X27507428Y-49370142D01*
X27650285Y-49441571D01*
X27936000Y-49441571D01*
X28078857Y-49370142D01*
X28221714Y-49227285D01*
X28293142Y-48941571D01*
X28293142Y-48441571D01*
X28221714Y-48155857D01*
X28078857Y-48013000D01*
X27936000Y-47941571D01*
X26793142Y-47941571D02*
X26436000Y-49441571D01*
X26150285Y-48370142D01*
X25864571Y-49441571D01*
X25507428Y-47941571D01*
X26043142Y-50491571D02*
X25900285Y-50491571D01*
X25757428Y-50563000D01*
X25686000Y-50634428D01*
X25614571Y-50777285D01*
X25543142Y-51063000D01*
X25543142Y-51420142D01*
X25614571Y-51705857D01*
X25686000Y-51848714D01*
X25757428Y-51920142D01*
X25900285Y-51991571D01*
X26043142Y-51991571D01*
X26186000Y-51920142D01*
X26257428Y-51848714D01*
X26328857Y-51705857D01*
X26400285Y-51420142D01*
X26400285Y-51063000D01*
X26328857Y-50777285D01*
X26257428Y-50634428D01*
X26186000Y-50563000D01*
X26043142Y-50491571D01*
X265394000Y-41175714D02*
X265465428Y-41247142D01*
X265679714Y-41318571D01*
X265822571Y-41318571D01*
X266036857Y-41247142D01*
X266179714Y-41104285D01*
X266251142Y-40961428D01*
X266322571Y-40675714D01*
X266322571Y-40461428D01*
X266251142Y-40175714D01*
X266179714Y-40032857D01*
X266036857Y-39890000D01*
X265822571Y-39818571D01*
X265679714Y-39818571D01*
X265465428Y-39890000D01*
X265394000Y-39961428D01*
X264465428Y-39818571D02*
X264179714Y-39818571D01*
X264036857Y-39890000D01*
X263894000Y-40032857D01*
X263822571Y-40318571D01*
X263822571Y-40818571D01*
X263894000Y-41104285D01*
X264036857Y-41247142D01*
X264179714Y-41318571D01*
X264465428Y-41318571D01*
X264608285Y-41247142D01*
X264751142Y-41104285D01*
X264822571Y-40818571D01*
X264822571Y-40318571D01*
X264751142Y-40032857D01*
X264608285Y-39890000D01*
X264465428Y-39818571D01*
X262465428Y-41318571D02*
X263179714Y-41318571D01*
X263179714Y-39818571D01*
X259965428Y-41175714D02*
X260036857Y-41247142D01*
X260251142Y-41318571D01*
X260394000Y-41318571D01*
X260608285Y-41247142D01*
X260751142Y-41104285D01*
X260822571Y-40961428D01*
X260894000Y-40675714D01*
X260894000Y-40461428D01*
X260822571Y-40175714D01*
X260751142Y-40032857D01*
X260608285Y-39890000D01*
X260394000Y-39818571D01*
X260251142Y-39818571D01*
X260036857Y-39890000D01*
X259965428Y-39961428D01*
X246217000Y-41175714D02*
X246288428Y-41247142D01*
X246502714Y-41318571D01*
X246645571Y-41318571D01*
X246859857Y-41247142D01*
X247002714Y-41104285D01*
X247074142Y-40961428D01*
X247145571Y-40675714D01*
X247145571Y-40461428D01*
X247074142Y-40175714D01*
X247002714Y-40032857D01*
X246859857Y-39890000D01*
X246645571Y-39818571D01*
X246502714Y-39818571D01*
X246288428Y-39890000D01*
X246217000Y-39961428D01*
X245288428Y-39818571D02*
X245002714Y-39818571D01*
X244859857Y-39890000D01*
X244717000Y-40032857D01*
X244645571Y-40318571D01*
X244645571Y-40818571D01*
X244717000Y-41104285D01*
X244859857Y-41247142D01*
X245002714Y-41318571D01*
X245288428Y-41318571D01*
X245431285Y-41247142D01*
X245574142Y-41104285D01*
X245645571Y-40818571D01*
X245645571Y-40318571D01*
X245574142Y-40032857D01*
X245431285Y-39890000D01*
X245288428Y-39818571D01*
X243288428Y-41318571D02*
X244002714Y-41318571D01*
X244002714Y-39818571D01*
X241145571Y-40532857D02*
X240931285Y-40604285D01*
X240859857Y-40675714D01*
X240788428Y-40818571D01*
X240788428Y-41032857D01*
X240859857Y-41175714D01*
X240931285Y-41247142D01*
X241074142Y-41318571D01*
X241645571Y-41318571D01*
X241645571Y-39818571D01*
X241145571Y-39818571D01*
X241002714Y-39890000D01*
X240931285Y-39961428D01*
X240859857Y-40104285D01*
X240859857Y-40247142D01*
X240931285Y-40390000D01*
X241002714Y-40461428D01*
X241145571Y-40532857D01*
X241645571Y-40532857D01*
X55681285Y-41175714D02*
X55752714Y-41247142D01*
X55967000Y-41318571D01*
X56109857Y-41318571D01*
X56324142Y-41247142D01*
X56467000Y-41104285D01*
X56538428Y-40961428D01*
X56609857Y-40675714D01*
X56609857Y-40461428D01*
X56538428Y-40175714D01*
X56467000Y-40032857D01*
X56324142Y-39890000D01*
X56109857Y-39818571D01*
X55967000Y-39818571D01*
X55752714Y-39890000D01*
X55681285Y-39961428D01*
X54752714Y-39818571D02*
X54467000Y-39818571D01*
X54324142Y-39890000D01*
X54181285Y-40032857D01*
X54109857Y-40318571D01*
X54109857Y-40818571D01*
X54181285Y-41104285D01*
X54324142Y-41247142D01*
X54467000Y-41318571D01*
X54752714Y-41318571D01*
X54895571Y-41247142D01*
X55038428Y-41104285D01*
X55109857Y-40818571D01*
X55109857Y-40318571D01*
X55038428Y-40032857D01*
X54895571Y-39890000D01*
X54752714Y-39818571D01*
X52752714Y-41318571D02*
X53467000Y-41318571D01*
X53467000Y-39818571D01*
X50324142Y-41318571D02*
X51181285Y-41318571D01*
X50752714Y-41318571D02*
X50752714Y-39818571D01*
X50895571Y-40032857D01*
X51038428Y-40175714D01*
X51181285Y-40247142D01*
X227059857Y-41175714D02*
X227131285Y-41247142D01*
X227345571Y-41318571D01*
X227488428Y-41318571D01*
X227702714Y-41247142D01*
X227845571Y-41104285D01*
X227917000Y-40961428D01*
X227988428Y-40675714D01*
X227988428Y-40461428D01*
X227917000Y-40175714D01*
X227845571Y-40032857D01*
X227702714Y-39890000D01*
X227488428Y-39818571D01*
X227345571Y-39818571D01*
X227131285Y-39890000D01*
X227059857Y-39961428D01*
X226131285Y-39818571D02*
X225845571Y-39818571D01*
X225702714Y-39890000D01*
X225559857Y-40032857D01*
X225488428Y-40318571D01*
X225488428Y-40818571D01*
X225559857Y-41104285D01*
X225702714Y-41247142D01*
X225845571Y-41318571D01*
X226131285Y-41318571D01*
X226274142Y-41247142D01*
X226417000Y-41104285D01*
X226488428Y-40818571D01*
X226488428Y-40318571D01*
X226417000Y-40032857D01*
X226274142Y-39890000D01*
X226131285Y-39818571D01*
X224131285Y-41318571D02*
X224845571Y-41318571D01*
X224845571Y-39818571D01*
X222559857Y-40890000D02*
X221845571Y-40890000D01*
X222702714Y-41318571D02*
X222202714Y-39818571D01*
X221702714Y-41318571D01*
X207827285Y-41175714D02*
X207898714Y-41247142D01*
X208113000Y-41318571D01*
X208255857Y-41318571D01*
X208470142Y-41247142D01*
X208613000Y-41104285D01*
X208684428Y-40961428D01*
X208755857Y-40675714D01*
X208755857Y-40461428D01*
X208684428Y-40175714D01*
X208613000Y-40032857D01*
X208470142Y-39890000D01*
X208255857Y-39818571D01*
X208113000Y-39818571D01*
X207898714Y-39890000D01*
X207827285Y-39961428D01*
X206898714Y-39818571D02*
X206613000Y-39818571D01*
X206470142Y-39890000D01*
X206327285Y-40032857D01*
X206255857Y-40318571D01*
X206255857Y-40818571D01*
X206327285Y-41104285D01*
X206470142Y-41247142D01*
X206613000Y-41318571D01*
X206898714Y-41318571D01*
X207041571Y-41247142D01*
X207184428Y-41104285D01*
X207255857Y-40818571D01*
X207255857Y-40318571D01*
X207184428Y-40032857D01*
X207041571Y-39890000D01*
X206898714Y-39818571D01*
X204898714Y-41318571D02*
X205613000Y-41318571D01*
X205613000Y-39818571D01*
X203184428Y-41318571D02*
X202898714Y-41318571D01*
X202755857Y-41247142D01*
X202684428Y-41175714D01*
X202541571Y-40961428D01*
X202470142Y-40675714D01*
X202470142Y-40104285D01*
X202541571Y-39961428D01*
X202613000Y-39890000D01*
X202755857Y-39818571D01*
X203041571Y-39818571D01*
X203184428Y-39890000D01*
X203255857Y-39961428D01*
X203327285Y-40104285D01*
X203327285Y-40461428D01*
X203255857Y-40604285D01*
X203184428Y-40675714D01*
X203041571Y-40747142D01*
X202755857Y-40747142D01*
X202613000Y-40675714D01*
X202541571Y-40604285D01*
X202470142Y-40461428D01*
X188777285Y-41175714D02*
X188848714Y-41247142D01*
X189063000Y-41318571D01*
X189205857Y-41318571D01*
X189420142Y-41247142D01*
X189563000Y-41104285D01*
X189634428Y-40961428D01*
X189705857Y-40675714D01*
X189705857Y-40461428D01*
X189634428Y-40175714D01*
X189563000Y-40032857D01*
X189420142Y-39890000D01*
X189205857Y-39818571D01*
X189063000Y-39818571D01*
X188848714Y-39890000D01*
X188777285Y-39961428D01*
X187848714Y-39818571D02*
X187563000Y-39818571D01*
X187420142Y-39890000D01*
X187277285Y-40032857D01*
X187205857Y-40318571D01*
X187205857Y-40818571D01*
X187277285Y-41104285D01*
X187420142Y-41247142D01*
X187563000Y-41318571D01*
X187848714Y-41318571D01*
X187991571Y-41247142D01*
X188134428Y-41104285D01*
X188205857Y-40818571D01*
X188205857Y-40318571D01*
X188134428Y-40032857D01*
X187991571Y-39890000D01*
X187848714Y-39818571D01*
X185848714Y-41318571D02*
X186563000Y-41318571D01*
X186563000Y-39818571D01*
X183991571Y-40461428D02*
X184134428Y-40390000D01*
X184205857Y-40318571D01*
X184277285Y-40175714D01*
X184277285Y-40104285D01*
X184205857Y-39961428D01*
X184134428Y-39890000D01*
X183991571Y-39818571D01*
X183705857Y-39818571D01*
X183563000Y-39890000D01*
X183491571Y-39961428D01*
X183420142Y-40104285D01*
X183420142Y-40175714D01*
X183491571Y-40318571D01*
X183563000Y-40390000D01*
X183705857Y-40461428D01*
X183991571Y-40461428D01*
X184134428Y-40532857D01*
X184205857Y-40604285D01*
X184277285Y-40747142D01*
X184277285Y-41032857D01*
X184205857Y-41175714D01*
X184134428Y-41247142D01*
X183991571Y-41318571D01*
X183705857Y-41318571D01*
X183563000Y-41247142D01*
X183491571Y-41175714D01*
X183420142Y-41032857D01*
X183420142Y-40747142D01*
X183491571Y-40604285D01*
X183563000Y-40532857D01*
X183705857Y-40461428D01*
X169854285Y-41175714D02*
X169925714Y-41247142D01*
X170140000Y-41318571D01*
X170282857Y-41318571D01*
X170497142Y-41247142D01*
X170640000Y-41104285D01*
X170711428Y-40961428D01*
X170782857Y-40675714D01*
X170782857Y-40461428D01*
X170711428Y-40175714D01*
X170640000Y-40032857D01*
X170497142Y-39890000D01*
X170282857Y-39818571D01*
X170140000Y-39818571D01*
X169925714Y-39890000D01*
X169854285Y-39961428D01*
X168925714Y-39818571D02*
X168640000Y-39818571D01*
X168497142Y-39890000D01*
X168354285Y-40032857D01*
X168282857Y-40318571D01*
X168282857Y-40818571D01*
X168354285Y-41104285D01*
X168497142Y-41247142D01*
X168640000Y-41318571D01*
X168925714Y-41318571D01*
X169068571Y-41247142D01*
X169211428Y-41104285D01*
X169282857Y-40818571D01*
X169282857Y-40318571D01*
X169211428Y-40032857D01*
X169068571Y-39890000D01*
X168925714Y-39818571D01*
X166925714Y-41318571D02*
X167640000Y-41318571D01*
X167640000Y-39818571D01*
X165425714Y-39818571D02*
X164425714Y-39818571D01*
X165068571Y-41318571D01*
X150677285Y-41175714D02*
X150748714Y-41247142D01*
X150963000Y-41318571D01*
X151105857Y-41318571D01*
X151320142Y-41247142D01*
X151463000Y-41104285D01*
X151534428Y-40961428D01*
X151605857Y-40675714D01*
X151605857Y-40461428D01*
X151534428Y-40175714D01*
X151463000Y-40032857D01*
X151320142Y-39890000D01*
X151105857Y-39818571D01*
X150963000Y-39818571D01*
X150748714Y-39890000D01*
X150677285Y-39961428D01*
X149748714Y-39818571D02*
X149463000Y-39818571D01*
X149320142Y-39890000D01*
X149177285Y-40032857D01*
X149105857Y-40318571D01*
X149105857Y-40818571D01*
X149177285Y-41104285D01*
X149320142Y-41247142D01*
X149463000Y-41318571D01*
X149748714Y-41318571D01*
X149891571Y-41247142D01*
X150034428Y-41104285D01*
X150105857Y-40818571D01*
X150105857Y-40318571D01*
X150034428Y-40032857D01*
X149891571Y-39890000D01*
X149748714Y-39818571D01*
X147748714Y-41318571D02*
X148463000Y-41318571D01*
X148463000Y-39818571D01*
X145463000Y-39818571D02*
X145748714Y-39818571D01*
X145891571Y-39890000D01*
X145963000Y-39961428D01*
X146105857Y-40175714D01*
X146177285Y-40461428D01*
X146177285Y-41032857D01*
X146105857Y-41175714D01*
X146034428Y-41247142D01*
X145891571Y-41318571D01*
X145605857Y-41318571D01*
X145463000Y-41247142D01*
X145391571Y-41175714D01*
X145320142Y-41032857D01*
X145320142Y-40675714D01*
X145391571Y-40532857D01*
X145463000Y-40461428D01*
X145605857Y-40390000D01*
X145891571Y-40390000D01*
X146034428Y-40461428D01*
X146105857Y-40532857D01*
X146177285Y-40675714D01*
X131627285Y-41175714D02*
X131698714Y-41247142D01*
X131913000Y-41318571D01*
X132055857Y-41318571D01*
X132270142Y-41247142D01*
X132413000Y-41104285D01*
X132484428Y-40961428D01*
X132555857Y-40675714D01*
X132555857Y-40461428D01*
X132484428Y-40175714D01*
X132413000Y-40032857D01*
X132270142Y-39890000D01*
X132055857Y-39818571D01*
X131913000Y-39818571D01*
X131698714Y-39890000D01*
X131627285Y-39961428D01*
X130698714Y-39818571D02*
X130413000Y-39818571D01*
X130270142Y-39890000D01*
X130127285Y-40032857D01*
X130055857Y-40318571D01*
X130055857Y-40818571D01*
X130127285Y-41104285D01*
X130270142Y-41247142D01*
X130413000Y-41318571D01*
X130698714Y-41318571D01*
X130841571Y-41247142D01*
X130984428Y-41104285D01*
X131055857Y-40818571D01*
X131055857Y-40318571D01*
X130984428Y-40032857D01*
X130841571Y-39890000D01*
X130698714Y-39818571D01*
X128698714Y-41318571D02*
X129413000Y-41318571D01*
X129413000Y-39818571D01*
X126341571Y-39818571D02*
X127055857Y-39818571D01*
X127127285Y-40532857D01*
X127055857Y-40461428D01*
X126913000Y-40390000D01*
X126555857Y-40390000D01*
X126413000Y-40461428D01*
X126341571Y-40532857D01*
X126270142Y-40675714D01*
X126270142Y-41032857D01*
X126341571Y-41175714D01*
X126413000Y-41247142D01*
X126555857Y-41318571D01*
X126913000Y-41318571D01*
X127055857Y-41247142D01*
X127127285Y-41175714D01*
X112704285Y-41048714D02*
X112775714Y-41120142D01*
X112990000Y-41191571D01*
X113132857Y-41191571D01*
X113347142Y-41120142D01*
X113490000Y-40977285D01*
X113561428Y-40834428D01*
X113632857Y-40548714D01*
X113632857Y-40334428D01*
X113561428Y-40048714D01*
X113490000Y-39905857D01*
X113347142Y-39763000D01*
X113132857Y-39691571D01*
X112990000Y-39691571D01*
X112775714Y-39763000D01*
X112704285Y-39834428D01*
X111775714Y-39691571D02*
X111490000Y-39691571D01*
X111347142Y-39763000D01*
X111204285Y-39905857D01*
X111132857Y-40191571D01*
X111132857Y-40691571D01*
X111204285Y-40977285D01*
X111347142Y-41120142D01*
X111490000Y-41191571D01*
X111775714Y-41191571D01*
X111918571Y-41120142D01*
X112061428Y-40977285D01*
X112132857Y-40691571D01*
X112132857Y-40191571D01*
X112061428Y-39905857D01*
X111918571Y-39763000D01*
X111775714Y-39691571D01*
X109775714Y-41191571D02*
X110490000Y-41191571D01*
X110490000Y-39691571D01*
X107490000Y-40191571D02*
X107490000Y-41191571D01*
X107847142Y-39620142D02*
X108204285Y-40691571D01*
X107275714Y-40691571D01*
X93781285Y-40921714D02*
X93852714Y-40993142D01*
X94067000Y-41064571D01*
X94209857Y-41064571D01*
X94424142Y-40993142D01*
X94567000Y-40850285D01*
X94638428Y-40707428D01*
X94709857Y-40421714D01*
X94709857Y-40207428D01*
X94638428Y-39921714D01*
X94567000Y-39778857D01*
X94424142Y-39636000D01*
X94209857Y-39564571D01*
X94067000Y-39564571D01*
X93852714Y-39636000D01*
X93781285Y-39707428D01*
X92852714Y-39564571D02*
X92567000Y-39564571D01*
X92424142Y-39636000D01*
X92281285Y-39778857D01*
X92209857Y-40064571D01*
X92209857Y-40564571D01*
X92281285Y-40850285D01*
X92424142Y-40993142D01*
X92567000Y-41064571D01*
X92852714Y-41064571D01*
X92995571Y-40993142D01*
X93138428Y-40850285D01*
X93209857Y-40564571D01*
X93209857Y-40064571D01*
X93138428Y-39778857D01*
X92995571Y-39636000D01*
X92852714Y-39564571D01*
X90852714Y-41064571D02*
X91567000Y-41064571D01*
X91567000Y-39564571D01*
X89352714Y-39564571D02*
X88424142Y-39564571D01*
X88924142Y-40136000D01*
X88709857Y-40136000D01*
X88567000Y-40207428D01*
X88495571Y-40278857D01*
X88424142Y-40421714D01*
X88424142Y-40778857D01*
X88495571Y-40921714D01*
X88567000Y-40993142D01*
X88709857Y-41064571D01*
X89138428Y-41064571D01*
X89281285Y-40993142D01*
X89352714Y-40921714D01*
X74731285Y-41175714D02*
X74802714Y-41247142D01*
X75017000Y-41318571D01*
X75159857Y-41318571D01*
X75374142Y-41247142D01*
X75517000Y-41104285D01*
X75588428Y-40961428D01*
X75659857Y-40675714D01*
X75659857Y-40461428D01*
X75588428Y-40175714D01*
X75517000Y-40032857D01*
X75374142Y-39890000D01*
X75159857Y-39818571D01*
X75017000Y-39818571D01*
X74802714Y-39890000D01*
X74731285Y-39961428D01*
X73802714Y-39818571D02*
X73517000Y-39818571D01*
X73374142Y-39890000D01*
X73231285Y-40032857D01*
X73159857Y-40318571D01*
X73159857Y-40818571D01*
X73231285Y-41104285D01*
X73374142Y-41247142D01*
X73517000Y-41318571D01*
X73802714Y-41318571D01*
X73945571Y-41247142D01*
X74088428Y-41104285D01*
X74159857Y-40818571D01*
X74159857Y-40318571D01*
X74088428Y-40032857D01*
X73945571Y-39890000D01*
X73802714Y-39818571D01*
X71802714Y-41318571D02*
X72517000Y-41318571D01*
X72517000Y-39818571D01*
X70231285Y-39961428D02*
X70159857Y-39890000D01*
X70017000Y-39818571D01*
X69659857Y-39818571D01*
X69517000Y-39890000D01*
X69445571Y-39961428D01*
X69374142Y-40104285D01*
X69374142Y-40247142D01*
X69445571Y-40461428D01*
X70302714Y-41318571D01*
X69374142Y-41318571D01*
X36504285Y-41175714D02*
X36575714Y-41247142D01*
X36790000Y-41318571D01*
X36932857Y-41318571D01*
X37147142Y-41247142D01*
X37290000Y-41104285D01*
X37361428Y-40961428D01*
X37432857Y-40675714D01*
X37432857Y-40461428D01*
X37361428Y-40175714D01*
X37290000Y-40032857D01*
X37147142Y-39890000D01*
X36932857Y-39818571D01*
X36790000Y-39818571D01*
X36575714Y-39890000D01*
X36504285Y-39961428D01*
X35575714Y-39818571D02*
X35290000Y-39818571D01*
X35147142Y-39890000D01*
X35004285Y-40032857D01*
X34932857Y-40318571D01*
X34932857Y-40818571D01*
X35004285Y-41104285D01*
X35147142Y-41247142D01*
X35290000Y-41318571D01*
X35575714Y-41318571D01*
X35718571Y-41247142D01*
X35861428Y-41104285D01*
X35932857Y-40818571D01*
X35932857Y-40318571D01*
X35861428Y-40032857D01*
X35718571Y-39890000D01*
X35575714Y-39818571D01*
X33575714Y-41318571D02*
X34290000Y-41318571D01*
X34290000Y-39818571D01*
X31647142Y-39818571D02*
X31504285Y-39818571D01*
X31361428Y-39890000D01*
X31290000Y-39961428D01*
X31218571Y-40104285D01*
X31147142Y-40390000D01*
X31147142Y-40747142D01*
X31218571Y-41032857D01*
X31290000Y-41175714D01*
X31361428Y-41247142D01*
X31504285Y-41318571D01*
X31647142Y-41318571D01*
X31790000Y-41247142D01*
X31861428Y-41175714D01*
X31932857Y-41032857D01*
X32004285Y-40747142D01*
X32004285Y-40390000D01*
X31932857Y-40104285D01*
X31861428Y-39961428D01*
X31790000Y-39890000D01*
X31647142Y-39818571D01*
D15*
X192323333Y-79574190D02*
X186037619Y-79574190D01*
X189180476Y-90574190D02*
X189180476Y-79574190D01*
X176609047Y-80098000D02*
X177656666Y-79574190D01*
X179228095Y-79574190D01*
X180799523Y-80098000D01*
X181847142Y-81145619D01*
X182370952Y-82193238D01*
X182894761Y-84288476D01*
X182894761Y-85859904D01*
X182370952Y-87955142D01*
X181847142Y-89002761D01*
X180799523Y-90050380D01*
X179228095Y-90574190D01*
X178180476Y-90574190D01*
X176609047Y-90050380D01*
X176085238Y-89526571D01*
X176085238Y-85859904D01*
X178180476Y-85859904D01*
X166656666Y-83240857D02*
X166656666Y-90574190D01*
X169275714Y-79050380D02*
X171894761Y-86907523D01*
X165085238Y-86907523D01*
X161942380Y-90574190D02*
X156180476Y-83240857D01*
X161942380Y-83240857D02*
X156180476Y-90574190D01*
D12*
X175474000Y-94415571D02*
X175116857Y-95415571D01*
X174759714Y-94415571D01*
X174188285Y-95272714D02*
X174116857Y-95344142D01*
X174188285Y-95415571D01*
X174259714Y-95344142D01*
X174188285Y-95272714D01*
X174188285Y-95415571D01*
X172688285Y-95415571D02*
X173545428Y-95415571D01*
X173116857Y-95415571D02*
X173116857Y-93915571D01*
X173259714Y-94129857D01*
X173402571Y-94272714D01*
X173545428Y-94344142D01*
X172045428Y-95272714D02*
X171974000Y-95344142D01*
X172045428Y-95415571D01*
X172116857Y-95344142D01*
X172045428Y-95272714D01*
X172045428Y-95415571D01*
X170545428Y-95415571D02*
X171402571Y-95415571D01*
X170974000Y-95415571D02*
X170974000Y-93915571D01*
X171116857Y-94129857D01*
X171259714Y-94272714D01*
X171402571Y-94344142D01*
X192295428Y-97965571D02*
X192295428Y-96465571D01*
X192295428Y-97894142D02*
X192438285Y-97965571D01*
X192724000Y-97965571D01*
X192866857Y-97894142D01*
X192938285Y-97822714D01*
X193009714Y-97679857D01*
X193009714Y-97251285D01*
X192938285Y-97108428D01*
X192866857Y-97037000D01*
X192724000Y-96965571D01*
X192438285Y-96965571D01*
X192295428Y-97037000D01*
X191009714Y-97894142D02*
X191152571Y-97965571D01*
X191438285Y-97965571D01*
X191581142Y-97894142D01*
X191652571Y-97751285D01*
X191652571Y-97179857D01*
X191581142Y-97037000D01*
X191438285Y-96965571D01*
X191152571Y-96965571D01*
X191009714Y-97037000D01*
X190938285Y-97179857D01*
X190938285Y-97322714D01*
X191652571Y-97465571D01*
X190366857Y-97894142D02*
X190224000Y-97965571D01*
X189938285Y-97965571D01*
X189795428Y-97894142D01*
X189724000Y-97751285D01*
X189724000Y-97679857D01*
X189795428Y-97537000D01*
X189938285Y-97465571D01*
X190152571Y-97465571D01*
X190295428Y-97394142D01*
X190366857Y-97251285D01*
X190366857Y-97179857D01*
X190295428Y-97037000D01*
X190152571Y-96965571D01*
X189938285Y-96965571D01*
X189795428Y-97037000D01*
X189081142Y-97965571D02*
X189081142Y-96965571D01*
X189081142Y-96465571D02*
X189152571Y-96537000D01*
X189081142Y-96608428D01*
X189009714Y-96537000D01*
X189081142Y-96465571D01*
X189081142Y-96608428D01*
X187724000Y-96965571D02*
X187724000Y-98179857D01*
X187795428Y-98322714D01*
X187866857Y-98394142D01*
X188009714Y-98465571D01*
X188224000Y-98465571D01*
X188366857Y-98394142D01*
X187724000Y-97894142D02*
X187866857Y-97965571D01*
X188152571Y-97965571D01*
X188295428Y-97894142D01*
X188366857Y-97822714D01*
X188438285Y-97679857D01*
X188438285Y-97251285D01*
X188366857Y-97108428D01*
X188295428Y-97037000D01*
X188152571Y-96965571D01*
X187866857Y-96965571D01*
X187724000Y-97037000D01*
X187009714Y-96965571D02*
X187009714Y-97965571D01*
X187009714Y-97108428D02*
X186938285Y-97037000D01*
X186795428Y-96965571D01*
X186581142Y-96965571D01*
X186438285Y-97037000D01*
X186366857Y-97179857D01*
X186366857Y-97965571D01*
X185081142Y-97894142D02*
X185224000Y-97965571D01*
X185509714Y-97965571D01*
X185652571Y-97894142D01*
X185724000Y-97751285D01*
X185724000Y-97179857D01*
X185652571Y-97037000D01*
X185509714Y-96965571D01*
X185224000Y-96965571D01*
X185081142Y-97037000D01*
X185009714Y-97179857D01*
X185009714Y-97322714D01*
X185724000Y-97465571D01*
X183724000Y-97965571D02*
X183724000Y-96465571D01*
X183724000Y-97894142D02*
X183866857Y-97965571D01*
X184152571Y-97965571D01*
X184295428Y-97894142D01*
X184366857Y-97822714D01*
X184438285Y-97679857D01*
X184438285Y-97251285D01*
X184366857Y-97108428D01*
X184295428Y-97037000D01*
X184152571Y-96965571D01*
X183866857Y-96965571D01*
X183724000Y-97037000D01*
X181866857Y-97965571D02*
X181866857Y-96465571D01*
X181866857Y-97037000D02*
X181724000Y-96965571D01*
X181438285Y-96965571D01*
X181295428Y-97037000D01*
X181224000Y-97108428D01*
X181152571Y-97251285D01*
X181152571Y-97679857D01*
X181224000Y-97822714D01*
X181295428Y-97894142D01*
X181438285Y-97965571D01*
X181724000Y-97965571D01*
X181866857Y-97894142D01*
X180652571Y-96965571D02*
X180295428Y-97965571D01*
X179938285Y-96965571D02*
X180295428Y-97965571D01*
X180438285Y-98322714D01*
X180509714Y-98394142D01*
X180652571Y-98465571D01*
X177581142Y-96965571D02*
X177581142Y-97965571D01*
X178224000Y-96965571D02*
X178224000Y-97751285D01*
X178152571Y-97894142D01*
X178009714Y-97965571D01*
X177795428Y-97965571D01*
X177652571Y-97894142D01*
X177581142Y-97822714D01*
X175795428Y-96394142D02*
X177081142Y-98322714D01*
X175295428Y-97965571D02*
X175295428Y-96965571D01*
X175295428Y-97108428D02*
X175224000Y-97037000D01*
X175081142Y-96965571D01*
X174866857Y-96965571D01*
X174724000Y-97037000D01*
X174652571Y-97179857D01*
X174652571Y-97965571D01*
X174652571Y-97179857D02*
X174581142Y-97037000D01*
X174438285Y-96965571D01*
X174224000Y-96965571D01*
X174081142Y-97037000D01*
X174009714Y-97179857D01*
X174009714Y-97965571D01*
X173438285Y-96965571D02*
X173081142Y-97965571D01*
X172724000Y-96965571D02*
X173081142Y-97965571D01*
X173224000Y-98322714D01*
X173295428Y-98394142D01*
X173438285Y-98465571D01*
X172366857Y-96965571D02*
X171795428Y-96965571D01*
X172152571Y-96465571D02*
X172152571Y-97751285D01*
X172081142Y-97894142D01*
X171938285Y-97965571D01*
X171795428Y-97965571D01*
X171295428Y-97965571D02*
X171295428Y-96465571D01*
X170652571Y-97965571D02*
X170652571Y-97179857D01*
X170724000Y-97037000D01*
X170866857Y-96965571D01*
X171081142Y-96965571D01*
X171224000Y-97037000D01*
X171295428Y-97108428D01*
X169724000Y-97965571D02*
X169866857Y-97894142D01*
X169938285Y-97822714D01*
X170009714Y-97679857D01*
X170009714Y-97251285D01*
X169938285Y-97108428D01*
X169866857Y-97037000D01*
X169724000Y-96965571D01*
X169509714Y-96965571D01*
X169366857Y-97037000D01*
X169295428Y-97108428D01*
X169224000Y-97251285D01*
X169224000Y-97679857D01*
X169295428Y-97822714D01*
X169366857Y-97894142D01*
X169509714Y-97965571D01*
X169724000Y-97965571D01*
X168652571Y-97894142D02*
X168509714Y-97965571D01*
X168224000Y-97965571D01*
X168081142Y-97894142D01*
X168009714Y-97751285D01*
X168009714Y-97679857D01*
X168081142Y-97537000D01*
X168224000Y-97465571D01*
X168438285Y-97465571D01*
X168581142Y-97394142D01*
X168652571Y-97251285D01*
X168652571Y-97179857D01*
X168581142Y-97037000D01*
X168438285Y-96965571D01*
X168224000Y-96965571D01*
X168081142Y-97037000D01*
X167366857Y-97965571D02*
X167366857Y-96965571D01*
X167366857Y-97108428D02*
X167295428Y-97037000D01*
X167152571Y-96965571D01*
X166938285Y-96965571D01*
X166795428Y-97037000D01*
X166724000Y-97179857D01*
X166724000Y-97965571D01*
X166724000Y-97179857D02*
X166652571Y-97037000D01*
X166509714Y-96965571D01*
X166295428Y-96965571D01*
X166152571Y-97037000D01*
X166081142Y-97179857D01*
X166081142Y-97965571D01*
X164724000Y-97965571D02*
X164724000Y-97179857D01*
X164795428Y-97037000D01*
X164938285Y-96965571D01*
X165224000Y-96965571D01*
X165366857Y-97037000D01*
X164724000Y-97894142D02*
X164866857Y-97965571D01*
X165224000Y-97965571D01*
X165366857Y-97894142D01*
X165438285Y-97751285D01*
X165438285Y-97608428D01*
X165366857Y-97465571D01*
X165224000Y-97394142D01*
X164866857Y-97394142D01*
X164724000Y-97322714D01*
X164009714Y-96965571D02*
X164009714Y-97965571D01*
X164009714Y-97108428D02*
X163938285Y-97037000D01*
X163795428Y-96965571D01*
X163581142Y-96965571D01*
X163438285Y-97037000D01*
X163366857Y-97179857D01*
X163366857Y-97965571D01*
X162652571Y-96965571D02*
X162652571Y-97965571D01*
X162652571Y-97108428D02*
X162581142Y-97037000D01*
X162438285Y-96965571D01*
X162224000Y-96965571D01*
X162081142Y-97037000D01*
X162009714Y-97179857D01*
X162009714Y-97965571D01*
X159366857Y-97965571D02*
X160224000Y-97965571D01*
X159795428Y-97965571D02*
X159795428Y-96465571D01*
X159938285Y-96679857D01*
X160081142Y-96822714D01*
X160224000Y-96894142D01*
X158724000Y-97822714D02*
X158652571Y-97894142D01*
X158724000Y-97965571D01*
X158795428Y-97894142D01*
X158724000Y-97822714D01*
X158724000Y-97965571D01*
X158081142Y-96608428D02*
X158009714Y-96537000D01*
X157866857Y-96465571D01*
X157509714Y-96465571D01*
X157366857Y-96537000D01*
X157295428Y-96608428D01*
X157224000Y-96751285D01*
X157224000Y-96894142D01*
X157295428Y-97108428D01*
X158152571Y-97965571D01*
X157224000Y-97965571D01*
X156295428Y-96465571D02*
X156152571Y-96465571D01*
X156009714Y-96537000D01*
X155938285Y-96608428D01*
X155866857Y-96751285D01*
X155795428Y-97037000D01*
X155795428Y-97394142D01*
X155866857Y-97679857D01*
X155938285Y-97822714D01*
X156009714Y-97894142D01*
X156152571Y-97965571D01*
X156295428Y-97965571D01*
X156438285Y-97894142D01*
X156509714Y-97822714D01*
X156581142Y-97679857D01*
X156652571Y-97394142D01*
X156652571Y-97037000D01*
X156581142Y-96751285D01*
X156509714Y-96608428D01*
X156438285Y-96537000D01*
X156295428Y-96465571D01*
X154366857Y-97965571D02*
X155224000Y-97965571D01*
X154795428Y-97965571D02*
X154795428Y-96465571D01*
X154938285Y-96679857D01*
X155081142Y-96822714D01*
X155224000Y-96894142D01*
X153652571Y-97965571D02*
X153366857Y-97965571D01*
X153224000Y-97894142D01*
X153152571Y-97822714D01*
X153009714Y-97608428D01*
X152938285Y-97322714D01*
X152938285Y-96751285D01*
X153009714Y-96608428D01*
X153081142Y-96537000D01*
X153224000Y-96465571D01*
X153509714Y-96465571D01*
X153652571Y-96537000D01*
X153724000Y-96608428D01*
X153795428Y-96751285D01*
X153795428Y-97108428D01*
X153724000Y-97251285D01*
X153652571Y-97322714D01*
X153509714Y-97394142D01*
X153224000Y-97394142D01*
X153081142Y-97322714D01*
X153009714Y-97251285D01*
X152938285Y-97108428D01*
X119921714Y-102810571D02*
X119921714Y-103096285D01*
X119350285Y-102810571D02*
X119350285Y-103096285D01*
X118707428Y-102810571D02*
X118707428Y-104024857D01*
X118636000Y-104167714D01*
X118564571Y-104239142D01*
X118421714Y-104310571D01*
X118136000Y-104310571D01*
X117993142Y-104239142D01*
X117921714Y-104167714D01*
X117850285Y-104024857D01*
X117850285Y-102810571D01*
X116921714Y-104310571D02*
X117064571Y-104239142D01*
X117136000Y-104096285D01*
X117136000Y-102810571D01*
X116564571Y-103310571D02*
X115993142Y-103310571D01*
X116350285Y-102810571D02*
X116350285Y-104096285D01*
X116278857Y-104239142D01*
X116136000Y-104310571D01*
X115993142Y-104310571D01*
X115493142Y-104310571D02*
X115493142Y-103310571D01*
X115493142Y-102810571D02*
X115564571Y-102882000D01*
X115493142Y-102953428D01*
X115421714Y-102882000D01*
X115493142Y-102810571D01*
X115493142Y-102953428D01*
X114778857Y-104310571D02*
X114778857Y-103310571D01*
X114778857Y-103453428D02*
X114707428Y-103382000D01*
X114564571Y-103310571D01*
X114350285Y-103310571D01*
X114207428Y-103382000D01*
X114136000Y-103524857D01*
X114136000Y-104310571D01*
X114136000Y-103524857D02*
X114064571Y-103382000D01*
X113921714Y-103310571D01*
X113707428Y-103310571D01*
X113564571Y-103382000D01*
X113493142Y-103524857D01*
X113493142Y-104310571D01*
X112136000Y-104310571D02*
X112136000Y-103524857D01*
X112207428Y-103382000D01*
X112350285Y-103310571D01*
X112636000Y-103310571D01*
X112778857Y-103382000D01*
X112136000Y-104239142D02*
X112278857Y-104310571D01*
X112636000Y-104310571D01*
X112778857Y-104239142D01*
X112850285Y-104096285D01*
X112850285Y-103953428D01*
X112778857Y-103810571D01*
X112636000Y-103739142D01*
X112278857Y-103739142D01*
X112136000Y-103667714D01*
X111636000Y-103310571D02*
X111064571Y-103310571D01*
X111421714Y-102810571D02*
X111421714Y-104096285D01*
X111350285Y-104239142D01*
X111207428Y-104310571D01*
X111064571Y-104310571D01*
X109993142Y-104239142D02*
X110136000Y-104310571D01*
X110421714Y-104310571D01*
X110564571Y-104239142D01*
X110636000Y-104096285D01*
X110636000Y-103524857D01*
X110564571Y-103382000D01*
X110421714Y-103310571D01*
X110136000Y-103310571D01*
X109993142Y-103382000D01*
X109921714Y-103524857D01*
X109921714Y-103667714D01*
X110636000Y-103810571D01*
X107278857Y-104167714D02*
X107350285Y-104239142D01*
X107564571Y-104310571D01*
X107707428Y-104310571D01*
X107921714Y-104239142D01*
X108064571Y-104096285D01*
X108136000Y-103953428D01*
X108207428Y-103667714D01*
X108207428Y-103453428D01*
X108136000Y-103167714D01*
X108064571Y-103024857D01*
X107921714Y-102882000D01*
X107707428Y-102810571D01*
X107564571Y-102810571D01*
X107350285Y-102882000D01*
X107278857Y-102953428D01*
X106421714Y-104310571D02*
X106564571Y-104239142D01*
X106636000Y-104167714D01*
X106707428Y-104024857D01*
X106707428Y-103596285D01*
X106636000Y-103453428D01*
X106564571Y-103382000D01*
X106421714Y-103310571D01*
X106207428Y-103310571D01*
X106064571Y-103382000D01*
X105993142Y-103453428D01*
X105921714Y-103596285D01*
X105921714Y-104024857D01*
X105993142Y-104167714D01*
X106064571Y-104239142D01*
X106207428Y-104310571D01*
X106421714Y-104310571D01*
X105064571Y-104310571D02*
X105207428Y-104239142D01*
X105278857Y-104096285D01*
X105278857Y-102810571D01*
X104278857Y-104310571D02*
X104421714Y-104239142D01*
X104493142Y-104096285D01*
X104493142Y-102810571D01*
X103136000Y-104239142D02*
X103278857Y-104310571D01*
X103564571Y-104310571D01*
X103707428Y-104239142D01*
X103778857Y-104096285D01*
X103778857Y-103524857D01*
X103707428Y-103382000D01*
X103564571Y-103310571D01*
X103278857Y-103310571D01*
X103136000Y-103382000D01*
X103064571Y-103524857D01*
X103064571Y-103667714D01*
X103778857Y-103810571D01*
X101778857Y-103310571D02*
X101778857Y-104524857D01*
X101850285Y-104667714D01*
X101921714Y-104739142D01*
X102064571Y-104810571D01*
X102278857Y-104810571D01*
X102421714Y-104739142D01*
X101778857Y-104239142D02*
X101921714Y-104310571D01*
X102207428Y-104310571D01*
X102350285Y-104239142D01*
X102421714Y-104167714D01*
X102493142Y-104024857D01*
X102493142Y-103596285D01*
X102421714Y-103453428D01*
X102350285Y-103382000D01*
X102207428Y-103310571D01*
X101921714Y-103310571D01*
X101778857Y-103382000D01*
X100493142Y-104239142D02*
X100636000Y-104310571D01*
X100921714Y-104310571D01*
X101064571Y-104239142D01*
X101136000Y-104096285D01*
X101136000Y-103524857D01*
X101064571Y-103382000D01*
X100921714Y-103310571D01*
X100636000Y-103310571D01*
X100493142Y-103382000D01*
X100421714Y-103524857D01*
X100421714Y-103667714D01*
X101136000Y-103810571D01*
X98636000Y-104310571D02*
X98636000Y-102810571D01*
X97778857Y-104310571D02*
X98421714Y-103453428D01*
X97778857Y-102810571D02*
X98636000Y-103667714D01*
X96564571Y-104239142D02*
X96707428Y-104310571D01*
X96993142Y-104310571D01*
X97136000Y-104239142D01*
X97207428Y-104096285D01*
X97207428Y-103524857D01*
X97136000Y-103382000D01*
X96993142Y-103310571D01*
X96707428Y-103310571D01*
X96564571Y-103382000D01*
X96493142Y-103524857D01*
X96493142Y-103667714D01*
X97207428Y-103810571D01*
X95993142Y-103310571D02*
X95636000Y-104310571D01*
X95278857Y-103310571D02*
X95636000Y-104310571D01*
X95778857Y-104667714D01*
X95850285Y-104739142D01*
X95993142Y-104810571D01*
X94707428Y-104310571D02*
X94707428Y-102810571D01*
X94707428Y-103382000D02*
X94564571Y-103310571D01*
X94278857Y-103310571D01*
X94136000Y-103382000D01*
X94064571Y-103453428D01*
X93993142Y-103596285D01*
X93993142Y-104024857D01*
X94064571Y-104167714D01*
X94136000Y-104239142D01*
X94278857Y-104310571D01*
X94564571Y-104310571D01*
X94707428Y-104239142D01*
X93136000Y-104310571D02*
X93278857Y-104239142D01*
X93350285Y-104167714D01*
X93421714Y-104024857D01*
X93421714Y-103596285D01*
X93350285Y-103453428D01*
X93278857Y-103382000D01*
X93136000Y-103310571D01*
X92921714Y-103310571D01*
X92778857Y-103382000D01*
X92707428Y-103453428D01*
X92636000Y-103596285D01*
X92636000Y-104024857D01*
X92707428Y-104167714D01*
X92778857Y-104239142D01*
X92921714Y-104310571D01*
X93136000Y-104310571D01*
X91350285Y-104310571D02*
X91350285Y-103524857D01*
X91421714Y-103382000D01*
X91564571Y-103310571D01*
X91850285Y-103310571D01*
X91993142Y-103382000D01*
X91350285Y-104239142D02*
X91493142Y-104310571D01*
X91850285Y-104310571D01*
X91993142Y-104239142D01*
X92064571Y-104096285D01*
X92064571Y-103953428D01*
X91993142Y-103810571D01*
X91850285Y-103739142D01*
X91493142Y-103739142D01*
X91350285Y-103667714D01*
X90636000Y-104310571D02*
X90636000Y-103310571D01*
X90636000Y-103596285D02*
X90564571Y-103453428D01*
X90493142Y-103382000D01*
X90350285Y-103310571D01*
X90207428Y-103310571D01*
X89064571Y-104310571D02*
X89064571Y-102810571D01*
X89064571Y-104239142D02*
X89207428Y-104310571D01*
X89493142Y-104310571D01*
X89636000Y-104239142D01*
X89707428Y-104167714D01*
X89778857Y-104024857D01*
X89778857Y-103596285D01*
X89707428Y-103453428D01*
X89636000Y-103382000D01*
X89493142Y-103310571D01*
X89207428Y-103310571D01*
X89064571Y-103382000D01*
X88421714Y-102810571D02*
X88421714Y-103096285D01*
X87850285Y-102810571D02*
X87850285Y-103096285D01*
D16*
X116318571Y-95286095D02*
X116318571Y-99738476D01*
X116056666Y-100262285D01*
X115794761Y-100524190D01*
X115270952Y-100786095D01*
X114223333Y-100786095D01*
X113699523Y-100524190D01*
X113437619Y-100262285D01*
X113175714Y-99738476D01*
X113175714Y-95286095D01*
X110556666Y-100262285D02*
X110294761Y-100524190D01*
X110556666Y-100786095D01*
X110818571Y-100524190D01*
X110556666Y-100262285D01*
X110556666Y-100786095D01*
X104794761Y-100262285D02*
X105056666Y-100524190D01*
X105842380Y-100786095D01*
X106366190Y-100786095D01*
X107151904Y-100524190D01*
X107675714Y-100000380D01*
X107937619Y-99476571D01*
X108199523Y-98428952D01*
X108199523Y-97643238D01*
X107937619Y-96595619D01*
X107675714Y-96071809D01*
X107151904Y-95548000D01*
X106366190Y-95286095D01*
X105842380Y-95286095D01*
X105056666Y-95548000D01*
X104794761Y-95809904D01*
X102437619Y-100262285D02*
X102175714Y-100524190D01*
X102437619Y-100786095D01*
X102699523Y-100524190D01*
X102437619Y-100262285D01*
X102437619Y-100786095D01*
X99818571Y-100786095D02*
X99818571Y-95286095D01*
X96675714Y-100786095D02*
X99032857Y-97643238D01*
X96675714Y-95286095D02*
X99818571Y-98428952D01*
X94318571Y-100786095D02*
X94318571Y-95286095D01*
X94318571Y-97381333D02*
X93794761Y-97119428D01*
X92747142Y-97119428D01*
X92223333Y-97381333D01*
X91961428Y-97643238D01*
X91699523Y-98167047D01*
X91699523Y-99738476D01*
X91961428Y-100262285D01*
X92223333Y-100524190D01*
X92747142Y-100786095D01*
X93794761Y-100786095D01*
X94318571Y-100524190D01*
D17*
G04 #@! TO.C,U1*
X27686000Y-58420000D02*
X58166000Y-58420000D01*
X58166000Y-58420000D02*
X58166000Y-76200000D01*
X58166000Y-76200000D02*
X27686000Y-76200000D01*
X27686000Y-60960000D02*
X30226000Y-60960000D01*
X30226000Y-60960000D02*
X30226000Y-58420000D01*
D18*
G36*
X33565360Y-72241568D02*
X33865360Y-72241568D01*
X33865360Y-72141568D01*
X33565360Y-72141568D01*
X33565360Y-72241568D01*
G37*
X33565360Y-72241568D02*
X33865360Y-72241568D01*
X33865360Y-72141568D01*
X33565360Y-72141568D01*
X33565360Y-72241568D01*
G36*
X33965360Y-72041568D02*
X34065360Y-72041568D01*
X34065360Y-71941568D01*
X33965360Y-71941568D01*
X33965360Y-72041568D01*
G37*
X33965360Y-72041568D02*
X34065360Y-72041568D01*
X34065360Y-71941568D01*
X33965360Y-71941568D01*
X33965360Y-72041568D01*
G36*
X33565360Y-72241568D02*
X33665360Y-72241568D01*
X33665360Y-71741568D01*
X33565360Y-71741568D01*
X33565360Y-72241568D01*
G37*
X33565360Y-72241568D02*
X33665360Y-72241568D01*
X33665360Y-71741568D01*
X33565360Y-71741568D01*
X33565360Y-72241568D01*
G36*
X33565360Y-71841568D02*
X34365360Y-71841568D01*
X34365360Y-71741568D01*
X33565360Y-71741568D01*
X33565360Y-71841568D01*
G37*
X33565360Y-71841568D02*
X34365360Y-71841568D01*
X34365360Y-71741568D01*
X33565360Y-71741568D01*
X33565360Y-71841568D01*
G36*
X34165360Y-72241568D02*
X34365360Y-72241568D01*
X34365360Y-72141568D01*
X34165360Y-72141568D01*
X34165360Y-72241568D01*
G37*
X34165360Y-72241568D02*
X34365360Y-72241568D01*
X34365360Y-72141568D01*
X34165360Y-72141568D01*
X34165360Y-72241568D01*
D17*
X27686000Y-76200000D02*
X25146000Y-76200000D01*
X25146000Y-76200000D02*
X25146000Y-58420000D01*
X25146000Y-58420000D02*
X27686000Y-58420000D01*
X27686000Y-60960000D02*
X27686000Y-58420000D01*
D19*
G04 #@! TO.C,D49*
X120556000Y-108668000D02*
X120556000Y-107518000D01*
X127856000Y-108668000D02*
X120556000Y-108668000D01*
X127856000Y-103168000D02*
X120556000Y-103168000D01*
G04 #@! TO.C,D52*
X231009000Y-108426500D02*
X231009000Y-107276500D01*
X238309000Y-108426500D02*
X231009000Y-108426500D01*
X238309000Y-102926500D02*
X231009000Y-102926500D01*
G04 #@! TO.C,D51*
X188374000Y-108846000D02*
X188374000Y-107696000D01*
X195674000Y-108846000D02*
X188374000Y-108846000D01*
X195674000Y-103346000D02*
X188374000Y-103346000D01*
G04 #@! TO.C,D47*
X40318500Y-108465000D02*
X40318500Y-107315000D01*
X47618500Y-108465000D02*
X40318500Y-108465000D01*
X47618500Y-102965000D02*
X40318500Y-102965000D01*
G04 #@! TO.C,D50*
X158082000Y-103168000D02*
X150782000Y-103168000D01*
X158082000Y-108668000D02*
X150782000Y-108668000D01*
X150782000Y-108668000D02*
X150782000Y-107518000D01*
G04 #@! TO.C,D48*
X88740000Y-103092000D02*
X81440000Y-103092000D01*
X88740000Y-108592000D02*
X81440000Y-108592000D01*
X81440000Y-108592000D02*
X81440000Y-107442000D01*
G04 #@! TO.C,U1*
D18*
X54413142Y-73094809D02*
X54375047Y-72980523D01*
X54336952Y-72942428D01*
X54260761Y-72904333D01*
X54146476Y-72904333D01*
X54070285Y-72942428D01*
X54032190Y-72980523D01*
X53994095Y-73056714D01*
X53994095Y-73361476D01*
X54794095Y-73361476D01*
X54794095Y-73094809D01*
X54756000Y-73018619D01*
X54717904Y-72980523D01*
X54641714Y-72942428D01*
X54565523Y-72942428D01*
X54489333Y-72980523D01*
X54451238Y-73018619D01*
X54413142Y-73094809D01*
X54413142Y-73361476D01*
X54717904Y-72599571D02*
X54756000Y-72561476D01*
X54794095Y-72485285D01*
X54794095Y-72294809D01*
X54756000Y-72218619D01*
X54717904Y-72180523D01*
X54641714Y-72142428D01*
X54565523Y-72142428D01*
X54451238Y-72180523D01*
X53994095Y-72637666D01*
X53994095Y-72142428D01*
X46793142Y-73037666D02*
X46793142Y-73304333D01*
X46374095Y-73304333D02*
X47174095Y-73304333D01*
X47174095Y-72923380D01*
X47174095Y-72694809D02*
X47174095Y-72161476D01*
X46374095Y-72504333D01*
X44253142Y-73037666D02*
X44253142Y-73304333D01*
X43834095Y-73304333D02*
X44634095Y-73304333D01*
X44634095Y-72923380D01*
X44634095Y-72275761D02*
X44634095Y-72428142D01*
X44596000Y-72504333D01*
X44557904Y-72542428D01*
X44443619Y-72618619D01*
X44291238Y-72656714D01*
X43986476Y-72656714D01*
X43910285Y-72618619D01*
X43872190Y-72580523D01*
X43834095Y-72504333D01*
X43834095Y-72351952D01*
X43872190Y-72275761D01*
X43910285Y-72237666D01*
X43986476Y-72199571D01*
X44176952Y-72199571D01*
X44253142Y-72237666D01*
X44291238Y-72275761D01*
X44329333Y-72351952D01*
X44329333Y-72504333D01*
X44291238Y-72580523D01*
X44253142Y-72618619D01*
X44176952Y-72656714D01*
X41713142Y-73037666D02*
X41713142Y-73304333D01*
X41294095Y-73304333D02*
X42094095Y-73304333D01*
X42094095Y-72923380D01*
X42094095Y-72237666D02*
X42094095Y-72618619D01*
X41713142Y-72656714D01*
X41751238Y-72618619D01*
X41789333Y-72542428D01*
X41789333Y-72351952D01*
X41751238Y-72275761D01*
X41713142Y-72237666D01*
X41636952Y-72199571D01*
X41446476Y-72199571D01*
X41370285Y-72237666D01*
X41332190Y-72275761D01*
X41294095Y-72351952D01*
X41294095Y-72542428D01*
X41332190Y-72618619D01*
X41370285Y-72656714D01*
X28594095Y-73323380D02*
X28975047Y-73590047D01*
X28594095Y-73780523D02*
X29394095Y-73780523D01*
X29394095Y-73475761D01*
X29356000Y-73399571D01*
X29317904Y-73361476D01*
X29241714Y-73323380D01*
X29127428Y-73323380D01*
X29051238Y-73361476D01*
X29013142Y-73399571D01*
X28975047Y-73475761D01*
X28975047Y-73780523D01*
X28822666Y-73018619D02*
X28822666Y-72637666D01*
X28594095Y-73094809D02*
X29394095Y-72828142D01*
X28594095Y-72561476D01*
X29394095Y-72371000D02*
X28594095Y-72180523D01*
X29165523Y-72028142D01*
X28594095Y-71875761D01*
X29394095Y-71685285D01*
X31896000Y-73380523D02*
X31934095Y-73456714D01*
X31934095Y-73571000D01*
X31896000Y-73685285D01*
X31819809Y-73761476D01*
X31743619Y-73799571D01*
X31591238Y-73837666D01*
X31476952Y-73837666D01*
X31324571Y-73799571D01*
X31248380Y-73761476D01*
X31172190Y-73685285D01*
X31134095Y-73571000D01*
X31134095Y-73494809D01*
X31172190Y-73380523D01*
X31210285Y-73342428D01*
X31476952Y-73342428D01*
X31476952Y-73494809D01*
X31134095Y-72999571D02*
X31934095Y-72999571D01*
X31134095Y-72542428D01*
X31934095Y-72542428D01*
X31134095Y-72161476D02*
X31934095Y-72161476D01*
X31934095Y-71971000D01*
X31896000Y-71856714D01*
X31819809Y-71780523D01*
X31743619Y-71742428D01*
X31591238Y-71704333D01*
X31476952Y-71704333D01*
X31324571Y-71742428D01*
X31248380Y-71780523D01*
X31172190Y-71856714D01*
X31134095Y-71971000D01*
X31134095Y-72161476D01*
X33682190Y-73576453D02*
X33644095Y-73462167D01*
X33644095Y-73271691D01*
X33682190Y-73195500D01*
X33720285Y-73157405D01*
X33796476Y-73119310D01*
X33872666Y-73119310D01*
X33948857Y-73157405D01*
X33986952Y-73195500D01*
X34025047Y-73271691D01*
X34063142Y-73424072D01*
X34101238Y-73500262D01*
X34139333Y-73538358D01*
X34215523Y-73576453D01*
X34291714Y-73576453D01*
X34367904Y-73538358D01*
X34406000Y-73500262D01*
X34444095Y-73424072D01*
X34444095Y-73233596D01*
X34406000Y-73119310D01*
X34444095Y-72890739D02*
X34444095Y-72433596D01*
X33644095Y-72662167D02*
X34444095Y-72662167D01*
X37014095Y-73837666D02*
X36214095Y-73571000D01*
X37014095Y-73304333D01*
X36290285Y-72580523D02*
X36252190Y-72618619D01*
X36214095Y-72732904D01*
X36214095Y-72809095D01*
X36252190Y-72923380D01*
X36328380Y-72999571D01*
X36404571Y-73037666D01*
X36556952Y-73075761D01*
X36671238Y-73075761D01*
X36823619Y-73037666D01*
X36899809Y-72999571D01*
X36976000Y-72923380D01*
X37014095Y-72809095D01*
X37014095Y-72732904D01*
X36976000Y-72618619D01*
X36937904Y-72580523D01*
X36290285Y-71780523D02*
X36252190Y-71818619D01*
X36214095Y-71932904D01*
X36214095Y-72009095D01*
X36252190Y-72123380D01*
X36328380Y-72199571D01*
X36404571Y-72237666D01*
X36556952Y-72275761D01*
X36671238Y-72275761D01*
X36823619Y-72237666D01*
X36899809Y-72199571D01*
X36976000Y-72123380D01*
X37014095Y-72009095D01*
X37014095Y-71932904D01*
X36976000Y-71818619D01*
X36937904Y-71780523D01*
X39173142Y-73037666D02*
X39173142Y-73304333D01*
X38754095Y-73304333D02*
X39554095Y-73304333D01*
X39554095Y-72923380D01*
X39287428Y-72275761D02*
X38754095Y-72275761D01*
X39592190Y-72466238D02*
X39020761Y-72656714D01*
X39020761Y-72161476D01*
X49333142Y-73094809D02*
X49295047Y-72980523D01*
X49256952Y-72942428D01*
X49180761Y-72904333D01*
X49066476Y-72904333D01*
X48990285Y-72942428D01*
X48952190Y-72980523D01*
X48914095Y-73056714D01*
X48914095Y-73361476D01*
X49714095Y-73361476D01*
X49714095Y-73094809D01*
X49676000Y-73018619D01*
X49637904Y-72980523D01*
X49561714Y-72942428D01*
X49485523Y-72942428D01*
X49409333Y-72980523D01*
X49371238Y-73018619D01*
X49333142Y-73094809D01*
X49333142Y-73361476D01*
X48914095Y-72142428D02*
X48914095Y-72599571D01*
X48914095Y-72371000D02*
X49714095Y-72371000D01*
X49599809Y-72447190D01*
X49523619Y-72523380D01*
X49485523Y-72599571D01*
X51873142Y-73094809D02*
X51835047Y-72980523D01*
X51796952Y-72942428D01*
X51720761Y-72904333D01*
X51606476Y-72904333D01*
X51530285Y-72942428D01*
X51492190Y-72980523D01*
X51454095Y-73056714D01*
X51454095Y-73361476D01*
X52254095Y-73361476D01*
X52254095Y-73094809D01*
X52216000Y-73018619D01*
X52177904Y-72980523D01*
X52101714Y-72942428D01*
X52025523Y-72942428D01*
X51949333Y-72980523D01*
X51911238Y-73018619D01*
X51873142Y-73094809D01*
X51873142Y-73361476D01*
X52254095Y-72637666D02*
X52254095Y-72142428D01*
X51949333Y-72409095D01*
X51949333Y-72294809D01*
X51911238Y-72218619D01*
X51873142Y-72180523D01*
X51796952Y-72142428D01*
X51606476Y-72142428D01*
X51530285Y-72180523D01*
X51492190Y-72218619D01*
X51454095Y-72294809D01*
X51454095Y-72523380D01*
X51492190Y-72599571D01*
X51530285Y-72637666D01*
X56953142Y-73094809D02*
X56915047Y-72980523D01*
X56876952Y-72942428D01*
X56800761Y-72904333D01*
X56686476Y-72904333D01*
X56610285Y-72942428D01*
X56572190Y-72980523D01*
X56534095Y-73056714D01*
X56534095Y-73361476D01*
X57334095Y-73361476D01*
X57334095Y-73094809D01*
X57296000Y-73018619D01*
X57257904Y-72980523D01*
X57181714Y-72942428D01*
X57105523Y-72942428D01*
X57029333Y-72980523D01*
X56991238Y-73018619D01*
X56953142Y-73094809D01*
X56953142Y-73361476D01*
X57334095Y-72218619D02*
X57334095Y-72371000D01*
X57296000Y-72447190D01*
X57257904Y-72485285D01*
X57143619Y-72561476D01*
X56991238Y-72599571D01*
X56686476Y-72599571D01*
X56610285Y-72561476D01*
X56572190Y-72523380D01*
X56534095Y-72447190D01*
X56534095Y-72294809D01*
X56572190Y-72218619D01*
X56610285Y-72180523D01*
X56686476Y-72142428D01*
X56876952Y-72142428D01*
X56953142Y-72180523D01*
X56991238Y-72218619D01*
X57029333Y-72294809D01*
X57029333Y-72447190D01*
X56991238Y-72523380D01*
X56953142Y-72561476D01*
X56876952Y-72599571D01*
X56953142Y-62172809D02*
X56915047Y-62058523D01*
X56876952Y-62020428D01*
X56800761Y-61982333D01*
X56686476Y-61982333D01*
X56610285Y-62020428D01*
X56572190Y-62058523D01*
X56534095Y-62134714D01*
X56534095Y-62439476D01*
X57334095Y-62439476D01*
X57334095Y-62172809D01*
X57296000Y-62096619D01*
X57257904Y-62058523D01*
X57181714Y-62020428D01*
X57105523Y-62020428D01*
X57029333Y-62058523D01*
X56991238Y-62096619D01*
X56953142Y-62172809D01*
X56953142Y-62439476D01*
X57334095Y-61258523D02*
X57334095Y-61639476D01*
X56953142Y-61677571D01*
X56991238Y-61639476D01*
X57029333Y-61563285D01*
X57029333Y-61372809D01*
X56991238Y-61296619D01*
X56953142Y-61258523D01*
X56876952Y-61220428D01*
X56686476Y-61220428D01*
X56610285Y-61258523D01*
X56572190Y-61296619D01*
X56534095Y-61372809D01*
X56534095Y-61563285D01*
X56572190Y-61639476D01*
X56610285Y-61677571D01*
X54413142Y-62172809D02*
X54375047Y-62058523D01*
X54336952Y-62020428D01*
X54260761Y-61982333D01*
X54146476Y-61982333D01*
X54070285Y-62020428D01*
X54032190Y-62058523D01*
X53994095Y-62134714D01*
X53994095Y-62439476D01*
X54794095Y-62439476D01*
X54794095Y-62172809D01*
X54756000Y-62096619D01*
X54717904Y-62058523D01*
X54641714Y-62020428D01*
X54565523Y-62020428D01*
X54489333Y-62058523D01*
X54451238Y-62096619D01*
X54413142Y-62172809D01*
X54413142Y-62439476D01*
X54527428Y-61296619D02*
X53994095Y-61296619D01*
X54832190Y-61487095D02*
X54260761Y-61677571D01*
X54260761Y-61182333D01*
X51873142Y-62401380D02*
X51873142Y-62134714D01*
X51454095Y-62020428D02*
X51454095Y-62401380D01*
X52254095Y-62401380D01*
X52254095Y-62020428D01*
X52254095Y-61334714D02*
X52254095Y-61487095D01*
X52216000Y-61563285D01*
X52177904Y-61601380D01*
X52063619Y-61677571D01*
X51911238Y-61715666D01*
X51606476Y-61715666D01*
X51530285Y-61677571D01*
X51492190Y-61639476D01*
X51454095Y-61563285D01*
X51454095Y-61410904D01*
X51492190Y-61334714D01*
X51530285Y-61296619D01*
X51606476Y-61258523D01*
X51796952Y-61258523D01*
X51873142Y-61296619D01*
X51911238Y-61334714D01*
X51949333Y-61410904D01*
X51949333Y-61563285D01*
X51911238Y-61639476D01*
X51873142Y-61677571D01*
X51796952Y-61715666D01*
X48914095Y-62439476D02*
X49714095Y-62439476D01*
X49714095Y-62249000D01*
X49676000Y-62134714D01*
X49599809Y-62058523D01*
X49523619Y-62020428D01*
X49371238Y-61982333D01*
X49256952Y-61982333D01*
X49104571Y-62020428D01*
X49028380Y-62058523D01*
X48952190Y-62134714D01*
X48914095Y-62249000D01*
X48914095Y-62439476D01*
X49714095Y-61715666D02*
X49714095Y-61182333D01*
X48914095Y-61525190D01*
X46450285Y-61982333D02*
X46412190Y-62020428D01*
X46374095Y-62134714D01*
X46374095Y-62210904D01*
X46412190Y-62325190D01*
X46488380Y-62401380D01*
X46564571Y-62439476D01*
X46716952Y-62477571D01*
X46831238Y-62477571D01*
X46983619Y-62439476D01*
X47059809Y-62401380D01*
X47136000Y-62325190D01*
X47174095Y-62210904D01*
X47174095Y-62134714D01*
X47136000Y-62020428D01*
X47097904Y-61982333D01*
X47174095Y-61296619D02*
X47174095Y-61449000D01*
X47136000Y-61525190D01*
X47097904Y-61563285D01*
X46983619Y-61639476D01*
X46831238Y-61677571D01*
X46526476Y-61677571D01*
X46450285Y-61639476D01*
X46412190Y-61601380D01*
X46374095Y-61525190D01*
X46374095Y-61372809D01*
X46412190Y-61296619D01*
X46450285Y-61258523D01*
X46526476Y-61220428D01*
X46716952Y-61220428D01*
X46793142Y-61258523D01*
X46831238Y-61296619D01*
X46869333Y-61372809D01*
X46869333Y-61525190D01*
X46831238Y-61601380D01*
X46793142Y-61639476D01*
X46716952Y-61677571D01*
X43834095Y-62439476D02*
X44634095Y-62439476D01*
X44634095Y-62249000D01*
X44596000Y-62134714D01*
X44519809Y-62058523D01*
X44443619Y-62020428D01*
X44291238Y-61982333D01*
X44176952Y-61982333D01*
X44024571Y-62020428D01*
X43948380Y-62058523D01*
X43872190Y-62134714D01*
X43834095Y-62249000D01*
X43834095Y-62439476D01*
X44367428Y-61296619D02*
X43834095Y-61296619D01*
X44672190Y-61487095D02*
X44100761Y-61677571D01*
X44100761Y-61182333D01*
X34436000Y-62458523D02*
X34474095Y-62534714D01*
X34474095Y-62649000D01*
X34436000Y-62763285D01*
X34359809Y-62839476D01*
X34283619Y-62877571D01*
X34131238Y-62915666D01*
X34016952Y-62915666D01*
X33864571Y-62877571D01*
X33788380Y-62839476D01*
X33712190Y-62763285D01*
X33674095Y-62649000D01*
X33674095Y-62572809D01*
X33712190Y-62458523D01*
X33750285Y-62420428D01*
X34016952Y-62420428D01*
X34016952Y-62572809D01*
X33674095Y-62077571D02*
X34474095Y-62077571D01*
X33674095Y-61620428D01*
X34474095Y-61620428D01*
X33674095Y-61239476D02*
X34474095Y-61239476D01*
X34474095Y-61049000D01*
X34436000Y-60934714D01*
X34359809Y-60858523D01*
X34283619Y-60820428D01*
X34131238Y-60782333D01*
X34016952Y-60782333D01*
X33864571Y-60820428D01*
X33788380Y-60858523D01*
X33712190Y-60934714D01*
X33674095Y-61049000D01*
X33674095Y-61239476D01*
X36976000Y-62458523D02*
X37014095Y-62534714D01*
X37014095Y-62649000D01*
X36976000Y-62763285D01*
X36899809Y-62839476D01*
X36823619Y-62877571D01*
X36671238Y-62915666D01*
X36556952Y-62915666D01*
X36404571Y-62877571D01*
X36328380Y-62839476D01*
X36252190Y-62763285D01*
X36214095Y-62649000D01*
X36214095Y-62572809D01*
X36252190Y-62458523D01*
X36290285Y-62420428D01*
X36556952Y-62420428D01*
X36556952Y-62572809D01*
X36214095Y-62077571D02*
X37014095Y-62077571D01*
X36214095Y-61620428D01*
X37014095Y-61620428D01*
X36214095Y-61239476D02*
X37014095Y-61239476D01*
X37014095Y-61049000D01*
X36976000Y-60934714D01*
X36899809Y-60858523D01*
X36823619Y-60820428D01*
X36671238Y-60782333D01*
X36556952Y-60782333D01*
X36404571Y-60820428D01*
X36328380Y-60858523D01*
X36252190Y-60934714D01*
X36214095Y-61049000D01*
X36214095Y-61239476D01*
X38754095Y-62439476D02*
X39554095Y-62439476D01*
X39554095Y-62249000D01*
X39516000Y-62134714D01*
X39439809Y-62058523D01*
X39363619Y-62020428D01*
X39211238Y-61982333D01*
X39096952Y-61982333D01*
X38944571Y-62020428D01*
X38868380Y-62058523D01*
X38792190Y-62134714D01*
X38754095Y-62249000D01*
X38754095Y-62439476D01*
X38754095Y-61220428D02*
X38754095Y-61677571D01*
X38754095Y-61449000D02*
X39554095Y-61449000D01*
X39439809Y-61525190D01*
X39363619Y-61601380D01*
X39325523Y-61677571D01*
X41294095Y-62439476D02*
X42094095Y-62439476D01*
X42094095Y-62249000D01*
X42056000Y-62134714D01*
X41979809Y-62058523D01*
X41903619Y-62020428D01*
X41751238Y-61982333D01*
X41636952Y-61982333D01*
X41484571Y-62020428D01*
X41408380Y-62058523D01*
X41332190Y-62134714D01*
X41294095Y-62249000D01*
X41294095Y-62439476D01*
X42094095Y-61487095D02*
X42094095Y-61410904D01*
X42056000Y-61334714D01*
X42017904Y-61296619D01*
X41941714Y-61258523D01*
X41789333Y-61220428D01*
X41598857Y-61220428D01*
X41446476Y-61258523D01*
X41370285Y-61296619D01*
X41332190Y-61334714D01*
X41294095Y-61410904D01*
X41294095Y-61487095D01*
X41332190Y-61563285D01*
X41370285Y-61601380D01*
X41446476Y-61639476D01*
X41598857Y-61677571D01*
X41789333Y-61677571D01*
X41941714Y-61639476D01*
X42017904Y-61601380D01*
X42056000Y-61563285D01*
X42094095Y-61487095D01*
X31134095Y-62439476D02*
X31934095Y-62439476D01*
X31934095Y-62249000D01*
X31896000Y-62134714D01*
X31819809Y-62058523D01*
X31743619Y-62020428D01*
X31591238Y-61982333D01*
X31476952Y-61982333D01*
X31324571Y-62020428D01*
X31248380Y-62058523D01*
X31172190Y-62134714D01*
X31134095Y-62249000D01*
X31134095Y-62439476D01*
X31857904Y-61677571D02*
X31896000Y-61639476D01*
X31934095Y-61563285D01*
X31934095Y-61372809D01*
X31896000Y-61296619D01*
X31857904Y-61258523D01*
X31781714Y-61220428D01*
X31705523Y-61220428D01*
X31591238Y-61258523D01*
X31134095Y-61715666D01*
X31134095Y-61220428D01*
X29394095Y-65928604D02*
X29394095Y-65471461D01*
X28594095Y-65700032D02*
X29394095Y-65700032D01*
X29394095Y-65280985D02*
X28594095Y-64747651D01*
X29394095Y-64747651D02*
X28594095Y-65280985D01*
X29394095Y-64290508D02*
X29394095Y-64214318D01*
X29356000Y-64138128D01*
X29317904Y-64100032D01*
X29241714Y-64061937D01*
X29089333Y-64023842D01*
X28898857Y-64023842D01*
X28746476Y-64061937D01*
X28670285Y-64100032D01*
X28632190Y-64138128D01*
X28594095Y-64214318D01*
X28594095Y-64290508D01*
X28632190Y-64366699D01*
X28670285Y-64404794D01*
X28746476Y-64442889D01*
X28898857Y-64480985D01*
X29089333Y-64480985D01*
X29241714Y-64442889D01*
X29317904Y-64404794D01*
X29356000Y-64366699D01*
X29394095Y-64290508D01*
X29432190Y-63109556D02*
X28403619Y-63795270D01*
X28594095Y-62842889D02*
X29394095Y-62842889D01*
X29394095Y-62652413D01*
X29356000Y-62538128D01*
X29279809Y-62461937D01*
X29203619Y-62423842D01*
X29051238Y-62385747D01*
X28936952Y-62385747D01*
X28784571Y-62423842D01*
X28708380Y-62461937D01*
X28632190Y-62538128D01*
X28594095Y-62652413D01*
X28594095Y-62842889D01*
X29394095Y-62119080D02*
X29394095Y-61623842D01*
X29089333Y-61890508D01*
X29089333Y-61776223D01*
X29051238Y-61700032D01*
X29013142Y-61661937D01*
X28936952Y-61623842D01*
X28746476Y-61623842D01*
X28670285Y-61661937D01*
X28632190Y-61700032D01*
X28594095Y-61776223D01*
X28594095Y-62004794D01*
X28632190Y-62080985D01*
X28670285Y-62119080D01*
G04 #@! TO.C,D49*
X125420285Y-102870380D02*
X125420285Y-101870380D01*
X125182190Y-101870380D01*
X125039333Y-101918000D01*
X124944095Y-102013238D01*
X124896476Y-102108476D01*
X124848857Y-102298952D01*
X124848857Y-102441809D01*
X124896476Y-102632285D01*
X124944095Y-102727523D01*
X125039333Y-102822761D01*
X125182190Y-102870380D01*
X125420285Y-102870380D01*
X123991714Y-102203714D02*
X123991714Y-102870380D01*
X124229809Y-101822761D02*
X124467904Y-102537047D01*
X123848857Y-102537047D01*
X123420285Y-102870380D02*
X123229809Y-102870380D01*
X123134571Y-102822761D01*
X123086952Y-102775142D01*
X122991714Y-102632285D01*
X122944095Y-102441809D01*
X122944095Y-102060857D01*
X122991714Y-101965619D01*
X123039333Y-101918000D01*
X123134571Y-101870380D01*
X123325047Y-101870380D01*
X123420285Y-101918000D01*
X123467904Y-101965619D01*
X123515523Y-102060857D01*
X123515523Y-102298952D01*
X123467904Y-102394190D01*
X123420285Y-102441809D01*
X123325047Y-102489428D01*
X123134571Y-102489428D01*
X123039333Y-102441809D01*
X122991714Y-102394190D01*
X122944095Y-102298952D01*
X128070285Y-104770380D02*
X128641714Y-104770380D01*
X128356000Y-104770380D02*
X128356000Y-103770380D01*
X128451238Y-103913238D01*
X128546476Y-104008476D01*
X128641714Y-104056095D01*
G04 #@! TO.C,D52*
X235873285Y-102628880D02*
X235873285Y-101628880D01*
X235635190Y-101628880D01*
X235492333Y-101676500D01*
X235397095Y-101771738D01*
X235349476Y-101866976D01*
X235301857Y-102057452D01*
X235301857Y-102200309D01*
X235349476Y-102390785D01*
X235397095Y-102486023D01*
X235492333Y-102581261D01*
X235635190Y-102628880D01*
X235873285Y-102628880D01*
X234397095Y-101628880D02*
X234873285Y-101628880D01*
X234920904Y-102105071D01*
X234873285Y-102057452D01*
X234778047Y-102009833D01*
X234539952Y-102009833D01*
X234444714Y-102057452D01*
X234397095Y-102105071D01*
X234349476Y-102200309D01*
X234349476Y-102438404D01*
X234397095Y-102533642D01*
X234444714Y-102581261D01*
X234539952Y-102628880D01*
X234778047Y-102628880D01*
X234873285Y-102581261D01*
X234920904Y-102533642D01*
X233968523Y-101724119D02*
X233920904Y-101676500D01*
X233825666Y-101628880D01*
X233587571Y-101628880D01*
X233492333Y-101676500D01*
X233444714Y-101724119D01*
X233397095Y-101819357D01*
X233397095Y-101914595D01*
X233444714Y-102057452D01*
X234016142Y-102628880D01*
X233397095Y-102628880D01*
X238523285Y-104528880D02*
X239094714Y-104528880D01*
X238809000Y-104528880D02*
X238809000Y-103528880D01*
X238904238Y-103671738D01*
X238999476Y-103766976D01*
X239094714Y-103814595D01*
G04 #@! TO.C,D51*
X193238285Y-103048380D02*
X193238285Y-102048380D01*
X193000190Y-102048380D01*
X192857333Y-102096000D01*
X192762095Y-102191238D01*
X192714476Y-102286476D01*
X192666857Y-102476952D01*
X192666857Y-102619809D01*
X192714476Y-102810285D01*
X192762095Y-102905523D01*
X192857333Y-103000761D01*
X193000190Y-103048380D01*
X193238285Y-103048380D01*
X191762095Y-102048380D02*
X192238285Y-102048380D01*
X192285904Y-102524571D01*
X192238285Y-102476952D01*
X192143047Y-102429333D01*
X191904952Y-102429333D01*
X191809714Y-102476952D01*
X191762095Y-102524571D01*
X191714476Y-102619809D01*
X191714476Y-102857904D01*
X191762095Y-102953142D01*
X191809714Y-103000761D01*
X191904952Y-103048380D01*
X192143047Y-103048380D01*
X192238285Y-103000761D01*
X192285904Y-102953142D01*
X190762095Y-103048380D02*
X191333523Y-103048380D01*
X191047809Y-103048380D02*
X191047809Y-102048380D01*
X191143047Y-102191238D01*
X191238285Y-102286476D01*
X191333523Y-102334095D01*
X195888285Y-104948380D02*
X196459714Y-104948380D01*
X196174000Y-104948380D02*
X196174000Y-103948380D01*
X196269238Y-104091238D01*
X196364476Y-104186476D01*
X196459714Y-104234095D01*
G04 #@! TO.C,D47*
X45182785Y-102667380D02*
X45182785Y-101667380D01*
X44944690Y-101667380D01*
X44801833Y-101715000D01*
X44706595Y-101810238D01*
X44658976Y-101905476D01*
X44611357Y-102095952D01*
X44611357Y-102238809D01*
X44658976Y-102429285D01*
X44706595Y-102524523D01*
X44801833Y-102619761D01*
X44944690Y-102667380D01*
X45182785Y-102667380D01*
X43754214Y-102000714D02*
X43754214Y-102667380D01*
X43992309Y-101619761D02*
X44230404Y-102334047D01*
X43611357Y-102334047D01*
X43325642Y-101667380D02*
X42658976Y-101667380D01*
X43087547Y-102667380D01*
X47832785Y-104567380D02*
X48404214Y-104567380D01*
X48118500Y-104567380D02*
X48118500Y-103567380D01*
X48213738Y-103710238D01*
X48308976Y-103805476D01*
X48404214Y-103853095D01*
G04 #@! TO.C,D50*
X155646285Y-102870380D02*
X155646285Y-101870380D01*
X155408190Y-101870380D01*
X155265333Y-101918000D01*
X155170095Y-102013238D01*
X155122476Y-102108476D01*
X155074857Y-102298952D01*
X155074857Y-102441809D01*
X155122476Y-102632285D01*
X155170095Y-102727523D01*
X155265333Y-102822761D01*
X155408190Y-102870380D01*
X155646285Y-102870380D01*
X154170095Y-101870380D02*
X154646285Y-101870380D01*
X154693904Y-102346571D01*
X154646285Y-102298952D01*
X154551047Y-102251333D01*
X154312952Y-102251333D01*
X154217714Y-102298952D01*
X154170095Y-102346571D01*
X154122476Y-102441809D01*
X154122476Y-102679904D01*
X154170095Y-102775142D01*
X154217714Y-102822761D01*
X154312952Y-102870380D01*
X154551047Y-102870380D01*
X154646285Y-102822761D01*
X154693904Y-102775142D01*
X153503428Y-101870380D02*
X153408190Y-101870380D01*
X153312952Y-101918000D01*
X153265333Y-101965619D01*
X153217714Y-102060857D01*
X153170095Y-102251333D01*
X153170095Y-102489428D01*
X153217714Y-102679904D01*
X153265333Y-102775142D01*
X153312952Y-102822761D01*
X153408190Y-102870380D01*
X153503428Y-102870380D01*
X153598666Y-102822761D01*
X153646285Y-102775142D01*
X153693904Y-102679904D01*
X153741523Y-102489428D01*
X153741523Y-102251333D01*
X153693904Y-102060857D01*
X153646285Y-101965619D01*
X153598666Y-101918000D01*
X153503428Y-101870380D01*
X158296285Y-104770380D02*
X158867714Y-104770380D01*
X158582000Y-104770380D02*
X158582000Y-103770380D01*
X158677238Y-103913238D01*
X158772476Y-104008476D01*
X158867714Y-104056095D01*
G04 #@! TO.C,D48*
X86304285Y-102794380D02*
X86304285Y-101794380D01*
X86066190Y-101794380D01*
X85923333Y-101842000D01*
X85828095Y-101937238D01*
X85780476Y-102032476D01*
X85732857Y-102222952D01*
X85732857Y-102365809D01*
X85780476Y-102556285D01*
X85828095Y-102651523D01*
X85923333Y-102746761D01*
X86066190Y-102794380D01*
X86304285Y-102794380D01*
X84875714Y-102127714D02*
X84875714Y-102794380D01*
X85113809Y-101746761D02*
X85351904Y-102461047D01*
X84732857Y-102461047D01*
X84209047Y-102222952D02*
X84304285Y-102175333D01*
X84351904Y-102127714D01*
X84399523Y-102032476D01*
X84399523Y-101984857D01*
X84351904Y-101889619D01*
X84304285Y-101842000D01*
X84209047Y-101794380D01*
X84018571Y-101794380D01*
X83923333Y-101842000D01*
X83875714Y-101889619D01*
X83828095Y-101984857D01*
X83828095Y-102032476D01*
X83875714Y-102127714D01*
X83923333Y-102175333D01*
X84018571Y-102222952D01*
X84209047Y-102222952D01*
X84304285Y-102270571D01*
X84351904Y-102318190D01*
X84399523Y-102413428D01*
X84399523Y-102603904D01*
X84351904Y-102699142D01*
X84304285Y-102746761D01*
X84209047Y-102794380D01*
X84018571Y-102794380D01*
X83923333Y-102746761D01*
X83875714Y-102699142D01*
X83828095Y-102603904D01*
X83828095Y-102413428D01*
X83875714Y-102318190D01*
X83923333Y-102270571D01*
X84018571Y-102222952D01*
X88954285Y-104694380D02*
X89525714Y-104694380D01*
X89240000Y-104694380D02*
X89240000Y-103694380D01*
X89335238Y-103837238D01*
X89430476Y-103932476D01*
X89525714Y-103980095D01*
G04 #@! TD*
M02*
