G04 #@! TF.GenerationSoftware,KiCad,Pcbnew,(5.0.2)-1*
G04 #@! TF.CreationDate,2019-02-01T17:27:45-05:00*
G04 #@! TF.ProjectId,TG4x,54473478-2e6b-4696-9361-645f70636258,rev?*
G04 #@! TF.SameCoordinates,Original*
G04 #@! TF.FileFunction,Legend,Bot*
G04 #@! TF.FilePolarity,Positive*
%FSLAX46Y46*%
G04 Gerber Fmt 4.6, Leading zero omitted, Abs format (unit mm)*
G04 Created by KiCad (PCBNEW (5.0.2)-1) date 2/1/2019 5:27:45 PM*
%MOMM*%
%LPD*%
G01*
G04 APERTURE LIST*
%ADD10C,0.300000*%
%ADD11C,0.125000*%
%ADD12C,0.250000*%
%ADD13C,0.400000*%
%ADD14C,0.200000*%
%ADD15C,2.750000*%
%ADD16C,1.375000*%
%ADD17C,0.150000*%
%ADD18C,0.120000*%
G04 APERTURE END LIST*
D10*
X195275714Y-112692571D02*
X195275714Y-111192571D01*
X194632857Y-112692571D02*
X194632857Y-111906857D01*
X194704285Y-111764000D01*
X194847142Y-111692571D01*
X195061428Y-111692571D01*
X195204285Y-111764000D01*
X195275714Y-111835428D01*
X194132857Y-111692571D02*
X193561428Y-111692571D01*
X193918571Y-111192571D02*
X193918571Y-112478285D01*
X193847142Y-112621142D01*
X193704285Y-112692571D01*
X193561428Y-112692571D01*
X193275714Y-111692571D02*
X192704285Y-111692571D01*
X193061428Y-111192571D02*
X193061428Y-112478285D01*
X192990000Y-112621142D01*
X192847142Y-112692571D01*
X192704285Y-112692571D01*
X192204285Y-111692571D02*
X192204285Y-113192571D01*
X192204285Y-111764000D02*
X192061428Y-111692571D01*
X191775714Y-111692571D01*
X191632857Y-111764000D01*
X191561428Y-111835428D01*
X191490000Y-111978285D01*
X191490000Y-112406857D01*
X191561428Y-112549714D01*
X191632857Y-112621142D01*
X191775714Y-112692571D01*
X192061428Y-112692571D01*
X192204285Y-112621142D01*
X190918571Y-112621142D02*
X190775714Y-112692571D01*
X190490000Y-112692571D01*
X190347142Y-112621142D01*
X190275714Y-112478285D01*
X190275714Y-112406857D01*
X190347142Y-112264000D01*
X190490000Y-112192571D01*
X190704285Y-112192571D01*
X190847142Y-112121142D01*
X190918571Y-111978285D01*
X190918571Y-111906857D01*
X190847142Y-111764000D01*
X190704285Y-111692571D01*
X190490000Y-111692571D01*
X190347142Y-111764000D01*
X189632857Y-112549714D02*
X189561428Y-112621142D01*
X189632857Y-112692571D01*
X189704285Y-112621142D01*
X189632857Y-112549714D01*
X189632857Y-112692571D01*
X189632857Y-111764000D02*
X189561428Y-111835428D01*
X189632857Y-111906857D01*
X189704285Y-111835428D01*
X189632857Y-111764000D01*
X189632857Y-111906857D01*
X187847142Y-111121142D02*
X189132857Y-113049714D01*
X186275714Y-111121142D02*
X187561428Y-113049714D01*
X185132857Y-111692571D02*
X185132857Y-112906857D01*
X185204285Y-113049714D01*
X185275714Y-113121142D01*
X185418571Y-113192571D01*
X185632857Y-113192571D01*
X185775714Y-113121142D01*
X185132857Y-112621142D02*
X185275714Y-112692571D01*
X185561428Y-112692571D01*
X185704285Y-112621142D01*
X185775714Y-112549714D01*
X185847142Y-112406857D01*
X185847142Y-111978285D01*
X185775714Y-111835428D01*
X185704285Y-111764000D01*
X185561428Y-111692571D01*
X185275714Y-111692571D01*
X185132857Y-111764000D01*
X184418571Y-112692571D02*
X184418571Y-111692571D01*
X184418571Y-111192571D02*
X184490000Y-111264000D01*
X184418571Y-111335428D01*
X184347142Y-111264000D01*
X184418571Y-111192571D01*
X184418571Y-111335428D01*
X183918571Y-111692571D02*
X183347142Y-111692571D01*
X183704285Y-111192571D02*
X183704285Y-112478285D01*
X183632857Y-112621142D01*
X183490000Y-112692571D01*
X183347142Y-112692571D01*
X182847142Y-112692571D02*
X182847142Y-111192571D01*
X182204285Y-112692571D02*
X182204285Y-111906857D01*
X182275714Y-111764000D01*
X182418571Y-111692571D01*
X182632857Y-111692571D01*
X182775714Y-111764000D01*
X182847142Y-111835428D01*
X180847142Y-111692571D02*
X180847142Y-112692571D01*
X181490000Y-111692571D02*
X181490000Y-112478285D01*
X181418571Y-112621142D01*
X181275714Y-112692571D01*
X181061428Y-112692571D01*
X180918571Y-112621142D01*
X180847142Y-112549714D01*
X180132857Y-112692571D02*
X180132857Y-111192571D01*
X180132857Y-111764000D02*
X179990000Y-111692571D01*
X179704285Y-111692571D01*
X179561428Y-111764000D01*
X179490000Y-111835428D01*
X179418571Y-111978285D01*
X179418571Y-112406857D01*
X179490000Y-112549714D01*
X179561428Y-112621142D01*
X179704285Y-112692571D01*
X179990000Y-112692571D01*
X180132857Y-112621142D01*
X178775714Y-112549714D02*
X178704285Y-112621142D01*
X178775714Y-112692571D01*
X178847142Y-112621142D01*
X178775714Y-112549714D01*
X178775714Y-112692571D01*
X177418571Y-112621142D02*
X177561428Y-112692571D01*
X177847142Y-112692571D01*
X177990000Y-112621142D01*
X178061428Y-112549714D01*
X178132857Y-112406857D01*
X178132857Y-111978285D01*
X178061428Y-111835428D01*
X177990000Y-111764000D01*
X177847142Y-111692571D01*
X177561428Y-111692571D01*
X177418571Y-111764000D01*
X176561428Y-112692571D02*
X176704285Y-112621142D01*
X176775714Y-112549714D01*
X176847142Y-112406857D01*
X176847142Y-111978285D01*
X176775714Y-111835428D01*
X176704285Y-111764000D01*
X176561428Y-111692571D01*
X176347142Y-111692571D01*
X176204285Y-111764000D01*
X176132857Y-111835428D01*
X176061428Y-111978285D01*
X176061428Y-112406857D01*
X176132857Y-112549714D01*
X176204285Y-112621142D01*
X176347142Y-112692571D01*
X176561428Y-112692571D01*
X175418571Y-112692571D02*
X175418571Y-111692571D01*
X175418571Y-111835428D02*
X175347142Y-111764000D01*
X175204285Y-111692571D01*
X174990000Y-111692571D01*
X174847142Y-111764000D01*
X174775714Y-111906857D01*
X174775714Y-112692571D01*
X174775714Y-111906857D02*
X174704285Y-111764000D01*
X174561428Y-111692571D01*
X174347142Y-111692571D01*
X174204285Y-111764000D01*
X174132857Y-111906857D01*
X174132857Y-112692571D01*
X172347142Y-111121142D02*
X173632857Y-113049714D01*
X171847142Y-112692571D02*
X171847142Y-111192571D01*
X171347142Y-112264000D01*
X170847142Y-111192571D01*
X170847142Y-112692571D01*
X170275714Y-111692571D02*
X169918571Y-112692571D01*
X169561428Y-111692571D02*
X169918571Y-112692571D01*
X170061428Y-113049714D01*
X170132857Y-113121142D01*
X170275714Y-113192571D01*
X169204285Y-111692571D02*
X168632857Y-111692571D01*
X168990000Y-111192571D02*
X168990000Y-112478285D01*
X168918571Y-112621142D01*
X168775714Y-112692571D01*
X168632857Y-112692571D01*
X168132857Y-112692571D02*
X168132857Y-111192571D01*
X167490000Y-112692571D02*
X167490000Y-111906857D01*
X167561428Y-111764000D01*
X167704285Y-111692571D01*
X167918571Y-111692571D01*
X168061428Y-111764000D01*
X168132857Y-111835428D01*
X166561428Y-112692571D02*
X166704285Y-112621142D01*
X166775714Y-112549714D01*
X166847142Y-112406857D01*
X166847142Y-111978285D01*
X166775714Y-111835428D01*
X166704285Y-111764000D01*
X166561428Y-111692571D01*
X166347142Y-111692571D01*
X166204285Y-111764000D01*
X166132857Y-111835428D01*
X166061428Y-111978285D01*
X166061428Y-112406857D01*
X166132857Y-112549714D01*
X166204285Y-112621142D01*
X166347142Y-112692571D01*
X166561428Y-112692571D01*
X165490000Y-112621142D02*
X165347142Y-112692571D01*
X165061428Y-112692571D01*
X164918571Y-112621142D01*
X164847142Y-112478285D01*
X164847142Y-112406857D01*
X164918571Y-112264000D01*
X165061428Y-112192571D01*
X165275714Y-112192571D01*
X165418571Y-112121142D01*
X165490000Y-111978285D01*
X165490000Y-111906857D01*
X165418571Y-111764000D01*
X165275714Y-111692571D01*
X165061428Y-111692571D01*
X164918571Y-111764000D01*
X164204285Y-112692571D02*
X164204285Y-111192571D01*
X163704285Y-112264000D01*
X163204285Y-111192571D01*
X163204285Y-112692571D01*
X161847142Y-112692571D02*
X161847142Y-111906857D01*
X161918571Y-111764000D01*
X162061428Y-111692571D01*
X162347142Y-111692571D01*
X162490000Y-111764000D01*
X161847142Y-112621142D02*
X161990000Y-112692571D01*
X162347142Y-112692571D01*
X162490000Y-112621142D01*
X162561428Y-112478285D01*
X162561428Y-112335428D01*
X162490000Y-112192571D01*
X162347142Y-112121142D01*
X161990000Y-112121142D01*
X161847142Y-112049714D01*
X161132857Y-111692571D02*
X161132857Y-112692571D01*
X161132857Y-111835428D02*
X161061428Y-111764000D01*
X160918571Y-111692571D01*
X160704285Y-111692571D01*
X160561428Y-111764000D01*
X160490000Y-111906857D01*
X160490000Y-112692571D01*
X159775714Y-111692571D02*
X159775714Y-112692571D01*
X159775714Y-111835428D02*
X159704285Y-111764000D01*
X159561428Y-111692571D01*
X159347142Y-111692571D01*
X159204285Y-111764000D01*
X159132857Y-111906857D01*
X159132857Y-112692571D01*
X157347142Y-111121142D02*
X158632857Y-113049714D01*
X157061428Y-111692571D02*
X156490000Y-111692571D01*
X156847142Y-111192571D02*
X156847142Y-112478285D01*
X156775714Y-112621142D01*
X156632857Y-112692571D01*
X156490000Y-112692571D01*
X155347142Y-111692571D02*
X155347142Y-112906857D01*
X155418571Y-113049714D01*
X155490000Y-113121142D01*
X155632857Y-113192571D01*
X155847142Y-113192571D01*
X155990000Y-113121142D01*
X155347142Y-112621142D02*
X155490000Y-112692571D01*
X155775714Y-112692571D01*
X155918571Y-112621142D01*
X155990000Y-112549714D01*
X156061428Y-112406857D01*
X156061428Y-111978285D01*
X155990000Y-111835428D01*
X155918571Y-111764000D01*
X155775714Y-111692571D01*
X155490000Y-111692571D01*
X155347142Y-111764000D01*
X153990000Y-111692571D02*
X153990000Y-112692571D01*
X154347142Y-111121142D02*
X154704285Y-112192571D01*
X153775714Y-112192571D01*
X153347142Y-112692571D02*
X152561428Y-111692571D01*
X153347142Y-111692571D02*
X152561428Y-112692571D01*
D11*
X27051047Y-59670190D02*
X27336761Y-59670190D01*
X27193904Y-60170190D02*
X27193904Y-59670190D01*
X27455809Y-59670190D02*
X27789142Y-60170190D01*
X27789142Y-59670190D02*
X27455809Y-60170190D01*
D12*
X44600761Y-72659904D02*
X44648380Y-72564666D01*
X44648380Y-72374190D01*
X44600761Y-72278952D01*
X44553142Y-72231333D01*
X44457904Y-72183714D01*
X44172190Y-72183714D01*
X44076952Y-72231333D01*
X44029333Y-72278952D01*
X43981714Y-72374190D01*
X43981714Y-72564666D01*
X44029333Y-72659904D01*
X44076952Y-73231333D02*
X44029333Y-73136095D01*
X43981714Y-73088476D01*
X43886476Y-73040857D01*
X43838857Y-73040857D01*
X43743619Y-73088476D01*
X43696000Y-73136095D01*
X43648380Y-73231333D01*
X43648380Y-73421809D01*
X43696000Y-73517047D01*
X43743619Y-73564666D01*
X43838857Y-73612285D01*
X43886476Y-73612285D01*
X43981714Y-73564666D01*
X44029333Y-73517047D01*
X44076952Y-73421809D01*
X44076952Y-73231333D01*
X44124571Y-73136095D01*
X44172190Y-73088476D01*
X44267428Y-73040857D01*
X44457904Y-73040857D01*
X44553142Y-73088476D01*
X44600761Y-73136095D01*
X44648380Y-73231333D01*
X44648380Y-73421809D01*
X44600761Y-73517047D01*
X44553142Y-73564666D01*
X44457904Y-73612285D01*
X44267428Y-73612285D01*
X44172190Y-73564666D01*
X44124571Y-73517047D01*
X44076952Y-73421809D01*
X47140761Y-72659904D02*
X47188380Y-72564666D01*
X47188380Y-72374190D01*
X47140761Y-72278952D01*
X47093142Y-72231333D01*
X46997904Y-72183714D01*
X46712190Y-72183714D01*
X46616952Y-72231333D01*
X46569333Y-72278952D01*
X46521714Y-72374190D01*
X46521714Y-72564666D01*
X46569333Y-72659904D01*
X47188380Y-73136095D02*
X47188380Y-73326571D01*
X47140761Y-73421809D01*
X47093142Y-73469428D01*
X46950285Y-73564666D01*
X46759809Y-73612285D01*
X46378857Y-73612285D01*
X46283619Y-73564666D01*
X46236000Y-73517047D01*
X46188380Y-73421809D01*
X46188380Y-73231333D01*
X46236000Y-73136095D01*
X46283619Y-73088476D01*
X46378857Y-73040857D01*
X46616952Y-73040857D01*
X46712190Y-73088476D01*
X46759809Y-73136095D01*
X46807428Y-73231333D01*
X46807428Y-73421809D01*
X46759809Y-73517047D01*
X46712190Y-73564666D01*
X46616952Y-73612285D01*
X49680761Y-72707523D02*
X49728380Y-72612285D01*
X49728380Y-72421809D01*
X49680761Y-72326571D01*
X49633142Y-72278952D01*
X49537904Y-72231333D01*
X49252190Y-72231333D01*
X49156952Y-72278952D01*
X49109333Y-72326571D01*
X49061714Y-72421809D01*
X49061714Y-72612285D01*
X49109333Y-72707523D01*
X49442666Y-73088476D02*
X49442666Y-73564666D01*
X49728380Y-72993238D02*
X48728380Y-73326571D01*
X49728380Y-73659904D01*
X52220761Y-72636095D02*
X52268380Y-72540857D01*
X52268380Y-72350380D01*
X52220761Y-72255142D01*
X52173142Y-72207523D01*
X52077904Y-72159904D01*
X51792190Y-72159904D01*
X51696952Y-72207523D01*
X51649333Y-72255142D01*
X51601714Y-72350380D01*
X51601714Y-72540857D01*
X51649333Y-72636095D01*
X51744571Y-73398000D02*
X51792190Y-73540857D01*
X51839809Y-73588476D01*
X51935047Y-73636095D01*
X52077904Y-73636095D01*
X52173142Y-73588476D01*
X52220761Y-73540857D01*
X52268380Y-73445619D01*
X52268380Y-73064666D01*
X51268380Y-73064666D01*
X51268380Y-73398000D01*
X51316000Y-73493238D01*
X51363619Y-73540857D01*
X51458857Y-73588476D01*
X51554095Y-73588476D01*
X51649333Y-73540857D01*
X51696952Y-73493238D01*
X51744571Y-73398000D01*
X51744571Y-73064666D01*
X54760761Y-72636095D02*
X54808380Y-72540857D01*
X54808380Y-72350380D01*
X54760761Y-72255142D01*
X54713142Y-72207523D01*
X54617904Y-72159904D01*
X54332190Y-72159904D01*
X54236952Y-72207523D01*
X54189333Y-72255142D01*
X54141714Y-72350380D01*
X54141714Y-72540857D01*
X54189333Y-72636095D01*
X54713142Y-73636095D02*
X54760761Y-73588476D01*
X54808380Y-73445619D01*
X54808380Y-73350380D01*
X54760761Y-73207523D01*
X54665523Y-73112285D01*
X54570285Y-73064666D01*
X54379809Y-73017047D01*
X54236952Y-73017047D01*
X54046476Y-73064666D01*
X53951238Y-73112285D01*
X53856000Y-73207523D01*
X53808380Y-73350380D01*
X53808380Y-73445619D01*
X53856000Y-73588476D01*
X53903619Y-73636095D01*
X57348380Y-71747142D02*
X57348380Y-71270952D01*
X56348380Y-71270952D01*
X56824571Y-72080476D02*
X56824571Y-72413809D01*
X57348380Y-72556666D02*
X57348380Y-72080476D01*
X56348380Y-72080476D01*
X56348380Y-72556666D01*
X57348380Y-72985238D02*
X56348380Y-72985238D01*
X56348380Y-73223333D01*
X56396000Y-73366190D01*
X56491238Y-73461428D01*
X56586476Y-73509047D01*
X56776952Y-73556666D01*
X56919809Y-73556666D01*
X57110285Y-73509047D01*
X57205523Y-73461428D01*
X57300761Y-73366190D01*
X57348380Y-73223333D01*
X57348380Y-72985238D01*
X42108380Y-72350380D02*
X41441714Y-72350380D01*
X41632190Y-72350380D02*
X41536952Y-72398000D01*
X41489333Y-72445619D01*
X41441714Y-72540857D01*
X41441714Y-72636095D01*
X41203619Y-72921809D02*
X41156000Y-72969428D01*
X41108380Y-73064666D01*
X41108380Y-73302761D01*
X41156000Y-73398000D01*
X41203619Y-73445619D01*
X41298857Y-73493238D01*
X41394095Y-73493238D01*
X41536952Y-73445619D01*
X42108380Y-72874190D01*
X42108380Y-73493238D01*
X39568380Y-72350380D02*
X38901714Y-72350380D01*
X39092190Y-72350380D02*
X38996952Y-72398000D01*
X38949333Y-72445619D01*
X38901714Y-72540857D01*
X38901714Y-72636095D01*
X38568380Y-72874190D02*
X38568380Y-73493238D01*
X38949333Y-73159904D01*
X38949333Y-73302761D01*
X38996952Y-73398000D01*
X39044571Y-73445619D01*
X39139809Y-73493238D01*
X39377904Y-73493238D01*
X39473142Y-73445619D01*
X39520761Y-73398000D01*
X39568380Y-73302761D01*
X39568380Y-73017047D01*
X39520761Y-72921809D01*
X39473142Y-72874190D01*
X36028380Y-71056666D02*
X37028380Y-71390000D01*
X36028380Y-71723333D01*
X36933142Y-72628095D02*
X36980761Y-72580476D01*
X37028380Y-72437619D01*
X37028380Y-72342380D01*
X36980761Y-72199523D01*
X36885523Y-72104285D01*
X36790285Y-72056666D01*
X36599809Y-72009047D01*
X36456952Y-72009047D01*
X36266476Y-72056666D01*
X36171238Y-72104285D01*
X36076000Y-72199523D01*
X36028380Y-72342380D01*
X36028380Y-72437619D01*
X36076000Y-72580476D01*
X36123619Y-72628095D01*
X36933142Y-73628095D02*
X36980761Y-73580476D01*
X37028380Y-73437619D01*
X37028380Y-73342380D01*
X36980761Y-73199523D01*
X36885523Y-73104285D01*
X36790285Y-73056666D01*
X36599809Y-73009047D01*
X36456952Y-73009047D01*
X36266476Y-73056666D01*
X36171238Y-73104285D01*
X36076000Y-73199523D01*
X36028380Y-73342380D01*
X36028380Y-73437619D01*
X36076000Y-73580476D01*
X36123619Y-73628095D01*
X34488380Y-71842380D02*
X34012190Y-71509047D01*
X34488380Y-71270952D02*
X33488380Y-71270952D01*
X33488380Y-71651904D01*
X33536000Y-71747142D01*
X33583619Y-71794761D01*
X33678857Y-71842380D01*
X33821714Y-71842380D01*
X33916952Y-71794761D01*
X33964571Y-71747142D01*
X34012190Y-71651904D01*
X34012190Y-71270952D01*
X34440761Y-72223333D02*
X34488380Y-72366190D01*
X34488380Y-72604285D01*
X34440761Y-72699523D01*
X34393142Y-72747142D01*
X34297904Y-72794761D01*
X34202666Y-72794761D01*
X34107428Y-72747142D01*
X34059809Y-72699523D01*
X34012190Y-72604285D01*
X33964571Y-72413809D01*
X33916952Y-72318571D01*
X33869333Y-72270952D01*
X33774095Y-72223333D01*
X33678857Y-72223333D01*
X33583619Y-72270952D01*
X33536000Y-72318571D01*
X33488380Y-72413809D01*
X33488380Y-72651904D01*
X33536000Y-72794761D01*
X33488380Y-73080476D02*
X33488380Y-73651904D01*
X34488380Y-73366190D02*
X33488380Y-73366190D01*
X30996000Y-71628095D02*
X30948380Y-71532857D01*
X30948380Y-71390000D01*
X30996000Y-71247142D01*
X31091238Y-71151904D01*
X31186476Y-71104285D01*
X31376952Y-71056666D01*
X31519809Y-71056666D01*
X31710285Y-71104285D01*
X31805523Y-71151904D01*
X31900761Y-71247142D01*
X31948380Y-71390000D01*
X31948380Y-71485238D01*
X31900761Y-71628095D01*
X31853142Y-71675714D01*
X31519809Y-71675714D01*
X31519809Y-71485238D01*
X31948380Y-72104285D02*
X30948380Y-72104285D01*
X31948380Y-72675714D01*
X30948380Y-72675714D01*
X31948380Y-73151904D02*
X30948380Y-73151904D01*
X30948380Y-73390000D01*
X30996000Y-73532857D01*
X31091238Y-73628095D01*
X31186476Y-73675714D01*
X31376952Y-73723333D01*
X31519809Y-73723333D01*
X31710285Y-73675714D01*
X31805523Y-73628095D01*
X31900761Y-73532857D01*
X31948380Y-73390000D01*
X31948380Y-73151904D01*
X29408380Y-71699523D02*
X28932190Y-71366190D01*
X29408380Y-71128095D02*
X28408380Y-71128095D01*
X28408380Y-71509047D01*
X28456000Y-71604285D01*
X28503619Y-71651904D01*
X28598857Y-71699523D01*
X28741714Y-71699523D01*
X28836952Y-71651904D01*
X28884571Y-71604285D01*
X28932190Y-71509047D01*
X28932190Y-71128095D01*
X29122666Y-72080476D02*
X29122666Y-72556666D01*
X29408380Y-71985238D02*
X28408380Y-72318571D01*
X29408380Y-72651904D01*
X28408380Y-72890000D02*
X29408380Y-73128095D01*
X28694095Y-73318571D01*
X29408380Y-73509047D01*
X28408380Y-73747142D01*
X57300761Y-57165904D02*
X57348380Y-57070666D01*
X57348380Y-56880190D01*
X57300761Y-56784952D01*
X57253142Y-56737333D01*
X57157904Y-56689714D01*
X56872190Y-56689714D01*
X56776952Y-56737333D01*
X56729333Y-56784952D01*
X56681714Y-56880190D01*
X56681714Y-57070666D01*
X56729333Y-57165904D01*
X56348380Y-57784952D02*
X56348380Y-57880190D01*
X56396000Y-57975428D01*
X56443619Y-58023047D01*
X56538857Y-58070666D01*
X56729333Y-58118285D01*
X56967428Y-58118285D01*
X57157904Y-58070666D01*
X57253142Y-58023047D01*
X57300761Y-57975428D01*
X57348380Y-57880190D01*
X57348380Y-57784952D01*
X57300761Y-57689714D01*
X57253142Y-57642095D01*
X57157904Y-57594476D01*
X56967428Y-57546857D01*
X56729333Y-57546857D01*
X56538857Y-57594476D01*
X56443619Y-57642095D01*
X56396000Y-57689714D01*
X56348380Y-57784952D01*
X54760761Y-57165904D02*
X54808380Y-57070666D01*
X54808380Y-56880190D01*
X54760761Y-56784952D01*
X54713142Y-56737333D01*
X54617904Y-56689714D01*
X54332190Y-56689714D01*
X54236952Y-56737333D01*
X54189333Y-56784952D01*
X54141714Y-56880190D01*
X54141714Y-57070666D01*
X54189333Y-57165904D01*
X54808380Y-58118285D02*
X54808380Y-57546857D01*
X54808380Y-57832571D02*
X53808380Y-57832571D01*
X53951238Y-57737333D01*
X54046476Y-57642095D01*
X54094095Y-57546857D01*
X52220761Y-57165904D02*
X52268380Y-57070666D01*
X52268380Y-56880190D01*
X52220761Y-56784952D01*
X52173142Y-56737333D01*
X52077904Y-56689714D01*
X51792190Y-56689714D01*
X51696952Y-56737333D01*
X51649333Y-56784952D01*
X51601714Y-56880190D01*
X51601714Y-57070666D01*
X51649333Y-57165904D01*
X51363619Y-57546857D02*
X51316000Y-57594476D01*
X51268380Y-57689714D01*
X51268380Y-57927809D01*
X51316000Y-58023047D01*
X51363619Y-58070666D01*
X51458857Y-58118285D01*
X51554095Y-58118285D01*
X51696952Y-58070666D01*
X52268380Y-57499238D01*
X52268380Y-58118285D01*
X49680761Y-57165904D02*
X49728380Y-57070666D01*
X49728380Y-56880190D01*
X49680761Y-56784952D01*
X49633142Y-56737333D01*
X49537904Y-56689714D01*
X49252190Y-56689714D01*
X49156952Y-56737333D01*
X49109333Y-56784952D01*
X49061714Y-56880190D01*
X49061714Y-57070666D01*
X49109333Y-57165904D01*
X48728380Y-57499238D02*
X48728380Y-58118285D01*
X49109333Y-57784952D01*
X49109333Y-57927809D01*
X49156952Y-58023047D01*
X49204571Y-58070666D01*
X49299809Y-58118285D01*
X49537904Y-58118285D01*
X49633142Y-58070666D01*
X49680761Y-58023047D01*
X49728380Y-57927809D01*
X49728380Y-57642095D01*
X49680761Y-57546857D01*
X49633142Y-57499238D01*
X47140761Y-57165904D02*
X47188380Y-57070666D01*
X47188380Y-56880190D01*
X47140761Y-56784952D01*
X47093142Y-56737333D01*
X46997904Y-56689714D01*
X46712190Y-56689714D01*
X46616952Y-56737333D01*
X46569333Y-56784952D01*
X46521714Y-56880190D01*
X46521714Y-57070666D01*
X46569333Y-57165904D01*
X46521714Y-58023047D02*
X47188380Y-58023047D01*
X46140761Y-57784952D02*
X46855047Y-57546857D01*
X46855047Y-58165904D01*
X44600761Y-57165904D02*
X44648380Y-57070666D01*
X44648380Y-56880190D01*
X44600761Y-56784952D01*
X44553142Y-56737333D01*
X44457904Y-56689714D01*
X44172190Y-56689714D01*
X44076952Y-56737333D01*
X44029333Y-56784952D01*
X43981714Y-56880190D01*
X43981714Y-57070666D01*
X44029333Y-57165904D01*
X43648380Y-58070666D02*
X43648380Y-57594476D01*
X44124571Y-57546857D01*
X44076952Y-57594476D01*
X44029333Y-57689714D01*
X44029333Y-57927809D01*
X44076952Y-58023047D01*
X44124571Y-58070666D01*
X44219809Y-58118285D01*
X44457904Y-58118285D01*
X44553142Y-58070666D01*
X44600761Y-58023047D01*
X44648380Y-57927809D01*
X44648380Y-57689714D01*
X44600761Y-57594476D01*
X44553142Y-57546857D01*
X42060761Y-57165904D02*
X42108380Y-57070666D01*
X42108380Y-56880190D01*
X42060761Y-56784952D01*
X42013142Y-56737333D01*
X41917904Y-56689714D01*
X41632190Y-56689714D01*
X41536952Y-56737333D01*
X41489333Y-56784952D01*
X41441714Y-56880190D01*
X41441714Y-57070666D01*
X41489333Y-57165904D01*
X41108380Y-58023047D02*
X41108380Y-57832571D01*
X41156000Y-57737333D01*
X41203619Y-57689714D01*
X41346476Y-57594476D01*
X41536952Y-57546857D01*
X41917904Y-57546857D01*
X42013142Y-57594476D01*
X42060761Y-57642095D01*
X42108380Y-57737333D01*
X42108380Y-57927809D01*
X42060761Y-58023047D01*
X42013142Y-58070666D01*
X41917904Y-58118285D01*
X41679809Y-58118285D01*
X41584571Y-58070666D01*
X41536952Y-58023047D01*
X41489333Y-57927809D01*
X41489333Y-57737333D01*
X41536952Y-57642095D01*
X41584571Y-57594476D01*
X41679809Y-57546857D01*
X39568380Y-56856380D02*
X38901714Y-56856380D01*
X39092190Y-56856380D02*
X38996952Y-56904000D01*
X38949333Y-56951619D01*
X38901714Y-57046857D01*
X38901714Y-57142095D01*
X38663619Y-57427809D02*
X38616000Y-57475428D01*
X38568380Y-57570666D01*
X38568380Y-57808761D01*
X38616000Y-57904000D01*
X38663619Y-57951619D01*
X38758857Y-57999238D01*
X38854095Y-57999238D01*
X38996952Y-57951619D01*
X39568380Y-57380190D01*
X39568380Y-57999238D01*
X36076000Y-56134095D02*
X36028380Y-56038857D01*
X36028380Y-55896000D01*
X36076000Y-55753142D01*
X36171238Y-55657904D01*
X36266476Y-55610285D01*
X36456952Y-55562666D01*
X36599809Y-55562666D01*
X36790285Y-55610285D01*
X36885523Y-55657904D01*
X36980761Y-55753142D01*
X37028380Y-55896000D01*
X37028380Y-55991238D01*
X36980761Y-56134095D01*
X36933142Y-56181714D01*
X36599809Y-56181714D01*
X36599809Y-55991238D01*
X37028380Y-56610285D02*
X36028380Y-56610285D01*
X37028380Y-57181714D01*
X36028380Y-57181714D01*
X37028380Y-57657904D02*
X36028380Y-57657904D01*
X36028380Y-57896000D01*
X36076000Y-58038857D01*
X36171238Y-58134095D01*
X36266476Y-58181714D01*
X36456952Y-58229333D01*
X36599809Y-58229333D01*
X36790285Y-58181714D01*
X36885523Y-58134095D01*
X36980761Y-58038857D01*
X37028380Y-57896000D01*
X37028380Y-57657904D01*
X33536000Y-56134095D02*
X33488380Y-56038857D01*
X33488380Y-55896000D01*
X33536000Y-55753142D01*
X33631238Y-55657904D01*
X33726476Y-55610285D01*
X33916952Y-55562666D01*
X34059809Y-55562666D01*
X34250285Y-55610285D01*
X34345523Y-55657904D01*
X34440761Y-55753142D01*
X34488380Y-55896000D01*
X34488380Y-55991238D01*
X34440761Y-56134095D01*
X34393142Y-56181714D01*
X34059809Y-56181714D01*
X34059809Y-55991238D01*
X34488380Y-56610285D02*
X33488380Y-56610285D01*
X34488380Y-57181714D01*
X33488380Y-57181714D01*
X34488380Y-57657904D02*
X33488380Y-57657904D01*
X33488380Y-57896000D01*
X33536000Y-58038857D01*
X33631238Y-58134095D01*
X33726476Y-58181714D01*
X33916952Y-58229333D01*
X34059809Y-58229333D01*
X34250285Y-58181714D01*
X34345523Y-58134095D01*
X34440761Y-58038857D01*
X34488380Y-57896000D01*
X34488380Y-57657904D01*
X31900761Y-57165904D02*
X31948380Y-57070666D01*
X31948380Y-56880190D01*
X31900761Y-56784952D01*
X31853142Y-56737333D01*
X31757904Y-56689714D01*
X31472190Y-56689714D01*
X31376952Y-56737333D01*
X31329333Y-56784952D01*
X31281714Y-56880190D01*
X31281714Y-57070666D01*
X31329333Y-57165904D01*
X30948380Y-57499238D02*
X30948380Y-58165904D01*
X31948380Y-57737333D01*
X29408380Y-56856380D02*
X28741714Y-56856380D01*
X28932190Y-56856380D02*
X28836952Y-56904000D01*
X28789333Y-56951619D01*
X28741714Y-57046857D01*
X28741714Y-57142095D01*
X28408380Y-57665904D02*
X28408380Y-57761142D01*
X28456000Y-57856380D01*
X28503619Y-57904000D01*
X28598857Y-57951619D01*
X28789333Y-57999238D01*
X29027428Y-57999238D01*
X29217904Y-57951619D01*
X29313142Y-57904000D01*
X29360761Y-57856380D01*
X29408380Y-57761142D01*
X29408380Y-57665904D01*
X29360761Y-57570666D01*
X29313142Y-57523047D01*
X29217904Y-57475428D01*
X29027428Y-57427809D01*
X28789333Y-57427809D01*
X28598857Y-57475428D01*
X28503619Y-57523047D01*
X28456000Y-57570666D01*
X28408380Y-57665904D01*
D13*
X54102000Y-42164000D02*
X53594000Y-41656000D01*
X53086000Y-42164000D02*
X54102000Y-42164000D01*
X53594000Y-41656000D02*
X53086000Y-42164000D01*
X53594000Y-48260000D02*
X53594000Y-41656000D01*
X58420000Y-67310000D02*
X53594000Y-48260000D01*
X68072000Y-86360000D02*
X58420000Y-67310000D01*
X53594000Y-105410000D02*
X68072000Y-86360000D01*
X73406000Y-42164000D02*
X72898000Y-41656000D01*
X72390000Y-42164000D02*
X73406000Y-42164000D01*
X72898000Y-41656000D02*
X72390000Y-42164000D01*
X72898000Y-48260000D02*
X72898000Y-41656000D01*
X77470000Y-67310000D02*
X72898000Y-48260000D01*
X87122000Y-86360000D02*
X77470000Y-67310000D01*
X72644000Y-105410000D02*
X87122000Y-86360000D01*
X92202000Y-41910000D02*
X91694000Y-41402000D01*
X91186000Y-41910000D02*
X92202000Y-41910000D01*
X91694000Y-41402000D02*
X91186000Y-41910000D01*
X91694000Y-48260000D02*
X91694000Y-41402000D01*
X96520000Y-67310000D02*
X91694000Y-48260000D01*
X106172000Y-86360000D02*
X96520000Y-67310000D01*
X115570000Y-67310000D02*
X124968000Y-86360000D01*
X110744000Y-48260000D02*
X115570000Y-67310000D01*
X110744000Y-41656000D02*
X110744000Y-48260000D01*
X111252000Y-42164000D02*
X110744000Y-41656000D01*
X110236000Y-42164000D02*
X111252000Y-42164000D01*
X110744000Y-41656000D02*
X110236000Y-42164000D01*
X130302000Y-42164000D02*
X129794000Y-41656000D01*
X129286000Y-42164000D02*
X130302000Y-42164000D01*
X129794000Y-41656000D02*
X129286000Y-42164000D01*
X129794000Y-48260000D02*
X129794000Y-41656000D01*
X134620000Y-67310000D02*
X129794000Y-48260000D01*
X144272000Y-86360000D02*
X134620000Y-67310000D01*
X138938000Y-105410000D02*
X144272000Y-86360000D01*
X153670000Y-67310000D02*
X163322000Y-86360000D01*
X148844000Y-48260000D02*
X153670000Y-67310000D01*
X148844000Y-42164000D02*
X148844000Y-48260000D01*
X148336000Y-42164000D02*
X148844000Y-42164000D01*
X148844000Y-41656000D02*
X148336000Y-42164000D01*
X149352000Y-42164000D02*
X148844000Y-41656000D01*
X148336000Y-42164000D02*
X149352000Y-42164000D01*
X168402000Y-42164000D02*
X167894000Y-41656000D01*
X167386000Y-42164000D02*
X168402000Y-42164000D01*
X167894000Y-41656000D02*
X167386000Y-42164000D01*
X167894000Y-48260000D02*
X167894000Y-41656000D01*
X172720000Y-67310000D02*
X167894000Y-48260000D01*
X182118000Y-86360000D02*
X172720000Y-67310000D01*
X201422000Y-86614000D02*
X205994000Y-105410000D01*
X191770000Y-67310000D02*
X201422000Y-86614000D01*
X186944000Y-48260000D02*
X191770000Y-67310000D01*
X186944000Y-41656000D02*
X186944000Y-48260000D01*
X187452000Y-42164000D02*
X186944000Y-41656000D01*
X186436000Y-42164000D02*
X187452000Y-42164000D01*
X186944000Y-41656000D02*
X186436000Y-42164000D01*
X206502000Y-42164000D02*
X205994000Y-41656000D01*
X205486000Y-42164000D02*
X206502000Y-42164000D01*
X205994000Y-41656000D02*
X205486000Y-42164000D01*
X205994000Y-48260000D02*
X205994000Y-41656000D01*
X210820000Y-67310000D02*
X205994000Y-48260000D01*
X220218000Y-86360000D02*
X210820000Y-67310000D01*
X225044000Y-105410000D02*
X220218000Y-86360000D01*
X239522000Y-86614000D02*
X244094000Y-105410000D01*
X225552000Y-42164000D02*
X225044000Y-41656000D01*
X224536000Y-42164000D02*
X225552000Y-42164000D01*
X225044000Y-41656000D02*
X224536000Y-42164000D01*
X225044000Y-48260000D02*
X225044000Y-41656000D01*
X229870000Y-67564000D02*
X225044000Y-48260000D01*
X239522000Y-86614000D02*
X229870000Y-67564000D01*
X260858000Y-86360000D02*
X239268000Y-86360000D01*
X110490000Y-86360000D02*
X260858000Y-86360000D01*
X41656000Y-86360000D02*
X110490000Y-86360000D01*
X30734000Y-86360000D02*
X41656000Y-86360000D01*
X30734000Y-85852000D02*
X30734000Y-86360000D01*
X30226000Y-86360000D02*
X30734000Y-85852000D01*
X30734000Y-86868000D02*
X30226000Y-86360000D01*
X30734000Y-85852000D02*
X30734000Y-86868000D01*
X30734000Y-67818000D02*
X30226000Y-67310000D01*
X30734000Y-66802000D02*
X30734000Y-67818000D01*
X30226000Y-67310000D02*
X30734000Y-66802000D01*
X256032000Y-67310000D02*
X30226000Y-67310000D01*
X244602000Y-42164000D02*
X244094000Y-41656000D01*
X243586000Y-42164000D02*
X244602000Y-42164000D01*
X244094000Y-41656000D02*
X243586000Y-42164000D01*
X244094000Y-48260000D02*
X244094000Y-41656000D01*
X256032000Y-67310000D02*
X244094000Y-48260000D01*
X260858000Y-86360000D02*
X256032000Y-67310000D01*
X263398000Y-105410000D02*
X260858000Y-86360000D01*
X53594000Y-105410000D02*
X263398000Y-105410000D01*
X30226000Y-105410000D02*
X53594000Y-105410000D01*
X30734000Y-105918000D02*
X30226000Y-105410000D01*
X30734000Y-104902000D02*
X30734000Y-105918000D01*
X30226000Y-105410000D02*
X30734000Y-104902000D01*
X34544000Y-105410000D02*
X30226000Y-105410000D01*
X41656000Y-86360000D02*
X34544000Y-105410000D01*
X36830000Y-67310000D02*
X41656000Y-86360000D01*
X34544000Y-48260000D02*
X36830000Y-67310000D01*
X34544000Y-41656000D02*
X34544000Y-48260000D01*
X35052000Y-42164000D02*
X34544000Y-41656000D01*
X34036000Y-42164000D02*
X35052000Y-42164000D01*
X34544000Y-41656000D02*
X34036000Y-42164000D01*
X34544000Y-48260000D02*
X34544000Y-41656000D01*
X30734000Y-48260000D02*
X34544000Y-48260000D01*
X30734000Y-48768000D02*
X30734000Y-48260000D01*
X30226000Y-48260000D02*
X30734000Y-48768000D01*
X30734000Y-47752000D02*
X30226000Y-48260000D01*
X30734000Y-48260000D02*
X30734000Y-47752000D01*
X263144000Y-48260000D02*
X30734000Y-48260000D01*
X263144000Y-41656000D02*
X263144000Y-48260000D01*
X263652000Y-42164000D02*
X263144000Y-41656000D01*
X262636000Y-42164000D02*
X263652000Y-42164000D01*
X263144000Y-41656000D02*
X262636000Y-42164000D01*
D14*
X263652000Y-42164000D02*
X263144000Y-41656000D01*
X262636000Y-42164000D02*
X263652000Y-42164000D01*
X263144000Y-41656000D02*
X262636000Y-42164000D01*
X244602000Y-42164000D02*
X244094000Y-41656000D01*
X243586000Y-42164000D02*
X244602000Y-42164000D01*
X244094000Y-41656000D02*
X243586000Y-42164000D01*
X225552000Y-42164000D02*
X225044000Y-41656000D01*
X224536000Y-42164000D02*
X225552000Y-42164000D01*
X225044000Y-41656000D02*
X224536000Y-42164000D01*
X206502000Y-42164000D02*
X205994000Y-41656000D01*
X205486000Y-42164000D02*
X206502000Y-42164000D01*
X205994000Y-41656000D02*
X205486000Y-42164000D01*
X187452000Y-42164000D02*
X186944000Y-41656000D01*
X186436000Y-42164000D02*
X187452000Y-42164000D01*
X186944000Y-41656000D02*
X186436000Y-42164000D01*
X168402000Y-42164000D02*
X167894000Y-41656000D01*
X167386000Y-42164000D02*
X168402000Y-42164000D01*
X167894000Y-41656000D02*
X167386000Y-42164000D01*
X149352000Y-42164000D02*
X148844000Y-41656000D01*
X148336000Y-42164000D02*
X149352000Y-42164000D01*
X148844000Y-41656000D02*
X148336000Y-42164000D01*
X130302000Y-42164000D02*
X129794000Y-41656000D01*
X129286000Y-42164000D02*
X130302000Y-42164000D01*
X129794000Y-41656000D02*
X129286000Y-42164000D01*
X111252000Y-42164000D02*
X110744000Y-41656000D01*
X110236000Y-42164000D02*
X111252000Y-42164000D01*
X110744000Y-41656000D02*
X110236000Y-42164000D01*
X92202000Y-41910000D02*
X91694000Y-41402000D01*
X91186000Y-41910000D02*
X92202000Y-41910000D01*
X91694000Y-41402000D02*
X91186000Y-41910000D01*
X73406000Y-42164000D02*
X72898000Y-41656000D01*
X72390000Y-42164000D02*
X73406000Y-42164000D01*
X72898000Y-41656000D02*
X72390000Y-42164000D01*
X54102000Y-42164000D02*
X53594000Y-41656000D01*
X53086000Y-42164000D02*
X54102000Y-42164000D01*
X53594000Y-41656000D02*
X53086000Y-42164000D01*
X35052000Y-42164000D02*
X34544000Y-41656000D01*
X34036000Y-42164000D02*
X35052000Y-42164000D01*
X34544000Y-41656000D02*
X34036000Y-42164000D01*
X30734000Y-48768000D02*
X30226000Y-48260000D01*
X30734000Y-47752000D02*
X30734000Y-48768000D01*
X30226000Y-48260000D02*
X30734000Y-47752000D01*
X30734000Y-105918000D02*
X30226000Y-105410000D01*
X30734000Y-104902000D02*
X30734000Y-105918000D01*
X30226000Y-105410000D02*
X30734000Y-104902000D01*
X34544000Y-105410000D02*
X30226000Y-105410000D01*
X30734000Y-86868000D02*
X30226000Y-86360000D01*
X30734000Y-85852000D02*
X30734000Y-86868000D01*
X30226000Y-86360000D02*
X30734000Y-85852000D01*
X41656000Y-86360000D02*
X30226000Y-86360000D01*
X30734000Y-67818000D02*
X30226000Y-67310000D01*
X30734000Y-66802000D02*
X30734000Y-67818000D01*
X30226000Y-67310000D02*
X30734000Y-66802000D01*
X36830000Y-67310000D02*
X30226000Y-67310000D01*
X41656000Y-86360000D02*
X260858000Y-86360000D01*
X36830000Y-67310000D02*
X256032000Y-67310000D01*
X30226000Y-48260000D02*
X263144000Y-48260000D01*
X41656000Y-86360000D02*
X34544000Y-105410000D01*
X36830000Y-67310000D02*
X41656000Y-86360000D01*
X34544000Y-48260000D02*
X36830000Y-67310000D01*
X34544000Y-41656000D02*
X34544000Y-48260000D01*
X53594000Y-48514000D02*
X53594000Y-41656000D01*
X72898000Y-48514000D02*
X72898000Y-41656000D01*
X68072000Y-86360000D02*
X53594000Y-105410000D01*
X58420000Y-67310000D02*
X68072000Y-86360000D01*
X53594000Y-48514000D02*
X58420000Y-67310000D01*
X87122000Y-86360000D02*
X72644000Y-105410000D01*
X77470000Y-67310000D02*
X87122000Y-86360000D01*
X72898000Y-48514000D02*
X77470000Y-67310000D01*
X115570000Y-67564000D02*
X124968000Y-86360000D01*
X110744000Y-48514000D02*
X115570000Y-67564000D01*
X110744000Y-41656000D02*
X110744000Y-48514000D01*
X144272000Y-86614000D02*
X138938000Y-105664000D01*
X134620000Y-67564000D02*
X144272000Y-86614000D01*
X129794000Y-48514000D02*
X134620000Y-67564000D01*
X129794000Y-41656000D02*
X129794000Y-48514000D01*
X148844000Y-48260000D02*
X153670000Y-67310000D01*
X148844000Y-41656000D02*
X148844000Y-48260000D01*
X148844000Y-48260000D02*
X148844000Y-41656000D01*
X167894000Y-48260000D02*
X172720000Y-67564000D01*
X167894000Y-41656000D02*
X167894000Y-48260000D01*
X167894000Y-48260000D02*
X167894000Y-41656000D01*
X201422000Y-86614000D02*
X205994000Y-105410000D01*
X191770000Y-67310000D02*
X201422000Y-86614000D01*
X186944000Y-48260000D02*
X191770000Y-67310000D01*
X186944000Y-48260000D02*
X186944000Y-41656000D01*
X220218000Y-86360000D02*
X225044000Y-105410000D01*
X210820000Y-67310000D02*
X220218000Y-86360000D01*
X205994000Y-48260000D02*
X210820000Y-67310000D01*
X205994000Y-48260000D02*
X205994000Y-41656000D01*
X239522000Y-86614000D02*
X244094000Y-105410000D01*
X229870000Y-67564000D02*
X239522000Y-86614000D01*
X225044000Y-48514000D02*
X229870000Y-67564000D01*
X225044000Y-41656000D02*
X225044000Y-48514000D01*
X256159000Y-67437000D02*
X260985000Y-86487000D01*
X244094000Y-48514000D02*
X256159000Y-67437000D01*
X244094000Y-41656000D02*
X244094000Y-48514000D01*
D10*
X28864571Y-106464571D02*
X29364571Y-105750285D01*
X29721714Y-106464571D02*
X29721714Y-104964571D01*
X29150285Y-104964571D01*
X29007428Y-105036000D01*
X28936000Y-105107428D01*
X28864571Y-105250285D01*
X28864571Y-105464571D01*
X28936000Y-105607428D01*
X29007428Y-105678857D01*
X29150285Y-105750285D01*
X29721714Y-105750285D01*
X27936000Y-104964571D02*
X27650285Y-104964571D01*
X27507428Y-105036000D01*
X27364571Y-105178857D01*
X27293142Y-105464571D01*
X27293142Y-105964571D01*
X27364571Y-106250285D01*
X27507428Y-106393142D01*
X27650285Y-106464571D01*
X27936000Y-106464571D01*
X28078857Y-106393142D01*
X28221714Y-106250285D01*
X28293142Y-105964571D01*
X28293142Y-105464571D01*
X28221714Y-105178857D01*
X28078857Y-105036000D01*
X27936000Y-104964571D01*
X26793142Y-104964571D02*
X26436000Y-106464571D01*
X26150285Y-105393142D01*
X25864571Y-106464571D01*
X25507428Y-104964571D01*
X26471714Y-107514571D02*
X25543142Y-107514571D01*
X26043142Y-108086000D01*
X25828857Y-108086000D01*
X25686000Y-108157428D01*
X25614571Y-108228857D01*
X25543142Y-108371714D01*
X25543142Y-108728857D01*
X25614571Y-108871714D01*
X25686000Y-108943142D01*
X25828857Y-109014571D01*
X26257428Y-109014571D01*
X26400285Y-108943142D01*
X26471714Y-108871714D01*
X28864571Y-87541571D02*
X29364571Y-86827285D01*
X29721714Y-87541571D02*
X29721714Y-86041571D01*
X29150285Y-86041571D01*
X29007428Y-86113000D01*
X28936000Y-86184428D01*
X28864571Y-86327285D01*
X28864571Y-86541571D01*
X28936000Y-86684428D01*
X29007428Y-86755857D01*
X29150285Y-86827285D01*
X29721714Y-86827285D01*
X27936000Y-86041571D02*
X27650285Y-86041571D01*
X27507428Y-86113000D01*
X27364571Y-86255857D01*
X27293142Y-86541571D01*
X27293142Y-87041571D01*
X27364571Y-87327285D01*
X27507428Y-87470142D01*
X27650285Y-87541571D01*
X27936000Y-87541571D01*
X28078857Y-87470142D01*
X28221714Y-87327285D01*
X28293142Y-87041571D01*
X28293142Y-86541571D01*
X28221714Y-86255857D01*
X28078857Y-86113000D01*
X27936000Y-86041571D01*
X26793142Y-86041571D02*
X26436000Y-87541571D01*
X26150285Y-86470142D01*
X25864571Y-87541571D01*
X25507428Y-86041571D01*
X26400285Y-88734428D02*
X26328857Y-88663000D01*
X26186000Y-88591571D01*
X25828857Y-88591571D01*
X25686000Y-88663000D01*
X25614571Y-88734428D01*
X25543142Y-88877285D01*
X25543142Y-89020142D01*
X25614571Y-89234428D01*
X26471714Y-90091571D01*
X25543142Y-90091571D01*
X28864571Y-68364571D02*
X29364571Y-67650285D01*
X29721714Y-68364571D02*
X29721714Y-66864571D01*
X29150285Y-66864571D01*
X29007428Y-66936000D01*
X28936000Y-67007428D01*
X28864571Y-67150285D01*
X28864571Y-67364571D01*
X28936000Y-67507428D01*
X29007428Y-67578857D01*
X29150285Y-67650285D01*
X29721714Y-67650285D01*
X27936000Y-66864571D02*
X27650285Y-66864571D01*
X27507428Y-66936000D01*
X27364571Y-67078857D01*
X27293142Y-67364571D01*
X27293142Y-67864571D01*
X27364571Y-68150285D01*
X27507428Y-68293142D01*
X27650285Y-68364571D01*
X27936000Y-68364571D01*
X28078857Y-68293142D01*
X28221714Y-68150285D01*
X28293142Y-67864571D01*
X28293142Y-67364571D01*
X28221714Y-67078857D01*
X28078857Y-66936000D01*
X27936000Y-66864571D01*
X26793142Y-66864571D02*
X26436000Y-68364571D01*
X26150285Y-67293142D01*
X25864571Y-68364571D01*
X25507428Y-66864571D01*
X25543142Y-70914571D02*
X26400285Y-70914571D01*
X25971714Y-70914571D02*
X25971714Y-69414571D01*
X26114571Y-69628857D01*
X26257428Y-69771714D01*
X26400285Y-69843142D01*
X28864571Y-49441571D02*
X29364571Y-48727285D01*
X29721714Y-49441571D02*
X29721714Y-47941571D01*
X29150285Y-47941571D01*
X29007428Y-48013000D01*
X28936000Y-48084428D01*
X28864571Y-48227285D01*
X28864571Y-48441571D01*
X28936000Y-48584428D01*
X29007428Y-48655857D01*
X29150285Y-48727285D01*
X29721714Y-48727285D01*
X27936000Y-47941571D02*
X27650285Y-47941571D01*
X27507428Y-48013000D01*
X27364571Y-48155857D01*
X27293142Y-48441571D01*
X27293142Y-48941571D01*
X27364571Y-49227285D01*
X27507428Y-49370142D01*
X27650285Y-49441571D01*
X27936000Y-49441571D01*
X28078857Y-49370142D01*
X28221714Y-49227285D01*
X28293142Y-48941571D01*
X28293142Y-48441571D01*
X28221714Y-48155857D01*
X28078857Y-48013000D01*
X27936000Y-47941571D01*
X26793142Y-47941571D02*
X26436000Y-49441571D01*
X26150285Y-48370142D01*
X25864571Y-49441571D01*
X25507428Y-47941571D01*
X26043142Y-50491571D02*
X25900285Y-50491571D01*
X25757428Y-50563000D01*
X25686000Y-50634428D01*
X25614571Y-50777285D01*
X25543142Y-51063000D01*
X25543142Y-51420142D01*
X25614571Y-51705857D01*
X25686000Y-51848714D01*
X25757428Y-51920142D01*
X25900285Y-51991571D01*
X26043142Y-51991571D01*
X26186000Y-51920142D01*
X26257428Y-51848714D01*
X26328857Y-51705857D01*
X26400285Y-51420142D01*
X26400285Y-51063000D01*
X26328857Y-50777285D01*
X26257428Y-50634428D01*
X26186000Y-50563000D01*
X26043142Y-50491571D01*
X265394000Y-41175714D02*
X265465428Y-41247142D01*
X265679714Y-41318571D01*
X265822571Y-41318571D01*
X266036857Y-41247142D01*
X266179714Y-41104285D01*
X266251142Y-40961428D01*
X266322571Y-40675714D01*
X266322571Y-40461428D01*
X266251142Y-40175714D01*
X266179714Y-40032857D01*
X266036857Y-39890000D01*
X265822571Y-39818571D01*
X265679714Y-39818571D01*
X265465428Y-39890000D01*
X265394000Y-39961428D01*
X264465428Y-39818571D02*
X264179714Y-39818571D01*
X264036857Y-39890000D01*
X263894000Y-40032857D01*
X263822571Y-40318571D01*
X263822571Y-40818571D01*
X263894000Y-41104285D01*
X264036857Y-41247142D01*
X264179714Y-41318571D01*
X264465428Y-41318571D01*
X264608285Y-41247142D01*
X264751142Y-41104285D01*
X264822571Y-40818571D01*
X264822571Y-40318571D01*
X264751142Y-40032857D01*
X264608285Y-39890000D01*
X264465428Y-39818571D01*
X262465428Y-41318571D02*
X263179714Y-41318571D01*
X263179714Y-39818571D01*
X259965428Y-41175714D02*
X260036857Y-41247142D01*
X260251142Y-41318571D01*
X260394000Y-41318571D01*
X260608285Y-41247142D01*
X260751142Y-41104285D01*
X260822571Y-40961428D01*
X260894000Y-40675714D01*
X260894000Y-40461428D01*
X260822571Y-40175714D01*
X260751142Y-40032857D01*
X260608285Y-39890000D01*
X260394000Y-39818571D01*
X260251142Y-39818571D01*
X260036857Y-39890000D01*
X259965428Y-39961428D01*
X246217000Y-41175714D02*
X246288428Y-41247142D01*
X246502714Y-41318571D01*
X246645571Y-41318571D01*
X246859857Y-41247142D01*
X247002714Y-41104285D01*
X247074142Y-40961428D01*
X247145571Y-40675714D01*
X247145571Y-40461428D01*
X247074142Y-40175714D01*
X247002714Y-40032857D01*
X246859857Y-39890000D01*
X246645571Y-39818571D01*
X246502714Y-39818571D01*
X246288428Y-39890000D01*
X246217000Y-39961428D01*
X245288428Y-39818571D02*
X245002714Y-39818571D01*
X244859857Y-39890000D01*
X244717000Y-40032857D01*
X244645571Y-40318571D01*
X244645571Y-40818571D01*
X244717000Y-41104285D01*
X244859857Y-41247142D01*
X245002714Y-41318571D01*
X245288428Y-41318571D01*
X245431285Y-41247142D01*
X245574142Y-41104285D01*
X245645571Y-40818571D01*
X245645571Y-40318571D01*
X245574142Y-40032857D01*
X245431285Y-39890000D01*
X245288428Y-39818571D01*
X243288428Y-41318571D02*
X244002714Y-41318571D01*
X244002714Y-39818571D01*
X241145571Y-40532857D02*
X240931285Y-40604285D01*
X240859857Y-40675714D01*
X240788428Y-40818571D01*
X240788428Y-41032857D01*
X240859857Y-41175714D01*
X240931285Y-41247142D01*
X241074142Y-41318571D01*
X241645571Y-41318571D01*
X241645571Y-39818571D01*
X241145571Y-39818571D01*
X241002714Y-39890000D01*
X240931285Y-39961428D01*
X240859857Y-40104285D01*
X240859857Y-40247142D01*
X240931285Y-40390000D01*
X241002714Y-40461428D01*
X241145571Y-40532857D01*
X241645571Y-40532857D01*
X55681285Y-41175714D02*
X55752714Y-41247142D01*
X55967000Y-41318571D01*
X56109857Y-41318571D01*
X56324142Y-41247142D01*
X56467000Y-41104285D01*
X56538428Y-40961428D01*
X56609857Y-40675714D01*
X56609857Y-40461428D01*
X56538428Y-40175714D01*
X56467000Y-40032857D01*
X56324142Y-39890000D01*
X56109857Y-39818571D01*
X55967000Y-39818571D01*
X55752714Y-39890000D01*
X55681285Y-39961428D01*
X54752714Y-39818571D02*
X54467000Y-39818571D01*
X54324142Y-39890000D01*
X54181285Y-40032857D01*
X54109857Y-40318571D01*
X54109857Y-40818571D01*
X54181285Y-41104285D01*
X54324142Y-41247142D01*
X54467000Y-41318571D01*
X54752714Y-41318571D01*
X54895571Y-41247142D01*
X55038428Y-41104285D01*
X55109857Y-40818571D01*
X55109857Y-40318571D01*
X55038428Y-40032857D01*
X54895571Y-39890000D01*
X54752714Y-39818571D01*
X52752714Y-41318571D02*
X53467000Y-41318571D01*
X53467000Y-39818571D01*
X50324142Y-41318571D02*
X51181285Y-41318571D01*
X50752714Y-41318571D02*
X50752714Y-39818571D01*
X50895571Y-40032857D01*
X51038428Y-40175714D01*
X51181285Y-40247142D01*
X227059857Y-41175714D02*
X227131285Y-41247142D01*
X227345571Y-41318571D01*
X227488428Y-41318571D01*
X227702714Y-41247142D01*
X227845571Y-41104285D01*
X227917000Y-40961428D01*
X227988428Y-40675714D01*
X227988428Y-40461428D01*
X227917000Y-40175714D01*
X227845571Y-40032857D01*
X227702714Y-39890000D01*
X227488428Y-39818571D01*
X227345571Y-39818571D01*
X227131285Y-39890000D01*
X227059857Y-39961428D01*
X226131285Y-39818571D02*
X225845571Y-39818571D01*
X225702714Y-39890000D01*
X225559857Y-40032857D01*
X225488428Y-40318571D01*
X225488428Y-40818571D01*
X225559857Y-41104285D01*
X225702714Y-41247142D01*
X225845571Y-41318571D01*
X226131285Y-41318571D01*
X226274142Y-41247142D01*
X226417000Y-41104285D01*
X226488428Y-40818571D01*
X226488428Y-40318571D01*
X226417000Y-40032857D01*
X226274142Y-39890000D01*
X226131285Y-39818571D01*
X224131285Y-41318571D02*
X224845571Y-41318571D01*
X224845571Y-39818571D01*
X222559857Y-40890000D02*
X221845571Y-40890000D01*
X222702714Y-41318571D02*
X222202714Y-39818571D01*
X221702714Y-41318571D01*
X207827285Y-41175714D02*
X207898714Y-41247142D01*
X208113000Y-41318571D01*
X208255857Y-41318571D01*
X208470142Y-41247142D01*
X208613000Y-41104285D01*
X208684428Y-40961428D01*
X208755857Y-40675714D01*
X208755857Y-40461428D01*
X208684428Y-40175714D01*
X208613000Y-40032857D01*
X208470142Y-39890000D01*
X208255857Y-39818571D01*
X208113000Y-39818571D01*
X207898714Y-39890000D01*
X207827285Y-39961428D01*
X206898714Y-39818571D02*
X206613000Y-39818571D01*
X206470142Y-39890000D01*
X206327285Y-40032857D01*
X206255857Y-40318571D01*
X206255857Y-40818571D01*
X206327285Y-41104285D01*
X206470142Y-41247142D01*
X206613000Y-41318571D01*
X206898714Y-41318571D01*
X207041571Y-41247142D01*
X207184428Y-41104285D01*
X207255857Y-40818571D01*
X207255857Y-40318571D01*
X207184428Y-40032857D01*
X207041571Y-39890000D01*
X206898714Y-39818571D01*
X204898714Y-41318571D02*
X205613000Y-41318571D01*
X205613000Y-39818571D01*
X203184428Y-41318571D02*
X202898714Y-41318571D01*
X202755857Y-41247142D01*
X202684428Y-41175714D01*
X202541571Y-40961428D01*
X202470142Y-40675714D01*
X202470142Y-40104285D01*
X202541571Y-39961428D01*
X202613000Y-39890000D01*
X202755857Y-39818571D01*
X203041571Y-39818571D01*
X203184428Y-39890000D01*
X203255857Y-39961428D01*
X203327285Y-40104285D01*
X203327285Y-40461428D01*
X203255857Y-40604285D01*
X203184428Y-40675714D01*
X203041571Y-40747142D01*
X202755857Y-40747142D01*
X202613000Y-40675714D01*
X202541571Y-40604285D01*
X202470142Y-40461428D01*
X188777285Y-41175714D02*
X188848714Y-41247142D01*
X189063000Y-41318571D01*
X189205857Y-41318571D01*
X189420142Y-41247142D01*
X189563000Y-41104285D01*
X189634428Y-40961428D01*
X189705857Y-40675714D01*
X189705857Y-40461428D01*
X189634428Y-40175714D01*
X189563000Y-40032857D01*
X189420142Y-39890000D01*
X189205857Y-39818571D01*
X189063000Y-39818571D01*
X188848714Y-39890000D01*
X188777285Y-39961428D01*
X187848714Y-39818571D02*
X187563000Y-39818571D01*
X187420142Y-39890000D01*
X187277285Y-40032857D01*
X187205857Y-40318571D01*
X187205857Y-40818571D01*
X187277285Y-41104285D01*
X187420142Y-41247142D01*
X187563000Y-41318571D01*
X187848714Y-41318571D01*
X187991571Y-41247142D01*
X188134428Y-41104285D01*
X188205857Y-40818571D01*
X188205857Y-40318571D01*
X188134428Y-40032857D01*
X187991571Y-39890000D01*
X187848714Y-39818571D01*
X185848714Y-41318571D02*
X186563000Y-41318571D01*
X186563000Y-39818571D01*
X183991571Y-40461428D02*
X184134428Y-40390000D01*
X184205857Y-40318571D01*
X184277285Y-40175714D01*
X184277285Y-40104285D01*
X184205857Y-39961428D01*
X184134428Y-39890000D01*
X183991571Y-39818571D01*
X183705857Y-39818571D01*
X183563000Y-39890000D01*
X183491571Y-39961428D01*
X183420142Y-40104285D01*
X183420142Y-40175714D01*
X183491571Y-40318571D01*
X183563000Y-40390000D01*
X183705857Y-40461428D01*
X183991571Y-40461428D01*
X184134428Y-40532857D01*
X184205857Y-40604285D01*
X184277285Y-40747142D01*
X184277285Y-41032857D01*
X184205857Y-41175714D01*
X184134428Y-41247142D01*
X183991571Y-41318571D01*
X183705857Y-41318571D01*
X183563000Y-41247142D01*
X183491571Y-41175714D01*
X183420142Y-41032857D01*
X183420142Y-40747142D01*
X183491571Y-40604285D01*
X183563000Y-40532857D01*
X183705857Y-40461428D01*
X169854285Y-41175714D02*
X169925714Y-41247142D01*
X170140000Y-41318571D01*
X170282857Y-41318571D01*
X170497142Y-41247142D01*
X170640000Y-41104285D01*
X170711428Y-40961428D01*
X170782857Y-40675714D01*
X170782857Y-40461428D01*
X170711428Y-40175714D01*
X170640000Y-40032857D01*
X170497142Y-39890000D01*
X170282857Y-39818571D01*
X170140000Y-39818571D01*
X169925714Y-39890000D01*
X169854285Y-39961428D01*
X168925714Y-39818571D02*
X168640000Y-39818571D01*
X168497142Y-39890000D01*
X168354285Y-40032857D01*
X168282857Y-40318571D01*
X168282857Y-40818571D01*
X168354285Y-41104285D01*
X168497142Y-41247142D01*
X168640000Y-41318571D01*
X168925714Y-41318571D01*
X169068571Y-41247142D01*
X169211428Y-41104285D01*
X169282857Y-40818571D01*
X169282857Y-40318571D01*
X169211428Y-40032857D01*
X169068571Y-39890000D01*
X168925714Y-39818571D01*
X166925714Y-41318571D02*
X167640000Y-41318571D01*
X167640000Y-39818571D01*
X165425714Y-39818571D02*
X164425714Y-39818571D01*
X165068571Y-41318571D01*
X150677285Y-41175714D02*
X150748714Y-41247142D01*
X150963000Y-41318571D01*
X151105857Y-41318571D01*
X151320142Y-41247142D01*
X151463000Y-41104285D01*
X151534428Y-40961428D01*
X151605857Y-40675714D01*
X151605857Y-40461428D01*
X151534428Y-40175714D01*
X151463000Y-40032857D01*
X151320142Y-39890000D01*
X151105857Y-39818571D01*
X150963000Y-39818571D01*
X150748714Y-39890000D01*
X150677285Y-39961428D01*
X149748714Y-39818571D02*
X149463000Y-39818571D01*
X149320142Y-39890000D01*
X149177285Y-40032857D01*
X149105857Y-40318571D01*
X149105857Y-40818571D01*
X149177285Y-41104285D01*
X149320142Y-41247142D01*
X149463000Y-41318571D01*
X149748714Y-41318571D01*
X149891571Y-41247142D01*
X150034428Y-41104285D01*
X150105857Y-40818571D01*
X150105857Y-40318571D01*
X150034428Y-40032857D01*
X149891571Y-39890000D01*
X149748714Y-39818571D01*
X147748714Y-41318571D02*
X148463000Y-41318571D01*
X148463000Y-39818571D01*
X145463000Y-39818571D02*
X145748714Y-39818571D01*
X145891571Y-39890000D01*
X145963000Y-39961428D01*
X146105857Y-40175714D01*
X146177285Y-40461428D01*
X146177285Y-41032857D01*
X146105857Y-41175714D01*
X146034428Y-41247142D01*
X145891571Y-41318571D01*
X145605857Y-41318571D01*
X145463000Y-41247142D01*
X145391571Y-41175714D01*
X145320142Y-41032857D01*
X145320142Y-40675714D01*
X145391571Y-40532857D01*
X145463000Y-40461428D01*
X145605857Y-40390000D01*
X145891571Y-40390000D01*
X146034428Y-40461428D01*
X146105857Y-40532857D01*
X146177285Y-40675714D01*
X131627285Y-41175714D02*
X131698714Y-41247142D01*
X131913000Y-41318571D01*
X132055857Y-41318571D01*
X132270142Y-41247142D01*
X132413000Y-41104285D01*
X132484428Y-40961428D01*
X132555857Y-40675714D01*
X132555857Y-40461428D01*
X132484428Y-40175714D01*
X132413000Y-40032857D01*
X132270142Y-39890000D01*
X132055857Y-39818571D01*
X131913000Y-39818571D01*
X131698714Y-39890000D01*
X131627285Y-39961428D01*
X130698714Y-39818571D02*
X130413000Y-39818571D01*
X130270142Y-39890000D01*
X130127285Y-40032857D01*
X130055857Y-40318571D01*
X130055857Y-40818571D01*
X130127285Y-41104285D01*
X130270142Y-41247142D01*
X130413000Y-41318571D01*
X130698714Y-41318571D01*
X130841571Y-41247142D01*
X130984428Y-41104285D01*
X131055857Y-40818571D01*
X131055857Y-40318571D01*
X130984428Y-40032857D01*
X130841571Y-39890000D01*
X130698714Y-39818571D01*
X128698714Y-41318571D02*
X129413000Y-41318571D01*
X129413000Y-39818571D01*
X126341571Y-39818571D02*
X127055857Y-39818571D01*
X127127285Y-40532857D01*
X127055857Y-40461428D01*
X126913000Y-40390000D01*
X126555857Y-40390000D01*
X126413000Y-40461428D01*
X126341571Y-40532857D01*
X126270142Y-40675714D01*
X126270142Y-41032857D01*
X126341571Y-41175714D01*
X126413000Y-41247142D01*
X126555857Y-41318571D01*
X126913000Y-41318571D01*
X127055857Y-41247142D01*
X127127285Y-41175714D01*
X112704285Y-41048714D02*
X112775714Y-41120142D01*
X112990000Y-41191571D01*
X113132857Y-41191571D01*
X113347142Y-41120142D01*
X113490000Y-40977285D01*
X113561428Y-40834428D01*
X113632857Y-40548714D01*
X113632857Y-40334428D01*
X113561428Y-40048714D01*
X113490000Y-39905857D01*
X113347142Y-39763000D01*
X113132857Y-39691571D01*
X112990000Y-39691571D01*
X112775714Y-39763000D01*
X112704285Y-39834428D01*
X111775714Y-39691571D02*
X111490000Y-39691571D01*
X111347142Y-39763000D01*
X111204285Y-39905857D01*
X111132857Y-40191571D01*
X111132857Y-40691571D01*
X111204285Y-40977285D01*
X111347142Y-41120142D01*
X111490000Y-41191571D01*
X111775714Y-41191571D01*
X111918571Y-41120142D01*
X112061428Y-40977285D01*
X112132857Y-40691571D01*
X112132857Y-40191571D01*
X112061428Y-39905857D01*
X111918571Y-39763000D01*
X111775714Y-39691571D01*
X109775714Y-41191571D02*
X110490000Y-41191571D01*
X110490000Y-39691571D01*
X107490000Y-40191571D02*
X107490000Y-41191571D01*
X107847142Y-39620142D02*
X108204285Y-40691571D01*
X107275714Y-40691571D01*
X93781285Y-40921714D02*
X93852714Y-40993142D01*
X94067000Y-41064571D01*
X94209857Y-41064571D01*
X94424142Y-40993142D01*
X94567000Y-40850285D01*
X94638428Y-40707428D01*
X94709857Y-40421714D01*
X94709857Y-40207428D01*
X94638428Y-39921714D01*
X94567000Y-39778857D01*
X94424142Y-39636000D01*
X94209857Y-39564571D01*
X94067000Y-39564571D01*
X93852714Y-39636000D01*
X93781285Y-39707428D01*
X92852714Y-39564571D02*
X92567000Y-39564571D01*
X92424142Y-39636000D01*
X92281285Y-39778857D01*
X92209857Y-40064571D01*
X92209857Y-40564571D01*
X92281285Y-40850285D01*
X92424142Y-40993142D01*
X92567000Y-41064571D01*
X92852714Y-41064571D01*
X92995571Y-40993142D01*
X93138428Y-40850285D01*
X93209857Y-40564571D01*
X93209857Y-40064571D01*
X93138428Y-39778857D01*
X92995571Y-39636000D01*
X92852714Y-39564571D01*
X90852714Y-41064571D02*
X91567000Y-41064571D01*
X91567000Y-39564571D01*
X89352714Y-39564571D02*
X88424142Y-39564571D01*
X88924142Y-40136000D01*
X88709857Y-40136000D01*
X88567000Y-40207428D01*
X88495571Y-40278857D01*
X88424142Y-40421714D01*
X88424142Y-40778857D01*
X88495571Y-40921714D01*
X88567000Y-40993142D01*
X88709857Y-41064571D01*
X89138428Y-41064571D01*
X89281285Y-40993142D01*
X89352714Y-40921714D01*
X74731285Y-41175714D02*
X74802714Y-41247142D01*
X75017000Y-41318571D01*
X75159857Y-41318571D01*
X75374142Y-41247142D01*
X75517000Y-41104285D01*
X75588428Y-40961428D01*
X75659857Y-40675714D01*
X75659857Y-40461428D01*
X75588428Y-40175714D01*
X75517000Y-40032857D01*
X75374142Y-39890000D01*
X75159857Y-39818571D01*
X75017000Y-39818571D01*
X74802714Y-39890000D01*
X74731285Y-39961428D01*
X73802714Y-39818571D02*
X73517000Y-39818571D01*
X73374142Y-39890000D01*
X73231285Y-40032857D01*
X73159857Y-40318571D01*
X73159857Y-40818571D01*
X73231285Y-41104285D01*
X73374142Y-41247142D01*
X73517000Y-41318571D01*
X73802714Y-41318571D01*
X73945571Y-41247142D01*
X74088428Y-41104285D01*
X74159857Y-40818571D01*
X74159857Y-40318571D01*
X74088428Y-40032857D01*
X73945571Y-39890000D01*
X73802714Y-39818571D01*
X71802714Y-41318571D02*
X72517000Y-41318571D01*
X72517000Y-39818571D01*
X70231285Y-39961428D02*
X70159857Y-39890000D01*
X70017000Y-39818571D01*
X69659857Y-39818571D01*
X69517000Y-39890000D01*
X69445571Y-39961428D01*
X69374142Y-40104285D01*
X69374142Y-40247142D01*
X69445571Y-40461428D01*
X70302714Y-41318571D01*
X69374142Y-41318571D01*
X36504285Y-41175714D02*
X36575714Y-41247142D01*
X36790000Y-41318571D01*
X36932857Y-41318571D01*
X37147142Y-41247142D01*
X37290000Y-41104285D01*
X37361428Y-40961428D01*
X37432857Y-40675714D01*
X37432857Y-40461428D01*
X37361428Y-40175714D01*
X37290000Y-40032857D01*
X37147142Y-39890000D01*
X36932857Y-39818571D01*
X36790000Y-39818571D01*
X36575714Y-39890000D01*
X36504285Y-39961428D01*
X35575714Y-39818571D02*
X35290000Y-39818571D01*
X35147142Y-39890000D01*
X35004285Y-40032857D01*
X34932857Y-40318571D01*
X34932857Y-40818571D01*
X35004285Y-41104285D01*
X35147142Y-41247142D01*
X35290000Y-41318571D01*
X35575714Y-41318571D01*
X35718571Y-41247142D01*
X35861428Y-41104285D01*
X35932857Y-40818571D01*
X35932857Y-40318571D01*
X35861428Y-40032857D01*
X35718571Y-39890000D01*
X35575714Y-39818571D01*
X33575714Y-41318571D02*
X34290000Y-41318571D01*
X34290000Y-39818571D01*
X31647142Y-39818571D02*
X31504285Y-39818571D01*
X31361428Y-39890000D01*
X31290000Y-39961428D01*
X31218571Y-40104285D01*
X31147142Y-40390000D01*
X31147142Y-40747142D01*
X31218571Y-41032857D01*
X31290000Y-41175714D01*
X31361428Y-41247142D01*
X31504285Y-41318571D01*
X31647142Y-41318571D01*
X31790000Y-41247142D01*
X31861428Y-41175714D01*
X31932857Y-41032857D01*
X32004285Y-40747142D01*
X32004285Y-40390000D01*
X31932857Y-40104285D01*
X31861428Y-39961428D01*
X31790000Y-39890000D01*
X31647142Y-39818571D01*
D15*
X192577333Y-90750190D02*
X186291619Y-90750190D01*
X189434476Y-101750190D02*
X189434476Y-90750190D01*
X176863047Y-91274000D02*
X177910666Y-90750190D01*
X179482095Y-90750190D01*
X181053523Y-91274000D01*
X182101142Y-92321619D01*
X182624952Y-93369238D01*
X183148761Y-95464476D01*
X183148761Y-97035904D01*
X182624952Y-99131142D01*
X182101142Y-100178761D01*
X181053523Y-101226380D01*
X179482095Y-101750190D01*
X178434476Y-101750190D01*
X176863047Y-101226380D01*
X176339238Y-100702571D01*
X176339238Y-97035904D01*
X178434476Y-97035904D01*
X166910666Y-94416857D02*
X166910666Y-101750190D01*
X169529714Y-90226380D02*
X172148761Y-98083523D01*
X165339238Y-98083523D01*
X162196380Y-101750190D02*
X156434476Y-94416857D01*
X162196380Y-94416857D02*
X156434476Y-101750190D01*
D10*
X176236000Y-106607571D02*
X175878857Y-107607571D01*
X175521714Y-106607571D01*
X174950285Y-107464714D02*
X174878857Y-107536142D01*
X174950285Y-107607571D01*
X175021714Y-107536142D01*
X174950285Y-107464714D01*
X174950285Y-107607571D01*
X173450285Y-107607571D02*
X174307428Y-107607571D01*
X173878857Y-107607571D02*
X173878857Y-106107571D01*
X174021714Y-106321857D01*
X174164571Y-106464714D01*
X174307428Y-106536142D01*
X172807428Y-107464714D02*
X172736000Y-107536142D01*
X172807428Y-107607571D01*
X172878857Y-107536142D01*
X172807428Y-107464714D01*
X172807428Y-107607571D01*
X171307428Y-107607571D02*
X172164571Y-107607571D01*
X171736000Y-107607571D02*
X171736000Y-106107571D01*
X171878857Y-106321857D01*
X172021714Y-106464714D01*
X172164571Y-106536142D01*
X193057428Y-110157571D02*
X193057428Y-108657571D01*
X193057428Y-110086142D02*
X193200285Y-110157571D01*
X193486000Y-110157571D01*
X193628857Y-110086142D01*
X193700285Y-110014714D01*
X193771714Y-109871857D01*
X193771714Y-109443285D01*
X193700285Y-109300428D01*
X193628857Y-109229000D01*
X193486000Y-109157571D01*
X193200285Y-109157571D01*
X193057428Y-109229000D01*
X191771714Y-110086142D02*
X191914571Y-110157571D01*
X192200285Y-110157571D01*
X192343142Y-110086142D01*
X192414571Y-109943285D01*
X192414571Y-109371857D01*
X192343142Y-109229000D01*
X192200285Y-109157571D01*
X191914571Y-109157571D01*
X191771714Y-109229000D01*
X191700285Y-109371857D01*
X191700285Y-109514714D01*
X192414571Y-109657571D01*
X191128857Y-110086142D02*
X190986000Y-110157571D01*
X190700285Y-110157571D01*
X190557428Y-110086142D01*
X190486000Y-109943285D01*
X190486000Y-109871857D01*
X190557428Y-109729000D01*
X190700285Y-109657571D01*
X190914571Y-109657571D01*
X191057428Y-109586142D01*
X191128857Y-109443285D01*
X191128857Y-109371857D01*
X191057428Y-109229000D01*
X190914571Y-109157571D01*
X190700285Y-109157571D01*
X190557428Y-109229000D01*
X189843142Y-110157571D02*
X189843142Y-109157571D01*
X189843142Y-108657571D02*
X189914571Y-108729000D01*
X189843142Y-108800428D01*
X189771714Y-108729000D01*
X189843142Y-108657571D01*
X189843142Y-108800428D01*
X188486000Y-109157571D02*
X188486000Y-110371857D01*
X188557428Y-110514714D01*
X188628857Y-110586142D01*
X188771714Y-110657571D01*
X188986000Y-110657571D01*
X189128857Y-110586142D01*
X188486000Y-110086142D02*
X188628857Y-110157571D01*
X188914571Y-110157571D01*
X189057428Y-110086142D01*
X189128857Y-110014714D01*
X189200285Y-109871857D01*
X189200285Y-109443285D01*
X189128857Y-109300428D01*
X189057428Y-109229000D01*
X188914571Y-109157571D01*
X188628857Y-109157571D01*
X188486000Y-109229000D01*
X187771714Y-109157571D02*
X187771714Y-110157571D01*
X187771714Y-109300428D02*
X187700285Y-109229000D01*
X187557428Y-109157571D01*
X187343142Y-109157571D01*
X187200285Y-109229000D01*
X187128857Y-109371857D01*
X187128857Y-110157571D01*
X185843142Y-110086142D02*
X185986000Y-110157571D01*
X186271714Y-110157571D01*
X186414571Y-110086142D01*
X186486000Y-109943285D01*
X186486000Y-109371857D01*
X186414571Y-109229000D01*
X186271714Y-109157571D01*
X185986000Y-109157571D01*
X185843142Y-109229000D01*
X185771714Y-109371857D01*
X185771714Y-109514714D01*
X186486000Y-109657571D01*
X184486000Y-110157571D02*
X184486000Y-108657571D01*
X184486000Y-110086142D02*
X184628857Y-110157571D01*
X184914571Y-110157571D01*
X185057428Y-110086142D01*
X185128857Y-110014714D01*
X185200285Y-109871857D01*
X185200285Y-109443285D01*
X185128857Y-109300428D01*
X185057428Y-109229000D01*
X184914571Y-109157571D01*
X184628857Y-109157571D01*
X184486000Y-109229000D01*
X182628857Y-110157571D02*
X182628857Y-108657571D01*
X182628857Y-109229000D02*
X182486000Y-109157571D01*
X182200285Y-109157571D01*
X182057428Y-109229000D01*
X181986000Y-109300428D01*
X181914571Y-109443285D01*
X181914571Y-109871857D01*
X181986000Y-110014714D01*
X182057428Y-110086142D01*
X182200285Y-110157571D01*
X182486000Y-110157571D01*
X182628857Y-110086142D01*
X181414571Y-109157571D02*
X181057428Y-110157571D01*
X180700285Y-109157571D02*
X181057428Y-110157571D01*
X181200285Y-110514714D01*
X181271714Y-110586142D01*
X181414571Y-110657571D01*
X178343142Y-109157571D02*
X178343142Y-110157571D01*
X178986000Y-109157571D02*
X178986000Y-109943285D01*
X178914571Y-110086142D01*
X178771714Y-110157571D01*
X178557428Y-110157571D01*
X178414571Y-110086142D01*
X178343142Y-110014714D01*
X176557428Y-108586142D02*
X177843142Y-110514714D01*
X176057428Y-110157571D02*
X176057428Y-109157571D01*
X176057428Y-109300428D02*
X175986000Y-109229000D01*
X175843142Y-109157571D01*
X175628857Y-109157571D01*
X175486000Y-109229000D01*
X175414571Y-109371857D01*
X175414571Y-110157571D01*
X175414571Y-109371857D02*
X175343142Y-109229000D01*
X175200285Y-109157571D01*
X174986000Y-109157571D01*
X174843142Y-109229000D01*
X174771714Y-109371857D01*
X174771714Y-110157571D01*
X174200285Y-109157571D02*
X173843142Y-110157571D01*
X173486000Y-109157571D02*
X173843142Y-110157571D01*
X173986000Y-110514714D01*
X174057428Y-110586142D01*
X174200285Y-110657571D01*
X173128857Y-109157571D02*
X172557428Y-109157571D01*
X172914571Y-108657571D02*
X172914571Y-109943285D01*
X172843142Y-110086142D01*
X172700285Y-110157571D01*
X172557428Y-110157571D01*
X172057428Y-110157571D02*
X172057428Y-108657571D01*
X171414571Y-110157571D02*
X171414571Y-109371857D01*
X171486000Y-109229000D01*
X171628857Y-109157571D01*
X171843142Y-109157571D01*
X171986000Y-109229000D01*
X172057428Y-109300428D01*
X170486000Y-110157571D02*
X170628857Y-110086142D01*
X170700285Y-110014714D01*
X170771714Y-109871857D01*
X170771714Y-109443285D01*
X170700285Y-109300428D01*
X170628857Y-109229000D01*
X170486000Y-109157571D01*
X170271714Y-109157571D01*
X170128857Y-109229000D01*
X170057428Y-109300428D01*
X169986000Y-109443285D01*
X169986000Y-109871857D01*
X170057428Y-110014714D01*
X170128857Y-110086142D01*
X170271714Y-110157571D01*
X170486000Y-110157571D01*
X169414571Y-110086142D02*
X169271714Y-110157571D01*
X168986000Y-110157571D01*
X168843142Y-110086142D01*
X168771714Y-109943285D01*
X168771714Y-109871857D01*
X168843142Y-109729000D01*
X168986000Y-109657571D01*
X169200285Y-109657571D01*
X169343142Y-109586142D01*
X169414571Y-109443285D01*
X169414571Y-109371857D01*
X169343142Y-109229000D01*
X169200285Y-109157571D01*
X168986000Y-109157571D01*
X168843142Y-109229000D01*
X168128857Y-110157571D02*
X168128857Y-109157571D01*
X168128857Y-109300428D02*
X168057428Y-109229000D01*
X167914571Y-109157571D01*
X167700285Y-109157571D01*
X167557428Y-109229000D01*
X167486000Y-109371857D01*
X167486000Y-110157571D01*
X167486000Y-109371857D02*
X167414571Y-109229000D01*
X167271714Y-109157571D01*
X167057428Y-109157571D01*
X166914571Y-109229000D01*
X166843142Y-109371857D01*
X166843142Y-110157571D01*
X165486000Y-110157571D02*
X165486000Y-109371857D01*
X165557428Y-109229000D01*
X165700285Y-109157571D01*
X165986000Y-109157571D01*
X166128857Y-109229000D01*
X165486000Y-110086142D02*
X165628857Y-110157571D01*
X165986000Y-110157571D01*
X166128857Y-110086142D01*
X166200285Y-109943285D01*
X166200285Y-109800428D01*
X166128857Y-109657571D01*
X165986000Y-109586142D01*
X165628857Y-109586142D01*
X165486000Y-109514714D01*
X164771714Y-109157571D02*
X164771714Y-110157571D01*
X164771714Y-109300428D02*
X164700285Y-109229000D01*
X164557428Y-109157571D01*
X164343142Y-109157571D01*
X164200285Y-109229000D01*
X164128857Y-109371857D01*
X164128857Y-110157571D01*
X163414571Y-109157571D02*
X163414571Y-110157571D01*
X163414571Y-109300428D02*
X163343142Y-109229000D01*
X163200285Y-109157571D01*
X162986000Y-109157571D01*
X162843142Y-109229000D01*
X162771714Y-109371857D01*
X162771714Y-110157571D01*
X160128857Y-110157571D02*
X160986000Y-110157571D01*
X160557428Y-110157571D02*
X160557428Y-108657571D01*
X160700285Y-108871857D01*
X160843142Y-109014714D01*
X160986000Y-109086142D01*
X159486000Y-110014714D02*
X159414571Y-110086142D01*
X159486000Y-110157571D01*
X159557428Y-110086142D01*
X159486000Y-110014714D01*
X159486000Y-110157571D01*
X158843142Y-108800428D02*
X158771714Y-108729000D01*
X158628857Y-108657571D01*
X158271714Y-108657571D01*
X158128857Y-108729000D01*
X158057428Y-108800428D01*
X157986000Y-108943285D01*
X157986000Y-109086142D01*
X158057428Y-109300428D01*
X158914571Y-110157571D01*
X157986000Y-110157571D01*
X157057428Y-108657571D02*
X156914571Y-108657571D01*
X156771714Y-108729000D01*
X156700285Y-108800428D01*
X156628857Y-108943285D01*
X156557428Y-109229000D01*
X156557428Y-109586142D01*
X156628857Y-109871857D01*
X156700285Y-110014714D01*
X156771714Y-110086142D01*
X156914571Y-110157571D01*
X157057428Y-110157571D01*
X157200285Y-110086142D01*
X157271714Y-110014714D01*
X157343142Y-109871857D01*
X157414571Y-109586142D01*
X157414571Y-109229000D01*
X157343142Y-108943285D01*
X157271714Y-108800428D01*
X157200285Y-108729000D01*
X157057428Y-108657571D01*
X155128857Y-110157571D02*
X155986000Y-110157571D01*
X155557428Y-110157571D02*
X155557428Y-108657571D01*
X155700285Y-108871857D01*
X155843142Y-109014714D01*
X155986000Y-109086142D01*
X154414571Y-110157571D02*
X154128857Y-110157571D01*
X153986000Y-110086142D01*
X153914571Y-110014714D01*
X153771714Y-109800428D01*
X153700285Y-109514714D01*
X153700285Y-108943285D01*
X153771714Y-108800428D01*
X153843142Y-108729000D01*
X153986000Y-108657571D01*
X154271714Y-108657571D01*
X154414571Y-108729000D01*
X154486000Y-108800428D01*
X154557428Y-108943285D01*
X154557428Y-109300428D01*
X154486000Y-109443285D01*
X154414571Y-109514714D01*
X154271714Y-109586142D01*
X153986000Y-109586142D01*
X153843142Y-109514714D01*
X153771714Y-109443285D01*
X153700285Y-109300428D01*
X119921714Y-102810571D02*
X119921714Y-103096285D01*
X119350285Y-102810571D02*
X119350285Y-103096285D01*
X118707428Y-102810571D02*
X118707428Y-104024857D01*
X118636000Y-104167714D01*
X118564571Y-104239142D01*
X118421714Y-104310571D01*
X118136000Y-104310571D01*
X117993142Y-104239142D01*
X117921714Y-104167714D01*
X117850285Y-104024857D01*
X117850285Y-102810571D01*
X116921714Y-104310571D02*
X117064571Y-104239142D01*
X117136000Y-104096285D01*
X117136000Y-102810571D01*
X116564571Y-103310571D02*
X115993142Y-103310571D01*
X116350285Y-102810571D02*
X116350285Y-104096285D01*
X116278857Y-104239142D01*
X116136000Y-104310571D01*
X115993142Y-104310571D01*
X115493142Y-104310571D02*
X115493142Y-103310571D01*
X115493142Y-102810571D02*
X115564571Y-102882000D01*
X115493142Y-102953428D01*
X115421714Y-102882000D01*
X115493142Y-102810571D01*
X115493142Y-102953428D01*
X114778857Y-104310571D02*
X114778857Y-103310571D01*
X114778857Y-103453428D02*
X114707428Y-103382000D01*
X114564571Y-103310571D01*
X114350285Y-103310571D01*
X114207428Y-103382000D01*
X114136000Y-103524857D01*
X114136000Y-104310571D01*
X114136000Y-103524857D02*
X114064571Y-103382000D01*
X113921714Y-103310571D01*
X113707428Y-103310571D01*
X113564571Y-103382000D01*
X113493142Y-103524857D01*
X113493142Y-104310571D01*
X112136000Y-104310571D02*
X112136000Y-103524857D01*
X112207428Y-103382000D01*
X112350285Y-103310571D01*
X112636000Y-103310571D01*
X112778857Y-103382000D01*
X112136000Y-104239142D02*
X112278857Y-104310571D01*
X112636000Y-104310571D01*
X112778857Y-104239142D01*
X112850285Y-104096285D01*
X112850285Y-103953428D01*
X112778857Y-103810571D01*
X112636000Y-103739142D01*
X112278857Y-103739142D01*
X112136000Y-103667714D01*
X111636000Y-103310571D02*
X111064571Y-103310571D01*
X111421714Y-102810571D02*
X111421714Y-104096285D01*
X111350285Y-104239142D01*
X111207428Y-104310571D01*
X111064571Y-104310571D01*
X109993142Y-104239142D02*
X110136000Y-104310571D01*
X110421714Y-104310571D01*
X110564571Y-104239142D01*
X110636000Y-104096285D01*
X110636000Y-103524857D01*
X110564571Y-103382000D01*
X110421714Y-103310571D01*
X110136000Y-103310571D01*
X109993142Y-103382000D01*
X109921714Y-103524857D01*
X109921714Y-103667714D01*
X110636000Y-103810571D01*
X107278857Y-104167714D02*
X107350285Y-104239142D01*
X107564571Y-104310571D01*
X107707428Y-104310571D01*
X107921714Y-104239142D01*
X108064571Y-104096285D01*
X108136000Y-103953428D01*
X108207428Y-103667714D01*
X108207428Y-103453428D01*
X108136000Y-103167714D01*
X108064571Y-103024857D01*
X107921714Y-102882000D01*
X107707428Y-102810571D01*
X107564571Y-102810571D01*
X107350285Y-102882000D01*
X107278857Y-102953428D01*
X106421714Y-104310571D02*
X106564571Y-104239142D01*
X106636000Y-104167714D01*
X106707428Y-104024857D01*
X106707428Y-103596285D01*
X106636000Y-103453428D01*
X106564571Y-103382000D01*
X106421714Y-103310571D01*
X106207428Y-103310571D01*
X106064571Y-103382000D01*
X105993142Y-103453428D01*
X105921714Y-103596285D01*
X105921714Y-104024857D01*
X105993142Y-104167714D01*
X106064571Y-104239142D01*
X106207428Y-104310571D01*
X106421714Y-104310571D01*
X105064571Y-104310571D02*
X105207428Y-104239142D01*
X105278857Y-104096285D01*
X105278857Y-102810571D01*
X104278857Y-104310571D02*
X104421714Y-104239142D01*
X104493142Y-104096285D01*
X104493142Y-102810571D01*
X103136000Y-104239142D02*
X103278857Y-104310571D01*
X103564571Y-104310571D01*
X103707428Y-104239142D01*
X103778857Y-104096285D01*
X103778857Y-103524857D01*
X103707428Y-103382000D01*
X103564571Y-103310571D01*
X103278857Y-103310571D01*
X103136000Y-103382000D01*
X103064571Y-103524857D01*
X103064571Y-103667714D01*
X103778857Y-103810571D01*
X101778857Y-103310571D02*
X101778857Y-104524857D01*
X101850285Y-104667714D01*
X101921714Y-104739142D01*
X102064571Y-104810571D01*
X102278857Y-104810571D01*
X102421714Y-104739142D01*
X101778857Y-104239142D02*
X101921714Y-104310571D01*
X102207428Y-104310571D01*
X102350285Y-104239142D01*
X102421714Y-104167714D01*
X102493142Y-104024857D01*
X102493142Y-103596285D01*
X102421714Y-103453428D01*
X102350285Y-103382000D01*
X102207428Y-103310571D01*
X101921714Y-103310571D01*
X101778857Y-103382000D01*
X100493142Y-104239142D02*
X100636000Y-104310571D01*
X100921714Y-104310571D01*
X101064571Y-104239142D01*
X101136000Y-104096285D01*
X101136000Y-103524857D01*
X101064571Y-103382000D01*
X100921714Y-103310571D01*
X100636000Y-103310571D01*
X100493142Y-103382000D01*
X100421714Y-103524857D01*
X100421714Y-103667714D01*
X101136000Y-103810571D01*
X98636000Y-104310571D02*
X98636000Y-102810571D01*
X97778857Y-104310571D02*
X98421714Y-103453428D01*
X97778857Y-102810571D02*
X98636000Y-103667714D01*
X96564571Y-104239142D02*
X96707428Y-104310571D01*
X96993142Y-104310571D01*
X97136000Y-104239142D01*
X97207428Y-104096285D01*
X97207428Y-103524857D01*
X97136000Y-103382000D01*
X96993142Y-103310571D01*
X96707428Y-103310571D01*
X96564571Y-103382000D01*
X96493142Y-103524857D01*
X96493142Y-103667714D01*
X97207428Y-103810571D01*
X95993142Y-103310571D02*
X95636000Y-104310571D01*
X95278857Y-103310571D02*
X95636000Y-104310571D01*
X95778857Y-104667714D01*
X95850285Y-104739142D01*
X95993142Y-104810571D01*
X94707428Y-104310571D02*
X94707428Y-102810571D01*
X94707428Y-103382000D02*
X94564571Y-103310571D01*
X94278857Y-103310571D01*
X94136000Y-103382000D01*
X94064571Y-103453428D01*
X93993142Y-103596285D01*
X93993142Y-104024857D01*
X94064571Y-104167714D01*
X94136000Y-104239142D01*
X94278857Y-104310571D01*
X94564571Y-104310571D01*
X94707428Y-104239142D01*
X93136000Y-104310571D02*
X93278857Y-104239142D01*
X93350285Y-104167714D01*
X93421714Y-104024857D01*
X93421714Y-103596285D01*
X93350285Y-103453428D01*
X93278857Y-103382000D01*
X93136000Y-103310571D01*
X92921714Y-103310571D01*
X92778857Y-103382000D01*
X92707428Y-103453428D01*
X92636000Y-103596285D01*
X92636000Y-104024857D01*
X92707428Y-104167714D01*
X92778857Y-104239142D01*
X92921714Y-104310571D01*
X93136000Y-104310571D01*
X91350285Y-104310571D02*
X91350285Y-103524857D01*
X91421714Y-103382000D01*
X91564571Y-103310571D01*
X91850285Y-103310571D01*
X91993142Y-103382000D01*
X91350285Y-104239142D02*
X91493142Y-104310571D01*
X91850285Y-104310571D01*
X91993142Y-104239142D01*
X92064571Y-104096285D01*
X92064571Y-103953428D01*
X91993142Y-103810571D01*
X91850285Y-103739142D01*
X91493142Y-103739142D01*
X91350285Y-103667714D01*
X90636000Y-104310571D02*
X90636000Y-103310571D01*
X90636000Y-103596285D02*
X90564571Y-103453428D01*
X90493142Y-103382000D01*
X90350285Y-103310571D01*
X90207428Y-103310571D01*
X89064571Y-104310571D02*
X89064571Y-102810571D01*
X89064571Y-104239142D02*
X89207428Y-104310571D01*
X89493142Y-104310571D01*
X89636000Y-104239142D01*
X89707428Y-104167714D01*
X89778857Y-104024857D01*
X89778857Y-103596285D01*
X89707428Y-103453428D01*
X89636000Y-103382000D01*
X89493142Y-103310571D01*
X89207428Y-103310571D01*
X89064571Y-103382000D01*
X88421714Y-102810571D02*
X88421714Y-103096285D01*
X87850285Y-102810571D02*
X87850285Y-103096285D01*
D16*
X116318571Y-95286095D02*
X116318571Y-99738476D01*
X116056666Y-100262285D01*
X115794761Y-100524190D01*
X115270952Y-100786095D01*
X114223333Y-100786095D01*
X113699523Y-100524190D01*
X113437619Y-100262285D01*
X113175714Y-99738476D01*
X113175714Y-95286095D01*
X110556666Y-100262285D02*
X110294761Y-100524190D01*
X110556666Y-100786095D01*
X110818571Y-100524190D01*
X110556666Y-100262285D01*
X110556666Y-100786095D01*
X104794761Y-100262285D02*
X105056666Y-100524190D01*
X105842380Y-100786095D01*
X106366190Y-100786095D01*
X107151904Y-100524190D01*
X107675714Y-100000380D01*
X107937619Y-99476571D01*
X108199523Y-98428952D01*
X108199523Y-97643238D01*
X107937619Y-96595619D01*
X107675714Y-96071809D01*
X107151904Y-95548000D01*
X106366190Y-95286095D01*
X105842380Y-95286095D01*
X105056666Y-95548000D01*
X104794761Y-95809904D01*
X102437619Y-100262285D02*
X102175714Y-100524190D01*
X102437619Y-100786095D01*
X102699523Y-100524190D01*
X102437619Y-100262285D01*
X102437619Y-100786095D01*
X99818571Y-100786095D02*
X99818571Y-95286095D01*
X96675714Y-100786095D02*
X99032857Y-97643238D01*
X96675714Y-95286095D02*
X99818571Y-98428952D01*
X94318571Y-100786095D02*
X94318571Y-95286095D01*
X94318571Y-97381333D02*
X93794761Y-97119428D01*
X92747142Y-97119428D01*
X92223333Y-97381333D01*
X91961428Y-97643238D01*
X91699523Y-98167047D01*
X91699523Y-99738476D01*
X91961428Y-100262285D01*
X92223333Y-100524190D01*
X92747142Y-100786095D01*
X93794761Y-100786095D01*
X94318571Y-100524190D01*
D17*
G04 #@! TO.C,U1*
X27686000Y-58420000D02*
X58166000Y-58420000D01*
X27686000Y-58420000D02*
X27686000Y-63500000D01*
X27686000Y-63500000D02*
X25146000Y-63500000D01*
X25146000Y-63500000D02*
X25146000Y-71120000D01*
X25146000Y-71120000D02*
X27686000Y-71120000D01*
X27686000Y-71120000D02*
X27686000Y-76200000D01*
X27686000Y-76200000D02*
X58166000Y-76200000D01*
X58166000Y-76200000D02*
X58166000Y-58420000D01*
D18*
G04 #@! TO.C,D49*
X120556000Y-108668000D02*
X120556000Y-107518000D01*
X127856000Y-108668000D02*
X120556000Y-108668000D01*
X127856000Y-103168000D02*
X120556000Y-103168000D01*
G04 #@! TO.C,D52*
X234790000Y-102914000D02*
X227490000Y-102914000D01*
X234790000Y-108414000D02*
X227490000Y-108414000D01*
X227490000Y-108414000D02*
X227490000Y-107264000D01*
G04 #@! TO.C,D51*
X188374000Y-108846000D02*
X188374000Y-107696000D01*
X195674000Y-108846000D02*
X188374000Y-108846000D01*
X195674000Y-103346000D02*
X188374000Y-103346000D01*
G04 #@! TO.C,D47*
X36826000Y-108592000D02*
X36826000Y-107442000D01*
X44126000Y-108592000D02*
X36826000Y-108592000D01*
X44126000Y-103092000D02*
X36826000Y-103092000D01*
G04 #@! TO.C,D50*
X158082000Y-103168000D02*
X150782000Y-103168000D01*
X158082000Y-108668000D02*
X150782000Y-108668000D01*
X150782000Y-108668000D02*
X150782000Y-107518000D01*
G04 #@! TO.C,D48*
X88740000Y-103092000D02*
X81440000Y-103092000D01*
X88740000Y-108592000D02*
X81440000Y-108592000D01*
X81440000Y-108592000D02*
X81440000Y-107442000D01*
G04 #@! TO.C,D49*
D17*
X125420285Y-102870380D02*
X125420285Y-101870380D01*
X125182190Y-101870380D01*
X125039333Y-101918000D01*
X124944095Y-102013238D01*
X124896476Y-102108476D01*
X124848857Y-102298952D01*
X124848857Y-102441809D01*
X124896476Y-102632285D01*
X124944095Y-102727523D01*
X125039333Y-102822761D01*
X125182190Y-102870380D01*
X125420285Y-102870380D01*
X123991714Y-102203714D02*
X123991714Y-102870380D01*
X124229809Y-101822761D02*
X124467904Y-102537047D01*
X123848857Y-102537047D01*
X123420285Y-102870380D02*
X123229809Y-102870380D01*
X123134571Y-102822761D01*
X123086952Y-102775142D01*
X122991714Y-102632285D01*
X122944095Y-102441809D01*
X122944095Y-102060857D01*
X122991714Y-101965619D01*
X123039333Y-101918000D01*
X123134571Y-101870380D01*
X123325047Y-101870380D01*
X123420285Y-101918000D01*
X123467904Y-101965619D01*
X123515523Y-102060857D01*
X123515523Y-102298952D01*
X123467904Y-102394190D01*
X123420285Y-102441809D01*
X123325047Y-102489428D01*
X123134571Y-102489428D01*
X123039333Y-102441809D01*
X122991714Y-102394190D01*
X122944095Y-102298952D01*
X128070285Y-104770380D02*
X128641714Y-104770380D01*
X128356000Y-104770380D02*
X128356000Y-103770380D01*
X128451238Y-103913238D01*
X128546476Y-104008476D01*
X128641714Y-104056095D01*
G04 #@! TO.C,D52*
X232354285Y-102616380D02*
X232354285Y-101616380D01*
X232116190Y-101616380D01*
X231973333Y-101664000D01*
X231878095Y-101759238D01*
X231830476Y-101854476D01*
X231782857Y-102044952D01*
X231782857Y-102187809D01*
X231830476Y-102378285D01*
X231878095Y-102473523D01*
X231973333Y-102568761D01*
X232116190Y-102616380D01*
X232354285Y-102616380D01*
X230878095Y-101616380D02*
X231354285Y-101616380D01*
X231401904Y-102092571D01*
X231354285Y-102044952D01*
X231259047Y-101997333D01*
X231020952Y-101997333D01*
X230925714Y-102044952D01*
X230878095Y-102092571D01*
X230830476Y-102187809D01*
X230830476Y-102425904D01*
X230878095Y-102521142D01*
X230925714Y-102568761D01*
X231020952Y-102616380D01*
X231259047Y-102616380D01*
X231354285Y-102568761D01*
X231401904Y-102521142D01*
X230449523Y-101711619D02*
X230401904Y-101664000D01*
X230306666Y-101616380D01*
X230068571Y-101616380D01*
X229973333Y-101664000D01*
X229925714Y-101711619D01*
X229878095Y-101806857D01*
X229878095Y-101902095D01*
X229925714Y-102044952D01*
X230497142Y-102616380D01*
X229878095Y-102616380D01*
X235004285Y-104516380D02*
X235575714Y-104516380D01*
X235290000Y-104516380D02*
X235290000Y-103516380D01*
X235385238Y-103659238D01*
X235480476Y-103754476D01*
X235575714Y-103802095D01*
G04 #@! TO.C,D51*
X193238285Y-103048380D02*
X193238285Y-102048380D01*
X193000190Y-102048380D01*
X192857333Y-102096000D01*
X192762095Y-102191238D01*
X192714476Y-102286476D01*
X192666857Y-102476952D01*
X192666857Y-102619809D01*
X192714476Y-102810285D01*
X192762095Y-102905523D01*
X192857333Y-103000761D01*
X193000190Y-103048380D01*
X193238285Y-103048380D01*
X191762095Y-102048380D02*
X192238285Y-102048380D01*
X192285904Y-102524571D01*
X192238285Y-102476952D01*
X192143047Y-102429333D01*
X191904952Y-102429333D01*
X191809714Y-102476952D01*
X191762095Y-102524571D01*
X191714476Y-102619809D01*
X191714476Y-102857904D01*
X191762095Y-102953142D01*
X191809714Y-103000761D01*
X191904952Y-103048380D01*
X192143047Y-103048380D01*
X192238285Y-103000761D01*
X192285904Y-102953142D01*
X190762095Y-103048380D02*
X191333523Y-103048380D01*
X191047809Y-103048380D02*
X191047809Y-102048380D01*
X191143047Y-102191238D01*
X191238285Y-102286476D01*
X191333523Y-102334095D01*
X195888285Y-104948380D02*
X196459714Y-104948380D01*
X196174000Y-104948380D02*
X196174000Y-103948380D01*
X196269238Y-104091238D01*
X196364476Y-104186476D01*
X196459714Y-104234095D01*
G04 #@! TO.C,D47*
X41690285Y-102794380D02*
X41690285Y-101794380D01*
X41452190Y-101794380D01*
X41309333Y-101842000D01*
X41214095Y-101937238D01*
X41166476Y-102032476D01*
X41118857Y-102222952D01*
X41118857Y-102365809D01*
X41166476Y-102556285D01*
X41214095Y-102651523D01*
X41309333Y-102746761D01*
X41452190Y-102794380D01*
X41690285Y-102794380D01*
X40261714Y-102127714D02*
X40261714Y-102794380D01*
X40499809Y-101746761D02*
X40737904Y-102461047D01*
X40118857Y-102461047D01*
X39833142Y-101794380D02*
X39166476Y-101794380D01*
X39595047Y-102794380D01*
X44340285Y-104694380D02*
X44911714Y-104694380D01*
X44626000Y-104694380D02*
X44626000Y-103694380D01*
X44721238Y-103837238D01*
X44816476Y-103932476D01*
X44911714Y-103980095D01*
G04 #@! TO.C,D50*
X155646285Y-102870380D02*
X155646285Y-101870380D01*
X155408190Y-101870380D01*
X155265333Y-101918000D01*
X155170095Y-102013238D01*
X155122476Y-102108476D01*
X155074857Y-102298952D01*
X155074857Y-102441809D01*
X155122476Y-102632285D01*
X155170095Y-102727523D01*
X155265333Y-102822761D01*
X155408190Y-102870380D01*
X155646285Y-102870380D01*
X154170095Y-101870380D02*
X154646285Y-101870380D01*
X154693904Y-102346571D01*
X154646285Y-102298952D01*
X154551047Y-102251333D01*
X154312952Y-102251333D01*
X154217714Y-102298952D01*
X154170095Y-102346571D01*
X154122476Y-102441809D01*
X154122476Y-102679904D01*
X154170095Y-102775142D01*
X154217714Y-102822761D01*
X154312952Y-102870380D01*
X154551047Y-102870380D01*
X154646285Y-102822761D01*
X154693904Y-102775142D01*
X153503428Y-101870380D02*
X153408190Y-101870380D01*
X153312952Y-101918000D01*
X153265333Y-101965619D01*
X153217714Y-102060857D01*
X153170095Y-102251333D01*
X153170095Y-102489428D01*
X153217714Y-102679904D01*
X153265333Y-102775142D01*
X153312952Y-102822761D01*
X153408190Y-102870380D01*
X153503428Y-102870380D01*
X153598666Y-102822761D01*
X153646285Y-102775142D01*
X153693904Y-102679904D01*
X153741523Y-102489428D01*
X153741523Y-102251333D01*
X153693904Y-102060857D01*
X153646285Y-101965619D01*
X153598666Y-101918000D01*
X153503428Y-101870380D01*
X158296285Y-104770380D02*
X158867714Y-104770380D01*
X158582000Y-104770380D02*
X158582000Y-103770380D01*
X158677238Y-103913238D01*
X158772476Y-104008476D01*
X158867714Y-104056095D01*
G04 #@! TO.C,D48*
X86304285Y-102794380D02*
X86304285Y-101794380D01*
X86066190Y-101794380D01*
X85923333Y-101842000D01*
X85828095Y-101937238D01*
X85780476Y-102032476D01*
X85732857Y-102222952D01*
X85732857Y-102365809D01*
X85780476Y-102556285D01*
X85828095Y-102651523D01*
X85923333Y-102746761D01*
X86066190Y-102794380D01*
X86304285Y-102794380D01*
X84875714Y-102127714D02*
X84875714Y-102794380D01*
X85113809Y-101746761D02*
X85351904Y-102461047D01*
X84732857Y-102461047D01*
X84209047Y-102222952D02*
X84304285Y-102175333D01*
X84351904Y-102127714D01*
X84399523Y-102032476D01*
X84399523Y-101984857D01*
X84351904Y-101889619D01*
X84304285Y-101842000D01*
X84209047Y-101794380D01*
X84018571Y-101794380D01*
X83923333Y-101842000D01*
X83875714Y-101889619D01*
X83828095Y-101984857D01*
X83828095Y-102032476D01*
X83875714Y-102127714D01*
X83923333Y-102175333D01*
X84018571Y-102222952D01*
X84209047Y-102222952D01*
X84304285Y-102270571D01*
X84351904Y-102318190D01*
X84399523Y-102413428D01*
X84399523Y-102603904D01*
X84351904Y-102699142D01*
X84304285Y-102746761D01*
X84209047Y-102794380D01*
X84018571Y-102794380D01*
X83923333Y-102746761D01*
X83875714Y-102699142D01*
X83828095Y-102603904D01*
X83828095Y-102413428D01*
X83875714Y-102318190D01*
X83923333Y-102270571D01*
X84018571Y-102222952D01*
X88954285Y-104694380D02*
X89525714Y-104694380D01*
X89240000Y-104694380D02*
X89240000Y-103694380D01*
X89335238Y-103837238D01*
X89430476Y-103932476D01*
X89525714Y-103980095D01*
G04 #@! TD*
M02*
