M48
;DRILL file {KiCad (5.0.2)-1} date 2/11/2019 11:16:15 AM
;FORMAT={-:-/ absolute / inch / decimal}
FMAT,2
INCH,TZ
T1C0.0157
T2C0.0315
T3C0.0430
T4C0.0433
T5C0.0590
%
G90
G05
T1
X1.53Y-3.03
X1.65Y-3.88
X1.771Y-4.185
X1.92Y-3.56
X2.Y-3.56
X2.22Y-3.5445
X3.19Y-4.04
T2
X3.46Y-2.556
X3.46Y-2.856
X8.337Y-3.306
X8.337Y-3.606
X4.764Y-1.806
X4.764Y-2.106
X4.958Y-2.49
X4.958Y-2.79
X1.7Y-1.76
X1.7Y-2.06
X1.86Y-2.48
X1.86Y-2.78
X6.831Y-3.31
X6.831Y-3.61
X7.775Y-1.808
X7.775Y-2.108
X7.961Y-2.559
X7.961Y-2.859
X8.498Y-1.802
X8.498Y-2.102
X9.721Y-2.557
X9.721Y-2.857
X2.435Y-4.055
X2.435Y-4.355
X5.14Y-4.06
X5.14Y-4.36
X7.575Y-3.317
X7.575Y-3.617
X7.761Y-4.055
X7.761Y-4.355
X1.31Y-3.4675
X1.31Y-3.7675
X4.592Y-3.317
X4.592Y-3.617
X4.009Y-1.807
X4.009Y-2.107
X8.708Y-2.557
X8.708Y-2.857
X6.454Y-2.559
X6.454Y-2.859
X9.9475Y-4.06
X9.9475Y-4.36
X7.026Y-1.806
X7.026Y-2.106
X2.333Y-3.304
X2.333Y-3.604
X5.513Y-1.81
X5.513Y-2.11
X3.257Y-1.805
X3.257Y-2.105
X9.084Y-3.311
X9.084Y-3.611
X10.018Y-1.801
X10.018Y-2.101
X3.071Y-3.307
X3.071Y-3.607
X10.045Y-4.06
X10.045Y-4.36
X8.517Y-4.06
X8.517Y-4.36
X9.921Y-3.304
X9.921Y-3.604
X2.5Y-1.805
X2.5Y-2.105
X1.16Y-3.49
X1.16Y-3.79
X5.335Y-3.31
X5.335Y-3.61
X7.22Y-2.5
X7.22Y-2.8
X5.703Y-2.558
X5.703Y-2.858
X4.201Y-2.558
X4.201Y-2.858
X2.704Y-2.566
X2.704Y-2.866
X3.844Y-3.308
X3.844Y-3.608
X1.98Y-2.48
X1.98Y-2.78
X6.269Y-1.807
X6.269Y-2.107
X9.271Y-1.808
X9.271Y-2.108
X6.075Y-3.307
X6.075Y-3.607
X1.81Y-1.76
X1.81Y-2.06
X2.529Y-4.055
X2.529Y-4.355
T3
X1.14Y-2.341
X1.14Y-2.959
X1.24Y-2.359
X1.24Y-2.941
X1.34Y-2.341
X1.34Y-2.959
X1.44Y-2.359
X1.44Y-2.941
X1.54Y-2.341
X1.54Y-2.959
X1.64Y-2.359
X1.64Y-2.941
X1.74Y-2.341
X1.74Y-2.959
X1.84Y-2.359
X1.84Y-2.941
X1.94Y-2.341
X1.94Y-2.959
X2.04Y-2.359
X2.04Y-2.941
X2.14Y-2.341
X2.14Y-2.959
X2.24Y-2.359
X2.24Y-2.941
T4
X1.1228Y-3.0675
X1.1228Y-3.3234
X1.3Y-3.0675
X1.3Y-3.3234
T5
X5.162Y-2.566
X5.412Y-2.466
X2.725Y-1.817
X2.975Y-1.717
X8.913Y-2.567
X9.163Y-2.467
X8.163Y-2.565
X8.413Y-2.465
X9.28Y-3.31
X9.53Y-3.21
X7.03Y-3.31
X7.28Y-3.21
X6.662Y-2.568
X6.912Y-2.468
X2.161Y-2.563
X2.411Y-2.463
X5.912Y-2.567
X6.162Y-2.467
X10.12Y-3.31
X10.37Y-3.21
X9.475Y-1.817
X9.725Y-1.717
X4.222Y-1.818
X4.472Y-1.718
X4.972Y-1.815
X5.222Y-1.715
X5.34Y-4.06
X5.59Y-3.96
X10.226Y-1.817
X10.476Y-1.717
X7.413Y-2.567
X7.663Y-2.467
X3.475Y-1.812
X3.725Y-1.712
X1.223Y-1.815
X1.473Y-1.715
X8.72Y-4.06
X8.97Y-3.96
X7.97Y-4.06
X8.22Y-3.96
X4.78Y-3.31
X5.03Y-3.21
X1.49Y-3.31
X1.74Y-3.21
X7.224Y-1.815
X7.474Y-1.715
X10.22Y-4.06
X10.47Y-3.96
X1.3Y-2.55
X1.55Y-2.45
X6.28Y-3.31
X6.53Y-3.21
X8.725Y-1.816
X8.975Y-1.716
X9.47Y-4.06
X9.72Y-3.96
X2.71Y-4.06
X2.96Y-3.96
X3.28Y-3.31
X3.53Y-3.21
X8.53Y-3.31
X8.78Y-3.21
X1.21Y-4.06
X1.46Y-3.96
X5.724Y-1.816
X5.974Y-1.716
X7.78Y-3.31
X8.03Y-3.21
X5.53Y-3.31
X5.78Y-3.21
X4.413Y-2.565
X4.663Y-2.465
X9.94Y-2.56
X10.19Y-2.46
X2.53Y-3.31
X2.78Y-3.21
X6.476Y-1.818
X6.726Y-1.718
X3.662Y-2.569
X3.912Y-2.469
X4.03Y-3.31
X4.28Y-3.21
X7.975Y-1.816
X8.225Y-1.716
X1.96Y-4.06
X2.21Y-3.96
X2.912Y-2.563
X3.162Y-2.463
X1.972Y-1.817
X2.222Y-1.717
T0
M30
