M48
;DRILL file {KiCad (5.0.2)-1} date 4/30/2019 1:26:53 AM
;FORMAT={-:-/ absolute / metric / decimal}
FMAT,2
METRIC,TZ
T1C0.400
T2C1.000
T3C1.092
T4C1.100
T5C1.499
T6C1.800
T7C3.048
T8C3.988
%
G90
G05
T1
X22.466Y-62.07
X23.692Y-62.795
X28.258Y-62.07
X28.524Y-27.495
X30.861Y-57.721
X31.813Y-73.177
X32.004Y-62.649
X32.042Y-64.338
X33.515Y-43.129
X34.384Y-29.299
X35.166Y-30.892
X35.687Y-56.109
X35.852Y-46.533
X36.005Y-35.052
X36.005Y-44.425
X37.493Y-82.41
X42.634Y-84.359
X44.171Y-81.585
X45.301Y-61.709
X46.787Y-83.604
X47.142Y-85.547
X47.333Y-71.229
X47.358Y-56.464
X48.12Y-55.245
X48.12Y-55.245
X48.273Y-57.76
X48.527Y-43.866
X49.665Y-84.359
X50.317Y-75.425
X52.045Y-85.065
X52.337Y-26.645
X55.115Y-43.878
X57.036Y-62.649
X58.457Y-61.924
X59.652Y-64.459
X71.399Y-26.276
X73.304Y-83.604
X75.235Y-82.81
X76.175Y-83.718
X79.273Y-83.566
X80.695Y-81.611
X90.424Y-25.743
X92.385Y-65.184
X109.156Y-25.184
X111.76Y-83.566
X114.871Y-82.817
X115.71Y-81.611
X117.854Y-83.579
X117.938Y-65.926
X127.787Y-24.867
X135.992Y-66.65
X151.676Y-67.375
X151.79Y-83.579
X152.87Y-45.034
X154.076Y-45.759
X155.473Y-82.817
X156.147Y-81.611
X156.591Y-48.501
X158.28Y-83.706
X159.995Y-62.884
X166.624Y-27.635
X182.194Y-83.706
X185.699Y-27.216
X186.245Y-82.817
X186.792Y-81.611
X188.632Y-62.884
X189.025Y-83.629
X204.724Y-26.911
X221.209Y-83.629
X223.799Y-26.67
X226.098Y-82.817
X226.365Y-81.611
X226.365Y-81.611
X242.773Y-26.759
X254.872Y-64.287
T2
X79.247Y-31.991
X87.047Y-31.991
X174.51Y-31.991
X182.31Y-31.991
X112.584Y-29.248
X120.384Y-29.248
X50.672Y-48.285
X58.472Y-48.285
X50.685Y-51.016
X58.485Y-51.016
X41.16Y-32.017
X48.96Y-32.017
X226.875Y-70.091
X234.675Y-70.091
X17.36Y-31.966
X25.16Y-31.966
X98.348Y-32.017
X106.148Y-32.017
X74.484Y-29.248
X82.284Y-29.248
X233.45Y-32.004
X241.25Y-32.004
X153.097Y-70.104
X160.897Y-70.104
X186.397Y-67.399
X194.197Y-67.399
X239.419Y-29.197
X247.219Y-29.197
X207.873Y-70.104
X215.672Y-70.104
X226.897Y-29.235
X234.697Y-29.235
X60.21Y-31.979
X68.01Y-31.979
X93.509Y-29.248
X101.309Y-29.248
X200.278Y-50.978
X208.078Y-50.978
X67.334Y-70.104
X75.134Y-70.104
X105.434Y-70.104
X113.234Y-70.104
X155.472Y-31.979
X163.272Y-31.979
X245.947Y-70.104
X253.747Y-70.104
X169.76Y-29.223
X177.56Y-29.223
X188.797Y-29.223
X196.597Y-29.223
X17.347Y-29.299
X25.147Y-29.299
X162.153Y-50.927
X169.952Y-50.927
X85.965Y-50.927
X93.765Y-50.927
X36.397Y-70.091
X44.197Y-70.091
X150.697Y-29.261
X158.497Y-29.261
X193.585Y-31.979
X201.385Y-31.979
X207.847Y-29.261
X215.647Y-29.261
X124.027Y-50.914
X131.827Y-50.914
X243.331Y-51.067
X251.131Y-51.067
X220.725Y-51.054
X228.525Y-51.054
X136.397Y-32.004
X144.197Y-32.004
X117.347Y-32.017
X125.147Y-32.017
X36.384Y-29.261
X44.184Y-29.261
X104.99Y-50.914
X112.79Y-50.914
X181.152Y-50.94
X188.952Y-50.94
X17.347Y-70.091
X25.147Y-70.091
X131.685Y-29.223
X139.485Y-29.223
X213.041Y-32.029
X220.841Y-32.029
X55.434Y-29.223
X63.234Y-29.223
X66.877Y-50.94
X74.677Y-50.94
X143.077Y-50.965
X150.877Y-50.965
T3
X16.815Y-51.892
X16.815Y-67.132
X19.355Y-51.892
X19.355Y-67.132
X21.895Y-51.892
X21.895Y-67.132
X24.435Y-51.892
X24.435Y-67.132
X26.975Y-51.892
X26.975Y-67.132
X29.515Y-51.892
X29.515Y-67.132
X32.055Y-51.892
X32.055Y-67.132
X34.595Y-51.892
X34.595Y-67.132
X37.135Y-51.892
X37.135Y-67.132
X39.675Y-51.892
X39.675Y-67.132
X42.215Y-51.892
X42.215Y-67.132
X44.755Y-51.892
X44.755Y-67.132
T4
X229.692Y-36.451
X229.692Y-42.951
X234.192Y-36.451
X234.192Y-42.951
T5
X19.736Y-75.717
X26.086Y-73.177
X174.498Y-37.592
X180.848Y-35.052
X112.598Y-18.567
X118.948Y-16.027
X238.811Y-37.592
X245.161Y-35.052
X226.898Y-18.567
X233.248Y-16.027
X136.398Y-37.617
X142.748Y-35.077
X24.486Y-56.642
X30.836Y-54.102
X50.698Y-56.642
X57.048Y-54.102
X145.923Y-56.642
X152.273Y-54.102
X93.548Y-18.567
X99.898Y-16.027
X234.163Y-64.262
X240.513Y-61.722
X123.266Y-75.565
X129.616Y-73.025
X131.674Y-18.517
X138.024Y-15.977
X241.249Y-37.592
X247.599Y-35.052
X45.974Y-37.592
X52.324Y-35.052
X155.473Y-37.592
X161.823Y-35.052
X69.723Y-56.642
X76.073Y-54.102
X103.149Y-37.592
X109.499Y-35.052
X212.598Y-37.592
X218.948Y-35.052
X236.423Y-18.542
X242.773Y-16.002
X74.498Y-18.542
X80.848Y-16.002
X150.698Y-18.542
X157.048Y-16.002
X244.831Y-64.287
X251.181Y-61.747
X60.223Y-37.592
X66.573Y-35.052
X198.374Y-37.592
X204.724Y-35.052
X107.823Y-56.642
X114.173Y-54.102
X98.323Y-37.592
X104.673Y-35.052
X79.248Y-37.617
X85.598Y-35.077
X122.174Y-37.592
X128.524Y-35.052
X67.335Y-75.692
X73.685Y-73.152
X138.786Y-75.717
X145.136Y-73.177
X41.148Y-37.592
X47.498Y-35.052
X188.798Y-18.542
X195.148Y-16.002
X217.449Y-37.617
X223.799Y-35.077
X36.398Y-75.692
X42.748Y-73.152
X193.573Y-37.592
X199.923Y-35.052
X184.023Y-56.642
X190.373Y-54.102
X169.748Y-18.542
X176.098Y-16.002
X65.049Y-37.592
X71.399Y-35.052
X43.536Y-75.717
X49.886Y-73.177
X153.086Y-75.692
X159.436Y-73.152
X17.348Y-18.542
X23.698Y-16.002
X105.435Y-75.692
X111.785Y-73.152
X247.206Y-26.162
X253.555Y-23.622
X179.349Y-37.592
X185.699Y-35.052
X160.274Y-37.617
X166.624Y-35.077
X88.798Y-56.667
X95.148Y-54.127
X222.148Y-56.667
X228.498Y-54.127
X207.848Y-18.542
X214.198Y-16.002
X22.174Y-37.592
X28.524Y-35.052
X36.398Y-18.542
X42.748Y-16.002
X207.848Y-75.692
X214.198Y-73.152
X17.348Y-75.692
X23.698Y-73.152
X55.448Y-75.692
X61.798Y-73.152
X186.411Y-75.692
X192.761Y-73.152
X84.074Y-37.592
X90.424Y-35.052
X164.973Y-56.667
X171.323Y-54.127
X203.098Y-56.642
X209.448Y-54.102
X55.448Y-18.567
X61.798Y-16.027
X19.736Y-37.592
X26.086Y-35.052
X245.948Y-75.692
X252.298Y-73.152
X117.348Y-37.592
X123.698Y-35.052
X188.773Y-75.692
X195.123Y-73.152
X126.873Y-56.642
X133.223Y-54.102
X141.249Y-37.617
X147.599Y-35.077
X226.898Y-75.717
X233.248Y-73.177
T6
X42.266Y-78.257
X52.426Y-78.257
X151.816Y-78.232
X161.976Y-78.232
X16.078Y-21.082
X26.238Y-21.082
X104.165Y-78.232
X114.325Y-78.232
X244.665Y-21.082
X254.825Y-21.082
X178.079Y-40.132
X188.239Y-40.132
X159.004Y-40.157
X169.164Y-40.157
X87.528Y-59.207
X97.688Y-59.207
X220.878Y-59.207
X231.038Y-59.207
X206.578Y-21.082
X216.738Y-21.082
X20.904Y-40.132
X31.064Y-40.132
X35.128Y-21.082
X45.288Y-21.082
X206.578Y-78.232
X216.738Y-78.232
X16.078Y-78.232
X26.238Y-78.232
X54.178Y-78.232
X64.338Y-78.232
X185.141Y-78.232
X195.301Y-78.232
X82.804Y-40.132
X92.964Y-40.132
X163.703Y-59.207
X173.863Y-59.207
X201.828Y-59.182
X211.988Y-59.182
X54.178Y-21.107
X64.338Y-21.107
X18.466Y-40.132
X28.626Y-40.132
X244.678Y-78.232
X254.838Y-78.232
X116.078Y-40.132
X126.238Y-40.132
X187.503Y-78.232
X197.663Y-78.232
X125.603Y-59.182
X135.763Y-59.182
X139.979Y-40.157
X150.139Y-40.157
X225.628Y-78.257
X235.788Y-78.257
X18.466Y-78.257
X28.626Y-78.257
X173.228Y-40.132
X183.388Y-40.132
X111.328Y-21.107
X121.488Y-21.107
X237.541Y-40.132
X247.701Y-40.132
X225.628Y-21.107
X235.788Y-21.107
X135.128Y-40.157
X145.288Y-40.157
X23.216Y-59.182
X33.376Y-59.182
X49.428Y-59.182
X59.588Y-59.182
X144.653Y-59.182
X154.813Y-59.182
X92.278Y-21.107
X102.438Y-21.107
X231.623Y-59.182
X241.783Y-59.182
X121.996Y-78.105
X132.156Y-78.105
X130.404Y-21.057
X140.564Y-21.057
X239.979Y-40.132
X250.139Y-40.132
X44.704Y-40.132
X54.864Y-40.132
X154.203Y-40.132
X164.363Y-40.132
X68.453Y-59.182
X78.613Y-59.182
X101.879Y-40.132
X112.039Y-40.132
X211.328Y-40.132
X221.488Y-40.132
X235.153Y-21.082
X245.313Y-21.082
X73.228Y-21.082
X83.388Y-21.082
X149.428Y-21.082
X159.588Y-21.082
X242.291Y-59.207
X252.451Y-59.207
X58.953Y-40.132
X69.113Y-40.132
X197.104Y-40.132
X207.264Y-40.132
X106.553Y-59.182
X116.713Y-59.182
X97.053Y-40.132
X107.213Y-40.132
X77.978Y-40.157
X88.138Y-40.157
X120.904Y-40.132
X131.064Y-40.132
X66.065Y-78.232
X76.225Y-78.232
X137.516Y-78.257
X147.676Y-78.257
X39.878Y-40.132
X50.038Y-40.132
X187.528Y-21.082
X197.688Y-21.082
X216.179Y-40.157
X226.339Y-40.157
X35.128Y-78.232
X45.288Y-78.232
X192.303Y-40.132
X202.463Y-40.132
X182.753Y-59.182
X192.913Y-59.182
X168.478Y-21.082
X178.638Y-21.082
X63.779Y-40.132
X73.939Y-40.132
T7
X92.558Y-71.272
X192.634Y-71.272
X144.958Y-71.247
X168.834Y-71.247
X97.307Y-71.247
X121.183Y-71.247
T8
X206.908Y-59.182
X59.258Y-21.107
X23.546Y-40.132
X249.758Y-78.232
X121.158Y-40.132
X192.583Y-78.232
X130.683Y-59.182
X145.059Y-40.157
X230.708Y-78.257
X23.546Y-78.257
X178.308Y-40.132
X116.408Y-21.107
X242.621Y-40.132
X230.708Y-21.107
X140.208Y-40.157
X28.296Y-59.182
X54.508Y-59.182
X149.733Y-59.182
X97.358Y-21.107
X236.703Y-59.182
X127.076Y-78.105
X135.484Y-21.057
X245.059Y-40.132
X49.784Y-40.132
X159.283Y-40.132
X73.533Y-59.182
X106.959Y-40.132
X216.408Y-40.132
X240.233Y-21.082
X78.308Y-21.082
X154.508Y-21.082
X247.371Y-59.207
X64.033Y-40.132
X202.184Y-40.132
X111.633Y-59.182
X102.133Y-40.132
X83.058Y-40.157
X125.984Y-40.132
X71.145Y-78.232
X92.558Y-86.512
X142.596Y-78.257
X192.634Y-86.512
X44.958Y-40.132
X192.608Y-21.082
X221.259Y-40.157
X40.208Y-78.232
X197.383Y-40.132
X187.833Y-59.182
X173.558Y-21.082
X68.859Y-40.132
X47.346Y-78.257
X144.958Y-86.487
X156.896Y-78.232
X168.834Y-86.487
X21.158Y-21.082
X97.307Y-86.487
X109.245Y-78.232
X121.183Y-86.487
X249.745Y-21.082
X183.159Y-40.132
X164.084Y-40.157
X92.608Y-59.207
X225.958Y-59.207
X211.658Y-21.082
X25.984Y-40.132
X40.208Y-21.082
X211.658Y-78.232
X21.158Y-78.232
X59.258Y-78.232
X190.221Y-78.232
X87.884Y-40.132
X168.783Y-59.207
T0
M30
