M48
;DRILL file {KiCad (5.0.2)-1} date 1/29/2019 5:38:02 PM
;FORMAT={-:-/ absolute / metric / decimal}
FMAT,2
METRIC,TZ
T1C0.400
T2C0.800
T3C1.100
T4C1.500
T5C3.500
T6C4.000
%
G90
G05
T1
X48.768Y-105.156
X50.8Y-90.424
X56.388Y-90.03
X81.026Y-102.616
T2
X202.209Y-64.999
X202.209Y-72.619
X78.003Y-83.998
X78.003Y-91.618
X230.734Y-84.099
X230.734Y-91.719
X64.237Y-102.997
X64.237Y-110.617
X246.913Y-64.948
X246.913Y-72.568
X211.76Y-83.972
X211.76Y-91.592
X159.233Y-45.898
X159.233Y-53.518
X178.46Y-45.872
X178.46Y-53.492
X63.5Y-45.847
X63.5Y-53.467
X33.274Y-88.075
X33.274Y-95.694
X221.183Y-64.948
X221.183Y-72.568
X183.388Y-63.5
X183.388Y-71.12
X121.006Y-45.872
X121.006Y-53.492
X215.849Y-45.771
X215.849Y-53.391
X87.884Y-64.922
X87.884Y-72.542
X116.637Y-84.252
X116.637Y-91.872
X125.933Y-63.246
X125.933Y-70.866
X163.932Y-64.999
X163.932Y-72.619
X197.485Y-45.923
X197.485Y-53.543
X235.483Y-45.923
X235.483Y-53.543
X44.933Y-45.923
X44.933Y-53.543
X106.705Y-64.973
X106.705Y-72.593
X29.21Y-61.976
X29.21Y-69.596
X130.556Y-103.124
X130.556Y-110.744
X135.509Y-84.074
X135.509Y-91.694
X192.405Y-84.252
X192.405Y-91.872
X254.457Y-45.745
X254.457Y-53.365
X59.258Y-83.922
X59.258Y-91.542
X235.458Y-103.124
X235.458Y-110.744
X101.829Y-45.898
X101.829Y-53.518
X68.682Y-65.176
X68.682Y-72.796
X197.129Y-102.997
X197.129Y-110.617
X144.856Y-64.973
X144.856Y-72.593
X154.305Y-83.998
X154.305Y-91.618
X216.332Y-103.124
X216.332Y-110.744
X254.635Y-102.997
X254.635Y-110.617
X45.237Y-102.997
X45.237Y-110.617
X26.416Y-45.974
X26.416Y-53.594
X251.993Y-83.922
X251.993Y-91.542
X97.638Y-84.023
X97.638Y-91.643
X173.507Y-84.074
X173.507Y-91.694
X140.03Y-45.974
X140.03Y-53.594
X50.292Y-62.992
X50.292Y-70.612
X26.416Y-95.377
X26.416Y-102.997
X82.728Y-45.847
X82.728Y-53.467
T3
X28.52Y-77.914
X28.52Y-84.414
X33.02Y-77.914
X33.02Y-84.414
X28.956Y-59.69
X28.956Y-74.93
X31.496Y-59.69
X31.496Y-74.93
X34.036Y-59.69
X34.036Y-74.93
X36.576Y-59.69
X36.576Y-74.93
X39.116Y-59.69
X39.116Y-74.93
X41.656Y-59.69
X41.656Y-74.93
X44.196Y-59.69
X44.196Y-74.93
X46.736Y-59.69
X46.736Y-74.93
X49.276Y-59.69
X49.276Y-74.93
X51.816Y-59.69
X51.816Y-74.93
X54.356Y-59.69
X54.356Y-74.93
X56.896Y-59.69
X56.896Y-74.93
T4
X33.198Y-64.846
X39.548Y-62.306
X49.835Y-45.898
X56.185Y-43.358
X257.073Y-83.947
X263.423Y-81.407
X49.847Y-102.933
X56.197Y-100.393
X73.711Y-64.846
X80.061Y-62.306
X178.562Y-83.998
X184.912Y-81.458
X202.311Y-45.872
X208.661Y-43.332
X83.236Y-83.896
X89.586Y-81.356
X221.361Y-45.872
X227.711Y-43.332
X226.136Y-64.948
X232.486Y-62.408
X149.911Y-64.948
X156.261Y-62.408
X159.512Y-83.972
X165.862Y-81.432
X207.086Y-64.897
X213.436Y-62.357
X135.128Y-103.073
X141.478Y-100.533
X121.31Y-83.871
X127.66Y-81.331
X197.587Y-83.972
X203.937Y-81.432
X202.311Y-102.997
X208.661Y-100.457
X188.036Y-64.948
X194.386Y-62.408
X235.687Y-84.023
X242.037Y-81.483
X240.411Y-45.898
X246.761Y-43.358
X259.537Y-103.022
X265.887Y-100.482
X54.635Y-64.846
X60.985Y-62.306
X30.81Y-102.946
X37.16Y-100.406
X259.486Y-45.898
X265.836Y-43.358
X183.236Y-45.847
X189.586Y-43.307
X92.761Y-64.999
X99.111Y-62.459
X111.836Y-64.897
X118.186Y-62.357
X106.985Y-45.923
X113.335Y-43.383
X252.324Y-64.922
X258.674Y-62.382
X30.81Y-45.847
X37.16Y-43.307
X102.286Y-83.972
X108.636Y-81.432
X221.31Y-103.048
X227.66Y-100.508
X130.861Y-64.922
X137.211Y-62.382
X168.961Y-64.973
X175.311Y-62.433
X64.16Y-83.871
X70.51Y-81.331
X37.973Y-83.896
X44.323Y-81.356
X240.436Y-103.048
X246.786Y-100.508
X164.236Y-45.923
X170.586Y-43.383
X140.36Y-83.972
X146.71Y-81.432
X126.035Y-45.847
X132.385Y-43.307
X68.961Y-45.898
X75.311Y-43.358
X145.136Y-45.872
X151.486Y-43.332
X88.011Y-45.771
X94.361Y-43.231
X216.611Y-83.947
X222.961Y-81.407
X68.91Y-102.946
X75.26Y-100.406
T5
X124.968Y-73.914
X182.372Y-74.168
T6
X115.646Y-67.437
X110.795Y-48.463
X256.134Y-67.462
X34.62Y-48.387
X106.096Y-86.512
X225.12Y-105.588
X134.671Y-67.462
X172.771Y-67.513
X67.97Y-86.411
X41.783Y-86.436
X244.246Y-105.588
X168.046Y-48.463
X144.17Y-86.512
X129.845Y-48.387
X72.771Y-48.438
X148.946Y-48.412
X91.821Y-48.311
X220.421Y-86.487
X72.72Y-105.486
X37.008Y-67.386
X53.645Y-48.438
X260.883Y-86.487
X53.657Y-105.474
X77.521Y-67.386
X182.372Y-86.538
X206.121Y-48.412
X87.046Y-86.436
X225.171Y-48.412
X229.946Y-67.488
X153.721Y-67.488
X163.322Y-86.512
X210.896Y-67.437
X138.938Y-105.613
X125.12Y-86.411
X201.397Y-86.512
X206.121Y-105.537
X191.846Y-67.488
X239.497Y-86.563
X244.221Y-48.438
X263.347Y-105.562
X58.445Y-67.386
X34.62Y-105.486
X263.296Y-48.438
X187.046Y-48.387
X96.571Y-67.539
T0
M30
