G04 #@! TF.GenerationSoftware,KiCad,Pcbnew,(5.0.2)-1*
G04 #@! TF.CreationDate,2019-02-08T00:11:31-05:00*
G04 #@! TF.ProjectId,TG4x,54473478-2e6b-4696-9361-645f70636258,rev?*
G04 #@! TF.SameCoordinates,Original*
G04 #@! TF.FileFunction,Profile,NP*
%FSLAX46Y46*%
G04 Gerber Fmt 4.6, Leading zero omitted, Abs format (unit mm)*
G04 Created by KiCad (PCBNEW (5.0.2)-1) date 2/8/2019 12:11:31 AM*
%MOMM*%
%LPD*%
G01*
G04 APERTURE LIST*
%ADD10C,0.150000*%
G04 APERTURE END LIST*
D10*
X267716000Y-38862000D02*
X272796000Y-43942000D01*
X200660000Y-38862000D02*
X267716000Y-38862000D01*
X105410000Y-38862000D02*
X193040000Y-38862000D01*
X30226000Y-38862000D02*
X97790000Y-38862000D01*
X196850000Y-42672000D02*
X200660000Y-38862000D01*
X193040000Y-38862000D02*
X196850000Y-42672000D01*
X101600000Y-42672000D02*
X105410000Y-38862000D01*
X97790000Y-38862000D02*
X101600000Y-42672000D01*
X87376000Y-115062000D02*
X30226000Y-115062000D01*
X91186000Y-111252000D02*
X87376000Y-115062000D01*
X94996000Y-115062000D02*
X91186000Y-111252000D01*
X186690000Y-115062000D02*
X94996000Y-115062000D01*
X194310000Y-115062000D02*
X267716000Y-115062000D01*
X190500000Y-111252000D02*
X186690000Y-115062000D01*
X194310000Y-115062000D02*
X190500000Y-111252000D01*
X267716000Y-115062000D02*
X272796000Y-110236000D01*
X25146000Y-43942000D02*
X30226000Y-38862000D01*
X30226000Y-115062000D02*
X25146000Y-109982000D01*
X25146000Y-109982000D02*
X25146000Y-43942000D01*
X272796000Y-43942000D02*
X272796000Y-110236000D01*
M02*
