G04 #@! TF.GenerationSoftware,KiCad,Pcbnew,(5.0.2)-1*
G04 #@! TF.CreationDate,2019-01-29T17:38:01-05:00*
G04 #@! TF.ProjectId,TG4x,54473478-2e6b-4696-9361-645f70636258,rev?*
G04 #@! TF.SameCoordinates,Original*
G04 #@! TF.FileFunction,Copper,L2,Bot*
G04 #@! TF.FilePolarity,Positive*
%FSLAX46Y46*%
G04 Gerber Fmt 4.6, Leading zero omitted, Abs format (unit mm)*
G04 Created by KiCad (PCBNEW (5.0.2)-1) date 1/29/2019 5:38:01 PM*
%MOMM*%
%LPD*%
G01*
G04 APERTURE LIST*
G04 #@! TA.AperFunction,ComponentPad*
%ADD10C,2.200000*%
G04 #@! TD*
G04 #@! TA.AperFunction,ComponentPad*
%ADD11C,2.000000*%
G04 #@! TD*
G04 #@! TA.AperFunction,ComponentPad*
%ADD12R,1.600000X1.600000*%
G04 #@! TD*
G04 #@! TA.AperFunction,ComponentPad*
%ADD13C,1.600000*%
G04 #@! TD*
G04 #@! TA.AperFunction,ComponentPad*
%ADD14O,1.600000X1.600000*%
G04 #@! TD*
G04 #@! TA.AperFunction,SMDPad,CuDef*
%ADD15R,1.500000X1.000000*%
G04 #@! TD*
G04 #@! TA.AperFunction,ViaPad*
%ADD16C,0.800000*%
G04 #@! TD*
G04 #@! TA.AperFunction,Conductor*
%ADD17C,0.250000*%
G04 #@! TD*
G04 APERTURE END LIST*
D10*
G04 #@! TO.P,SW30,2*
G04 #@! TO.N,Net-(D30-Pad2)*
X188036200Y-64947800D03*
G04 #@! TO.P,SW30,1*
G04 #@! TO.N,Net-(SW29-Pad1)*
X194386200Y-62407800D03*
G04 #@! TD*
G04 #@! TO.P,SW12,1*
G04 #@! TO.N,Net-(SW10-Pad1)*
X89585800Y-81356200D03*
G04 #@! TO.P,SW12,2*
G04 #@! TO.N,Net-(D12-Pad2)*
X83235800Y-83896200D03*
G04 #@! TD*
D11*
G04 #@! TO.P,SW46,2*
G04 #@! TO.N,Net-(SW46-Pad2)*
X28520000Y-77914500D03*
G04 #@! TO.P,SW46,1*
G04 #@! TO.N,Net-(D46-Pad1)*
X33020000Y-77914500D03*
G04 #@! TO.P,SW46,2*
G04 #@! TO.N,Net-(SW46-Pad2)*
X28520000Y-84414500D03*
G04 #@! TO.P,SW46,1*
G04 #@! TO.N,Net-(D46-Pad1)*
X33020000Y-84414500D03*
G04 #@! TD*
D10*
G04 #@! TO.P,SW4,1*
G04 #@! TO.N,Net-(SW1-Pad1)*
X44323000Y-81356200D03*
G04 #@! TO.P,SW4,2*
G04 #@! TO.N,Net-(D4-Pad2)*
X37973000Y-83896200D03*
G04 #@! TD*
G04 #@! TO.P,SW3,1*
G04 #@! TO.N,Net-(SW1-Pad1)*
X39547800Y-62306200D03*
G04 #@! TO.P,SW3,2*
G04 #@! TO.N,Net-(D3-Pad2)*
X33197800Y-64846200D03*
G04 #@! TD*
D12*
G04 #@! TO.P,U1,1*
G04 #@! TO.N,Net-(D1-Pad1)*
X28956000Y-59690000D03*
D13*
G04 #@! TO.P,U1,2*
G04 #@! TO.N,Net-(SW26-Pad1)*
X31496000Y-59690000D03*
G04 #@! TO.P,U1,3*
G04 #@! TO.N,Net-(U1-Pad3)*
X34036000Y-59690000D03*
G04 #@! TO.P,U1,4*
G04 #@! TO.N,Net-(U1-Pad4)*
X36576000Y-59690000D03*
G04 #@! TO.P,U1,5*
G04 #@! TO.N,Net-(D11-Pad1)*
X39116000Y-59690000D03*
G04 #@! TO.P,U1,6*
G04 #@! TO.N,Net-(SW23-Pad1)*
X41656000Y-59690000D03*
G04 #@! TO.P,U1,7*
G04 #@! TO.N,Net-(SW19-Pad1)*
X44196000Y-59690000D03*
G04 #@! TO.P,U1,8*
G04 #@! TO.N,Net-(SW16-Pad1)*
X46736000Y-59690000D03*
G04 #@! TO.P,U1,9*
G04 #@! TO.N,Net-(SW13-Pad1)*
X49276000Y-59690000D03*
G04 #@! TO.P,U1,10*
G04 #@! TO.N,Net-(SW10-Pad1)*
X51816000Y-59690000D03*
G04 #@! TO.P,U1,11*
G04 #@! TO.N,Net-(SW5-Pad1)*
X54356000Y-59690000D03*
G04 #@! TO.P,U1,12*
G04 #@! TO.N,Net-(SW1-Pad1)*
X56896000Y-59690000D03*
G04 #@! TO.P,U1,13*
G04 #@! TO.N,Net-(D46-Pad4)*
X56896000Y-74930000D03*
G04 #@! TO.P,U1,14*
G04 #@! TO.N,Net-(SW45-Pad1)*
X54356000Y-74930000D03*
G04 #@! TO.P,U1,15*
G04 #@! TO.N,Net-(SW41-Pad1)*
X51816000Y-74930000D03*
G04 #@! TO.P,U1,16*
G04 #@! TO.N,Net-(SW37-Pad1)*
X49276000Y-74930000D03*
G04 #@! TO.P,U1,17*
G04 #@! TO.N,Net-(SW33-Pad1)*
X46736000Y-74930000D03*
G04 #@! TO.P,U1,18*
G04 #@! TO.N,Net-(SW29-Pad1)*
X44196000Y-74930000D03*
G04 #@! TO.P,U1,19*
G04 #@! TO.N,Net-(D12-Pad1)*
X41656000Y-74930000D03*
G04 #@! TO.P,U1,20*
G04 #@! TO.N,Net-(D10-Pad1)*
X39116000Y-74930000D03*
G04 #@! TO.P,U1,21*
G04 #@! TO.N,Net-(D46-Pad3)*
X36576000Y-74930000D03*
G04 #@! TO.P,U1,22*
G04 #@! TO.N,Net-(SW46-Pad2)*
X34036000Y-74930000D03*
G04 #@! TO.P,U1,23*
G04 #@! TO.N,Net-(D46-Pad1)*
X31496000Y-74930000D03*
G04 #@! TO.P,U1,24*
G04 #@! TO.N,Net-(U1-Pad24)*
X28956000Y-74930000D03*
G04 #@! TD*
D12*
G04 #@! TO.P,D7,1*
G04 #@! TO.N,Net-(D11-Pad1)*
X50292000Y-70612000D03*
D14*
G04 #@! TO.P,D7,2*
G04 #@! TO.N,Net-(D7-Pad2)*
X50292000Y-62992000D03*
G04 #@! TD*
G04 #@! TO.P,D39,2*
G04 #@! TO.N,Net-(D39-Pad2)*
X230733600Y-84099400D03*
D12*
G04 #@! TO.P,D39,1*
G04 #@! TO.N,Net-(D12-Pad1)*
X230733600Y-91719400D03*
G04 #@! TD*
G04 #@! TO.P,D1,1*
G04 #@! TO.N,Net-(D1-Pad1)*
X26416000Y-53594000D03*
D14*
G04 #@! TO.P,D1,2*
G04 #@! TO.N,Net-(D1-Pad2)*
X26416000Y-45974000D03*
G04 #@! TD*
D12*
G04 #@! TO.P,D6,1*
G04 #@! TO.N,Net-(D10-Pad1)*
X45237400Y-110617000D03*
D14*
G04 #@! TO.P,D6,2*
G04 #@! TO.N,Net-(D6-Pad2)*
X45237400Y-102997000D03*
G04 #@! TD*
D12*
G04 #@! TO.P,D8,1*
G04 #@! TO.N,Net-(D12-Pad1)*
X59258200Y-91541600D03*
D14*
G04 #@! TO.P,D8,2*
G04 #@! TO.N,Net-(D8-Pad2)*
X59258200Y-83921600D03*
G04 #@! TD*
G04 #@! TO.P,D10,2*
G04 #@! TO.N,Net-(D10-Pad2)*
X64236600Y-102997000D03*
D12*
G04 #@! TO.P,D10,1*
G04 #@! TO.N,Net-(D10-Pad1)*
X64236600Y-110617000D03*
G04 #@! TD*
D14*
G04 #@! TO.P,D2,2*
G04 #@! TO.N,Net-(D2-Pad2)*
X26416000Y-102997000D03*
D12*
G04 #@! TO.P,D2,1*
G04 #@! TO.N,Net-(D10-Pad1)*
X26416000Y-95377000D03*
G04 #@! TD*
D14*
G04 #@! TO.P,D43,2*
G04 #@! TO.N,Net-(D43-Pad2)*
X251993400Y-83921600D03*
D12*
G04 #@! TO.P,D43,1*
G04 #@! TO.N,Net-(D12-Pad1)*
X251993400Y-91541600D03*
G04 #@! TD*
D14*
G04 #@! TO.P,D42,2*
G04 #@! TO.N,Net-(D42-Pad2)*
X246913400Y-64947800D03*
D12*
G04 #@! TO.P,D42,1*
G04 #@! TO.N,Net-(D11-Pad1)*
X246913400Y-72567800D03*
G04 #@! TD*
D10*
G04 #@! TO.P,SW38,1*
G04 #@! TO.N,Net-(SW37-Pad1)*
X232486200Y-62407800D03*
G04 #@! TO.P,SW38,2*
G04 #@! TO.N,Net-(D38-Pad2)*
X226136200Y-64947800D03*
G04 #@! TD*
D12*
G04 #@! TO.P,D38,1*
G04 #@! TO.N,Net-(D11-Pad1)*
X221183200Y-72567800D03*
D14*
G04 #@! TO.P,D38,2*
G04 #@! TO.N,Net-(D38-Pad2)*
X221183200Y-64947800D03*
G04 #@! TD*
D12*
G04 #@! TO.P,D4,1*
G04 #@! TO.N,Net-(D12-Pad1)*
X33274000Y-95694500D03*
D14*
G04 #@! TO.P,D4,2*
G04 #@! TO.N,Net-(D4-Pad2)*
X33274000Y-88074500D03*
G04 #@! TD*
G04 #@! TO.P,D5,2*
G04 #@! TO.N,Net-(D5-Pad2)*
X44932600Y-45923200D03*
D12*
G04 #@! TO.P,D5,1*
G04 #@! TO.N,Net-(D1-Pad1)*
X44932600Y-53543200D03*
G04 #@! TD*
D10*
G04 #@! TO.P,SW2,2*
G04 #@! TO.N,Net-(D2-Pad2)*
X30810200Y-102946200D03*
G04 #@! TO.P,SW2,1*
G04 #@! TO.N,Net-(SW1-Pad1)*
X37160200Y-100406200D03*
G04 #@! TD*
G04 #@! TO.P,SW37,2*
G04 #@! TO.N,Net-(D37-Pad2)*
X221361000Y-45872400D03*
G04 #@! TO.P,SW37,1*
G04 #@! TO.N,Net-(SW37-Pad1)*
X227711000Y-43332400D03*
G04 #@! TD*
D14*
G04 #@! TO.P,D3,2*
G04 #@! TO.N,Net-(D3-Pad2)*
X29210000Y-61976000D03*
D12*
G04 #@! TO.P,D3,1*
G04 #@! TO.N,Net-(D11-Pad1)*
X29210000Y-69596000D03*
G04 #@! TD*
G04 #@! TO.P,D9,1*
G04 #@! TO.N,Net-(D1-Pad1)*
X63500000Y-53467000D03*
D14*
G04 #@! TO.P,D9,2*
G04 #@! TO.N,Net-(D9-Pad2)*
X63500000Y-45847000D03*
G04 #@! TD*
G04 #@! TO.P,D11,2*
G04 #@! TO.N,Net-(D11-Pad2)*
X68681600Y-65176400D03*
D12*
G04 #@! TO.P,D11,1*
G04 #@! TO.N,Net-(D11-Pad1)*
X68681600Y-72796400D03*
G04 #@! TD*
G04 #@! TO.P,D13,1*
G04 #@! TO.N,Net-(D1-Pad1)*
X82727800Y-53467000D03*
D14*
G04 #@! TO.P,D13,2*
G04 #@! TO.N,Net-(D13-Pad2)*
X82727800Y-45847000D03*
G04 #@! TD*
D12*
G04 #@! TO.P,D15,1*
G04 #@! TO.N,Net-(D12-Pad1)*
X97637600Y-91643200D03*
D14*
G04 #@! TO.P,D15,2*
G04 #@! TO.N,Net-(D15-Pad2)*
X97637600Y-84023200D03*
G04 #@! TD*
G04 #@! TO.P,D16,2*
G04 #@! TO.N,Net-(D16-Pad2)*
X101828600Y-45897800D03*
D12*
G04 #@! TO.P,D16,1*
G04 #@! TO.N,Net-(D1-Pad1)*
X101828600Y-53517800D03*
G04 #@! TD*
G04 #@! TO.P,D17,1*
G04 #@! TO.N,Net-(D11-Pad1)*
X106705400Y-72593200D03*
D14*
G04 #@! TO.P,D17,2*
G04 #@! TO.N,Net-(D17-Pad2)*
X106705400Y-64973200D03*
G04 #@! TD*
G04 #@! TO.P,D18,2*
G04 #@! TO.N,Net-(D18-Pad2)*
X116636800Y-84251800D03*
D12*
G04 #@! TO.P,D18,1*
G04 #@! TO.N,Net-(D12-Pad1)*
X116636800Y-91871800D03*
G04 #@! TD*
G04 #@! TO.P,D19,1*
G04 #@! TO.N,Net-(D1-Pad1)*
X121005600Y-53492400D03*
D14*
G04 #@! TO.P,D19,2*
G04 #@! TO.N,Net-(D19-Pad2)*
X121005600Y-45872400D03*
G04 #@! TD*
G04 #@! TO.P,D22,2*
G04 #@! TO.N,Net-(D22-Pad2)*
X130556000Y-103124000D03*
D12*
G04 #@! TO.P,D22,1*
G04 #@! TO.N,Net-(D10-Pad1)*
X130556000Y-110744000D03*
G04 #@! TD*
D14*
G04 #@! TO.P,D12,2*
G04 #@! TO.N,Net-(D12-Pad2)*
X78003400Y-83997800D03*
D12*
G04 #@! TO.P,D12,1*
G04 #@! TO.N,Net-(D12-Pad1)*
X78003400Y-91617800D03*
G04 #@! TD*
G04 #@! TO.P,D23,1*
G04 #@! TO.N,Net-(D1-Pad1)*
X140030200Y-53594000D03*
D14*
G04 #@! TO.P,D23,2*
G04 #@! TO.N,Net-(D23-Pad2)*
X140030200Y-45974000D03*
G04 #@! TD*
G04 #@! TO.P,D14,2*
G04 #@! TO.N,Net-(D14-Pad2)*
X87884000Y-64922400D03*
D12*
G04 #@! TO.P,D14,1*
G04 #@! TO.N,Net-(D11-Pad1)*
X87884000Y-72542400D03*
G04 #@! TD*
G04 #@! TO.P,D25,1*
G04 #@! TO.N,Net-(D12-Pad1)*
X154305000Y-91617800D03*
D14*
G04 #@! TO.P,D25,2*
G04 #@! TO.N,Net-(D25-Pad2)*
X154305000Y-83997800D03*
G04 #@! TD*
G04 #@! TO.P,D26,2*
G04 #@! TO.N,Net-(D26-Pad2)*
X159232600Y-45897800D03*
D12*
G04 #@! TO.P,D26,1*
G04 #@! TO.N,Net-(D1-Pad1)*
X159232600Y-53517800D03*
G04 #@! TD*
D14*
G04 #@! TO.P,D20,2*
G04 #@! TO.N,Net-(D20-Pad2)*
X125933200Y-63246000D03*
D12*
G04 #@! TO.P,D20,1*
G04 #@! TO.N,Net-(D11-Pad1)*
X125933200Y-70866000D03*
G04 #@! TD*
G04 #@! TO.P,D21,1*
G04 #@! TO.N,Net-(D12-Pad1)*
X135509000Y-91694000D03*
D14*
G04 #@! TO.P,D21,2*
G04 #@! TO.N,Net-(D21-Pad2)*
X135509000Y-84074000D03*
G04 #@! TD*
D12*
G04 #@! TO.P,D27,1*
G04 #@! TO.N,Net-(D11-Pad1)*
X163931600Y-72618600D03*
D14*
G04 #@! TO.P,D27,2*
G04 #@! TO.N,Net-(D27-Pad2)*
X163931600Y-64998600D03*
G04 #@! TD*
G04 #@! TO.P,D28,2*
G04 #@! TO.N,Net-(D28-Pad2)*
X173507400Y-84074000D03*
D12*
G04 #@! TO.P,D28,1*
G04 #@! TO.N,Net-(D12-Pad1)*
X173507400Y-91694000D03*
G04 #@! TD*
D14*
G04 #@! TO.P,D24,2*
G04 #@! TO.N,Net-(D24-Pad2)*
X144856200Y-64973200D03*
D12*
G04 #@! TO.P,D24,1*
G04 #@! TO.N,Net-(D11-Pad1)*
X144856200Y-72593200D03*
G04 #@! TD*
D14*
G04 #@! TO.P,D36,2*
G04 #@! TO.N,Net-(D36-Pad2)*
X216331800Y-103124000D03*
D12*
G04 #@! TO.P,D36,1*
G04 #@! TO.N,Net-(D10-Pad1)*
X216331800Y-110744000D03*
G04 #@! TD*
G04 #@! TO.P,D37,1*
G04 #@! TO.N,Net-(D1-Pad1)*
X215849200Y-53390800D03*
D14*
G04 #@! TO.P,D37,2*
G04 #@! TO.N,Net-(D37-Pad2)*
X215849200Y-45770800D03*
G04 #@! TD*
D12*
G04 #@! TO.P,D31,1*
G04 #@! TO.N,Net-(D12-Pad1)*
X192405000Y-91871800D03*
D14*
G04 #@! TO.P,D31,2*
G04 #@! TO.N,Net-(D31-Pad2)*
X192405000Y-84251800D03*
G04 #@! TD*
D12*
G04 #@! TO.P,D29,1*
G04 #@! TO.N,Net-(D1-Pad1)*
X178460400Y-53492400D03*
D14*
G04 #@! TO.P,D29,2*
G04 #@! TO.N,Net-(D29-Pad2)*
X178460400Y-45872400D03*
G04 #@! TD*
G04 #@! TO.P,D34,2*
G04 #@! TO.N,Net-(D34-Pad2)*
X202209400Y-64998600D03*
D12*
G04 #@! TO.P,D34,1*
G04 #@! TO.N,Net-(D11-Pad1)*
X202209400Y-72618600D03*
G04 #@! TD*
D14*
G04 #@! TO.P,D33,2*
G04 #@! TO.N,Net-(D33-Pad2)*
X197485000Y-45923200D03*
D12*
G04 #@! TO.P,D33,1*
G04 #@! TO.N,Net-(D1-Pad1)*
X197485000Y-53543200D03*
G04 #@! TD*
G04 #@! TO.P,D30,1*
G04 #@! TO.N,Net-(D11-Pad1)*
X183388000Y-71120000D03*
D14*
G04 #@! TO.P,D30,2*
G04 #@! TO.N,Net-(D30-Pad2)*
X183388000Y-63500000D03*
G04 #@! TD*
D12*
G04 #@! TO.P,D35,1*
G04 #@! TO.N,Net-(D12-Pad1)*
X211759800Y-91592400D03*
D14*
G04 #@! TO.P,D35,2*
G04 #@! TO.N,Net-(D35-Pad2)*
X211759800Y-83972400D03*
G04 #@! TD*
G04 #@! TO.P,D32,2*
G04 #@! TO.N,Net-(D32-Pad2)*
X197129400Y-102997000D03*
D12*
G04 #@! TO.P,D32,1*
G04 #@! TO.N,Net-(D10-Pad1)*
X197129400Y-110617000D03*
G04 #@! TD*
D15*
G04 #@! TO.P,D49,1*
G04 #@! TO.N,Net-(D46-Pad1)*
X126656000Y-104318000D03*
G04 #@! TO.P,D49,2*
G04 #@! TO.N,Net-(D49-Pad2)*
X126656000Y-107518000D03*
G04 #@! TO.P,D49,4*
G04 #@! TO.N,Net-(D48-Pad2)*
X121756000Y-104318000D03*
G04 #@! TO.P,D49,3*
G04 #@! TO.N,Net-(D46-Pad3)*
X121756000Y-107518000D03*
G04 #@! TD*
G04 #@! TO.P,D52,3*
G04 #@! TO.N,Net-(D46-Pad3)*
X228690000Y-107264000D03*
G04 #@! TO.P,D52,4*
G04 #@! TO.N,Net-(D51-Pad2)*
X228690000Y-104064000D03*
G04 #@! TO.P,D52,2*
G04 #@! TO.N,Net-(D52-Pad2)*
X233590000Y-107264000D03*
G04 #@! TO.P,D52,1*
G04 #@! TO.N,Net-(D46-Pad1)*
X233590000Y-104064000D03*
G04 #@! TD*
G04 #@! TO.P,D51,1*
G04 #@! TO.N,Net-(D46-Pad1)*
X194474000Y-104496000D03*
G04 #@! TO.P,D51,2*
G04 #@! TO.N,Net-(D51-Pad2)*
X194474000Y-107696000D03*
G04 #@! TO.P,D51,4*
G04 #@! TO.N,Net-(D50-Pad2)*
X189574000Y-104496000D03*
G04 #@! TO.P,D51,3*
G04 #@! TO.N,Net-(D46-Pad3)*
X189574000Y-107696000D03*
G04 #@! TD*
G04 #@! TO.P,D47,1*
G04 #@! TO.N,Net-(D46-Pad1)*
X42926000Y-104242000D03*
G04 #@! TO.P,D47,2*
G04 #@! TO.N,Net-(D47-Pad2)*
X42926000Y-107442000D03*
G04 #@! TO.P,D47,4*
G04 #@! TO.N,Net-(D46-Pad2)*
X38026000Y-104242000D03*
G04 #@! TO.P,D47,3*
G04 #@! TO.N,Net-(D46-Pad3)*
X38026000Y-107442000D03*
G04 #@! TD*
G04 #@! TO.P,D50,3*
G04 #@! TO.N,Net-(D46-Pad3)*
X151982000Y-107518000D03*
G04 #@! TO.P,D50,4*
G04 #@! TO.N,Net-(D49-Pad2)*
X151982000Y-104318000D03*
G04 #@! TO.P,D50,2*
G04 #@! TO.N,Net-(D50-Pad2)*
X156882000Y-107518000D03*
G04 #@! TO.P,D50,1*
G04 #@! TO.N,Net-(D46-Pad1)*
X156882000Y-104318000D03*
G04 #@! TD*
G04 #@! TO.P,D48,3*
G04 #@! TO.N,Net-(D46-Pad3)*
X82640000Y-107442000D03*
G04 #@! TO.P,D48,4*
G04 #@! TO.N,Net-(D47-Pad2)*
X82640000Y-104242000D03*
G04 #@! TO.P,D48,2*
G04 #@! TO.N,Net-(D48-Pad2)*
X87540000Y-107442000D03*
G04 #@! TO.P,D48,1*
G04 #@! TO.N,Net-(D46-Pad1)*
X87540000Y-104242000D03*
G04 #@! TD*
D10*
G04 #@! TO.P,SW22,2*
G04 #@! TO.N,Net-(D22-Pad2)*
X135128000Y-103073200D03*
G04 #@! TO.P,SW22,1*
G04 #@! TO.N,Net-(SW19-Pad1)*
X141478000Y-100533200D03*
G04 #@! TD*
G04 #@! TO.P,SW20,2*
G04 #@! TO.N,Net-(D20-Pad2)*
X130860800Y-64922400D03*
G04 #@! TO.P,SW20,1*
G04 #@! TO.N,Net-(SW19-Pad1)*
X137210800Y-62382400D03*
G04 #@! TD*
G04 #@! TO.P,SW11,2*
G04 #@! TO.N,Net-(D11-Pad2)*
X73710800Y-64846200D03*
G04 #@! TO.P,SW11,1*
G04 #@! TO.N,Net-(SW10-Pad1)*
X80060800Y-62306200D03*
G04 #@! TD*
G04 #@! TO.P,SW15,1*
G04 #@! TO.N,Net-(SW13-Pad1)*
X108635800Y-81432400D03*
G04 #@! TO.P,SW15,2*
G04 #@! TO.N,Net-(D15-Pad2)*
X102285800Y-83972400D03*
G04 #@! TD*
G04 #@! TO.P,SW14,2*
G04 #@! TO.N,Net-(D14-Pad2)*
X92760800Y-64998600D03*
G04 #@! TO.P,SW14,1*
G04 #@! TO.N,Net-(SW13-Pad1)*
X99110800Y-62458600D03*
G04 #@! TD*
G04 #@! TO.P,SW18,2*
G04 #@! TO.N,Net-(D18-Pad2)*
X121310400Y-83870800D03*
G04 #@! TO.P,SW18,1*
G04 #@! TO.N,Net-(SW16-Pad1)*
X127660400Y-81330800D03*
G04 #@! TD*
G04 #@! TO.P,SW21,1*
G04 #@! TO.N,Net-(SW19-Pad1)*
X146710400Y-81432400D03*
G04 #@! TO.P,SW21,2*
G04 #@! TO.N,Net-(D21-Pad2)*
X140360400Y-83972400D03*
G04 #@! TD*
G04 #@! TO.P,SW36,1*
G04 #@! TO.N,Net-(SW33-Pad1)*
X227660200Y-100507800D03*
G04 #@! TO.P,SW36,2*
G04 #@! TO.N,Net-(D36-Pad2)*
X221310200Y-103047800D03*
G04 #@! TD*
D12*
G04 #@! TO.P,D41,1*
G04 #@! TO.N,Net-(D1-Pad1)*
X235483400Y-53543200D03*
D14*
G04 #@! TO.P,D41,2*
G04 #@! TO.N,Net-(D41-Pad2)*
X235483400Y-45923200D03*
G04 #@! TD*
D12*
G04 #@! TO.P,D44,1*
G04 #@! TO.N,Net-(D10-Pad1)*
X254635000Y-110617000D03*
D14*
G04 #@! TO.P,D44,2*
G04 #@! TO.N,Net-(D44-Pad2)*
X254635000Y-102997000D03*
G04 #@! TD*
D10*
G04 #@! TO.P,SW19,1*
G04 #@! TO.N,Net-(SW19-Pad1)*
X132384800Y-43307000D03*
G04 #@! TO.P,SW19,2*
G04 #@! TO.N,Net-(D19-Pad2)*
X126034800Y-45847000D03*
G04 #@! TD*
G04 #@! TO.P,SW27,1*
G04 #@! TO.N,Net-(SW26-Pad1)*
X175310800Y-62433200D03*
G04 #@! TO.P,SW27,2*
G04 #@! TO.N,Net-(D27-Pad2)*
X168960800Y-64973200D03*
G04 #@! TD*
G04 #@! TO.P,SW40,1*
G04 #@! TO.N,Net-(SW37-Pad1)*
X246786400Y-100507800D03*
G04 #@! TO.P,SW40,2*
G04 #@! TO.N,Net-(D40-Pad2)*
X240436400Y-103047800D03*
G04 #@! TD*
G04 #@! TO.P,SW33,2*
G04 #@! TO.N,Net-(D33-Pad2)*
X202311000Y-45872400D03*
G04 #@! TO.P,SW33,1*
G04 #@! TO.N,Net-(SW33-Pad1)*
X208661000Y-43332400D03*
G04 #@! TD*
D12*
G04 #@! TO.P,D45,1*
G04 #@! TO.N,Net-(D1-Pad1)*
X254457200Y-53365400D03*
D14*
G04 #@! TO.P,D45,2*
G04 #@! TO.N,Net-(D45-Pad2)*
X254457200Y-45745400D03*
G04 #@! TD*
D10*
G04 #@! TO.P,SW9,2*
G04 #@! TO.N,Net-(D9-Pad2)*
X68961000Y-45897800D03*
G04 #@! TO.P,SW9,1*
G04 #@! TO.N,Net-(SW10-Pad1)*
X75311000Y-43357800D03*
G04 #@! TD*
G04 #@! TO.P,SW8,1*
G04 #@! TO.N,Net-(SW5-Pad1)*
X70510400Y-81330800D03*
G04 #@! TO.P,SW8,2*
G04 #@! TO.N,Net-(D8-Pad2)*
X64160400Y-83870800D03*
G04 #@! TD*
G04 #@! TO.P,SW32,1*
G04 #@! TO.N,Net-(SW29-Pad1)*
X208661000Y-100457000D03*
G04 #@! TO.P,SW32,2*
G04 #@! TO.N,Net-(D32-Pad2)*
X202311000Y-102997000D03*
G04 #@! TD*
G04 #@! TO.P,SW17,1*
G04 #@! TO.N,Net-(SW16-Pad1)*
X118186200Y-62357000D03*
G04 #@! TO.P,SW17,2*
G04 #@! TO.N,Net-(D17-Pad2)*
X111836200Y-64897000D03*
G04 #@! TD*
G04 #@! TO.P,SW31,1*
G04 #@! TO.N,Net-(SW29-Pad1)*
X203936600Y-81432400D03*
G04 #@! TO.P,SW31,2*
G04 #@! TO.N,Net-(D31-Pad2)*
X197586600Y-83972400D03*
G04 #@! TD*
G04 #@! TO.P,SW16,2*
G04 #@! TO.N,Net-(D16-Pad2)*
X106984800Y-45923200D03*
G04 #@! TO.P,SW16,1*
G04 #@! TO.N,Net-(SW16-Pad1)*
X113334800Y-43383200D03*
G04 #@! TD*
G04 #@! TO.P,SW28,2*
G04 #@! TO.N,Net-(D28-Pad2)*
X178562000Y-83997800D03*
G04 #@! TO.P,SW28,1*
G04 #@! TO.N,Net-(SW26-Pad1)*
X184912000Y-81457800D03*
G04 #@! TD*
D14*
G04 #@! TO.P,D40,2*
G04 #@! TO.N,Net-(D40-Pad2)*
X235458000Y-103124000D03*
D12*
G04 #@! TO.P,D40,1*
G04 #@! TO.N,Net-(D10-Pad1)*
X235458000Y-110744000D03*
G04 #@! TD*
D10*
G04 #@! TO.P,SW7,2*
G04 #@! TO.N,Net-(D7-Pad2)*
X54635400Y-64846200D03*
G04 #@! TO.P,SW7,1*
G04 #@! TO.N,Net-(SW5-Pad1)*
X60985400Y-62306200D03*
G04 #@! TD*
G04 #@! TO.P,SW10,2*
G04 #@! TO.N,Net-(D10-Pad2)*
X68910200Y-102946200D03*
G04 #@! TO.P,SW10,1*
G04 #@! TO.N,Net-(SW10-Pad1)*
X75260200Y-100406200D03*
G04 #@! TD*
G04 #@! TO.P,SW35,2*
G04 #@! TO.N,Net-(D35-Pad2)*
X216611200Y-83947000D03*
G04 #@! TO.P,SW35,1*
G04 #@! TO.N,Net-(SW33-Pad1)*
X222961200Y-81407000D03*
G04 #@! TD*
G04 #@! TO.P,SW24,2*
G04 #@! TO.N,Net-(D24-Pad2)*
X149910800Y-64947800D03*
G04 #@! TO.P,SW24,1*
G04 #@! TO.N,Net-(SW23-Pad1)*
X156260800Y-62407800D03*
G04 #@! TD*
G04 #@! TO.P,SW5,1*
G04 #@! TO.N,Net-(SW5-Pad1)*
X56184800Y-43357800D03*
G04 #@! TO.P,SW5,2*
G04 #@! TO.N,Net-(D5-Pad2)*
X49834800Y-45897800D03*
G04 #@! TD*
G04 #@! TO.P,SW13,1*
G04 #@! TO.N,Net-(SW13-Pad1)*
X94361000Y-43230800D03*
G04 #@! TO.P,SW13,2*
G04 #@! TO.N,Net-(D13-Pad2)*
X88011000Y-45770800D03*
G04 #@! TD*
G04 #@! TO.P,SW1,1*
G04 #@! TO.N,Net-(SW1-Pad1)*
X37160200Y-43307000D03*
G04 #@! TO.P,SW1,2*
G04 #@! TO.N,Net-(D1-Pad2)*
X30810200Y-45847000D03*
G04 #@! TD*
G04 #@! TO.P,SW26,2*
G04 #@! TO.N,Net-(D26-Pad2)*
X164236400Y-45923200D03*
G04 #@! TO.P,SW26,1*
G04 #@! TO.N,Net-(SW26-Pad1)*
X170586400Y-43383200D03*
G04 #@! TD*
G04 #@! TO.P,SW29,1*
G04 #@! TO.N,Net-(SW29-Pad1)*
X189585600Y-43307000D03*
G04 #@! TO.P,SW29,2*
G04 #@! TO.N,Net-(D29-Pad2)*
X183235600Y-45847000D03*
G04 #@! TD*
G04 #@! TO.P,SW43,2*
G04 #@! TO.N,Net-(D43-Pad2)*
X257073400Y-83947000D03*
G04 #@! TO.P,SW43,1*
G04 #@! TO.N,Net-(SW41-Pad1)*
X263423400Y-81407000D03*
G04 #@! TD*
G04 #@! TO.P,SW41,2*
G04 #@! TO.N,Net-(D41-Pad2)*
X240411000Y-45897800D03*
G04 #@! TO.P,SW41,1*
G04 #@! TO.N,Net-(SW41-Pad1)*
X246761000Y-43357800D03*
G04 #@! TD*
G04 #@! TO.P,SW23,1*
G04 #@! TO.N,Net-(SW23-Pad1)*
X151485600Y-43332400D03*
G04 #@! TO.P,SW23,2*
G04 #@! TO.N,Net-(D23-Pad2)*
X145135600Y-45872400D03*
G04 #@! TD*
G04 #@! TO.P,SW25,1*
G04 #@! TO.N,Net-(SW23-Pad1)*
X165862000Y-81432400D03*
G04 #@! TO.P,SW25,2*
G04 #@! TO.N,Net-(D25-Pad2)*
X159512000Y-83972400D03*
G04 #@! TD*
G04 #@! TO.P,SW34,1*
G04 #@! TO.N,Net-(SW33-Pad1)*
X213436200Y-62357000D03*
G04 #@! TO.P,SW34,2*
G04 #@! TO.N,Net-(D34-Pad2)*
X207086200Y-64897000D03*
G04 #@! TD*
G04 #@! TO.P,SW39,2*
G04 #@! TO.N,Net-(D39-Pad2)*
X235686600Y-84023200D03*
G04 #@! TO.P,SW39,1*
G04 #@! TO.N,Net-(SW37-Pad1)*
X242036600Y-81483200D03*
G04 #@! TD*
G04 #@! TO.P,SW42,2*
G04 #@! TO.N,Net-(D42-Pad2)*
X252323600Y-64922400D03*
G04 #@! TO.P,SW42,1*
G04 #@! TO.N,Net-(SW41-Pad1)*
X258673600Y-62382400D03*
G04 #@! TD*
G04 #@! TO.P,SW45,1*
G04 #@! TO.N,Net-(SW45-Pad1)*
X265836400Y-43357800D03*
G04 #@! TO.P,SW45,2*
G04 #@! TO.N,Net-(D45-Pad2)*
X259486400Y-45897800D03*
G04 #@! TD*
G04 #@! TO.P,SW44,2*
G04 #@! TO.N,Net-(D44-Pad2)*
X259537200Y-103022400D03*
G04 #@! TO.P,SW44,1*
G04 #@! TO.N,Net-(SW41-Pad1)*
X265887200Y-100482400D03*
G04 #@! TD*
G04 #@! TO.P,SW6,1*
G04 #@! TO.N,Net-(SW5-Pad1)*
X56197500Y-100393500D03*
G04 #@! TO.P,SW6,2*
G04 #@! TO.N,Net-(D6-Pad2)*
X49847500Y-102933500D03*
G04 #@! TD*
D16*
G04 #@! TO.N,Net-(D46-Pad3)*
X56388000Y-90030000D03*
G04 #@! TO.N,Net-(D46-Pad2)*
X50800000Y-90424000D03*
G04 #@! TO.N,Net-(D46-Pad1)*
X48768000Y-105156000D03*
X81026000Y-102616000D03*
G04 #@! TD*
D17*
G04 #@! TO.N,Net-(D2-Pad2)*
X30759400Y-102997000D02*
X30810200Y-102946200D01*
X26416000Y-102997000D02*
X30759400Y-102997000D01*
G04 #@! TO.N,Net-(SW1-Pad1)*
X44323000Y-93243400D02*
X44323000Y-81356200D01*
X37160200Y-100406200D02*
X44323000Y-93243400D01*
X43223001Y-80256201D02*
X44323000Y-81356200D01*
X40530999Y-77564199D02*
X43223001Y-80256201D01*
X40530999Y-64845033D02*
X40530999Y-77564199D01*
X39547800Y-63861834D02*
X40530999Y-64845033D01*
X39547800Y-62306200D02*
X39547800Y-63861834D01*
X37160200Y-44862634D02*
X37160200Y-43307000D01*
X37701001Y-45403435D02*
X37160200Y-44862634D01*
X37701001Y-60459401D02*
X37701001Y-45403435D01*
X39547800Y-62306200D02*
X37701001Y-60459401D01*
G04 #@! TO.N,Net-(SW5-Pad1)*
X60985400Y-71805800D02*
X70510400Y-81330800D01*
X60985400Y-62306200D02*
X60985400Y-71805800D01*
X58204798Y-98386202D02*
X56197500Y-100393500D01*
X59436000Y-98386202D02*
X58204798Y-98386202D01*
X70510400Y-81330800D02*
X70510400Y-87311802D01*
X70510400Y-87311802D02*
X59436000Y-98386202D01*
X60985400Y-48158400D02*
X56184800Y-43357800D01*
X60985400Y-62306200D02*
X60985400Y-48158400D01*
G04 #@! TO.N,Net-(SW10-Pad1)*
X80060800Y-71831200D02*
X80060800Y-62306200D01*
X89585800Y-81356200D02*
X80060800Y-71831200D01*
X75311000Y-57556400D02*
X80060800Y-62306200D01*
X75311000Y-43357800D02*
X75311000Y-57556400D01*
X89585800Y-82911834D02*
X89458800Y-83038834D01*
X89585800Y-81356200D02*
X89585800Y-82911834D01*
X76815834Y-100406200D02*
X75260200Y-100406200D01*
X89458800Y-87763234D02*
X76815834Y-100406200D01*
X89458800Y-83038834D02*
X89458800Y-87763234D01*
G04 #@! TO.N,Net-(SW13-Pad1)*
X94361000Y-57708800D02*
X99110800Y-62458600D01*
X94361000Y-43230800D02*
X94361000Y-57708800D01*
X99110800Y-71907400D02*
X108635800Y-81432400D01*
X99110800Y-62458600D02*
X99110800Y-71907400D01*
G04 #@! TO.N,Net-(SW16-Pad1)*
X113334800Y-57505600D02*
X118186200Y-62357000D01*
X113334800Y-43383200D02*
X113334800Y-57505600D01*
X118186200Y-71856600D02*
X127660400Y-81330800D01*
X118186200Y-62357000D02*
X118186200Y-71856600D01*
G04 #@! TO.N,Net-(SW19-Pad1)*
X132384800Y-57556400D02*
X137210800Y-62382400D01*
X132384800Y-43307000D02*
X132384800Y-57556400D01*
X137210800Y-71932800D02*
X146710400Y-81432400D01*
X137210800Y-62382400D02*
X137210800Y-71932800D01*
X142577999Y-97350401D02*
X146710400Y-93218000D01*
X142577999Y-99433201D02*
X142577999Y-97350401D01*
X141478000Y-100533200D02*
X142577999Y-99433201D01*
X146710400Y-81432400D02*
X146710400Y-93218000D01*
G04 #@! TO.N,Net-(SW23-Pad1)*
X151485600Y-57632600D02*
X156260800Y-62407800D01*
X151485600Y-43332400D02*
X151485600Y-57632600D01*
X156260800Y-71831200D02*
X165862000Y-81432400D01*
X156260800Y-62407800D02*
X156260800Y-71831200D01*
G04 #@! TO.N,Net-(SW26-Pad1)*
X170586400Y-57708800D02*
X175310800Y-62433200D01*
X170586400Y-43383200D02*
X170586400Y-57708800D01*
X175310800Y-71856600D02*
X184912000Y-81457800D01*
X175310800Y-62433200D02*
X175310800Y-71856600D01*
G04 #@! TO.N,Net-(SW29-Pad1)*
X208661000Y-86156800D02*
X203936600Y-81432400D01*
X208661000Y-100457000D02*
X208661000Y-86156800D01*
X194386200Y-71882000D02*
X194386200Y-62407800D01*
X203936600Y-81432400D02*
X194386200Y-71882000D01*
X189585600Y-57607200D02*
X189585600Y-43307000D01*
X194386200Y-62407800D02*
X189585600Y-57607200D01*
G04 #@! TO.N,Net-(SW33-Pad1)*
X208661000Y-57581800D02*
X213436200Y-62357000D01*
X208661000Y-43332400D02*
X208661000Y-57581800D01*
X213436200Y-71882000D02*
X222961200Y-81407000D01*
X213436200Y-62357000D02*
X213436200Y-71882000D01*
X222961200Y-95808800D02*
X227660200Y-100507800D01*
X222961200Y-81407000D02*
X222961200Y-95808800D01*
G04 #@! TO.N,Net-(SW37-Pad1)*
X242036600Y-95758000D02*
X242036600Y-81483200D01*
X246786400Y-100507800D02*
X242036600Y-95758000D01*
X232486200Y-48107600D02*
X227711000Y-43332400D01*
X232486200Y-62407800D02*
X232486200Y-48107600D01*
X242036600Y-81483200D02*
X242036600Y-71958200D01*
X242036600Y-71958200D02*
X232486200Y-62407800D01*
G04 #@! TO.N,Net-(SW41-Pad1)*
X246761000Y-43357800D02*
X258673600Y-55270400D01*
X263423400Y-98018600D02*
X265887200Y-100482400D01*
X263423400Y-81407000D02*
X263423400Y-98018600D01*
X258673600Y-62382400D02*
X258673600Y-76657200D01*
X258673600Y-55270400D02*
X258673600Y-62382400D01*
X258673600Y-76657200D02*
X263423400Y-81407000D01*
G04 #@! TO.N,Net-(D46-Pad3)*
X56388000Y-90030000D02*
X56388000Y-90030000D01*
X37026000Y-107442000D02*
X38026000Y-107442000D01*
X55822315Y-90030000D02*
X56388000Y-90030000D01*
X54688000Y-90030000D02*
X55822315Y-90030000D01*
X38026000Y-107442000D02*
X38026000Y-106692000D01*
X54978998Y-101284000D02*
X62152998Y-108458000D01*
X43434000Y-101284000D02*
X54978998Y-101284000D01*
X43434000Y-101284000D02*
X54688000Y-90030000D01*
X38026000Y-106692000D02*
X43434000Y-101284000D01*
X62152998Y-108458000D02*
X76454000Y-108458000D01*
X82640000Y-106692000D02*
X82640000Y-107442000D01*
X83715001Y-105616999D02*
X82640000Y-106692000D01*
X83715001Y-103481999D02*
X83715001Y-105616999D01*
X83650001Y-103416999D02*
X83715001Y-103481999D01*
X81495001Y-103416999D02*
X83650001Y-103416999D01*
X76454000Y-108458000D02*
X81495001Y-103416999D01*
X82640000Y-108192000D02*
X83668000Y-109220000D01*
X82640000Y-107442000D02*
X82640000Y-108192000D01*
X227484000Y-109220000D02*
X224790000Y-109220000D01*
X228690000Y-108014000D02*
X227484000Y-109220000D01*
X228690000Y-107264000D02*
X228690000Y-108014000D01*
X187352000Y-109220000D02*
X185166000Y-109220000D01*
X147828000Y-109220000D02*
X185166000Y-109220000D01*
X119026000Y-109220000D02*
X117348000Y-109220000D01*
X83668000Y-109220000D02*
X117348000Y-109220000D01*
X119812000Y-107518000D02*
X121756000Y-107518000D01*
X118110000Y-109220000D02*
X119812000Y-107518000D01*
X117348000Y-109220000D02*
X118110000Y-109220000D01*
X148768000Y-107518000D02*
X151982000Y-107518000D01*
X147066000Y-109220000D02*
X148768000Y-107518000D01*
X147066000Y-109220000D02*
X147828000Y-109220000D01*
X118110000Y-109220000D02*
X147066000Y-109220000D01*
X188800000Y-109220000D02*
X187198000Y-109220000D01*
X189574000Y-108446000D02*
X188800000Y-109220000D01*
X189574000Y-107696000D02*
X189574000Y-108446000D01*
X185166000Y-109220000D02*
X187198000Y-109220000D01*
X187198000Y-109220000D02*
X224790000Y-109220000D01*
G04 #@! TO.N,Net-(D46-Pad2)*
X50800000Y-90424000D02*
X50800000Y-90424000D01*
X38276000Y-104242000D02*
X38026000Y-104242000D01*
X50800000Y-91718000D02*
X38276000Y-104242000D01*
X50800000Y-90424000D02*
X50800000Y-91718000D01*
X50800000Y-90424000D02*
X50800000Y-90424000D01*
G04 #@! TO.N,Net-(D46-Pad1)*
X31242000Y-98666998D02*
X32295199Y-99720197D01*
X32295199Y-99720197D02*
X32295199Y-107987199D01*
X42926000Y-104992000D02*
X42926000Y-104242000D01*
X39650999Y-108267001D02*
X42926000Y-104992000D01*
X32575001Y-108267001D02*
X39650999Y-108267001D01*
X32295199Y-107987199D02*
X32575001Y-108267001D01*
X43926000Y-104242000D02*
X44840000Y-105156000D01*
X42926000Y-104242000D02*
X43926000Y-104242000D01*
X44840000Y-105156000D02*
X48768000Y-105156000D01*
X48768000Y-105156000D02*
X48768000Y-105156000D01*
X81026000Y-102616000D02*
X82296000Y-101346000D01*
X206248000Y-101346000D02*
X207264000Y-102362000D01*
X207264000Y-102362000D02*
X210312000Y-102362000D01*
X210312000Y-102362000D02*
X211328000Y-101346000D01*
X226389398Y-101346000D02*
X227151398Y-102108000D01*
X211328000Y-101346000D02*
X226389398Y-101346000D01*
X232590000Y-104064000D02*
X233590000Y-104064000D01*
X230634000Y-102108000D02*
X232590000Y-104064000D01*
X227151398Y-102108000D02*
X230634000Y-102108000D01*
X192786000Y-101346000D02*
X206248000Y-101346000D01*
X143510000Y-101346000D02*
X154686000Y-101346000D01*
X142633001Y-102222999D02*
X143510000Y-101346000D01*
X140590100Y-102222999D02*
X142633001Y-102222999D01*
X139739303Y-101346000D02*
X139713101Y-101346000D01*
X139713101Y-101346000D02*
X140590100Y-102222999D01*
X87540000Y-102706000D02*
X88900000Y-101346000D01*
X87540000Y-104242000D02*
X87540000Y-102706000D01*
X88900000Y-101346000D02*
X82296000Y-101346000D01*
X130048000Y-101346000D02*
X88900000Y-101346000D01*
X31242000Y-86192500D02*
X33020000Y-84414500D01*
X31242000Y-86804500D02*
X31242000Y-86192500D01*
X31242000Y-86804500D02*
X31242000Y-98666998D01*
X126906000Y-104318000D02*
X126656000Y-104318000D01*
X129878000Y-101346000D02*
X126906000Y-104318000D01*
X130302000Y-101346000D02*
X129878000Y-101346000D01*
X130302000Y-101346000D02*
X130048000Y-101346000D01*
X139713101Y-101346000D02*
X130302000Y-101346000D01*
X156882000Y-102526000D02*
X156882000Y-104318000D01*
X155702000Y-101346000D02*
X156882000Y-102526000D01*
X154686000Y-101346000D02*
X155702000Y-101346000D01*
X192074000Y-101346000D02*
X191770000Y-101346000D01*
X194474000Y-103746000D02*
X192074000Y-101346000D01*
X194474000Y-104496000D02*
X194474000Y-103746000D01*
X155702000Y-101346000D02*
X191770000Y-101346000D01*
X191770000Y-101346000D02*
X192786000Y-101346000D01*
G04 #@! TO.N,Net-(D47-Pad2)*
X42926000Y-107442000D02*
X42676000Y-107442000D01*
X78070799Y-107811201D02*
X81640000Y-104242000D01*
X43926000Y-107442000D02*
X44295201Y-107811201D01*
X42926000Y-107442000D02*
X43926000Y-107442000D01*
X43926000Y-107442000D02*
X45450000Y-108966000D01*
X81640000Y-104242000D02*
X82640000Y-104242000D01*
X76916000Y-108966000D02*
X81640000Y-104242000D01*
X45450000Y-108966000D02*
X76916000Y-108966000D01*
G04 #@! TO.N,Net-(D48-Pad2)*
X120218000Y-104318000D02*
X121756000Y-104318000D01*
X117094000Y-107442000D02*
X120218000Y-104318000D01*
X87540000Y-107442000D02*
X117094000Y-107442000D01*
G04 #@! TO.N,Net-(D49-Pad2)*
X128076201Y-107938201D02*
X130810000Y-107938201D01*
X127656000Y-107518000D02*
X128076201Y-107938201D01*
X126656000Y-107518000D02*
X127656000Y-107518000D01*
X129854201Y-107938201D02*
X130810000Y-107938201D01*
X130810000Y-107938201D02*
X146091799Y-107938201D01*
X149712000Y-104318000D02*
X151982000Y-104318000D01*
X146558000Y-107472000D02*
X149712000Y-104318000D01*
X146091799Y-107938201D02*
X146558000Y-107472000D01*
G04 #@! TO.N,Net-(D50-Pad2)*
X157132000Y-107518000D02*
X156882000Y-107518000D01*
X158402000Y-106248000D02*
X157132000Y-107518000D01*
X188572000Y-106248000D02*
X158402000Y-106248000D01*
X189574000Y-105246000D02*
X188572000Y-106248000D01*
X189574000Y-104496000D02*
X189574000Y-105246000D01*
G04 #@! TO.N,Net-(D51-Pad2)*
X228690000Y-104814000D02*
X228690000Y-104064000D01*
X228690000Y-105459002D02*
X228690000Y-104814000D01*
X226236201Y-107912801D02*
X228690000Y-105459002D01*
X197138801Y-107912801D02*
X226236201Y-107912801D01*
X196922000Y-107696000D02*
X197138801Y-107912801D01*
X194474000Y-107696000D02*
X196922000Y-107696000D01*
G04 #@! TD*
M02*
