M48
;DRILL file {KiCad (5.0.2)-1} date 5/2/2019 12:01:03 AM
;FORMAT={-:-/ absolute / metric / decimal}
FMAT,2
METRIC,TZ
T1C0.400
T2C1.000
T3C1.092
T4C1.100
T5C1.499
%
G90
G05
T1
X18.136Y-56.972
X22.466Y-62.07
X23.692Y-62.795
X27.47Y-68.834
X28.258Y-62.07
X28.524Y-27.495
X30.861Y-57.721
X31.813Y-73.177
X33.515Y-43.129
X34.384Y-29.299
X35.166Y-30.892
X35.687Y-56.109
X35.852Y-46.533
X36.005Y-35.052
X36.005Y-44.425
X37.493Y-82.41
X42.634Y-84.359
X44.171Y-81.585
X45.301Y-61.709
X46.787Y-83.604
X47.142Y-85.547
X47.333Y-71.229
X47.358Y-56.464
X48.12Y-55.245
X48.12Y-55.245
X48.273Y-57.76
X48.527Y-43.866
X49.665Y-84.359
X50.317Y-75.425
X52.045Y-85.065
X52.337Y-26.645
X55.115Y-43.878
X57.048Y-63.881
X58.457Y-61.506
X60.541Y-64.338
X71.399Y-26.276
X73.304Y-83.604
X75.235Y-82.81
X76.175Y-83.718
X79.273Y-83.566
X80.695Y-81.611
X90.424Y-25.743
X92.385Y-65.184
X109.156Y-25.184
X111.76Y-83.566
X114.871Y-82.817
X115.71Y-81.611
X117.854Y-83.579
X117.938Y-65.926
X127.787Y-24.867
X135.992Y-66.65
X151.676Y-67.375
X151.79Y-83.579
X152.87Y-45.034
X154.076Y-45.759
X155.473Y-82.817
X156.147Y-81.611
X156.591Y-48.501
X158.28Y-83.706
X159.995Y-62.884
X166.624Y-27.635
X182.194Y-83.706
X185.699Y-27.216
X186.245Y-82.817
X186.792Y-81.611
X188.632Y-62.884
X189.025Y-83.629
X204.724Y-26.911
X215.773Y-47.93
X215.773Y-65.621
X216.751Y-48.971
X216.751Y-64.465
X220.79Y-46.609
X221.132Y-81.611
X221.209Y-83.629
X223.799Y-26.67
X226.098Y-82.817
X226.365Y-81.611
X226.365Y-81.611
X242.773Y-26.759
X254.872Y-64.287
T2
X79.247Y-31.991
X87.047Y-31.991
X174.51Y-31.991
X182.31Y-31.991
X36.397Y-70.091
X44.197Y-70.091
X243.331Y-51.067
X251.131Y-51.067
X55.434Y-29.223
X63.234Y-29.223
X193.585Y-31.979
X201.385Y-31.979
X104.99Y-50.914
X112.79Y-50.914
X117.347Y-32.017
X125.147Y-32.017
X186.397Y-67.399
X194.197Y-67.399
X67.334Y-70.104
X75.134Y-70.104
X188.797Y-29.223
X196.597Y-29.223
X112.584Y-29.248
X120.384Y-29.248
X143.077Y-50.965
X150.877Y-50.965
X85.965Y-50.927
X93.765Y-50.927
X136.397Y-32.004
X144.197Y-32.004
X153.097Y-70.104
X160.897Y-70.104
X245.947Y-70.104
X253.747Y-70.104
X226.897Y-29.235
X234.697Y-29.235
X93.509Y-29.248
X101.309Y-29.248
X124.027Y-50.914
X131.827Y-50.914
X50.672Y-48.285
X58.472Y-48.285
X162.153Y-50.927
X169.952Y-50.927
X254.368Y-36.144
X254.368Y-38.684
X254.368Y-41.224
X254.368Y-43.764
X105.434Y-70.104
X113.234Y-70.104
X131.685Y-29.223
X139.485Y-29.223
X207.847Y-29.261
X215.647Y-29.261
X60.21Y-31.979
X68.01Y-31.979
X155.472Y-31.979
X163.272Y-31.979
X50.685Y-51.016
X58.485Y-51.016
X220.725Y-51.054
X228.525Y-51.054
X226.875Y-70.091
X234.675Y-70.091
X17.36Y-31.966
X25.16Y-31.966
X150.697Y-29.261
X158.497Y-29.261
X36.384Y-29.261
X44.184Y-29.261
X61.711Y-51.003
X69.511Y-51.003
X233.45Y-32.004
X241.25Y-32.004
X203.072Y-51.016
X210.872Y-51.016
X181.152Y-50.94
X188.952Y-50.94
X41.16Y-32.017
X48.96Y-32.017
X17.347Y-29.299
X25.147Y-29.299
X169.76Y-29.223
X177.56Y-29.223
X213.041Y-32.029
X220.841Y-32.029
X98.348Y-32.017
X106.148Y-32.017
X207.873Y-70.104
X215.672Y-70.104
X17.347Y-70.091
X25.147Y-70.091
X239.419Y-29.197
X247.219Y-29.197
X74.484Y-29.248
X82.284Y-29.248
T3
X16.815Y-51.892
X16.815Y-67.132
X19.355Y-51.892
X19.355Y-67.132
X21.895Y-51.892
X21.895Y-67.132
X24.435Y-51.892
X24.435Y-67.132
X26.975Y-51.892
X26.975Y-67.132
X29.515Y-51.892
X29.515Y-67.132
X32.055Y-51.892
X32.055Y-67.132
X34.595Y-51.892
X34.595Y-67.132
X37.135Y-51.892
X37.135Y-67.132
X39.675Y-51.892
X39.675Y-67.132
X42.215Y-51.892
X42.215Y-67.132
X44.755Y-51.892
X44.755Y-67.132
T4
X229.692Y-36.451
X229.692Y-42.951
X234.192Y-36.451
X234.192Y-42.951
T5
X65.049Y-37.592
X71.399Y-35.052
X103.149Y-37.592
X109.499Y-35.052
X43.536Y-75.717
X49.886Y-73.177
X186.411Y-75.692
X192.761Y-73.152
X74.498Y-18.542
X80.848Y-16.002
X160.274Y-37.617
X166.624Y-35.077
X107.823Y-56.642
X114.173Y-54.102
X17.348Y-75.692
X23.698Y-73.152
X55.448Y-18.567
X61.798Y-16.027
X150.698Y-18.542
X157.048Y-16.002
X153.086Y-75.692
X159.436Y-73.152
X155.473Y-37.592
X161.823Y-35.052
X136.398Y-37.617
X142.748Y-35.077
X45.974Y-37.592
X52.324Y-35.052
X67.335Y-75.692
X73.685Y-73.152
X174.498Y-37.592
X180.848Y-35.052
X36.398Y-75.692
X42.748Y-73.152
X19.736Y-37.592
X26.086Y-35.052
X88.798Y-56.667
X95.148Y-54.127
X217.449Y-37.617
X223.799Y-35.077
X36.398Y-18.542
X42.748Y-16.002
X141.249Y-37.617
X147.599Y-35.077
X207.848Y-75.692
X214.198Y-73.152
X98.323Y-37.592
X104.673Y-35.052
X164.973Y-56.667
X171.323Y-54.127
X238.811Y-37.592
X245.161Y-35.052
X22.174Y-37.592
X28.524Y-35.052
X69.723Y-56.642
X76.073Y-54.102
X50.698Y-56.642
X57.048Y-54.102
X226.898Y-18.567
X233.248Y-16.027
X60.223Y-37.592
X66.573Y-35.052
X79.248Y-37.617
X85.598Y-35.077
X184.023Y-56.642
X190.373Y-54.102
X241.249Y-37.592
X247.599Y-35.052
X234.163Y-64.262
X240.513Y-61.722
X93.548Y-18.567
X99.898Y-16.027
X112.598Y-18.567
X118.948Y-16.027
X105.435Y-75.692
X111.785Y-73.152
X245.948Y-75.692
X252.298Y-73.152
X236.423Y-18.542
X242.773Y-16.002
X19.736Y-75.717
X26.086Y-73.177
X244.831Y-64.287
X251.181Y-61.747
X145.923Y-56.642
X152.273Y-54.102
X179.349Y-37.592
X185.699Y-35.052
X247.206Y-26.162
X253.555Y-23.622
X169.748Y-18.542
X176.098Y-16.002
X226.898Y-75.717
X233.248Y-73.177
X122.174Y-37.592
X128.524Y-35.052
X193.573Y-37.592
X199.923Y-35.052
X203.098Y-56.642
X209.448Y-54.102
X188.773Y-75.692
X195.123Y-73.152
X126.873Y-56.642
X133.223Y-54.102
X55.448Y-75.692
X61.798Y-73.152
X41.148Y-37.592
X47.498Y-35.052
X17.348Y-18.542
X23.698Y-16.002
X84.074Y-37.592
X90.424Y-35.052
X117.348Y-37.592
X123.698Y-35.052
X212.598Y-37.592
X218.948Y-35.052
X123.266Y-75.565
X129.616Y-73.025
X24.486Y-56.642
X30.836Y-54.102
X188.798Y-18.542
X195.148Y-16.002
X198.374Y-37.592
X204.724Y-35.052
X131.674Y-18.517
X138.024Y-15.977
X207.848Y-18.542
X214.198Y-16.002
X138.786Y-75.717
X145.136Y-73.177
X222.148Y-56.667
X228.498Y-54.127
T0
M30
