M48
;DRILL file {KiCad (5.0.2)-1} date 5/29/2019 1:06:34 PM
;FORMAT={-:-/ absolute / metric / decimal}
FMAT,2
METRIC,TZ
T1C1.800
T2C3.048
T3C3.500
T4C3.988
%
G90
G05
T1
X23.216Y-59.182
X33.376Y-59.182
X18.466Y-78.257
X28.626Y-78.257
X239.979Y-40.132
X250.139Y-40.132
X39.878Y-40.132
X50.038Y-40.132
X130.404Y-21.057
X140.564Y-21.057
X18.466Y-40.132
X28.626Y-40.132
X244.678Y-78.232
X254.838Y-78.232
X178.079Y-40.132
X188.239Y-40.132
X101.879Y-40.132
X112.039Y-40.132
X216.179Y-40.157
X226.339Y-40.157
X125.603Y-59.182
X135.763Y-59.182
X163.703Y-59.207
X173.863Y-59.207
X147.028Y-78.257
X157.188Y-78.257
X137.516Y-78.257
X147.676Y-78.257
X237.541Y-40.132
X247.701Y-40.132
X35.128Y-21.082
X45.288Y-21.082
X121.996Y-78.105
X132.156Y-78.105
X111.328Y-21.107
X121.488Y-21.107
X187.503Y-78.232
X197.663Y-78.232
X106.553Y-59.182
X116.713Y-59.182
X135.128Y-40.157
X145.288Y-40.157
X58.953Y-40.132
X69.113Y-40.132
X211.328Y-40.132
X221.488Y-40.132
X44.704Y-40.132
X54.864Y-40.132
X235.128Y-21.069
X245.288Y-21.069
X242.291Y-59.207
X252.451Y-59.207
X104.165Y-78.232
X114.325Y-78.232
X73.228Y-21.082
X83.388Y-21.082
X92.278Y-21.107
X102.438Y-21.107
X154.203Y-40.132
X164.363Y-40.132
X225.628Y-78.257
X235.788Y-78.257
X35.128Y-78.232
X45.288Y-78.232
X82.804Y-40.132
X92.964Y-40.132
X244.665Y-21.082
X254.825Y-21.082
X151.816Y-78.232
X161.976Y-78.232
X173.228Y-40.132
X183.388Y-40.132
X54.178Y-21.107
X64.338Y-21.107
X54.178Y-78.232
X64.338Y-78.232
X220.878Y-59.207
X231.038Y-59.207
X197.104Y-40.132
X207.264Y-40.132
X97.053Y-40.132
X107.213Y-40.132
X87.528Y-59.207
X97.688Y-59.207
X66.065Y-78.232
X76.225Y-78.232
X182.753Y-59.182
X192.913Y-59.182
X168.478Y-21.082
X178.638Y-21.082
X201.828Y-59.182
X211.988Y-59.182
X185.141Y-78.232
X195.301Y-78.232
X187.528Y-21.082
X197.688Y-21.082
X20.904Y-40.132
X31.064Y-40.132
X77.978Y-40.157
X88.138Y-40.157
X149.428Y-21.082
X159.588Y-21.082
X139.979Y-40.157
X150.139Y-40.157
X144.653Y-59.182
X154.813Y-59.182
X16.078Y-78.232
X26.238Y-78.232
X68.453Y-59.182
X78.613Y-59.182
X159.004Y-40.157
X169.164Y-40.157
X63.779Y-40.132
X73.939Y-40.132
X49.428Y-59.182
X59.588Y-59.182
X42.266Y-78.257
X52.426Y-78.257
X16.078Y-21.082
X26.238Y-21.082
X116.078Y-40.132
X126.238Y-40.132
X225.628Y-21.107
X235.788Y-21.107
X192.303Y-40.132
X202.463Y-40.132
X206.578Y-21.082
X216.738Y-21.082
X120.904Y-40.132
X131.064Y-40.132
X206.578Y-78.232
X216.738Y-78.232
X232.753Y-59.157
X242.913Y-59.157
X99.428Y-78.245
X109.588Y-78.245
T2
X225.895Y-66.142
X249.771Y-66.142
X92.57Y-71.26
X116.446Y-71.26
X140.17Y-71.272
X164.046Y-71.272
X92.558Y-71.272
X192.634Y-71.272
X228.27Y-28.054
X252.146Y-28.054
X97.307Y-71.247
X121.183Y-71.247
X144.958Y-71.247
X168.834Y-71.247
T3
X198.323Y-49.67
X135.433Y-49.67
X72.492Y-49.695
T4
X154.508Y-21.082
X145.059Y-40.157
X149.733Y-59.182
X21.158Y-78.232
X73.533Y-59.182
X164.084Y-40.157
X68.859Y-40.132
X54.508Y-59.182
X47.346Y-78.257
X21.158Y-21.082
X121.158Y-40.132
X230.708Y-21.107
X197.383Y-40.132
X211.658Y-21.082
X125.984Y-40.132
X211.658Y-78.232
X225.895Y-50.902
X237.833Y-59.157
X249.771Y-50.902
X92.57Y-86.5
X104.508Y-78.245
X116.446Y-86.5
X28.296Y-59.182
X23.546Y-78.257
X245.059Y-40.132
X44.958Y-40.132
X135.484Y-21.057
X23.546Y-40.132
X249.758Y-78.232
X183.159Y-40.132
X106.959Y-40.132
X221.259Y-40.157
X130.683Y-59.182
X168.783Y-59.207
X140.17Y-86.512
X152.108Y-78.257
X164.046Y-86.512
X92.558Y-86.512
X142.596Y-78.257
X192.634Y-86.512
X242.621Y-40.132
X40.208Y-21.082
X127.076Y-78.105
X116.408Y-21.107
X192.583Y-78.232
X111.633Y-59.182
X140.208Y-40.157
X64.033Y-40.132
X216.408Y-40.132
X49.784Y-40.132
X228.27Y-12.814
X240.208Y-21.069
X252.146Y-12.814
X247.371Y-59.207
X97.307Y-86.487
X109.245Y-78.232
X121.183Y-86.487
X78.308Y-21.082
X97.358Y-21.107
X159.283Y-40.132
X230.708Y-78.257
X40.208Y-78.232
X87.884Y-40.132
X249.745Y-21.082
X144.958Y-86.487
X156.896Y-78.232
X168.834Y-86.487
X178.308Y-40.132
X59.258Y-21.107
X59.258Y-78.232
X225.958Y-59.207
X202.184Y-40.132
X102.133Y-40.132
X92.608Y-59.207
X71.145Y-78.232
X187.833Y-59.182
X173.558Y-21.082
X206.908Y-59.182
X190.221Y-78.232
X192.608Y-21.082
X25.984Y-40.132
X83.058Y-40.157
T0
M30
