G04 #@! TF.GenerationSoftware,KiCad,Pcbnew,(5.0.2)-1*
G04 #@! TF.CreationDate,2019-01-22T00:14:50-05:00*
G04 #@! TF.ProjectId,TG4x,54473478-2e6b-4696-9361-645f70636258,rev?*
G04 #@! TF.SameCoordinates,Original*
G04 #@! TF.FileFunction,Legend,Top*
G04 #@! TF.FilePolarity,Positive*
%FSLAX46Y46*%
G04 Gerber Fmt 4.6, Leading zero omitted, Abs format (unit mm)*
G04 Created by KiCad (PCBNEW (5.0.2)-1) date 1/22/2019 12:14:50 AM*
%MOMM*%
%LPD*%
G01*
G04 APERTURE LIST*
%ADD10C,0.300000*%
%ADD11C,1.500000*%
%ADD12C,2.250000*%
%ADD13C,0.200000*%
%ADD14C,0.120000*%
%ADD15C,0.150000*%
G04 APERTURE END LIST*
D10*
X245967428Y-32185571D02*
X246324571Y-33185571D01*
X246681714Y-32185571D01*
X247253142Y-33042714D02*
X247324571Y-33114142D01*
X247253142Y-33185571D01*
X247181714Y-33114142D01*
X247253142Y-33042714D01*
X247253142Y-33185571D01*
X248753142Y-33185571D02*
X247896000Y-33185571D01*
X248324571Y-33185571D02*
X248324571Y-31685571D01*
X248181714Y-31899857D01*
X248038857Y-32042714D01*
X247896000Y-32114142D01*
X229146000Y-35735571D02*
X229146000Y-34235571D01*
X229146000Y-35664142D02*
X229003142Y-35735571D01*
X228717428Y-35735571D01*
X228574571Y-35664142D01*
X228503142Y-35592714D01*
X228431714Y-35449857D01*
X228431714Y-35021285D01*
X228503142Y-34878428D01*
X228574571Y-34807000D01*
X228717428Y-34735571D01*
X229003142Y-34735571D01*
X229146000Y-34807000D01*
X230431714Y-35664142D02*
X230288857Y-35735571D01*
X230003142Y-35735571D01*
X229860285Y-35664142D01*
X229788857Y-35521285D01*
X229788857Y-34949857D01*
X229860285Y-34807000D01*
X230003142Y-34735571D01*
X230288857Y-34735571D01*
X230431714Y-34807000D01*
X230503142Y-34949857D01*
X230503142Y-35092714D01*
X229788857Y-35235571D01*
X231074571Y-35664142D02*
X231217428Y-35735571D01*
X231503142Y-35735571D01*
X231646000Y-35664142D01*
X231717428Y-35521285D01*
X231717428Y-35449857D01*
X231646000Y-35307000D01*
X231503142Y-35235571D01*
X231288857Y-35235571D01*
X231146000Y-35164142D01*
X231074571Y-35021285D01*
X231074571Y-34949857D01*
X231146000Y-34807000D01*
X231288857Y-34735571D01*
X231503142Y-34735571D01*
X231646000Y-34807000D01*
X232360285Y-35735571D02*
X232360285Y-34735571D01*
X232360285Y-34235571D02*
X232288857Y-34307000D01*
X232360285Y-34378428D01*
X232431714Y-34307000D01*
X232360285Y-34235571D01*
X232360285Y-34378428D01*
X233717428Y-34735571D02*
X233717428Y-35949857D01*
X233646000Y-36092714D01*
X233574571Y-36164142D01*
X233431714Y-36235571D01*
X233217428Y-36235571D01*
X233074571Y-36164142D01*
X233717428Y-35664142D02*
X233574571Y-35735571D01*
X233288857Y-35735571D01*
X233146000Y-35664142D01*
X233074571Y-35592714D01*
X233003142Y-35449857D01*
X233003142Y-35021285D01*
X233074571Y-34878428D01*
X233146000Y-34807000D01*
X233288857Y-34735571D01*
X233574571Y-34735571D01*
X233717428Y-34807000D01*
X234431714Y-34735571D02*
X234431714Y-35735571D01*
X234431714Y-34878428D02*
X234503142Y-34807000D01*
X234646000Y-34735571D01*
X234860285Y-34735571D01*
X235003142Y-34807000D01*
X235074571Y-34949857D01*
X235074571Y-35735571D01*
X236360285Y-35664142D02*
X236217428Y-35735571D01*
X235931714Y-35735571D01*
X235788857Y-35664142D01*
X235717428Y-35521285D01*
X235717428Y-34949857D01*
X235788857Y-34807000D01*
X235931714Y-34735571D01*
X236217428Y-34735571D01*
X236360285Y-34807000D01*
X236431714Y-34949857D01*
X236431714Y-35092714D01*
X235717428Y-35235571D01*
X237717428Y-35735571D02*
X237717428Y-34235571D01*
X237717428Y-35664142D02*
X237574571Y-35735571D01*
X237288857Y-35735571D01*
X237146000Y-35664142D01*
X237074571Y-35592714D01*
X237003142Y-35449857D01*
X237003142Y-35021285D01*
X237074571Y-34878428D01*
X237146000Y-34807000D01*
X237288857Y-34735571D01*
X237574571Y-34735571D01*
X237717428Y-34807000D01*
X239574571Y-35735571D02*
X239574571Y-34235571D01*
X239574571Y-34807000D02*
X239717428Y-34735571D01*
X240003142Y-34735571D01*
X240146000Y-34807000D01*
X240217428Y-34878428D01*
X240288857Y-35021285D01*
X240288857Y-35449857D01*
X240217428Y-35592714D01*
X240146000Y-35664142D01*
X240003142Y-35735571D01*
X239717428Y-35735571D01*
X239574571Y-35664142D01*
X240788857Y-34735571D02*
X241146000Y-35735571D01*
X241503142Y-34735571D02*
X241146000Y-35735571D01*
X241003142Y-36092714D01*
X240931714Y-36164142D01*
X240788857Y-36235571D01*
X243860285Y-34735571D02*
X243860285Y-35735571D01*
X243217428Y-34735571D02*
X243217428Y-35521285D01*
X243288857Y-35664142D01*
X243431714Y-35735571D01*
X243646000Y-35735571D01*
X243788857Y-35664142D01*
X243860285Y-35592714D01*
X245646000Y-34164142D02*
X244360285Y-36092714D01*
X246146000Y-35735571D02*
X246146000Y-34735571D01*
X246146000Y-34878428D02*
X246217428Y-34807000D01*
X246360285Y-34735571D01*
X246574571Y-34735571D01*
X246717428Y-34807000D01*
X246788857Y-34949857D01*
X246788857Y-35735571D01*
X246788857Y-34949857D02*
X246860285Y-34807000D01*
X247003142Y-34735571D01*
X247217428Y-34735571D01*
X247360285Y-34807000D01*
X247431714Y-34949857D01*
X247431714Y-35735571D01*
X248003142Y-34735571D02*
X248360285Y-35735571D01*
X248717428Y-34735571D02*
X248360285Y-35735571D01*
X248217428Y-36092714D01*
X248146000Y-36164142D01*
X248003142Y-36235571D01*
X249074571Y-34735571D02*
X249646000Y-34735571D01*
X249288857Y-34235571D02*
X249288857Y-35521285D01*
X249360285Y-35664142D01*
X249503142Y-35735571D01*
X249646000Y-35735571D01*
X250146000Y-35735571D02*
X250146000Y-34235571D01*
X250788857Y-35735571D02*
X250788857Y-34949857D01*
X250717428Y-34807000D01*
X250574571Y-34735571D01*
X250360285Y-34735571D01*
X250217428Y-34807000D01*
X250146000Y-34878428D01*
X251717428Y-35735571D02*
X251574571Y-35664142D01*
X251503142Y-35592714D01*
X251431714Y-35449857D01*
X251431714Y-35021285D01*
X251503142Y-34878428D01*
X251574571Y-34807000D01*
X251717428Y-34735571D01*
X251931714Y-34735571D01*
X252074571Y-34807000D01*
X252146000Y-34878428D01*
X252217428Y-35021285D01*
X252217428Y-35449857D01*
X252146000Y-35592714D01*
X252074571Y-35664142D01*
X251931714Y-35735571D01*
X251717428Y-35735571D01*
X252788857Y-35664142D02*
X252931714Y-35735571D01*
X253217428Y-35735571D01*
X253360285Y-35664142D01*
X253431714Y-35521285D01*
X253431714Y-35449857D01*
X253360285Y-35307000D01*
X253217428Y-35235571D01*
X253003142Y-35235571D01*
X252860285Y-35164142D01*
X252788857Y-35021285D01*
X252788857Y-34949857D01*
X252860285Y-34807000D01*
X253003142Y-34735571D01*
X253217428Y-34735571D01*
X253360285Y-34807000D01*
X254074571Y-35735571D02*
X254074571Y-34735571D01*
X254074571Y-34878428D02*
X254146000Y-34807000D01*
X254288857Y-34735571D01*
X254503142Y-34735571D01*
X254646000Y-34807000D01*
X254717428Y-34949857D01*
X254717428Y-35735571D01*
X254717428Y-34949857D02*
X254788857Y-34807000D01*
X254931714Y-34735571D01*
X255146000Y-34735571D01*
X255288857Y-34807000D01*
X255360285Y-34949857D01*
X255360285Y-35735571D01*
X256717428Y-35735571D02*
X256717428Y-34949857D01*
X256646000Y-34807000D01*
X256503142Y-34735571D01*
X256217428Y-34735571D01*
X256074571Y-34807000D01*
X256717428Y-35664142D02*
X256574571Y-35735571D01*
X256217428Y-35735571D01*
X256074571Y-35664142D01*
X256003142Y-35521285D01*
X256003142Y-35378428D01*
X256074571Y-35235571D01*
X256217428Y-35164142D01*
X256574571Y-35164142D01*
X256717428Y-35092714D01*
X257431714Y-34735571D02*
X257431714Y-35735571D01*
X257431714Y-34878428D02*
X257503142Y-34807000D01*
X257646000Y-34735571D01*
X257860285Y-34735571D01*
X258003142Y-34807000D01*
X258074571Y-34949857D01*
X258074571Y-35735571D01*
X258788857Y-34735571D02*
X258788857Y-35735571D01*
X258788857Y-34878428D02*
X258860285Y-34807000D01*
X259003142Y-34735571D01*
X259217428Y-34735571D01*
X259360285Y-34807000D01*
X259431714Y-34949857D01*
X259431714Y-35735571D01*
X261217428Y-34378428D02*
X261288857Y-34307000D01*
X261431714Y-34235571D01*
X261788857Y-34235571D01*
X261931714Y-34307000D01*
X262003142Y-34378428D01*
X262074571Y-34521285D01*
X262074571Y-34664142D01*
X262003142Y-34878428D01*
X261146000Y-35735571D01*
X262074571Y-35735571D01*
X263003142Y-34235571D02*
X263146000Y-34235571D01*
X263288857Y-34307000D01*
X263360285Y-34378428D01*
X263431714Y-34521285D01*
X263503142Y-34807000D01*
X263503142Y-35164142D01*
X263431714Y-35449857D01*
X263360285Y-35592714D01*
X263288857Y-35664142D01*
X263146000Y-35735571D01*
X263003142Y-35735571D01*
X262860285Y-35664142D01*
X262788857Y-35592714D01*
X262717428Y-35449857D01*
X262646000Y-35164142D01*
X262646000Y-34807000D01*
X262717428Y-34521285D01*
X262788857Y-34378428D01*
X262860285Y-34307000D01*
X263003142Y-34235571D01*
X264931714Y-35735571D02*
X264074571Y-35735571D01*
X264503142Y-35735571D02*
X264503142Y-34235571D01*
X264360285Y-34449857D01*
X264217428Y-34592714D01*
X264074571Y-34664142D01*
X265646000Y-35735571D02*
X265931714Y-35735571D01*
X266074571Y-35664142D01*
X266146000Y-35592714D01*
X266288857Y-35378428D01*
X266360285Y-35092714D01*
X266360285Y-34521285D01*
X266288857Y-34378428D01*
X266217428Y-34307000D01*
X266074571Y-34235571D01*
X265788857Y-34235571D01*
X265646000Y-34307000D01*
X265574571Y-34378428D01*
X265503142Y-34521285D01*
X265503142Y-34878428D01*
X265574571Y-35021285D01*
X265646000Y-35092714D01*
X265788857Y-35164142D01*
X266074571Y-35164142D01*
X266217428Y-35092714D01*
X266288857Y-35021285D01*
X266360285Y-34878428D01*
X135602285Y-31944571D02*
X135602285Y-32230285D01*
X136173714Y-31944571D02*
X136173714Y-32230285D01*
X136816571Y-31944571D02*
X136816571Y-33158857D01*
X136888000Y-33301714D01*
X136959428Y-33373142D01*
X137102285Y-33444571D01*
X137388000Y-33444571D01*
X137530857Y-33373142D01*
X137602285Y-33301714D01*
X137673714Y-33158857D01*
X137673714Y-31944571D01*
X138602285Y-33444571D02*
X138459428Y-33373142D01*
X138388000Y-33230285D01*
X138388000Y-31944571D01*
X138959428Y-32444571D02*
X139530857Y-32444571D01*
X139173714Y-31944571D02*
X139173714Y-33230285D01*
X139245142Y-33373142D01*
X139388000Y-33444571D01*
X139530857Y-33444571D01*
X140030857Y-33444571D02*
X140030857Y-32444571D01*
X140030857Y-31944571D02*
X139959428Y-32016000D01*
X140030857Y-32087428D01*
X140102285Y-32016000D01*
X140030857Y-31944571D01*
X140030857Y-32087428D01*
X140745142Y-33444571D02*
X140745142Y-32444571D01*
X140745142Y-32587428D02*
X140816571Y-32516000D01*
X140959428Y-32444571D01*
X141173714Y-32444571D01*
X141316571Y-32516000D01*
X141388000Y-32658857D01*
X141388000Y-33444571D01*
X141388000Y-32658857D02*
X141459428Y-32516000D01*
X141602285Y-32444571D01*
X141816571Y-32444571D01*
X141959428Y-32516000D01*
X142030857Y-32658857D01*
X142030857Y-33444571D01*
X143388000Y-33444571D02*
X143388000Y-32658857D01*
X143316571Y-32516000D01*
X143173714Y-32444571D01*
X142888000Y-32444571D01*
X142745142Y-32516000D01*
X143388000Y-33373142D02*
X143245142Y-33444571D01*
X142888000Y-33444571D01*
X142745142Y-33373142D01*
X142673714Y-33230285D01*
X142673714Y-33087428D01*
X142745142Y-32944571D01*
X142888000Y-32873142D01*
X143245142Y-32873142D01*
X143388000Y-32801714D01*
X143888000Y-32444571D02*
X144459428Y-32444571D01*
X144102285Y-31944571D02*
X144102285Y-33230285D01*
X144173714Y-33373142D01*
X144316571Y-33444571D01*
X144459428Y-33444571D01*
X145530857Y-33373142D02*
X145388000Y-33444571D01*
X145102285Y-33444571D01*
X144959428Y-33373142D01*
X144888000Y-33230285D01*
X144888000Y-32658857D01*
X144959428Y-32516000D01*
X145102285Y-32444571D01*
X145388000Y-32444571D01*
X145530857Y-32516000D01*
X145602285Y-32658857D01*
X145602285Y-32801714D01*
X144888000Y-32944571D01*
X148245142Y-33301714D02*
X148173714Y-33373142D01*
X147959428Y-33444571D01*
X147816571Y-33444571D01*
X147602285Y-33373142D01*
X147459428Y-33230285D01*
X147388000Y-33087428D01*
X147316571Y-32801714D01*
X147316571Y-32587428D01*
X147388000Y-32301714D01*
X147459428Y-32158857D01*
X147602285Y-32016000D01*
X147816571Y-31944571D01*
X147959428Y-31944571D01*
X148173714Y-32016000D01*
X148245142Y-32087428D01*
X149102285Y-33444571D02*
X148959428Y-33373142D01*
X148888000Y-33301714D01*
X148816571Y-33158857D01*
X148816571Y-32730285D01*
X148888000Y-32587428D01*
X148959428Y-32516000D01*
X149102285Y-32444571D01*
X149316571Y-32444571D01*
X149459428Y-32516000D01*
X149530857Y-32587428D01*
X149602285Y-32730285D01*
X149602285Y-33158857D01*
X149530857Y-33301714D01*
X149459428Y-33373142D01*
X149316571Y-33444571D01*
X149102285Y-33444571D01*
X150459428Y-33444571D02*
X150316571Y-33373142D01*
X150245142Y-33230285D01*
X150245142Y-31944571D01*
X151245142Y-33444571D02*
X151102285Y-33373142D01*
X151030857Y-33230285D01*
X151030857Y-31944571D01*
X152388000Y-33373142D02*
X152245142Y-33444571D01*
X151959428Y-33444571D01*
X151816571Y-33373142D01*
X151745142Y-33230285D01*
X151745142Y-32658857D01*
X151816571Y-32516000D01*
X151959428Y-32444571D01*
X152245142Y-32444571D01*
X152388000Y-32516000D01*
X152459428Y-32658857D01*
X152459428Y-32801714D01*
X151745142Y-32944571D01*
X153745142Y-32444571D02*
X153745142Y-33658857D01*
X153673714Y-33801714D01*
X153602285Y-33873142D01*
X153459428Y-33944571D01*
X153245142Y-33944571D01*
X153102285Y-33873142D01*
X153745142Y-33373142D02*
X153602285Y-33444571D01*
X153316571Y-33444571D01*
X153173714Y-33373142D01*
X153102285Y-33301714D01*
X153030857Y-33158857D01*
X153030857Y-32730285D01*
X153102285Y-32587428D01*
X153173714Y-32516000D01*
X153316571Y-32444571D01*
X153602285Y-32444571D01*
X153745142Y-32516000D01*
X155030857Y-33373142D02*
X154888000Y-33444571D01*
X154602285Y-33444571D01*
X154459428Y-33373142D01*
X154388000Y-33230285D01*
X154388000Y-32658857D01*
X154459428Y-32516000D01*
X154602285Y-32444571D01*
X154888000Y-32444571D01*
X155030857Y-32516000D01*
X155102285Y-32658857D01*
X155102285Y-32801714D01*
X154388000Y-32944571D01*
X156888000Y-33444571D02*
X156888000Y-31944571D01*
X157745142Y-33444571D02*
X157102285Y-32587428D01*
X157745142Y-31944571D02*
X156888000Y-32801714D01*
X158959428Y-33373142D02*
X158816571Y-33444571D01*
X158530857Y-33444571D01*
X158388000Y-33373142D01*
X158316571Y-33230285D01*
X158316571Y-32658857D01*
X158388000Y-32516000D01*
X158530857Y-32444571D01*
X158816571Y-32444571D01*
X158959428Y-32516000D01*
X159030857Y-32658857D01*
X159030857Y-32801714D01*
X158316571Y-32944571D01*
X159530857Y-32444571D02*
X159888000Y-33444571D01*
X160245142Y-32444571D02*
X159888000Y-33444571D01*
X159745142Y-33801714D01*
X159673714Y-33873142D01*
X159530857Y-33944571D01*
X160816571Y-33444571D02*
X160816571Y-31944571D01*
X160816571Y-32516000D02*
X160959428Y-32444571D01*
X161245142Y-32444571D01*
X161388000Y-32516000D01*
X161459428Y-32587428D01*
X161530857Y-32730285D01*
X161530857Y-33158857D01*
X161459428Y-33301714D01*
X161388000Y-33373142D01*
X161245142Y-33444571D01*
X160959428Y-33444571D01*
X160816571Y-33373142D01*
X162388000Y-33444571D02*
X162245142Y-33373142D01*
X162173714Y-33301714D01*
X162102285Y-33158857D01*
X162102285Y-32730285D01*
X162173714Y-32587428D01*
X162245142Y-32516000D01*
X162388000Y-32444571D01*
X162602285Y-32444571D01*
X162745142Y-32516000D01*
X162816571Y-32587428D01*
X162888000Y-32730285D01*
X162888000Y-33158857D01*
X162816571Y-33301714D01*
X162745142Y-33373142D01*
X162602285Y-33444571D01*
X162388000Y-33444571D01*
X164173714Y-33444571D02*
X164173714Y-32658857D01*
X164102285Y-32516000D01*
X163959428Y-32444571D01*
X163673714Y-32444571D01*
X163530857Y-32516000D01*
X164173714Y-33373142D02*
X164030857Y-33444571D01*
X163673714Y-33444571D01*
X163530857Y-33373142D01*
X163459428Y-33230285D01*
X163459428Y-33087428D01*
X163530857Y-32944571D01*
X163673714Y-32873142D01*
X164030857Y-32873142D01*
X164173714Y-32801714D01*
X164888000Y-33444571D02*
X164888000Y-32444571D01*
X164888000Y-32730285D02*
X164959428Y-32587428D01*
X165030857Y-32516000D01*
X165173714Y-32444571D01*
X165316571Y-32444571D01*
X166459428Y-33444571D02*
X166459428Y-31944571D01*
X166459428Y-33373142D02*
X166316571Y-33444571D01*
X166030857Y-33444571D01*
X165888000Y-33373142D01*
X165816571Y-33301714D01*
X165745142Y-33158857D01*
X165745142Y-32730285D01*
X165816571Y-32587428D01*
X165888000Y-32516000D01*
X166030857Y-32444571D01*
X166316571Y-32444571D01*
X166459428Y-32516000D01*
X167102285Y-31944571D02*
X167102285Y-32230285D01*
X167673714Y-31944571D02*
X167673714Y-32230285D01*
D11*
X138352285Y-23892285D02*
X138352285Y-28749428D01*
X138638000Y-29320857D01*
X138923714Y-29606571D01*
X139495142Y-29892285D01*
X140638000Y-29892285D01*
X141209428Y-29606571D01*
X141495142Y-29320857D01*
X141780857Y-28749428D01*
X141780857Y-23892285D01*
X144638000Y-29320857D02*
X144923714Y-29606571D01*
X144638000Y-29892285D01*
X144352285Y-29606571D01*
X144638000Y-29320857D01*
X144638000Y-29892285D01*
X150923714Y-29320857D02*
X150638000Y-29606571D01*
X149780857Y-29892285D01*
X149209428Y-29892285D01*
X148352285Y-29606571D01*
X147780857Y-29035142D01*
X147495142Y-28463714D01*
X147209428Y-27320857D01*
X147209428Y-26463714D01*
X147495142Y-25320857D01*
X147780857Y-24749428D01*
X148352285Y-24178000D01*
X149209428Y-23892285D01*
X149780857Y-23892285D01*
X150638000Y-24178000D01*
X150923714Y-24463714D01*
X153495142Y-29320857D02*
X153780857Y-29606571D01*
X153495142Y-29892285D01*
X153209428Y-29606571D01*
X153495142Y-29320857D01*
X153495142Y-29892285D01*
X156352285Y-29892285D02*
X156352285Y-23892285D01*
X159780857Y-29892285D02*
X157209428Y-26463714D01*
X159780857Y-23892285D02*
X156352285Y-27320857D01*
X162352285Y-29892285D02*
X162352285Y-23892285D01*
X162352285Y-26178000D02*
X162923714Y-25892285D01*
X164066571Y-25892285D01*
X164638000Y-26178000D01*
X164923714Y-26463714D01*
X165209428Y-27035142D01*
X165209428Y-28749428D01*
X164923714Y-29320857D01*
X164638000Y-29606571D01*
X164066571Y-29892285D01*
X162923714Y-29892285D01*
X162352285Y-29606571D01*
D12*
X68565999Y-24281428D02*
X73708857Y-24281428D01*
X71137428Y-33281428D02*
X71137428Y-24281428D01*
X81423142Y-24710000D02*
X80565999Y-24281428D01*
X79280285Y-24281428D01*
X77994571Y-24710000D01*
X77137428Y-25567142D01*
X76708857Y-26424285D01*
X76280285Y-28138571D01*
X76280285Y-29424285D01*
X76708857Y-31138571D01*
X77137428Y-31995714D01*
X77994571Y-32852857D01*
X79280285Y-33281428D01*
X80137428Y-33281428D01*
X81423142Y-32852857D01*
X81851714Y-32424285D01*
X81851714Y-29424285D01*
X80137428Y-29424285D01*
X89566000Y-27281428D02*
X89566000Y-33281428D01*
X87423142Y-23852857D02*
X85280285Y-30281428D01*
X90851714Y-30281428D01*
X93423142Y-33281428D02*
X98137428Y-27281428D01*
X93423142Y-27281428D02*
X98137428Y-33281428D01*
D13*
X220980000Y-75692000D02*
X213868000Y-60198000D01*
X199644000Y-93980000D02*
X220980000Y-75692000D01*
X134366000Y-68580000D02*
X199644000Y-93980000D01*
X211074000Y-56388000D02*
X134366000Y-68580000D01*
D10*
X126238285Y-66734571D02*
X126809714Y-66734571D01*
X126452571Y-66234571D02*
X126452571Y-67520285D01*
X126524000Y-67663142D01*
X126666857Y-67734571D01*
X126809714Y-67734571D01*
X127952571Y-66734571D02*
X127952571Y-67948857D01*
X127881142Y-68091714D01*
X127809714Y-68163142D01*
X127666857Y-68234571D01*
X127452571Y-68234571D01*
X127309714Y-68163142D01*
X127952571Y-67663142D02*
X127809714Y-67734571D01*
X127524000Y-67734571D01*
X127381142Y-67663142D01*
X127309714Y-67591714D01*
X127238285Y-67448857D01*
X127238285Y-67020285D01*
X127309714Y-66877428D01*
X127381142Y-66806000D01*
X127524000Y-66734571D01*
X127809714Y-66734571D01*
X127952571Y-66806000D01*
X129309714Y-66734571D02*
X129309714Y-67734571D01*
X128952571Y-66163142D02*
X128595428Y-67234571D01*
X129524000Y-67234571D01*
X129952571Y-67734571D02*
X130738285Y-66734571D01*
X129952571Y-66734571D02*
X130738285Y-67734571D01*
D14*
G04 #@! TO.C,SW2*
X27635200Y-112471200D02*
X27635200Y-98501200D01*
X41605200Y-112471200D02*
X27635200Y-112471200D01*
X41605200Y-98501200D02*
X41605200Y-112471200D01*
X27635200Y-98501200D02*
X41605200Y-98501200D01*
G04 #@! TO.C,D39*
X229613600Y-89429400D02*
X231853600Y-89429400D01*
X229613600Y-89189400D02*
X231853600Y-89189400D01*
X229613600Y-89309400D02*
X231853600Y-89309400D01*
X230733600Y-85139400D02*
X230733600Y-85789400D01*
X230733600Y-90679400D02*
X230733600Y-90029400D01*
X229613600Y-85789400D02*
X229613600Y-90029400D01*
X231853600Y-85789400D02*
X229613600Y-85789400D01*
X231853600Y-90029400D02*
X231853600Y-85789400D01*
X229613600Y-90029400D02*
X231853600Y-90029400D01*
G04 #@! TO.C,D43*
X250873400Y-89251600D02*
X253113400Y-89251600D01*
X250873400Y-89011600D02*
X253113400Y-89011600D01*
X250873400Y-89131600D02*
X253113400Y-89131600D01*
X251993400Y-84961600D02*
X251993400Y-85611600D01*
X251993400Y-90501600D02*
X251993400Y-89851600D01*
X250873400Y-85611600D02*
X250873400Y-89851600D01*
X253113400Y-85611600D02*
X250873400Y-85611600D01*
X253113400Y-89851600D02*
X253113400Y-85611600D01*
X250873400Y-89851600D02*
X253113400Y-89851600D01*
G04 #@! TO.C,D42*
X245793400Y-70277800D02*
X248033400Y-70277800D01*
X245793400Y-70037800D02*
X248033400Y-70037800D01*
X245793400Y-70157800D02*
X248033400Y-70157800D01*
X246913400Y-65987800D02*
X246913400Y-66637800D01*
X246913400Y-71527800D02*
X246913400Y-70877800D01*
X245793400Y-66637800D02*
X245793400Y-70877800D01*
X248033400Y-66637800D02*
X245793400Y-66637800D01*
X248033400Y-70877800D02*
X248033400Y-66637800D01*
X245793400Y-70877800D02*
X248033400Y-70877800D01*
G04 #@! TO.C,SW38*
X222961200Y-60502800D02*
X236931200Y-60502800D01*
X236931200Y-60502800D02*
X236931200Y-74472800D01*
X236931200Y-74472800D02*
X222961200Y-74472800D01*
X222961200Y-74472800D02*
X222961200Y-60502800D01*
G04 #@! TO.C,D38*
X220063200Y-70877800D02*
X222303200Y-70877800D01*
X222303200Y-70877800D02*
X222303200Y-66637800D01*
X222303200Y-66637800D02*
X220063200Y-66637800D01*
X220063200Y-66637800D02*
X220063200Y-70877800D01*
X221183200Y-71527800D02*
X221183200Y-70877800D01*
X221183200Y-65987800D02*
X221183200Y-66637800D01*
X220063200Y-70157800D02*
X222303200Y-70157800D01*
X220063200Y-70037800D02*
X222303200Y-70037800D01*
X220063200Y-70277800D02*
X222303200Y-70277800D01*
G04 #@! TO.C,SW37*
X218186000Y-55397400D02*
X218186000Y-41427400D01*
X232156000Y-55397400D02*
X218186000Y-55397400D01*
X232156000Y-41427400D02*
X232156000Y-55397400D01*
X218186000Y-41427400D02*
X232156000Y-41427400D01*
G04 #@! TO.C,D1*
X25067400Y-52081800D02*
X27307400Y-52081800D01*
X27307400Y-52081800D02*
X27307400Y-47841800D01*
X27307400Y-47841800D02*
X25067400Y-47841800D01*
X25067400Y-47841800D02*
X25067400Y-52081800D01*
X26187400Y-52731800D02*
X26187400Y-52081800D01*
X26187400Y-47191800D02*
X26187400Y-47841800D01*
X25067400Y-51361800D02*
X27307400Y-51361800D01*
X25067400Y-51241800D02*
X27307400Y-51241800D01*
X25067400Y-51481800D02*
X27307400Y-51481800D01*
G04 #@! TO.C,D2*
X25169000Y-108276200D02*
X27409000Y-108276200D01*
X25169000Y-108036200D02*
X27409000Y-108036200D01*
X25169000Y-108156200D02*
X27409000Y-108156200D01*
X26289000Y-103986200D02*
X26289000Y-104636200D01*
X26289000Y-109526200D02*
X26289000Y-108876200D01*
X25169000Y-104636200D02*
X25169000Y-108876200D01*
X27409000Y-104636200D02*
X25169000Y-104636200D01*
X27409000Y-108876200D02*
X27409000Y-104636200D01*
X25169000Y-108876200D02*
X27409000Y-108876200D01*
G04 #@! TO.C,D3*
X27099400Y-70201600D02*
X29339400Y-70201600D01*
X27099400Y-69961600D02*
X29339400Y-69961600D01*
X27099400Y-70081600D02*
X29339400Y-70081600D01*
X28219400Y-65911600D02*
X28219400Y-66561600D01*
X28219400Y-71451600D02*
X28219400Y-70801600D01*
X27099400Y-66561600D02*
X27099400Y-70801600D01*
X29339400Y-66561600D02*
X27099400Y-66561600D01*
X29339400Y-70801600D02*
X29339400Y-66561600D01*
X27099400Y-70801600D02*
X29339400Y-70801600D01*
G04 #@! TO.C,D4*
X32103200Y-89851600D02*
X34343200Y-89851600D01*
X34343200Y-89851600D02*
X34343200Y-85611600D01*
X34343200Y-85611600D02*
X32103200Y-85611600D01*
X32103200Y-85611600D02*
X32103200Y-89851600D01*
X33223200Y-90501600D02*
X33223200Y-89851600D01*
X33223200Y-84961600D02*
X33223200Y-85611600D01*
X32103200Y-89131600D02*
X34343200Y-89131600D01*
X32103200Y-89011600D02*
X34343200Y-89011600D01*
X32103200Y-89251600D02*
X34343200Y-89251600D01*
G04 #@! TO.C,D5*
X43812600Y-51253200D02*
X46052600Y-51253200D01*
X43812600Y-51013200D02*
X46052600Y-51013200D01*
X43812600Y-51133200D02*
X46052600Y-51133200D01*
X44932600Y-46963200D02*
X44932600Y-47613200D01*
X44932600Y-52503200D02*
X44932600Y-51853200D01*
X43812600Y-47613200D02*
X43812600Y-51853200D01*
X46052600Y-47613200D02*
X43812600Y-47613200D01*
X46052600Y-51853200D02*
X46052600Y-47613200D01*
X43812600Y-51853200D02*
X46052600Y-51853200D01*
G04 #@! TO.C,D6*
X44117400Y-108927000D02*
X46357400Y-108927000D01*
X46357400Y-108927000D02*
X46357400Y-104687000D01*
X46357400Y-104687000D02*
X44117400Y-104687000D01*
X44117400Y-104687000D02*
X44117400Y-108927000D01*
X45237400Y-109577000D02*
X45237400Y-108927000D01*
X45237400Y-104037000D02*
X45237400Y-104687000D01*
X44117400Y-108207000D02*
X46357400Y-108207000D01*
X44117400Y-108087000D02*
X46357400Y-108087000D01*
X44117400Y-108327000D02*
X46357400Y-108327000D01*
G04 #@! TO.C,D7*
X48410000Y-70776200D02*
X50650000Y-70776200D01*
X50650000Y-70776200D02*
X50650000Y-66536200D01*
X50650000Y-66536200D02*
X48410000Y-66536200D01*
X48410000Y-66536200D02*
X48410000Y-70776200D01*
X49530000Y-71426200D02*
X49530000Y-70776200D01*
X49530000Y-65886200D02*
X49530000Y-66536200D01*
X48410000Y-70056200D02*
X50650000Y-70056200D01*
X48410000Y-69936200D02*
X50650000Y-69936200D01*
X48410000Y-70176200D02*
X50650000Y-70176200D01*
G04 #@! TO.C,D8*
X58138200Y-89851600D02*
X60378200Y-89851600D01*
X60378200Y-89851600D02*
X60378200Y-85611600D01*
X60378200Y-85611600D02*
X58138200Y-85611600D01*
X58138200Y-85611600D02*
X58138200Y-89851600D01*
X59258200Y-90501600D02*
X59258200Y-89851600D01*
X59258200Y-84961600D02*
X59258200Y-85611600D01*
X58138200Y-89131600D02*
X60378200Y-89131600D01*
X58138200Y-89011600D02*
X60378200Y-89011600D01*
X58138200Y-89251600D02*
X60378200Y-89251600D01*
G04 #@! TO.C,D9*
X62380000Y-51777000D02*
X64620000Y-51777000D01*
X64620000Y-51777000D02*
X64620000Y-47537000D01*
X64620000Y-47537000D02*
X62380000Y-47537000D01*
X62380000Y-47537000D02*
X62380000Y-51777000D01*
X63500000Y-52427000D02*
X63500000Y-51777000D01*
X63500000Y-46887000D02*
X63500000Y-47537000D01*
X62380000Y-51057000D02*
X64620000Y-51057000D01*
X62380000Y-50937000D02*
X64620000Y-50937000D01*
X62380000Y-51177000D02*
X64620000Y-51177000D01*
G04 #@! TO.C,D10*
X63116600Y-108327000D02*
X65356600Y-108327000D01*
X63116600Y-108087000D02*
X65356600Y-108087000D01*
X63116600Y-108207000D02*
X65356600Y-108207000D01*
X64236600Y-104037000D02*
X64236600Y-104687000D01*
X64236600Y-109577000D02*
X64236600Y-108927000D01*
X63116600Y-104687000D02*
X63116600Y-108927000D01*
X65356600Y-104687000D02*
X63116600Y-104687000D01*
X65356600Y-108927000D02*
X65356600Y-104687000D01*
X63116600Y-108927000D02*
X65356600Y-108927000D01*
G04 #@! TO.C,D11*
X67561600Y-70506400D02*
X69801600Y-70506400D01*
X67561600Y-70266400D02*
X69801600Y-70266400D01*
X67561600Y-70386400D02*
X69801600Y-70386400D01*
X68681600Y-66216400D02*
X68681600Y-66866400D01*
X68681600Y-71756400D02*
X68681600Y-71106400D01*
X67561600Y-66866400D02*
X67561600Y-71106400D01*
X69801600Y-66866400D02*
X67561600Y-66866400D01*
X69801600Y-71106400D02*
X69801600Y-66866400D01*
X67561600Y-71106400D02*
X69801600Y-71106400D01*
G04 #@! TO.C,D12*
X76883400Y-89327800D02*
X79123400Y-89327800D01*
X76883400Y-89087800D02*
X79123400Y-89087800D01*
X76883400Y-89207800D02*
X79123400Y-89207800D01*
X78003400Y-85037800D02*
X78003400Y-85687800D01*
X78003400Y-90577800D02*
X78003400Y-89927800D01*
X76883400Y-85687800D02*
X76883400Y-89927800D01*
X79123400Y-85687800D02*
X76883400Y-85687800D01*
X79123400Y-89927800D02*
X79123400Y-85687800D01*
X76883400Y-89927800D02*
X79123400Y-89927800D01*
G04 #@! TO.C,D13*
X81607800Y-51777000D02*
X83847800Y-51777000D01*
X83847800Y-51777000D02*
X83847800Y-47537000D01*
X83847800Y-47537000D02*
X81607800Y-47537000D01*
X81607800Y-47537000D02*
X81607800Y-51777000D01*
X82727800Y-52427000D02*
X82727800Y-51777000D01*
X82727800Y-46887000D02*
X82727800Y-47537000D01*
X81607800Y-51057000D02*
X83847800Y-51057000D01*
X81607800Y-50937000D02*
X83847800Y-50937000D01*
X81607800Y-51177000D02*
X83847800Y-51177000D01*
G04 #@! TO.C,D14*
X86764000Y-70252400D02*
X89004000Y-70252400D01*
X86764000Y-70012400D02*
X89004000Y-70012400D01*
X86764000Y-70132400D02*
X89004000Y-70132400D01*
X87884000Y-65962400D02*
X87884000Y-66612400D01*
X87884000Y-71502400D02*
X87884000Y-70852400D01*
X86764000Y-66612400D02*
X86764000Y-70852400D01*
X89004000Y-66612400D02*
X86764000Y-66612400D01*
X89004000Y-70852400D02*
X89004000Y-66612400D01*
X86764000Y-70852400D02*
X89004000Y-70852400D01*
G04 #@! TO.C,D15*
X96517600Y-89953200D02*
X98757600Y-89953200D01*
X98757600Y-89953200D02*
X98757600Y-85713200D01*
X98757600Y-85713200D02*
X96517600Y-85713200D01*
X96517600Y-85713200D02*
X96517600Y-89953200D01*
X97637600Y-90603200D02*
X97637600Y-89953200D01*
X97637600Y-85063200D02*
X97637600Y-85713200D01*
X96517600Y-89233200D02*
X98757600Y-89233200D01*
X96517600Y-89113200D02*
X98757600Y-89113200D01*
X96517600Y-89353200D02*
X98757600Y-89353200D01*
G04 #@! TO.C,D16*
X100708600Y-51227800D02*
X102948600Y-51227800D01*
X100708600Y-50987800D02*
X102948600Y-50987800D01*
X100708600Y-51107800D02*
X102948600Y-51107800D01*
X101828600Y-46937800D02*
X101828600Y-47587800D01*
X101828600Y-52477800D02*
X101828600Y-51827800D01*
X100708600Y-47587800D02*
X100708600Y-51827800D01*
X102948600Y-47587800D02*
X100708600Y-47587800D01*
X102948600Y-51827800D02*
X102948600Y-47587800D01*
X100708600Y-51827800D02*
X102948600Y-51827800D01*
G04 #@! TO.C,D17*
X105585400Y-70903200D02*
X107825400Y-70903200D01*
X107825400Y-70903200D02*
X107825400Y-66663200D01*
X107825400Y-66663200D02*
X105585400Y-66663200D01*
X105585400Y-66663200D02*
X105585400Y-70903200D01*
X106705400Y-71553200D02*
X106705400Y-70903200D01*
X106705400Y-66013200D02*
X106705400Y-66663200D01*
X105585400Y-70183200D02*
X107825400Y-70183200D01*
X105585400Y-70063200D02*
X107825400Y-70063200D01*
X105585400Y-70303200D02*
X107825400Y-70303200D01*
G04 #@! TO.C,D18*
X115516800Y-89581800D02*
X117756800Y-89581800D01*
X115516800Y-89341800D02*
X117756800Y-89341800D01*
X115516800Y-89461800D02*
X117756800Y-89461800D01*
X116636800Y-85291800D02*
X116636800Y-85941800D01*
X116636800Y-90831800D02*
X116636800Y-90181800D01*
X115516800Y-85941800D02*
X115516800Y-90181800D01*
X117756800Y-85941800D02*
X115516800Y-85941800D01*
X117756800Y-90181800D02*
X117756800Y-85941800D01*
X115516800Y-90181800D02*
X117756800Y-90181800D01*
G04 #@! TO.C,D19*
X119885600Y-51802400D02*
X122125600Y-51802400D01*
X122125600Y-51802400D02*
X122125600Y-47562400D01*
X122125600Y-47562400D02*
X119885600Y-47562400D01*
X119885600Y-47562400D02*
X119885600Y-51802400D01*
X121005600Y-52452400D02*
X121005600Y-51802400D01*
X121005600Y-46912400D02*
X121005600Y-47562400D01*
X119885600Y-51082400D02*
X122125600Y-51082400D01*
X119885600Y-50962400D02*
X122125600Y-50962400D01*
X119885600Y-51202400D02*
X122125600Y-51202400D01*
G04 #@! TO.C,D20*
X124813200Y-70328600D02*
X127053200Y-70328600D01*
X124813200Y-70088600D02*
X127053200Y-70088600D01*
X124813200Y-70208600D02*
X127053200Y-70208600D01*
X125933200Y-66038600D02*
X125933200Y-66688600D01*
X125933200Y-71578600D02*
X125933200Y-70928600D01*
X124813200Y-66688600D02*
X124813200Y-70928600D01*
X127053200Y-66688600D02*
X124813200Y-66688600D01*
X127053200Y-70928600D02*
X127053200Y-66688600D01*
X124813200Y-70928600D02*
X127053200Y-70928600D01*
G04 #@! TO.C,D21*
X134389000Y-90004000D02*
X136629000Y-90004000D01*
X136629000Y-90004000D02*
X136629000Y-85764000D01*
X136629000Y-85764000D02*
X134389000Y-85764000D01*
X134389000Y-85764000D02*
X134389000Y-90004000D01*
X135509000Y-90654000D02*
X135509000Y-90004000D01*
X135509000Y-85114000D02*
X135509000Y-85764000D01*
X134389000Y-89284000D02*
X136629000Y-89284000D01*
X134389000Y-89164000D02*
X136629000Y-89164000D01*
X134389000Y-89404000D02*
X136629000Y-89404000D01*
G04 #@! TO.C,D22*
X139367400Y-108403200D02*
X141607400Y-108403200D01*
X139367400Y-108163200D02*
X141607400Y-108163200D01*
X139367400Y-108283200D02*
X141607400Y-108283200D01*
X140487400Y-104113200D02*
X140487400Y-104763200D01*
X140487400Y-109653200D02*
X140487400Y-109003200D01*
X139367400Y-104763200D02*
X139367400Y-109003200D01*
X141607400Y-104763200D02*
X139367400Y-104763200D01*
X141607400Y-109003200D02*
X141607400Y-104763200D01*
X139367400Y-109003200D02*
X141607400Y-109003200D01*
G04 #@! TO.C,D23*
X138910200Y-51904000D02*
X141150200Y-51904000D01*
X141150200Y-51904000D02*
X141150200Y-47664000D01*
X141150200Y-47664000D02*
X138910200Y-47664000D01*
X138910200Y-47664000D02*
X138910200Y-51904000D01*
X140030200Y-52554000D02*
X140030200Y-51904000D01*
X140030200Y-47014000D02*
X140030200Y-47664000D01*
X138910200Y-51184000D02*
X141150200Y-51184000D01*
X138910200Y-51064000D02*
X141150200Y-51064000D01*
X138910200Y-51304000D02*
X141150200Y-51304000D01*
G04 #@! TO.C,D24*
X143736200Y-70303200D02*
X145976200Y-70303200D01*
X143736200Y-70063200D02*
X145976200Y-70063200D01*
X143736200Y-70183200D02*
X145976200Y-70183200D01*
X144856200Y-66013200D02*
X144856200Y-66663200D01*
X144856200Y-71553200D02*
X144856200Y-70903200D01*
X143736200Y-66663200D02*
X143736200Y-70903200D01*
X145976200Y-66663200D02*
X143736200Y-66663200D01*
X145976200Y-70903200D02*
X145976200Y-66663200D01*
X143736200Y-70903200D02*
X145976200Y-70903200D01*
G04 #@! TO.C,D25*
X153185000Y-89927800D02*
X155425000Y-89927800D01*
X155425000Y-89927800D02*
X155425000Y-85687800D01*
X155425000Y-85687800D02*
X153185000Y-85687800D01*
X153185000Y-85687800D02*
X153185000Y-89927800D01*
X154305000Y-90577800D02*
X154305000Y-89927800D01*
X154305000Y-85037800D02*
X154305000Y-85687800D01*
X153185000Y-89207800D02*
X155425000Y-89207800D01*
X153185000Y-89087800D02*
X155425000Y-89087800D01*
X153185000Y-89327800D02*
X155425000Y-89327800D01*
G04 #@! TO.C,D26*
X158112600Y-51227800D02*
X160352600Y-51227800D01*
X158112600Y-50987800D02*
X160352600Y-50987800D01*
X158112600Y-51107800D02*
X160352600Y-51107800D01*
X159232600Y-46937800D02*
X159232600Y-47587800D01*
X159232600Y-52477800D02*
X159232600Y-51827800D01*
X158112600Y-47587800D02*
X158112600Y-51827800D01*
X160352600Y-47587800D02*
X158112600Y-47587800D01*
X160352600Y-51827800D02*
X160352600Y-47587800D01*
X158112600Y-51827800D02*
X160352600Y-51827800D01*
G04 #@! TO.C,D27*
X162811600Y-70928600D02*
X165051600Y-70928600D01*
X165051600Y-70928600D02*
X165051600Y-66688600D01*
X165051600Y-66688600D02*
X162811600Y-66688600D01*
X162811600Y-66688600D02*
X162811600Y-70928600D01*
X163931600Y-71578600D02*
X163931600Y-70928600D01*
X163931600Y-66038600D02*
X163931600Y-66688600D01*
X162811600Y-70208600D02*
X165051600Y-70208600D01*
X162811600Y-70088600D02*
X165051600Y-70088600D01*
X162811600Y-70328600D02*
X165051600Y-70328600D01*
G04 #@! TO.C,D28*
X172387400Y-89404000D02*
X174627400Y-89404000D01*
X172387400Y-89164000D02*
X174627400Y-89164000D01*
X172387400Y-89284000D02*
X174627400Y-89284000D01*
X173507400Y-85114000D02*
X173507400Y-85764000D01*
X173507400Y-90654000D02*
X173507400Y-90004000D01*
X172387400Y-85764000D02*
X172387400Y-90004000D01*
X174627400Y-85764000D02*
X172387400Y-85764000D01*
X174627400Y-90004000D02*
X174627400Y-85764000D01*
X172387400Y-90004000D02*
X174627400Y-90004000D01*
G04 #@! TO.C,D29*
X177340400Y-51802400D02*
X179580400Y-51802400D01*
X179580400Y-51802400D02*
X179580400Y-47562400D01*
X179580400Y-47562400D02*
X177340400Y-47562400D01*
X177340400Y-47562400D02*
X177340400Y-51802400D01*
X178460400Y-52452400D02*
X178460400Y-51802400D01*
X178460400Y-46912400D02*
X178460400Y-47562400D01*
X177340400Y-51082400D02*
X179580400Y-51082400D01*
X177340400Y-50962400D02*
X179580400Y-50962400D01*
X177340400Y-51202400D02*
X179580400Y-51202400D01*
G04 #@! TO.C,D30*
X182268000Y-70928600D02*
X184508000Y-70928600D01*
X184508000Y-70928600D02*
X184508000Y-66688600D01*
X184508000Y-66688600D02*
X182268000Y-66688600D01*
X182268000Y-66688600D02*
X182268000Y-70928600D01*
X183388000Y-71578600D02*
X183388000Y-70928600D01*
X183388000Y-66038600D02*
X183388000Y-66688600D01*
X182268000Y-70208600D02*
X184508000Y-70208600D01*
X182268000Y-70088600D02*
X184508000Y-70088600D01*
X182268000Y-70328600D02*
X184508000Y-70328600D01*
G04 #@! TO.C,D31*
X191285000Y-90181800D02*
X193525000Y-90181800D01*
X193525000Y-90181800D02*
X193525000Y-85941800D01*
X193525000Y-85941800D02*
X191285000Y-85941800D01*
X191285000Y-85941800D02*
X191285000Y-90181800D01*
X192405000Y-90831800D02*
X192405000Y-90181800D01*
X192405000Y-85291800D02*
X192405000Y-85941800D01*
X191285000Y-89461800D02*
X193525000Y-89461800D01*
X191285000Y-89341800D02*
X193525000Y-89341800D01*
X191285000Y-89581800D02*
X193525000Y-89581800D01*
G04 #@! TO.C,D32*
X196009400Y-108327000D02*
X198249400Y-108327000D01*
X196009400Y-108087000D02*
X198249400Y-108087000D01*
X196009400Y-108207000D02*
X198249400Y-108207000D01*
X197129400Y-104037000D02*
X197129400Y-104687000D01*
X197129400Y-109577000D02*
X197129400Y-108927000D01*
X196009400Y-104687000D02*
X196009400Y-108927000D01*
X198249400Y-104687000D02*
X196009400Y-104687000D01*
X198249400Y-108927000D02*
X198249400Y-104687000D01*
X196009400Y-108927000D02*
X198249400Y-108927000D01*
G04 #@! TO.C,D33*
X196365000Y-51253200D02*
X198605000Y-51253200D01*
X196365000Y-51013200D02*
X198605000Y-51013200D01*
X196365000Y-51133200D02*
X198605000Y-51133200D01*
X197485000Y-46963200D02*
X197485000Y-47613200D01*
X197485000Y-52503200D02*
X197485000Y-51853200D01*
X196365000Y-47613200D02*
X196365000Y-51853200D01*
X198605000Y-47613200D02*
X196365000Y-47613200D01*
X198605000Y-51853200D02*
X198605000Y-47613200D01*
X196365000Y-51853200D02*
X198605000Y-51853200D01*
G04 #@! TO.C,D34*
X201089400Y-70328600D02*
X203329400Y-70328600D01*
X201089400Y-70088600D02*
X203329400Y-70088600D01*
X201089400Y-70208600D02*
X203329400Y-70208600D01*
X202209400Y-66038600D02*
X202209400Y-66688600D01*
X202209400Y-71578600D02*
X202209400Y-70928600D01*
X201089400Y-66688600D02*
X201089400Y-70928600D01*
X203329400Y-66688600D02*
X201089400Y-66688600D01*
X203329400Y-70928600D02*
X203329400Y-66688600D01*
X201089400Y-70928600D02*
X203329400Y-70928600D01*
G04 #@! TO.C,D35*
X210639800Y-89902400D02*
X212879800Y-89902400D01*
X212879800Y-89902400D02*
X212879800Y-85662400D01*
X212879800Y-85662400D02*
X210639800Y-85662400D01*
X210639800Y-85662400D02*
X210639800Y-89902400D01*
X211759800Y-90552400D02*
X211759800Y-89902400D01*
X211759800Y-85012400D02*
X211759800Y-85662400D01*
X210639800Y-89182400D02*
X212879800Y-89182400D01*
X210639800Y-89062400D02*
X212879800Y-89062400D01*
X210639800Y-89302400D02*
X212879800Y-89302400D01*
G04 #@! TO.C,D36*
X215211800Y-108454000D02*
X217451800Y-108454000D01*
X215211800Y-108214000D02*
X217451800Y-108214000D01*
X215211800Y-108334000D02*
X217451800Y-108334000D01*
X216331800Y-104164000D02*
X216331800Y-104814000D01*
X216331800Y-109704000D02*
X216331800Y-109054000D01*
X215211800Y-104814000D02*
X215211800Y-109054000D01*
X217451800Y-104814000D02*
X215211800Y-104814000D01*
X217451800Y-109054000D02*
X217451800Y-104814000D01*
X215211800Y-109054000D02*
X217451800Y-109054000D01*
G04 #@! TO.C,D37*
X214729200Y-51700800D02*
X216969200Y-51700800D01*
X216969200Y-51700800D02*
X216969200Y-47460800D01*
X216969200Y-47460800D02*
X214729200Y-47460800D01*
X214729200Y-47460800D02*
X214729200Y-51700800D01*
X215849200Y-52350800D02*
X215849200Y-51700800D01*
X215849200Y-46810800D02*
X215849200Y-47460800D01*
X214729200Y-50980800D02*
X216969200Y-50980800D01*
X214729200Y-50860800D02*
X216969200Y-50860800D01*
X214729200Y-51100800D02*
X216969200Y-51100800D01*
G04 #@! TO.C,D40*
X234338000Y-108454000D02*
X236578000Y-108454000D01*
X234338000Y-108214000D02*
X236578000Y-108214000D01*
X234338000Y-108334000D02*
X236578000Y-108334000D01*
X235458000Y-104164000D02*
X235458000Y-104814000D01*
X235458000Y-109704000D02*
X235458000Y-109054000D01*
X234338000Y-104814000D02*
X234338000Y-109054000D01*
X236578000Y-104814000D02*
X234338000Y-104814000D01*
X236578000Y-109054000D02*
X236578000Y-104814000D01*
X234338000Y-109054000D02*
X236578000Y-109054000D01*
G04 #@! TO.C,D41*
X234363400Y-51853200D02*
X236603400Y-51853200D01*
X236603400Y-51853200D02*
X236603400Y-47613200D01*
X236603400Y-47613200D02*
X234363400Y-47613200D01*
X234363400Y-47613200D02*
X234363400Y-51853200D01*
X235483400Y-52503200D02*
X235483400Y-51853200D01*
X235483400Y-46963200D02*
X235483400Y-47613200D01*
X234363400Y-51133200D02*
X236603400Y-51133200D01*
X234363400Y-51013200D02*
X236603400Y-51013200D01*
X234363400Y-51253200D02*
X236603400Y-51253200D01*
G04 #@! TO.C,D44*
X253515000Y-108927000D02*
X255755000Y-108927000D01*
X255755000Y-108927000D02*
X255755000Y-104687000D01*
X255755000Y-104687000D02*
X253515000Y-104687000D01*
X253515000Y-104687000D02*
X253515000Y-108927000D01*
X254635000Y-109577000D02*
X254635000Y-108927000D01*
X254635000Y-104037000D02*
X254635000Y-104687000D01*
X253515000Y-108207000D02*
X255755000Y-108207000D01*
X253515000Y-108087000D02*
X255755000Y-108087000D01*
X253515000Y-108327000D02*
X255755000Y-108327000D01*
G04 #@! TO.C,D45*
X253337200Y-51675400D02*
X255577200Y-51675400D01*
X255577200Y-51675400D02*
X255577200Y-47435400D01*
X255577200Y-47435400D02*
X253337200Y-47435400D01*
X253337200Y-47435400D02*
X253337200Y-51675400D01*
X254457200Y-52325400D02*
X254457200Y-51675400D01*
X254457200Y-46785400D02*
X254457200Y-47435400D01*
X253337200Y-50955400D02*
X255577200Y-50955400D01*
X253337200Y-50835400D02*
X255577200Y-50835400D01*
X253337200Y-51075400D02*
X255577200Y-51075400D01*
G04 #@! TO.C,SW1*
X27635200Y-41402000D02*
X41605200Y-41402000D01*
X41605200Y-41402000D02*
X41605200Y-55372000D01*
X41605200Y-55372000D02*
X27635200Y-55372000D01*
X27635200Y-55372000D02*
X27635200Y-41402000D01*
G04 #@! TO.C,SW3*
X30022800Y-60401200D02*
X43992800Y-60401200D01*
X43992800Y-60401200D02*
X43992800Y-74371200D01*
X43992800Y-74371200D02*
X30022800Y-74371200D01*
X30022800Y-74371200D02*
X30022800Y-60401200D01*
G04 #@! TO.C,SW4*
X34798000Y-79451200D02*
X48768000Y-79451200D01*
X48768000Y-79451200D02*
X48768000Y-93421200D01*
X48768000Y-93421200D02*
X34798000Y-93421200D01*
X34798000Y-93421200D02*
X34798000Y-79451200D01*
G04 #@! TO.C,SW5*
X46659800Y-41452800D02*
X60629800Y-41452800D01*
X60629800Y-41452800D02*
X60629800Y-55422800D01*
X60629800Y-55422800D02*
X46659800Y-55422800D01*
X46659800Y-55422800D02*
X46659800Y-41452800D01*
G04 #@! TO.C,SW6*
X46685200Y-98501200D02*
X60655200Y-98501200D01*
X60655200Y-98501200D02*
X60655200Y-112471200D01*
X60655200Y-112471200D02*
X46685200Y-112471200D01*
X46685200Y-112471200D02*
X46685200Y-98501200D01*
G04 #@! TO.C,SW7*
X51460400Y-74371200D02*
X51460400Y-60401200D01*
X65430400Y-74371200D02*
X51460400Y-74371200D01*
X65430400Y-60401200D02*
X65430400Y-74371200D01*
X51460400Y-60401200D02*
X65430400Y-60401200D01*
G04 #@! TO.C,SW8*
X60985400Y-79425800D02*
X74955400Y-79425800D01*
X74955400Y-79425800D02*
X74955400Y-93395800D01*
X74955400Y-93395800D02*
X60985400Y-93395800D01*
X60985400Y-93395800D02*
X60985400Y-79425800D01*
G04 #@! TO.C,SW9*
X65786000Y-55422800D02*
X65786000Y-41452800D01*
X79756000Y-55422800D02*
X65786000Y-55422800D01*
X79756000Y-41452800D02*
X79756000Y-55422800D01*
X65786000Y-41452800D02*
X79756000Y-41452800D01*
G04 #@! TO.C,SW10*
X65735200Y-112471200D02*
X65735200Y-98501200D01*
X79705200Y-112471200D02*
X65735200Y-112471200D01*
X79705200Y-98501200D02*
X79705200Y-112471200D01*
X65735200Y-98501200D02*
X79705200Y-98501200D01*
G04 #@! TO.C,SW11*
X70535800Y-74371200D02*
X70535800Y-60401200D01*
X84505800Y-74371200D02*
X70535800Y-74371200D01*
X84505800Y-60401200D02*
X84505800Y-74371200D01*
X70535800Y-60401200D02*
X84505800Y-60401200D01*
G04 #@! TO.C,SW12*
X80060800Y-79451200D02*
X94030800Y-79451200D01*
X94030800Y-79451200D02*
X94030800Y-93421200D01*
X94030800Y-93421200D02*
X80060800Y-93421200D01*
X80060800Y-93421200D02*
X80060800Y-79451200D01*
G04 #@! TO.C,SW13*
X84836000Y-41325800D02*
X98806000Y-41325800D01*
X98806000Y-41325800D02*
X98806000Y-55295800D01*
X98806000Y-55295800D02*
X84836000Y-55295800D01*
X84836000Y-55295800D02*
X84836000Y-41325800D01*
G04 #@! TO.C,SW14*
X89585800Y-74523600D02*
X89585800Y-60553600D01*
X103555800Y-74523600D02*
X89585800Y-74523600D01*
X103555800Y-60553600D02*
X103555800Y-74523600D01*
X89585800Y-60553600D02*
X103555800Y-60553600D01*
G04 #@! TO.C,SW15*
X99110800Y-79527400D02*
X113080800Y-79527400D01*
X113080800Y-79527400D02*
X113080800Y-93497400D01*
X113080800Y-93497400D02*
X99110800Y-93497400D01*
X99110800Y-93497400D02*
X99110800Y-79527400D01*
G04 #@! TO.C,SW16*
X103809800Y-55448200D02*
X103809800Y-41478200D01*
X117779800Y-55448200D02*
X103809800Y-55448200D01*
X117779800Y-41478200D02*
X117779800Y-55448200D01*
X103809800Y-41478200D02*
X117779800Y-41478200D01*
G04 #@! TO.C,SW17*
X108661200Y-60452000D02*
X122631200Y-60452000D01*
X122631200Y-60452000D02*
X122631200Y-74422000D01*
X122631200Y-74422000D02*
X108661200Y-74422000D01*
X108661200Y-74422000D02*
X108661200Y-60452000D01*
G04 #@! TO.C,SW18*
X118135400Y-93395800D02*
X118135400Y-79425800D01*
X132105400Y-93395800D02*
X118135400Y-93395800D01*
X132105400Y-79425800D02*
X132105400Y-93395800D01*
X118135400Y-79425800D02*
X132105400Y-79425800D01*
G04 #@! TO.C,SW19*
X122859800Y-41402000D02*
X136829800Y-41402000D01*
X136829800Y-41402000D02*
X136829800Y-55372000D01*
X136829800Y-55372000D02*
X122859800Y-55372000D01*
X122859800Y-55372000D02*
X122859800Y-41402000D01*
G04 #@! TO.C,SW20*
X127685800Y-74447400D02*
X127685800Y-60477400D01*
X141655800Y-74447400D02*
X127685800Y-74447400D01*
X141655800Y-60477400D02*
X141655800Y-74447400D01*
X127685800Y-60477400D02*
X141655800Y-60477400D01*
G04 #@! TO.C,SW21*
X137185400Y-79527400D02*
X151155400Y-79527400D01*
X151155400Y-79527400D02*
X151155400Y-93497400D01*
X151155400Y-93497400D02*
X137185400Y-93497400D01*
X137185400Y-93497400D02*
X137185400Y-79527400D01*
G04 #@! TO.C,SW22*
X142011400Y-112598200D02*
X142011400Y-98628200D01*
X155981400Y-112598200D02*
X142011400Y-112598200D01*
X155981400Y-98628200D02*
X155981400Y-112598200D01*
X142011400Y-98628200D02*
X155981400Y-98628200D01*
G04 #@! TO.C,SW23*
X141960600Y-41427400D02*
X155930600Y-41427400D01*
X155930600Y-41427400D02*
X155930600Y-55397400D01*
X155930600Y-55397400D02*
X141960600Y-55397400D01*
X141960600Y-55397400D02*
X141960600Y-41427400D01*
G04 #@! TO.C,SW24*
X146735800Y-74472800D02*
X146735800Y-60502800D01*
X160705800Y-74472800D02*
X146735800Y-74472800D01*
X160705800Y-60502800D02*
X160705800Y-74472800D01*
X146735800Y-60502800D02*
X160705800Y-60502800D01*
G04 #@! TO.C,SW25*
X156337000Y-79527400D02*
X170307000Y-79527400D01*
X170307000Y-79527400D02*
X170307000Y-93497400D01*
X170307000Y-93497400D02*
X156337000Y-93497400D01*
X156337000Y-93497400D02*
X156337000Y-79527400D01*
G04 #@! TO.C,SW26*
X161061400Y-55448200D02*
X161061400Y-41478200D01*
X175031400Y-55448200D02*
X161061400Y-55448200D01*
X175031400Y-41478200D02*
X175031400Y-55448200D01*
X161061400Y-41478200D02*
X175031400Y-41478200D01*
G04 #@! TO.C,SW27*
X165785800Y-60528200D02*
X179755800Y-60528200D01*
X179755800Y-60528200D02*
X179755800Y-74498200D01*
X179755800Y-74498200D02*
X165785800Y-74498200D01*
X165785800Y-74498200D02*
X165785800Y-60528200D01*
G04 #@! TO.C,SW28*
X175387000Y-93522800D02*
X175387000Y-79552800D01*
X189357000Y-93522800D02*
X175387000Y-93522800D01*
X189357000Y-79552800D02*
X189357000Y-93522800D01*
X175387000Y-79552800D02*
X189357000Y-79552800D01*
G04 #@! TO.C,SW29*
X180060600Y-41402000D02*
X194030600Y-41402000D01*
X194030600Y-41402000D02*
X194030600Y-55372000D01*
X194030600Y-55372000D02*
X180060600Y-55372000D01*
X180060600Y-55372000D02*
X180060600Y-41402000D01*
G04 #@! TO.C,SW30*
X184861200Y-74472800D02*
X184861200Y-60502800D01*
X198831200Y-74472800D02*
X184861200Y-74472800D01*
X198831200Y-60502800D02*
X198831200Y-74472800D01*
X184861200Y-60502800D02*
X198831200Y-60502800D01*
G04 #@! TO.C,SW31*
X194411600Y-79527400D02*
X208381600Y-79527400D01*
X208381600Y-79527400D02*
X208381600Y-93497400D01*
X208381600Y-93497400D02*
X194411600Y-93497400D01*
X194411600Y-93497400D02*
X194411600Y-79527400D01*
G04 #@! TO.C,SW32*
X199136000Y-98552000D02*
X213106000Y-98552000D01*
X213106000Y-98552000D02*
X213106000Y-112522000D01*
X213106000Y-112522000D02*
X199136000Y-112522000D01*
X199136000Y-112522000D02*
X199136000Y-98552000D01*
G04 #@! TO.C,SW33*
X199136000Y-55397400D02*
X199136000Y-41427400D01*
X213106000Y-55397400D02*
X199136000Y-55397400D01*
X213106000Y-41427400D02*
X213106000Y-55397400D01*
X199136000Y-41427400D02*
X213106000Y-41427400D01*
G04 #@! TO.C,SW34*
X203911200Y-60452000D02*
X217881200Y-60452000D01*
X217881200Y-60452000D02*
X217881200Y-74422000D01*
X217881200Y-74422000D02*
X203911200Y-74422000D01*
X203911200Y-74422000D02*
X203911200Y-60452000D01*
G04 #@! TO.C,SW35*
X213436200Y-93472000D02*
X213436200Y-79502000D01*
X227406200Y-93472000D02*
X213436200Y-93472000D01*
X227406200Y-79502000D02*
X227406200Y-93472000D01*
X213436200Y-79502000D02*
X227406200Y-79502000D01*
G04 #@! TO.C,SW36*
X218135200Y-98602800D02*
X232105200Y-98602800D01*
X232105200Y-98602800D02*
X232105200Y-112572800D01*
X232105200Y-112572800D02*
X218135200Y-112572800D01*
X218135200Y-112572800D02*
X218135200Y-98602800D01*
G04 #@! TO.C,SW39*
X232511600Y-93548200D02*
X232511600Y-79578200D01*
X246481600Y-93548200D02*
X232511600Y-93548200D01*
X246481600Y-79578200D02*
X246481600Y-93548200D01*
X232511600Y-79578200D02*
X246481600Y-79578200D01*
G04 #@! TO.C,SW40*
X237261400Y-98602800D02*
X251231400Y-98602800D01*
X251231400Y-98602800D02*
X251231400Y-112572800D01*
X251231400Y-112572800D02*
X237261400Y-112572800D01*
X237261400Y-112572800D02*
X237261400Y-98602800D01*
G04 #@! TO.C,SW41*
X237236000Y-55422800D02*
X237236000Y-41452800D01*
X251206000Y-55422800D02*
X237236000Y-55422800D01*
X251206000Y-41452800D02*
X251206000Y-55422800D01*
X237236000Y-41452800D02*
X251206000Y-41452800D01*
G04 #@! TO.C,SW42*
X249148600Y-74447400D02*
X249148600Y-60477400D01*
X263118600Y-74447400D02*
X249148600Y-74447400D01*
X263118600Y-60477400D02*
X263118600Y-74447400D01*
X249148600Y-60477400D02*
X263118600Y-60477400D01*
G04 #@! TO.C,SW43*
X253898400Y-93472000D02*
X253898400Y-79502000D01*
X267868400Y-93472000D02*
X253898400Y-93472000D01*
X267868400Y-79502000D02*
X267868400Y-93472000D01*
X253898400Y-79502000D02*
X267868400Y-79502000D01*
G04 #@! TO.C,SW44*
X256362200Y-112547400D02*
X256362200Y-98577400D01*
X270332200Y-112547400D02*
X256362200Y-112547400D01*
X270332200Y-98577400D02*
X270332200Y-112547400D01*
X256362200Y-98577400D02*
X270332200Y-98577400D01*
G04 #@! TO.C,SW45*
X256311400Y-41452800D02*
X270281400Y-41452800D01*
X270281400Y-41452800D02*
X270281400Y-55422800D01*
X270281400Y-55422800D02*
X256311400Y-55422800D01*
X256311400Y-55422800D02*
X256311400Y-41452800D01*
D15*
G04 #@! TO.C,U1*
X56616600Y-38176200D02*
X56616600Y-20396200D01*
X56616600Y-20396200D02*
X26136600Y-20396200D01*
X26136600Y-20396200D02*
X26136600Y-25476200D01*
X26136600Y-25476200D02*
X23596600Y-25476200D01*
X23596600Y-25476200D02*
X23596600Y-33096200D01*
X23596600Y-33096200D02*
X26136600Y-33096200D01*
X26136600Y-33096200D02*
X26136600Y-38176200D01*
X26136600Y-38176200D02*
X56616600Y-38176200D01*
G04 #@! TO.C,SW2*
X33286866Y-98016961D02*
X33429723Y-98064580D01*
X33667819Y-98064580D01*
X33763057Y-98016961D01*
X33810676Y-97969342D01*
X33858295Y-97874104D01*
X33858295Y-97778866D01*
X33810676Y-97683628D01*
X33763057Y-97636009D01*
X33667819Y-97588390D01*
X33477342Y-97540771D01*
X33382104Y-97493152D01*
X33334485Y-97445533D01*
X33286866Y-97350295D01*
X33286866Y-97255057D01*
X33334485Y-97159819D01*
X33382104Y-97112200D01*
X33477342Y-97064580D01*
X33715438Y-97064580D01*
X33858295Y-97112200D01*
X34191628Y-97064580D02*
X34429723Y-98064580D01*
X34620200Y-97350295D01*
X34810676Y-98064580D01*
X35048771Y-97064580D01*
X35382104Y-97159819D02*
X35429723Y-97112200D01*
X35524961Y-97064580D01*
X35763057Y-97064580D01*
X35858295Y-97112200D01*
X35905914Y-97159819D01*
X35953533Y-97255057D01*
X35953533Y-97350295D01*
X35905914Y-97493152D01*
X35334485Y-98064580D01*
X35953533Y-98064580D01*
G04 #@! TO.C,D39*
X229065980Y-89123685D02*
X228065980Y-89123685D01*
X228065980Y-88885590D01*
X228113600Y-88742733D01*
X228208838Y-88647495D01*
X228304076Y-88599876D01*
X228494552Y-88552257D01*
X228637409Y-88552257D01*
X228827885Y-88599876D01*
X228923123Y-88647495D01*
X229018361Y-88742733D01*
X229065980Y-88885590D01*
X229065980Y-89123685D01*
X228065980Y-88218923D02*
X228065980Y-87599876D01*
X228446933Y-87933209D01*
X228446933Y-87790352D01*
X228494552Y-87695114D01*
X228542171Y-87647495D01*
X228637409Y-87599876D01*
X228875504Y-87599876D01*
X228970742Y-87647495D01*
X229018361Y-87695114D01*
X229065980Y-87790352D01*
X229065980Y-88076066D01*
X229018361Y-88171304D01*
X228970742Y-88218923D01*
X229065980Y-87123685D02*
X229065980Y-86933209D01*
X229018361Y-86837971D01*
X228970742Y-86790352D01*
X228827885Y-86695114D01*
X228637409Y-86647495D01*
X228256457Y-86647495D01*
X228161219Y-86695114D01*
X228113600Y-86742733D01*
X228065980Y-86837971D01*
X228065980Y-87028447D01*
X228113600Y-87123685D01*
X228161219Y-87171304D01*
X228256457Y-87218923D01*
X228494552Y-87218923D01*
X228589790Y-87171304D01*
X228637409Y-87123685D01*
X228685028Y-87028447D01*
X228685028Y-86837971D01*
X228637409Y-86742733D01*
X228589790Y-86695114D01*
X228494552Y-86647495D01*
X229385980Y-91981304D02*
X228385980Y-91981304D01*
X229385980Y-91409876D02*
X228814552Y-91838447D01*
X228385980Y-91409876D02*
X228957409Y-91981304D01*
G04 #@! TO.C,D43*
X250325780Y-88945885D02*
X249325780Y-88945885D01*
X249325780Y-88707790D01*
X249373400Y-88564933D01*
X249468638Y-88469695D01*
X249563876Y-88422076D01*
X249754352Y-88374457D01*
X249897209Y-88374457D01*
X250087685Y-88422076D01*
X250182923Y-88469695D01*
X250278161Y-88564933D01*
X250325780Y-88707790D01*
X250325780Y-88945885D01*
X249659114Y-87517314D02*
X250325780Y-87517314D01*
X249278161Y-87755409D02*
X249992447Y-87993504D01*
X249992447Y-87374457D01*
X249325780Y-87088742D02*
X249325780Y-86469695D01*
X249706733Y-86803028D01*
X249706733Y-86660171D01*
X249754352Y-86564933D01*
X249801971Y-86517314D01*
X249897209Y-86469695D01*
X250135304Y-86469695D01*
X250230542Y-86517314D01*
X250278161Y-86564933D01*
X250325780Y-86660171D01*
X250325780Y-86945885D01*
X250278161Y-87041123D01*
X250230542Y-87088742D01*
X250645780Y-91803504D02*
X249645780Y-91803504D01*
X250645780Y-91232076D02*
X250074352Y-91660647D01*
X249645780Y-91232076D02*
X250217209Y-91803504D01*
G04 #@! TO.C,D42*
X245245780Y-69972085D02*
X244245780Y-69972085D01*
X244245780Y-69733990D01*
X244293400Y-69591133D01*
X244388638Y-69495895D01*
X244483876Y-69448276D01*
X244674352Y-69400657D01*
X244817209Y-69400657D01*
X245007685Y-69448276D01*
X245102923Y-69495895D01*
X245198161Y-69591133D01*
X245245780Y-69733990D01*
X245245780Y-69972085D01*
X244579114Y-68543514D02*
X245245780Y-68543514D01*
X244198161Y-68781609D02*
X244912447Y-69019704D01*
X244912447Y-68400657D01*
X244341019Y-68067323D02*
X244293400Y-68019704D01*
X244245780Y-67924466D01*
X244245780Y-67686371D01*
X244293400Y-67591133D01*
X244341019Y-67543514D01*
X244436257Y-67495895D01*
X244531495Y-67495895D01*
X244674352Y-67543514D01*
X245245780Y-68114942D01*
X245245780Y-67495895D01*
X245565780Y-72829704D02*
X244565780Y-72829704D01*
X245565780Y-72258276D02*
X244994352Y-72686847D01*
X244565780Y-72258276D02*
X245137209Y-72829704D01*
G04 #@! TO.C,SW38*
X228136676Y-60018561D02*
X228279533Y-60066180D01*
X228517628Y-60066180D01*
X228612866Y-60018561D01*
X228660485Y-59970942D01*
X228708104Y-59875704D01*
X228708104Y-59780466D01*
X228660485Y-59685228D01*
X228612866Y-59637609D01*
X228517628Y-59589990D01*
X228327152Y-59542371D01*
X228231914Y-59494752D01*
X228184295Y-59447133D01*
X228136676Y-59351895D01*
X228136676Y-59256657D01*
X228184295Y-59161419D01*
X228231914Y-59113800D01*
X228327152Y-59066180D01*
X228565247Y-59066180D01*
X228708104Y-59113800D01*
X229041438Y-59066180D02*
X229279533Y-60066180D01*
X229470009Y-59351895D01*
X229660485Y-60066180D01*
X229898580Y-59066180D01*
X230184295Y-59066180D02*
X230803342Y-59066180D01*
X230470009Y-59447133D01*
X230612866Y-59447133D01*
X230708104Y-59494752D01*
X230755723Y-59542371D01*
X230803342Y-59637609D01*
X230803342Y-59875704D01*
X230755723Y-59970942D01*
X230708104Y-60018561D01*
X230612866Y-60066180D01*
X230327152Y-60066180D01*
X230231914Y-60018561D01*
X230184295Y-59970942D01*
X231374771Y-59494752D02*
X231279533Y-59447133D01*
X231231914Y-59399514D01*
X231184295Y-59304276D01*
X231184295Y-59256657D01*
X231231914Y-59161419D01*
X231279533Y-59113800D01*
X231374771Y-59066180D01*
X231565247Y-59066180D01*
X231660485Y-59113800D01*
X231708104Y-59161419D01*
X231755723Y-59256657D01*
X231755723Y-59304276D01*
X231708104Y-59399514D01*
X231660485Y-59447133D01*
X231565247Y-59494752D01*
X231374771Y-59494752D01*
X231279533Y-59542371D01*
X231231914Y-59589990D01*
X231184295Y-59685228D01*
X231184295Y-59875704D01*
X231231914Y-59970942D01*
X231279533Y-60018561D01*
X231374771Y-60066180D01*
X231565247Y-60066180D01*
X231660485Y-60018561D01*
X231708104Y-59970942D01*
X231755723Y-59875704D01*
X231755723Y-59685228D01*
X231708104Y-59589990D01*
X231660485Y-59542371D01*
X231565247Y-59494752D01*
G04 #@! TO.C,D38*
X219515580Y-69972085D02*
X218515580Y-69972085D01*
X218515580Y-69733990D01*
X218563200Y-69591133D01*
X218658438Y-69495895D01*
X218753676Y-69448276D01*
X218944152Y-69400657D01*
X219087009Y-69400657D01*
X219277485Y-69448276D01*
X219372723Y-69495895D01*
X219467961Y-69591133D01*
X219515580Y-69733990D01*
X219515580Y-69972085D01*
X218515580Y-69067323D02*
X218515580Y-68448276D01*
X218896533Y-68781609D01*
X218896533Y-68638752D01*
X218944152Y-68543514D01*
X218991771Y-68495895D01*
X219087009Y-68448276D01*
X219325104Y-68448276D01*
X219420342Y-68495895D01*
X219467961Y-68543514D01*
X219515580Y-68638752D01*
X219515580Y-68924466D01*
X219467961Y-69019704D01*
X219420342Y-69067323D01*
X218944152Y-67876847D02*
X218896533Y-67972085D01*
X218848914Y-68019704D01*
X218753676Y-68067323D01*
X218706057Y-68067323D01*
X218610819Y-68019704D01*
X218563200Y-67972085D01*
X218515580Y-67876847D01*
X218515580Y-67686371D01*
X218563200Y-67591133D01*
X218610819Y-67543514D01*
X218706057Y-67495895D01*
X218753676Y-67495895D01*
X218848914Y-67543514D01*
X218896533Y-67591133D01*
X218944152Y-67686371D01*
X218944152Y-67876847D01*
X218991771Y-67972085D01*
X219039390Y-68019704D01*
X219134628Y-68067323D01*
X219325104Y-68067323D01*
X219420342Y-68019704D01*
X219467961Y-67972085D01*
X219515580Y-67876847D01*
X219515580Y-67686371D01*
X219467961Y-67591133D01*
X219420342Y-67543514D01*
X219325104Y-67495895D01*
X219134628Y-67495895D01*
X219039390Y-67543514D01*
X218991771Y-67591133D01*
X218944152Y-67686371D01*
X219835580Y-72829704D02*
X218835580Y-72829704D01*
X219835580Y-72258276D02*
X219264152Y-72686847D01*
X218835580Y-72258276D02*
X219407009Y-72829704D01*
G04 #@! TO.C,SW37*
X223361476Y-40943161D02*
X223504333Y-40990780D01*
X223742428Y-40990780D01*
X223837666Y-40943161D01*
X223885285Y-40895542D01*
X223932904Y-40800304D01*
X223932904Y-40705066D01*
X223885285Y-40609828D01*
X223837666Y-40562209D01*
X223742428Y-40514590D01*
X223551952Y-40466971D01*
X223456714Y-40419352D01*
X223409095Y-40371733D01*
X223361476Y-40276495D01*
X223361476Y-40181257D01*
X223409095Y-40086019D01*
X223456714Y-40038400D01*
X223551952Y-39990780D01*
X223790047Y-39990780D01*
X223932904Y-40038400D01*
X224266238Y-39990780D02*
X224504333Y-40990780D01*
X224694809Y-40276495D01*
X224885285Y-40990780D01*
X225123380Y-39990780D01*
X225409095Y-39990780D02*
X226028142Y-39990780D01*
X225694809Y-40371733D01*
X225837666Y-40371733D01*
X225932904Y-40419352D01*
X225980523Y-40466971D01*
X226028142Y-40562209D01*
X226028142Y-40800304D01*
X225980523Y-40895542D01*
X225932904Y-40943161D01*
X225837666Y-40990780D01*
X225551952Y-40990780D01*
X225456714Y-40943161D01*
X225409095Y-40895542D01*
X226361476Y-39990780D02*
X227028142Y-39990780D01*
X226599571Y-40990780D01*
G04 #@! TO.C,D1*
X24519780Y-50699895D02*
X23519780Y-50699895D01*
X23519780Y-50461800D01*
X23567400Y-50318942D01*
X23662638Y-50223704D01*
X23757876Y-50176085D01*
X23948352Y-50128466D01*
X24091209Y-50128466D01*
X24281685Y-50176085D01*
X24376923Y-50223704D01*
X24472161Y-50318942D01*
X24519780Y-50461800D01*
X24519780Y-50699895D01*
X24519780Y-49176085D02*
X24519780Y-49747514D01*
X24519780Y-49461800D02*
X23519780Y-49461800D01*
X23662638Y-49557038D01*
X23757876Y-49652276D01*
X23805495Y-49747514D01*
X24839780Y-54033704D02*
X23839780Y-54033704D01*
X24839780Y-53462276D02*
X24268352Y-53890847D01*
X23839780Y-53462276D02*
X24411209Y-54033704D01*
G04 #@! TO.C,D2*
X24621380Y-107494295D02*
X23621380Y-107494295D01*
X23621380Y-107256200D01*
X23669000Y-107113342D01*
X23764238Y-107018104D01*
X23859476Y-106970485D01*
X24049952Y-106922866D01*
X24192809Y-106922866D01*
X24383285Y-106970485D01*
X24478523Y-107018104D01*
X24573761Y-107113342D01*
X24621380Y-107256200D01*
X24621380Y-107494295D01*
X23716619Y-106541914D02*
X23669000Y-106494295D01*
X23621380Y-106399057D01*
X23621380Y-106160961D01*
X23669000Y-106065723D01*
X23716619Y-106018104D01*
X23811857Y-105970485D01*
X23907095Y-105970485D01*
X24049952Y-106018104D01*
X24621380Y-106589533D01*
X24621380Y-105970485D01*
X24941380Y-110828104D02*
X23941380Y-110828104D01*
X24941380Y-110256676D02*
X24369952Y-110685247D01*
X23941380Y-110256676D02*
X24512809Y-110828104D01*
G04 #@! TO.C,D3*
X26551780Y-69419695D02*
X25551780Y-69419695D01*
X25551780Y-69181600D01*
X25599400Y-69038742D01*
X25694638Y-68943504D01*
X25789876Y-68895885D01*
X25980352Y-68848266D01*
X26123209Y-68848266D01*
X26313685Y-68895885D01*
X26408923Y-68943504D01*
X26504161Y-69038742D01*
X26551780Y-69181600D01*
X26551780Y-69419695D01*
X25551780Y-68514933D02*
X25551780Y-67895885D01*
X25932733Y-68229219D01*
X25932733Y-68086361D01*
X25980352Y-67991123D01*
X26027971Y-67943504D01*
X26123209Y-67895885D01*
X26361304Y-67895885D01*
X26456542Y-67943504D01*
X26504161Y-67991123D01*
X26551780Y-68086361D01*
X26551780Y-68372076D01*
X26504161Y-68467314D01*
X26456542Y-68514933D01*
X26871780Y-72753504D02*
X25871780Y-72753504D01*
X26871780Y-72182076D02*
X26300352Y-72610647D01*
X25871780Y-72182076D02*
X26443209Y-72753504D01*
G04 #@! TO.C,D4*
X31555580Y-88469695D02*
X30555580Y-88469695D01*
X30555580Y-88231600D01*
X30603200Y-88088742D01*
X30698438Y-87993504D01*
X30793676Y-87945885D01*
X30984152Y-87898266D01*
X31127009Y-87898266D01*
X31317485Y-87945885D01*
X31412723Y-87993504D01*
X31507961Y-88088742D01*
X31555580Y-88231600D01*
X31555580Y-88469695D01*
X30888914Y-87041123D02*
X31555580Y-87041123D01*
X30507961Y-87279219D02*
X31222247Y-87517314D01*
X31222247Y-86898266D01*
X31875580Y-91803504D02*
X30875580Y-91803504D01*
X31875580Y-91232076D02*
X31304152Y-91660647D01*
X30875580Y-91232076D02*
X31447009Y-91803504D01*
G04 #@! TO.C,D5*
X43264980Y-50471295D02*
X42264980Y-50471295D01*
X42264980Y-50233200D01*
X42312600Y-50090342D01*
X42407838Y-49995104D01*
X42503076Y-49947485D01*
X42693552Y-49899866D01*
X42836409Y-49899866D01*
X43026885Y-49947485D01*
X43122123Y-49995104D01*
X43217361Y-50090342D01*
X43264980Y-50233200D01*
X43264980Y-50471295D01*
X42264980Y-48995104D02*
X42264980Y-49471295D01*
X42741171Y-49518914D01*
X42693552Y-49471295D01*
X42645933Y-49376057D01*
X42645933Y-49137961D01*
X42693552Y-49042723D01*
X42741171Y-48995104D01*
X42836409Y-48947485D01*
X43074504Y-48947485D01*
X43169742Y-48995104D01*
X43217361Y-49042723D01*
X43264980Y-49137961D01*
X43264980Y-49376057D01*
X43217361Y-49471295D01*
X43169742Y-49518914D01*
X43584980Y-53805104D02*
X42584980Y-53805104D01*
X43584980Y-53233676D02*
X43013552Y-53662247D01*
X42584980Y-53233676D02*
X43156409Y-53805104D01*
G04 #@! TO.C,D6*
X43569780Y-107545095D02*
X42569780Y-107545095D01*
X42569780Y-107307000D01*
X42617400Y-107164142D01*
X42712638Y-107068904D01*
X42807876Y-107021285D01*
X42998352Y-106973666D01*
X43141209Y-106973666D01*
X43331685Y-107021285D01*
X43426923Y-107068904D01*
X43522161Y-107164142D01*
X43569780Y-107307000D01*
X43569780Y-107545095D01*
X42569780Y-106116523D02*
X42569780Y-106307000D01*
X42617400Y-106402238D01*
X42665019Y-106449857D01*
X42807876Y-106545095D01*
X42998352Y-106592714D01*
X43379304Y-106592714D01*
X43474542Y-106545095D01*
X43522161Y-106497476D01*
X43569780Y-106402238D01*
X43569780Y-106211761D01*
X43522161Y-106116523D01*
X43474542Y-106068904D01*
X43379304Y-106021285D01*
X43141209Y-106021285D01*
X43045971Y-106068904D01*
X42998352Y-106116523D01*
X42950733Y-106211761D01*
X42950733Y-106402238D01*
X42998352Y-106497476D01*
X43045971Y-106545095D01*
X43141209Y-106592714D01*
X43889780Y-110878904D02*
X42889780Y-110878904D01*
X43889780Y-110307476D02*
X43318352Y-110736047D01*
X42889780Y-110307476D02*
X43461209Y-110878904D01*
G04 #@! TO.C,D7*
X47862380Y-69394295D02*
X46862380Y-69394295D01*
X46862380Y-69156200D01*
X46910000Y-69013342D01*
X47005238Y-68918104D01*
X47100476Y-68870485D01*
X47290952Y-68822866D01*
X47433809Y-68822866D01*
X47624285Y-68870485D01*
X47719523Y-68918104D01*
X47814761Y-69013342D01*
X47862380Y-69156200D01*
X47862380Y-69394295D01*
X46862380Y-68489533D02*
X46862380Y-67822866D01*
X47862380Y-68251438D01*
X48182380Y-72728104D02*
X47182380Y-72728104D01*
X48182380Y-72156676D02*
X47610952Y-72585247D01*
X47182380Y-72156676D02*
X47753809Y-72728104D01*
G04 #@! TO.C,D8*
X57590580Y-88469695D02*
X56590580Y-88469695D01*
X56590580Y-88231600D01*
X56638200Y-88088742D01*
X56733438Y-87993504D01*
X56828676Y-87945885D01*
X57019152Y-87898266D01*
X57162009Y-87898266D01*
X57352485Y-87945885D01*
X57447723Y-87993504D01*
X57542961Y-88088742D01*
X57590580Y-88231600D01*
X57590580Y-88469695D01*
X57019152Y-87326838D02*
X56971533Y-87422076D01*
X56923914Y-87469695D01*
X56828676Y-87517314D01*
X56781057Y-87517314D01*
X56685819Y-87469695D01*
X56638200Y-87422076D01*
X56590580Y-87326838D01*
X56590580Y-87136361D01*
X56638200Y-87041123D01*
X56685819Y-86993504D01*
X56781057Y-86945885D01*
X56828676Y-86945885D01*
X56923914Y-86993504D01*
X56971533Y-87041123D01*
X57019152Y-87136361D01*
X57019152Y-87326838D01*
X57066771Y-87422076D01*
X57114390Y-87469695D01*
X57209628Y-87517314D01*
X57400104Y-87517314D01*
X57495342Y-87469695D01*
X57542961Y-87422076D01*
X57590580Y-87326838D01*
X57590580Y-87136361D01*
X57542961Y-87041123D01*
X57495342Y-86993504D01*
X57400104Y-86945885D01*
X57209628Y-86945885D01*
X57114390Y-86993504D01*
X57066771Y-87041123D01*
X57019152Y-87136361D01*
X57910580Y-91803504D02*
X56910580Y-91803504D01*
X57910580Y-91232076D02*
X57339152Y-91660647D01*
X56910580Y-91232076D02*
X57482009Y-91803504D01*
G04 #@! TO.C,D9*
X61832380Y-50395095D02*
X60832380Y-50395095D01*
X60832380Y-50157000D01*
X60880000Y-50014142D01*
X60975238Y-49918904D01*
X61070476Y-49871285D01*
X61260952Y-49823666D01*
X61403809Y-49823666D01*
X61594285Y-49871285D01*
X61689523Y-49918904D01*
X61784761Y-50014142D01*
X61832380Y-50157000D01*
X61832380Y-50395095D01*
X61832380Y-49347476D02*
X61832380Y-49157000D01*
X61784761Y-49061761D01*
X61737142Y-49014142D01*
X61594285Y-48918904D01*
X61403809Y-48871285D01*
X61022857Y-48871285D01*
X60927619Y-48918904D01*
X60880000Y-48966523D01*
X60832380Y-49061761D01*
X60832380Y-49252238D01*
X60880000Y-49347476D01*
X60927619Y-49395095D01*
X61022857Y-49442714D01*
X61260952Y-49442714D01*
X61356190Y-49395095D01*
X61403809Y-49347476D01*
X61451428Y-49252238D01*
X61451428Y-49061761D01*
X61403809Y-48966523D01*
X61356190Y-48918904D01*
X61260952Y-48871285D01*
X62152380Y-53728904D02*
X61152380Y-53728904D01*
X62152380Y-53157476D02*
X61580952Y-53586047D01*
X61152380Y-53157476D02*
X61723809Y-53728904D01*
G04 #@! TO.C,D10*
X62568980Y-108021285D02*
X61568980Y-108021285D01*
X61568980Y-107783190D01*
X61616600Y-107640333D01*
X61711838Y-107545095D01*
X61807076Y-107497476D01*
X61997552Y-107449857D01*
X62140409Y-107449857D01*
X62330885Y-107497476D01*
X62426123Y-107545095D01*
X62521361Y-107640333D01*
X62568980Y-107783190D01*
X62568980Y-108021285D01*
X62568980Y-106497476D02*
X62568980Y-107068904D01*
X62568980Y-106783190D02*
X61568980Y-106783190D01*
X61711838Y-106878428D01*
X61807076Y-106973666D01*
X61854695Y-107068904D01*
X61568980Y-105878428D02*
X61568980Y-105783190D01*
X61616600Y-105687952D01*
X61664219Y-105640333D01*
X61759457Y-105592714D01*
X61949933Y-105545095D01*
X62188028Y-105545095D01*
X62378504Y-105592714D01*
X62473742Y-105640333D01*
X62521361Y-105687952D01*
X62568980Y-105783190D01*
X62568980Y-105878428D01*
X62521361Y-105973666D01*
X62473742Y-106021285D01*
X62378504Y-106068904D01*
X62188028Y-106116523D01*
X61949933Y-106116523D01*
X61759457Y-106068904D01*
X61664219Y-106021285D01*
X61616600Y-105973666D01*
X61568980Y-105878428D01*
X62888980Y-110878904D02*
X61888980Y-110878904D01*
X62888980Y-110307476D02*
X62317552Y-110736047D01*
X61888980Y-110307476D02*
X62460409Y-110878904D01*
G04 #@! TO.C,D11*
X67013980Y-70200685D02*
X66013980Y-70200685D01*
X66013980Y-69962590D01*
X66061600Y-69819733D01*
X66156838Y-69724495D01*
X66252076Y-69676876D01*
X66442552Y-69629257D01*
X66585409Y-69629257D01*
X66775885Y-69676876D01*
X66871123Y-69724495D01*
X66966361Y-69819733D01*
X67013980Y-69962590D01*
X67013980Y-70200685D01*
X67013980Y-68676876D02*
X67013980Y-69248304D01*
X67013980Y-68962590D02*
X66013980Y-68962590D01*
X66156838Y-69057828D01*
X66252076Y-69153066D01*
X66299695Y-69248304D01*
X67013980Y-67724495D02*
X67013980Y-68295923D01*
X67013980Y-68010209D02*
X66013980Y-68010209D01*
X66156838Y-68105447D01*
X66252076Y-68200685D01*
X66299695Y-68295923D01*
X67333980Y-73058304D02*
X66333980Y-73058304D01*
X67333980Y-72486876D02*
X66762552Y-72915447D01*
X66333980Y-72486876D02*
X66905409Y-73058304D01*
G04 #@! TO.C,D12*
X76335780Y-89022085D02*
X75335780Y-89022085D01*
X75335780Y-88783990D01*
X75383400Y-88641133D01*
X75478638Y-88545895D01*
X75573876Y-88498276D01*
X75764352Y-88450657D01*
X75907209Y-88450657D01*
X76097685Y-88498276D01*
X76192923Y-88545895D01*
X76288161Y-88641133D01*
X76335780Y-88783990D01*
X76335780Y-89022085D01*
X76335780Y-87498276D02*
X76335780Y-88069704D01*
X76335780Y-87783990D02*
X75335780Y-87783990D01*
X75478638Y-87879228D01*
X75573876Y-87974466D01*
X75621495Y-88069704D01*
X75431019Y-87117323D02*
X75383400Y-87069704D01*
X75335780Y-86974466D01*
X75335780Y-86736371D01*
X75383400Y-86641133D01*
X75431019Y-86593514D01*
X75526257Y-86545895D01*
X75621495Y-86545895D01*
X75764352Y-86593514D01*
X76335780Y-87164942D01*
X76335780Y-86545895D01*
X76655780Y-91879704D02*
X75655780Y-91879704D01*
X76655780Y-91308276D02*
X76084352Y-91736847D01*
X75655780Y-91308276D02*
X76227209Y-91879704D01*
G04 #@! TO.C,D13*
X81060180Y-50871285D02*
X80060180Y-50871285D01*
X80060180Y-50633190D01*
X80107800Y-50490333D01*
X80203038Y-50395095D01*
X80298276Y-50347476D01*
X80488752Y-50299857D01*
X80631609Y-50299857D01*
X80822085Y-50347476D01*
X80917323Y-50395095D01*
X81012561Y-50490333D01*
X81060180Y-50633190D01*
X81060180Y-50871285D01*
X81060180Y-49347476D02*
X81060180Y-49918904D01*
X81060180Y-49633190D02*
X80060180Y-49633190D01*
X80203038Y-49728428D01*
X80298276Y-49823666D01*
X80345895Y-49918904D01*
X80060180Y-49014142D02*
X80060180Y-48395095D01*
X80441133Y-48728428D01*
X80441133Y-48585571D01*
X80488752Y-48490333D01*
X80536371Y-48442714D01*
X80631609Y-48395095D01*
X80869704Y-48395095D01*
X80964942Y-48442714D01*
X81012561Y-48490333D01*
X81060180Y-48585571D01*
X81060180Y-48871285D01*
X81012561Y-48966523D01*
X80964942Y-49014142D01*
X81380180Y-53728904D02*
X80380180Y-53728904D01*
X81380180Y-53157476D02*
X80808752Y-53586047D01*
X80380180Y-53157476D02*
X80951609Y-53728904D01*
G04 #@! TO.C,D14*
X86216380Y-69946685D02*
X85216380Y-69946685D01*
X85216380Y-69708590D01*
X85264000Y-69565733D01*
X85359238Y-69470495D01*
X85454476Y-69422876D01*
X85644952Y-69375257D01*
X85787809Y-69375257D01*
X85978285Y-69422876D01*
X86073523Y-69470495D01*
X86168761Y-69565733D01*
X86216380Y-69708590D01*
X86216380Y-69946685D01*
X86216380Y-68422876D02*
X86216380Y-68994304D01*
X86216380Y-68708590D02*
X85216380Y-68708590D01*
X85359238Y-68803828D01*
X85454476Y-68899066D01*
X85502095Y-68994304D01*
X85549714Y-67565733D02*
X86216380Y-67565733D01*
X85168761Y-67803828D02*
X85883047Y-68041923D01*
X85883047Y-67422876D01*
X86536380Y-72804304D02*
X85536380Y-72804304D01*
X86536380Y-72232876D02*
X85964952Y-72661447D01*
X85536380Y-72232876D02*
X86107809Y-72804304D01*
G04 #@! TO.C,D15*
X95969980Y-89047485D02*
X94969980Y-89047485D01*
X94969980Y-88809390D01*
X95017600Y-88666533D01*
X95112838Y-88571295D01*
X95208076Y-88523676D01*
X95398552Y-88476057D01*
X95541409Y-88476057D01*
X95731885Y-88523676D01*
X95827123Y-88571295D01*
X95922361Y-88666533D01*
X95969980Y-88809390D01*
X95969980Y-89047485D01*
X95969980Y-87523676D02*
X95969980Y-88095104D01*
X95969980Y-87809390D02*
X94969980Y-87809390D01*
X95112838Y-87904628D01*
X95208076Y-87999866D01*
X95255695Y-88095104D01*
X94969980Y-86618914D02*
X94969980Y-87095104D01*
X95446171Y-87142723D01*
X95398552Y-87095104D01*
X95350933Y-86999866D01*
X95350933Y-86761771D01*
X95398552Y-86666533D01*
X95446171Y-86618914D01*
X95541409Y-86571295D01*
X95779504Y-86571295D01*
X95874742Y-86618914D01*
X95922361Y-86666533D01*
X95969980Y-86761771D01*
X95969980Y-86999866D01*
X95922361Y-87095104D01*
X95874742Y-87142723D01*
X96289980Y-91905104D02*
X95289980Y-91905104D01*
X96289980Y-91333676D02*
X95718552Y-91762247D01*
X95289980Y-91333676D02*
X95861409Y-91905104D01*
G04 #@! TO.C,D16*
X100160980Y-50922085D02*
X99160980Y-50922085D01*
X99160980Y-50683990D01*
X99208600Y-50541133D01*
X99303838Y-50445895D01*
X99399076Y-50398276D01*
X99589552Y-50350657D01*
X99732409Y-50350657D01*
X99922885Y-50398276D01*
X100018123Y-50445895D01*
X100113361Y-50541133D01*
X100160980Y-50683990D01*
X100160980Y-50922085D01*
X100160980Y-49398276D02*
X100160980Y-49969704D01*
X100160980Y-49683990D02*
X99160980Y-49683990D01*
X99303838Y-49779228D01*
X99399076Y-49874466D01*
X99446695Y-49969704D01*
X99160980Y-48541133D02*
X99160980Y-48731609D01*
X99208600Y-48826847D01*
X99256219Y-48874466D01*
X99399076Y-48969704D01*
X99589552Y-49017323D01*
X99970504Y-49017323D01*
X100065742Y-48969704D01*
X100113361Y-48922085D01*
X100160980Y-48826847D01*
X100160980Y-48636371D01*
X100113361Y-48541133D01*
X100065742Y-48493514D01*
X99970504Y-48445895D01*
X99732409Y-48445895D01*
X99637171Y-48493514D01*
X99589552Y-48541133D01*
X99541933Y-48636371D01*
X99541933Y-48826847D01*
X99589552Y-48922085D01*
X99637171Y-48969704D01*
X99732409Y-49017323D01*
X100480980Y-53779704D02*
X99480980Y-53779704D01*
X100480980Y-53208276D02*
X99909552Y-53636847D01*
X99480980Y-53208276D02*
X100052409Y-53779704D01*
G04 #@! TO.C,D17*
X105037780Y-69997485D02*
X104037780Y-69997485D01*
X104037780Y-69759390D01*
X104085400Y-69616533D01*
X104180638Y-69521295D01*
X104275876Y-69473676D01*
X104466352Y-69426057D01*
X104609209Y-69426057D01*
X104799685Y-69473676D01*
X104894923Y-69521295D01*
X104990161Y-69616533D01*
X105037780Y-69759390D01*
X105037780Y-69997485D01*
X105037780Y-68473676D02*
X105037780Y-69045104D01*
X105037780Y-68759390D02*
X104037780Y-68759390D01*
X104180638Y-68854628D01*
X104275876Y-68949866D01*
X104323495Y-69045104D01*
X104037780Y-68140342D02*
X104037780Y-67473676D01*
X105037780Y-67902247D01*
X105357780Y-72855104D02*
X104357780Y-72855104D01*
X105357780Y-72283676D02*
X104786352Y-72712247D01*
X104357780Y-72283676D02*
X104929209Y-72855104D01*
G04 #@! TO.C,D18*
X114969180Y-89276085D02*
X113969180Y-89276085D01*
X113969180Y-89037990D01*
X114016800Y-88895133D01*
X114112038Y-88799895D01*
X114207276Y-88752276D01*
X114397752Y-88704657D01*
X114540609Y-88704657D01*
X114731085Y-88752276D01*
X114826323Y-88799895D01*
X114921561Y-88895133D01*
X114969180Y-89037990D01*
X114969180Y-89276085D01*
X114969180Y-87752276D02*
X114969180Y-88323704D01*
X114969180Y-88037990D02*
X113969180Y-88037990D01*
X114112038Y-88133228D01*
X114207276Y-88228466D01*
X114254895Y-88323704D01*
X114397752Y-87180847D02*
X114350133Y-87276085D01*
X114302514Y-87323704D01*
X114207276Y-87371323D01*
X114159657Y-87371323D01*
X114064419Y-87323704D01*
X114016800Y-87276085D01*
X113969180Y-87180847D01*
X113969180Y-86990371D01*
X114016800Y-86895133D01*
X114064419Y-86847514D01*
X114159657Y-86799895D01*
X114207276Y-86799895D01*
X114302514Y-86847514D01*
X114350133Y-86895133D01*
X114397752Y-86990371D01*
X114397752Y-87180847D01*
X114445371Y-87276085D01*
X114492990Y-87323704D01*
X114588228Y-87371323D01*
X114778704Y-87371323D01*
X114873942Y-87323704D01*
X114921561Y-87276085D01*
X114969180Y-87180847D01*
X114969180Y-86990371D01*
X114921561Y-86895133D01*
X114873942Y-86847514D01*
X114778704Y-86799895D01*
X114588228Y-86799895D01*
X114492990Y-86847514D01*
X114445371Y-86895133D01*
X114397752Y-86990371D01*
X115289180Y-92133704D02*
X114289180Y-92133704D01*
X115289180Y-91562276D02*
X114717752Y-91990847D01*
X114289180Y-91562276D02*
X114860609Y-92133704D01*
G04 #@! TO.C,D19*
X119337980Y-50896685D02*
X118337980Y-50896685D01*
X118337980Y-50658590D01*
X118385600Y-50515733D01*
X118480838Y-50420495D01*
X118576076Y-50372876D01*
X118766552Y-50325257D01*
X118909409Y-50325257D01*
X119099885Y-50372876D01*
X119195123Y-50420495D01*
X119290361Y-50515733D01*
X119337980Y-50658590D01*
X119337980Y-50896685D01*
X119337980Y-49372876D02*
X119337980Y-49944304D01*
X119337980Y-49658590D02*
X118337980Y-49658590D01*
X118480838Y-49753828D01*
X118576076Y-49849066D01*
X118623695Y-49944304D01*
X119337980Y-48896685D02*
X119337980Y-48706209D01*
X119290361Y-48610971D01*
X119242742Y-48563352D01*
X119099885Y-48468114D01*
X118909409Y-48420495D01*
X118528457Y-48420495D01*
X118433219Y-48468114D01*
X118385600Y-48515733D01*
X118337980Y-48610971D01*
X118337980Y-48801447D01*
X118385600Y-48896685D01*
X118433219Y-48944304D01*
X118528457Y-48991923D01*
X118766552Y-48991923D01*
X118861790Y-48944304D01*
X118909409Y-48896685D01*
X118957028Y-48801447D01*
X118957028Y-48610971D01*
X118909409Y-48515733D01*
X118861790Y-48468114D01*
X118766552Y-48420495D01*
X119657980Y-53754304D02*
X118657980Y-53754304D01*
X119657980Y-53182876D02*
X119086552Y-53611447D01*
X118657980Y-53182876D02*
X119229409Y-53754304D01*
G04 #@! TO.C,D20*
X124265580Y-70022885D02*
X123265580Y-70022885D01*
X123265580Y-69784790D01*
X123313200Y-69641933D01*
X123408438Y-69546695D01*
X123503676Y-69499076D01*
X123694152Y-69451457D01*
X123837009Y-69451457D01*
X124027485Y-69499076D01*
X124122723Y-69546695D01*
X124217961Y-69641933D01*
X124265580Y-69784790D01*
X124265580Y-70022885D01*
X123360819Y-69070504D02*
X123313200Y-69022885D01*
X123265580Y-68927647D01*
X123265580Y-68689552D01*
X123313200Y-68594314D01*
X123360819Y-68546695D01*
X123456057Y-68499076D01*
X123551295Y-68499076D01*
X123694152Y-68546695D01*
X124265580Y-69118123D01*
X124265580Y-68499076D01*
X123265580Y-67880028D02*
X123265580Y-67784790D01*
X123313200Y-67689552D01*
X123360819Y-67641933D01*
X123456057Y-67594314D01*
X123646533Y-67546695D01*
X123884628Y-67546695D01*
X124075104Y-67594314D01*
X124170342Y-67641933D01*
X124217961Y-67689552D01*
X124265580Y-67784790D01*
X124265580Y-67880028D01*
X124217961Y-67975266D01*
X124170342Y-68022885D01*
X124075104Y-68070504D01*
X123884628Y-68118123D01*
X123646533Y-68118123D01*
X123456057Y-68070504D01*
X123360819Y-68022885D01*
X123313200Y-67975266D01*
X123265580Y-67880028D01*
X124585580Y-72880504D02*
X123585580Y-72880504D01*
X124585580Y-72309076D02*
X124014152Y-72737647D01*
X123585580Y-72309076D02*
X124157009Y-72880504D01*
G04 #@! TO.C,D21*
X133841380Y-89098285D02*
X132841380Y-89098285D01*
X132841380Y-88860190D01*
X132889000Y-88717333D01*
X132984238Y-88622095D01*
X133079476Y-88574476D01*
X133269952Y-88526857D01*
X133412809Y-88526857D01*
X133603285Y-88574476D01*
X133698523Y-88622095D01*
X133793761Y-88717333D01*
X133841380Y-88860190D01*
X133841380Y-89098285D01*
X132936619Y-88145904D02*
X132889000Y-88098285D01*
X132841380Y-88003047D01*
X132841380Y-87764952D01*
X132889000Y-87669714D01*
X132936619Y-87622095D01*
X133031857Y-87574476D01*
X133127095Y-87574476D01*
X133269952Y-87622095D01*
X133841380Y-88193523D01*
X133841380Y-87574476D01*
X133841380Y-86622095D02*
X133841380Y-87193523D01*
X133841380Y-86907809D02*
X132841380Y-86907809D01*
X132984238Y-87003047D01*
X133079476Y-87098285D01*
X133127095Y-87193523D01*
X134161380Y-91955904D02*
X133161380Y-91955904D01*
X134161380Y-91384476D02*
X133589952Y-91813047D01*
X133161380Y-91384476D02*
X133732809Y-91955904D01*
G04 #@! TO.C,D22*
X138819780Y-108097485D02*
X137819780Y-108097485D01*
X137819780Y-107859390D01*
X137867400Y-107716533D01*
X137962638Y-107621295D01*
X138057876Y-107573676D01*
X138248352Y-107526057D01*
X138391209Y-107526057D01*
X138581685Y-107573676D01*
X138676923Y-107621295D01*
X138772161Y-107716533D01*
X138819780Y-107859390D01*
X138819780Y-108097485D01*
X137915019Y-107145104D02*
X137867400Y-107097485D01*
X137819780Y-107002247D01*
X137819780Y-106764152D01*
X137867400Y-106668914D01*
X137915019Y-106621295D01*
X138010257Y-106573676D01*
X138105495Y-106573676D01*
X138248352Y-106621295D01*
X138819780Y-107192723D01*
X138819780Y-106573676D01*
X137915019Y-106192723D02*
X137867400Y-106145104D01*
X137819780Y-106049866D01*
X137819780Y-105811771D01*
X137867400Y-105716533D01*
X137915019Y-105668914D01*
X138010257Y-105621295D01*
X138105495Y-105621295D01*
X138248352Y-105668914D01*
X138819780Y-106240342D01*
X138819780Y-105621295D01*
X139139780Y-110955104D02*
X138139780Y-110955104D01*
X139139780Y-110383676D02*
X138568352Y-110812247D01*
X138139780Y-110383676D02*
X138711209Y-110955104D01*
G04 #@! TO.C,D23*
X138362580Y-50998285D02*
X137362580Y-50998285D01*
X137362580Y-50760190D01*
X137410200Y-50617333D01*
X137505438Y-50522095D01*
X137600676Y-50474476D01*
X137791152Y-50426857D01*
X137934009Y-50426857D01*
X138124485Y-50474476D01*
X138219723Y-50522095D01*
X138314961Y-50617333D01*
X138362580Y-50760190D01*
X138362580Y-50998285D01*
X137457819Y-50045904D02*
X137410200Y-49998285D01*
X137362580Y-49903047D01*
X137362580Y-49664952D01*
X137410200Y-49569714D01*
X137457819Y-49522095D01*
X137553057Y-49474476D01*
X137648295Y-49474476D01*
X137791152Y-49522095D01*
X138362580Y-50093523D01*
X138362580Y-49474476D01*
X137362580Y-49141142D02*
X137362580Y-48522095D01*
X137743533Y-48855428D01*
X137743533Y-48712571D01*
X137791152Y-48617333D01*
X137838771Y-48569714D01*
X137934009Y-48522095D01*
X138172104Y-48522095D01*
X138267342Y-48569714D01*
X138314961Y-48617333D01*
X138362580Y-48712571D01*
X138362580Y-48998285D01*
X138314961Y-49093523D01*
X138267342Y-49141142D01*
X138682580Y-53855904D02*
X137682580Y-53855904D01*
X138682580Y-53284476D02*
X138111152Y-53713047D01*
X137682580Y-53284476D02*
X138254009Y-53855904D01*
G04 #@! TO.C,D24*
X143188580Y-69997485D02*
X142188580Y-69997485D01*
X142188580Y-69759390D01*
X142236200Y-69616533D01*
X142331438Y-69521295D01*
X142426676Y-69473676D01*
X142617152Y-69426057D01*
X142760009Y-69426057D01*
X142950485Y-69473676D01*
X143045723Y-69521295D01*
X143140961Y-69616533D01*
X143188580Y-69759390D01*
X143188580Y-69997485D01*
X142283819Y-69045104D02*
X142236200Y-68997485D01*
X142188580Y-68902247D01*
X142188580Y-68664152D01*
X142236200Y-68568914D01*
X142283819Y-68521295D01*
X142379057Y-68473676D01*
X142474295Y-68473676D01*
X142617152Y-68521295D01*
X143188580Y-69092723D01*
X143188580Y-68473676D01*
X142521914Y-67616533D02*
X143188580Y-67616533D01*
X142140961Y-67854628D02*
X142855247Y-68092723D01*
X142855247Y-67473676D01*
X143508580Y-72855104D02*
X142508580Y-72855104D01*
X143508580Y-72283676D02*
X142937152Y-72712247D01*
X142508580Y-72283676D02*
X143080009Y-72855104D01*
G04 #@! TO.C,D25*
X152637380Y-89022085D02*
X151637380Y-89022085D01*
X151637380Y-88783990D01*
X151685000Y-88641133D01*
X151780238Y-88545895D01*
X151875476Y-88498276D01*
X152065952Y-88450657D01*
X152208809Y-88450657D01*
X152399285Y-88498276D01*
X152494523Y-88545895D01*
X152589761Y-88641133D01*
X152637380Y-88783990D01*
X152637380Y-89022085D01*
X151732619Y-88069704D02*
X151685000Y-88022085D01*
X151637380Y-87926847D01*
X151637380Y-87688752D01*
X151685000Y-87593514D01*
X151732619Y-87545895D01*
X151827857Y-87498276D01*
X151923095Y-87498276D01*
X152065952Y-87545895D01*
X152637380Y-88117323D01*
X152637380Y-87498276D01*
X151637380Y-86593514D02*
X151637380Y-87069704D01*
X152113571Y-87117323D01*
X152065952Y-87069704D01*
X152018333Y-86974466D01*
X152018333Y-86736371D01*
X152065952Y-86641133D01*
X152113571Y-86593514D01*
X152208809Y-86545895D01*
X152446904Y-86545895D01*
X152542142Y-86593514D01*
X152589761Y-86641133D01*
X152637380Y-86736371D01*
X152637380Y-86974466D01*
X152589761Y-87069704D01*
X152542142Y-87117323D01*
X152957380Y-91879704D02*
X151957380Y-91879704D01*
X152957380Y-91308276D02*
X152385952Y-91736847D01*
X151957380Y-91308276D02*
X152528809Y-91879704D01*
G04 #@! TO.C,D26*
X157564980Y-50922085D02*
X156564980Y-50922085D01*
X156564980Y-50683990D01*
X156612600Y-50541133D01*
X156707838Y-50445895D01*
X156803076Y-50398276D01*
X156993552Y-50350657D01*
X157136409Y-50350657D01*
X157326885Y-50398276D01*
X157422123Y-50445895D01*
X157517361Y-50541133D01*
X157564980Y-50683990D01*
X157564980Y-50922085D01*
X156660219Y-49969704D02*
X156612600Y-49922085D01*
X156564980Y-49826847D01*
X156564980Y-49588752D01*
X156612600Y-49493514D01*
X156660219Y-49445895D01*
X156755457Y-49398276D01*
X156850695Y-49398276D01*
X156993552Y-49445895D01*
X157564980Y-50017323D01*
X157564980Y-49398276D01*
X156564980Y-48541133D02*
X156564980Y-48731609D01*
X156612600Y-48826847D01*
X156660219Y-48874466D01*
X156803076Y-48969704D01*
X156993552Y-49017323D01*
X157374504Y-49017323D01*
X157469742Y-48969704D01*
X157517361Y-48922085D01*
X157564980Y-48826847D01*
X157564980Y-48636371D01*
X157517361Y-48541133D01*
X157469742Y-48493514D01*
X157374504Y-48445895D01*
X157136409Y-48445895D01*
X157041171Y-48493514D01*
X156993552Y-48541133D01*
X156945933Y-48636371D01*
X156945933Y-48826847D01*
X156993552Y-48922085D01*
X157041171Y-48969704D01*
X157136409Y-49017323D01*
X157884980Y-53779704D02*
X156884980Y-53779704D01*
X157884980Y-53208276D02*
X157313552Y-53636847D01*
X156884980Y-53208276D02*
X157456409Y-53779704D01*
G04 #@! TO.C,D27*
X162263980Y-70022885D02*
X161263980Y-70022885D01*
X161263980Y-69784790D01*
X161311600Y-69641933D01*
X161406838Y-69546695D01*
X161502076Y-69499076D01*
X161692552Y-69451457D01*
X161835409Y-69451457D01*
X162025885Y-69499076D01*
X162121123Y-69546695D01*
X162216361Y-69641933D01*
X162263980Y-69784790D01*
X162263980Y-70022885D01*
X161359219Y-69070504D02*
X161311600Y-69022885D01*
X161263980Y-68927647D01*
X161263980Y-68689552D01*
X161311600Y-68594314D01*
X161359219Y-68546695D01*
X161454457Y-68499076D01*
X161549695Y-68499076D01*
X161692552Y-68546695D01*
X162263980Y-69118123D01*
X162263980Y-68499076D01*
X161263980Y-68165742D02*
X161263980Y-67499076D01*
X162263980Y-67927647D01*
X162583980Y-72880504D02*
X161583980Y-72880504D01*
X162583980Y-72309076D02*
X162012552Y-72737647D01*
X161583980Y-72309076D02*
X162155409Y-72880504D01*
G04 #@! TO.C,D28*
X171839780Y-89098285D02*
X170839780Y-89098285D01*
X170839780Y-88860190D01*
X170887400Y-88717333D01*
X170982638Y-88622095D01*
X171077876Y-88574476D01*
X171268352Y-88526857D01*
X171411209Y-88526857D01*
X171601685Y-88574476D01*
X171696923Y-88622095D01*
X171792161Y-88717333D01*
X171839780Y-88860190D01*
X171839780Y-89098285D01*
X170935019Y-88145904D02*
X170887400Y-88098285D01*
X170839780Y-88003047D01*
X170839780Y-87764952D01*
X170887400Y-87669714D01*
X170935019Y-87622095D01*
X171030257Y-87574476D01*
X171125495Y-87574476D01*
X171268352Y-87622095D01*
X171839780Y-88193523D01*
X171839780Y-87574476D01*
X171268352Y-87003047D02*
X171220733Y-87098285D01*
X171173114Y-87145904D01*
X171077876Y-87193523D01*
X171030257Y-87193523D01*
X170935019Y-87145904D01*
X170887400Y-87098285D01*
X170839780Y-87003047D01*
X170839780Y-86812571D01*
X170887400Y-86717333D01*
X170935019Y-86669714D01*
X171030257Y-86622095D01*
X171077876Y-86622095D01*
X171173114Y-86669714D01*
X171220733Y-86717333D01*
X171268352Y-86812571D01*
X171268352Y-87003047D01*
X171315971Y-87098285D01*
X171363590Y-87145904D01*
X171458828Y-87193523D01*
X171649304Y-87193523D01*
X171744542Y-87145904D01*
X171792161Y-87098285D01*
X171839780Y-87003047D01*
X171839780Y-86812571D01*
X171792161Y-86717333D01*
X171744542Y-86669714D01*
X171649304Y-86622095D01*
X171458828Y-86622095D01*
X171363590Y-86669714D01*
X171315971Y-86717333D01*
X171268352Y-86812571D01*
X172159780Y-91955904D02*
X171159780Y-91955904D01*
X172159780Y-91384476D02*
X171588352Y-91813047D01*
X171159780Y-91384476D02*
X171731209Y-91955904D01*
G04 #@! TO.C,D29*
X176792780Y-50896685D02*
X175792780Y-50896685D01*
X175792780Y-50658590D01*
X175840400Y-50515733D01*
X175935638Y-50420495D01*
X176030876Y-50372876D01*
X176221352Y-50325257D01*
X176364209Y-50325257D01*
X176554685Y-50372876D01*
X176649923Y-50420495D01*
X176745161Y-50515733D01*
X176792780Y-50658590D01*
X176792780Y-50896685D01*
X175888019Y-49944304D02*
X175840400Y-49896685D01*
X175792780Y-49801447D01*
X175792780Y-49563352D01*
X175840400Y-49468114D01*
X175888019Y-49420495D01*
X175983257Y-49372876D01*
X176078495Y-49372876D01*
X176221352Y-49420495D01*
X176792780Y-49991923D01*
X176792780Y-49372876D01*
X176792780Y-48896685D02*
X176792780Y-48706209D01*
X176745161Y-48610971D01*
X176697542Y-48563352D01*
X176554685Y-48468114D01*
X176364209Y-48420495D01*
X175983257Y-48420495D01*
X175888019Y-48468114D01*
X175840400Y-48515733D01*
X175792780Y-48610971D01*
X175792780Y-48801447D01*
X175840400Y-48896685D01*
X175888019Y-48944304D01*
X175983257Y-48991923D01*
X176221352Y-48991923D01*
X176316590Y-48944304D01*
X176364209Y-48896685D01*
X176411828Y-48801447D01*
X176411828Y-48610971D01*
X176364209Y-48515733D01*
X176316590Y-48468114D01*
X176221352Y-48420495D01*
X177112780Y-53754304D02*
X176112780Y-53754304D01*
X177112780Y-53182876D02*
X176541352Y-53611447D01*
X176112780Y-53182876D02*
X176684209Y-53754304D01*
G04 #@! TO.C,D30*
X181720380Y-70022885D02*
X180720380Y-70022885D01*
X180720380Y-69784790D01*
X180768000Y-69641933D01*
X180863238Y-69546695D01*
X180958476Y-69499076D01*
X181148952Y-69451457D01*
X181291809Y-69451457D01*
X181482285Y-69499076D01*
X181577523Y-69546695D01*
X181672761Y-69641933D01*
X181720380Y-69784790D01*
X181720380Y-70022885D01*
X180720380Y-69118123D02*
X180720380Y-68499076D01*
X181101333Y-68832409D01*
X181101333Y-68689552D01*
X181148952Y-68594314D01*
X181196571Y-68546695D01*
X181291809Y-68499076D01*
X181529904Y-68499076D01*
X181625142Y-68546695D01*
X181672761Y-68594314D01*
X181720380Y-68689552D01*
X181720380Y-68975266D01*
X181672761Y-69070504D01*
X181625142Y-69118123D01*
X180720380Y-67880028D02*
X180720380Y-67784790D01*
X180768000Y-67689552D01*
X180815619Y-67641933D01*
X180910857Y-67594314D01*
X181101333Y-67546695D01*
X181339428Y-67546695D01*
X181529904Y-67594314D01*
X181625142Y-67641933D01*
X181672761Y-67689552D01*
X181720380Y-67784790D01*
X181720380Y-67880028D01*
X181672761Y-67975266D01*
X181625142Y-68022885D01*
X181529904Y-68070504D01*
X181339428Y-68118123D01*
X181101333Y-68118123D01*
X180910857Y-68070504D01*
X180815619Y-68022885D01*
X180768000Y-67975266D01*
X180720380Y-67880028D01*
X182040380Y-72880504D02*
X181040380Y-72880504D01*
X182040380Y-72309076D02*
X181468952Y-72737647D01*
X181040380Y-72309076D02*
X181611809Y-72880504D01*
G04 #@! TO.C,D31*
X190737380Y-89276085D02*
X189737380Y-89276085D01*
X189737380Y-89037990D01*
X189785000Y-88895133D01*
X189880238Y-88799895D01*
X189975476Y-88752276D01*
X190165952Y-88704657D01*
X190308809Y-88704657D01*
X190499285Y-88752276D01*
X190594523Y-88799895D01*
X190689761Y-88895133D01*
X190737380Y-89037990D01*
X190737380Y-89276085D01*
X189737380Y-88371323D02*
X189737380Y-87752276D01*
X190118333Y-88085609D01*
X190118333Y-87942752D01*
X190165952Y-87847514D01*
X190213571Y-87799895D01*
X190308809Y-87752276D01*
X190546904Y-87752276D01*
X190642142Y-87799895D01*
X190689761Y-87847514D01*
X190737380Y-87942752D01*
X190737380Y-88228466D01*
X190689761Y-88323704D01*
X190642142Y-88371323D01*
X190737380Y-86799895D02*
X190737380Y-87371323D01*
X190737380Y-87085609D02*
X189737380Y-87085609D01*
X189880238Y-87180847D01*
X189975476Y-87276085D01*
X190023095Y-87371323D01*
X191057380Y-92133704D02*
X190057380Y-92133704D01*
X191057380Y-91562276D02*
X190485952Y-91990847D01*
X190057380Y-91562276D02*
X190628809Y-92133704D01*
G04 #@! TO.C,D32*
X195461780Y-108021285D02*
X194461780Y-108021285D01*
X194461780Y-107783190D01*
X194509400Y-107640333D01*
X194604638Y-107545095D01*
X194699876Y-107497476D01*
X194890352Y-107449857D01*
X195033209Y-107449857D01*
X195223685Y-107497476D01*
X195318923Y-107545095D01*
X195414161Y-107640333D01*
X195461780Y-107783190D01*
X195461780Y-108021285D01*
X194461780Y-107116523D02*
X194461780Y-106497476D01*
X194842733Y-106830809D01*
X194842733Y-106687952D01*
X194890352Y-106592714D01*
X194937971Y-106545095D01*
X195033209Y-106497476D01*
X195271304Y-106497476D01*
X195366542Y-106545095D01*
X195414161Y-106592714D01*
X195461780Y-106687952D01*
X195461780Y-106973666D01*
X195414161Y-107068904D01*
X195366542Y-107116523D01*
X194557019Y-106116523D02*
X194509400Y-106068904D01*
X194461780Y-105973666D01*
X194461780Y-105735571D01*
X194509400Y-105640333D01*
X194557019Y-105592714D01*
X194652257Y-105545095D01*
X194747495Y-105545095D01*
X194890352Y-105592714D01*
X195461780Y-106164142D01*
X195461780Y-105545095D01*
X195781780Y-110878904D02*
X194781780Y-110878904D01*
X195781780Y-110307476D02*
X195210352Y-110736047D01*
X194781780Y-110307476D02*
X195353209Y-110878904D01*
G04 #@! TO.C,D33*
X195817380Y-50947485D02*
X194817380Y-50947485D01*
X194817380Y-50709390D01*
X194865000Y-50566533D01*
X194960238Y-50471295D01*
X195055476Y-50423676D01*
X195245952Y-50376057D01*
X195388809Y-50376057D01*
X195579285Y-50423676D01*
X195674523Y-50471295D01*
X195769761Y-50566533D01*
X195817380Y-50709390D01*
X195817380Y-50947485D01*
X194817380Y-50042723D02*
X194817380Y-49423676D01*
X195198333Y-49757009D01*
X195198333Y-49614152D01*
X195245952Y-49518914D01*
X195293571Y-49471295D01*
X195388809Y-49423676D01*
X195626904Y-49423676D01*
X195722142Y-49471295D01*
X195769761Y-49518914D01*
X195817380Y-49614152D01*
X195817380Y-49899866D01*
X195769761Y-49995104D01*
X195722142Y-50042723D01*
X194817380Y-49090342D02*
X194817380Y-48471295D01*
X195198333Y-48804628D01*
X195198333Y-48661771D01*
X195245952Y-48566533D01*
X195293571Y-48518914D01*
X195388809Y-48471295D01*
X195626904Y-48471295D01*
X195722142Y-48518914D01*
X195769761Y-48566533D01*
X195817380Y-48661771D01*
X195817380Y-48947485D01*
X195769761Y-49042723D01*
X195722142Y-49090342D01*
X196137380Y-53805104D02*
X195137380Y-53805104D01*
X196137380Y-53233676D02*
X195565952Y-53662247D01*
X195137380Y-53233676D02*
X195708809Y-53805104D01*
G04 #@! TO.C,D34*
X200541780Y-70022885D02*
X199541780Y-70022885D01*
X199541780Y-69784790D01*
X199589400Y-69641933D01*
X199684638Y-69546695D01*
X199779876Y-69499076D01*
X199970352Y-69451457D01*
X200113209Y-69451457D01*
X200303685Y-69499076D01*
X200398923Y-69546695D01*
X200494161Y-69641933D01*
X200541780Y-69784790D01*
X200541780Y-70022885D01*
X199541780Y-69118123D02*
X199541780Y-68499076D01*
X199922733Y-68832409D01*
X199922733Y-68689552D01*
X199970352Y-68594314D01*
X200017971Y-68546695D01*
X200113209Y-68499076D01*
X200351304Y-68499076D01*
X200446542Y-68546695D01*
X200494161Y-68594314D01*
X200541780Y-68689552D01*
X200541780Y-68975266D01*
X200494161Y-69070504D01*
X200446542Y-69118123D01*
X199875114Y-67641933D02*
X200541780Y-67641933D01*
X199494161Y-67880028D02*
X200208447Y-68118123D01*
X200208447Y-67499076D01*
X200861780Y-72880504D02*
X199861780Y-72880504D01*
X200861780Y-72309076D02*
X200290352Y-72737647D01*
X199861780Y-72309076D02*
X200433209Y-72880504D01*
G04 #@! TO.C,D35*
X210092180Y-88996685D02*
X209092180Y-88996685D01*
X209092180Y-88758590D01*
X209139800Y-88615733D01*
X209235038Y-88520495D01*
X209330276Y-88472876D01*
X209520752Y-88425257D01*
X209663609Y-88425257D01*
X209854085Y-88472876D01*
X209949323Y-88520495D01*
X210044561Y-88615733D01*
X210092180Y-88758590D01*
X210092180Y-88996685D01*
X209092180Y-88091923D02*
X209092180Y-87472876D01*
X209473133Y-87806209D01*
X209473133Y-87663352D01*
X209520752Y-87568114D01*
X209568371Y-87520495D01*
X209663609Y-87472876D01*
X209901704Y-87472876D01*
X209996942Y-87520495D01*
X210044561Y-87568114D01*
X210092180Y-87663352D01*
X210092180Y-87949066D01*
X210044561Y-88044304D01*
X209996942Y-88091923D01*
X209092180Y-86568114D02*
X209092180Y-87044304D01*
X209568371Y-87091923D01*
X209520752Y-87044304D01*
X209473133Y-86949066D01*
X209473133Y-86710971D01*
X209520752Y-86615733D01*
X209568371Y-86568114D01*
X209663609Y-86520495D01*
X209901704Y-86520495D01*
X209996942Y-86568114D01*
X210044561Y-86615733D01*
X210092180Y-86710971D01*
X210092180Y-86949066D01*
X210044561Y-87044304D01*
X209996942Y-87091923D01*
X210412180Y-91854304D02*
X209412180Y-91854304D01*
X210412180Y-91282876D02*
X209840752Y-91711447D01*
X209412180Y-91282876D02*
X209983609Y-91854304D01*
G04 #@! TO.C,D36*
X214664180Y-108148285D02*
X213664180Y-108148285D01*
X213664180Y-107910190D01*
X213711800Y-107767333D01*
X213807038Y-107672095D01*
X213902276Y-107624476D01*
X214092752Y-107576857D01*
X214235609Y-107576857D01*
X214426085Y-107624476D01*
X214521323Y-107672095D01*
X214616561Y-107767333D01*
X214664180Y-107910190D01*
X214664180Y-108148285D01*
X213664180Y-107243523D02*
X213664180Y-106624476D01*
X214045133Y-106957809D01*
X214045133Y-106814952D01*
X214092752Y-106719714D01*
X214140371Y-106672095D01*
X214235609Y-106624476D01*
X214473704Y-106624476D01*
X214568942Y-106672095D01*
X214616561Y-106719714D01*
X214664180Y-106814952D01*
X214664180Y-107100666D01*
X214616561Y-107195904D01*
X214568942Y-107243523D01*
X213664180Y-105767333D02*
X213664180Y-105957809D01*
X213711800Y-106053047D01*
X213759419Y-106100666D01*
X213902276Y-106195904D01*
X214092752Y-106243523D01*
X214473704Y-106243523D01*
X214568942Y-106195904D01*
X214616561Y-106148285D01*
X214664180Y-106053047D01*
X214664180Y-105862571D01*
X214616561Y-105767333D01*
X214568942Y-105719714D01*
X214473704Y-105672095D01*
X214235609Y-105672095D01*
X214140371Y-105719714D01*
X214092752Y-105767333D01*
X214045133Y-105862571D01*
X214045133Y-106053047D01*
X214092752Y-106148285D01*
X214140371Y-106195904D01*
X214235609Y-106243523D01*
X214984180Y-111005904D02*
X213984180Y-111005904D01*
X214984180Y-110434476D02*
X214412752Y-110863047D01*
X213984180Y-110434476D02*
X214555609Y-111005904D01*
G04 #@! TO.C,D37*
X214181580Y-50795085D02*
X213181580Y-50795085D01*
X213181580Y-50556990D01*
X213229200Y-50414133D01*
X213324438Y-50318895D01*
X213419676Y-50271276D01*
X213610152Y-50223657D01*
X213753009Y-50223657D01*
X213943485Y-50271276D01*
X214038723Y-50318895D01*
X214133961Y-50414133D01*
X214181580Y-50556990D01*
X214181580Y-50795085D01*
X213181580Y-49890323D02*
X213181580Y-49271276D01*
X213562533Y-49604609D01*
X213562533Y-49461752D01*
X213610152Y-49366514D01*
X213657771Y-49318895D01*
X213753009Y-49271276D01*
X213991104Y-49271276D01*
X214086342Y-49318895D01*
X214133961Y-49366514D01*
X214181580Y-49461752D01*
X214181580Y-49747466D01*
X214133961Y-49842704D01*
X214086342Y-49890323D01*
X213181580Y-48937942D02*
X213181580Y-48271276D01*
X214181580Y-48699847D01*
X214501580Y-53652704D02*
X213501580Y-53652704D01*
X214501580Y-53081276D02*
X213930152Y-53509847D01*
X213501580Y-53081276D02*
X214073009Y-53652704D01*
G04 #@! TO.C,D40*
X233790380Y-108148285D02*
X232790380Y-108148285D01*
X232790380Y-107910190D01*
X232838000Y-107767333D01*
X232933238Y-107672095D01*
X233028476Y-107624476D01*
X233218952Y-107576857D01*
X233361809Y-107576857D01*
X233552285Y-107624476D01*
X233647523Y-107672095D01*
X233742761Y-107767333D01*
X233790380Y-107910190D01*
X233790380Y-108148285D01*
X233123714Y-106719714D02*
X233790380Y-106719714D01*
X232742761Y-106957809D02*
X233457047Y-107195904D01*
X233457047Y-106576857D01*
X232790380Y-106005428D02*
X232790380Y-105910190D01*
X232838000Y-105814952D01*
X232885619Y-105767333D01*
X232980857Y-105719714D01*
X233171333Y-105672095D01*
X233409428Y-105672095D01*
X233599904Y-105719714D01*
X233695142Y-105767333D01*
X233742761Y-105814952D01*
X233790380Y-105910190D01*
X233790380Y-106005428D01*
X233742761Y-106100666D01*
X233695142Y-106148285D01*
X233599904Y-106195904D01*
X233409428Y-106243523D01*
X233171333Y-106243523D01*
X232980857Y-106195904D01*
X232885619Y-106148285D01*
X232838000Y-106100666D01*
X232790380Y-106005428D01*
X234110380Y-111005904D02*
X233110380Y-111005904D01*
X234110380Y-110434476D02*
X233538952Y-110863047D01*
X233110380Y-110434476D02*
X233681809Y-111005904D01*
G04 #@! TO.C,D41*
X233815780Y-50947485D02*
X232815780Y-50947485D01*
X232815780Y-50709390D01*
X232863400Y-50566533D01*
X232958638Y-50471295D01*
X233053876Y-50423676D01*
X233244352Y-50376057D01*
X233387209Y-50376057D01*
X233577685Y-50423676D01*
X233672923Y-50471295D01*
X233768161Y-50566533D01*
X233815780Y-50709390D01*
X233815780Y-50947485D01*
X233149114Y-49518914D02*
X233815780Y-49518914D01*
X232768161Y-49757009D02*
X233482447Y-49995104D01*
X233482447Y-49376057D01*
X233815780Y-48471295D02*
X233815780Y-49042723D01*
X233815780Y-48757009D02*
X232815780Y-48757009D01*
X232958638Y-48852247D01*
X233053876Y-48947485D01*
X233101495Y-49042723D01*
X234135780Y-53805104D02*
X233135780Y-53805104D01*
X234135780Y-53233676D02*
X233564352Y-53662247D01*
X233135780Y-53233676D02*
X233707209Y-53805104D01*
G04 #@! TO.C,D44*
X252967380Y-108021285D02*
X251967380Y-108021285D01*
X251967380Y-107783190D01*
X252015000Y-107640333D01*
X252110238Y-107545095D01*
X252205476Y-107497476D01*
X252395952Y-107449857D01*
X252538809Y-107449857D01*
X252729285Y-107497476D01*
X252824523Y-107545095D01*
X252919761Y-107640333D01*
X252967380Y-107783190D01*
X252967380Y-108021285D01*
X252300714Y-106592714D02*
X252967380Y-106592714D01*
X251919761Y-106830809D02*
X252634047Y-107068904D01*
X252634047Y-106449857D01*
X252300714Y-105640333D02*
X252967380Y-105640333D01*
X251919761Y-105878428D02*
X252634047Y-106116523D01*
X252634047Y-105497476D01*
X253287380Y-110878904D02*
X252287380Y-110878904D01*
X253287380Y-110307476D02*
X252715952Y-110736047D01*
X252287380Y-110307476D02*
X252858809Y-110878904D01*
G04 #@! TO.C,D45*
X252789580Y-50769685D02*
X251789580Y-50769685D01*
X251789580Y-50531590D01*
X251837200Y-50388733D01*
X251932438Y-50293495D01*
X252027676Y-50245876D01*
X252218152Y-50198257D01*
X252361009Y-50198257D01*
X252551485Y-50245876D01*
X252646723Y-50293495D01*
X252741961Y-50388733D01*
X252789580Y-50531590D01*
X252789580Y-50769685D01*
X252122914Y-49341114D02*
X252789580Y-49341114D01*
X251741961Y-49579209D02*
X252456247Y-49817304D01*
X252456247Y-49198257D01*
X251789580Y-48341114D02*
X251789580Y-48817304D01*
X252265771Y-48864923D01*
X252218152Y-48817304D01*
X252170533Y-48722066D01*
X252170533Y-48483971D01*
X252218152Y-48388733D01*
X252265771Y-48341114D01*
X252361009Y-48293495D01*
X252599104Y-48293495D01*
X252694342Y-48341114D01*
X252741961Y-48388733D01*
X252789580Y-48483971D01*
X252789580Y-48722066D01*
X252741961Y-48817304D01*
X252694342Y-48864923D01*
X253109580Y-53627304D02*
X252109580Y-53627304D01*
X253109580Y-53055876D02*
X252538152Y-53484447D01*
X252109580Y-53055876D02*
X252681009Y-53627304D01*
G04 #@! TO.C,SW1*
X33286866Y-40917761D02*
X33429723Y-40965380D01*
X33667819Y-40965380D01*
X33763057Y-40917761D01*
X33810676Y-40870142D01*
X33858295Y-40774904D01*
X33858295Y-40679666D01*
X33810676Y-40584428D01*
X33763057Y-40536809D01*
X33667819Y-40489190D01*
X33477342Y-40441571D01*
X33382104Y-40393952D01*
X33334485Y-40346333D01*
X33286866Y-40251095D01*
X33286866Y-40155857D01*
X33334485Y-40060619D01*
X33382104Y-40013000D01*
X33477342Y-39965380D01*
X33715438Y-39965380D01*
X33858295Y-40013000D01*
X34191628Y-39965380D02*
X34429723Y-40965380D01*
X34620200Y-40251095D01*
X34810676Y-40965380D01*
X35048771Y-39965380D01*
X35953533Y-40965380D02*
X35382104Y-40965380D01*
X35667819Y-40965380D02*
X35667819Y-39965380D01*
X35572580Y-40108238D01*
X35477342Y-40203476D01*
X35382104Y-40251095D01*
G04 #@! TO.C,SW3*
X35674466Y-59916961D02*
X35817323Y-59964580D01*
X36055419Y-59964580D01*
X36150657Y-59916961D01*
X36198276Y-59869342D01*
X36245895Y-59774104D01*
X36245895Y-59678866D01*
X36198276Y-59583628D01*
X36150657Y-59536009D01*
X36055419Y-59488390D01*
X35864942Y-59440771D01*
X35769704Y-59393152D01*
X35722085Y-59345533D01*
X35674466Y-59250295D01*
X35674466Y-59155057D01*
X35722085Y-59059819D01*
X35769704Y-59012200D01*
X35864942Y-58964580D01*
X36103038Y-58964580D01*
X36245895Y-59012200D01*
X36579228Y-58964580D02*
X36817323Y-59964580D01*
X37007800Y-59250295D01*
X37198276Y-59964580D01*
X37436371Y-58964580D01*
X37722085Y-58964580D02*
X38341133Y-58964580D01*
X38007800Y-59345533D01*
X38150657Y-59345533D01*
X38245895Y-59393152D01*
X38293514Y-59440771D01*
X38341133Y-59536009D01*
X38341133Y-59774104D01*
X38293514Y-59869342D01*
X38245895Y-59916961D01*
X38150657Y-59964580D01*
X37864942Y-59964580D01*
X37769704Y-59916961D01*
X37722085Y-59869342D01*
G04 #@! TO.C,SW4*
X40449666Y-78966961D02*
X40592523Y-79014580D01*
X40830619Y-79014580D01*
X40925857Y-78966961D01*
X40973476Y-78919342D01*
X41021095Y-78824104D01*
X41021095Y-78728866D01*
X40973476Y-78633628D01*
X40925857Y-78586009D01*
X40830619Y-78538390D01*
X40640142Y-78490771D01*
X40544904Y-78443152D01*
X40497285Y-78395533D01*
X40449666Y-78300295D01*
X40449666Y-78205057D01*
X40497285Y-78109819D01*
X40544904Y-78062200D01*
X40640142Y-78014580D01*
X40878238Y-78014580D01*
X41021095Y-78062200D01*
X41354428Y-78014580D02*
X41592523Y-79014580D01*
X41783000Y-78300295D01*
X41973476Y-79014580D01*
X42211571Y-78014580D01*
X43021095Y-78347914D02*
X43021095Y-79014580D01*
X42783000Y-77966961D02*
X42544904Y-78681247D01*
X43163952Y-78681247D01*
G04 #@! TO.C,SW5*
X52311466Y-40968561D02*
X52454323Y-41016180D01*
X52692419Y-41016180D01*
X52787657Y-40968561D01*
X52835276Y-40920942D01*
X52882895Y-40825704D01*
X52882895Y-40730466D01*
X52835276Y-40635228D01*
X52787657Y-40587609D01*
X52692419Y-40539990D01*
X52501942Y-40492371D01*
X52406704Y-40444752D01*
X52359085Y-40397133D01*
X52311466Y-40301895D01*
X52311466Y-40206657D01*
X52359085Y-40111419D01*
X52406704Y-40063800D01*
X52501942Y-40016180D01*
X52740038Y-40016180D01*
X52882895Y-40063800D01*
X53216228Y-40016180D02*
X53454323Y-41016180D01*
X53644800Y-40301895D01*
X53835276Y-41016180D01*
X54073371Y-40016180D01*
X54930514Y-40016180D02*
X54454323Y-40016180D01*
X54406704Y-40492371D01*
X54454323Y-40444752D01*
X54549561Y-40397133D01*
X54787657Y-40397133D01*
X54882895Y-40444752D01*
X54930514Y-40492371D01*
X54978133Y-40587609D01*
X54978133Y-40825704D01*
X54930514Y-40920942D01*
X54882895Y-40968561D01*
X54787657Y-41016180D01*
X54549561Y-41016180D01*
X54454323Y-40968561D01*
X54406704Y-40920942D01*
G04 #@! TO.C,SW6*
X52336866Y-98016961D02*
X52479723Y-98064580D01*
X52717819Y-98064580D01*
X52813057Y-98016961D01*
X52860676Y-97969342D01*
X52908295Y-97874104D01*
X52908295Y-97778866D01*
X52860676Y-97683628D01*
X52813057Y-97636009D01*
X52717819Y-97588390D01*
X52527342Y-97540771D01*
X52432104Y-97493152D01*
X52384485Y-97445533D01*
X52336866Y-97350295D01*
X52336866Y-97255057D01*
X52384485Y-97159819D01*
X52432104Y-97112200D01*
X52527342Y-97064580D01*
X52765438Y-97064580D01*
X52908295Y-97112200D01*
X53241628Y-97064580D02*
X53479723Y-98064580D01*
X53670200Y-97350295D01*
X53860676Y-98064580D01*
X54098771Y-97064580D01*
X54908295Y-97064580D02*
X54717819Y-97064580D01*
X54622580Y-97112200D01*
X54574961Y-97159819D01*
X54479723Y-97302676D01*
X54432104Y-97493152D01*
X54432104Y-97874104D01*
X54479723Y-97969342D01*
X54527342Y-98016961D01*
X54622580Y-98064580D01*
X54813057Y-98064580D01*
X54908295Y-98016961D01*
X54955914Y-97969342D01*
X55003533Y-97874104D01*
X55003533Y-97636009D01*
X54955914Y-97540771D01*
X54908295Y-97493152D01*
X54813057Y-97445533D01*
X54622580Y-97445533D01*
X54527342Y-97493152D01*
X54479723Y-97540771D01*
X54432104Y-97636009D01*
G04 #@! TO.C,SW7*
X57112066Y-59916961D02*
X57254923Y-59964580D01*
X57493019Y-59964580D01*
X57588257Y-59916961D01*
X57635876Y-59869342D01*
X57683495Y-59774104D01*
X57683495Y-59678866D01*
X57635876Y-59583628D01*
X57588257Y-59536009D01*
X57493019Y-59488390D01*
X57302542Y-59440771D01*
X57207304Y-59393152D01*
X57159685Y-59345533D01*
X57112066Y-59250295D01*
X57112066Y-59155057D01*
X57159685Y-59059819D01*
X57207304Y-59012200D01*
X57302542Y-58964580D01*
X57540638Y-58964580D01*
X57683495Y-59012200D01*
X58016828Y-58964580D02*
X58254923Y-59964580D01*
X58445400Y-59250295D01*
X58635876Y-59964580D01*
X58873971Y-58964580D01*
X59159685Y-58964580D02*
X59826352Y-58964580D01*
X59397780Y-59964580D01*
G04 #@! TO.C,SW8*
X66637066Y-78941561D02*
X66779923Y-78989180D01*
X67018019Y-78989180D01*
X67113257Y-78941561D01*
X67160876Y-78893942D01*
X67208495Y-78798704D01*
X67208495Y-78703466D01*
X67160876Y-78608228D01*
X67113257Y-78560609D01*
X67018019Y-78512990D01*
X66827542Y-78465371D01*
X66732304Y-78417752D01*
X66684685Y-78370133D01*
X66637066Y-78274895D01*
X66637066Y-78179657D01*
X66684685Y-78084419D01*
X66732304Y-78036800D01*
X66827542Y-77989180D01*
X67065638Y-77989180D01*
X67208495Y-78036800D01*
X67541828Y-77989180D02*
X67779923Y-78989180D01*
X67970400Y-78274895D01*
X68160876Y-78989180D01*
X68398971Y-77989180D01*
X68922780Y-78417752D02*
X68827542Y-78370133D01*
X68779923Y-78322514D01*
X68732304Y-78227276D01*
X68732304Y-78179657D01*
X68779923Y-78084419D01*
X68827542Y-78036800D01*
X68922780Y-77989180D01*
X69113257Y-77989180D01*
X69208495Y-78036800D01*
X69256114Y-78084419D01*
X69303733Y-78179657D01*
X69303733Y-78227276D01*
X69256114Y-78322514D01*
X69208495Y-78370133D01*
X69113257Y-78417752D01*
X68922780Y-78417752D01*
X68827542Y-78465371D01*
X68779923Y-78512990D01*
X68732304Y-78608228D01*
X68732304Y-78798704D01*
X68779923Y-78893942D01*
X68827542Y-78941561D01*
X68922780Y-78989180D01*
X69113257Y-78989180D01*
X69208495Y-78941561D01*
X69256114Y-78893942D01*
X69303733Y-78798704D01*
X69303733Y-78608228D01*
X69256114Y-78512990D01*
X69208495Y-78465371D01*
X69113257Y-78417752D01*
G04 #@! TO.C,SW9*
X71437666Y-40968561D02*
X71580523Y-41016180D01*
X71818619Y-41016180D01*
X71913857Y-40968561D01*
X71961476Y-40920942D01*
X72009095Y-40825704D01*
X72009095Y-40730466D01*
X71961476Y-40635228D01*
X71913857Y-40587609D01*
X71818619Y-40539990D01*
X71628142Y-40492371D01*
X71532904Y-40444752D01*
X71485285Y-40397133D01*
X71437666Y-40301895D01*
X71437666Y-40206657D01*
X71485285Y-40111419D01*
X71532904Y-40063800D01*
X71628142Y-40016180D01*
X71866238Y-40016180D01*
X72009095Y-40063800D01*
X72342428Y-40016180D02*
X72580523Y-41016180D01*
X72771000Y-40301895D01*
X72961476Y-41016180D01*
X73199571Y-40016180D01*
X73628142Y-41016180D02*
X73818619Y-41016180D01*
X73913857Y-40968561D01*
X73961476Y-40920942D01*
X74056714Y-40778085D01*
X74104333Y-40587609D01*
X74104333Y-40206657D01*
X74056714Y-40111419D01*
X74009095Y-40063800D01*
X73913857Y-40016180D01*
X73723380Y-40016180D01*
X73628142Y-40063800D01*
X73580523Y-40111419D01*
X73532904Y-40206657D01*
X73532904Y-40444752D01*
X73580523Y-40539990D01*
X73628142Y-40587609D01*
X73723380Y-40635228D01*
X73913857Y-40635228D01*
X74009095Y-40587609D01*
X74056714Y-40539990D01*
X74104333Y-40444752D01*
G04 #@! TO.C,SW10*
X70910676Y-98016961D02*
X71053533Y-98064580D01*
X71291628Y-98064580D01*
X71386866Y-98016961D01*
X71434485Y-97969342D01*
X71482104Y-97874104D01*
X71482104Y-97778866D01*
X71434485Y-97683628D01*
X71386866Y-97636009D01*
X71291628Y-97588390D01*
X71101152Y-97540771D01*
X71005914Y-97493152D01*
X70958295Y-97445533D01*
X70910676Y-97350295D01*
X70910676Y-97255057D01*
X70958295Y-97159819D01*
X71005914Y-97112200D01*
X71101152Y-97064580D01*
X71339247Y-97064580D01*
X71482104Y-97112200D01*
X71815438Y-97064580D02*
X72053533Y-98064580D01*
X72244009Y-97350295D01*
X72434485Y-98064580D01*
X72672580Y-97064580D01*
X73577342Y-98064580D02*
X73005914Y-98064580D01*
X73291628Y-98064580D02*
X73291628Y-97064580D01*
X73196390Y-97207438D01*
X73101152Y-97302676D01*
X73005914Y-97350295D01*
X74196390Y-97064580D02*
X74291628Y-97064580D01*
X74386866Y-97112200D01*
X74434485Y-97159819D01*
X74482104Y-97255057D01*
X74529723Y-97445533D01*
X74529723Y-97683628D01*
X74482104Y-97874104D01*
X74434485Y-97969342D01*
X74386866Y-98016961D01*
X74291628Y-98064580D01*
X74196390Y-98064580D01*
X74101152Y-98016961D01*
X74053533Y-97969342D01*
X74005914Y-97874104D01*
X73958295Y-97683628D01*
X73958295Y-97445533D01*
X74005914Y-97255057D01*
X74053533Y-97159819D01*
X74101152Y-97112200D01*
X74196390Y-97064580D01*
G04 #@! TO.C,SW11*
X75711276Y-59916961D02*
X75854133Y-59964580D01*
X76092228Y-59964580D01*
X76187466Y-59916961D01*
X76235085Y-59869342D01*
X76282704Y-59774104D01*
X76282704Y-59678866D01*
X76235085Y-59583628D01*
X76187466Y-59536009D01*
X76092228Y-59488390D01*
X75901752Y-59440771D01*
X75806514Y-59393152D01*
X75758895Y-59345533D01*
X75711276Y-59250295D01*
X75711276Y-59155057D01*
X75758895Y-59059819D01*
X75806514Y-59012200D01*
X75901752Y-58964580D01*
X76139847Y-58964580D01*
X76282704Y-59012200D01*
X76616038Y-58964580D02*
X76854133Y-59964580D01*
X77044609Y-59250295D01*
X77235085Y-59964580D01*
X77473180Y-58964580D01*
X78377942Y-59964580D02*
X77806514Y-59964580D01*
X78092228Y-59964580D02*
X78092228Y-58964580D01*
X77996990Y-59107438D01*
X77901752Y-59202676D01*
X77806514Y-59250295D01*
X79330323Y-59964580D02*
X78758895Y-59964580D01*
X79044609Y-59964580D02*
X79044609Y-58964580D01*
X78949371Y-59107438D01*
X78854133Y-59202676D01*
X78758895Y-59250295D01*
G04 #@! TO.C,SW12*
X85236276Y-78966961D02*
X85379133Y-79014580D01*
X85617228Y-79014580D01*
X85712466Y-78966961D01*
X85760085Y-78919342D01*
X85807704Y-78824104D01*
X85807704Y-78728866D01*
X85760085Y-78633628D01*
X85712466Y-78586009D01*
X85617228Y-78538390D01*
X85426752Y-78490771D01*
X85331514Y-78443152D01*
X85283895Y-78395533D01*
X85236276Y-78300295D01*
X85236276Y-78205057D01*
X85283895Y-78109819D01*
X85331514Y-78062200D01*
X85426752Y-78014580D01*
X85664847Y-78014580D01*
X85807704Y-78062200D01*
X86141038Y-78014580D02*
X86379133Y-79014580D01*
X86569609Y-78300295D01*
X86760085Y-79014580D01*
X86998180Y-78014580D01*
X87902942Y-79014580D02*
X87331514Y-79014580D01*
X87617228Y-79014580D02*
X87617228Y-78014580D01*
X87521990Y-78157438D01*
X87426752Y-78252676D01*
X87331514Y-78300295D01*
X88283895Y-78109819D02*
X88331514Y-78062200D01*
X88426752Y-78014580D01*
X88664847Y-78014580D01*
X88760085Y-78062200D01*
X88807704Y-78109819D01*
X88855323Y-78205057D01*
X88855323Y-78300295D01*
X88807704Y-78443152D01*
X88236276Y-79014580D01*
X88855323Y-79014580D01*
G04 #@! TO.C,SW13*
X90011476Y-40841561D02*
X90154333Y-40889180D01*
X90392428Y-40889180D01*
X90487666Y-40841561D01*
X90535285Y-40793942D01*
X90582904Y-40698704D01*
X90582904Y-40603466D01*
X90535285Y-40508228D01*
X90487666Y-40460609D01*
X90392428Y-40412990D01*
X90201952Y-40365371D01*
X90106714Y-40317752D01*
X90059095Y-40270133D01*
X90011476Y-40174895D01*
X90011476Y-40079657D01*
X90059095Y-39984419D01*
X90106714Y-39936800D01*
X90201952Y-39889180D01*
X90440047Y-39889180D01*
X90582904Y-39936800D01*
X90916238Y-39889180D02*
X91154333Y-40889180D01*
X91344809Y-40174895D01*
X91535285Y-40889180D01*
X91773380Y-39889180D01*
X92678142Y-40889180D02*
X92106714Y-40889180D01*
X92392428Y-40889180D02*
X92392428Y-39889180D01*
X92297190Y-40032038D01*
X92201952Y-40127276D01*
X92106714Y-40174895D01*
X93011476Y-39889180D02*
X93630523Y-39889180D01*
X93297190Y-40270133D01*
X93440047Y-40270133D01*
X93535285Y-40317752D01*
X93582904Y-40365371D01*
X93630523Y-40460609D01*
X93630523Y-40698704D01*
X93582904Y-40793942D01*
X93535285Y-40841561D01*
X93440047Y-40889180D01*
X93154333Y-40889180D01*
X93059095Y-40841561D01*
X93011476Y-40793942D01*
G04 #@! TO.C,SW14*
X94761276Y-60069361D02*
X94904133Y-60116980D01*
X95142228Y-60116980D01*
X95237466Y-60069361D01*
X95285085Y-60021742D01*
X95332704Y-59926504D01*
X95332704Y-59831266D01*
X95285085Y-59736028D01*
X95237466Y-59688409D01*
X95142228Y-59640790D01*
X94951752Y-59593171D01*
X94856514Y-59545552D01*
X94808895Y-59497933D01*
X94761276Y-59402695D01*
X94761276Y-59307457D01*
X94808895Y-59212219D01*
X94856514Y-59164600D01*
X94951752Y-59116980D01*
X95189847Y-59116980D01*
X95332704Y-59164600D01*
X95666038Y-59116980D02*
X95904133Y-60116980D01*
X96094609Y-59402695D01*
X96285085Y-60116980D01*
X96523180Y-59116980D01*
X97427942Y-60116980D02*
X96856514Y-60116980D01*
X97142228Y-60116980D02*
X97142228Y-59116980D01*
X97046990Y-59259838D01*
X96951752Y-59355076D01*
X96856514Y-59402695D01*
X98285085Y-59450314D02*
X98285085Y-60116980D01*
X98046990Y-59069361D02*
X97808895Y-59783647D01*
X98427942Y-59783647D01*
G04 #@! TO.C,SW15*
X104286276Y-79043161D02*
X104429133Y-79090780D01*
X104667228Y-79090780D01*
X104762466Y-79043161D01*
X104810085Y-78995542D01*
X104857704Y-78900304D01*
X104857704Y-78805066D01*
X104810085Y-78709828D01*
X104762466Y-78662209D01*
X104667228Y-78614590D01*
X104476752Y-78566971D01*
X104381514Y-78519352D01*
X104333895Y-78471733D01*
X104286276Y-78376495D01*
X104286276Y-78281257D01*
X104333895Y-78186019D01*
X104381514Y-78138400D01*
X104476752Y-78090780D01*
X104714847Y-78090780D01*
X104857704Y-78138400D01*
X105191038Y-78090780D02*
X105429133Y-79090780D01*
X105619609Y-78376495D01*
X105810085Y-79090780D01*
X106048180Y-78090780D01*
X106952942Y-79090780D02*
X106381514Y-79090780D01*
X106667228Y-79090780D02*
X106667228Y-78090780D01*
X106571990Y-78233638D01*
X106476752Y-78328876D01*
X106381514Y-78376495D01*
X107857704Y-78090780D02*
X107381514Y-78090780D01*
X107333895Y-78566971D01*
X107381514Y-78519352D01*
X107476752Y-78471733D01*
X107714847Y-78471733D01*
X107810085Y-78519352D01*
X107857704Y-78566971D01*
X107905323Y-78662209D01*
X107905323Y-78900304D01*
X107857704Y-78995542D01*
X107810085Y-79043161D01*
X107714847Y-79090780D01*
X107476752Y-79090780D01*
X107381514Y-79043161D01*
X107333895Y-78995542D01*
G04 #@! TO.C,SW16*
X108985276Y-40993961D02*
X109128133Y-41041580D01*
X109366228Y-41041580D01*
X109461466Y-40993961D01*
X109509085Y-40946342D01*
X109556704Y-40851104D01*
X109556704Y-40755866D01*
X109509085Y-40660628D01*
X109461466Y-40613009D01*
X109366228Y-40565390D01*
X109175752Y-40517771D01*
X109080514Y-40470152D01*
X109032895Y-40422533D01*
X108985276Y-40327295D01*
X108985276Y-40232057D01*
X109032895Y-40136819D01*
X109080514Y-40089200D01*
X109175752Y-40041580D01*
X109413847Y-40041580D01*
X109556704Y-40089200D01*
X109890038Y-40041580D02*
X110128133Y-41041580D01*
X110318609Y-40327295D01*
X110509085Y-41041580D01*
X110747180Y-40041580D01*
X111651942Y-41041580D02*
X111080514Y-41041580D01*
X111366228Y-41041580D02*
X111366228Y-40041580D01*
X111270990Y-40184438D01*
X111175752Y-40279676D01*
X111080514Y-40327295D01*
X112509085Y-40041580D02*
X112318609Y-40041580D01*
X112223371Y-40089200D01*
X112175752Y-40136819D01*
X112080514Y-40279676D01*
X112032895Y-40470152D01*
X112032895Y-40851104D01*
X112080514Y-40946342D01*
X112128133Y-40993961D01*
X112223371Y-41041580D01*
X112413847Y-41041580D01*
X112509085Y-40993961D01*
X112556704Y-40946342D01*
X112604323Y-40851104D01*
X112604323Y-40613009D01*
X112556704Y-40517771D01*
X112509085Y-40470152D01*
X112413847Y-40422533D01*
X112223371Y-40422533D01*
X112128133Y-40470152D01*
X112080514Y-40517771D01*
X112032895Y-40613009D01*
G04 #@! TO.C,SW17*
X113836676Y-59967761D02*
X113979533Y-60015380D01*
X114217628Y-60015380D01*
X114312866Y-59967761D01*
X114360485Y-59920142D01*
X114408104Y-59824904D01*
X114408104Y-59729666D01*
X114360485Y-59634428D01*
X114312866Y-59586809D01*
X114217628Y-59539190D01*
X114027152Y-59491571D01*
X113931914Y-59443952D01*
X113884295Y-59396333D01*
X113836676Y-59301095D01*
X113836676Y-59205857D01*
X113884295Y-59110619D01*
X113931914Y-59063000D01*
X114027152Y-59015380D01*
X114265247Y-59015380D01*
X114408104Y-59063000D01*
X114741438Y-59015380D02*
X114979533Y-60015380D01*
X115170009Y-59301095D01*
X115360485Y-60015380D01*
X115598580Y-59015380D01*
X116503342Y-60015380D02*
X115931914Y-60015380D01*
X116217628Y-60015380D02*
X116217628Y-59015380D01*
X116122390Y-59158238D01*
X116027152Y-59253476D01*
X115931914Y-59301095D01*
X116836676Y-59015380D02*
X117503342Y-59015380D01*
X117074771Y-60015380D01*
G04 #@! TO.C,SW18*
X123310876Y-78941561D02*
X123453733Y-78989180D01*
X123691828Y-78989180D01*
X123787066Y-78941561D01*
X123834685Y-78893942D01*
X123882304Y-78798704D01*
X123882304Y-78703466D01*
X123834685Y-78608228D01*
X123787066Y-78560609D01*
X123691828Y-78512990D01*
X123501352Y-78465371D01*
X123406114Y-78417752D01*
X123358495Y-78370133D01*
X123310876Y-78274895D01*
X123310876Y-78179657D01*
X123358495Y-78084419D01*
X123406114Y-78036800D01*
X123501352Y-77989180D01*
X123739447Y-77989180D01*
X123882304Y-78036800D01*
X124215638Y-77989180D02*
X124453733Y-78989180D01*
X124644209Y-78274895D01*
X124834685Y-78989180D01*
X125072780Y-77989180D01*
X125977542Y-78989180D02*
X125406114Y-78989180D01*
X125691828Y-78989180D02*
X125691828Y-77989180D01*
X125596590Y-78132038D01*
X125501352Y-78227276D01*
X125406114Y-78274895D01*
X126548971Y-78417752D02*
X126453733Y-78370133D01*
X126406114Y-78322514D01*
X126358495Y-78227276D01*
X126358495Y-78179657D01*
X126406114Y-78084419D01*
X126453733Y-78036800D01*
X126548971Y-77989180D01*
X126739447Y-77989180D01*
X126834685Y-78036800D01*
X126882304Y-78084419D01*
X126929923Y-78179657D01*
X126929923Y-78227276D01*
X126882304Y-78322514D01*
X126834685Y-78370133D01*
X126739447Y-78417752D01*
X126548971Y-78417752D01*
X126453733Y-78465371D01*
X126406114Y-78512990D01*
X126358495Y-78608228D01*
X126358495Y-78798704D01*
X126406114Y-78893942D01*
X126453733Y-78941561D01*
X126548971Y-78989180D01*
X126739447Y-78989180D01*
X126834685Y-78941561D01*
X126882304Y-78893942D01*
X126929923Y-78798704D01*
X126929923Y-78608228D01*
X126882304Y-78512990D01*
X126834685Y-78465371D01*
X126739447Y-78417752D01*
G04 #@! TO.C,SW19*
X128035276Y-40917761D02*
X128178133Y-40965380D01*
X128416228Y-40965380D01*
X128511466Y-40917761D01*
X128559085Y-40870142D01*
X128606704Y-40774904D01*
X128606704Y-40679666D01*
X128559085Y-40584428D01*
X128511466Y-40536809D01*
X128416228Y-40489190D01*
X128225752Y-40441571D01*
X128130514Y-40393952D01*
X128082895Y-40346333D01*
X128035276Y-40251095D01*
X128035276Y-40155857D01*
X128082895Y-40060619D01*
X128130514Y-40013000D01*
X128225752Y-39965380D01*
X128463847Y-39965380D01*
X128606704Y-40013000D01*
X128940038Y-39965380D02*
X129178133Y-40965380D01*
X129368609Y-40251095D01*
X129559085Y-40965380D01*
X129797180Y-39965380D01*
X130701942Y-40965380D02*
X130130514Y-40965380D01*
X130416228Y-40965380D02*
X130416228Y-39965380D01*
X130320990Y-40108238D01*
X130225752Y-40203476D01*
X130130514Y-40251095D01*
X131178133Y-40965380D02*
X131368609Y-40965380D01*
X131463847Y-40917761D01*
X131511466Y-40870142D01*
X131606704Y-40727285D01*
X131654323Y-40536809D01*
X131654323Y-40155857D01*
X131606704Y-40060619D01*
X131559085Y-40013000D01*
X131463847Y-39965380D01*
X131273371Y-39965380D01*
X131178133Y-40013000D01*
X131130514Y-40060619D01*
X131082895Y-40155857D01*
X131082895Y-40393952D01*
X131130514Y-40489190D01*
X131178133Y-40536809D01*
X131273371Y-40584428D01*
X131463847Y-40584428D01*
X131559085Y-40536809D01*
X131606704Y-40489190D01*
X131654323Y-40393952D01*
G04 #@! TO.C,SW20*
X132861276Y-59993161D02*
X133004133Y-60040780D01*
X133242228Y-60040780D01*
X133337466Y-59993161D01*
X133385085Y-59945542D01*
X133432704Y-59850304D01*
X133432704Y-59755066D01*
X133385085Y-59659828D01*
X133337466Y-59612209D01*
X133242228Y-59564590D01*
X133051752Y-59516971D01*
X132956514Y-59469352D01*
X132908895Y-59421733D01*
X132861276Y-59326495D01*
X132861276Y-59231257D01*
X132908895Y-59136019D01*
X132956514Y-59088400D01*
X133051752Y-59040780D01*
X133289847Y-59040780D01*
X133432704Y-59088400D01*
X133766038Y-59040780D02*
X134004133Y-60040780D01*
X134194609Y-59326495D01*
X134385085Y-60040780D01*
X134623180Y-59040780D01*
X134956514Y-59136019D02*
X135004133Y-59088400D01*
X135099371Y-59040780D01*
X135337466Y-59040780D01*
X135432704Y-59088400D01*
X135480323Y-59136019D01*
X135527942Y-59231257D01*
X135527942Y-59326495D01*
X135480323Y-59469352D01*
X134908895Y-60040780D01*
X135527942Y-60040780D01*
X136146990Y-59040780D02*
X136242228Y-59040780D01*
X136337466Y-59088400D01*
X136385085Y-59136019D01*
X136432704Y-59231257D01*
X136480323Y-59421733D01*
X136480323Y-59659828D01*
X136432704Y-59850304D01*
X136385085Y-59945542D01*
X136337466Y-59993161D01*
X136242228Y-60040780D01*
X136146990Y-60040780D01*
X136051752Y-59993161D01*
X136004133Y-59945542D01*
X135956514Y-59850304D01*
X135908895Y-59659828D01*
X135908895Y-59421733D01*
X135956514Y-59231257D01*
X136004133Y-59136019D01*
X136051752Y-59088400D01*
X136146990Y-59040780D01*
G04 #@! TO.C,SW21*
X142360876Y-79043161D02*
X142503733Y-79090780D01*
X142741828Y-79090780D01*
X142837066Y-79043161D01*
X142884685Y-78995542D01*
X142932304Y-78900304D01*
X142932304Y-78805066D01*
X142884685Y-78709828D01*
X142837066Y-78662209D01*
X142741828Y-78614590D01*
X142551352Y-78566971D01*
X142456114Y-78519352D01*
X142408495Y-78471733D01*
X142360876Y-78376495D01*
X142360876Y-78281257D01*
X142408495Y-78186019D01*
X142456114Y-78138400D01*
X142551352Y-78090780D01*
X142789447Y-78090780D01*
X142932304Y-78138400D01*
X143265638Y-78090780D02*
X143503733Y-79090780D01*
X143694209Y-78376495D01*
X143884685Y-79090780D01*
X144122780Y-78090780D01*
X144456114Y-78186019D02*
X144503733Y-78138400D01*
X144598971Y-78090780D01*
X144837066Y-78090780D01*
X144932304Y-78138400D01*
X144979923Y-78186019D01*
X145027542Y-78281257D01*
X145027542Y-78376495D01*
X144979923Y-78519352D01*
X144408495Y-79090780D01*
X145027542Y-79090780D01*
X145979923Y-79090780D02*
X145408495Y-79090780D01*
X145694209Y-79090780D02*
X145694209Y-78090780D01*
X145598971Y-78233638D01*
X145503733Y-78328876D01*
X145408495Y-78376495D01*
G04 #@! TO.C,SW22*
X147186876Y-98143961D02*
X147329733Y-98191580D01*
X147567828Y-98191580D01*
X147663066Y-98143961D01*
X147710685Y-98096342D01*
X147758304Y-98001104D01*
X147758304Y-97905866D01*
X147710685Y-97810628D01*
X147663066Y-97763009D01*
X147567828Y-97715390D01*
X147377352Y-97667771D01*
X147282114Y-97620152D01*
X147234495Y-97572533D01*
X147186876Y-97477295D01*
X147186876Y-97382057D01*
X147234495Y-97286819D01*
X147282114Y-97239200D01*
X147377352Y-97191580D01*
X147615447Y-97191580D01*
X147758304Y-97239200D01*
X148091638Y-97191580D02*
X148329733Y-98191580D01*
X148520209Y-97477295D01*
X148710685Y-98191580D01*
X148948780Y-97191580D01*
X149282114Y-97286819D02*
X149329733Y-97239200D01*
X149424971Y-97191580D01*
X149663066Y-97191580D01*
X149758304Y-97239200D01*
X149805923Y-97286819D01*
X149853542Y-97382057D01*
X149853542Y-97477295D01*
X149805923Y-97620152D01*
X149234495Y-98191580D01*
X149853542Y-98191580D01*
X150234495Y-97286819D02*
X150282114Y-97239200D01*
X150377352Y-97191580D01*
X150615447Y-97191580D01*
X150710685Y-97239200D01*
X150758304Y-97286819D01*
X150805923Y-97382057D01*
X150805923Y-97477295D01*
X150758304Y-97620152D01*
X150186876Y-98191580D01*
X150805923Y-98191580D01*
G04 #@! TO.C,SW23*
X147136076Y-40943161D02*
X147278933Y-40990780D01*
X147517028Y-40990780D01*
X147612266Y-40943161D01*
X147659885Y-40895542D01*
X147707504Y-40800304D01*
X147707504Y-40705066D01*
X147659885Y-40609828D01*
X147612266Y-40562209D01*
X147517028Y-40514590D01*
X147326552Y-40466971D01*
X147231314Y-40419352D01*
X147183695Y-40371733D01*
X147136076Y-40276495D01*
X147136076Y-40181257D01*
X147183695Y-40086019D01*
X147231314Y-40038400D01*
X147326552Y-39990780D01*
X147564647Y-39990780D01*
X147707504Y-40038400D01*
X148040838Y-39990780D02*
X148278933Y-40990780D01*
X148469409Y-40276495D01*
X148659885Y-40990780D01*
X148897980Y-39990780D01*
X149231314Y-40086019D02*
X149278933Y-40038400D01*
X149374171Y-39990780D01*
X149612266Y-39990780D01*
X149707504Y-40038400D01*
X149755123Y-40086019D01*
X149802742Y-40181257D01*
X149802742Y-40276495D01*
X149755123Y-40419352D01*
X149183695Y-40990780D01*
X149802742Y-40990780D01*
X150136076Y-39990780D02*
X150755123Y-39990780D01*
X150421790Y-40371733D01*
X150564647Y-40371733D01*
X150659885Y-40419352D01*
X150707504Y-40466971D01*
X150755123Y-40562209D01*
X150755123Y-40800304D01*
X150707504Y-40895542D01*
X150659885Y-40943161D01*
X150564647Y-40990780D01*
X150278933Y-40990780D01*
X150183695Y-40943161D01*
X150136076Y-40895542D01*
G04 #@! TO.C,SW24*
X151911276Y-60018561D02*
X152054133Y-60066180D01*
X152292228Y-60066180D01*
X152387466Y-60018561D01*
X152435085Y-59970942D01*
X152482704Y-59875704D01*
X152482704Y-59780466D01*
X152435085Y-59685228D01*
X152387466Y-59637609D01*
X152292228Y-59589990D01*
X152101752Y-59542371D01*
X152006514Y-59494752D01*
X151958895Y-59447133D01*
X151911276Y-59351895D01*
X151911276Y-59256657D01*
X151958895Y-59161419D01*
X152006514Y-59113800D01*
X152101752Y-59066180D01*
X152339847Y-59066180D01*
X152482704Y-59113800D01*
X152816038Y-59066180D02*
X153054133Y-60066180D01*
X153244609Y-59351895D01*
X153435085Y-60066180D01*
X153673180Y-59066180D01*
X154006514Y-59161419D02*
X154054133Y-59113800D01*
X154149371Y-59066180D01*
X154387466Y-59066180D01*
X154482704Y-59113800D01*
X154530323Y-59161419D01*
X154577942Y-59256657D01*
X154577942Y-59351895D01*
X154530323Y-59494752D01*
X153958895Y-60066180D01*
X154577942Y-60066180D01*
X155435085Y-59399514D02*
X155435085Y-60066180D01*
X155196990Y-59018561D02*
X154958895Y-59732847D01*
X155577942Y-59732847D01*
G04 #@! TO.C,SW25*
X161512476Y-79043161D02*
X161655333Y-79090780D01*
X161893428Y-79090780D01*
X161988666Y-79043161D01*
X162036285Y-78995542D01*
X162083904Y-78900304D01*
X162083904Y-78805066D01*
X162036285Y-78709828D01*
X161988666Y-78662209D01*
X161893428Y-78614590D01*
X161702952Y-78566971D01*
X161607714Y-78519352D01*
X161560095Y-78471733D01*
X161512476Y-78376495D01*
X161512476Y-78281257D01*
X161560095Y-78186019D01*
X161607714Y-78138400D01*
X161702952Y-78090780D01*
X161941047Y-78090780D01*
X162083904Y-78138400D01*
X162417238Y-78090780D02*
X162655333Y-79090780D01*
X162845809Y-78376495D01*
X163036285Y-79090780D01*
X163274380Y-78090780D01*
X163607714Y-78186019D02*
X163655333Y-78138400D01*
X163750571Y-78090780D01*
X163988666Y-78090780D01*
X164083904Y-78138400D01*
X164131523Y-78186019D01*
X164179142Y-78281257D01*
X164179142Y-78376495D01*
X164131523Y-78519352D01*
X163560095Y-79090780D01*
X164179142Y-79090780D01*
X165083904Y-78090780D02*
X164607714Y-78090780D01*
X164560095Y-78566971D01*
X164607714Y-78519352D01*
X164702952Y-78471733D01*
X164941047Y-78471733D01*
X165036285Y-78519352D01*
X165083904Y-78566971D01*
X165131523Y-78662209D01*
X165131523Y-78900304D01*
X165083904Y-78995542D01*
X165036285Y-79043161D01*
X164941047Y-79090780D01*
X164702952Y-79090780D01*
X164607714Y-79043161D01*
X164560095Y-78995542D01*
G04 #@! TO.C,SW26*
X166236876Y-40993961D02*
X166379733Y-41041580D01*
X166617828Y-41041580D01*
X166713066Y-40993961D01*
X166760685Y-40946342D01*
X166808304Y-40851104D01*
X166808304Y-40755866D01*
X166760685Y-40660628D01*
X166713066Y-40613009D01*
X166617828Y-40565390D01*
X166427352Y-40517771D01*
X166332114Y-40470152D01*
X166284495Y-40422533D01*
X166236876Y-40327295D01*
X166236876Y-40232057D01*
X166284495Y-40136819D01*
X166332114Y-40089200D01*
X166427352Y-40041580D01*
X166665447Y-40041580D01*
X166808304Y-40089200D01*
X167141638Y-40041580D02*
X167379733Y-41041580D01*
X167570209Y-40327295D01*
X167760685Y-41041580D01*
X167998780Y-40041580D01*
X168332114Y-40136819D02*
X168379733Y-40089200D01*
X168474971Y-40041580D01*
X168713066Y-40041580D01*
X168808304Y-40089200D01*
X168855923Y-40136819D01*
X168903542Y-40232057D01*
X168903542Y-40327295D01*
X168855923Y-40470152D01*
X168284495Y-41041580D01*
X168903542Y-41041580D01*
X169760685Y-40041580D02*
X169570209Y-40041580D01*
X169474971Y-40089200D01*
X169427352Y-40136819D01*
X169332114Y-40279676D01*
X169284495Y-40470152D01*
X169284495Y-40851104D01*
X169332114Y-40946342D01*
X169379733Y-40993961D01*
X169474971Y-41041580D01*
X169665447Y-41041580D01*
X169760685Y-40993961D01*
X169808304Y-40946342D01*
X169855923Y-40851104D01*
X169855923Y-40613009D01*
X169808304Y-40517771D01*
X169760685Y-40470152D01*
X169665447Y-40422533D01*
X169474971Y-40422533D01*
X169379733Y-40470152D01*
X169332114Y-40517771D01*
X169284495Y-40613009D01*
G04 #@! TO.C,SW27*
X170961276Y-60043961D02*
X171104133Y-60091580D01*
X171342228Y-60091580D01*
X171437466Y-60043961D01*
X171485085Y-59996342D01*
X171532704Y-59901104D01*
X171532704Y-59805866D01*
X171485085Y-59710628D01*
X171437466Y-59663009D01*
X171342228Y-59615390D01*
X171151752Y-59567771D01*
X171056514Y-59520152D01*
X171008895Y-59472533D01*
X170961276Y-59377295D01*
X170961276Y-59282057D01*
X171008895Y-59186819D01*
X171056514Y-59139200D01*
X171151752Y-59091580D01*
X171389847Y-59091580D01*
X171532704Y-59139200D01*
X171866038Y-59091580D02*
X172104133Y-60091580D01*
X172294609Y-59377295D01*
X172485085Y-60091580D01*
X172723180Y-59091580D01*
X173056514Y-59186819D02*
X173104133Y-59139200D01*
X173199371Y-59091580D01*
X173437466Y-59091580D01*
X173532704Y-59139200D01*
X173580323Y-59186819D01*
X173627942Y-59282057D01*
X173627942Y-59377295D01*
X173580323Y-59520152D01*
X173008895Y-60091580D01*
X173627942Y-60091580D01*
X173961276Y-59091580D02*
X174627942Y-59091580D01*
X174199371Y-60091580D01*
G04 #@! TO.C,SW28*
X180562476Y-79068561D02*
X180705333Y-79116180D01*
X180943428Y-79116180D01*
X181038666Y-79068561D01*
X181086285Y-79020942D01*
X181133904Y-78925704D01*
X181133904Y-78830466D01*
X181086285Y-78735228D01*
X181038666Y-78687609D01*
X180943428Y-78639990D01*
X180752952Y-78592371D01*
X180657714Y-78544752D01*
X180610095Y-78497133D01*
X180562476Y-78401895D01*
X180562476Y-78306657D01*
X180610095Y-78211419D01*
X180657714Y-78163800D01*
X180752952Y-78116180D01*
X180991047Y-78116180D01*
X181133904Y-78163800D01*
X181467238Y-78116180D02*
X181705333Y-79116180D01*
X181895809Y-78401895D01*
X182086285Y-79116180D01*
X182324380Y-78116180D01*
X182657714Y-78211419D02*
X182705333Y-78163800D01*
X182800571Y-78116180D01*
X183038666Y-78116180D01*
X183133904Y-78163800D01*
X183181523Y-78211419D01*
X183229142Y-78306657D01*
X183229142Y-78401895D01*
X183181523Y-78544752D01*
X182610095Y-79116180D01*
X183229142Y-79116180D01*
X183800571Y-78544752D02*
X183705333Y-78497133D01*
X183657714Y-78449514D01*
X183610095Y-78354276D01*
X183610095Y-78306657D01*
X183657714Y-78211419D01*
X183705333Y-78163800D01*
X183800571Y-78116180D01*
X183991047Y-78116180D01*
X184086285Y-78163800D01*
X184133904Y-78211419D01*
X184181523Y-78306657D01*
X184181523Y-78354276D01*
X184133904Y-78449514D01*
X184086285Y-78497133D01*
X183991047Y-78544752D01*
X183800571Y-78544752D01*
X183705333Y-78592371D01*
X183657714Y-78639990D01*
X183610095Y-78735228D01*
X183610095Y-78925704D01*
X183657714Y-79020942D01*
X183705333Y-79068561D01*
X183800571Y-79116180D01*
X183991047Y-79116180D01*
X184086285Y-79068561D01*
X184133904Y-79020942D01*
X184181523Y-78925704D01*
X184181523Y-78735228D01*
X184133904Y-78639990D01*
X184086285Y-78592371D01*
X183991047Y-78544752D01*
G04 #@! TO.C,SW29*
X185236076Y-40917761D02*
X185378933Y-40965380D01*
X185617028Y-40965380D01*
X185712266Y-40917761D01*
X185759885Y-40870142D01*
X185807504Y-40774904D01*
X185807504Y-40679666D01*
X185759885Y-40584428D01*
X185712266Y-40536809D01*
X185617028Y-40489190D01*
X185426552Y-40441571D01*
X185331314Y-40393952D01*
X185283695Y-40346333D01*
X185236076Y-40251095D01*
X185236076Y-40155857D01*
X185283695Y-40060619D01*
X185331314Y-40013000D01*
X185426552Y-39965380D01*
X185664647Y-39965380D01*
X185807504Y-40013000D01*
X186140838Y-39965380D02*
X186378933Y-40965380D01*
X186569409Y-40251095D01*
X186759885Y-40965380D01*
X186997980Y-39965380D01*
X187331314Y-40060619D02*
X187378933Y-40013000D01*
X187474171Y-39965380D01*
X187712266Y-39965380D01*
X187807504Y-40013000D01*
X187855123Y-40060619D01*
X187902742Y-40155857D01*
X187902742Y-40251095D01*
X187855123Y-40393952D01*
X187283695Y-40965380D01*
X187902742Y-40965380D01*
X188378933Y-40965380D02*
X188569409Y-40965380D01*
X188664647Y-40917761D01*
X188712266Y-40870142D01*
X188807504Y-40727285D01*
X188855123Y-40536809D01*
X188855123Y-40155857D01*
X188807504Y-40060619D01*
X188759885Y-40013000D01*
X188664647Y-39965380D01*
X188474171Y-39965380D01*
X188378933Y-40013000D01*
X188331314Y-40060619D01*
X188283695Y-40155857D01*
X188283695Y-40393952D01*
X188331314Y-40489190D01*
X188378933Y-40536809D01*
X188474171Y-40584428D01*
X188664647Y-40584428D01*
X188759885Y-40536809D01*
X188807504Y-40489190D01*
X188855123Y-40393952D01*
G04 #@! TO.C,SW30*
X190036676Y-60018561D02*
X190179533Y-60066180D01*
X190417628Y-60066180D01*
X190512866Y-60018561D01*
X190560485Y-59970942D01*
X190608104Y-59875704D01*
X190608104Y-59780466D01*
X190560485Y-59685228D01*
X190512866Y-59637609D01*
X190417628Y-59589990D01*
X190227152Y-59542371D01*
X190131914Y-59494752D01*
X190084295Y-59447133D01*
X190036676Y-59351895D01*
X190036676Y-59256657D01*
X190084295Y-59161419D01*
X190131914Y-59113800D01*
X190227152Y-59066180D01*
X190465247Y-59066180D01*
X190608104Y-59113800D01*
X190941438Y-59066180D02*
X191179533Y-60066180D01*
X191370009Y-59351895D01*
X191560485Y-60066180D01*
X191798580Y-59066180D01*
X192084295Y-59066180D02*
X192703342Y-59066180D01*
X192370009Y-59447133D01*
X192512866Y-59447133D01*
X192608104Y-59494752D01*
X192655723Y-59542371D01*
X192703342Y-59637609D01*
X192703342Y-59875704D01*
X192655723Y-59970942D01*
X192608104Y-60018561D01*
X192512866Y-60066180D01*
X192227152Y-60066180D01*
X192131914Y-60018561D01*
X192084295Y-59970942D01*
X193322390Y-59066180D02*
X193417628Y-59066180D01*
X193512866Y-59113800D01*
X193560485Y-59161419D01*
X193608104Y-59256657D01*
X193655723Y-59447133D01*
X193655723Y-59685228D01*
X193608104Y-59875704D01*
X193560485Y-59970942D01*
X193512866Y-60018561D01*
X193417628Y-60066180D01*
X193322390Y-60066180D01*
X193227152Y-60018561D01*
X193179533Y-59970942D01*
X193131914Y-59875704D01*
X193084295Y-59685228D01*
X193084295Y-59447133D01*
X193131914Y-59256657D01*
X193179533Y-59161419D01*
X193227152Y-59113800D01*
X193322390Y-59066180D01*
G04 #@! TO.C,SW31*
X199587076Y-79043161D02*
X199729933Y-79090780D01*
X199968028Y-79090780D01*
X200063266Y-79043161D01*
X200110885Y-78995542D01*
X200158504Y-78900304D01*
X200158504Y-78805066D01*
X200110885Y-78709828D01*
X200063266Y-78662209D01*
X199968028Y-78614590D01*
X199777552Y-78566971D01*
X199682314Y-78519352D01*
X199634695Y-78471733D01*
X199587076Y-78376495D01*
X199587076Y-78281257D01*
X199634695Y-78186019D01*
X199682314Y-78138400D01*
X199777552Y-78090780D01*
X200015647Y-78090780D01*
X200158504Y-78138400D01*
X200491838Y-78090780D02*
X200729933Y-79090780D01*
X200920409Y-78376495D01*
X201110885Y-79090780D01*
X201348980Y-78090780D01*
X201634695Y-78090780D02*
X202253742Y-78090780D01*
X201920409Y-78471733D01*
X202063266Y-78471733D01*
X202158504Y-78519352D01*
X202206123Y-78566971D01*
X202253742Y-78662209D01*
X202253742Y-78900304D01*
X202206123Y-78995542D01*
X202158504Y-79043161D01*
X202063266Y-79090780D01*
X201777552Y-79090780D01*
X201682314Y-79043161D01*
X201634695Y-78995542D01*
X203206123Y-79090780D02*
X202634695Y-79090780D01*
X202920409Y-79090780D02*
X202920409Y-78090780D01*
X202825171Y-78233638D01*
X202729933Y-78328876D01*
X202634695Y-78376495D01*
G04 #@! TO.C,SW32*
X204311476Y-98067761D02*
X204454333Y-98115380D01*
X204692428Y-98115380D01*
X204787666Y-98067761D01*
X204835285Y-98020142D01*
X204882904Y-97924904D01*
X204882904Y-97829666D01*
X204835285Y-97734428D01*
X204787666Y-97686809D01*
X204692428Y-97639190D01*
X204501952Y-97591571D01*
X204406714Y-97543952D01*
X204359095Y-97496333D01*
X204311476Y-97401095D01*
X204311476Y-97305857D01*
X204359095Y-97210619D01*
X204406714Y-97163000D01*
X204501952Y-97115380D01*
X204740047Y-97115380D01*
X204882904Y-97163000D01*
X205216238Y-97115380D02*
X205454333Y-98115380D01*
X205644809Y-97401095D01*
X205835285Y-98115380D01*
X206073380Y-97115380D01*
X206359095Y-97115380D02*
X206978142Y-97115380D01*
X206644809Y-97496333D01*
X206787666Y-97496333D01*
X206882904Y-97543952D01*
X206930523Y-97591571D01*
X206978142Y-97686809D01*
X206978142Y-97924904D01*
X206930523Y-98020142D01*
X206882904Y-98067761D01*
X206787666Y-98115380D01*
X206501952Y-98115380D01*
X206406714Y-98067761D01*
X206359095Y-98020142D01*
X207359095Y-97210619D02*
X207406714Y-97163000D01*
X207501952Y-97115380D01*
X207740047Y-97115380D01*
X207835285Y-97163000D01*
X207882904Y-97210619D01*
X207930523Y-97305857D01*
X207930523Y-97401095D01*
X207882904Y-97543952D01*
X207311476Y-98115380D01*
X207930523Y-98115380D01*
G04 #@! TO.C,SW33*
X204311476Y-40943161D02*
X204454333Y-40990780D01*
X204692428Y-40990780D01*
X204787666Y-40943161D01*
X204835285Y-40895542D01*
X204882904Y-40800304D01*
X204882904Y-40705066D01*
X204835285Y-40609828D01*
X204787666Y-40562209D01*
X204692428Y-40514590D01*
X204501952Y-40466971D01*
X204406714Y-40419352D01*
X204359095Y-40371733D01*
X204311476Y-40276495D01*
X204311476Y-40181257D01*
X204359095Y-40086019D01*
X204406714Y-40038400D01*
X204501952Y-39990780D01*
X204740047Y-39990780D01*
X204882904Y-40038400D01*
X205216238Y-39990780D02*
X205454333Y-40990780D01*
X205644809Y-40276495D01*
X205835285Y-40990780D01*
X206073380Y-39990780D01*
X206359095Y-39990780D02*
X206978142Y-39990780D01*
X206644809Y-40371733D01*
X206787666Y-40371733D01*
X206882904Y-40419352D01*
X206930523Y-40466971D01*
X206978142Y-40562209D01*
X206978142Y-40800304D01*
X206930523Y-40895542D01*
X206882904Y-40943161D01*
X206787666Y-40990780D01*
X206501952Y-40990780D01*
X206406714Y-40943161D01*
X206359095Y-40895542D01*
X207311476Y-39990780D02*
X207930523Y-39990780D01*
X207597190Y-40371733D01*
X207740047Y-40371733D01*
X207835285Y-40419352D01*
X207882904Y-40466971D01*
X207930523Y-40562209D01*
X207930523Y-40800304D01*
X207882904Y-40895542D01*
X207835285Y-40943161D01*
X207740047Y-40990780D01*
X207454333Y-40990780D01*
X207359095Y-40943161D01*
X207311476Y-40895542D01*
G04 #@! TO.C,SW34*
X209086676Y-59967761D02*
X209229533Y-60015380D01*
X209467628Y-60015380D01*
X209562866Y-59967761D01*
X209610485Y-59920142D01*
X209658104Y-59824904D01*
X209658104Y-59729666D01*
X209610485Y-59634428D01*
X209562866Y-59586809D01*
X209467628Y-59539190D01*
X209277152Y-59491571D01*
X209181914Y-59443952D01*
X209134295Y-59396333D01*
X209086676Y-59301095D01*
X209086676Y-59205857D01*
X209134295Y-59110619D01*
X209181914Y-59063000D01*
X209277152Y-59015380D01*
X209515247Y-59015380D01*
X209658104Y-59063000D01*
X209991438Y-59015380D02*
X210229533Y-60015380D01*
X210420009Y-59301095D01*
X210610485Y-60015380D01*
X210848580Y-59015380D01*
X211134295Y-59015380D02*
X211753342Y-59015380D01*
X211420009Y-59396333D01*
X211562866Y-59396333D01*
X211658104Y-59443952D01*
X211705723Y-59491571D01*
X211753342Y-59586809D01*
X211753342Y-59824904D01*
X211705723Y-59920142D01*
X211658104Y-59967761D01*
X211562866Y-60015380D01*
X211277152Y-60015380D01*
X211181914Y-59967761D01*
X211134295Y-59920142D01*
X212610485Y-59348714D02*
X212610485Y-60015380D01*
X212372390Y-58967761D02*
X212134295Y-59682047D01*
X212753342Y-59682047D01*
G04 #@! TO.C,SW35*
X218611676Y-79017761D02*
X218754533Y-79065380D01*
X218992628Y-79065380D01*
X219087866Y-79017761D01*
X219135485Y-78970142D01*
X219183104Y-78874904D01*
X219183104Y-78779666D01*
X219135485Y-78684428D01*
X219087866Y-78636809D01*
X218992628Y-78589190D01*
X218802152Y-78541571D01*
X218706914Y-78493952D01*
X218659295Y-78446333D01*
X218611676Y-78351095D01*
X218611676Y-78255857D01*
X218659295Y-78160619D01*
X218706914Y-78113000D01*
X218802152Y-78065380D01*
X219040247Y-78065380D01*
X219183104Y-78113000D01*
X219516438Y-78065380D02*
X219754533Y-79065380D01*
X219945009Y-78351095D01*
X220135485Y-79065380D01*
X220373580Y-78065380D01*
X220659295Y-78065380D02*
X221278342Y-78065380D01*
X220945009Y-78446333D01*
X221087866Y-78446333D01*
X221183104Y-78493952D01*
X221230723Y-78541571D01*
X221278342Y-78636809D01*
X221278342Y-78874904D01*
X221230723Y-78970142D01*
X221183104Y-79017761D01*
X221087866Y-79065380D01*
X220802152Y-79065380D01*
X220706914Y-79017761D01*
X220659295Y-78970142D01*
X222183104Y-78065380D02*
X221706914Y-78065380D01*
X221659295Y-78541571D01*
X221706914Y-78493952D01*
X221802152Y-78446333D01*
X222040247Y-78446333D01*
X222135485Y-78493952D01*
X222183104Y-78541571D01*
X222230723Y-78636809D01*
X222230723Y-78874904D01*
X222183104Y-78970142D01*
X222135485Y-79017761D01*
X222040247Y-79065380D01*
X221802152Y-79065380D01*
X221706914Y-79017761D01*
X221659295Y-78970142D01*
G04 #@! TO.C,SW36*
X223310676Y-98118561D02*
X223453533Y-98166180D01*
X223691628Y-98166180D01*
X223786866Y-98118561D01*
X223834485Y-98070942D01*
X223882104Y-97975704D01*
X223882104Y-97880466D01*
X223834485Y-97785228D01*
X223786866Y-97737609D01*
X223691628Y-97689990D01*
X223501152Y-97642371D01*
X223405914Y-97594752D01*
X223358295Y-97547133D01*
X223310676Y-97451895D01*
X223310676Y-97356657D01*
X223358295Y-97261419D01*
X223405914Y-97213800D01*
X223501152Y-97166180D01*
X223739247Y-97166180D01*
X223882104Y-97213800D01*
X224215438Y-97166180D02*
X224453533Y-98166180D01*
X224644009Y-97451895D01*
X224834485Y-98166180D01*
X225072580Y-97166180D01*
X225358295Y-97166180D02*
X225977342Y-97166180D01*
X225644009Y-97547133D01*
X225786866Y-97547133D01*
X225882104Y-97594752D01*
X225929723Y-97642371D01*
X225977342Y-97737609D01*
X225977342Y-97975704D01*
X225929723Y-98070942D01*
X225882104Y-98118561D01*
X225786866Y-98166180D01*
X225501152Y-98166180D01*
X225405914Y-98118561D01*
X225358295Y-98070942D01*
X226834485Y-97166180D02*
X226644009Y-97166180D01*
X226548771Y-97213800D01*
X226501152Y-97261419D01*
X226405914Y-97404276D01*
X226358295Y-97594752D01*
X226358295Y-97975704D01*
X226405914Y-98070942D01*
X226453533Y-98118561D01*
X226548771Y-98166180D01*
X226739247Y-98166180D01*
X226834485Y-98118561D01*
X226882104Y-98070942D01*
X226929723Y-97975704D01*
X226929723Y-97737609D01*
X226882104Y-97642371D01*
X226834485Y-97594752D01*
X226739247Y-97547133D01*
X226548771Y-97547133D01*
X226453533Y-97594752D01*
X226405914Y-97642371D01*
X226358295Y-97737609D01*
G04 #@! TO.C,SW39*
X237687076Y-79093961D02*
X237829933Y-79141580D01*
X238068028Y-79141580D01*
X238163266Y-79093961D01*
X238210885Y-79046342D01*
X238258504Y-78951104D01*
X238258504Y-78855866D01*
X238210885Y-78760628D01*
X238163266Y-78713009D01*
X238068028Y-78665390D01*
X237877552Y-78617771D01*
X237782314Y-78570152D01*
X237734695Y-78522533D01*
X237687076Y-78427295D01*
X237687076Y-78332057D01*
X237734695Y-78236819D01*
X237782314Y-78189200D01*
X237877552Y-78141580D01*
X238115647Y-78141580D01*
X238258504Y-78189200D01*
X238591838Y-78141580D02*
X238829933Y-79141580D01*
X239020409Y-78427295D01*
X239210885Y-79141580D01*
X239448980Y-78141580D01*
X239734695Y-78141580D02*
X240353742Y-78141580D01*
X240020409Y-78522533D01*
X240163266Y-78522533D01*
X240258504Y-78570152D01*
X240306123Y-78617771D01*
X240353742Y-78713009D01*
X240353742Y-78951104D01*
X240306123Y-79046342D01*
X240258504Y-79093961D01*
X240163266Y-79141580D01*
X239877552Y-79141580D01*
X239782314Y-79093961D01*
X239734695Y-79046342D01*
X240829933Y-79141580D02*
X241020409Y-79141580D01*
X241115647Y-79093961D01*
X241163266Y-79046342D01*
X241258504Y-78903485D01*
X241306123Y-78713009D01*
X241306123Y-78332057D01*
X241258504Y-78236819D01*
X241210885Y-78189200D01*
X241115647Y-78141580D01*
X240925171Y-78141580D01*
X240829933Y-78189200D01*
X240782314Y-78236819D01*
X240734695Y-78332057D01*
X240734695Y-78570152D01*
X240782314Y-78665390D01*
X240829933Y-78713009D01*
X240925171Y-78760628D01*
X241115647Y-78760628D01*
X241210885Y-78713009D01*
X241258504Y-78665390D01*
X241306123Y-78570152D01*
G04 #@! TO.C,SW40*
X242436876Y-98118561D02*
X242579733Y-98166180D01*
X242817828Y-98166180D01*
X242913066Y-98118561D01*
X242960685Y-98070942D01*
X243008304Y-97975704D01*
X243008304Y-97880466D01*
X242960685Y-97785228D01*
X242913066Y-97737609D01*
X242817828Y-97689990D01*
X242627352Y-97642371D01*
X242532114Y-97594752D01*
X242484495Y-97547133D01*
X242436876Y-97451895D01*
X242436876Y-97356657D01*
X242484495Y-97261419D01*
X242532114Y-97213800D01*
X242627352Y-97166180D01*
X242865447Y-97166180D01*
X243008304Y-97213800D01*
X243341638Y-97166180D02*
X243579733Y-98166180D01*
X243770209Y-97451895D01*
X243960685Y-98166180D01*
X244198780Y-97166180D01*
X245008304Y-97499514D02*
X245008304Y-98166180D01*
X244770209Y-97118561D02*
X244532114Y-97832847D01*
X245151161Y-97832847D01*
X245722590Y-97166180D02*
X245817828Y-97166180D01*
X245913066Y-97213800D01*
X245960685Y-97261419D01*
X246008304Y-97356657D01*
X246055923Y-97547133D01*
X246055923Y-97785228D01*
X246008304Y-97975704D01*
X245960685Y-98070942D01*
X245913066Y-98118561D01*
X245817828Y-98166180D01*
X245722590Y-98166180D01*
X245627352Y-98118561D01*
X245579733Y-98070942D01*
X245532114Y-97975704D01*
X245484495Y-97785228D01*
X245484495Y-97547133D01*
X245532114Y-97356657D01*
X245579733Y-97261419D01*
X245627352Y-97213800D01*
X245722590Y-97166180D01*
G04 #@! TO.C,SW41*
X242411476Y-40968561D02*
X242554333Y-41016180D01*
X242792428Y-41016180D01*
X242887666Y-40968561D01*
X242935285Y-40920942D01*
X242982904Y-40825704D01*
X242982904Y-40730466D01*
X242935285Y-40635228D01*
X242887666Y-40587609D01*
X242792428Y-40539990D01*
X242601952Y-40492371D01*
X242506714Y-40444752D01*
X242459095Y-40397133D01*
X242411476Y-40301895D01*
X242411476Y-40206657D01*
X242459095Y-40111419D01*
X242506714Y-40063800D01*
X242601952Y-40016180D01*
X242840047Y-40016180D01*
X242982904Y-40063800D01*
X243316238Y-40016180D02*
X243554333Y-41016180D01*
X243744809Y-40301895D01*
X243935285Y-41016180D01*
X244173380Y-40016180D01*
X244982904Y-40349514D02*
X244982904Y-41016180D01*
X244744809Y-39968561D02*
X244506714Y-40682847D01*
X245125761Y-40682847D01*
X246030523Y-41016180D02*
X245459095Y-41016180D01*
X245744809Y-41016180D02*
X245744809Y-40016180D01*
X245649571Y-40159038D01*
X245554333Y-40254276D01*
X245459095Y-40301895D01*
G04 #@! TO.C,SW42*
X254324076Y-59993161D02*
X254466933Y-60040780D01*
X254705028Y-60040780D01*
X254800266Y-59993161D01*
X254847885Y-59945542D01*
X254895504Y-59850304D01*
X254895504Y-59755066D01*
X254847885Y-59659828D01*
X254800266Y-59612209D01*
X254705028Y-59564590D01*
X254514552Y-59516971D01*
X254419314Y-59469352D01*
X254371695Y-59421733D01*
X254324076Y-59326495D01*
X254324076Y-59231257D01*
X254371695Y-59136019D01*
X254419314Y-59088400D01*
X254514552Y-59040780D01*
X254752647Y-59040780D01*
X254895504Y-59088400D01*
X255228838Y-59040780D02*
X255466933Y-60040780D01*
X255657409Y-59326495D01*
X255847885Y-60040780D01*
X256085980Y-59040780D01*
X256895504Y-59374114D02*
X256895504Y-60040780D01*
X256657409Y-58993161D02*
X256419314Y-59707447D01*
X257038361Y-59707447D01*
X257371695Y-59136019D02*
X257419314Y-59088400D01*
X257514552Y-59040780D01*
X257752647Y-59040780D01*
X257847885Y-59088400D01*
X257895504Y-59136019D01*
X257943123Y-59231257D01*
X257943123Y-59326495D01*
X257895504Y-59469352D01*
X257324076Y-60040780D01*
X257943123Y-60040780D01*
G04 #@! TO.C,SW43*
X259073876Y-79017761D02*
X259216733Y-79065380D01*
X259454828Y-79065380D01*
X259550066Y-79017761D01*
X259597685Y-78970142D01*
X259645304Y-78874904D01*
X259645304Y-78779666D01*
X259597685Y-78684428D01*
X259550066Y-78636809D01*
X259454828Y-78589190D01*
X259264352Y-78541571D01*
X259169114Y-78493952D01*
X259121495Y-78446333D01*
X259073876Y-78351095D01*
X259073876Y-78255857D01*
X259121495Y-78160619D01*
X259169114Y-78113000D01*
X259264352Y-78065380D01*
X259502447Y-78065380D01*
X259645304Y-78113000D01*
X259978638Y-78065380D02*
X260216733Y-79065380D01*
X260407209Y-78351095D01*
X260597685Y-79065380D01*
X260835780Y-78065380D01*
X261645304Y-78398714D02*
X261645304Y-79065380D01*
X261407209Y-78017761D02*
X261169114Y-78732047D01*
X261788161Y-78732047D01*
X262073876Y-78065380D02*
X262692923Y-78065380D01*
X262359590Y-78446333D01*
X262502447Y-78446333D01*
X262597685Y-78493952D01*
X262645304Y-78541571D01*
X262692923Y-78636809D01*
X262692923Y-78874904D01*
X262645304Y-78970142D01*
X262597685Y-79017761D01*
X262502447Y-79065380D01*
X262216733Y-79065380D01*
X262121495Y-79017761D01*
X262073876Y-78970142D01*
G04 #@! TO.C,SW44*
X261537676Y-98093161D02*
X261680533Y-98140780D01*
X261918628Y-98140780D01*
X262013866Y-98093161D01*
X262061485Y-98045542D01*
X262109104Y-97950304D01*
X262109104Y-97855066D01*
X262061485Y-97759828D01*
X262013866Y-97712209D01*
X261918628Y-97664590D01*
X261728152Y-97616971D01*
X261632914Y-97569352D01*
X261585295Y-97521733D01*
X261537676Y-97426495D01*
X261537676Y-97331257D01*
X261585295Y-97236019D01*
X261632914Y-97188400D01*
X261728152Y-97140780D01*
X261966247Y-97140780D01*
X262109104Y-97188400D01*
X262442438Y-97140780D02*
X262680533Y-98140780D01*
X262871009Y-97426495D01*
X263061485Y-98140780D01*
X263299580Y-97140780D01*
X264109104Y-97474114D02*
X264109104Y-98140780D01*
X263871009Y-97093161D02*
X263632914Y-97807447D01*
X264251961Y-97807447D01*
X265061485Y-97474114D02*
X265061485Y-98140780D01*
X264823390Y-97093161D02*
X264585295Y-97807447D01*
X265204342Y-97807447D01*
G04 #@! TO.C,SW45*
X261486876Y-40968561D02*
X261629733Y-41016180D01*
X261867828Y-41016180D01*
X261963066Y-40968561D01*
X262010685Y-40920942D01*
X262058304Y-40825704D01*
X262058304Y-40730466D01*
X262010685Y-40635228D01*
X261963066Y-40587609D01*
X261867828Y-40539990D01*
X261677352Y-40492371D01*
X261582114Y-40444752D01*
X261534495Y-40397133D01*
X261486876Y-40301895D01*
X261486876Y-40206657D01*
X261534495Y-40111419D01*
X261582114Y-40063800D01*
X261677352Y-40016180D01*
X261915447Y-40016180D01*
X262058304Y-40063800D01*
X262391638Y-40016180D02*
X262629733Y-41016180D01*
X262820209Y-40301895D01*
X263010685Y-41016180D01*
X263248780Y-40016180D01*
X264058304Y-40349514D02*
X264058304Y-41016180D01*
X263820209Y-39968561D02*
X263582114Y-40682847D01*
X264201161Y-40682847D01*
X265058304Y-40016180D02*
X264582114Y-40016180D01*
X264534495Y-40492371D01*
X264582114Y-40444752D01*
X264677352Y-40397133D01*
X264915447Y-40397133D01*
X265010685Y-40444752D01*
X265058304Y-40492371D01*
X265105923Y-40587609D01*
X265105923Y-40825704D01*
X265058304Y-40920942D01*
X265010685Y-40968561D01*
X264915447Y-41016180D01*
X264677352Y-41016180D01*
X264582114Y-40968561D01*
X264534495Y-40920942D01*
G04 #@! TD*
M02*
