G04 #@! TF.GenerationSoftware,KiCad,Pcbnew,(5.0.2)-1*
G04 #@! TF.CreationDate,2019-02-24T12:13:47-05:00*
G04 #@! TF.ProjectId,TG4x,54473478-2e6b-4696-9361-645f70636258,rev?*
G04 #@! TF.SameCoordinates,Original*
G04 #@! TF.FileFunction,Soldermask,Bot*
G04 #@! TF.FilePolarity,Negative*
%FSLAX46Y46*%
G04 Gerber Fmt 4.6, Leading zero omitted, Abs format (unit mm)*
G04 Created by KiCad (PCBNEW (5.0.2)-1) date 2/24/2019 12:13:47 PM*
%MOMM*%
%LPD*%
G01*
G04 APERTURE LIST*
%ADD10C,0.100000*%
G04 APERTURE END LIST*
D10*
G36*
X255994000Y-111595000D02*
X254292000Y-111595000D01*
X254292000Y-109893000D01*
X255994000Y-109893000D01*
X255994000Y-111595000D01*
X255994000Y-111595000D01*
G37*
G36*
X253517500Y-111595000D02*
X251815500Y-111595000D01*
X251815500Y-109893000D01*
X253517500Y-109893000D01*
X253517500Y-111595000D01*
X253517500Y-111595000D01*
G37*
G36*
X131407000Y-111595000D02*
X129705000Y-111595000D01*
X129705000Y-109893000D01*
X131407000Y-109893000D01*
X131407000Y-111595000D01*
X131407000Y-111595000D01*
G37*
G36*
X217182800Y-111595000D02*
X215480800Y-111595000D01*
X215480800Y-109893000D01*
X217182800Y-109893000D01*
X217182800Y-111595000D01*
X217182800Y-111595000D01*
G37*
G36*
X62700000Y-111468000D02*
X60998000Y-111468000D01*
X60998000Y-109766000D01*
X62700000Y-109766000D01*
X62700000Y-111468000D01*
X62700000Y-111468000D01*
G37*
G36*
X65087600Y-111468000D02*
X63385600Y-111468000D01*
X63385600Y-109766000D01*
X65087600Y-109766000D01*
X65087600Y-111468000D01*
X65087600Y-111468000D01*
G37*
G36*
X197980400Y-111468000D02*
X196278400Y-111468000D01*
X196278400Y-109766000D01*
X197980400Y-109766000D01*
X197980400Y-111468000D01*
X197980400Y-111468000D01*
G37*
G36*
X195275000Y-108247000D02*
X193673000Y-108247000D01*
X193673000Y-107145000D01*
X195275000Y-107145000D01*
X195275000Y-108247000D01*
X195275000Y-108247000D01*
G37*
G36*
X190375000Y-108247000D02*
X188773000Y-108247000D01*
X188773000Y-107145000D01*
X190375000Y-107145000D01*
X190375000Y-108247000D01*
X190375000Y-108247000D01*
G37*
G36*
X157683000Y-108069000D02*
X156081000Y-108069000D01*
X156081000Y-106967000D01*
X157683000Y-106967000D01*
X157683000Y-108069000D01*
X157683000Y-108069000D01*
G37*
G36*
X152783000Y-108069000D02*
X151181000Y-108069000D01*
X151181000Y-106967000D01*
X152783000Y-106967000D01*
X152783000Y-108069000D01*
X152783000Y-108069000D01*
G37*
G36*
X122557000Y-108069000D02*
X120955000Y-108069000D01*
X120955000Y-106967000D01*
X122557000Y-106967000D01*
X122557000Y-108069000D01*
X122557000Y-108069000D01*
G37*
G36*
X127457000Y-108069000D02*
X125855000Y-108069000D01*
X125855000Y-106967000D01*
X127457000Y-106967000D01*
X127457000Y-108069000D01*
X127457000Y-108069000D01*
G37*
G36*
X83441000Y-107993000D02*
X81839000Y-107993000D01*
X81839000Y-106891000D01*
X83441000Y-106891000D01*
X83441000Y-107993000D01*
X83441000Y-107993000D01*
G37*
G36*
X88341000Y-107993000D02*
X86739000Y-107993000D01*
X86739000Y-106891000D01*
X88341000Y-106891000D01*
X88341000Y-107993000D01*
X88341000Y-107993000D01*
G37*
G36*
X47219500Y-107866000D02*
X45617500Y-107866000D01*
X45617500Y-106764000D01*
X47219500Y-106764000D01*
X47219500Y-107866000D01*
X47219500Y-107866000D01*
G37*
G36*
X42319500Y-107866000D02*
X40717500Y-107866000D01*
X40717500Y-106764000D01*
X42319500Y-106764000D01*
X42319500Y-107866000D01*
X42319500Y-107866000D01*
G37*
G36*
X237910000Y-107827500D02*
X236308000Y-107827500D01*
X236308000Y-106725500D01*
X237910000Y-106725500D01*
X237910000Y-107827500D01*
X237910000Y-107827500D01*
G37*
G36*
X233010000Y-107827500D02*
X231408000Y-107827500D01*
X231408000Y-106725500D01*
X233010000Y-106725500D01*
X233010000Y-107827500D01*
X233010000Y-107827500D01*
G37*
G36*
X190375000Y-105047000D02*
X188773000Y-105047000D01*
X188773000Y-103945000D01*
X190375000Y-103945000D01*
X190375000Y-105047000D01*
X190375000Y-105047000D01*
G37*
G36*
X195275000Y-105047000D02*
X193673000Y-105047000D01*
X193673000Y-103945000D01*
X195275000Y-103945000D01*
X195275000Y-105047000D01*
X195275000Y-105047000D01*
G37*
G36*
X152783000Y-104869000D02*
X151181000Y-104869000D01*
X151181000Y-103767000D01*
X152783000Y-103767000D01*
X152783000Y-104869000D01*
X152783000Y-104869000D01*
G37*
G36*
X157683000Y-104869000D02*
X156081000Y-104869000D01*
X156081000Y-103767000D01*
X157683000Y-103767000D01*
X157683000Y-104869000D01*
X157683000Y-104869000D01*
G37*
G36*
X122557000Y-104869000D02*
X120955000Y-104869000D01*
X120955000Y-103767000D01*
X122557000Y-103767000D01*
X122557000Y-104869000D01*
X122557000Y-104869000D01*
G37*
G36*
X127457000Y-104869000D02*
X125855000Y-104869000D01*
X125855000Y-103767000D01*
X127457000Y-103767000D01*
X127457000Y-104869000D01*
X127457000Y-104869000D01*
G37*
G36*
X83441000Y-104793000D02*
X81839000Y-104793000D01*
X81839000Y-103691000D01*
X83441000Y-103691000D01*
X83441000Y-104793000D01*
X83441000Y-104793000D01*
G37*
G36*
X88341000Y-104793000D02*
X86739000Y-104793000D01*
X86739000Y-103691000D01*
X88341000Y-103691000D01*
X88341000Y-104793000D01*
X88341000Y-104793000D01*
G37*
G36*
X42319500Y-104666000D02*
X40717500Y-104666000D01*
X40717500Y-103564000D01*
X42319500Y-103564000D01*
X42319500Y-104666000D01*
X42319500Y-104666000D01*
G37*
G36*
X47219500Y-104666000D02*
X45617500Y-104666000D01*
X45617500Y-103564000D01*
X47219500Y-103564000D01*
X47219500Y-104666000D01*
X47219500Y-104666000D01*
G37*
G36*
X237910000Y-104627500D02*
X236308000Y-104627500D01*
X236308000Y-103525500D01*
X237910000Y-103525500D01*
X237910000Y-104627500D01*
X237910000Y-104627500D01*
G37*
G36*
X233010000Y-104627500D02*
X231408000Y-104627500D01*
X231408000Y-103525500D01*
X233010000Y-103525500D01*
X233010000Y-104627500D01*
X233010000Y-104627500D01*
G37*
G36*
X135984277Y-101975885D02*
X136201572Y-102065891D01*
X136397131Y-102196560D01*
X136563440Y-102362869D01*
X136694109Y-102558428D01*
X136784115Y-102775723D01*
X136830000Y-103006401D01*
X136830000Y-103241599D01*
X136784115Y-103472277D01*
X136694109Y-103689572D01*
X136563440Y-103885131D01*
X136397131Y-104051440D01*
X136201572Y-104182109D01*
X135984277Y-104272115D01*
X135753599Y-104318000D01*
X135518401Y-104318000D01*
X135287723Y-104272115D01*
X135070428Y-104182109D01*
X134874869Y-104051440D01*
X134708560Y-103885131D01*
X134577891Y-103689572D01*
X134487885Y-103472277D01*
X134442000Y-103241599D01*
X134442000Y-103006401D01*
X134487885Y-102775723D01*
X134577891Y-102558428D01*
X134708560Y-102362869D01*
X134874869Y-102196560D01*
X135070428Y-102065891D01*
X135287723Y-101975885D01*
X135518401Y-101930000D01*
X135753599Y-101930000D01*
X135984277Y-101975885D01*
X135984277Y-101975885D01*
G37*
G36*
X240886277Y-101975885D02*
X241103572Y-102065891D01*
X241299131Y-102196560D01*
X241465440Y-102362869D01*
X241596109Y-102558428D01*
X241686115Y-102775723D01*
X241732000Y-103006401D01*
X241732000Y-103241599D01*
X241686115Y-103472277D01*
X241596109Y-103689572D01*
X241465440Y-103885131D01*
X241299131Y-104051440D01*
X241103572Y-104182109D01*
X240886277Y-104272115D01*
X240655599Y-104318000D01*
X240420401Y-104318000D01*
X240189723Y-104272115D01*
X239972428Y-104182109D01*
X239776869Y-104051440D01*
X239610560Y-103885131D01*
X239479891Y-103689572D01*
X239389885Y-103472277D01*
X239344000Y-103241599D01*
X239344000Y-103006401D01*
X239389885Y-102775723D01*
X239479891Y-102558428D01*
X239610560Y-102362869D01*
X239776869Y-102196560D01*
X239972428Y-102065891D01*
X240189723Y-101975885D01*
X240420401Y-101930000D01*
X240655599Y-101930000D01*
X240886277Y-101975885D01*
X240886277Y-101975885D01*
G37*
G36*
X221836277Y-101975885D02*
X222053572Y-102065891D01*
X222249131Y-102196560D01*
X222415440Y-102362869D01*
X222546109Y-102558428D01*
X222636115Y-102775723D01*
X222682000Y-103006401D01*
X222682000Y-103241599D01*
X222636115Y-103472277D01*
X222546109Y-103689572D01*
X222415440Y-103885131D01*
X222249131Y-104051440D01*
X222053572Y-104182109D01*
X221836277Y-104272115D01*
X221605599Y-104318000D01*
X221370401Y-104318000D01*
X221139723Y-104272115D01*
X220922428Y-104182109D01*
X220726869Y-104051440D01*
X220560560Y-103885131D01*
X220429891Y-103689572D01*
X220339885Y-103472277D01*
X220294000Y-103241599D01*
X220294000Y-103006401D01*
X220339885Y-102775723D01*
X220429891Y-102558428D01*
X220560560Y-102362869D01*
X220726869Y-102196560D01*
X220922428Y-102065891D01*
X221139723Y-101975885D01*
X221370401Y-101930000D01*
X221605599Y-101930000D01*
X221836277Y-101975885D01*
X221836277Y-101975885D01*
G37*
G36*
X50132277Y-101975885D02*
X50349572Y-102065891D01*
X50545131Y-102196560D01*
X50711440Y-102362869D01*
X50842109Y-102558428D01*
X50932115Y-102775723D01*
X50978000Y-103006401D01*
X50978000Y-103241599D01*
X50932115Y-103472277D01*
X50842109Y-103689572D01*
X50711440Y-103885131D01*
X50545131Y-104051440D01*
X50349572Y-104182109D01*
X50132277Y-104272115D01*
X49901599Y-104318000D01*
X49666401Y-104318000D01*
X49435723Y-104272115D01*
X49218428Y-104182109D01*
X49022869Y-104051440D01*
X48856560Y-103885131D01*
X48725891Y-103689572D01*
X48635885Y-103472277D01*
X48590000Y-103241599D01*
X48590000Y-103006401D01*
X48635885Y-102775723D01*
X48725891Y-102558428D01*
X48856560Y-102362869D01*
X49022869Y-102196560D01*
X49218428Y-102065891D01*
X49435723Y-101975885D01*
X49666401Y-101930000D01*
X49901599Y-101930000D01*
X50132277Y-101975885D01*
X50132277Y-101975885D01*
G37*
G36*
X31082277Y-101975885D02*
X31299572Y-102065891D01*
X31495131Y-102196560D01*
X31661440Y-102362869D01*
X31792109Y-102558428D01*
X31882115Y-102775723D01*
X31928000Y-103006401D01*
X31928000Y-103241599D01*
X31882115Y-103472277D01*
X31792109Y-103689572D01*
X31661440Y-103885131D01*
X31495131Y-104051440D01*
X31299572Y-104182109D01*
X31082277Y-104272115D01*
X30851599Y-104318000D01*
X30616401Y-104318000D01*
X30385723Y-104272115D01*
X30168428Y-104182109D01*
X29972869Y-104051440D01*
X29806560Y-103885131D01*
X29675891Y-103689572D01*
X29585885Y-103472277D01*
X29540000Y-103241599D01*
X29540000Y-103006401D01*
X29585885Y-102775723D01*
X29675891Y-102558428D01*
X29806560Y-102362869D01*
X29972869Y-102196560D01*
X30168428Y-102065891D01*
X30385723Y-101975885D01*
X30616401Y-101930000D01*
X30851599Y-101930000D01*
X31082277Y-101975885D01*
X31082277Y-101975885D01*
G37*
G36*
X69182277Y-101975885D02*
X69399572Y-102065891D01*
X69595131Y-102196560D01*
X69761440Y-102362869D01*
X69892109Y-102558428D01*
X69982115Y-102775723D01*
X70028000Y-103006401D01*
X70028000Y-103241599D01*
X69982115Y-103472277D01*
X69892109Y-103689572D01*
X69761440Y-103885131D01*
X69595131Y-104051440D01*
X69399572Y-104182109D01*
X69182277Y-104272115D01*
X68951599Y-104318000D01*
X68716401Y-104318000D01*
X68485723Y-104272115D01*
X68268428Y-104182109D01*
X68072869Y-104051440D01*
X67906560Y-103885131D01*
X67775891Y-103689572D01*
X67685885Y-103472277D01*
X67640000Y-103241599D01*
X67640000Y-103006401D01*
X67685885Y-102775723D01*
X67775891Y-102558428D01*
X67906560Y-102362869D01*
X68072869Y-102196560D01*
X68268428Y-102065891D01*
X68485723Y-101975885D01*
X68716401Y-101930000D01*
X68951599Y-101930000D01*
X69182277Y-101975885D01*
X69182277Y-101975885D01*
G37*
G36*
X202786277Y-101975885D02*
X203003572Y-102065891D01*
X203199131Y-102196560D01*
X203365440Y-102362869D01*
X203496109Y-102558428D01*
X203586115Y-102775723D01*
X203632000Y-103006401D01*
X203632000Y-103241599D01*
X203586115Y-103472277D01*
X203496109Y-103689572D01*
X203365440Y-103885131D01*
X203199131Y-104051440D01*
X203003572Y-104182109D01*
X202786277Y-104272115D01*
X202555599Y-104318000D01*
X202320401Y-104318000D01*
X202089723Y-104272115D01*
X201872428Y-104182109D01*
X201676869Y-104051440D01*
X201510560Y-103885131D01*
X201379891Y-103689572D01*
X201289885Y-103472277D01*
X201244000Y-103241599D01*
X201244000Y-103006401D01*
X201289885Y-102775723D01*
X201379891Y-102558428D01*
X201510560Y-102362869D01*
X201676869Y-102196560D01*
X201872428Y-102065891D01*
X202089723Y-101975885D01*
X202320401Y-101930000D01*
X202555599Y-101930000D01*
X202786277Y-101975885D01*
X202786277Y-101975885D01*
G37*
G36*
X259936277Y-101975885D02*
X260153572Y-102065891D01*
X260349131Y-102196560D01*
X260515440Y-102362869D01*
X260646109Y-102558428D01*
X260736115Y-102775723D01*
X260782000Y-103006401D01*
X260782000Y-103241599D01*
X260736115Y-103472277D01*
X260646109Y-103689572D01*
X260515440Y-103885131D01*
X260349131Y-104051440D01*
X260153572Y-104182109D01*
X259936277Y-104272115D01*
X259705599Y-104318000D01*
X259470401Y-104318000D01*
X259239723Y-104272115D01*
X259022428Y-104182109D01*
X258826869Y-104051440D01*
X258660560Y-103885131D01*
X258529891Y-103689572D01*
X258439885Y-103472277D01*
X258394000Y-103241599D01*
X258394000Y-103006401D01*
X258439885Y-102775723D01*
X258529891Y-102558428D01*
X258660560Y-102362869D01*
X258826869Y-102196560D01*
X259022428Y-102065891D01*
X259239723Y-101975885D01*
X259470401Y-101930000D01*
X259705599Y-101930000D01*
X259936277Y-101975885D01*
X259936277Y-101975885D01*
G37*
G36*
X255309821Y-102285313D02*
X255309824Y-102285314D01*
X255309825Y-102285314D01*
X255470239Y-102333975D01*
X255470241Y-102333976D01*
X255470244Y-102333977D01*
X255618078Y-102412995D01*
X255747659Y-102519341D01*
X255854005Y-102648922D01*
X255933023Y-102796756D01*
X255981687Y-102957179D01*
X255998117Y-103124000D01*
X255981687Y-103290821D01*
X255933023Y-103451244D01*
X255854005Y-103599078D01*
X255747659Y-103728659D01*
X255618078Y-103835005D01*
X255470244Y-103914023D01*
X255470241Y-103914024D01*
X255470239Y-103914025D01*
X255309825Y-103962686D01*
X255309824Y-103962686D01*
X255309821Y-103962687D01*
X255184804Y-103975000D01*
X255101196Y-103975000D01*
X254976179Y-103962687D01*
X254976176Y-103962686D01*
X254976175Y-103962686D01*
X254815761Y-103914025D01*
X254815759Y-103914024D01*
X254815756Y-103914023D01*
X254667922Y-103835005D01*
X254538341Y-103728659D01*
X254431995Y-103599078D01*
X254352977Y-103451244D01*
X254304313Y-103290821D01*
X254287883Y-103124000D01*
X254304313Y-102957179D01*
X254352977Y-102796756D01*
X254431995Y-102648922D01*
X254538341Y-102519341D01*
X254667922Y-102412995D01*
X254815756Y-102333977D01*
X254815759Y-102333976D01*
X254815761Y-102333975D01*
X254976175Y-102285314D01*
X254976176Y-102285314D01*
X254976179Y-102285313D01*
X255101196Y-102273000D01*
X255184804Y-102273000D01*
X255309821Y-102285313D01*
X255309821Y-102285313D01*
G37*
G36*
X252833321Y-102285313D02*
X252833324Y-102285314D01*
X252833325Y-102285314D01*
X252993739Y-102333975D01*
X252993741Y-102333976D01*
X252993744Y-102333977D01*
X253141578Y-102412995D01*
X253271159Y-102519341D01*
X253377505Y-102648922D01*
X253456523Y-102796756D01*
X253505187Y-102957179D01*
X253521617Y-103124000D01*
X253505187Y-103290821D01*
X253456523Y-103451244D01*
X253377505Y-103599078D01*
X253271159Y-103728659D01*
X253141578Y-103835005D01*
X252993744Y-103914023D01*
X252993741Y-103914024D01*
X252993739Y-103914025D01*
X252833325Y-103962686D01*
X252833324Y-103962686D01*
X252833321Y-103962687D01*
X252708304Y-103975000D01*
X252624696Y-103975000D01*
X252499679Y-103962687D01*
X252499676Y-103962686D01*
X252499675Y-103962686D01*
X252339261Y-103914025D01*
X252339259Y-103914024D01*
X252339256Y-103914023D01*
X252191422Y-103835005D01*
X252061841Y-103728659D01*
X251955495Y-103599078D01*
X251876477Y-103451244D01*
X251827813Y-103290821D01*
X251811383Y-103124000D01*
X251827813Y-102957179D01*
X251876477Y-102796756D01*
X251955495Y-102648922D01*
X252061841Y-102519341D01*
X252191422Y-102412995D01*
X252339256Y-102333977D01*
X252339259Y-102333976D01*
X252339261Y-102333975D01*
X252499675Y-102285314D01*
X252499676Y-102285314D01*
X252499679Y-102285313D01*
X252624696Y-102273000D01*
X252708304Y-102273000D01*
X252833321Y-102285313D01*
X252833321Y-102285313D01*
G37*
G36*
X216498621Y-102285313D02*
X216498624Y-102285314D01*
X216498625Y-102285314D01*
X216659039Y-102333975D01*
X216659041Y-102333976D01*
X216659044Y-102333977D01*
X216806878Y-102412995D01*
X216936459Y-102519341D01*
X217042805Y-102648922D01*
X217121823Y-102796756D01*
X217170487Y-102957179D01*
X217186917Y-103124000D01*
X217170487Y-103290821D01*
X217121823Y-103451244D01*
X217042805Y-103599078D01*
X216936459Y-103728659D01*
X216806878Y-103835005D01*
X216659044Y-103914023D01*
X216659041Y-103914024D01*
X216659039Y-103914025D01*
X216498625Y-103962686D01*
X216498624Y-103962686D01*
X216498621Y-103962687D01*
X216373604Y-103975000D01*
X216289996Y-103975000D01*
X216164979Y-103962687D01*
X216164976Y-103962686D01*
X216164975Y-103962686D01*
X216004561Y-103914025D01*
X216004559Y-103914024D01*
X216004556Y-103914023D01*
X215856722Y-103835005D01*
X215727141Y-103728659D01*
X215620795Y-103599078D01*
X215541777Y-103451244D01*
X215493113Y-103290821D01*
X215476683Y-103124000D01*
X215493113Y-102957179D01*
X215541777Y-102796756D01*
X215620795Y-102648922D01*
X215727141Y-102519341D01*
X215856722Y-102412995D01*
X216004556Y-102333977D01*
X216004559Y-102333976D01*
X216004561Y-102333975D01*
X216164975Y-102285314D01*
X216164976Y-102285314D01*
X216164979Y-102285313D01*
X216289996Y-102273000D01*
X216373604Y-102273000D01*
X216498621Y-102285313D01*
X216498621Y-102285313D01*
G37*
G36*
X130722821Y-102285313D02*
X130722824Y-102285314D01*
X130722825Y-102285314D01*
X130883239Y-102333975D01*
X130883241Y-102333976D01*
X130883244Y-102333977D01*
X131031078Y-102412995D01*
X131160659Y-102519341D01*
X131267005Y-102648922D01*
X131346023Y-102796756D01*
X131394687Y-102957179D01*
X131411117Y-103124000D01*
X131394687Y-103290821D01*
X131346023Y-103451244D01*
X131267005Y-103599078D01*
X131160659Y-103728659D01*
X131031078Y-103835005D01*
X130883244Y-103914023D01*
X130883241Y-103914024D01*
X130883239Y-103914025D01*
X130722825Y-103962686D01*
X130722824Y-103962686D01*
X130722821Y-103962687D01*
X130597804Y-103975000D01*
X130514196Y-103975000D01*
X130389179Y-103962687D01*
X130389176Y-103962686D01*
X130389175Y-103962686D01*
X130228761Y-103914025D01*
X130228759Y-103914024D01*
X130228756Y-103914023D01*
X130080922Y-103835005D01*
X129951341Y-103728659D01*
X129844995Y-103599078D01*
X129765977Y-103451244D01*
X129717313Y-103290821D01*
X129700883Y-103124000D01*
X129717313Y-102957179D01*
X129765977Y-102796756D01*
X129844995Y-102648922D01*
X129951341Y-102519341D01*
X130080922Y-102412995D01*
X130228756Y-102333977D01*
X130228759Y-102333976D01*
X130228761Y-102333975D01*
X130389175Y-102285314D01*
X130389176Y-102285314D01*
X130389179Y-102285313D01*
X130514196Y-102273000D01*
X130597804Y-102273000D01*
X130722821Y-102285313D01*
X130722821Y-102285313D01*
G37*
G36*
X197296221Y-102158313D02*
X197296224Y-102158314D01*
X197296225Y-102158314D01*
X197456639Y-102206975D01*
X197456641Y-102206976D01*
X197456644Y-102206977D01*
X197604478Y-102285995D01*
X197734059Y-102392341D01*
X197840405Y-102521922D01*
X197919423Y-102669756D01*
X197968087Y-102830179D01*
X197984517Y-102997000D01*
X197968087Y-103163821D01*
X197968086Y-103163824D01*
X197968086Y-103163825D01*
X197944494Y-103241599D01*
X197919423Y-103324244D01*
X197840405Y-103472078D01*
X197734059Y-103601659D01*
X197604478Y-103708005D01*
X197456644Y-103787023D01*
X197456641Y-103787024D01*
X197456639Y-103787025D01*
X197296225Y-103835686D01*
X197296224Y-103835686D01*
X197296221Y-103835687D01*
X197171204Y-103848000D01*
X197087596Y-103848000D01*
X196962579Y-103835687D01*
X196962576Y-103835686D01*
X196962575Y-103835686D01*
X196802161Y-103787025D01*
X196802159Y-103787024D01*
X196802156Y-103787023D01*
X196654322Y-103708005D01*
X196524741Y-103601659D01*
X196418395Y-103472078D01*
X196339377Y-103324244D01*
X196314307Y-103241599D01*
X196290714Y-103163825D01*
X196290714Y-103163824D01*
X196290713Y-103163821D01*
X196274283Y-102997000D01*
X196290713Y-102830179D01*
X196339377Y-102669756D01*
X196418395Y-102521922D01*
X196524741Y-102392341D01*
X196654322Y-102285995D01*
X196802156Y-102206977D01*
X196802159Y-102206976D01*
X196802161Y-102206975D01*
X196962575Y-102158314D01*
X196962576Y-102158314D01*
X196962579Y-102158313D01*
X197087596Y-102146000D01*
X197171204Y-102146000D01*
X197296221Y-102158313D01*
X197296221Y-102158313D01*
G37*
G36*
X64403421Y-102158313D02*
X64403424Y-102158314D01*
X64403425Y-102158314D01*
X64563839Y-102206975D01*
X64563841Y-102206976D01*
X64563844Y-102206977D01*
X64711678Y-102285995D01*
X64841259Y-102392341D01*
X64947605Y-102521922D01*
X65026623Y-102669756D01*
X65075287Y-102830179D01*
X65091717Y-102997000D01*
X65075287Y-103163821D01*
X65075286Y-103163824D01*
X65075286Y-103163825D01*
X65051694Y-103241599D01*
X65026623Y-103324244D01*
X64947605Y-103472078D01*
X64841259Y-103601659D01*
X64711678Y-103708005D01*
X64563844Y-103787023D01*
X64563841Y-103787024D01*
X64563839Y-103787025D01*
X64403425Y-103835686D01*
X64403424Y-103835686D01*
X64403421Y-103835687D01*
X64278404Y-103848000D01*
X64194796Y-103848000D01*
X64069779Y-103835687D01*
X64069776Y-103835686D01*
X64069775Y-103835686D01*
X63909361Y-103787025D01*
X63909359Y-103787024D01*
X63909356Y-103787023D01*
X63761522Y-103708005D01*
X63631941Y-103601659D01*
X63525595Y-103472078D01*
X63446577Y-103324244D01*
X63421507Y-103241599D01*
X63397914Y-103163825D01*
X63397914Y-103163824D01*
X63397913Y-103163821D01*
X63381483Y-102997000D01*
X63397913Y-102830179D01*
X63446577Y-102669756D01*
X63525595Y-102521922D01*
X63631941Y-102392341D01*
X63761522Y-102285995D01*
X63909356Y-102206977D01*
X63909359Y-102206976D01*
X63909361Y-102206975D01*
X64069775Y-102158314D01*
X64069776Y-102158314D01*
X64069779Y-102158313D01*
X64194796Y-102146000D01*
X64278404Y-102146000D01*
X64403421Y-102158313D01*
X64403421Y-102158313D01*
G37*
G36*
X62015821Y-102158313D02*
X62015824Y-102158314D01*
X62015825Y-102158314D01*
X62176239Y-102206975D01*
X62176241Y-102206976D01*
X62176244Y-102206977D01*
X62324078Y-102285995D01*
X62453659Y-102392341D01*
X62560005Y-102521922D01*
X62639023Y-102669756D01*
X62687687Y-102830179D01*
X62704117Y-102997000D01*
X62687687Y-103163821D01*
X62687686Y-103163824D01*
X62687686Y-103163825D01*
X62664094Y-103241599D01*
X62639023Y-103324244D01*
X62560005Y-103472078D01*
X62453659Y-103601659D01*
X62324078Y-103708005D01*
X62176244Y-103787023D01*
X62176241Y-103787024D01*
X62176239Y-103787025D01*
X62015825Y-103835686D01*
X62015824Y-103835686D01*
X62015821Y-103835687D01*
X61890804Y-103848000D01*
X61807196Y-103848000D01*
X61682179Y-103835687D01*
X61682176Y-103835686D01*
X61682175Y-103835686D01*
X61521761Y-103787025D01*
X61521759Y-103787024D01*
X61521756Y-103787023D01*
X61373922Y-103708005D01*
X61244341Y-103601659D01*
X61137995Y-103472078D01*
X61058977Y-103324244D01*
X61033907Y-103241599D01*
X61010314Y-103163825D01*
X61010314Y-103163824D01*
X61010313Y-103163821D01*
X60993883Y-102997000D01*
X61010313Y-102830179D01*
X61058977Y-102669756D01*
X61137995Y-102521922D01*
X61244341Y-102392341D01*
X61373922Y-102285995D01*
X61521756Y-102206977D01*
X61521759Y-102206976D01*
X61521761Y-102206975D01*
X61682175Y-102158314D01*
X61682176Y-102158314D01*
X61682179Y-102158313D01*
X61807196Y-102146000D01*
X61890804Y-102146000D01*
X62015821Y-102158313D01*
X62015821Y-102158313D01*
G37*
G36*
X209136277Y-99435885D02*
X209353572Y-99525891D01*
X209549131Y-99656560D01*
X209715440Y-99822869D01*
X209846109Y-100018428D01*
X209936115Y-100235723D01*
X209982000Y-100466401D01*
X209982000Y-100701599D01*
X209936115Y-100932277D01*
X209846109Y-101149572D01*
X209715440Y-101345131D01*
X209549131Y-101511440D01*
X209353572Y-101642109D01*
X209136277Y-101732115D01*
X208905599Y-101778000D01*
X208670401Y-101778000D01*
X208439723Y-101732115D01*
X208222428Y-101642109D01*
X208026869Y-101511440D01*
X207860560Y-101345131D01*
X207729891Y-101149572D01*
X207639885Y-100932277D01*
X207594000Y-100701599D01*
X207594000Y-100466401D01*
X207639885Y-100235723D01*
X207729891Y-100018428D01*
X207860560Y-99822869D01*
X208026869Y-99656560D01*
X208222428Y-99525891D01*
X208439723Y-99435885D01*
X208670401Y-99390000D01*
X208905599Y-99390000D01*
X209136277Y-99435885D01*
X209136277Y-99435885D01*
G37*
G36*
X37432277Y-99435885D02*
X37649572Y-99525891D01*
X37845131Y-99656560D01*
X38011440Y-99822869D01*
X38142109Y-100018428D01*
X38232115Y-100235723D01*
X38278000Y-100466401D01*
X38278000Y-100701599D01*
X38232115Y-100932277D01*
X38142109Y-101149572D01*
X38011440Y-101345131D01*
X37845131Y-101511440D01*
X37649572Y-101642109D01*
X37432277Y-101732115D01*
X37201599Y-101778000D01*
X36966401Y-101778000D01*
X36735723Y-101732115D01*
X36518428Y-101642109D01*
X36322869Y-101511440D01*
X36156560Y-101345131D01*
X36025891Y-101149572D01*
X35935885Y-100932277D01*
X35890000Y-100701599D01*
X35890000Y-100466401D01*
X35935885Y-100235723D01*
X36025891Y-100018428D01*
X36156560Y-99822869D01*
X36322869Y-99656560D01*
X36518428Y-99525891D01*
X36735723Y-99435885D01*
X36966401Y-99390000D01*
X37201599Y-99390000D01*
X37432277Y-99435885D01*
X37432277Y-99435885D01*
G37*
G36*
X247236277Y-99435885D02*
X247453572Y-99525891D01*
X247649131Y-99656560D01*
X247815440Y-99822869D01*
X247946109Y-100018428D01*
X248036115Y-100235723D01*
X248082000Y-100466401D01*
X248082000Y-100701599D01*
X248036115Y-100932277D01*
X247946109Y-101149572D01*
X247815440Y-101345131D01*
X247649131Y-101511440D01*
X247453572Y-101642109D01*
X247236277Y-101732115D01*
X247005599Y-101778000D01*
X246770401Y-101778000D01*
X246539723Y-101732115D01*
X246322428Y-101642109D01*
X246126869Y-101511440D01*
X245960560Y-101345131D01*
X245829891Y-101149572D01*
X245739885Y-100932277D01*
X245694000Y-100701599D01*
X245694000Y-100466401D01*
X245739885Y-100235723D01*
X245829891Y-100018428D01*
X245960560Y-99822869D01*
X246126869Y-99656560D01*
X246322428Y-99525891D01*
X246539723Y-99435885D01*
X246770401Y-99390000D01*
X247005599Y-99390000D01*
X247236277Y-99435885D01*
X247236277Y-99435885D01*
G37*
G36*
X142334277Y-99435885D02*
X142551572Y-99525891D01*
X142747131Y-99656560D01*
X142913440Y-99822869D01*
X143044109Y-100018428D01*
X143134115Y-100235723D01*
X143180000Y-100466401D01*
X143180000Y-100701599D01*
X143134115Y-100932277D01*
X143044109Y-101149572D01*
X142913440Y-101345131D01*
X142747131Y-101511440D01*
X142551572Y-101642109D01*
X142334277Y-101732115D01*
X142103599Y-101778000D01*
X141868401Y-101778000D01*
X141637723Y-101732115D01*
X141420428Y-101642109D01*
X141224869Y-101511440D01*
X141058560Y-101345131D01*
X140927891Y-101149572D01*
X140837885Y-100932277D01*
X140792000Y-100701599D01*
X140792000Y-100466401D01*
X140837885Y-100235723D01*
X140927891Y-100018428D01*
X141058560Y-99822869D01*
X141224869Y-99656560D01*
X141420428Y-99525891D01*
X141637723Y-99435885D01*
X141868401Y-99390000D01*
X142103599Y-99390000D01*
X142334277Y-99435885D01*
X142334277Y-99435885D01*
G37*
G36*
X228186277Y-99435885D02*
X228403572Y-99525891D01*
X228599131Y-99656560D01*
X228765440Y-99822869D01*
X228896109Y-100018428D01*
X228986115Y-100235723D01*
X229032000Y-100466401D01*
X229032000Y-100701599D01*
X228986115Y-100932277D01*
X228896109Y-101149572D01*
X228765440Y-101345131D01*
X228599131Y-101511440D01*
X228403572Y-101642109D01*
X228186277Y-101732115D01*
X227955599Y-101778000D01*
X227720401Y-101778000D01*
X227489723Y-101732115D01*
X227272428Y-101642109D01*
X227076869Y-101511440D01*
X226910560Y-101345131D01*
X226779891Y-101149572D01*
X226689885Y-100932277D01*
X226644000Y-100701599D01*
X226644000Y-100466401D01*
X226689885Y-100235723D01*
X226779891Y-100018428D01*
X226910560Y-99822869D01*
X227076869Y-99656560D01*
X227272428Y-99525891D01*
X227489723Y-99435885D01*
X227720401Y-99390000D01*
X227955599Y-99390000D01*
X228186277Y-99435885D01*
X228186277Y-99435885D01*
G37*
G36*
X56482277Y-99435885D02*
X56699572Y-99525891D01*
X56895131Y-99656560D01*
X57061440Y-99822869D01*
X57192109Y-100018428D01*
X57282115Y-100235723D01*
X57328000Y-100466401D01*
X57328000Y-100701599D01*
X57282115Y-100932277D01*
X57192109Y-101149572D01*
X57061440Y-101345131D01*
X56895131Y-101511440D01*
X56699572Y-101642109D01*
X56482277Y-101732115D01*
X56251599Y-101778000D01*
X56016401Y-101778000D01*
X55785723Y-101732115D01*
X55568428Y-101642109D01*
X55372869Y-101511440D01*
X55206560Y-101345131D01*
X55075891Y-101149572D01*
X54985885Y-100932277D01*
X54940000Y-100701599D01*
X54940000Y-100466401D01*
X54985885Y-100235723D01*
X55075891Y-100018428D01*
X55206560Y-99822869D01*
X55372869Y-99656560D01*
X55568428Y-99525891D01*
X55785723Y-99435885D01*
X56016401Y-99390000D01*
X56251599Y-99390000D01*
X56482277Y-99435885D01*
X56482277Y-99435885D01*
G37*
G36*
X266286277Y-99435885D02*
X266503572Y-99525891D01*
X266699131Y-99656560D01*
X266865440Y-99822869D01*
X266996109Y-100018428D01*
X267086115Y-100235723D01*
X267132000Y-100466401D01*
X267132000Y-100701599D01*
X267086115Y-100932277D01*
X266996109Y-101149572D01*
X266865440Y-101345131D01*
X266699131Y-101511440D01*
X266503572Y-101642109D01*
X266286277Y-101732115D01*
X266055599Y-101778000D01*
X265820401Y-101778000D01*
X265589723Y-101732115D01*
X265372428Y-101642109D01*
X265176869Y-101511440D01*
X265010560Y-101345131D01*
X264879891Y-101149572D01*
X264789885Y-100932277D01*
X264744000Y-100701599D01*
X264744000Y-100466401D01*
X264789885Y-100235723D01*
X264879891Y-100018428D01*
X265010560Y-99822869D01*
X265176869Y-99656560D01*
X265372428Y-99525891D01*
X265589723Y-99435885D01*
X265820401Y-99390000D01*
X266055599Y-99390000D01*
X266286277Y-99435885D01*
X266286277Y-99435885D01*
G37*
G36*
X75532277Y-99435885D02*
X75749572Y-99525891D01*
X75945131Y-99656560D01*
X76111440Y-99822869D01*
X76242109Y-100018428D01*
X76332115Y-100235723D01*
X76378000Y-100466401D01*
X76378000Y-100701599D01*
X76332115Y-100932277D01*
X76242109Y-101149572D01*
X76111440Y-101345131D01*
X75945131Y-101511440D01*
X75749572Y-101642109D01*
X75532277Y-101732115D01*
X75301599Y-101778000D01*
X75066401Y-101778000D01*
X74835723Y-101732115D01*
X74618428Y-101642109D01*
X74422869Y-101511440D01*
X74256560Y-101345131D01*
X74125891Y-101149572D01*
X74035885Y-100932277D01*
X73990000Y-100701599D01*
X73990000Y-100466401D01*
X74035885Y-100235723D01*
X74125891Y-100018428D01*
X74256560Y-99822869D01*
X74422869Y-99656560D01*
X74618428Y-99525891D01*
X74835723Y-99435885D01*
X75066401Y-99390000D01*
X75301599Y-99390000D01*
X75532277Y-99435885D01*
X75532277Y-99435885D01*
G37*
G36*
X29630821Y-95427313D02*
X29630824Y-95427314D01*
X29630825Y-95427314D01*
X29791239Y-95475975D01*
X29791241Y-95475976D01*
X29791244Y-95475977D01*
X29939078Y-95554995D01*
X30068659Y-95661341D01*
X30175005Y-95790922D01*
X30254023Y-95938756D01*
X30302687Y-96099179D01*
X30319117Y-96266000D01*
X30302687Y-96432821D01*
X30254023Y-96593244D01*
X30175005Y-96741078D01*
X30068659Y-96870659D01*
X29939078Y-96977005D01*
X29791244Y-97056023D01*
X29791241Y-97056024D01*
X29791239Y-97056025D01*
X29630825Y-97104686D01*
X29630824Y-97104686D01*
X29630821Y-97104687D01*
X29505804Y-97117000D01*
X29422196Y-97117000D01*
X29297179Y-97104687D01*
X29297176Y-97104686D01*
X29297175Y-97104686D01*
X29136761Y-97056025D01*
X29136759Y-97056024D01*
X29136756Y-97056023D01*
X28988922Y-96977005D01*
X28859341Y-96870659D01*
X28752995Y-96741078D01*
X28673977Y-96593244D01*
X28625313Y-96432821D01*
X28608883Y-96266000D01*
X28625313Y-96099179D01*
X28673977Y-95938756D01*
X28752995Y-95790922D01*
X28859341Y-95661341D01*
X28988922Y-95554995D01*
X29136756Y-95475977D01*
X29136759Y-95475976D01*
X29136761Y-95475975D01*
X29297175Y-95427314D01*
X29297176Y-95427314D01*
X29297179Y-95427313D01*
X29422196Y-95415000D01*
X29505804Y-95415000D01*
X29630821Y-95427313D01*
X29630821Y-95427313D01*
G37*
G36*
X34125000Y-96545500D02*
X32423000Y-96545500D01*
X32423000Y-94843500D01*
X34125000Y-94843500D01*
X34125000Y-96545500D01*
X34125000Y-96545500D01*
G37*
G36*
X117487800Y-92722800D02*
X115785800Y-92722800D01*
X115785800Y-91020800D01*
X117487800Y-91020800D01*
X117487800Y-92722800D01*
X117487800Y-92722800D01*
G37*
G36*
X193256000Y-92722800D02*
X191554000Y-92722800D01*
X191554000Y-91020800D01*
X193256000Y-91020800D01*
X193256000Y-92722800D01*
X193256000Y-92722800D01*
G37*
G36*
X231584600Y-92570400D02*
X229882600Y-92570400D01*
X229882600Y-90868400D01*
X231584600Y-90868400D01*
X231584600Y-92570400D01*
X231584600Y-92570400D01*
G37*
G36*
X136360000Y-92545000D02*
X134658000Y-92545000D01*
X134658000Y-90843000D01*
X136360000Y-90843000D01*
X136360000Y-92545000D01*
X136360000Y-92545000D01*
G37*
G36*
X174358400Y-92545000D02*
X172656400Y-92545000D01*
X172656400Y-90843000D01*
X174358400Y-90843000D01*
X174358400Y-92545000D01*
X174358400Y-92545000D01*
G37*
G36*
X98488600Y-92494200D02*
X96786600Y-92494200D01*
X96786600Y-90792200D01*
X98488600Y-90792200D01*
X98488600Y-92494200D01*
X98488600Y-92494200D01*
G37*
G36*
X155156000Y-92468800D02*
X153454000Y-92468800D01*
X153454000Y-90766800D01*
X155156000Y-90766800D01*
X155156000Y-92468800D01*
X155156000Y-92468800D01*
G37*
G36*
X78854400Y-92468800D02*
X77152400Y-92468800D01*
X77152400Y-90766800D01*
X78854400Y-90766800D01*
X78854400Y-92468800D01*
X78854400Y-92468800D01*
G37*
G36*
X212610800Y-92443400D02*
X210908800Y-92443400D01*
X210908800Y-90741400D01*
X212610800Y-90741400D01*
X212610800Y-92443400D01*
X212610800Y-92443400D01*
G37*
G36*
X252844400Y-92392600D02*
X251142400Y-92392600D01*
X251142400Y-90690600D01*
X252844400Y-90690600D01*
X252844400Y-92392600D01*
X252844400Y-92392600D01*
G37*
G36*
X60109200Y-92392600D02*
X58407200Y-92392600D01*
X58407200Y-90690600D01*
X60109200Y-90690600D01*
X60109200Y-92392600D01*
X60109200Y-92392600D01*
G37*
G36*
X30315000Y-89497000D02*
X28613000Y-89497000D01*
X28613000Y-87795000D01*
X30315000Y-87795000D01*
X30315000Y-89497000D01*
X30315000Y-89497000D01*
G37*
G36*
X33440821Y-87235813D02*
X33440824Y-87235814D01*
X33440825Y-87235814D01*
X33601239Y-87284475D01*
X33601241Y-87284476D01*
X33601244Y-87284477D01*
X33749078Y-87363495D01*
X33878659Y-87469841D01*
X33985005Y-87599422D01*
X34064023Y-87747256D01*
X34112687Y-87907679D01*
X34129117Y-88074500D01*
X34112687Y-88241321D01*
X34064023Y-88401744D01*
X33985005Y-88549578D01*
X33878659Y-88679159D01*
X33749078Y-88785505D01*
X33601244Y-88864523D01*
X33601241Y-88864524D01*
X33601239Y-88864525D01*
X33440825Y-88913186D01*
X33440824Y-88913186D01*
X33440821Y-88913187D01*
X33315804Y-88925500D01*
X33232196Y-88925500D01*
X33107179Y-88913187D01*
X33107176Y-88913186D01*
X33107175Y-88913186D01*
X32946761Y-88864525D01*
X32946759Y-88864524D01*
X32946756Y-88864523D01*
X32798922Y-88785505D01*
X32669341Y-88679159D01*
X32562995Y-88549578D01*
X32483977Y-88401744D01*
X32435313Y-88241321D01*
X32418883Y-88074500D01*
X32435313Y-87907679D01*
X32483977Y-87747256D01*
X32562995Y-87599422D01*
X32669341Y-87469841D01*
X32798922Y-87363495D01*
X32946756Y-87284477D01*
X32946759Y-87284476D01*
X32946761Y-87284475D01*
X33107175Y-87235814D01*
X33107176Y-87235814D01*
X33107179Y-87235813D01*
X33232196Y-87223500D01*
X33315804Y-87223500D01*
X33440821Y-87235813D01*
X33440821Y-87235813D01*
G37*
G36*
X28826565Y-83403889D02*
X29017834Y-83483115D01*
X29189976Y-83598137D01*
X29336363Y-83744524D01*
X29451385Y-83916666D01*
X29530611Y-84107935D01*
X29571000Y-84310984D01*
X29571000Y-84518016D01*
X29530611Y-84721065D01*
X29451385Y-84912334D01*
X29336363Y-85084476D01*
X29189976Y-85230863D01*
X29017834Y-85345885D01*
X28826565Y-85425111D01*
X28623516Y-85465500D01*
X28416484Y-85465500D01*
X28213435Y-85425111D01*
X28022166Y-85345885D01*
X27850024Y-85230863D01*
X27703637Y-85084476D01*
X27588615Y-84912334D01*
X27509389Y-84721065D01*
X27469000Y-84518016D01*
X27469000Y-84310984D01*
X27509389Y-84107935D01*
X27588615Y-83916666D01*
X27703637Y-83744524D01*
X27850024Y-83598137D01*
X28022166Y-83483115D01*
X28213435Y-83403889D01*
X28416484Y-83363500D01*
X28623516Y-83363500D01*
X28826565Y-83403889D01*
X28826565Y-83403889D01*
G37*
G36*
X33326565Y-83403889D02*
X33517834Y-83483115D01*
X33689976Y-83598137D01*
X33836363Y-83744524D01*
X33951385Y-83916666D01*
X34030611Y-84107935D01*
X34071000Y-84310984D01*
X34071000Y-84518016D01*
X34030611Y-84721065D01*
X33951385Y-84912334D01*
X33836363Y-85084476D01*
X33689976Y-85230863D01*
X33517834Y-85345885D01*
X33326565Y-85425111D01*
X33123516Y-85465500D01*
X32916484Y-85465500D01*
X32713435Y-85425111D01*
X32522166Y-85345885D01*
X32350024Y-85230863D01*
X32203637Y-85084476D01*
X32088615Y-84912334D01*
X32009389Y-84721065D01*
X31969000Y-84518016D01*
X31969000Y-84310984D01*
X32009389Y-84107935D01*
X32088615Y-83916666D01*
X32203637Y-83744524D01*
X32350024Y-83598137D01*
X32522166Y-83483115D01*
X32713435Y-83403889D01*
X32916484Y-83363500D01*
X33123516Y-83363500D01*
X33326565Y-83403889D01*
X33326565Y-83403889D01*
G37*
G36*
X159860277Y-82925885D02*
X160077572Y-83015891D01*
X160273131Y-83146560D01*
X160439440Y-83312869D01*
X160570109Y-83508428D01*
X160660115Y-83725723D01*
X160706000Y-83956401D01*
X160706000Y-84191599D01*
X160660115Y-84422277D01*
X160570109Y-84639572D01*
X160439440Y-84835131D01*
X160273131Y-85001440D01*
X160077572Y-85132109D01*
X159860277Y-85222115D01*
X159629599Y-85268000D01*
X159394401Y-85268000D01*
X159163723Y-85222115D01*
X158946428Y-85132109D01*
X158750869Y-85001440D01*
X158584560Y-84835131D01*
X158453891Y-84639572D01*
X158363885Y-84422277D01*
X158318000Y-84191599D01*
X158318000Y-83956401D01*
X158363885Y-83725723D01*
X158453891Y-83508428D01*
X158584560Y-83312869D01*
X158750869Y-83146560D01*
X158946428Y-83015891D01*
X159163723Y-82925885D01*
X159394401Y-82880000D01*
X159629599Y-82880000D01*
X159860277Y-82925885D01*
X159860277Y-82925885D01*
G37*
G36*
X64610277Y-82925885D02*
X64827572Y-83015891D01*
X65023131Y-83146560D01*
X65189440Y-83312869D01*
X65320109Y-83508428D01*
X65410115Y-83725723D01*
X65456000Y-83956401D01*
X65456000Y-84191599D01*
X65410115Y-84422277D01*
X65320109Y-84639572D01*
X65189440Y-84835131D01*
X65023131Y-85001440D01*
X64827572Y-85132109D01*
X64610277Y-85222115D01*
X64379599Y-85268000D01*
X64144401Y-85268000D01*
X63913723Y-85222115D01*
X63696428Y-85132109D01*
X63500869Y-85001440D01*
X63334560Y-84835131D01*
X63203891Y-84639572D01*
X63113885Y-84422277D01*
X63068000Y-84191599D01*
X63068000Y-83956401D01*
X63113885Y-83725723D01*
X63203891Y-83508428D01*
X63334560Y-83312869D01*
X63500869Y-83146560D01*
X63696428Y-83015891D01*
X63913723Y-82925885D01*
X64144401Y-82880000D01*
X64379599Y-82880000D01*
X64610277Y-82925885D01*
X64610277Y-82925885D01*
G37*
G36*
X257396277Y-82925885D02*
X257613572Y-83015891D01*
X257809131Y-83146560D01*
X257975440Y-83312869D01*
X258106109Y-83508428D01*
X258196115Y-83725723D01*
X258242000Y-83956401D01*
X258242000Y-84191599D01*
X258196115Y-84422277D01*
X258106109Y-84639572D01*
X257975440Y-84835131D01*
X257809131Y-85001440D01*
X257613572Y-85132109D01*
X257396277Y-85222115D01*
X257165599Y-85268000D01*
X256930401Y-85268000D01*
X256699723Y-85222115D01*
X256482428Y-85132109D01*
X256286869Y-85001440D01*
X256120560Y-84835131D01*
X255989891Y-84639572D01*
X255899885Y-84422277D01*
X255854000Y-84191599D01*
X255854000Y-83956401D01*
X255899885Y-83725723D01*
X255989891Y-83508428D01*
X256120560Y-83312869D01*
X256286869Y-83146560D01*
X256482428Y-83015891D01*
X256699723Y-82925885D01*
X256930401Y-82880000D01*
X257165599Y-82880000D01*
X257396277Y-82925885D01*
X257396277Y-82925885D01*
G37*
G36*
X102710277Y-82925885D02*
X102927572Y-83015891D01*
X103123131Y-83146560D01*
X103289440Y-83312869D01*
X103420109Y-83508428D01*
X103510115Y-83725723D01*
X103556000Y-83956401D01*
X103556000Y-84191599D01*
X103510115Y-84422277D01*
X103420109Y-84639572D01*
X103289440Y-84835131D01*
X103123131Y-85001440D01*
X102927572Y-85132109D01*
X102710277Y-85222115D01*
X102479599Y-85268000D01*
X102244401Y-85268000D01*
X102013723Y-85222115D01*
X101796428Y-85132109D01*
X101600869Y-85001440D01*
X101434560Y-84835131D01*
X101303891Y-84639572D01*
X101213885Y-84422277D01*
X101168000Y-84191599D01*
X101168000Y-83956401D01*
X101213885Y-83725723D01*
X101303891Y-83508428D01*
X101434560Y-83312869D01*
X101600869Y-83146560D01*
X101796428Y-83015891D01*
X102013723Y-82925885D01*
X102244401Y-82880000D01*
X102479599Y-82880000D01*
X102710277Y-82925885D01*
X102710277Y-82925885D01*
G37*
G36*
X121760277Y-82925885D02*
X121977572Y-83015891D01*
X122173131Y-83146560D01*
X122339440Y-83312869D01*
X122470109Y-83508428D01*
X122560115Y-83725723D01*
X122606000Y-83956401D01*
X122606000Y-84191599D01*
X122560115Y-84422277D01*
X122470109Y-84639572D01*
X122339440Y-84835131D01*
X122173131Y-85001440D01*
X121977572Y-85132109D01*
X121760277Y-85222115D01*
X121529599Y-85268000D01*
X121294401Y-85268000D01*
X121063723Y-85222115D01*
X120846428Y-85132109D01*
X120650869Y-85001440D01*
X120484560Y-84835131D01*
X120353891Y-84639572D01*
X120263885Y-84422277D01*
X120218000Y-84191599D01*
X120218000Y-83956401D01*
X120263885Y-83725723D01*
X120353891Y-83508428D01*
X120484560Y-83312869D01*
X120650869Y-83146560D01*
X120846428Y-83015891D01*
X121063723Y-82925885D01*
X121294401Y-82880000D01*
X121529599Y-82880000D01*
X121760277Y-82925885D01*
X121760277Y-82925885D01*
G37*
G36*
X140810277Y-82925885D02*
X141027572Y-83015891D01*
X141223131Y-83146560D01*
X141389440Y-83312869D01*
X141520109Y-83508428D01*
X141610115Y-83725723D01*
X141656000Y-83956401D01*
X141656000Y-84191599D01*
X141610115Y-84422277D01*
X141520109Y-84639572D01*
X141389440Y-84835131D01*
X141223131Y-85001440D01*
X141027572Y-85132109D01*
X140810277Y-85222115D01*
X140579599Y-85268000D01*
X140344401Y-85268000D01*
X140113723Y-85222115D01*
X139896428Y-85132109D01*
X139700869Y-85001440D01*
X139534560Y-84835131D01*
X139403891Y-84639572D01*
X139313885Y-84422277D01*
X139268000Y-84191599D01*
X139268000Y-83956401D01*
X139313885Y-83725723D01*
X139403891Y-83508428D01*
X139534560Y-83312869D01*
X139700869Y-83146560D01*
X139896428Y-83015891D01*
X140113723Y-82925885D01*
X140344401Y-82880000D01*
X140579599Y-82880000D01*
X140810277Y-82925885D01*
X140810277Y-82925885D01*
G37*
G36*
X236060277Y-82925885D02*
X236277572Y-83015891D01*
X236473131Y-83146560D01*
X236639440Y-83312869D01*
X236770109Y-83508428D01*
X236860115Y-83725723D01*
X236906000Y-83956401D01*
X236906000Y-84191599D01*
X236860115Y-84422277D01*
X236770109Y-84639572D01*
X236639440Y-84835131D01*
X236473131Y-85001440D01*
X236277572Y-85132109D01*
X236060277Y-85222115D01*
X235829599Y-85268000D01*
X235594401Y-85268000D01*
X235363723Y-85222115D01*
X235146428Y-85132109D01*
X234950869Y-85001440D01*
X234784560Y-84835131D01*
X234653891Y-84639572D01*
X234563885Y-84422277D01*
X234518000Y-84191599D01*
X234518000Y-83956401D01*
X234563885Y-83725723D01*
X234653891Y-83508428D01*
X234784560Y-83312869D01*
X234950869Y-83146560D01*
X235146428Y-83015891D01*
X235363723Y-82925885D01*
X235594401Y-82880000D01*
X235829599Y-82880000D01*
X236060277Y-82925885D01*
X236060277Y-82925885D01*
G37*
G36*
X217010277Y-82925885D02*
X217227572Y-83015891D01*
X217423131Y-83146560D01*
X217589440Y-83312869D01*
X217720109Y-83508428D01*
X217810115Y-83725723D01*
X217856000Y-83956401D01*
X217856000Y-84191599D01*
X217810115Y-84422277D01*
X217720109Y-84639572D01*
X217589440Y-84835131D01*
X217423131Y-85001440D01*
X217227572Y-85132109D01*
X217010277Y-85222115D01*
X216779599Y-85268000D01*
X216544401Y-85268000D01*
X216313723Y-85222115D01*
X216096428Y-85132109D01*
X215900869Y-85001440D01*
X215734560Y-84835131D01*
X215603891Y-84639572D01*
X215513885Y-84422277D01*
X215468000Y-84191599D01*
X215468000Y-83956401D01*
X215513885Y-83725723D01*
X215603891Y-83508428D01*
X215734560Y-83312869D01*
X215900869Y-83146560D01*
X216096428Y-83015891D01*
X216313723Y-82925885D01*
X216544401Y-82880000D01*
X216779599Y-82880000D01*
X217010277Y-82925885D01*
X217010277Y-82925885D01*
G37*
G36*
X197960277Y-82925885D02*
X198177572Y-83015891D01*
X198373131Y-83146560D01*
X198539440Y-83312869D01*
X198670109Y-83508428D01*
X198760115Y-83725723D01*
X198806000Y-83956401D01*
X198806000Y-84191599D01*
X198760115Y-84422277D01*
X198670109Y-84639572D01*
X198539440Y-84835131D01*
X198373131Y-85001440D01*
X198177572Y-85132109D01*
X197960277Y-85222115D01*
X197729599Y-85268000D01*
X197494401Y-85268000D01*
X197263723Y-85222115D01*
X197046428Y-85132109D01*
X196850869Y-85001440D01*
X196684560Y-84835131D01*
X196553891Y-84639572D01*
X196463885Y-84422277D01*
X196418000Y-84191599D01*
X196418000Y-83956401D01*
X196463885Y-83725723D01*
X196553891Y-83508428D01*
X196684560Y-83312869D01*
X196850869Y-83146560D01*
X197046428Y-83015891D01*
X197263723Y-82925885D01*
X197494401Y-82880000D01*
X197729599Y-82880000D01*
X197960277Y-82925885D01*
X197960277Y-82925885D01*
G37*
G36*
X178910277Y-82925885D02*
X179127572Y-83015891D01*
X179323131Y-83146560D01*
X179489440Y-83312869D01*
X179620109Y-83508428D01*
X179710115Y-83725723D01*
X179756000Y-83956401D01*
X179756000Y-84191599D01*
X179710115Y-84422277D01*
X179620109Y-84639572D01*
X179489440Y-84835131D01*
X179323131Y-85001440D01*
X179127572Y-85132109D01*
X178910277Y-85222115D01*
X178679599Y-85268000D01*
X178444401Y-85268000D01*
X178213723Y-85222115D01*
X177996428Y-85132109D01*
X177800869Y-85001440D01*
X177634560Y-84835131D01*
X177503891Y-84639572D01*
X177413885Y-84422277D01*
X177368000Y-84191599D01*
X177368000Y-83956401D01*
X177413885Y-83725723D01*
X177503891Y-83508428D01*
X177634560Y-83312869D01*
X177800869Y-83146560D01*
X177996428Y-83015891D01*
X178213723Y-82925885D01*
X178444401Y-82880000D01*
X178679599Y-82880000D01*
X178910277Y-82925885D01*
X178910277Y-82925885D01*
G37*
G36*
X38194277Y-82925885D02*
X38411572Y-83015891D01*
X38607131Y-83146560D01*
X38773440Y-83312869D01*
X38904109Y-83508428D01*
X38994115Y-83725723D01*
X39040000Y-83956401D01*
X39040000Y-84191599D01*
X38994115Y-84422277D01*
X38904109Y-84639572D01*
X38773440Y-84835131D01*
X38607131Y-85001440D01*
X38411572Y-85132109D01*
X38194277Y-85222115D01*
X37963599Y-85268000D01*
X37728401Y-85268000D01*
X37497723Y-85222115D01*
X37280428Y-85132109D01*
X37084869Y-85001440D01*
X36918560Y-84835131D01*
X36787891Y-84639572D01*
X36697885Y-84422277D01*
X36652000Y-84191599D01*
X36652000Y-83956401D01*
X36697885Y-83725723D01*
X36787891Y-83508428D01*
X36918560Y-83312869D01*
X37084869Y-83146560D01*
X37280428Y-83015891D01*
X37497723Y-82925885D01*
X37728401Y-82880000D01*
X37963599Y-82880000D01*
X38194277Y-82925885D01*
X38194277Y-82925885D01*
G37*
G36*
X83660277Y-82925885D02*
X83877572Y-83015891D01*
X84073131Y-83146560D01*
X84239440Y-83312869D01*
X84370109Y-83508428D01*
X84460115Y-83725723D01*
X84506000Y-83956401D01*
X84506000Y-84191599D01*
X84460115Y-84422277D01*
X84370109Y-84639572D01*
X84239440Y-84835131D01*
X84073131Y-85001440D01*
X83877572Y-85132109D01*
X83660277Y-85222115D01*
X83429599Y-85268000D01*
X83194401Y-85268000D01*
X82963723Y-85222115D01*
X82746428Y-85132109D01*
X82550869Y-85001440D01*
X82384560Y-84835131D01*
X82253891Y-84639572D01*
X82163885Y-84422277D01*
X82118000Y-84191599D01*
X82118000Y-83956401D01*
X82163885Y-83725723D01*
X82253891Y-83508428D01*
X82384560Y-83312869D01*
X82550869Y-83146560D01*
X82746428Y-83015891D01*
X82963723Y-82925885D01*
X83194401Y-82880000D01*
X83429599Y-82880000D01*
X83660277Y-82925885D01*
X83660277Y-82925885D01*
G37*
G36*
X116803621Y-83413113D02*
X116803624Y-83413114D01*
X116803625Y-83413114D01*
X116964039Y-83461775D01*
X116964041Y-83461776D01*
X116964044Y-83461777D01*
X117111878Y-83540795D01*
X117241459Y-83647141D01*
X117347805Y-83776722D01*
X117426823Y-83924556D01*
X117426824Y-83924559D01*
X117426825Y-83924561D01*
X117472157Y-84074000D01*
X117475487Y-84084979D01*
X117491917Y-84251800D01*
X117475487Y-84418621D01*
X117475486Y-84418624D01*
X117475486Y-84418625D01*
X117427426Y-84577059D01*
X117426823Y-84579044D01*
X117347805Y-84726878D01*
X117241459Y-84856459D01*
X117111878Y-84962805D01*
X116964044Y-85041823D01*
X116964041Y-85041824D01*
X116964039Y-85041825D01*
X116803625Y-85090486D01*
X116803624Y-85090486D01*
X116803621Y-85090487D01*
X116678604Y-85102800D01*
X116594996Y-85102800D01*
X116469979Y-85090487D01*
X116469976Y-85090486D01*
X116469975Y-85090486D01*
X116309561Y-85041825D01*
X116309559Y-85041824D01*
X116309556Y-85041823D01*
X116161722Y-84962805D01*
X116032141Y-84856459D01*
X115925795Y-84726878D01*
X115846777Y-84579044D01*
X115846175Y-84577059D01*
X115798114Y-84418625D01*
X115798114Y-84418624D01*
X115798113Y-84418621D01*
X115781683Y-84251800D01*
X115798113Y-84084979D01*
X115801443Y-84074000D01*
X115846775Y-83924561D01*
X115846776Y-83924559D01*
X115846777Y-83924556D01*
X115925795Y-83776722D01*
X116032141Y-83647141D01*
X116161722Y-83540795D01*
X116309556Y-83461777D01*
X116309559Y-83461776D01*
X116309561Y-83461775D01*
X116469975Y-83413114D01*
X116469976Y-83413114D01*
X116469979Y-83413113D01*
X116594996Y-83400800D01*
X116678604Y-83400800D01*
X116803621Y-83413113D01*
X116803621Y-83413113D01*
G37*
G36*
X192571821Y-83413113D02*
X192571824Y-83413114D01*
X192571825Y-83413114D01*
X192732239Y-83461775D01*
X192732241Y-83461776D01*
X192732244Y-83461777D01*
X192880078Y-83540795D01*
X193009659Y-83647141D01*
X193116005Y-83776722D01*
X193195023Y-83924556D01*
X193195024Y-83924559D01*
X193195025Y-83924561D01*
X193240357Y-84074000D01*
X193243687Y-84084979D01*
X193260117Y-84251800D01*
X193243687Y-84418621D01*
X193243686Y-84418624D01*
X193243686Y-84418625D01*
X193195626Y-84577059D01*
X193195023Y-84579044D01*
X193116005Y-84726878D01*
X193009659Y-84856459D01*
X192880078Y-84962805D01*
X192732244Y-85041823D01*
X192732241Y-85041824D01*
X192732239Y-85041825D01*
X192571825Y-85090486D01*
X192571824Y-85090486D01*
X192571821Y-85090487D01*
X192446804Y-85102800D01*
X192363196Y-85102800D01*
X192238179Y-85090487D01*
X192238176Y-85090486D01*
X192238175Y-85090486D01*
X192077761Y-85041825D01*
X192077759Y-85041824D01*
X192077756Y-85041823D01*
X191929922Y-84962805D01*
X191800341Y-84856459D01*
X191693995Y-84726878D01*
X191614977Y-84579044D01*
X191614375Y-84577059D01*
X191566314Y-84418625D01*
X191566314Y-84418624D01*
X191566313Y-84418621D01*
X191549883Y-84251800D01*
X191566313Y-84084979D01*
X191569643Y-84074000D01*
X191614975Y-83924561D01*
X191614976Y-83924559D01*
X191614977Y-83924556D01*
X191693995Y-83776722D01*
X191800341Y-83647141D01*
X191929922Y-83540795D01*
X192077756Y-83461777D01*
X192077759Y-83461776D01*
X192077761Y-83461775D01*
X192238175Y-83413114D01*
X192238176Y-83413114D01*
X192238179Y-83413113D01*
X192363196Y-83400800D01*
X192446804Y-83400800D01*
X192571821Y-83413113D01*
X192571821Y-83413113D01*
G37*
G36*
X230900421Y-83260713D02*
X230900424Y-83260714D01*
X230900425Y-83260714D01*
X231060839Y-83309375D01*
X231060841Y-83309376D01*
X231060844Y-83309377D01*
X231208678Y-83388395D01*
X231338259Y-83494741D01*
X231444605Y-83624322D01*
X231523623Y-83772156D01*
X231523624Y-83772159D01*
X231523625Y-83772161D01*
X231533761Y-83805575D01*
X231572287Y-83932579D01*
X231588717Y-84099400D01*
X231572287Y-84266221D01*
X231572286Y-84266224D01*
X231572286Y-84266225D01*
X231532714Y-84396678D01*
X231523623Y-84426644D01*
X231444605Y-84574478D01*
X231338259Y-84704059D01*
X231208678Y-84810405D01*
X231060844Y-84889423D01*
X231060841Y-84889424D01*
X231060839Y-84889425D01*
X230900425Y-84938086D01*
X230900424Y-84938086D01*
X230900421Y-84938087D01*
X230775404Y-84950400D01*
X230691796Y-84950400D01*
X230566779Y-84938087D01*
X230566776Y-84938086D01*
X230566775Y-84938086D01*
X230406361Y-84889425D01*
X230406359Y-84889424D01*
X230406356Y-84889423D01*
X230258522Y-84810405D01*
X230128941Y-84704059D01*
X230022595Y-84574478D01*
X229943577Y-84426644D01*
X229934487Y-84396678D01*
X229894914Y-84266225D01*
X229894914Y-84266224D01*
X229894913Y-84266221D01*
X229878483Y-84099400D01*
X229894913Y-83932579D01*
X229933439Y-83805575D01*
X229943575Y-83772161D01*
X229943576Y-83772159D01*
X229943577Y-83772156D01*
X230022595Y-83624322D01*
X230128941Y-83494741D01*
X230258522Y-83388395D01*
X230406356Y-83309377D01*
X230406359Y-83309376D01*
X230406361Y-83309375D01*
X230566775Y-83260714D01*
X230566776Y-83260714D01*
X230566779Y-83260713D01*
X230691796Y-83248400D01*
X230775404Y-83248400D01*
X230900421Y-83260713D01*
X230900421Y-83260713D01*
G37*
G36*
X173674221Y-83235313D02*
X173674224Y-83235314D01*
X173674225Y-83235314D01*
X173834639Y-83283975D01*
X173834641Y-83283976D01*
X173834644Y-83283977D01*
X173982478Y-83362995D01*
X174112059Y-83469341D01*
X174218405Y-83598922D01*
X174297423Y-83746756D01*
X174297424Y-83746759D01*
X174297425Y-83746761D01*
X174315266Y-83805575D01*
X174346087Y-83907179D01*
X174362517Y-84074000D01*
X174346087Y-84240821D01*
X174346086Y-84240824D01*
X174346086Y-84240825D01*
X174298809Y-84396678D01*
X174297423Y-84401244D01*
X174218405Y-84549078D01*
X174112059Y-84678659D01*
X173982478Y-84785005D01*
X173834644Y-84864023D01*
X173834641Y-84864024D01*
X173834639Y-84864025D01*
X173674225Y-84912686D01*
X173674224Y-84912686D01*
X173674221Y-84912687D01*
X173549204Y-84925000D01*
X173465596Y-84925000D01*
X173340579Y-84912687D01*
X173340576Y-84912686D01*
X173340575Y-84912686D01*
X173180161Y-84864025D01*
X173180159Y-84864024D01*
X173180156Y-84864023D01*
X173032322Y-84785005D01*
X172902741Y-84678659D01*
X172796395Y-84549078D01*
X172717377Y-84401244D01*
X172715992Y-84396678D01*
X172668714Y-84240825D01*
X172668714Y-84240824D01*
X172668713Y-84240821D01*
X172652283Y-84074000D01*
X172668713Y-83907179D01*
X172699534Y-83805575D01*
X172717375Y-83746761D01*
X172717376Y-83746759D01*
X172717377Y-83746756D01*
X172796395Y-83598922D01*
X172902741Y-83469341D01*
X173032322Y-83362995D01*
X173180156Y-83283977D01*
X173180159Y-83283976D01*
X173180161Y-83283975D01*
X173340575Y-83235314D01*
X173340576Y-83235314D01*
X173340579Y-83235313D01*
X173465596Y-83223000D01*
X173549204Y-83223000D01*
X173674221Y-83235313D01*
X173674221Y-83235313D01*
G37*
G36*
X135675821Y-83235313D02*
X135675824Y-83235314D01*
X135675825Y-83235314D01*
X135836239Y-83283975D01*
X135836241Y-83283976D01*
X135836244Y-83283977D01*
X135984078Y-83362995D01*
X136113659Y-83469341D01*
X136220005Y-83598922D01*
X136299023Y-83746756D01*
X136299024Y-83746759D01*
X136299025Y-83746761D01*
X136316866Y-83805575D01*
X136347687Y-83907179D01*
X136364117Y-84074000D01*
X136347687Y-84240821D01*
X136347686Y-84240824D01*
X136347686Y-84240825D01*
X136300409Y-84396678D01*
X136299023Y-84401244D01*
X136220005Y-84549078D01*
X136113659Y-84678659D01*
X135984078Y-84785005D01*
X135836244Y-84864023D01*
X135836241Y-84864024D01*
X135836239Y-84864025D01*
X135675825Y-84912686D01*
X135675824Y-84912686D01*
X135675821Y-84912687D01*
X135550804Y-84925000D01*
X135467196Y-84925000D01*
X135342179Y-84912687D01*
X135342176Y-84912686D01*
X135342175Y-84912686D01*
X135181761Y-84864025D01*
X135181759Y-84864024D01*
X135181756Y-84864023D01*
X135033922Y-84785005D01*
X134904341Y-84678659D01*
X134797995Y-84549078D01*
X134718977Y-84401244D01*
X134717592Y-84396678D01*
X134670314Y-84240825D01*
X134670314Y-84240824D01*
X134670313Y-84240821D01*
X134653883Y-84074000D01*
X134670313Y-83907179D01*
X134701134Y-83805575D01*
X134718975Y-83746761D01*
X134718976Y-83746759D01*
X134718977Y-83746756D01*
X134797995Y-83598922D01*
X134904341Y-83469341D01*
X135033922Y-83362995D01*
X135181756Y-83283977D01*
X135181759Y-83283976D01*
X135181761Y-83283975D01*
X135342175Y-83235314D01*
X135342176Y-83235314D01*
X135342179Y-83235313D01*
X135467196Y-83223000D01*
X135550804Y-83223000D01*
X135675821Y-83235313D01*
X135675821Y-83235313D01*
G37*
G36*
X97804421Y-83184513D02*
X97804424Y-83184514D01*
X97804425Y-83184514D01*
X97964839Y-83233175D01*
X97964841Y-83233176D01*
X97964844Y-83233177D01*
X98112678Y-83312195D01*
X98242259Y-83418541D01*
X98348605Y-83548122D01*
X98427623Y-83695956D01*
X98427624Y-83695959D01*
X98427625Y-83695961D01*
X98460876Y-83805575D01*
X98476287Y-83856379D01*
X98492717Y-84023200D01*
X98476287Y-84190021D01*
X98476286Y-84190024D01*
X98476286Y-84190025D01*
X98439594Y-84310984D01*
X98427623Y-84350444D01*
X98348605Y-84498278D01*
X98242259Y-84627859D01*
X98112678Y-84734205D01*
X97964844Y-84813223D01*
X97964841Y-84813224D01*
X97964839Y-84813225D01*
X97804425Y-84861886D01*
X97804424Y-84861886D01*
X97804421Y-84861887D01*
X97679404Y-84874200D01*
X97595796Y-84874200D01*
X97470779Y-84861887D01*
X97470776Y-84861886D01*
X97470775Y-84861886D01*
X97310361Y-84813225D01*
X97310359Y-84813224D01*
X97310356Y-84813223D01*
X97162522Y-84734205D01*
X97032941Y-84627859D01*
X96926595Y-84498278D01*
X96847577Y-84350444D01*
X96835607Y-84310984D01*
X96798914Y-84190025D01*
X96798914Y-84190024D01*
X96798913Y-84190021D01*
X96782483Y-84023200D01*
X96798913Y-83856379D01*
X96814324Y-83805575D01*
X96847575Y-83695961D01*
X96847576Y-83695959D01*
X96847577Y-83695956D01*
X96926595Y-83548122D01*
X97032941Y-83418541D01*
X97162522Y-83312195D01*
X97310356Y-83233177D01*
X97310359Y-83233176D01*
X97310361Y-83233175D01*
X97470775Y-83184514D01*
X97470776Y-83184514D01*
X97470779Y-83184513D01*
X97595796Y-83172200D01*
X97679404Y-83172200D01*
X97804421Y-83184513D01*
X97804421Y-83184513D01*
G37*
G36*
X154471821Y-83159113D02*
X154471824Y-83159114D01*
X154471825Y-83159114D01*
X154632239Y-83207775D01*
X154632241Y-83207776D01*
X154632244Y-83207777D01*
X154780078Y-83286795D01*
X154909659Y-83393141D01*
X155016005Y-83522722D01*
X155095023Y-83670556D01*
X155095024Y-83670559D01*
X155095025Y-83670561D01*
X155135981Y-83805575D01*
X155143687Y-83830979D01*
X155160117Y-83997800D01*
X155143687Y-84164621D01*
X155143686Y-84164624D01*
X155143686Y-84164625D01*
X155099288Y-84310986D01*
X155095023Y-84325044D01*
X155016005Y-84472878D01*
X154909659Y-84602459D01*
X154780078Y-84708805D01*
X154632244Y-84787823D01*
X154632241Y-84787824D01*
X154632239Y-84787825D01*
X154471825Y-84836486D01*
X154471824Y-84836486D01*
X154471821Y-84836487D01*
X154346804Y-84848800D01*
X154263196Y-84848800D01*
X154138179Y-84836487D01*
X154138176Y-84836486D01*
X154138175Y-84836486D01*
X153977761Y-84787825D01*
X153977759Y-84787824D01*
X153977756Y-84787823D01*
X153829922Y-84708805D01*
X153700341Y-84602459D01*
X153593995Y-84472878D01*
X153514977Y-84325044D01*
X153510713Y-84310986D01*
X153466314Y-84164625D01*
X153466314Y-84164624D01*
X153466313Y-84164621D01*
X153449883Y-83997800D01*
X153466313Y-83830979D01*
X153474019Y-83805575D01*
X153514975Y-83670561D01*
X153514976Y-83670559D01*
X153514977Y-83670556D01*
X153593995Y-83522722D01*
X153700341Y-83393141D01*
X153829922Y-83286795D01*
X153977756Y-83207777D01*
X153977759Y-83207776D01*
X153977761Y-83207775D01*
X154138175Y-83159114D01*
X154138176Y-83159114D01*
X154138179Y-83159113D01*
X154263196Y-83146800D01*
X154346804Y-83146800D01*
X154471821Y-83159113D01*
X154471821Y-83159113D01*
G37*
G36*
X78170221Y-83159113D02*
X78170224Y-83159114D01*
X78170225Y-83159114D01*
X78330639Y-83207775D01*
X78330641Y-83207776D01*
X78330644Y-83207777D01*
X78478478Y-83286795D01*
X78608059Y-83393141D01*
X78714405Y-83522722D01*
X78793423Y-83670556D01*
X78793424Y-83670559D01*
X78793425Y-83670561D01*
X78834381Y-83805575D01*
X78842087Y-83830979D01*
X78858517Y-83997800D01*
X78842087Y-84164621D01*
X78842086Y-84164624D01*
X78842086Y-84164625D01*
X78797688Y-84310986D01*
X78793423Y-84325044D01*
X78714405Y-84472878D01*
X78608059Y-84602459D01*
X78478478Y-84708805D01*
X78330644Y-84787823D01*
X78330641Y-84787824D01*
X78330639Y-84787825D01*
X78170225Y-84836486D01*
X78170224Y-84836486D01*
X78170221Y-84836487D01*
X78045204Y-84848800D01*
X77961596Y-84848800D01*
X77836579Y-84836487D01*
X77836576Y-84836486D01*
X77836575Y-84836486D01*
X77676161Y-84787825D01*
X77676159Y-84787824D01*
X77676156Y-84787823D01*
X77528322Y-84708805D01*
X77398741Y-84602459D01*
X77292395Y-84472878D01*
X77213377Y-84325044D01*
X77209113Y-84310986D01*
X77164714Y-84164625D01*
X77164714Y-84164624D01*
X77164713Y-84164621D01*
X77148283Y-83997800D01*
X77164713Y-83830979D01*
X77172419Y-83805575D01*
X77213375Y-83670561D01*
X77213376Y-83670559D01*
X77213377Y-83670556D01*
X77292395Y-83522722D01*
X77398741Y-83393141D01*
X77528322Y-83286795D01*
X77676156Y-83207777D01*
X77676159Y-83207776D01*
X77676161Y-83207775D01*
X77836575Y-83159114D01*
X77836576Y-83159114D01*
X77836579Y-83159113D01*
X77961596Y-83146800D01*
X78045204Y-83146800D01*
X78170221Y-83159113D01*
X78170221Y-83159113D01*
G37*
G36*
X211926621Y-83133713D02*
X211926624Y-83133714D01*
X211926625Y-83133714D01*
X212087039Y-83182375D01*
X212087041Y-83182376D01*
X212087044Y-83182377D01*
X212234878Y-83261395D01*
X212364459Y-83367741D01*
X212470805Y-83497322D01*
X212549823Y-83645156D01*
X212549824Y-83645159D01*
X212549825Y-83645161D01*
X212598486Y-83805575D01*
X212598487Y-83805579D01*
X212614917Y-83972400D01*
X212598487Y-84139221D01*
X212598486Y-84139224D01*
X212598486Y-84139225D01*
X212564337Y-84251800D01*
X212549823Y-84299644D01*
X212470805Y-84447478D01*
X212364459Y-84577059D01*
X212234878Y-84683405D01*
X212087044Y-84762423D01*
X212087041Y-84762424D01*
X212087039Y-84762425D01*
X211926625Y-84811086D01*
X211926624Y-84811086D01*
X211926621Y-84811087D01*
X211801604Y-84823400D01*
X211717996Y-84823400D01*
X211592979Y-84811087D01*
X211592976Y-84811086D01*
X211592975Y-84811086D01*
X211432561Y-84762425D01*
X211432559Y-84762424D01*
X211432556Y-84762423D01*
X211284722Y-84683405D01*
X211155141Y-84577059D01*
X211048795Y-84447478D01*
X210969777Y-84299644D01*
X210955264Y-84251800D01*
X210921114Y-84139225D01*
X210921114Y-84139224D01*
X210921113Y-84139221D01*
X210904683Y-83972400D01*
X210921113Y-83805579D01*
X210921114Y-83805575D01*
X210969775Y-83645161D01*
X210969776Y-83645159D01*
X210969777Y-83645156D01*
X211048795Y-83497322D01*
X211155141Y-83367741D01*
X211284722Y-83261395D01*
X211432556Y-83182377D01*
X211432559Y-83182376D01*
X211432561Y-83182375D01*
X211592975Y-83133714D01*
X211592976Y-83133714D01*
X211592979Y-83133713D01*
X211717996Y-83121400D01*
X211801604Y-83121400D01*
X211926621Y-83133713D01*
X211926621Y-83133713D01*
G37*
G36*
X252160221Y-83082913D02*
X252160224Y-83082914D01*
X252160225Y-83082914D01*
X252320639Y-83131575D01*
X252320641Y-83131576D01*
X252320644Y-83131577D01*
X252468478Y-83210595D01*
X252598059Y-83316941D01*
X252704405Y-83446522D01*
X252783423Y-83594356D01*
X252783424Y-83594359D01*
X252783425Y-83594361D01*
X252806538Y-83670556D01*
X252832087Y-83754779D01*
X252848517Y-83921600D01*
X252832087Y-84088421D01*
X252832086Y-84088424D01*
X252832086Y-84088425D01*
X252800789Y-84191599D01*
X252783423Y-84248844D01*
X252704405Y-84396678D01*
X252598059Y-84526259D01*
X252468478Y-84632605D01*
X252320644Y-84711623D01*
X252320641Y-84711624D01*
X252320639Y-84711625D01*
X252160225Y-84760286D01*
X252160224Y-84760286D01*
X252160221Y-84760287D01*
X252035204Y-84772600D01*
X251951596Y-84772600D01*
X251826579Y-84760287D01*
X251826576Y-84760286D01*
X251826575Y-84760286D01*
X251666161Y-84711625D01*
X251666159Y-84711624D01*
X251666156Y-84711623D01*
X251518322Y-84632605D01*
X251388741Y-84526259D01*
X251282395Y-84396678D01*
X251203377Y-84248844D01*
X251186012Y-84191599D01*
X251154714Y-84088425D01*
X251154714Y-84088424D01*
X251154713Y-84088421D01*
X251138283Y-83921600D01*
X251154713Y-83754779D01*
X251180262Y-83670556D01*
X251203375Y-83594361D01*
X251203376Y-83594359D01*
X251203377Y-83594356D01*
X251282395Y-83446522D01*
X251388741Y-83316941D01*
X251518322Y-83210595D01*
X251666156Y-83131577D01*
X251666159Y-83131576D01*
X251666161Y-83131575D01*
X251826575Y-83082914D01*
X251826576Y-83082914D01*
X251826579Y-83082913D01*
X251951596Y-83070600D01*
X252035204Y-83070600D01*
X252160221Y-83082913D01*
X252160221Y-83082913D01*
G37*
G36*
X59425021Y-83082913D02*
X59425024Y-83082914D01*
X59425025Y-83082914D01*
X59585439Y-83131575D01*
X59585441Y-83131576D01*
X59585444Y-83131577D01*
X59733278Y-83210595D01*
X59862859Y-83316941D01*
X59969205Y-83446522D01*
X60048223Y-83594356D01*
X60048224Y-83594359D01*
X60048225Y-83594361D01*
X60071338Y-83670556D01*
X60096887Y-83754779D01*
X60113317Y-83921600D01*
X60096887Y-84088421D01*
X60096886Y-84088424D01*
X60096886Y-84088425D01*
X60065589Y-84191599D01*
X60048223Y-84248844D01*
X59969205Y-84396678D01*
X59862859Y-84526259D01*
X59733278Y-84632605D01*
X59585444Y-84711623D01*
X59585441Y-84711624D01*
X59585439Y-84711625D01*
X59425025Y-84760286D01*
X59425024Y-84760286D01*
X59425021Y-84760287D01*
X59300004Y-84772600D01*
X59216396Y-84772600D01*
X59091379Y-84760287D01*
X59091376Y-84760286D01*
X59091375Y-84760286D01*
X58930961Y-84711625D01*
X58930959Y-84711624D01*
X58930956Y-84711623D01*
X58783122Y-84632605D01*
X58653541Y-84526259D01*
X58547195Y-84396678D01*
X58468177Y-84248844D01*
X58450812Y-84191599D01*
X58419514Y-84088425D01*
X58419514Y-84088424D01*
X58419513Y-84088421D01*
X58403083Y-83921600D01*
X58419513Y-83754779D01*
X58445062Y-83670556D01*
X58468175Y-83594361D01*
X58468176Y-83594359D01*
X58468177Y-83594356D01*
X58547195Y-83446522D01*
X58653541Y-83316941D01*
X58783122Y-83210595D01*
X58930956Y-83131577D01*
X58930959Y-83131576D01*
X58930961Y-83131575D01*
X59091375Y-83082914D01*
X59091376Y-83082914D01*
X59091379Y-83082913D01*
X59216396Y-83070600D01*
X59300004Y-83070600D01*
X59425021Y-83082913D01*
X59425021Y-83082913D01*
G37*
G36*
X44544277Y-80385885D02*
X44761572Y-80475891D01*
X44957131Y-80606560D01*
X45123440Y-80772869D01*
X45254109Y-80968428D01*
X45344115Y-81185723D01*
X45390000Y-81416401D01*
X45390000Y-81651599D01*
X45344115Y-81882277D01*
X45254109Y-82099572D01*
X45123440Y-82295131D01*
X44957131Y-82461440D01*
X44761572Y-82592109D01*
X44544277Y-82682115D01*
X44313599Y-82728000D01*
X44078401Y-82728000D01*
X43847723Y-82682115D01*
X43630428Y-82592109D01*
X43434869Y-82461440D01*
X43268560Y-82295131D01*
X43137891Y-82099572D01*
X43047885Y-81882277D01*
X43002000Y-81651599D01*
X43002000Y-81416401D01*
X43047885Y-81185723D01*
X43137891Y-80968428D01*
X43268560Y-80772869D01*
X43434869Y-80606560D01*
X43630428Y-80475891D01*
X43847723Y-80385885D01*
X44078401Y-80340000D01*
X44313599Y-80340000D01*
X44544277Y-80385885D01*
X44544277Y-80385885D01*
G37*
G36*
X70960277Y-80385885D02*
X71177572Y-80475891D01*
X71373131Y-80606560D01*
X71539440Y-80772869D01*
X71670109Y-80968428D01*
X71760115Y-81185723D01*
X71806000Y-81416401D01*
X71806000Y-81651599D01*
X71760115Y-81882277D01*
X71670109Y-82099572D01*
X71539440Y-82295131D01*
X71373131Y-82461440D01*
X71177572Y-82592109D01*
X70960277Y-82682115D01*
X70729599Y-82728000D01*
X70494401Y-82728000D01*
X70263723Y-82682115D01*
X70046428Y-82592109D01*
X69850869Y-82461440D01*
X69684560Y-82295131D01*
X69553891Y-82099572D01*
X69463885Y-81882277D01*
X69418000Y-81651599D01*
X69418000Y-81416401D01*
X69463885Y-81185723D01*
X69553891Y-80968428D01*
X69684560Y-80772869D01*
X69850869Y-80606560D01*
X70046428Y-80475891D01*
X70263723Y-80385885D01*
X70494401Y-80340000D01*
X70729599Y-80340000D01*
X70960277Y-80385885D01*
X70960277Y-80385885D01*
G37*
G36*
X90010277Y-80385885D02*
X90227572Y-80475891D01*
X90423131Y-80606560D01*
X90589440Y-80772869D01*
X90720109Y-80968428D01*
X90810115Y-81185723D01*
X90856000Y-81416401D01*
X90856000Y-81651599D01*
X90810115Y-81882277D01*
X90720109Y-82099572D01*
X90589440Y-82295131D01*
X90423131Y-82461440D01*
X90227572Y-82592109D01*
X90010277Y-82682115D01*
X89779599Y-82728000D01*
X89544401Y-82728000D01*
X89313723Y-82682115D01*
X89096428Y-82592109D01*
X88900869Y-82461440D01*
X88734560Y-82295131D01*
X88603891Y-82099572D01*
X88513885Y-81882277D01*
X88468000Y-81651599D01*
X88468000Y-81416401D01*
X88513885Y-81185723D01*
X88603891Y-80968428D01*
X88734560Y-80772869D01*
X88900869Y-80606560D01*
X89096428Y-80475891D01*
X89313723Y-80385885D01*
X89544401Y-80340000D01*
X89779599Y-80340000D01*
X90010277Y-80385885D01*
X90010277Y-80385885D01*
G37*
G36*
X185260277Y-80385885D02*
X185477572Y-80475891D01*
X185673131Y-80606560D01*
X185839440Y-80772869D01*
X185970109Y-80968428D01*
X186060115Y-81185723D01*
X186106000Y-81416401D01*
X186106000Y-81651599D01*
X186060115Y-81882277D01*
X185970109Y-82099572D01*
X185839440Y-82295131D01*
X185673131Y-82461440D01*
X185477572Y-82592109D01*
X185260277Y-82682115D01*
X185029599Y-82728000D01*
X184794401Y-82728000D01*
X184563723Y-82682115D01*
X184346428Y-82592109D01*
X184150869Y-82461440D01*
X183984560Y-82295131D01*
X183853891Y-82099572D01*
X183763885Y-81882277D01*
X183718000Y-81651599D01*
X183718000Y-81416401D01*
X183763885Y-81185723D01*
X183853891Y-80968428D01*
X183984560Y-80772869D01*
X184150869Y-80606560D01*
X184346428Y-80475891D01*
X184563723Y-80385885D01*
X184794401Y-80340000D01*
X185029599Y-80340000D01*
X185260277Y-80385885D01*
X185260277Y-80385885D01*
G37*
G36*
X204310277Y-80385885D02*
X204527572Y-80475891D01*
X204723131Y-80606560D01*
X204889440Y-80772869D01*
X205020109Y-80968428D01*
X205110115Y-81185723D01*
X205156000Y-81416401D01*
X205156000Y-81651599D01*
X205110115Y-81882277D01*
X205020109Y-82099572D01*
X204889440Y-82295131D01*
X204723131Y-82461440D01*
X204527572Y-82592109D01*
X204310277Y-82682115D01*
X204079599Y-82728000D01*
X203844401Y-82728000D01*
X203613723Y-82682115D01*
X203396428Y-82592109D01*
X203200869Y-82461440D01*
X203034560Y-82295131D01*
X202903891Y-82099572D01*
X202813885Y-81882277D01*
X202768000Y-81651599D01*
X202768000Y-81416401D01*
X202813885Y-81185723D01*
X202903891Y-80968428D01*
X203034560Y-80772869D01*
X203200869Y-80606560D01*
X203396428Y-80475891D01*
X203613723Y-80385885D01*
X203844401Y-80340000D01*
X204079599Y-80340000D01*
X204310277Y-80385885D01*
X204310277Y-80385885D01*
G37*
G36*
X223360277Y-80385885D02*
X223577572Y-80475891D01*
X223773131Y-80606560D01*
X223939440Y-80772869D01*
X224070109Y-80968428D01*
X224160115Y-81185723D01*
X224206000Y-81416401D01*
X224206000Y-81651599D01*
X224160115Y-81882277D01*
X224070109Y-82099572D01*
X223939440Y-82295131D01*
X223773131Y-82461440D01*
X223577572Y-82592109D01*
X223360277Y-82682115D01*
X223129599Y-82728000D01*
X222894401Y-82728000D01*
X222663723Y-82682115D01*
X222446428Y-82592109D01*
X222250869Y-82461440D01*
X222084560Y-82295131D01*
X221953891Y-82099572D01*
X221863885Y-81882277D01*
X221818000Y-81651599D01*
X221818000Y-81416401D01*
X221863885Y-81185723D01*
X221953891Y-80968428D01*
X222084560Y-80772869D01*
X222250869Y-80606560D01*
X222446428Y-80475891D01*
X222663723Y-80385885D01*
X222894401Y-80340000D01*
X223129599Y-80340000D01*
X223360277Y-80385885D01*
X223360277Y-80385885D01*
G37*
G36*
X147160277Y-80385885D02*
X147377572Y-80475891D01*
X147573131Y-80606560D01*
X147739440Y-80772869D01*
X147870109Y-80968428D01*
X147960115Y-81185723D01*
X148006000Y-81416401D01*
X148006000Y-81651599D01*
X147960115Y-81882277D01*
X147870109Y-82099572D01*
X147739440Y-82295131D01*
X147573131Y-82461440D01*
X147377572Y-82592109D01*
X147160277Y-82682115D01*
X146929599Y-82728000D01*
X146694401Y-82728000D01*
X146463723Y-82682115D01*
X146246428Y-82592109D01*
X146050869Y-82461440D01*
X145884560Y-82295131D01*
X145753891Y-82099572D01*
X145663885Y-81882277D01*
X145618000Y-81651599D01*
X145618000Y-81416401D01*
X145663885Y-81185723D01*
X145753891Y-80968428D01*
X145884560Y-80772869D01*
X146050869Y-80606560D01*
X146246428Y-80475891D01*
X146463723Y-80385885D01*
X146694401Y-80340000D01*
X146929599Y-80340000D01*
X147160277Y-80385885D01*
X147160277Y-80385885D01*
G37*
G36*
X263746277Y-80385885D02*
X263963572Y-80475891D01*
X264159131Y-80606560D01*
X264325440Y-80772869D01*
X264456109Y-80968428D01*
X264546115Y-81185723D01*
X264592000Y-81416401D01*
X264592000Y-81651599D01*
X264546115Y-81882277D01*
X264456109Y-82099572D01*
X264325440Y-82295131D01*
X264159131Y-82461440D01*
X263963572Y-82592109D01*
X263746277Y-82682115D01*
X263515599Y-82728000D01*
X263280401Y-82728000D01*
X263049723Y-82682115D01*
X262832428Y-82592109D01*
X262636869Y-82461440D01*
X262470560Y-82295131D01*
X262339891Y-82099572D01*
X262249885Y-81882277D01*
X262204000Y-81651599D01*
X262204000Y-81416401D01*
X262249885Y-81185723D01*
X262339891Y-80968428D01*
X262470560Y-80772869D01*
X262636869Y-80606560D01*
X262832428Y-80475891D01*
X263049723Y-80385885D01*
X263280401Y-80340000D01*
X263515599Y-80340000D01*
X263746277Y-80385885D01*
X263746277Y-80385885D01*
G37*
G36*
X128110277Y-80385885D02*
X128327572Y-80475891D01*
X128523131Y-80606560D01*
X128689440Y-80772869D01*
X128820109Y-80968428D01*
X128910115Y-81185723D01*
X128956000Y-81416401D01*
X128956000Y-81651599D01*
X128910115Y-81882277D01*
X128820109Y-82099572D01*
X128689440Y-82295131D01*
X128523131Y-82461440D01*
X128327572Y-82592109D01*
X128110277Y-82682115D01*
X127879599Y-82728000D01*
X127644401Y-82728000D01*
X127413723Y-82682115D01*
X127196428Y-82592109D01*
X127000869Y-82461440D01*
X126834560Y-82295131D01*
X126703891Y-82099572D01*
X126613885Y-81882277D01*
X126568000Y-81651599D01*
X126568000Y-81416401D01*
X126613885Y-81185723D01*
X126703891Y-80968428D01*
X126834560Y-80772869D01*
X127000869Y-80606560D01*
X127196428Y-80475891D01*
X127413723Y-80385885D01*
X127644401Y-80340000D01*
X127879599Y-80340000D01*
X128110277Y-80385885D01*
X128110277Y-80385885D01*
G37*
G36*
X242410277Y-80385885D02*
X242627572Y-80475891D01*
X242823131Y-80606560D01*
X242989440Y-80772869D01*
X243120109Y-80968428D01*
X243210115Y-81185723D01*
X243256000Y-81416401D01*
X243256000Y-81651599D01*
X243210115Y-81882277D01*
X243120109Y-82099572D01*
X242989440Y-82295131D01*
X242823131Y-82461440D01*
X242627572Y-82592109D01*
X242410277Y-82682115D01*
X242179599Y-82728000D01*
X241944401Y-82728000D01*
X241713723Y-82682115D01*
X241496428Y-82592109D01*
X241300869Y-82461440D01*
X241134560Y-82295131D01*
X241003891Y-82099572D01*
X240913885Y-81882277D01*
X240868000Y-81651599D01*
X240868000Y-81416401D01*
X240913885Y-81185723D01*
X241003891Y-80968428D01*
X241134560Y-80772869D01*
X241300869Y-80606560D01*
X241496428Y-80475891D01*
X241713723Y-80385885D01*
X241944401Y-80340000D01*
X242179599Y-80340000D01*
X242410277Y-80385885D01*
X242410277Y-80385885D01*
G37*
G36*
X109060277Y-80385885D02*
X109277572Y-80475891D01*
X109473131Y-80606560D01*
X109639440Y-80772869D01*
X109770109Y-80968428D01*
X109860115Y-81185723D01*
X109906000Y-81416401D01*
X109906000Y-81651599D01*
X109860115Y-81882277D01*
X109770109Y-82099572D01*
X109639440Y-82295131D01*
X109473131Y-82461440D01*
X109277572Y-82592109D01*
X109060277Y-82682115D01*
X108829599Y-82728000D01*
X108594401Y-82728000D01*
X108363723Y-82682115D01*
X108146428Y-82592109D01*
X107950869Y-82461440D01*
X107784560Y-82295131D01*
X107653891Y-82099572D01*
X107563885Y-81882277D01*
X107518000Y-81651599D01*
X107518000Y-81416401D01*
X107563885Y-81185723D01*
X107653891Y-80968428D01*
X107784560Y-80772869D01*
X107950869Y-80606560D01*
X108146428Y-80475891D01*
X108363723Y-80385885D01*
X108594401Y-80340000D01*
X108829599Y-80340000D01*
X109060277Y-80385885D01*
X109060277Y-80385885D01*
G37*
G36*
X166210277Y-80385885D02*
X166427572Y-80475891D01*
X166623131Y-80606560D01*
X166789440Y-80772869D01*
X166920109Y-80968428D01*
X167010115Y-81185723D01*
X167056000Y-81416401D01*
X167056000Y-81651599D01*
X167010115Y-81882277D01*
X166920109Y-82099572D01*
X166789440Y-82295131D01*
X166623131Y-82461440D01*
X166427572Y-82592109D01*
X166210277Y-82682115D01*
X165979599Y-82728000D01*
X165744401Y-82728000D01*
X165513723Y-82682115D01*
X165296428Y-82592109D01*
X165100869Y-82461440D01*
X164934560Y-82295131D01*
X164803891Y-82099572D01*
X164713885Y-81882277D01*
X164668000Y-81651599D01*
X164668000Y-81416401D01*
X164713885Y-81185723D01*
X164803891Y-80968428D01*
X164934560Y-80772869D01*
X165100869Y-80606560D01*
X165296428Y-80475891D01*
X165513723Y-80385885D01*
X165744401Y-80340000D01*
X165979599Y-80340000D01*
X166210277Y-80385885D01*
X166210277Y-80385885D01*
G37*
G36*
X33326565Y-76903889D02*
X33517834Y-76983115D01*
X33689976Y-77098137D01*
X33836363Y-77244524D01*
X33951385Y-77416666D01*
X34030611Y-77607935D01*
X34071000Y-77810984D01*
X34071000Y-78018016D01*
X34030611Y-78221065D01*
X33951385Y-78412334D01*
X33836363Y-78584476D01*
X33689976Y-78730863D01*
X33517834Y-78845885D01*
X33326565Y-78925111D01*
X33123516Y-78965500D01*
X32916484Y-78965500D01*
X32713435Y-78925111D01*
X32522166Y-78845885D01*
X32350024Y-78730863D01*
X32203637Y-78584476D01*
X32088615Y-78412334D01*
X32009389Y-78221065D01*
X31969000Y-78018016D01*
X31969000Y-77810984D01*
X32009389Y-77607935D01*
X32088615Y-77416666D01*
X32203637Y-77244524D01*
X32350024Y-77098137D01*
X32522166Y-76983115D01*
X32713435Y-76903889D01*
X32916484Y-76863500D01*
X33123516Y-76863500D01*
X33326565Y-76903889D01*
X33326565Y-76903889D01*
G37*
G36*
X28826565Y-76903889D02*
X29017834Y-76983115D01*
X29189976Y-77098137D01*
X29336363Y-77244524D01*
X29451385Y-77416666D01*
X29530611Y-77607935D01*
X29571000Y-77810984D01*
X29571000Y-78018016D01*
X29530611Y-78221065D01*
X29451385Y-78412334D01*
X29336363Y-78584476D01*
X29189976Y-78730863D01*
X29017834Y-78845885D01*
X28826565Y-78925111D01*
X28623516Y-78965500D01*
X28416484Y-78965500D01*
X28213435Y-78925111D01*
X28022166Y-78845885D01*
X27850024Y-78730863D01*
X27703637Y-78584476D01*
X27588615Y-78412334D01*
X27509389Y-78221065D01*
X27469000Y-78018016D01*
X27469000Y-77810984D01*
X27509389Y-77607935D01*
X27588615Y-77416666D01*
X27703637Y-77244524D01*
X27850024Y-77098137D01*
X28022166Y-76983115D01*
X28213435Y-76903889D01*
X28416484Y-76863500D01*
X28623516Y-76863500D01*
X28826565Y-76903889D01*
X28826565Y-76903889D01*
G37*
G36*
X34216907Y-74249117D02*
X34306483Y-74266935D01*
X34475241Y-74336837D01*
X34488032Y-74345384D01*
X34627122Y-74438321D01*
X34756279Y-74567478D01*
X34756281Y-74567481D01*
X34857763Y-74719359D01*
X34927665Y-74888117D01*
X34927665Y-74888119D01*
X34962267Y-75062073D01*
X34963300Y-75067269D01*
X34963300Y-75249931D01*
X34927665Y-75429083D01*
X34857763Y-75597841D01*
X34825725Y-75645789D01*
X34756279Y-75749722D01*
X34627122Y-75878879D01*
X34627119Y-75878881D01*
X34475241Y-75980363D01*
X34306483Y-76050265D01*
X34216907Y-76068083D01*
X34127333Y-76085900D01*
X33944667Y-76085900D01*
X33855093Y-76068083D01*
X33765517Y-76050265D01*
X33596759Y-75980363D01*
X33444881Y-75878881D01*
X33444878Y-75878879D01*
X33315721Y-75749722D01*
X33246275Y-75645789D01*
X33214237Y-75597841D01*
X33144335Y-75429083D01*
X33108700Y-75249931D01*
X33108700Y-75067269D01*
X33109734Y-75062073D01*
X33144335Y-74888119D01*
X33144335Y-74888117D01*
X33214237Y-74719359D01*
X33315719Y-74567481D01*
X33315721Y-74567478D01*
X33444878Y-74438321D01*
X33583968Y-74345384D01*
X33596759Y-74336837D01*
X33765517Y-74266935D01*
X33855093Y-74249117D01*
X33944667Y-74231300D01*
X34127333Y-74231300D01*
X34216907Y-74249117D01*
X34216907Y-74249117D01*
G37*
G36*
X44376907Y-74249117D02*
X44466483Y-74266935D01*
X44635241Y-74336837D01*
X44648032Y-74345384D01*
X44787122Y-74438321D01*
X44916279Y-74567478D01*
X44916281Y-74567481D01*
X45017763Y-74719359D01*
X45087665Y-74888117D01*
X45087665Y-74888119D01*
X45122267Y-75062073D01*
X45123300Y-75067269D01*
X45123300Y-75249931D01*
X45087665Y-75429083D01*
X45017763Y-75597841D01*
X44985725Y-75645789D01*
X44916279Y-75749722D01*
X44787122Y-75878879D01*
X44787119Y-75878881D01*
X44635241Y-75980363D01*
X44466483Y-76050265D01*
X44376907Y-76068083D01*
X44287333Y-76085900D01*
X44104667Y-76085900D01*
X44015093Y-76068083D01*
X43925517Y-76050265D01*
X43756759Y-75980363D01*
X43604881Y-75878881D01*
X43604878Y-75878879D01*
X43475721Y-75749722D01*
X43406275Y-75645789D01*
X43374237Y-75597841D01*
X43304335Y-75429083D01*
X43268700Y-75249931D01*
X43268700Y-75067269D01*
X43269734Y-75062073D01*
X43304335Y-74888119D01*
X43304335Y-74888117D01*
X43374237Y-74719359D01*
X43475719Y-74567481D01*
X43475721Y-74567478D01*
X43604878Y-74438321D01*
X43743968Y-74345384D01*
X43756759Y-74336837D01*
X43925517Y-74266935D01*
X44015093Y-74249117D01*
X44104667Y-74231300D01*
X44287333Y-74231300D01*
X44376907Y-74249117D01*
X44376907Y-74249117D01*
G37*
G36*
X49456907Y-74249117D02*
X49546483Y-74266935D01*
X49715241Y-74336837D01*
X49728032Y-74345384D01*
X49867122Y-74438321D01*
X49996279Y-74567478D01*
X49996281Y-74567481D01*
X50097763Y-74719359D01*
X50167665Y-74888117D01*
X50167665Y-74888119D01*
X50202267Y-75062073D01*
X50203300Y-75067269D01*
X50203300Y-75249931D01*
X50167665Y-75429083D01*
X50097763Y-75597841D01*
X50065725Y-75645789D01*
X49996279Y-75749722D01*
X49867122Y-75878879D01*
X49867119Y-75878881D01*
X49715241Y-75980363D01*
X49546483Y-76050265D01*
X49456907Y-76068083D01*
X49367333Y-76085900D01*
X49184667Y-76085900D01*
X49095093Y-76068083D01*
X49005517Y-76050265D01*
X48836759Y-75980363D01*
X48684881Y-75878881D01*
X48684878Y-75878879D01*
X48555721Y-75749722D01*
X48486275Y-75645789D01*
X48454237Y-75597841D01*
X48384335Y-75429083D01*
X48348700Y-75249931D01*
X48348700Y-75067269D01*
X48349734Y-75062073D01*
X48384335Y-74888119D01*
X48384335Y-74888117D01*
X48454237Y-74719359D01*
X48555719Y-74567481D01*
X48555721Y-74567478D01*
X48684878Y-74438321D01*
X48823968Y-74345384D01*
X48836759Y-74336837D01*
X49005517Y-74266935D01*
X49095093Y-74249117D01*
X49184667Y-74231300D01*
X49367333Y-74231300D01*
X49456907Y-74249117D01*
X49456907Y-74249117D01*
G37*
G36*
X39296907Y-74249117D02*
X39386483Y-74266935D01*
X39555241Y-74336837D01*
X39568032Y-74345384D01*
X39707122Y-74438321D01*
X39836279Y-74567478D01*
X39836281Y-74567481D01*
X39937763Y-74719359D01*
X40007665Y-74888117D01*
X40007665Y-74888119D01*
X40042267Y-75062073D01*
X40043300Y-75067269D01*
X40043300Y-75249931D01*
X40007665Y-75429083D01*
X39937763Y-75597841D01*
X39905725Y-75645789D01*
X39836279Y-75749722D01*
X39707122Y-75878879D01*
X39707119Y-75878881D01*
X39555241Y-75980363D01*
X39386483Y-76050265D01*
X39296907Y-76068083D01*
X39207333Y-76085900D01*
X39024667Y-76085900D01*
X38935093Y-76068083D01*
X38845517Y-76050265D01*
X38676759Y-75980363D01*
X38524881Y-75878881D01*
X38524878Y-75878879D01*
X38395721Y-75749722D01*
X38326275Y-75645789D01*
X38294237Y-75597841D01*
X38224335Y-75429083D01*
X38188700Y-75249931D01*
X38188700Y-75067269D01*
X38189734Y-75062073D01*
X38224335Y-74888119D01*
X38224335Y-74888117D01*
X38294237Y-74719359D01*
X38395719Y-74567481D01*
X38395721Y-74567478D01*
X38524878Y-74438321D01*
X38663968Y-74345384D01*
X38676759Y-74336837D01*
X38845517Y-74266935D01*
X38935093Y-74249117D01*
X39024667Y-74231300D01*
X39207333Y-74231300D01*
X39296907Y-74249117D01*
X39296907Y-74249117D01*
G37*
G36*
X54536907Y-74249117D02*
X54626483Y-74266935D01*
X54795241Y-74336837D01*
X54808032Y-74345384D01*
X54947122Y-74438321D01*
X55076279Y-74567478D01*
X55076281Y-74567481D01*
X55177763Y-74719359D01*
X55247665Y-74888117D01*
X55247665Y-74888119D01*
X55282267Y-75062073D01*
X55283300Y-75067269D01*
X55283300Y-75249931D01*
X55247665Y-75429083D01*
X55177763Y-75597841D01*
X55145725Y-75645789D01*
X55076279Y-75749722D01*
X54947122Y-75878879D01*
X54947119Y-75878881D01*
X54795241Y-75980363D01*
X54626483Y-76050265D01*
X54536907Y-76068083D01*
X54447333Y-76085900D01*
X54264667Y-76085900D01*
X54175093Y-76068083D01*
X54085517Y-76050265D01*
X53916759Y-75980363D01*
X53764881Y-75878881D01*
X53764878Y-75878879D01*
X53635721Y-75749722D01*
X53566275Y-75645789D01*
X53534237Y-75597841D01*
X53464335Y-75429083D01*
X53428700Y-75249931D01*
X53428700Y-75067269D01*
X53429734Y-75062073D01*
X53464335Y-74888119D01*
X53464335Y-74888117D01*
X53534237Y-74719359D01*
X53635719Y-74567481D01*
X53635721Y-74567478D01*
X53764878Y-74438321D01*
X53903968Y-74345384D01*
X53916759Y-74336837D01*
X54085517Y-74266935D01*
X54175093Y-74249117D01*
X54264667Y-74231300D01*
X54447333Y-74231300D01*
X54536907Y-74249117D01*
X54536907Y-74249117D01*
G37*
G36*
X29136907Y-74249117D02*
X29226483Y-74266935D01*
X29395241Y-74336837D01*
X29408032Y-74345384D01*
X29547122Y-74438321D01*
X29676279Y-74567478D01*
X29676281Y-74567481D01*
X29777763Y-74719359D01*
X29847665Y-74888117D01*
X29847665Y-74888119D01*
X29882267Y-75062073D01*
X29883300Y-75067269D01*
X29883300Y-75249931D01*
X29847665Y-75429083D01*
X29777763Y-75597841D01*
X29745725Y-75645789D01*
X29676279Y-75749722D01*
X29547122Y-75878879D01*
X29547119Y-75878881D01*
X29395241Y-75980363D01*
X29226483Y-76050265D01*
X29136907Y-76068083D01*
X29047333Y-76085900D01*
X28864667Y-76085900D01*
X28775093Y-76068083D01*
X28685517Y-76050265D01*
X28516759Y-75980363D01*
X28364881Y-75878881D01*
X28364878Y-75878879D01*
X28235721Y-75749722D01*
X28166275Y-75645789D01*
X28134237Y-75597841D01*
X28064335Y-75429083D01*
X28028700Y-75249931D01*
X28028700Y-75067269D01*
X28029734Y-75062073D01*
X28064335Y-74888119D01*
X28064335Y-74888117D01*
X28134237Y-74719359D01*
X28235719Y-74567481D01*
X28235721Y-74567478D01*
X28364878Y-74438321D01*
X28503968Y-74345384D01*
X28516759Y-74336837D01*
X28685517Y-74266935D01*
X28775093Y-74249117D01*
X28864667Y-74231300D01*
X29047333Y-74231300D01*
X29136907Y-74249117D01*
X29136907Y-74249117D01*
G37*
G36*
X182897331Y-72436211D02*
X183225092Y-72571974D01*
X183520073Y-72769074D01*
X183770926Y-73019927D01*
X183968026Y-73314908D01*
X184103789Y-73642669D01*
X184173000Y-73990616D01*
X184173000Y-74345384D01*
X184103789Y-74693331D01*
X183968026Y-75021092D01*
X183770926Y-75316073D01*
X183520073Y-75566926D01*
X183225092Y-75764026D01*
X182897331Y-75899789D01*
X182549384Y-75969000D01*
X182194616Y-75969000D01*
X181846669Y-75899789D01*
X181518908Y-75764026D01*
X181223927Y-75566926D01*
X180973074Y-75316073D01*
X180775974Y-75021092D01*
X180640211Y-74693331D01*
X180571000Y-74345384D01*
X180571000Y-73990616D01*
X180640211Y-73642669D01*
X180775974Y-73314908D01*
X180973074Y-73019927D01*
X181223927Y-72769074D01*
X181518908Y-72571974D01*
X181846669Y-72436211D01*
X182194616Y-72367000D01*
X182549384Y-72367000D01*
X182897331Y-72436211D01*
X182897331Y-72436211D01*
G37*
G36*
X125493331Y-72182211D02*
X125821092Y-72317974D01*
X126116073Y-72515074D01*
X126366926Y-72765927D01*
X126564026Y-73060908D01*
X126699789Y-73388669D01*
X126769000Y-73736616D01*
X126769000Y-74091384D01*
X126699789Y-74439331D01*
X126564026Y-74767092D01*
X126366926Y-75062073D01*
X126116073Y-75312926D01*
X125821092Y-75510026D01*
X125493331Y-75645789D01*
X125145384Y-75715000D01*
X124790616Y-75715000D01*
X124442669Y-75645789D01*
X124114908Y-75510026D01*
X123819927Y-75312926D01*
X123569074Y-75062073D01*
X123371974Y-74767092D01*
X123236211Y-74439331D01*
X123167000Y-74091384D01*
X123167000Y-73736616D01*
X123236211Y-73388669D01*
X123371974Y-73060908D01*
X123569074Y-72765927D01*
X123819927Y-72515074D01*
X124114908Y-72317974D01*
X124442669Y-72182211D01*
X124790616Y-72113000D01*
X125145384Y-72113000D01*
X125493331Y-72182211D01*
X125493331Y-72182211D01*
G37*
G36*
X31676907Y-73791917D02*
X31766483Y-73809735D01*
X31935241Y-73879637D01*
X31935242Y-73879638D01*
X32087122Y-73981121D01*
X32216279Y-74110278D01*
X32216281Y-74110281D01*
X32317763Y-74262159D01*
X32387665Y-74430917D01*
X32423300Y-74610069D01*
X32423300Y-74792731D01*
X32387665Y-74971883D01*
X32317763Y-75140641D01*
X32317762Y-75140642D01*
X32216279Y-75292522D01*
X32087122Y-75421679D01*
X32087119Y-75421681D01*
X31935241Y-75523163D01*
X31766483Y-75593065D01*
X31676907Y-75610883D01*
X31587333Y-75628700D01*
X31404667Y-75628700D01*
X31315093Y-75610883D01*
X31225517Y-75593065D01*
X31056759Y-75523163D01*
X30904881Y-75421681D01*
X30904878Y-75421679D01*
X30775721Y-75292522D01*
X30674238Y-75140642D01*
X30674237Y-75140641D01*
X30604335Y-74971883D01*
X30568700Y-74792731D01*
X30568700Y-74610069D01*
X30604335Y-74430917D01*
X30674237Y-74262159D01*
X30775719Y-74110281D01*
X30775721Y-74110278D01*
X30904878Y-73981121D01*
X31056758Y-73879638D01*
X31056759Y-73879637D01*
X31225517Y-73809735D01*
X31315093Y-73791917D01*
X31404667Y-73774100D01*
X31587333Y-73774100D01*
X31676907Y-73791917D01*
X31676907Y-73791917D01*
G37*
G36*
X57076907Y-73791917D02*
X57166483Y-73809735D01*
X57335241Y-73879637D01*
X57335242Y-73879638D01*
X57487122Y-73981121D01*
X57616279Y-74110278D01*
X57616281Y-74110281D01*
X57717763Y-74262159D01*
X57787665Y-74430917D01*
X57823300Y-74610069D01*
X57823300Y-74792731D01*
X57787665Y-74971883D01*
X57717763Y-75140641D01*
X57717762Y-75140642D01*
X57616279Y-75292522D01*
X57487122Y-75421679D01*
X57487119Y-75421681D01*
X57335241Y-75523163D01*
X57166483Y-75593065D01*
X57076907Y-75610883D01*
X56987333Y-75628700D01*
X56804667Y-75628700D01*
X56715093Y-75610883D01*
X56625517Y-75593065D01*
X56456759Y-75523163D01*
X56304881Y-75421681D01*
X56304878Y-75421679D01*
X56175721Y-75292522D01*
X56074238Y-75140642D01*
X56074237Y-75140641D01*
X56004335Y-74971883D01*
X55968700Y-74792731D01*
X55968700Y-74610069D01*
X56004335Y-74430917D01*
X56074237Y-74262159D01*
X56175719Y-74110281D01*
X56175721Y-74110278D01*
X56304878Y-73981121D01*
X56456758Y-73879638D01*
X56456759Y-73879637D01*
X56625517Y-73809735D01*
X56715093Y-73791917D01*
X56804667Y-73774100D01*
X56987333Y-73774100D01*
X57076907Y-73791917D01*
X57076907Y-73791917D01*
G37*
G36*
X36756907Y-73791917D02*
X36846483Y-73809735D01*
X37015241Y-73879637D01*
X37015242Y-73879638D01*
X37167122Y-73981121D01*
X37296279Y-74110278D01*
X37296281Y-74110281D01*
X37397763Y-74262159D01*
X37467665Y-74430917D01*
X37503300Y-74610069D01*
X37503300Y-74792731D01*
X37467665Y-74971883D01*
X37397763Y-75140641D01*
X37397762Y-75140642D01*
X37296279Y-75292522D01*
X37167122Y-75421679D01*
X37167119Y-75421681D01*
X37015241Y-75523163D01*
X36846483Y-75593065D01*
X36756907Y-75610883D01*
X36667333Y-75628700D01*
X36484667Y-75628700D01*
X36395093Y-75610883D01*
X36305517Y-75593065D01*
X36136759Y-75523163D01*
X35984881Y-75421681D01*
X35984878Y-75421679D01*
X35855721Y-75292522D01*
X35754238Y-75140642D01*
X35754237Y-75140641D01*
X35684335Y-74971883D01*
X35648700Y-74792731D01*
X35648700Y-74610069D01*
X35684335Y-74430917D01*
X35754237Y-74262159D01*
X35855719Y-74110281D01*
X35855721Y-74110278D01*
X35984878Y-73981121D01*
X36136758Y-73879638D01*
X36136759Y-73879637D01*
X36305517Y-73809735D01*
X36395093Y-73791917D01*
X36484667Y-73774100D01*
X36667333Y-73774100D01*
X36756907Y-73791917D01*
X36756907Y-73791917D01*
G37*
G36*
X41836907Y-73791917D02*
X41926483Y-73809735D01*
X42095241Y-73879637D01*
X42095242Y-73879638D01*
X42247122Y-73981121D01*
X42376279Y-74110278D01*
X42376281Y-74110281D01*
X42477763Y-74262159D01*
X42547665Y-74430917D01*
X42583300Y-74610069D01*
X42583300Y-74792731D01*
X42547665Y-74971883D01*
X42477763Y-75140641D01*
X42477762Y-75140642D01*
X42376279Y-75292522D01*
X42247122Y-75421679D01*
X42247119Y-75421681D01*
X42095241Y-75523163D01*
X41926483Y-75593065D01*
X41836907Y-75610883D01*
X41747333Y-75628700D01*
X41564667Y-75628700D01*
X41475093Y-75610883D01*
X41385517Y-75593065D01*
X41216759Y-75523163D01*
X41064881Y-75421681D01*
X41064878Y-75421679D01*
X40935721Y-75292522D01*
X40834238Y-75140642D01*
X40834237Y-75140641D01*
X40764335Y-74971883D01*
X40728700Y-74792731D01*
X40728700Y-74610069D01*
X40764335Y-74430917D01*
X40834237Y-74262159D01*
X40935719Y-74110281D01*
X40935721Y-74110278D01*
X41064878Y-73981121D01*
X41216758Y-73879638D01*
X41216759Y-73879637D01*
X41385517Y-73809735D01*
X41475093Y-73791917D01*
X41564667Y-73774100D01*
X41747333Y-73774100D01*
X41836907Y-73791917D01*
X41836907Y-73791917D01*
G37*
G36*
X51996907Y-73791917D02*
X52086483Y-73809735D01*
X52255241Y-73879637D01*
X52255242Y-73879638D01*
X52407122Y-73981121D01*
X52536279Y-74110278D01*
X52536281Y-74110281D01*
X52637763Y-74262159D01*
X52707665Y-74430917D01*
X52743300Y-74610069D01*
X52743300Y-74792731D01*
X52707665Y-74971883D01*
X52637763Y-75140641D01*
X52637762Y-75140642D01*
X52536279Y-75292522D01*
X52407122Y-75421679D01*
X52407119Y-75421681D01*
X52255241Y-75523163D01*
X52086483Y-75593065D01*
X51996907Y-75610883D01*
X51907333Y-75628700D01*
X51724667Y-75628700D01*
X51635093Y-75610883D01*
X51545517Y-75593065D01*
X51376759Y-75523163D01*
X51224881Y-75421681D01*
X51224878Y-75421679D01*
X51095721Y-75292522D01*
X50994238Y-75140642D01*
X50994237Y-75140641D01*
X50924335Y-74971883D01*
X50888700Y-74792731D01*
X50888700Y-74610069D01*
X50924335Y-74430917D01*
X50994237Y-74262159D01*
X51095719Y-74110281D01*
X51095721Y-74110278D01*
X51224878Y-73981121D01*
X51376758Y-73879638D01*
X51376759Y-73879637D01*
X51545517Y-73809735D01*
X51635093Y-73791917D01*
X51724667Y-73774100D01*
X51907333Y-73774100D01*
X51996907Y-73791917D01*
X51996907Y-73791917D01*
G37*
G36*
X46916907Y-73791917D02*
X47006483Y-73809735D01*
X47175241Y-73879637D01*
X47175242Y-73879638D01*
X47327122Y-73981121D01*
X47456279Y-74110278D01*
X47456281Y-74110281D01*
X47557763Y-74262159D01*
X47627665Y-74430917D01*
X47663300Y-74610069D01*
X47663300Y-74792731D01*
X47627665Y-74971883D01*
X47557763Y-75140641D01*
X47557762Y-75140642D01*
X47456279Y-75292522D01*
X47327122Y-75421679D01*
X47327119Y-75421681D01*
X47175241Y-75523163D01*
X47006483Y-75593065D01*
X46916907Y-75610883D01*
X46827333Y-75628700D01*
X46644667Y-75628700D01*
X46555093Y-75610883D01*
X46465517Y-75593065D01*
X46296759Y-75523163D01*
X46144881Y-75421681D01*
X46144878Y-75421679D01*
X46015721Y-75292522D01*
X45914238Y-75140642D01*
X45914237Y-75140641D01*
X45844335Y-74971883D01*
X45808700Y-74792731D01*
X45808700Y-74610069D01*
X45844335Y-74430917D01*
X45914237Y-74262159D01*
X46015719Y-74110281D01*
X46015721Y-74110278D01*
X46144878Y-73981121D01*
X46296758Y-73879638D01*
X46296759Y-73879637D01*
X46465517Y-73809735D01*
X46555093Y-73791917D01*
X46644667Y-73774100D01*
X46827333Y-73774100D01*
X46916907Y-73791917D01*
X46916907Y-73791917D01*
G37*
G36*
X69532600Y-73647400D02*
X67830600Y-73647400D01*
X67830600Y-71945400D01*
X69532600Y-71945400D01*
X69532600Y-73647400D01*
X69532600Y-73647400D01*
G37*
G36*
X164782600Y-73469600D02*
X163080600Y-73469600D01*
X163080600Y-71767600D01*
X164782600Y-71767600D01*
X164782600Y-73469600D01*
X164782600Y-73469600D01*
G37*
G36*
X203060400Y-73469600D02*
X201358400Y-73469600D01*
X201358400Y-71767600D01*
X203060400Y-71767600D01*
X203060400Y-73469600D01*
X203060400Y-73469600D01*
G37*
G36*
X145707200Y-73444200D02*
X144005200Y-73444200D01*
X144005200Y-71742200D01*
X145707200Y-71742200D01*
X145707200Y-73444200D01*
X145707200Y-73444200D01*
G37*
G36*
X107556400Y-73444200D02*
X105854400Y-73444200D01*
X105854400Y-71742200D01*
X107556400Y-71742200D01*
X107556400Y-73444200D01*
X107556400Y-73444200D01*
G37*
G36*
X222034200Y-73418800D02*
X220332200Y-73418800D01*
X220332200Y-71716800D01*
X222034200Y-71716800D01*
X222034200Y-73418800D01*
X222034200Y-73418800D01*
G37*
G36*
X247764400Y-73418800D02*
X246062400Y-73418800D01*
X246062400Y-71716800D01*
X247764400Y-71716800D01*
X247764400Y-73418800D01*
X247764400Y-73418800D01*
G37*
G36*
X88735000Y-73393400D02*
X87033000Y-73393400D01*
X87033000Y-71691400D01*
X88735000Y-71691400D01*
X88735000Y-73393400D01*
X88735000Y-73393400D01*
G37*
G36*
X47410821Y-69773313D02*
X47410824Y-69773314D01*
X47410825Y-69773314D01*
X47571239Y-69821975D01*
X47571241Y-69821976D01*
X47571244Y-69821977D01*
X47719078Y-69900995D01*
X47848659Y-70007341D01*
X47955005Y-70136922D01*
X48034023Y-70284756D01*
X48082687Y-70445179D01*
X48099117Y-70612000D01*
X48082687Y-70778821D01*
X48034023Y-70939244D01*
X47955005Y-71087078D01*
X47848659Y-71216659D01*
X47719078Y-71323005D01*
X47571244Y-71402023D01*
X47571241Y-71402024D01*
X47571239Y-71402025D01*
X47410825Y-71450686D01*
X47410824Y-71450686D01*
X47410821Y-71450687D01*
X47285804Y-71463000D01*
X47202196Y-71463000D01*
X47077179Y-71450687D01*
X47077176Y-71450686D01*
X47077175Y-71450686D01*
X46916761Y-71402025D01*
X46916759Y-71402024D01*
X46916756Y-71402023D01*
X46768922Y-71323005D01*
X46639341Y-71216659D01*
X46532995Y-71087078D01*
X46453977Y-70939244D01*
X46405313Y-70778821D01*
X46388883Y-70612000D01*
X46405313Y-70445179D01*
X46453977Y-70284756D01*
X46532995Y-70136922D01*
X46639341Y-70007341D01*
X46768922Y-69900995D01*
X46916756Y-69821977D01*
X46916759Y-69821976D01*
X46916761Y-69821975D01*
X47077175Y-69773314D01*
X47077176Y-69773314D01*
X47077179Y-69773313D01*
X47202196Y-69761000D01*
X47285804Y-69761000D01*
X47410821Y-69773313D01*
X47410821Y-69773313D01*
G37*
G36*
X51143000Y-71463000D02*
X49441000Y-71463000D01*
X49441000Y-69761000D01*
X51143000Y-69761000D01*
X51143000Y-71463000D01*
X51143000Y-71463000D01*
G37*
G36*
X184239000Y-70193000D02*
X182537000Y-70193000D01*
X182537000Y-68491000D01*
X184239000Y-68491000D01*
X184239000Y-70193000D01*
X184239000Y-70193000D01*
G37*
G36*
X126962000Y-70066000D02*
X125260000Y-70066000D01*
X125260000Y-68364000D01*
X126962000Y-68364000D01*
X126962000Y-70066000D01*
X126962000Y-70066000D01*
G37*
G36*
X93363077Y-64104485D02*
X93580372Y-64194491D01*
X93775931Y-64325160D01*
X93942240Y-64491469D01*
X94072909Y-64687028D01*
X94162915Y-64904323D01*
X94208800Y-65135001D01*
X94208800Y-65370199D01*
X94162915Y-65600877D01*
X94072909Y-65818172D01*
X93942240Y-66013731D01*
X93775931Y-66180040D01*
X93580372Y-66310709D01*
X93436264Y-66370400D01*
X93363077Y-66400715D01*
X93132399Y-66446600D01*
X92897201Y-66446600D01*
X92666523Y-66400715D01*
X92593336Y-66370400D01*
X92449228Y-66310709D01*
X92253669Y-66180040D01*
X92087360Y-66013731D01*
X91956691Y-65818172D01*
X91866685Y-65600877D01*
X91820800Y-65370199D01*
X91820800Y-65135001D01*
X91866685Y-64904323D01*
X91956691Y-64687028D01*
X92087360Y-64491469D01*
X92253669Y-64325160D01*
X92449228Y-64194491D01*
X92666523Y-64104485D01*
X92897201Y-64058600D01*
X93132399Y-64058600D01*
X93363077Y-64104485D01*
X93363077Y-64104485D01*
G37*
G36*
X169563077Y-64079085D02*
X169780372Y-64169091D01*
X169975931Y-64299760D01*
X170142240Y-64466069D01*
X170272909Y-64661628D01*
X170362915Y-64878923D01*
X170408800Y-65109601D01*
X170408800Y-65344799D01*
X170362915Y-65575477D01*
X170272909Y-65792772D01*
X170142240Y-65988331D01*
X169975931Y-66154640D01*
X169780372Y-66285309D01*
X169563077Y-66375315D01*
X169332399Y-66421200D01*
X169097201Y-66421200D01*
X168866523Y-66375315D01*
X168649228Y-66285309D01*
X168453669Y-66154640D01*
X168287360Y-65988331D01*
X168156691Y-65792772D01*
X168066685Y-65575477D01*
X168020800Y-65344799D01*
X168020800Y-65109601D01*
X168066685Y-64878923D01*
X168156691Y-64661628D01*
X168287360Y-64466069D01*
X168453669Y-64299760D01*
X168649228Y-64169091D01*
X168866523Y-64079085D01*
X169097201Y-64033200D01*
X169332399Y-64033200D01*
X169563077Y-64079085D01*
X169563077Y-64079085D01*
G37*
G36*
X150513077Y-64053685D02*
X150730372Y-64143691D01*
X150925931Y-64274360D01*
X151092240Y-64440669D01*
X151222909Y-64636228D01*
X151312915Y-64853523D01*
X151358800Y-65084201D01*
X151358800Y-65319399D01*
X151312915Y-65550077D01*
X151222909Y-65767372D01*
X151092240Y-65962931D01*
X150925931Y-66129240D01*
X150730372Y-66259909D01*
X150607729Y-66310709D01*
X150513077Y-66349915D01*
X150282399Y-66395800D01*
X150047201Y-66395800D01*
X149816523Y-66349915D01*
X149721871Y-66310709D01*
X149599228Y-66259909D01*
X149403669Y-66129240D01*
X149237360Y-65962931D01*
X149106691Y-65767372D01*
X149016685Y-65550077D01*
X148970800Y-65319399D01*
X148970800Y-65084201D01*
X149016685Y-64853523D01*
X149106691Y-64636228D01*
X149237360Y-64440669D01*
X149403669Y-64274360D01*
X149599228Y-64143691D01*
X149816523Y-64053685D01*
X150047201Y-64007800D01*
X150282399Y-64007800D01*
X150513077Y-64053685D01*
X150513077Y-64053685D01*
G37*
G36*
X188638477Y-64053685D02*
X188855772Y-64143691D01*
X189051331Y-64274360D01*
X189217640Y-64440669D01*
X189348309Y-64636228D01*
X189438315Y-64853523D01*
X189484200Y-65084201D01*
X189484200Y-65319399D01*
X189438315Y-65550077D01*
X189348309Y-65767372D01*
X189217640Y-65962931D01*
X189051331Y-66129240D01*
X188855772Y-66259909D01*
X188733129Y-66310709D01*
X188638477Y-66349915D01*
X188407799Y-66395800D01*
X188172601Y-66395800D01*
X187941923Y-66349915D01*
X187847271Y-66310709D01*
X187724628Y-66259909D01*
X187529069Y-66129240D01*
X187362760Y-65962931D01*
X187232091Y-65767372D01*
X187142085Y-65550077D01*
X187096200Y-65319399D01*
X187096200Y-65084201D01*
X187142085Y-64853523D01*
X187232091Y-64636228D01*
X187362760Y-64440669D01*
X187529069Y-64274360D01*
X187724628Y-64143691D01*
X187941923Y-64053685D01*
X188172601Y-64007800D01*
X188407799Y-64007800D01*
X188638477Y-64053685D01*
X188638477Y-64053685D01*
G37*
G36*
X226738477Y-64053685D02*
X226955772Y-64143691D01*
X227151331Y-64274360D01*
X227317640Y-64440669D01*
X227448309Y-64636228D01*
X227538315Y-64853523D01*
X227584200Y-65084201D01*
X227584200Y-65319399D01*
X227538315Y-65550077D01*
X227448309Y-65767372D01*
X227317640Y-65962931D01*
X227151331Y-66129240D01*
X226955772Y-66259909D01*
X226833129Y-66310709D01*
X226738477Y-66349915D01*
X226507799Y-66395800D01*
X226272601Y-66395800D01*
X226041923Y-66349915D01*
X225947271Y-66310709D01*
X225824628Y-66259909D01*
X225629069Y-66129240D01*
X225462760Y-65962931D01*
X225332091Y-65767372D01*
X225242085Y-65550077D01*
X225196200Y-65319399D01*
X225196200Y-65084201D01*
X225242085Y-64853523D01*
X225332091Y-64636228D01*
X225462760Y-64440669D01*
X225629069Y-64274360D01*
X225824628Y-64143691D01*
X226041923Y-64053685D01*
X226272601Y-64007800D01*
X226507799Y-64007800D01*
X226738477Y-64053685D01*
X226738477Y-64053685D01*
G37*
G36*
X131463077Y-64028285D02*
X131680372Y-64118291D01*
X131875931Y-64248960D01*
X132042240Y-64415269D01*
X132172909Y-64610828D01*
X132262915Y-64828123D01*
X132308800Y-65058801D01*
X132308800Y-65293999D01*
X132262915Y-65524677D01*
X132172909Y-65741972D01*
X132042240Y-65937531D01*
X131875931Y-66103840D01*
X131680372Y-66234509D01*
X131463077Y-66324515D01*
X131232399Y-66370400D01*
X130997201Y-66370400D01*
X130766523Y-66324515D01*
X130549228Y-66234509D01*
X130353669Y-66103840D01*
X130187360Y-65937531D01*
X130056691Y-65741972D01*
X129966685Y-65524677D01*
X129920800Y-65293999D01*
X129920800Y-65058801D01*
X129966685Y-64828123D01*
X130056691Y-64610828D01*
X130187360Y-64415269D01*
X130353669Y-64248960D01*
X130549228Y-64118291D01*
X130766523Y-64028285D01*
X130997201Y-63982400D01*
X131232399Y-63982400D01*
X131463077Y-64028285D01*
X131463077Y-64028285D01*
G37*
G36*
X207688477Y-64002885D02*
X207905772Y-64092891D01*
X208101331Y-64223560D01*
X208267640Y-64389869D01*
X208398309Y-64585428D01*
X208488315Y-64802723D01*
X208534200Y-65033401D01*
X208534200Y-65268599D01*
X208488315Y-65499277D01*
X208398309Y-65716572D01*
X208267640Y-65912131D01*
X208101331Y-66078440D01*
X207905772Y-66209109D01*
X207688477Y-66299115D01*
X207457799Y-66345000D01*
X207222601Y-66345000D01*
X206991923Y-66299115D01*
X206774628Y-66209109D01*
X206579069Y-66078440D01*
X206412760Y-65912131D01*
X206282091Y-65716572D01*
X206192085Y-65499277D01*
X206146200Y-65268599D01*
X206146200Y-65033401D01*
X206192085Y-64802723D01*
X206282091Y-64585428D01*
X206412760Y-64389869D01*
X206579069Y-64223560D01*
X206774628Y-64092891D01*
X206991923Y-64002885D01*
X207222601Y-63957000D01*
X207457799Y-63957000D01*
X207688477Y-64002885D01*
X207688477Y-64002885D01*
G37*
G36*
X112438477Y-64002885D02*
X112655772Y-64092891D01*
X112851331Y-64223560D01*
X113017640Y-64389869D01*
X113148309Y-64585428D01*
X113238315Y-64802723D01*
X113284200Y-65033401D01*
X113284200Y-65268599D01*
X113238315Y-65499277D01*
X113148309Y-65716572D01*
X113017640Y-65912131D01*
X112851331Y-66078440D01*
X112655772Y-66209109D01*
X112438477Y-66299115D01*
X112207799Y-66345000D01*
X111972601Y-66345000D01*
X111741923Y-66299115D01*
X111524628Y-66209109D01*
X111329069Y-66078440D01*
X111162760Y-65912131D01*
X111032091Y-65716572D01*
X110942085Y-65499277D01*
X110896200Y-65268599D01*
X110896200Y-65033401D01*
X110942085Y-64802723D01*
X111032091Y-64585428D01*
X111162760Y-64389869D01*
X111329069Y-64223560D01*
X111524628Y-64092891D01*
X111741923Y-64002885D01*
X111972601Y-63957000D01*
X112207799Y-63957000D01*
X112438477Y-64002885D01*
X112438477Y-64002885D01*
G37*
G36*
X74313077Y-63952085D02*
X74530372Y-64042091D01*
X74725931Y-64172760D01*
X74892240Y-64339069D01*
X75022909Y-64534628D01*
X75112915Y-64751923D01*
X75158800Y-64982601D01*
X75158800Y-65217799D01*
X75112915Y-65448477D01*
X75022909Y-65665772D01*
X74892240Y-65861331D01*
X74725931Y-66027640D01*
X74530372Y-66158309D01*
X74477908Y-66180040D01*
X74313077Y-66248315D01*
X74082399Y-66294200D01*
X73847201Y-66294200D01*
X73616523Y-66248315D01*
X73451692Y-66180040D01*
X73399228Y-66158309D01*
X73203669Y-66027640D01*
X73037360Y-65861331D01*
X72906691Y-65665772D01*
X72816685Y-65448477D01*
X72770800Y-65217799D01*
X72770800Y-64982601D01*
X72816685Y-64751923D01*
X72906691Y-64534628D01*
X73037360Y-64339069D01*
X73203669Y-64172760D01*
X73399228Y-64042091D01*
X73616523Y-63952085D01*
X73847201Y-63906200D01*
X74082399Y-63906200D01*
X74313077Y-63952085D01*
X74313077Y-63952085D01*
G37*
G36*
X55237677Y-63952085D02*
X55454972Y-64042091D01*
X55650531Y-64172760D01*
X55816840Y-64339069D01*
X55947509Y-64534628D01*
X56037515Y-64751923D01*
X56083400Y-64982601D01*
X56083400Y-65217799D01*
X56037515Y-65448477D01*
X55947509Y-65665772D01*
X55816840Y-65861331D01*
X55650531Y-66027640D01*
X55454972Y-66158309D01*
X55237677Y-66248315D01*
X55006999Y-66294200D01*
X54771801Y-66294200D01*
X54541123Y-66248315D01*
X54323828Y-66158309D01*
X54128269Y-66027640D01*
X53961960Y-65861331D01*
X53831291Y-65665772D01*
X53741285Y-65448477D01*
X53695400Y-65217799D01*
X53695400Y-64982601D01*
X53741285Y-64751923D01*
X53831291Y-64534628D01*
X53961960Y-64339069D01*
X54128269Y-64172760D01*
X54323828Y-64042091D01*
X54541123Y-63952085D01*
X54771801Y-63906200D01*
X55006999Y-63906200D01*
X55237677Y-63952085D01*
X55237677Y-63952085D01*
G37*
G36*
X252824277Y-63875885D02*
X253041572Y-63965891D01*
X253237131Y-64096560D01*
X253403440Y-64262869D01*
X253534109Y-64458428D01*
X253624115Y-64675723D01*
X253670000Y-64906401D01*
X253670000Y-65141599D01*
X253624115Y-65372277D01*
X253534109Y-65589572D01*
X253403440Y-65785131D01*
X253237131Y-65951440D01*
X253041572Y-66082109D01*
X252824277Y-66172115D01*
X252593599Y-66218000D01*
X252358401Y-66218000D01*
X252127723Y-66172115D01*
X251910428Y-66082109D01*
X251714869Y-65951440D01*
X251548560Y-65785131D01*
X251417891Y-65589572D01*
X251327885Y-65372277D01*
X251282000Y-65141599D01*
X251282000Y-64906401D01*
X251327885Y-64675723D01*
X251417891Y-64458428D01*
X251548560Y-64262869D01*
X251714869Y-64096560D01*
X251910428Y-63965891D01*
X252127723Y-63875885D01*
X252358401Y-63830000D01*
X252593599Y-63830000D01*
X252824277Y-63875885D01*
X252824277Y-63875885D01*
G37*
G36*
X68848421Y-64337713D02*
X68848424Y-64337714D01*
X68848425Y-64337714D01*
X69008839Y-64386375D01*
X69008841Y-64386376D01*
X69008844Y-64386377D01*
X69156678Y-64465395D01*
X69286259Y-64571741D01*
X69392605Y-64701322D01*
X69471623Y-64849156D01*
X69471624Y-64849159D01*
X69471625Y-64849161D01*
X69516957Y-64998600D01*
X69520287Y-65009579D01*
X69536717Y-65176400D01*
X69520287Y-65343221D01*
X69520286Y-65343224D01*
X69520286Y-65343225D01*
X69480714Y-65473678D01*
X69471623Y-65503644D01*
X69392605Y-65651478D01*
X69286259Y-65781059D01*
X69156678Y-65887405D01*
X69008844Y-65966423D01*
X69008841Y-65966424D01*
X69008839Y-65966425D01*
X68848425Y-66015086D01*
X68848424Y-66015086D01*
X68848421Y-66015087D01*
X68723404Y-66027400D01*
X68639796Y-66027400D01*
X68514779Y-66015087D01*
X68514776Y-66015086D01*
X68514775Y-66015086D01*
X68354361Y-65966425D01*
X68354359Y-65966424D01*
X68354356Y-65966423D01*
X68206522Y-65887405D01*
X68076941Y-65781059D01*
X67970595Y-65651478D01*
X67891577Y-65503644D01*
X67882487Y-65473678D01*
X67842914Y-65343225D01*
X67842914Y-65343224D01*
X67842913Y-65343221D01*
X67826483Y-65176400D01*
X67842913Y-65009579D01*
X67846243Y-64998600D01*
X67891575Y-64849161D01*
X67891576Y-64849159D01*
X67891577Y-64849156D01*
X67970595Y-64701322D01*
X68076941Y-64571741D01*
X68206522Y-64465395D01*
X68354356Y-64386377D01*
X68354359Y-64386376D01*
X68354361Y-64386375D01*
X68514775Y-64337714D01*
X68514776Y-64337714D01*
X68514779Y-64337713D01*
X68639796Y-64325400D01*
X68723404Y-64325400D01*
X68848421Y-64337713D01*
X68848421Y-64337713D01*
G37*
G36*
X33368277Y-63621885D02*
X33585572Y-63711891D01*
X33781131Y-63842560D01*
X33947440Y-64008869D01*
X34078109Y-64204428D01*
X34168115Y-64421723D01*
X34214000Y-64652401D01*
X34214000Y-64887599D01*
X34168115Y-65118277D01*
X34078109Y-65335572D01*
X33947440Y-65531131D01*
X33781131Y-65697440D01*
X33585572Y-65828109D01*
X33368277Y-65918115D01*
X33137599Y-65964000D01*
X32902401Y-65964000D01*
X32671723Y-65918115D01*
X32454428Y-65828109D01*
X32258869Y-65697440D01*
X32092560Y-65531131D01*
X31961891Y-65335572D01*
X31871885Y-65118277D01*
X31826000Y-64887599D01*
X31826000Y-64652401D01*
X31871885Y-64421723D01*
X31961891Y-64204428D01*
X32092560Y-64008869D01*
X32258869Y-63842560D01*
X32454428Y-63711891D01*
X32671723Y-63621885D01*
X32902401Y-63576000D01*
X33137599Y-63576000D01*
X33368277Y-63621885D01*
X33368277Y-63621885D01*
G37*
G36*
X164098421Y-64159913D02*
X164098424Y-64159914D01*
X164098425Y-64159914D01*
X164258839Y-64208575D01*
X164258841Y-64208576D01*
X164258844Y-64208577D01*
X164406678Y-64287595D01*
X164536259Y-64393941D01*
X164642605Y-64523522D01*
X164721623Y-64671356D01*
X164721624Y-64671359D01*
X164721625Y-64671361D01*
X164746063Y-64751923D01*
X164770287Y-64831779D01*
X164786717Y-64998600D01*
X164770287Y-65165421D01*
X164770286Y-65165424D01*
X164770286Y-65165425D01*
X164723579Y-65319399D01*
X164721623Y-65325844D01*
X164642605Y-65473678D01*
X164536259Y-65603259D01*
X164406678Y-65709605D01*
X164258844Y-65788623D01*
X164258841Y-65788624D01*
X164258839Y-65788625D01*
X164098425Y-65837286D01*
X164098424Y-65837286D01*
X164098421Y-65837287D01*
X163973404Y-65849600D01*
X163889796Y-65849600D01*
X163764779Y-65837287D01*
X163764776Y-65837286D01*
X163764775Y-65837286D01*
X163604361Y-65788625D01*
X163604359Y-65788624D01*
X163604356Y-65788623D01*
X163456522Y-65709605D01*
X163326941Y-65603259D01*
X163220595Y-65473678D01*
X163141577Y-65325844D01*
X163139622Y-65319399D01*
X163092914Y-65165425D01*
X163092914Y-65165424D01*
X163092913Y-65165421D01*
X163076483Y-64998600D01*
X163092913Y-64831779D01*
X163117137Y-64751923D01*
X163141575Y-64671361D01*
X163141576Y-64671359D01*
X163141577Y-64671356D01*
X163220595Y-64523522D01*
X163326941Y-64393941D01*
X163456522Y-64287595D01*
X163604356Y-64208577D01*
X163604359Y-64208576D01*
X163604361Y-64208575D01*
X163764775Y-64159914D01*
X163764776Y-64159914D01*
X163764779Y-64159913D01*
X163889796Y-64147600D01*
X163973404Y-64147600D01*
X164098421Y-64159913D01*
X164098421Y-64159913D01*
G37*
G36*
X202376221Y-64159913D02*
X202376224Y-64159914D01*
X202376225Y-64159914D01*
X202536639Y-64208575D01*
X202536641Y-64208576D01*
X202536644Y-64208577D01*
X202684478Y-64287595D01*
X202814059Y-64393941D01*
X202920405Y-64523522D01*
X202999423Y-64671356D01*
X202999424Y-64671359D01*
X202999425Y-64671361D01*
X203023863Y-64751923D01*
X203048087Y-64831779D01*
X203064517Y-64998600D01*
X203048087Y-65165421D01*
X203048086Y-65165424D01*
X203048086Y-65165425D01*
X203001379Y-65319399D01*
X202999423Y-65325844D01*
X202920405Y-65473678D01*
X202814059Y-65603259D01*
X202684478Y-65709605D01*
X202536644Y-65788623D01*
X202536641Y-65788624D01*
X202536639Y-65788625D01*
X202376225Y-65837286D01*
X202376224Y-65837286D01*
X202376221Y-65837287D01*
X202251204Y-65849600D01*
X202167596Y-65849600D01*
X202042579Y-65837287D01*
X202042576Y-65837286D01*
X202042575Y-65837286D01*
X201882161Y-65788625D01*
X201882159Y-65788624D01*
X201882156Y-65788623D01*
X201734322Y-65709605D01*
X201604741Y-65603259D01*
X201498395Y-65473678D01*
X201419377Y-65325844D01*
X201417422Y-65319399D01*
X201370714Y-65165425D01*
X201370714Y-65165424D01*
X201370713Y-65165421D01*
X201354283Y-64998600D01*
X201370713Y-64831779D01*
X201394937Y-64751923D01*
X201419375Y-64671361D01*
X201419376Y-64671359D01*
X201419377Y-64671356D01*
X201498395Y-64523522D01*
X201604741Y-64393941D01*
X201734322Y-64287595D01*
X201882156Y-64208577D01*
X201882159Y-64208576D01*
X201882161Y-64208575D01*
X202042575Y-64159914D01*
X202042576Y-64159914D01*
X202042579Y-64159913D01*
X202167596Y-64147600D01*
X202251204Y-64147600D01*
X202376221Y-64159913D01*
X202376221Y-64159913D01*
G37*
G36*
X145023021Y-64134513D02*
X145023024Y-64134514D01*
X145023025Y-64134514D01*
X145183439Y-64183175D01*
X145183441Y-64183176D01*
X145183444Y-64183177D01*
X145331278Y-64262195D01*
X145460859Y-64368541D01*
X145567205Y-64498122D01*
X145646223Y-64645956D01*
X145646224Y-64645959D01*
X145646225Y-64645961D01*
X145678368Y-64751923D01*
X145694887Y-64806379D01*
X145711317Y-64973200D01*
X145694887Y-65140021D01*
X145694886Y-65140024D01*
X145694886Y-65140025D01*
X145648179Y-65293999D01*
X145646223Y-65300444D01*
X145567205Y-65448278D01*
X145460859Y-65577859D01*
X145331278Y-65684205D01*
X145183444Y-65763223D01*
X145183441Y-65763224D01*
X145183439Y-65763225D01*
X145023025Y-65811886D01*
X145023024Y-65811886D01*
X145023021Y-65811887D01*
X144898004Y-65824200D01*
X144814396Y-65824200D01*
X144689379Y-65811887D01*
X144689376Y-65811886D01*
X144689375Y-65811886D01*
X144528961Y-65763225D01*
X144528959Y-65763224D01*
X144528956Y-65763223D01*
X144381122Y-65684205D01*
X144251541Y-65577859D01*
X144145195Y-65448278D01*
X144066177Y-65300444D01*
X144064222Y-65293999D01*
X144017514Y-65140025D01*
X144017514Y-65140024D01*
X144017513Y-65140021D01*
X144001083Y-64973200D01*
X144017513Y-64806379D01*
X144034032Y-64751923D01*
X144066175Y-64645961D01*
X144066176Y-64645959D01*
X144066177Y-64645956D01*
X144145195Y-64498122D01*
X144251541Y-64368541D01*
X144381122Y-64262195D01*
X144528956Y-64183177D01*
X144528959Y-64183176D01*
X144528961Y-64183175D01*
X144689375Y-64134514D01*
X144689376Y-64134514D01*
X144689379Y-64134513D01*
X144814396Y-64122200D01*
X144898004Y-64122200D01*
X145023021Y-64134513D01*
X145023021Y-64134513D01*
G37*
G36*
X106872221Y-64134513D02*
X106872224Y-64134514D01*
X106872225Y-64134514D01*
X107032639Y-64183175D01*
X107032641Y-64183176D01*
X107032644Y-64183177D01*
X107180478Y-64262195D01*
X107310059Y-64368541D01*
X107416405Y-64498122D01*
X107495423Y-64645956D01*
X107495424Y-64645959D01*
X107495425Y-64645961D01*
X107527568Y-64751923D01*
X107544087Y-64806379D01*
X107560517Y-64973200D01*
X107544087Y-65140021D01*
X107544086Y-65140024D01*
X107544086Y-65140025D01*
X107497379Y-65293999D01*
X107495423Y-65300444D01*
X107416405Y-65448278D01*
X107310059Y-65577859D01*
X107180478Y-65684205D01*
X107032644Y-65763223D01*
X107032641Y-65763224D01*
X107032639Y-65763225D01*
X106872225Y-65811886D01*
X106872224Y-65811886D01*
X106872221Y-65811887D01*
X106747204Y-65824200D01*
X106663596Y-65824200D01*
X106538579Y-65811887D01*
X106538576Y-65811886D01*
X106538575Y-65811886D01*
X106378161Y-65763225D01*
X106378159Y-65763224D01*
X106378156Y-65763223D01*
X106230322Y-65684205D01*
X106100741Y-65577859D01*
X105994395Y-65448278D01*
X105915377Y-65300444D01*
X105913422Y-65293999D01*
X105866714Y-65140025D01*
X105866714Y-65140024D01*
X105866713Y-65140021D01*
X105850283Y-64973200D01*
X105866713Y-64806379D01*
X105883232Y-64751923D01*
X105915375Y-64645961D01*
X105915376Y-64645959D01*
X105915377Y-64645956D01*
X105994395Y-64498122D01*
X106100741Y-64368541D01*
X106230322Y-64262195D01*
X106378156Y-64183177D01*
X106378159Y-64183176D01*
X106378161Y-64183175D01*
X106538575Y-64134514D01*
X106538576Y-64134514D01*
X106538579Y-64134513D01*
X106663596Y-64122200D01*
X106747204Y-64122200D01*
X106872221Y-64134513D01*
X106872221Y-64134513D01*
G37*
G36*
X247080221Y-64109113D02*
X247080224Y-64109114D01*
X247080225Y-64109114D01*
X247240639Y-64157775D01*
X247240641Y-64157776D01*
X247240644Y-64157777D01*
X247388478Y-64236795D01*
X247518059Y-64343141D01*
X247624405Y-64472722D01*
X247703423Y-64620556D01*
X247703424Y-64620559D01*
X247703425Y-64620561D01*
X247743273Y-64751923D01*
X247752087Y-64780979D01*
X247768517Y-64947800D01*
X247752087Y-65114621D01*
X247752086Y-65114624D01*
X247752086Y-65114625D01*
X247705379Y-65268599D01*
X247703423Y-65275044D01*
X247624405Y-65422878D01*
X247518059Y-65552459D01*
X247388478Y-65658805D01*
X247240644Y-65737823D01*
X247240641Y-65737824D01*
X247240639Y-65737825D01*
X247080225Y-65786486D01*
X247080224Y-65786486D01*
X247080221Y-65786487D01*
X246955204Y-65798800D01*
X246871596Y-65798800D01*
X246746579Y-65786487D01*
X246746576Y-65786486D01*
X246746575Y-65786486D01*
X246586161Y-65737825D01*
X246586159Y-65737824D01*
X246586156Y-65737823D01*
X246438322Y-65658805D01*
X246308741Y-65552459D01*
X246202395Y-65422878D01*
X246123377Y-65275044D01*
X246121422Y-65268599D01*
X246074714Y-65114625D01*
X246074714Y-65114624D01*
X246074713Y-65114621D01*
X246058283Y-64947800D01*
X246074713Y-64780979D01*
X246083527Y-64751923D01*
X246123375Y-64620561D01*
X246123376Y-64620559D01*
X246123377Y-64620556D01*
X246202395Y-64472722D01*
X246308741Y-64343141D01*
X246438322Y-64236795D01*
X246586156Y-64157777D01*
X246586159Y-64157776D01*
X246586161Y-64157775D01*
X246746575Y-64109114D01*
X246746576Y-64109114D01*
X246746579Y-64109113D01*
X246871596Y-64096800D01*
X246955204Y-64096800D01*
X247080221Y-64109113D01*
X247080221Y-64109113D01*
G37*
G36*
X221350021Y-64109113D02*
X221350024Y-64109114D01*
X221350025Y-64109114D01*
X221510439Y-64157775D01*
X221510441Y-64157776D01*
X221510444Y-64157777D01*
X221658278Y-64236795D01*
X221787859Y-64343141D01*
X221894205Y-64472722D01*
X221973223Y-64620556D01*
X221973224Y-64620559D01*
X221973225Y-64620561D01*
X222013073Y-64751923D01*
X222021887Y-64780979D01*
X222038317Y-64947800D01*
X222021887Y-65114621D01*
X222021886Y-65114624D01*
X222021886Y-65114625D01*
X221975179Y-65268599D01*
X221973223Y-65275044D01*
X221894205Y-65422878D01*
X221787859Y-65552459D01*
X221658278Y-65658805D01*
X221510444Y-65737823D01*
X221510441Y-65737824D01*
X221510439Y-65737825D01*
X221350025Y-65786486D01*
X221350024Y-65786486D01*
X221350021Y-65786487D01*
X221225004Y-65798800D01*
X221141396Y-65798800D01*
X221016379Y-65786487D01*
X221016376Y-65786486D01*
X221016375Y-65786486D01*
X220855961Y-65737825D01*
X220855959Y-65737824D01*
X220855956Y-65737823D01*
X220708122Y-65658805D01*
X220578541Y-65552459D01*
X220472195Y-65422878D01*
X220393177Y-65275044D01*
X220391222Y-65268599D01*
X220344514Y-65114625D01*
X220344514Y-65114624D01*
X220344513Y-65114621D01*
X220328083Y-64947800D01*
X220344513Y-64780979D01*
X220353327Y-64751923D01*
X220393175Y-64620561D01*
X220393176Y-64620559D01*
X220393177Y-64620556D01*
X220472195Y-64472722D01*
X220578541Y-64343141D01*
X220708122Y-64236795D01*
X220855956Y-64157777D01*
X220855959Y-64157776D01*
X220855961Y-64157775D01*
X221016375Y-64109114D01*
X221016376Y-64109114D01*
X221016379Y-64109113D01*
X221141396Y-64096800D01*
X221225004Y-64096800D01*
X221350021Y-64109113D01*
X221350021Y-64109113D01*
G37*
G36*
X88050821Y-64083713D02*
X88050824Y-64083714D01*
X88050825Y-64083714D01*
X88211239Y-64132375D01*
X88211241Y-64132376D01*
X88211244Y-64132377D01*
X88359078Y-64211395D01*
X88488659Y-64317741D01*
X88595005Y-64447322D01*
X88674023Y-64595156D01*
X88674024Y-64595159D01*
X88674025Y-64595161D01*
X88721578Y-64751923D01*
X88722687Y-64755579D01*
X88739117Y-64922400D01*
X88722687Y-65089221D01*
X88722686Y-65089224D01*
X88722686Y-65089225D01*
X88683684Y-65217799D01*
X88674023Y-65249644D01*
X88595005Y-65397478D01*
X88488659Y-65527059D01*
X88359078Y-65633405D01*
X88211244Y-65712423D01*
X88211241Y-65712424D01*
X88211239Y-65712425D01*
X88050825Y-65761086D01*
X88050824Y-65761086D01*
X88050821Y-65761087D01*
X87925804Y-65773400D01*
X87842196Y-65773400D01*
X87717179Y-65761087D01*
X87717176Y-65761086D01*
X87717175Y-65761086D01*
X87556761Y-65712425D01*
X87556759Y-65712424D01*
X87556756Y-65712423D01*
X87408922Y-65633405D01*
X87279341Y-65527059D01*
X87172995Y-65397478D01*
X87093977Y-65249644D01*
X87084317Y-65217799D01*
X87045314Y-65089225D01*
X87045314Y-65089224D01*
X87045313Y-65089221D01*
X87028883Y-64922400D01*
X87045313Y-64755579D01*
X87046422Y-64751923D01*
X87093975Y-64595161D01*
X87093976Y-64595159D01*
X87093977Y-64595156D01*
X87172995Y-64447322D01*
X87279341Y-64317741D01*
X87408922Y-64211395D01*
X87556756Y-64132377D01*
X87556759Y-64132376D01*
X87556761Y-64132375D01*
X87717175Y-64083714D01*
X87717176Y-64083714D01*
X87717179Y-64083713D01*
X87842196Y-64071400D01*
X87925804Y-64071400D01*
X88050821Y-64083713D01*
X88050821Y-64083713D01*
G37*
G36*
X99713077Y-61564485D02*
X99930372Y-61654491D01*
X100125931Y-61785160D01*
X100292240Y-61951469D01*
X100422909Y-62147028D01*
X100512915Y-62364323D01*
X100558800Y-62595001D01*
X100558800Y-62830199D01*
X100512915Y-63060877D01*
X100422909Y-63278172D01*
X100292240Y-63473731D01*
X100125931Y-63640040D01*
X99930372Y-63770709D01*
X99713077Y-63860715D01*
X99482399Y-63906600D01*
X99247201Y-63906600D01*
X99016523Y-63860715D01*
X98799228Y-63770709D01*
X98603669Y-63640040D01*
X98437360Y-63473731D01*
X98306691Y-63278172D01*
X98216685Y-63060877D01*
X98170800Y-62830199D01*
X98170800Y-62595001D01*
X98216685Y-62364323D01*
X98306691Y-62147028D01*
X98437360Y-61951469D01*
X98603669Y-61785160D01*
X98799228Y-61654491D01*
X99016523Y-61564485D01*
X99247201Y-61518600D01*
X99482399Y-61518600D01*
X99713077Y-61564485D01*
X99713077Y-61564485D01*
G37*
G36*
X175913077Y-61539085D02*
X176130372Y-61629091D01*
X176325931Y-61759760D01*
X176492240Y-61926069D01*
X176622909Y-62121628D01*
X176712915Y-62338923D01*
X176758800Y-62569601D01*
X176758800Y-62804799D01*
X176712915Y-63035477D01*
X176622909Y-63252772D01*
X176492240Y-63448331D01*
X176325931Y-63614640D01*
X176130372Y-63745309D01*
X175913077Y-63835315D01*
X175682399Y-63881200D01*
X175447201Y-63881200D01*
X175216523Y-63835315D01*
X174999228Y-63745309D01*
X174803669Y-63614640D01*
X174637360Y-63448331D01*
X174506691Y-63252772D01*
X174416685Y-63035477D01*
X174370800Y-62804799D01*
X174370800Y-62569601D01*
X174416685Y-62338923D01*
X174506691Y-62121628D01*
X174637360Y-61926069D01*
X174803669Y-61759760D01*
X174999228Y-61629091D01*
X175216523Y-61539085D01*
X175447201Y-61493200D01*
X175682399Y-61493200D01*
X175913077Y-61539085D01*
X175913077Y-61539085D01*
G37*
G36*
X233088477Y-61513685D02*
X233305772Y-61603691D01*
X233501331Y-61734360D01*
X233667640Y-61900669D01*
X233798309Y-62096228D01*
X233888315Y-62313523D01*
X233934200Y-62544201D01*
X233934200Y-62779399D01*
X233888315Y-63010077D01*
X233798309Y-63227372D01*
X233667640Y-63422931D01*
X233501331Y-63589240D01*
X233305772Y-63719909D01*
X233088477Y-63809915D01*
X232857799Y-63855800D01*
X232622601Y-63855800D01*
X232391923Y-63809915D01*
X232174628Y-63719909D01*
X231979069Y-63589240D01*
X231812760Y-63422931D01*
X231682091Y-63227372D01*
X231592085Y-63010077D01*
X231546200Y-62779399D01*
X231546200Y-62544201D01*
X231592085Y-62313523D01*
X231682091Y-62096228D01*
X231812760Y-61900669D01*
X231979069Y-61734360D01*
X232174628Y-61603691D01*
X232391923Y-61513685D01*
X232622601Y-61467800D01*
X232857799Y-61467800D01*
X233088477Y-61513685D01*
X233088477Y-61513685D01*
G37*
G36*
X156863077Y-61513685D02*
X157080372Y-61603691D01*
X157275931Y-61734360D01*
X157442240Y-61900669D01*
X157572909Y-62096228D01*
X157662915Y-62313523D01*
X157708800Y-62544201D01*
X157708800Y-62779399D01*
X157662915Y-63010077D01*
X157572909Y-63227372D01*
X157442240Y-63422931D01*
X157275931Y-63589240D01*
X157080372Y-63719909D01*
X156930410Y-63782025D01*
X156863077Y-63809915D01*
X156632399Y-63855800D01*
X156397201Y-63855800D01*
X156166523Y-63809915D01*
X156099190Y-63782025D01*
X155949228Y-63719909D01*
X155753669Y-63589240D01*
X155587360Y-63422931D01*
X155456691Y-63227372D01*
X155366685Y-63010077D01*
X155320800Y-62779399D01*
X155320800Y-62544201D01*
X155366685Y-62313523D01*
X155456691Y-62096228D01*
X155587360Y-61900669D01*
X155753669Y-61734360D01*
X155949228Y-61603691D01*
X156166523Y-61513685D01*
X156397201Y-61467800D01*
X156632399Y-61467800D01*
X156863077Y-61513685D01*
X156863077Y-61513685D01*
G37*
G36*
X194988477Y-61513685D02*
X195205772Y-61603691D01*
X195401331Y-61734360D01*
X195567640Y-61900669D01*
X195698309Y-62096228D01*
X195788315Y-62313523D01*
X195834200Y-62544201D01*
X195834200Y-62779399D01*
X195788315Y-63010077D01*
X195698309Y-63227372D01*
X195567640Y-63422931D01*
X195401331Y-63589240D01*
X195205772Y-63719909D01*
X195055810Y-63782025D01*
X194988477Y-63809915D01*
X194757799Y-63855800D01*
X194522601Y-63855800D01*
X194291923Y-63809915D01*
X194224590Y-63782025D01*
X194074628Y-63719909D01*
X193879069Y-63589240D01*
X193712760Y-63422931D01*
X193582091Y-63227372D01*
X193492085Y-63010077D01*
X193446200Y-62779399D01*
X193446200Y-62544201D01*
X193492085Y-62313523D01*
X193582091Y-62096228D01*
X193712760Y-61900669D01*
X193879069Y-61734360D01*
X194074628Y-61603691D01*
X194291923Y-61513685D01*
X194522601Y-61467800D01*
X194757799Y-61467800D01*
X194988477Y-61513685D01*
X194988477Y-61513685D01*
G37*
G36*
X50458821Y-62153313D02*
X50458824Y-62153314D01*
X50458825Y-62153314D01*
X50619239Y-62201975D01*
X50619241Y-62201976D01*
X50619244Y-62201977D01*
X50767078Y-62280995D01*
X50896659Y-62387341D01*
X51003005Y-62516922D01*
X51082023Y-62664756D01*
X51082024Y-62664759D01*
X51082025Y-62664761D01*
X51121706Y-62795572D01*
X51130687Y-62825179D01*
X51147117Y-62992000D01*
X51130687Y-63158821D01*
X51130686Y-63158824D01*
X51130686Y-63158825D01*
X51094483Y-63278172D01*
X51082023Y-63319244D01*
X51003005Y-63467078D01*
X50896659Y-63596659D01*
X50767078Y-63703005D01*
X50619244Y-63782023D01*
X50619241Y-63782024D01*
X50619239Y-63782025D01*
X50458825Y-63830686D01*
X50458824Y-63830686D01*
X50458821Y-63830687D01*
X50333804Y-63843000D01*
X50250196Y-63843000D01*
X50125179Y-63830687D01*
X50125176Y-63830686D01*
X50125175Y-63830686D01*
X49964761Y-63782025D01*
X49964759Y-63782024D01*
X49964756Y-63782023D01*
X49816922Y-63703005D01*
X49687341Y-63596659D01*
X49580995Y-63467078D01*
X49501977Y-63319244D01*
X49489518Y-63278172D01*
X49453314Y-63158825D01*
X49453314Y-63158824D01*
X49453313Y-63158821D01*
X49436883Y-62992000D01*
X49453313Y-62825179D01*
X49462294Y-62795572D01*
X49501975Y-62664761D01*
X49501976Y-62664759D01*
X49501977Y-62664756D01*
X49580995Y-62516922D01*
X49687341Y-62387341D01*
X49816922Y-62280995D01*
X49964756Y-62201977D01*
X49964759Y-62201976D01*
X49964761Y-62201975D01*
X50125175Y-62153314D01*
X50125176Y-62153314D01*
X50125179Y-62153313D01*
X50250196Y-62141000D01*
X50333804Y-62141000D01*
X50458821Y-62153313D01*
X50458821Y-62153313D01*
G37*
G36*
X48095000Y-63843000D02*
X46393000Y-63843000D01*
X46393000Y-62141000D01*
X48095000Y-62141000D01*
X48095000Y-63843000D01*
X48095000Y-63843000D01*
G37*
G36*
X137813077Y-61488285D02*
X138030372Y-61578291D01*
X138225931Y-61708960D01*
X138392240Y-61875269D01*
X138522909Y-62070828D01*
X138612915Y-62288123D01*
X138658800Y-62518801D01*
X138658800Y-62753999D01*
X138612915Y-62984677D01*
X138522909Y-63201972D01*
X138392240Y-63397531D01*
X138225931Y-63563840D01*
X138030372Y-63694509D01*
X137813077Y-63784515D01*
X137582399Y-63830400D01*
X137347201Y-63830400D01*
X137116523Y-63784515D01*
X136899228Y-63694509D01*
X136703669Y-63563840D01*
X136537360Y-63397531D01*
X136406691Y-63201972D01*
X136316685Y-62984677D01*
X136270800Y-62753999D01*
X136270800Y-62518801D01*
X136316685Y-62288123D01*
X136406691Y-62070828D01*
X136537360Y-61875269D01*
X136703669Y-61708960D01*
X136899228Y-61578291D01*
X137116523Y-61488285D01*
X137347201Y-61442400D01*
X137582399Y-61442400D01*
X137813077Y-61488285D01*
X137813077Y-61488285D01*
G37*
G36*
X118788477Y-61462885D02*
X119005772Y-61552891D01*
X119201331Y-61683560D01*
X119367640Y-61849869D01*
X119498309Y-62045428D01*
X119588315Y-62262723D01*
X119634200Y-62493401D01*
X119634200Y-62728599D01*
X119588315Y-62959277D01*
X119498309Y-63176572D01*
X119367640Y-63372131D01*
X119201331Y-63538440D01*
X119005772Y-63669109D01*
X118883129Y-63719909D01*
X118788477Y-63759115D01*
X118557799Y-63805000D01*
X118322601Y-63805000D01*
X118091923Y-63759115D01*
X117997271Y-63719909D01*
X117874628Y-63669109D01*
X117679069Y-63538440D01*
X117512760Y-63372131D01*
X117382091Y-63176572D01*
X117292085Y-62959277D01*
X117246200Y-62728599D01*
X117246200Y-62493401D01*
X117292085Y-62262723D01*
X117382091Y-62045428D01*
X117512760Y-61849869D01*
X117679069Y-61683560D01*
X117874628Y-61552891D01*
X118091923Y-61462885D01*
X118322601Y-61417000D01*
X118557799Y-61417000D01*
X118788477Y-61462885D01*
X118788477Y-61462885D01*
G37*
G36*
X214038477Y-61462885D02*
X214255772Y-61552891D01*
X214451331Y-61683560D01*
X214617640Y-61849869D01*
X214748309Y-62045428D01*
X214838315Y-62262723D01*
X214884200Y-62493401D01*
X214884200Y-62728599D01*
X214838315Y-62959277D01*
X214748309Y-63176572D01*
X214617640Y-63372131D01*
X214451331Y-63538440D01*
X214255772Y-63669109D01*
X214133129Y-63719909D01*
X214038477Y-63759115D01*
X213807799Y-63805000D01*
X213572601Y-63805000D01*
X213341923Y-63759115D01*
X213247271Y-63719909D01*
X213124628Y-63669109D01*
X212929069Y-63538440D01*
X212762760Y-63372131D01*
X212632091Y-63176572D01*
X212542085Y-62959277D01*
X212496200Y-62728599D01*
X212496200Y-62493401D01*
X212542085Y-62262723D01*
X212632091Y-62045428D01*
X212762760Y-61849869D01*
X212929069Y-61683560D01*
X213124628Y-61552891D01*
X213341923Y-61462885D01*
X213572601Y-61417000D01*
X213807799Y-61417000D01*
X214038477Y-61462885D01*
X214038477Y-61462885D01*
G37*
G36*
X61587677Y-61412085D02*
X61804972Y-61502091D01*
X62000531Y-61632760D01*
X62166840Y-61799069D01*
X62297509Y-61994628D01*
X62387515Y-62211923D01*
X62433400Y-62442601D01*
X62433400Y-62677799D01*
X62387515Y-62908477D01*
X62297509Y-63125772D01*
X62166840Y-63321331D01*
X62000531Y-63487640D01*
X61804972Y-63618309D01*
X61587677Y-63708315D01*
X61356999Y-63754200D01*
X61121801Y-63754200D01*
X60891123Y-63708315D01*
X60673828Y-63618309D01*
X60478269Y-63487640D01*
X60311960Y-63321331D01*
X60181291Y-63125772D01*
X60091285Y-62908477D01*
X60045400Y-62677799D01*
X60045400Y-62442601D01*
X60091285Y-62211923D01*
X60181291Y-61994628D01*
X60311960Y-61799069D01*
X60478269Y-61632760D01*
X60673828Y-61502091D01*
X60891123Y-61412085D01*
X61121801Y-61366200D01*
X61356999Y-61366200D01*
X61587677Y-61412085D01*
X61587677Y-61412085D01*
G37*
G36*
X80663077Y-61412085D02*
X80880372Y-61502091D01*
X81075931Y-61632760D01*
X81242240Y-61799069D01*
X81372909Y-61994628D01*
X81462915Y-62211923D01*
X81508800Y-62442601D01*
X81508800Y-62677799D01*
X81462915Y-62908477D01*
X81372909Y-63125772D01*
X81242240Y-63321331D01*
X81075931Y-63487640D01*
X80880372Y-63618309D01*
X80663077Y-63708315D01*
X80432399Y-63754200D01*
X80197201Y-63754200D01*
X79966523Y-63708315D01*
X79749228Y-63618309D01*
X79553669Y-63487640D01*
X79387360Y-63321331D01*
X79256691Y-63125772D01*
X79166685Y-62908477D01*
X79120800Y-62677799D01*
X79120800Y-62442601D01*
X79166685Y-62211923D01*
X79256691Y-61994628D01*
X79387360Y-61799069D01*
X79553669Y-61632760D01*
X79749228Y-61502091D01*
X79966523Y-61412085D01*
X80197201Y-61366200D01*
X80432399Y-61366200D01*
X80663077Y-61412085D01*
X80663077Y-61412085D01*
G37*
G36*
X259174277Y-61335885D02*
X259391572Y-61425891D01*
X259587131Y-61556560D01*
X259753440Y-61722869D01*
X259884109Y-61918428D01*
X259974115Y-62135723D01*
X260020000Y-62366401D01*
X260020000Y-62601599D01*
X259974115Y-62832277D01*
X259884109Y-63049572D01*
X259753440Y-63245131D01*
X259587131Y-63411440D01*
X259391572Y-63542109D01*
X259174277Y-63632115D01*
X258943599Y-63678000D01*
X258708401Y-63678000D01*
X258477723Y-63632115D01*
X258260428Y-63542109D01*
X258064869Y-63411440D01*
X257898560Y-63245131D01*
X257767891Y-63049572D01*
X257677885Y-62832277D01*
X257632000Y-62601599D01*
X257632000Y-62366401D01*
X257677885Y-62135723D01*
X257767891Y-61918428D01*
X257898560Y-61722869D01*
X258064869Y-61556560D01*
X258260428Y-61425891D01*
X258477723Y-61335885D01*
X258708401Y-61290000D01*
X258943599Y-61290000D01*
X259174277Y-61335885D01*
X259174277Y-61335885D01*
G37*
G36*
X39718277Y-61081885D02*
X39935572Y-61171891D01*
X40131131Y-61302560D01*
X40297440Y-61468869D01*
X40428109Y-61664428D01*
X40518115Y-61881723D01*
X40564000Y-62112401D01*
X40564000Y-62347599D01*
X40518115Y-62578277D01*
X40428109Y-62795572D01*
X40297440Y-62991131D01*
X40131131Y-63157440D01*
X39935572Y-63288109D01*
X39718277Y-63378115D01*
X39487599Y-63424000D01*
X39252401Y-63424000D01*
X39021723Y-63378115D01*
X38804428Y-63288109D01*
X38608869Y-63157440D01*
X38442560Y-62991131D01*
X38311891Y-62795572D01*
X38221885Y-62578277D01*
X38176000Y-62347599D01*
X38176000Y-62112401D01*
X38221885Y-61881723D01*
X38311891Y-61664428D01*
X38442560Y-61468869D01*
X38608869Y-61302560D01*
X38804428Y-61171891D01*
X39021723Y-61081885D01*
X39252401Y-61036000D01*
X39487599Y-61036000D01*
X39718277Y-61081885D01*
X39718277Y-61081885D01*
G37*
G36*
X183554821Y-60883313D02*
X183554824Y-60883314D01*
X183554825Y-60883314D01*
X183715239Y-60931975D01*
X183715241Y-60931976D01*
X183715244Y-60931977D01*
X183863078Y-61010995D01*
X183992659Y-61117341D01*
X184099005Y-61246922D01*
X184178023Y-61394756D01*
X184178024Y-61394759D01*
X184178025Y-61394761D01*
X184206395Y-61488285D01*
X184226687Y-61555179D01*
X184243117Y-61722000D01*
X184226687Y-61888821D01*
X184226686Y-61888824D01*
X184226686Y-61888825D01*
X184179181Y-62045429D01*
X184178023Y-62049244D01*
X184099005Y-62197078D01*
X183992659Y-62326659D01*
X183863078Y-62433005D01*
X183715244Y-62512023D01*
X183715241Y-62512024D01*
X183715239Y-62512025D01*
X183554825Y-62560686D01*
X183554824Y-62560686D01*
X183554821Y-62560687D01*
X183429804Y-62573000D01*
X183346196Y-62573000D01*
X183221179Y-62560687D01*
X183221176Y-62560686D01*
X183221175Y-62560686D01*
X183060761Y-62512025D01*
X183060759Y-62512024D01*
X183060756Y-62512023D01*
X182912922Y-62433005D01*
X182783341Y-62326659D01*
X182676995Y-62197078D01*
X182597977Y-62049244D01*
X182596820Y-62045429D01*
X182549314Y-61888825D01*
X182549314Y-61888824D01*
X182549313Y-61888821D01*
X182532883Y-61722000D01*
X182549313Y-61555179D01*
X182569605Y-61488285D01*
X182597975Y-61394761D01*
X182597976Y-61394759D01*
X182597977Y-61394756D01*
X182676995Y-61246922D01*
X182783341Y-61117341D01*
X182912922Y-61010995D01*
X183060756Y-60931977D01*
X183060759Y-60931976D01*
X183060761Y-60931975D01*
X183221175Y-60883314D01*
X183221176Y-60883314D01*
X183221179Y-60883313D01*
X183346196Y-60871000D01*
X183429804Y-60871000D01*
X183554821Y-60883313D01*
X183554821Y-60883313D01*
G37*
G36*
X126277821Y-60756313D02*
X126277824Y-60756314D01*
X126277825Y-60756314D01*
X126438239Y-60804975D01*
X126438241Y-60804976D01*
X126438244Y-60804977D01*
X126586078Y-60883995D01*
X126715659Y-60990341D01*
X126822005Y-61119922D01*
X126901023Y-61267756D01*
X126949687Y-61428179D01*
X126966117Y-61595000D01*
X126949687Y-61761821D01*
X126949686Y-61761824D01*
X126949686Y-61761825D01*
X126902181Y-61918429D01*
X126901023Y-61922244D01*
X126822005Y-62070078D01*
X126715659Y-62199659D01*
X126586078Y-62306005D01*
X126438244Y-62385023D01*
X126438241Y-62385024D01*
X126438239Y-62385025D01*
X126277825Y-62433686D01*
X126277824Y-62433686D01*
X126277821Y-62433687D01*
X126152804Y-62446000D01*
X126069196Y-62446000D01*
X125944179Y-62433687D01*
X125944176Y-62433686D01*
X125944175Y-62433686D01*
X125783761Y-62385025D01*
X125783759Y-62385024D01*
X125783756Y-62385023D01*
X125635922Y-62306005D01*
X125506341Y-62199659D01*
X125399995Y-62070078D01*
X125320977Y-61922244D01*
X125319820Y-61918429D01*
X125272314Y-61761825D01*
X125272314Y-61761824D01*
X125272313Y-61761821D01*
X125255883Y-61595000D01*
X125272313Y-61428179D01*
X125320977Y-61267756D01*
X125399995Y-61119922D01*
X125506341Y-60990341D01*
X125635922Y-60883995D01*
X125783756Y-60804977D01*
X125783759Y-60804976D01*
X125783761Y-60804975D01*
X125944175Y-60756314D01*
X125944176Y-60756314D01*
X125944179Y-60756313D01*
X126069196Y-60744000D01*
X126152804Y-60744000D01*
X126277821Y-60756313D01*
X126277821Y-60756313D01*
G37*
G36*
X57076907Y-59009117D02*
X57166483Y-59026935D01*
X57335241Y-59096837D01*
X57335242Y-59096838D01*
X57487122Y-59198321D01*
X57616279Y-59327478D01*
X57616281Y-59327481D01*
X57717763Y-59479359D01*
X57787665Y-59648117D01*
X57823300Y-59827269D01*
X57823300Y-60009931D01*
X57787665Y-60189083D01*
X57717763Y-60357841D01*
X57617650Y-60507671D01*
X57616279Y-60509722D01*
X57487122Y-60638879D01*
X57487119Y-60638881D01*
X57335241Y-60740363D01*
X57166483Y-60810265D01*
X57076907Y-60828083D01*
X56987333Y-60845900D01*
X56804667Y-60845900D01*
X56715093Y-60828083D01*
X56625517Y-60810265D01*
X56456759Y-60740363D01*
X56304881Y-60638881D01*
X56304878Y-60638879D01*
X56175721Y-60509722D01*
X56174350Y-60507671D01*
X56074237Y-60357841D01*
X56004335Y-60189083D01*
X55968700Y-60009931D01*
X55968700Y-59827269D01*
X56004335Y-59648117D01*
X56074237Y-59479359D01*
X56175719Y-59327481D01*
X56175721Y-59327478D01*
X56304878Y-59198321D01*
X56456758Y-59096838D01*
X56456759Y-59096837D01*
X56625517Y-59026935D01*
X56715093Y-59009117D01*
X56804667Y-58991300D01*
X56987333Y-58991300D01*
X57076907Y-59009117D01*
X57076907Y-59009117D01*
G37*
G36*
X31676907Y-59009117D02*
X31766483Y-59026935D01*
X31935241Y-59096837D01*
X31935242Y-59096838D01*
X32087122Y-59198321D01*
X32216279Y-59327478D01*
X32216281Y-59327481D01*
X32317763Y-59479359D01*
X32387665Y-59648117D01*
X32423300Y-59827269D01*
X32423300Y-60009931D01*
X32387665Y-60189083D01*
X32317763Y-60357841D01*
X32217650Y-60507671D01*
X32216279Y-60509722D01*
X32087122Y-60638879D01*
X32087119Y-60638881D01*
X31935241Y-60740363D01*
X31766483Y-60810265D01*
X31676907Y-60828083D01*
X31587333Y-60845900D01*
X31404667Y-60845900D01*
X31315093Y-60828083D01*
X31225517Y-60810265D01*
X31056759Y-60740363D01*
X30904881Y-60638881D01*
X30904878Y-60638879D01*
X30775721Y-60509722D01*
X30774350Y-60507671D01*
X30674237Y-60357841D01*
X30604335Y-60189083D01*
X30568700Y-60009931D01*
X30568700Y-59827269D01*
X30604335Y-59648117D01*
X30674237Y-59479359D01*
X30775719Y-59327481D01*
X30775721Y-59327478D01*
X30904878Y-59198321D01*
X31056758Y-59096838D01*
X31056759Y-59096837D01*
X31225517Y-59026935D01*
X31315093Y-59009117D01*
X31404667Y-58991300D01*
X31587333Y-58991300D01*
X31676907Y-59009117D01*
X31676907Y-59009117D01*
G37*
G36*
X41836907Y-59009117D02*
X41926483Y-59026935D01*
X42095241Y-59096837D01*
X42095242Y-59096838D01*
X42247122Y-59198321D01*
X42376279Y-59327478D01*
X42376281Y-59327481D01*
X42477763Y-59479359D01*
X42547665Y-59648117D01*
X42583300Y-59827269D01*
X42583300Y-60009931D01*
X42547665Y-60189083D01*
X42477763Y-60357841D01*
X42377650Y-60507671D01*
X42376279Y-60509722D01*
X42247122Y-60638879D01*
X42247119Y-60638881D01*
X42095241Y-60740363D01*
X41926483Y-60810265D01*
X41836907Y-60828083D01*
X41747333Y-60845900D01*
X41564667Y-60845900D01*
X41475093Y-60828083D01*
X41385517Y-60810265D01*
X41216759Y-60740363D01*
X41064881Y-60638881D01*
X41064878Y-60638879D01*
X40935721Y-60509722D01*
X40934350Y-60507671D01*
X40834237Y-60357841D01*
X40764335Y-60189083D01*
X40728700Y-60009931D01*
X40728700Y-59827269D01*
X40764335Y-59648117D01*
X40834237Y-59479359D01*
X40935719Y-59327481D01*
X40935721Y-59327478D01*
X41064878Y-59198321D01*
X41216758Y-59096838D01*
X41216759Y-59096837D01*
X41385517Y-59026935D01*
X41475093Y-59009117D01*
X41564667Y-58991300D01*
X41747333Y-58991300D01*
X41836907Y-59009117D01*
X41836907Y-59009117D01*
G37*
G36*
X36756907Y-59009117D02*
X36846483Y-59026935D01*
X37015241Y-59096837D01*
X37015242Y-59096838D01*
X37167122Y-59198321D01*
X37296279Y-59327478D01*
X37296281Y-59327481D01*
X37397763Y-59479359D01*
X37467665Y-59648117D01*
X37503300Y-59827269D01*
X37503300Y-60009931D01*
X37467665Y-60189083D01*
X37397763Y-60357841D01*
X37297650Y-60507671D01*
X37296279Y-60509722D01*
X37167122Y-60638879D01*
X37167119Y-60638881D01*
X37015241Y-60740363D01*
X36846483Y-60810265D01*
X36756907Y-60828083D01*
X36667333Y-60845900D01*
X36484667Y-60845900D01*
X36395093Y-60828083D01*
X36305517Y-60810265D01*
X36136759Y-60740363D01*
X35984881Y-60638881D01*
X35984878Y-60638879D01*
X35855721Y-60509722D01*
X35854350Y-60507671D01*
X35754237Y-60357841D01*
X35684335Y-60189083D01*
X35648700Y-60009931D01*
X35648700Y-59827269D01*
X35684335Y-59648117D01*
X35754237Y-59479359D01*
X35855719Y-59327481D01*
X35855721Y-59327478D01*
X35984878Y-59198321D01*
X36136758Y-59096838D01*
X36136759Y-59096837D01*
X36305517Y-59026935D01*
X36395093Y-59009117D01*
X36484667Y-58991300D01*
X36667333Y-58991300D01*
X36756907Y-59009117D01*
X36756907Y-59009117D01*
G37*
G36*
X51996907Y-59009117D02*
X52086483Y-59026935D01*
X52255241Y-59096837D01*
X52255242Y-59096838D01*
X52407122Y-59198321D01*
X52536279Y-59327478D01*
X52536281Y-59327481D01*
X52637763Y-59479359D01*
X52707665Y-59648117D01*
X52743300Y-59827269D01*
X52743300Y-60009931D01*
X52707665Y-60189083D01*
X52637763Y-60357841D01*
X52537650Y-60507671D01*
X52536279Y-60509722D01*
X52407122Y-60638879D01*
X52407119Y-60638881D01*
X52255241Y-60740363D01*
X52086483Y-60810265D01*
X51996907Y-60828083D01*
X51907333Y-60845900D01*
X51724667Y-60845900D01*
X51635093Y-60828083D01*
X51545517Y-60810265D01*
X51376759Y-60740363D01*
X51224881Y-60638881D01*
X51224878Y-60638879D01*
X51095721Y-60509722D01*
X51094350Y-60507671D01*
X50994237Y-60357841D01*
X50924335Y-60189083D01*
X50888700Y-60009931D01*
X50888700Y-59827269D01*
X50924335Y-59648117D01*
X50994237Y-59479359D01*
X51095719Y-59327481D01*
X51095721Y-59327478D01*
X51224878Y-59198321D01*
X51376758Y-59096838D01*
X51376759Y-59096837D01*
X51545517Y-59026935D01*
X51635093Y-59009117D01*
X51724667Y-58991300D01*
X51907333Y-58991300D01*
X51996907Y-59009117D01*
X51996907Y-59009117D01*
G37*
G36*
X46916907Y-59009117D02*
X47006483Y-59026935D01*
X47175241Y-59096837D01*
X47175242Y-59096838D01*
X47327122Y-59198321D01*
X47456279Y-59327478D01*
X47456281Y-59327481D01*
X47557763Y-59479359D01*
X47627665Y-59648117D01*
X47663300Y-59827269D01*
X47663300Y-60009931D01*
X47627665Y-60189083D01*
X47557763Y-60357841D01*
X47457650Y-60507671D01*
X47456279Y-60509722D01*
X47327122Y-60638879D01*
X47327119Y-60638881D01*
X47175241Y-60740363D01*
X47006483Y-60810265D01*
X46916907Y-60828083D01*
X46827333Y-60845900D01*
X46644667Y-60845900D01*
X46555093Y-60828083D01*
X46465517Y-60810265D01*
X46296759Y-60740363D01*
X46144881Y-60638881D01*
X46144878Y-60638879D01*
X46015721Y-60509722D01*
X46014350Y-60507671D01*
X45914237Y-60357841D01*
X45844335Y-60189083D01*
X45808700Y-60009931D01*
X45808700Y-59827269D01*
X45844335Y-59648117D01*
X45914237Y-59479359D01*
X46015719Y-59327481D01*
X46015721Y-59327478D01*
X46144878Y-59198321D01*
X46296758Y-59096838D01*
X46296759Y-59096837D01*
X46465517Y-59026935D01*
X46555093Y-59009117D01*
X46644667Y-58991300D01*
X46827333Y-58991300D01*
X46916907Y-59009117D01*
X46916907Y-59009117D01*
G37*
G36*
X49456907Y-58551918D02*
X49546483Y-58569735D01*
X49715241Y-58639637D01*
X49715242Y-58639638D01*
X49867122Y-58741121D01*
X49996279Y-58870278D01*
X49996281Y-58870281D01*
X50097763Y-59022159D01*
X50167665Y-59190917D01*
X50203300Y-59370069D01*
X50203300Y-59552731D01*
X50167665Y-59731883D01*
X50097763Y-59900641D01*
X50097762Y-59900642D01*
X49996279Y-60052522D01*
X49867122Y-60181679D01*
X49867119Y-60181681D01*
X49715241Y-60283163D01*
X49546483Y-60353065D01*
X49456907Y-60370882D01*
X49367333Y-60388700D01*
X49184667Y-60388700D01*
X49095093Y-60370882D01*
X49005517Y-60353065D01*
X48836759Y-60283163D01*
X48684881Y-60181681D01*
X48684878Y-60181679D01*
X48555721Y-60052522D01*
X48454238Y-59900642D01*
X48454237Y-59900641D01*
X48384335Y-59731883D01*
X48348700Y-59552731D01*
X48348700Y-59370069D01*
X48384335Y-59190917D01*
X48454237Y-59022159D01*
X48555719Y-58870281D01*
X48555721Y-58870278D01*
X48684878Y-58741121D01*
X48836758Y-58639638D01*
X48836759Y-58639637D01*
X49005517Y-58569735D01*
X49095093Y-58551918D01*
X49184667Y-58534100D01*
X49367333Y-58534100D01*
X49456907Y-58551918D01*
X49456907Y-58551918D01*
G37*
G36*
X29883300Y-60388700D02*
X28028700Y-60388700D01*
X28028700Y-58534100D01*
X29883300Y-58534100D01*
X29883300Y-60388700D01*
X29883300Y-60388700D01*
G37*
G36*
X34216907Y-58551918D02*
X34306483Y-58569735D01*
X34475241Y-58639637D01*
X34475242Y-58639638D01*
X34627122Y-58741121D01*
X34756279Y-58870278D01*
X34756281Y-58870281D01*
X34857763Y-59022159D01*
X34927665Y-59190917D01*
X34963300Y-59370069D01*
X34963300Y-59552731D01*
X34927665Y-59731883D01*
X34857763Y-59900641D01*
X34857762Y-59900642D01*
X34756279Y-60052522D01*
X34627122Y-60181679D01*
X34627119Y-60181681D01*
X34475241Y-60283163D01*
X34306483Y-60353065D01*
X34216907Y-60370882D01*
X34127333Y-60388700D01*
X33944667Y-60388700D01*
X33855093Y-60370882D01*
X33765517Y-60353065D01*
X33596759Y-60283163D01*
X33444881Y-60181681D01*
X33444878Y-60181679D01*
X33315721Y-60052522D01*
X33214238Y-59900642D01*
X33214237Y-59900641D01*
X33144335Y-59731883D01*
X33108700Y-59552731D01*
X33108700Y-59370069D01*
X33144335Y-59190917D01*
X33214237Y-59022159D01*
X33315719Y-58870281D01*
X33315721Y-58870278D01*
X33444878Y-58741121D01*
X33596758Y-58639638D01*
X33596759Y-58639637D01*
X33765517Y-58569735D01*
X33855093Y-58551918D01*
X33944667Y-58534100D01*
X34127333Y-58534100D01*
X34216907Y-58551918D01*
X34216907Y-58551918D01*
G37*
G36*
X54536907Y-58551918D02*
X54626483Y-58569735D01*
X54795241Y-58639637D01*
X54795242Y-58639638D01*
X54947122Y-58741121D01*
X55076279Y-58870278D01*
X55076281Y-58870281D01*
X55177763Y-59022159D01*
X55247665Y-59190917D01*
X55283300Y-59370069D01*
X55283300Y-59552731D01*
X55247665Y-59731883D01*
X55177763Y-59900641D01*
X55177762Y-59900642D01*
X55076279Y-60052522D01*
X54947122Y-60181679D01*
X54947119Y-60181681D01*
X54795241Y-60283163D01*
X54626483Y-60353065D01*
X54536907Y-60370882D01*
X54447333Y-60388700D01*
X54264667Y-60388700D01*
X54175093Y-60370882D01*
X54085517Y-60353065D01*
X53916759Y-60283163D01*
X53764881Y-60181681D01*
X53764878Y-60181679D01*
X53635721Y-60052522D01*
X53534238Y-59900642D01*
X53534237Y-59900641D01*
X53464335Y-59731883D01*
X53428700Y-59552731D01*
X53428700Y-59370069D01*
X53464335Y-59190917D01*
X53534237Y-59022159D01*
X53635719Y-58870281D01*
X53635721Y-58870278D01*
X53764878Y-58741121D01*
X53916758Y-58639638D01*
X53916759Y-58639637D01*
X54085517Y-58569735D01*
X54175093Y-58551918D01*
X54264667Y-58534100D01*
X54447333Y-58534100D01*
X54536907Y-58551918D01*
X54536907Y-58551918D01*
G37*
G36*
X39296907Y-58551918D02*
X39386483Y-58569735D01*
X39555241Y-58639637D01*
X39555242Y-58639638D01*
X39707122Y-58741121D01*
X39836279Y-58870278D01*
X39836281Y-58870281D01*
X39937763Y-59022159D01*
X40007665Y-59190917D01*
X40043300Y-59370069D01*
X40043300Y-59552731D01*
X40007665Y-59731883D01*
X39937763Y-59900641D01*
X39937762Y-59900642D01*
X39836279Y-60052522D01*
X39707122Y-60181679D01*
X39707119Y-60181681D01*
X39555241Y-60283163D01*
X39386483Y-60353065D01*
X39296907Y-60370882D01*
X39207333Y-60388700D01*
X39024667Y-60388700D01*
X38935093Y-60370882D01*
X38845517Y-60353065D01*
X38676759Y-60283163D01*
X38524881Y-60181681D01*
X38524878Y-60181679D01*
X38395721Y-60052522D01*
X38294238Y-59900642D01*
X38294237Y-59900641D01*
X38224335Y-59731883D01*
X38188700Y-59552731D01*
X38188700Y-59370069D01*
X38224335Y-59190917D01*
X38294237Y-59022159D01*
X38395719Y-58870281D01*
X38395721Y-58870278D01*
X38524878Y-58741121D01*
X38676758Y-58639638D01*
X38676759Y-58639637D01*
X38845517Y-58569735D01*
X38935093Y-58551918D01*
X39024667Y-58534100D01*
X39207333Y-58534100D01*
X39296907Y-58551918D01*
X39296907Y-58551918D01*
G37*
G36*
X44376907Y-58551918D02*
X44466483Y-58569735D01*
X44635241Y-58639637D01*
X44635242Y-58639638D01*
X44787122Y-58741121D01*
X44916279Y-58870278D01*
X44916281Y-58870281D01*
X45017763Y-59022159D01*
X45087665Y-59190917D01*
X45123300Y-59370069D01*
X45123300Y-59552731D01*
X45087665Y-59731883D01*
X45017763Y-59900641D01*
X45017762Y-59900642D01*
X44916279Y-60052522D01*
X44787122Y-60181679D01*
X44787119Y-60181681D01*
X44635241Y-60283163D01*
X44466483Y-60353065D01*
X44376907Y-60370882D01*
X44287333Y-60388700D01*
X44104667Y-60388700D01*
X44015093Y-60370882D01*
X43925517Y-60353065D01*
X43756759Y-60283163D01*
X43604881Y-60181681D01*
X43604878Y-60181679D01*
X43475721Y-60052522D01*
X43374238Y-59900642D01*
X43374237Y-59900641D01*
X43304335Y-59731883D01*
X43268700Y-59552731D01*
X43268700Y-59370069D01*
X43304335Y-59190917D01*
X43374237Y-59022159D01*
X43475719Y-58870281D01*
X43475721Y-58870278D01*
X43604878Y-58741121D01*
X43756758Y-58639638D01*
X43756759Y-58639637D01*
X43925517Y-58569735D01*
X44015093Y-58551918D01*
X44104667Y-58534100D01*
X44287333Y-58534100D01*
X44376907Y-58551918D01*
X44376907Y-58551918D01*
G37*
G36*
X140881200Y-54445000D02*
X139179200Y-54445000D01*
X139179200Y-52743000D01*
X140881200Y-52743000D01*
X140881200Y-54445000D01*
X140881200Y-54445000D01*
G37*
G36*
X198336000Y-54394200D02*
X196634000Y-54394200D01*
X196634000Y-52692200D01*
X198336000Y-52692200D01*
X198336000Y-54394200D01*
X198336000Y-54394200D01*
G37*
G36*
X236334400Y-54394200D02*
X234632400Y-54394200D01*
X234632400Y-52692200D01*
X236334400Y-52692200D01*
X236334400Y-54394200D01*
X236334400Y-54394200D01*
G37*
G36*
X160083600Y-54368800D02*
X158381600Y-54368800D01*
X158381600Y-52666800D01*
X160083600Y-52666800D01*
X160083600Y-54368800D01*
X160083600Y-54368800D01*
G37*
G36*
X102679600Y-54368800D02*
X100977600Y-54368800D01*
X100977600Y-52666800D01*
X102679600Y-52666800D01*
X102679600Y-54368800D01*
X102679600Y-54368800D01*
G37*
G36*
X121856600Y-54343400D02*
X120154600Y-54343400D01*
X120154600Y-52641400D01*
X121856600Y-52641400D01*
X121856600Y-54343400D01*
X121856600Y-54343400D01*
G37*
G36*
X179311400Y-54343400D02*
X177609400Y-54343400D01*
X177609400Y-52641400D01*
X179311400Y-52641400D01*
X179311400Y-54343400D01*
X179311400Y-54343400D01*
G37*
G36*
X64351000Y-54318000D02*
X62649000Y-54318000D01*
X62649000Y-52616000D01*
X64351000Y-52616000D01*
X64351000Y-54318000D01*
X64351000Y-54318000D01*
G37*
G36*
X83578800Y-54318000D02*
X81876800Y-54318000D01*
X81876800Y-52616000D01*
X83578800Y-52616000D01*
X83578800Y-54318000D01*
X83578800Y-54318000D01*
G37*
G36*
X216700200Y-54241800D02*
X214998200Y-54241800D01*
X214998200Y-52539800D01*
X216700200Y-52539800D01*
X216700200Y-54241800D01*
X216700200Y-54241800D01*
G37*
G36*
X255308200Y-54216400D02*
X253606200Y-54216400D01*
X253606200Y-52514400D01*
X255308200Y-52514400D01*
X255308200Y-54216400D01*
X255308200Y-54216400D01*
G37*
G36*
X46825000Y-53175000D02*
X45123000Y-53175000D01*
X45123000Y-51473000D01*
X46825000Y-51473000D01*
X46825000Y-53175000D01*
X46825000Y-53175000D01*
G37*
G36*
X44031000Y-53175000D02*
X42329000Y-53175000D01*
X42329000Y-51473000D01*
X44031000Y-51473000D01*
X44031000Y-53175000D01*
X44031000Y-53175000D01*
G37*
G36*
X164838677Y-45029085D02*
X165055972Y-45119091D01*
X165251531Y-45249760D01*
X165417840Y-45416069D01*
X165548509Y-45611628D01*
X165638515Y-45828923D01*
X165684400Y-46059601D01*
X165684400Y-46294799D01*
X165638515Y-46525477D01*
X165548509Y-46742772D01*
X165417840Y-46938331D01*
X165251531Y-47104640D01*
X165055972Y-47235309D01*
X164911864Y-47295000D01*
X164838677Y-47325315D01*
X164607999Y-47371200D01*
X164372801Y-47371200D01*
X164142123Y-47325315D01*
X164068936Y-47295000D01*
X163924828Y-47235309D01*
X163729269Y-47104640D01*
X163562960Y-46938331D01*
X163432291Y-46742772D01*
X163342285Y-46525477D01*
X163296400Y-46294799D01*
X163296400Y-46059601D01*
X163342285Y-45828923D01*
X163432291Y-45611628D01*
X163562960Y-45416069D01*
X163729269Y-45249760D01*
X163924828Y-45119091D01*
X164142123Y-45029085D01*
X164372801Y-44983200D01*
X164607999Y-44983200D01*
X164838677Y-45029085D01*
X164838677Y-45029085D01*
G37*
G36*
X107587077Y-45029085D02*
X107804372Y-45119091D01*
X107999931Y-45249760D01*
X108166240Y-45416069D01*
X108296909Y-45611628D01*
X108386915Y-45828923D01*
X108432800Y-46059601D01*
X108432800Y-46294799D01*
X108386915Y-46525477D01*
X108296909Y-46742772D01*
X108166240Y-46938331D01*
X107999931Y-47104640D01*
X107804372Y-47235309D01*
X107660264Y-47295000D01*
X107587077Y-47325315D01*
X107356399Y-47371200D01*
X107121201Y-47371200D01*
X106890523Y-47325315D01*
X106817336Y-47295000D01*
X106673228Y-47235309D01*
X106477669Y-47104640D01*
X106311360Y-46938331D01*
X106180691Y-46742772D01*
X106090685Y-46525477D01*
X106044800Y-46294799D01*
X106044800Y-46059601D01*
X106090685Y-45828923D01*
X106180691Y-45611628D01*
X106311360Y-45416069D01*
X106477669Y-45249760D01*
X106673228Y-45119091D01*
X106890523Y-45029085D01*
X107121201Y-44983200D01*
X107356399Y-44983200D01*
X107587077Y-45029085D01*
X107587077Y-45029085D01*
G37*
G36*
X260088677Y-45003685D02*
X260305972Y-45093691D01*
X260501531Y-45224360D01*
X260667840Y-45390669D01*
X260798509Y-45586228D01*
X260888515Y-45803523D01*
X260934400Y-46034201D01*
X260934400Y-46269399D01*
X260888515Y-46500077D01*
X260798509Y-46717372D01*
X260667840Y-46912931D01*
X260501531Y-47079240D01*
X260305972Y-47209909D01*
X260149998Y-47274515D01*
X260088677Y-47299915D01*
X259857999Y-47345800D01*
X259622801Y-47345800D01*
X259392123Y-47299915D01*
X259330802Y-47274515D01*
X259174828Y-47209909D01*
X258979269Y-47079240D01*
X258812960Y-46912931D01*
X258682291Y-46717372D01*
X258592285Y-46500077D01*
X258546400Y-46269399D01*
X258546400Y-46034201D01*
X258592285Y-45803523D01*
X258682291Y-45586228D01*
X258812960Y-45390669D01*
X258979269Y-45224360D01*
X259174828Y-45093691D01*
X259392123Y-45003685D01*
X259622801Y-44957800D01*
X259857999Y-44957800D01*
X260088677Y-45003685D01*
X260088677Y-45003685D01*
G37*
G36*
X241013277Y-45003685D02*
X241230572Y-45093691D01*
X241426131Y-45224360D01*
X241592440Y-45390669D01*
X241723109Y-45586228D01*
X241813115Y-45803523D01*
X241859000Y-46034201D01*
X241859000Y-46269399D01*
X241813115Y-46500077D01*
X241723109Y-46717372D01*
X241592440Y-46912931D01*
X241426131Y-47079240D01*
X241230572Y-47209909D01*
X241013277Y-47299915D01*
X240782599Y-47345800D01*
X240547401Y-47345800D01*
X240316723Y-47299915D01*
X240099428Y-47209909D01*
X239903869Y-47079240D01*
X239737560Y-46912931D01*
X239606891Y-46717372D01*
X239516885Y-46500077D01*
X239471000Y-46269399D01*
X239471000Y-46034201D01*
X239516885Y-45803523D01*
X239606891Y-45586228D01*
X239737560Y-45390669D01*
X239903869Y-45224360D01*
X240099428Y-45093691D01*
X240316723Y-45003685D01*
X240547401Y-44957800D01*
X240782599Y-44957800D01*
X241013277Y-45003685D01*
X241013277Y-45003685D01*
G37*
G36*
X69563277Y-45003685D02*
X69780572Y-45093691D01*
X69976131Y-45224360D01*
X70142440Y-45390669D01*
X70273109Y-45586228D01*
X70363115Y-45803523D01*
X70409000Y-46034201D01*
X70409000Y-46269399D01*
X70363115Y-46500077D01*
X70273109Y-46717372D01*
X70142440Y-46912931D01*
X69976131Y-47079240D01*
X69780572Y-47209909D01*
X69563277Y-47299915D01*
X69332599Y-47345800D01*
X69097401Y-47345800D01*
X68866723Y-47299915D01*
X68649428Y-47209909D01*
X68453869Y-47079240D01*
X68287560Y-46912931D01*
X68156891Y-46717372D01*
X68066885Y-46500077D01*
X68021000Y-46269399D01*
X68021000Y-46034201D01*
X68066885Y-45803523D01*
X68156891Y-45586228D01*
X68287560Y-45390669D01*
X68453869Y-45224360D01*
X68649428Y-45093691D01*
X68866723Y-45003685D01*
X69097401Y-44957800D01*
X69332599Y-44957800D01*
X69563277Y-45003685D01*
X69563277Y-45003685D01*
G37*
G36*
X50437077Y-45003685D02*
X50654372Y-45093691D01*
X50849931Y-45224360D01*
X51016240Y-45390669D01*
X51146909Y-45586228D01*
X51236915Y-45803523D01*
X51282800Y-46034201D01*
X51282800Y-46269399D01*
X51236915Y-46500077D01*
X51146909Y-46717372D01*
X51016240Y-46912931D01*
X50849931Y-47079240D01*
X50654372Y-47209909D01*
X50498398Y-47274515D01*
X50437077Y-47299915D01*
X50206399Y-47345800D01*
X49971201Y-47345800D01*
X49740523Y-47299915D01*
X49679202Y-47274515D01*
X49523228Y-47209909D01*
X49327669Y-47079240D01*
X49161360Y-46912931D01*
X49030691Y-46717372D01*
X48940685Y-46500077D01*
X48894800Y-46269399D01*
X48894800Y-46034201D01*
X48940685Y-45803523D01*
X49030691Y-45586228D01*
X49161360Y-45390669D01*
X49327669Y-45224360D01*
X49523228Y-45093691D01*
X49740523Y-45003685D01*
X49971201Y-44957800D01*
X50206399Y-44957800D01*
X50437077Y-45003685D01*
X50437077Y-45003685D01*
G37*
G36*
X202913277Y-44978285D02*
X203130572Y-45068291D01*
X203326131Y-45198960D01*
X203492440Y-45365269D01*
X203623109Y-45560828D01*
X203713115Y-45778123D01*
X203759000Y-46008801D01*
X203759000Y-46243999D01*
X203713115Y-46474677D01*
X203623109Y-46691972D01*
X203492440Y-46887531D01*
X203326131Y-47053840D01*
X203130572Y-47184509D01*
X203007929Y-47235309D01*
X202913277Y-47274515D01*
X202682599Y-47320400D01*
X202447401Y-47320400D01*
X202216723Y-47274515D01*
X202122071Y-47235309D01*
X201999428Y-47184509D01*
X201803869Y-47053840D01*
X201637560Y-46887531D01*
X201506891Y-46691972D01*
X201416885Y-46474677D01*
X201371000Y-46243999D01*
X201371000Y-46008801D01*
X201416885Y-45778123D01*
X201506891Y-45560828D01*
X201637560Y-45365269D01*
X201803869Y-45198960D01*
X201999428Y-45068291D01*
X202216723Y-44978285D01*
X202447401Y-44932400D01*
X202682599Y-44932400D01*
X202913277Y-44978285D01*
X202913277Y-44978285D01*
G37*
G36*
X145737877Y-44978285D02*
X145955172Y-45068291D01*
X146150731Y-45198960D01*
X146317040Y-45365269D01*
X146447709Y-45560828D01*
X146537715Y-45778123D01*
X146583600Y-46008801D01*
X146583600Y-46243999D01*
X146537715Y-46474677D01*
X146447709Y-46691972D01*
X146317040Y-46887531D01*
X146150731Y-47053840D01*
X145955172Y-47184509D01*
X145737877Y-47274515D01*
X145507199Y-47320400D01*
X145272001Y-47320400D01*
X145041323Y-47274515D01*
X144824028Y-47184509D01*
X144628469Y-47053840D01*
X144462160Y-46887531D01*
X144331491Y-46691972D01*
X144241485Y-46474677D01*
X144195600Y-46243999D01*
X144195600Y-46008801D01*
X144241485Y-45778123D01*
X144331491Y-45560828D01*
X144462160Y-45365269D01*
X144628469Y-45198960D01*
X144824028Y-45068291D01*
X145041323Y-44978285D01*
X145272001Y-44932400D01*
X145507199Y-44932400D01*
X145737877Y-44978285D01*
X145737877Y-44978285D01*
G37*
G36*
X221963277Y-44978285D02*
X222180572Y-45068291D01*
X222376131Y-45198960D01*
X222542440Y-45365269D01*
X222673109Y-45560828D01*
X222763115Y-45778123D01*
X222809000Y-46008801D01*
X222809000Y-46243999D01*
X222763115Y-46474677D01*
X222673109Y-46691972D01*
X222542440Y-46887531D01*
X222376131Y-47053840D01*
X222180572Y-47184509D01*
X222057929Y-47235309D01*
X221963277Y-47274515D01*
X221732599Y-47320400D01*
X221497401Y-47320400D01*
X221266723Y-47274515D01*
X221172071Y-47235309D01*
X221049428Y-47184509D01*
X220853869Y-47053840D01*
X220687560Y-46887531D01*
X220556891Y-46691972D01*
X220466885Y-46474677D01*
X220421000Y-46243999D01*
X220421000Y-46008801D01*
X220466885Y-45778123D01*
X220556891Y-45560828D01*
X220687560Y-45365269D01*
X220853869Y-45198960D01*
X221049428Y-45068291D01*
X221266723Y-44978285D01*
X221497401Y-44932400D01*
X221732599Y-44932400D01*
X221963277Y-44978285D01*
X221963277Y-44978285D01*
G37*
G36*
X126637077Y-44952885D02*
X126854372Y-45042891D01*
X127049931Y-45173560D01*
X127216240Y-45339869D01*
X127346909Y-45535428D01*
X127436915Y-45752723D01*
X127482800Y-45983401D01*
X127482800Y-46218599D01*
X127436915Y-46449277D01*
X127346909Y-46666572D01*
X127216240Y-46862131D01*
X127049931Y-47028440D01*
X126854372Y-47159109D01*
X126731729Y-47209909D01*
X126637077Y-47249115D01*
X126406399Y-47295000D01*
X126171201Y-47295000D01*
X125940523Y-47249115D01*
X125845871Y-47209909D01*
X125723228Y-47159109D01*
X125527669Y-47028440D01*
X125361360Y-46862131D01*
X125230691Y-46666572D01*
X125140685Y-46449277D01*
X125094800Y-46218599D01*
X125094800Y-45983401D01*
X125140685Y-45752723D01*
X125230691Y-45535428D01*
X125361360Y-45339869D01*
X125527669Y-45173560D01*
X125723228Y-45042891D01*
X125940523Y-44952885D01*
X126171201Y-44907000D01*
X126406399Y-44907000D01*
X126637077Y-44952885D01*
X126637077Y-44952885D01*
G37*
G36*
X31412477Y-44952885D02*
X31629772Y-45042891D01*
X31825331Y-45173560D01*
X31991640Y-45339869D01*
X32122309Y-45535428D01*
X32212315Y-45752723D01*
X32258200Y-45983401D01*
X32258200Y-46218599D01*
X32212315Y-46449277D01*
X32122309Y-46666572D01*
X31991640Y-46862131D01*
X31825331Y-47028440D01*
X31629772Y-47159109D01*
X31412477Y-47249115D01*
X31181799Y-47295000D01*
X30946601Y-47295000D01*
X30715923Y-47249115D01*
X30498628Y-47159109D01*
X30303069Y-47028440D01*
X30136760Y-46862131D01*
X30006091Y-46666572D01*
X29916085Y-46449277D01*
X29870200Y-46218599D01*
X29870200Y-45983401D01*
X29916085Y-45752723D01*
X30006091Y-45535428D01*
X30136760Y-45339869D01*
X30303069Y-45173560D01*
X30498628Y-45042891D01*
X30715923Y-44952885D01*
X30946601Y-44907000D01*
X31181799Y-44907000D01*
X31412477Y-44952885D01*
X31412477Y-44952885D01*
G37*
G36*
X183837877Y-44952885D02*
X184055172Y-45042891D01*
X184250731Y-45173560D01*
X184417040Y-45339869D01*
X184547709Y-45535428D01*
X184637715Y-45752723D01*
X184683600Y-45983401D01*
X184683600Y-46218599D01*
X184637715Y-46449277D01*
X184547709Y-46666572D01*
X184417040Y-46862131D01*
X184250731Y-47028440D01*
X184055172Y-47159109D01*
X183932529Y-47209909D01*
X183837877Y-47249115D01*
X183607199Y-47295000D01*
X183372001Y-47295000D01*
X183141323Y-47249115D01*
X183046671Y-47209909D01*
X182924028Y-47159109D01*
X182728469Y-47028440D01*
X182562160Y-46862131D01*
X182431491Y-46666572D01*
X182341485Y-46449277D01*
X182295600Y-46218599D01*
X182295600Y-45983401D01*
X182341485Y-45752723D01*
X182431491Y-45535428D01*
X182562160Y-45339869D01*
X182728469Y-45173560D01*
X182924028Y-45042891D01*
X183141323Y-44952885D01*
X183372001Y-44907000D01*
X183607199Y-44907000D01*
X183837877Y-44952885D01*
X183837877Y-44952885D01*
G37*
G36*
X88613277Y-44876685D02*
X88830572Y-44966691D01*
X89026131Y-45097360D01*
X89192440Y-45263669D01*
X89323109Y-45459228D01*
X89413115Y-45676523D01*
X89459000Y-45907201D01*
X89459000Y-46142399D01*
X89413115Y-46373077D01*
X89323109Y-46590372D01*
X89192440Y-46785931D01*
X89026131Y-46952240D01*
X88830572Y-47082909D01*
X88613277Y-47172915D01*
X88382599Y-47218800D01*
X88147401Y-47218800D01*
X87916723Y-47172915D01*
X87699428Y-47082909D01*
X87503869Y-46952240D01*
X87337560Y-46785931D01*
X87206891Y-46590372D01*
X87116885Y-46373077D01*
X87071000Y-46142399D01*
X87071000Y-45907201D01*
X87116885Y-45676523D01*
X87206891Y-45459228D01*
X87337560Y-45263669D01*
X87503869Y-45097360D01*
X87699428Y-44966691D01*
X87916723Y-44876685D01*
X88147401Y-44830800D01*
X88382599Y-44830800D01*
X88613277Y-44876685D01*
X88613277Y-44876685D01*
G37*
G36*
X140197021Y-45135313D02*
X140197024Y-45135314D01*
X140197025Y-45135314D01*
X140357439Y-45183975D01*
X140357441Y-45183976D01*
X140357444Y-45183977D01*
X140505278Y-45262995D01*
X140634859Y-45369341D01*
X140741205Y-45498922D01*
X140820223Y-45646756D01*
X140820224Y-45646759D01*
X140820225Y-45646761D01*
X140852368Y-45752723D01*
X140868887Y-45807179D01*
X140885317Y-45974000D01*
X140868887Y-46140821D01*
X140868886Y-46140824D01*
X140868886Y-46140825D01*
X140822179Y-46294799D01*
X140820223Y-46301244D01*
X140741205Y-46449078D01*
X140634859Y-46578659D01*
X140505278Y-46685005D01*
X140357444Y-46764023D01*
X140357441Y-46764024D01*
X140357439Y-46764025D01*
X140197025Y-46812686D01*
X140197024Y-46812686D01*
X140197021Y-46812687D01*
X140072004Y-46825000D01*
X139988396Y-46825000D01*
X139863379Y-46812687D01*
X139863376Y-46812686D01*
X139863375Y-46812686D01*
X139702961Y-46764025D01*
X139702959Y-46764024D01*
X139702956Y-46764023D01*
X139555122Y-46685005D01*
X139425541Y-46578659D01*
X139319195Y-46449078D01*
X139240177Y-46301244D01*
X139238222Y-46294799D01*
X139191514Y-46140825D01*
X139191514Y-46140824D01*
X139191513Y-46140821D01*
X139175083Y-45974000D01*
X139191513Y-45807179D01*
X139208032Y-45752723D01*
X139240175Y-45646761D01*
X139240176Y-45646759D01*
X139240177Y-45646756D01*
X139319195Y-45498922D01*
X139425541Y-45369341D01*
X139555122Y-45262995D01*
X139702956Y-45183977D01*
X139702959Y-45183976D01*
X139702961Y-45183975D01*
X139863375Y-45135314D01*
X139863376Y-45135314D01*
X139863379Y-45135313D01*
X139988396Y-45123000D01*
X140072004Y-45123000D01*
X140197021Y-45135313D01*
X140197021Y-45135313D01*
G37*
G36*
X197651821Y-45084513D02*
X197651824Y-45084514D01*
X197651825Y-45084514D01*
X197812239Y-45133175D01*
X197812241Y-45133176D01*
X197812244Y-45133177D01*
X197960078Y-45212195D01*
X198089659Y-45318541D01*
X198196005Y-45448122D01*
X198275023Y-45595956D01*
X198275024Y-45595959D01*
X198275025Y-45595961D01*
X198290433Y-45646756D01*
X198323687Y-45756379D01*
X198340117Y-45923200D01*
X198323687Y-46090021D01*
X198323686Y-46090024D01*
X198323686Y-46090025D01*
X198276409Y-46245878D01*
X198275023Y-46250444D01*
X198196005Y-46398278D01*
X198089659Y-46527859D01*
X197960078Y-46634205D01*
X197812244Y-46713223D01*
X197812241Y-46713224D01*
X197812239Y-46713225D01*
X197651825Y-46761886D01*
X197651824Y-46761886D01*
X197651821Y-46761887D01*
X197526804Y-46774200D01*
X197443196Y-46774200D01*
X197318179Y-46761887D01*
X197318176Y-46761886D01*
X197318175Y-46761886D01*
X197157761Y-46713225D01*
X197157759Y-46713224D01*
X197157756Y-46713223D01*
X197009922Y-46634205D01*
X196880341Y-46527859D01*
X196773995Y-46398278D01*
X196694977Y-46250444D01*
X196693592Y-46245878D01*
X196646314Y-46090025D01*
X196646314Y-46090024D01*
X196646313Y-46090021D01*
X196629883Y-45923200D01*
X196646313Y-45756379D01*
X196679567Y-45646756D01*
X196694975Y-45595961D01*
X196694976Y-45595959D01*
X196694977Y-45595956D01*
X196773995Y-45448122D01*
X196880341Y-45318541D01*
X197009922Y-45212195D01*
X197157756Y-45133177D01*
X197157759Y-45133176D01*
X197157761Y-45133175D01*
X197318175Y-45084514D01*
X197318176Y-45084514D01*
X197318179Y-45084513D01*
X197443196Y-45072200D01*
X197526804Y-45072200D01*
X197651821Y-45084513D01*
X197651821Y-45084513D01*
G37*
G36*
X235650221Y-45084513D02*
X235650224Y-45084514D01*
X235650225Y-45084514D01*
X235810639Y-45133175D01*
X235810641Y-45133176D01*
X235810644Y-45133177D01*
X235958478Y-45212195D01*
X236088059Y-45318541D01*
X236194405Y-45448122D01*
X236273423Y-45595956D01*
X236273424Y-45595959D01*
X236273425Y-45595961D01*
X236288833Y-45646756D01*
X236322087Y-45756379D01*
X236338517Y-45923200D01*
X236322087Y-46090021D01*
X236322086Y-46090024D01*
X236322086Y-46090025D01*
X236274809Y-46245878D01*
X236273423Y-46250444D01*
X236194405Y-46398278D01*
X236088059Y-46527859D01*
X235958478Y-46634205D01*
X235810644Y-46713223D01*
X235810641Y-46713224D01*
X235810639Y-46713225D01*
X235650225Y-46761886D01*
X235650224Y-46761886D01*
X235650221Y-46761887D01*
X235525204Y-46774200D01*
X235441596Y-46774200D01*
X235316579Y-46761887D01*
X235316576Y-46761886D01*
X235316575Y-46761886D01*
X235156161Y-46713225D01*
X235156159Y-46713224D01*
X235156156Y-46713223D01*
X235008322Y-46634205D01*
X234878741Y-46527859D01*
X234772395Y-46398278D01*
X234693377Y-46250444D01*
X234691992Y-46245878D01*
X234644714Y-46090025D01*
X234644714Y-46090024D01*
X234644713Y-46090021D01*
X234628283Y-45923200D01*
X234644713Y-45756379D01*
X234677967Y-45646756D01*
X234693375Y-45595961D01*
X234693376Y-45595959D01*
X234693377Y-45595956D01*
X234772395Y-45448122D01*
X234878741Y-45318541D01*
X235008322Y-45212195D01*
X235156156Y-45133177D01*
X235156159Y-45133176D01*
X235156161Y-45133175D01*
X235316575Y-45084514D01*
X235316576Y-45084514D01*
X235316579Y-45084513D01*
X235441596Y-45072200D01*
X235525204Y-45072200D01*
X235650221Y-45084513D01*
X235650221Y-45084513D01*
G37*
G36*
X101995421Y-45059113D02*
X101995424Y-45059114D01*
X101995425Y-45059114D01*
X102155839Y-45107775D01*
X102155841Y-45107776D01*
X102155844Y-45107777D01*
X102303678Y-45186795D01*
X102433259Y-45293141D01*
X102539605Y-45422722D01*
X102618623Y-45570556D01*
X102618624Y-45570559D01*
X102618625Y-45570561D01*
X102641738Y-45646756D01*
X102667287Y-45730979D01*
X102683717Y-45897800D01*
X102667287Y-46064621D01*
X102667286Y-46064624D01*
X102667286Y-46064625D01*
X102620009Y-46220478D01*
X102618623Y-46225044D01*
X102539605Y-46372878D01*
X102433259Y-46502459D01*
X102303678Y-46608805D01*
X102155844Y-46687823D01*
X102155841Y-46687824D01*
X102155839Y-46687825D01*
X101995425Y-46736486D01*
X101995424Y-46736486D01*
X101995421Y-46736487D01*
X101870404Y-46748800D01*
X101786796Y-46748800D01*
X101661779Y-46736487D01*
X101661776Y-46736486D01*
X101661775Y-46736486D01*
X101501361Y-46687825D01*
X101501359Y-46687824D01*
X101501356Y-46687823D01*
X101353522Y-46608805D01*
X101223941Y-46502459D01*
X101117595Y-46372878D01*
X101038577Y-46225044D01*
X101037192Y-46220478D01*
X100989914Y-46064625D01*
X100989914Y-46064624D01*
X100989913Y-46064621D01*
X100973483Y-45897800D01*
X100989913Y-45730979D01*
X101015462Y-45646756D01*
X101038575Y-45570561D01*
X101038576Y-45570559D01*
X101038577Y-45570556D01*
X101117595Y-45422722D01*
X101223941Y-45293141D01*
X101353522Y-45186795D01*
X101501356Y-45107777D01*
X101501359Y-45107776D01*
X101501361Y-45107775D01*
X101661775Y-45059114D01*
X101661776Y-45059114D01*
X101661779Y-45059113D01*
X101786796Y-45046800D01*
X101870404Y-45046800D01*
X101995421Y-45059113D01*
X101995421Y-45059113D01*
G37*
G36*
X159399421Y-45059113D02*
X159399424Y-45059114D01*
X159399425Y-45059114D01*
X159559839Y-45107775D01*
X159559841Y-45107776D01*
X159559844Y-45107777D01*
X159707678Y-45186795D01*
X159837259Y-45293141D01*
X159943605Y-45422722D01*
X160022623Y-45570556D01*
X160022624Y-45570559D01*
X160022625Y-45570561D01*
X160045738Y-45646756D01*
X160071287Y-45730979D01*
X160087717Y-45897800D01*
X160071287Y-46064621D01*
X160071286Y-46064624D01*
X160071286Y-46064625D01*
X160024009Y-46220478D01*
X160022623Y-46225044D01*
X159943605Y-46372878D01*
X159837259Y-46502459D01*
X159707678Y-46608805D01*
X159559844Y-46687823D01*
X159559841Y-46687824D01*
X159559839Y-46687825D01*
X159399425Y-46736486D01*
X159399424Y-46736486D01*
X159399421Y-46736487D01*
X159274404Y-46748800D01*
X159190796Y-46748800D01*
X159065779Y-46736487D01*
X159065776Y-46736486D01*
X159065775Y-46736486D01*
X158905361Y-46687825D01*
X158905359Y-46687824D01*
X158905356Y-46687823D01*
X158757522Y-46608805D01*
X158627941Y-46502459D01*
X158521595Y-46372878D01*
X158442577Y-46225044D01*
X158441192Y-46220478D01*
X158393914Y-46064625D01*
X158393914Y-46064624D01*
X158393913Y-46064621D01*
X158377483Y-45897800D01*
X158393913Y-45730979D01*
X158419462Y-45646756D01*
X158442575Y-45570561D01*
X158442576Y-45570559D01*
X158442577Y-45570556D01*
X158521595Y-45422722D01*
X158627941Y-45293141D01*
X158757522Y-45186795D01*
X158905356Y-45107777D01*
X158905359Y-45107776D01*
X158905361Y-45107775D01*
X159065775Y-45059114D01*
X159065776Y-45059114D01*
X159065779Y-45059113D01*
X159190796Y-45046800D01*
X159274404Y-45046800D01*
X159399421Y-45059113D01*
X159399421Y-45059113D01*
G37*
G36*
X178627221Y-45033713D02*
X178627224Y-45033714D01*
X178627225Y-45033714D01*
X178787639Y-45082375D01*
X178787641Y-45082376D01*
X178787644Y-45082377D01*
X178935478Y-45161395D01*
X179065059Y-45267741D01*
X179171405Y-45397322D01*
X179250423Y-45545156D01*
X179250424Y-45545159D01*
X179250425Y-45545161D01*
X179281243Y-45646756D01*
X179299087Y-45705579D01*
X179315517Y-45872400D01*
X179299087Y-46039221D01*
X179299086Y-46039224D01*
X179299086Y-46039225D01*
X179267789Y-46142399D01*
X179250423Y-46199644D01*
X179171405Y-46347478D01*
X179065059Y-46477059D01*
X178935478Y-46583405D01*
X178787644Y-46662423D01*
X178787641Y-46662424D01*
X178787639Y-46662425D01*
X178627225Y-46711086D01*
X178627224Y-46711086D01*
X178627221Y-46711087D01*
X178502204Y-46723400D01*
X178418596Y-46723400D01*
X178293579Y-46711087D01*
X178293576Y-46711086D01*
X178293575Y-46711086D01*
X178133161Y-46662425D01*
X178133159Y-46662424D01*
X178133156Y-46662423D01*
X177985322Y-46583405D01*
X177855741Y-46477059D01*
X177749395Y-46347478D01*
X177670377Y-46199644D01*
X177653012Y-46142399D01*
X177621714Y-46039225D01*
X177621714Y-46039224D01*
X177621713Y-46039221D01*
X177605283Y-45872400D01*
X177621713Y-45705579D01*
X177639557Y-45646756D01*
X177670375Y-45545161D01*
X177670376Y-45545159D01*
X177670377Y-45545156D01*
X177749395Y-45397322D01*
X177855741Y-45267741D01*
X177985322Y-45161395D01*
X178133156Y-45082377D01*
X178133159Y-45082376D01*
X178133161Y-45082375D01*
X178293575Y-45033714D01*
X178293576Y-45033714D01*
X178293579Y-45033713D01*
X178418596Y-45021400D01*
X178502204Y-45021400D01*
X178627221Y-45033713D01*
X178627221Y-45033713D01*
G37*
G36*
X121172421Y-45033713D02*
X121172424Y-45033714D01*
X121172425Y-45033714D01*
X121332839Y-45082375D01*
X121332841Y-45082376D01*
X121332844Y-45082377D01*
X121480678Y-45161395D01*
X121610259Y-45267741D01*
X121716605Y-45397322D01*
X121795623Y-45545156D01*
X121795624Y-45545159D01*
X121795625Y-45545161D01*
X121826443Y-45646756D01*
X121844287Y-45705579D01*
X121860717Y-45872400D01*
X121844287Y-46039221D01*
X121844286Y-46039224D01*
X121844286Y-46039225D01*
X121812989Y-46142399D01*
X121795623Y-46199644D01*
X121716605Y-46347478D01*
X121610259Y-46477059D01*
X121480678Y-46583405D01*
X121332844Y-46662423D01*
X121332841Y-46662424D01*
X121332839Y-46662425D01*
X121172425Y-46711086D01*
X121172424Y-46711086D01*
X121172421Y-46711087D01*
X121047404Y-46723400D01*
X120963796Y-46723400D01*
X120838779Y-46711087D01*
X120838776Y-46711086D01*
X120838775Y-46711086D01*
X120678361Y-46662425D01*
X120678359Y-46662424D01*
X120678356Y-46662423D01*
X120530522Y-46583405D01*
X120400941Y-46477059D01*
X120294595Y-46347478D01*
X120215577Y-46199644D01*
X120198212Y-46142399D01*
X120166914Y-46039225D01*
X120166914Y-46039224D01*
X120166913Y-46039221D01*
X120150483Y-45872400D01*
X120166913Y-45705579D01*
X120184757Y-45646756D01*
X120215575Y-45545161D01*
X120215576Y-45545159D01*
X120215577Y-45545156D01*
X120294595Y-45397322D01*
X120400941Y-45267741D01*
X120530522Y-45161395D01*
X120678356Y-45082377D01*
X120678359Y-45082376D01*
X120678361Y-45082375D01*
X120838775Y-45033714D01*
X120838776Y-45033714D01*
X120838779Y-45033713D01*
X120963796Y-45021400D01*
X121047404Y-45021400D01*
X121172421Y-45033713D01*
X121172421Y-45033713D01*
G37*
G36*
X82894621Y-45008313D02*
X82894624Y-45008314D01*
X82894625Y-45008314D01*
X83055039Y-45056975D01*
X83055041Y-45056976D01*
X83055044Y-45056977D01*
X83202878Y-45135995D01*
X83332459Y-45242341D01*
X83438805Y-45371922D01*
X83517823Y-45519756D01*
X83517824Y-45519759D01*
X83517825Y-45519761D01*
X83556348Y-45646756D01*
X83566487Y-45680179D01*
X83582917Y-45847000D01*
X83566487Y-46013821D01*
X83566486Y-46013824D01*
X83566486Y-46013825D01*
X83527484Y-46142399D01*
X83517823Y-46174244D01*
X83438805Y-46322078D01*
X83332459Y-46451659D01*
X83202878Y-46558005D01*
X83055044Y-46637023D01*
X83055041Y-46637024D01*
X83055039Y-46637025D01*
X82894625Y-46685686D01*
X82894624Y-46685686D01*
X82894621Y-46685687D01*
X82769604Y-46698000D01*
X82685996Y-46698000D01*
X82560979Y-46685687D01*
X82560976Y-46685686D01*
X82560975Y-46685686D01*
X82400561Y-46637025D01*
X82400559Y-46637024D01*
X82400556Y-46637023D01*
X82252722Y-46558005D01*
X82123141Y-46451659D01*
X82016795Y-46322078D01*
X81937777Y-46174244D01*
X81928117Y-46142399D01*
X81889114Y-46013825D01*
X81889114Y-46013824D01*
X81889113Y-46013821D01*
X81872683Y-45847000D01*
X81889113Y-45680179D01*
X81899252Y-45646756D01*
X81937775Y-45519761D01*
X81937776Y-45519759D01*
X81937777Y-45519756D01*
X82016795Y-45371922D01*
X82123141Y-45242341D01*
X82252722Y-45135995D01*
X82400556Y-45056977D01*
X82400559Y-45056976D01*
X82400561Y-45056975D01*
X82560975Y-45008314D01*
X82560976Y-45008314D01*
X82560979Y-45008313D01*
X82685996Y-44996000D01*
X82769604Y-44996000D01*
X82894621Y-45008313D01*
X82894621Y-45008313D01*
G37*
G36*
X63666821Y-45008313D02*
X63666824Y-45008314D01*
X63666825Y-45008314D01*
X63827239Y-45056975D01*
X63827241Y-45056976D01*
X63827244Y-45056977D01*
X63975078Y-45135995D01*
X64104659Y-45242341D01*
X64211005Y-45371922D01*
X64290023Y-45519756D01*
X64290024Y-45519759D01*
X64290025Y-45519761D01*
X64328548Y-45646756D01*
X64338687Y-45680179D01*
X64355117Y-45847000D01*
X64338687Y-46013821D01*
X64338686Y-46013824D01*
X64338686Y-46013825D01*
X64299684Y-46142399D01*
X64290023Y-46174244D01*
X64211005Y-46322078D01*
X64104659Y-46451659D01*
X63975078Y-46558005D01*
X63827244Y-46637023D01*
X63827241Y-46637024D01*
X63827239Y-46637025D01*
X63666825Y-46685686D01*
X63666824Y-46685686D01*
X63666821Y-46685687D01*
X63541804Y-46698000D01*
X63458196Y-46698000D01*
X63333179Y-46685687D01*
X63333176Y-46685686D01*
X63333175Y-46685686D01*
X63172761Y-46637025D01*
X63172759Y-46637024D01*
X63172756Y-46637023D01*
X63024922Y-46558005D01*
X62895341Y-46451659D01*
X62788995Y-46322078D01*
X62709977Y-46174244D01*
X62700317Y-46142399D01*
X62661314Y-46013825D01*
X62661314Y-46013824D01*
X62661313Y-46013821D01*
X62644883Y-45847000D01*
X62661313Y-45680179D01*
X62671452Y-45646756D01*
X62709975Y-45519761D01*
X62709976Y-45519759D01*
X62709977Y-45519756D01*
X62788995Y-45371922D01*
X62895341Y-45242341D01*
X63024922Y-45135995D01*
X63172756Y-45056977D01*
X63172759Y-45056976D01*
X63172761Y-45056975D01*
X63333175Y-45008314D01*
X63333176Y-45008314D01*
X63333179Y-45008313D01*
X63458196Y-44996000D01*
X63541804Y-44996000D01*
X63666821Y-45008313D01*
X63666821Y-45008313D01*
G37*
G36*
X216016021Y-44932113D02*
X216016024Y-44932114D01*
X216016025Y-44932114D01*
X216176439Y-44980775D01*
X216176441Y-44980776D01*
X216176444Y-44980777D01*
X216324278Y-45059795D01*
X216453859Y-45166141D01*
X216560205Y-45295722D01*
X216639223Y-45443556D01*
X216639224Y-45443559D01*
X216639225Y-45443561D01*
X216682503Y-45586229D01*
X216687887Y-45603979D01*
X216704317Y-45770800D01*
X216687887Y-45937621D01*
X216639223Y-46098044D01*
X216560205Y-46245878D01*
X216453859Y-46375459D01*
X216324278Y-46481805D01*
X216176444Y-46560823D01*
X216176441Y-46560824D01*
X216176439Y-46560825D01*
X216016025Y-46609486D01*
X216016024Y-46609486D01*
X216016021Y-46609487D01*
X215891004Y-46621800D01*
X215807396Y-46621800D01*
X215682379Y-46609487D01*
X215682376Y-46609486D01*
X215682375Y-46609486D01*
X215521961Y-46560825D01*
X215521959Y-46560824D01*
X215521956Y-46560823D01*
X215374122Y-46481805D01*
X215244541Y-46375459D01*
X215138195Y-46245878D01*
X215059177Y-46098044D01*
X215010513Y-45937621D01*
X214994083Y-45770800D01*
X215010513Y-45603979D01*
X215015897Y-45586229D01*
X215059175Y-45443561D01*
X215059176Y-45443559D01*
X215059177Y-45443556D01*
X215138195Y-45295722D01*
X215244541Y-45166141D01*
X215374122Y-45059795D01*
X215521956Y-44980777D01*
X215521959Y-44980776D01*
X215521961Y-44980775D01*
X215682375Y-44932114D01*
X215682376Y-44932114D01*
X215682379Y-44932113D01*
X215807396Y-44919800D01*
X215891004Y-44919800D01*
X216016021Y-44932113D01*
X216016021Y-44932113D01*
G37*
G36*
X254624021Y-44906713D02*
X254624024Y-44906714D01*
X254624025Y-44906714D01*
X254784439Y-44955375D01*
X254784441Y-44955376D01*
X254784444Y-44955377D01*
X254932278Y-45034395D01*
X255061859Y-45140741D01*
X255168205Y-45270322D01*
X255247223Y-45418156D01*
X255247224Y-45418159D01*
X255247225Y-45418161D01*
X255290503Y-45560829D01*
X255295887Y-45578579D01*
X255312317Y-45745400D01*
X255295887Y-45912221D01*
X255295886Y-45912224D01*
X255295886Y-45912225D01*
X255277147Y-45974000D01*
X255247223Y-46072644D01*
X255168205Y-46220478D01*
X255061859Y-46350059D01*
X254932278Y-46456405D01*
X254784444Y-46535423D01*
X254784441Y-46535424D01*
X254784439Y-46535425D01*
X254624025Y-46584086D01*
X254624024Y-46584086D01*
X254624021Y-46584087D01*
X254499004Y-46596400D01*
X254415396Y-46596400D01*
X254290379Y-46584087D01*
X254290376Y-46584086D01*
X254290375Y-46584086D01*
X254129961Y-46535425D01*
X254129959Y-46535424D01*
X254129956Y-46535423D01*
X253982122Y-46456405D01*
X253852541Y-46350059D01*
X253746195Y-46220478D01*
X253667177Y-46072644D01*
X253637254Y-45974000D01*
X253618514Y-45912225D01*
X253618514Y-45912224D01*
X253618513Y-45912221D01*
X253602083Y-45745400D01*
X253618513Y-45578579D01*
X253623897Y-45560829D01*
X253667175Y-45418161D01*
X253667176Y-45418159D01*
X253667177Y-45418156D01*
X253746195Y-45270322D01*
X253852541Y-45140741D01*
X253982122Y-45034395D01*
X254129956Y-44955377D01*
X254129959Y-44955376D01*
X254129961Y-44955375D01*
X254290375Y-44906714D01*
X254290376Y-44906714D01*
X254290379Y-44906713D01*
X254415396Y-44894400D01*
X254499004Y-44894400D01*
X254624021Y-44906713D01*
X254624021Y-44906713D01*
G37*
G36*
X43346821Y-43865313D02*
X43346824Y-43865314D01*
X43346825Y-43865314D01*
X43507239Y-43913975D01*
X43507241Y-43913976D01*
X43507244Y-43913977D01*
X43655078Y-43992995D01*
X43784659Y-44099341D01*
X43891005Y-44228922D01*
X43970023Y-44376756D01*
X43970024Y-44376759D01*
X43970025Y-44376761D01*
X43976568Y-44398331D01*
X44018687Y-44537179D01*
X44035117Y-44704000D01*
X44018687Y-44870821D01*
X44018686Y-44870824D01*
X44018686Y-44870825D01*
X43973010Y-45021400D01*
X43970023Y-45031244D01*
X43891005Y-45179078D01*
X43784659Y-45308659D01*
X43655078Y-45415005D01*
X43507244Y-45494023D01*
X43507241Y-45494024D01*
X43507239Y-45494025D01*
X43346825Y-45542686D01*
X43346824Y-45542686D01*
X43346821Y-45542687D01*
X43221804Y-45555000D01*
X43138196Y-45555000D01*
X43013179Y-45542687D01*
X43013176Y-45542686D01*
X43013175Y-45542686D01*
X42852761Y-45494025D01*
X42852759Y-45494024D01*
X42852756Y-45494023D01*
X42704922Y-45415005D01*
X42575341Y-45308659D01*
X42468995Y-45179078D01*
X42389977Y-45031244D01*
X42386991Y-45021400D01*
X42341314Y-44870825D01*
X42341314Y-44870824D01*
X42341313Y-44870821D01*
X42324883Y-44704000D01*
X42341313Y-44537179D01*
X42383432Y-44398331D01*
X42389975Y-44376761D01*
X42389976Y-44376759D01*
X42389977Y-44376756D01*
X42468995Y-44228922D01*
X42575341Y-44099341D01*
X42704922Y-43992995D01*
X42852756Y-43913977D01*
X42852759Y-43913976D01*
X42852761Y-43913975D01*
X43013175Y-43865314D01*
X43013176Y-43865314D01*
X43013179Y-43865313D01*
X43138196Y-43853000D01*
X43221804Y-43853000D01*
X43346821Y-43865313D01*
X43346821Y-43865313D01*
G37*
G36*
X46140821Y-43865313D02*
X46140824Y-43865314D01*
X46140825Y-43865314D01*
X46301239Y-43913975D01*
X46301241Y-43913976D01*
X46301244Y-43913977D01*
X46449078Y-43992995D01*
X46578659Y-44099341D01*
X46685005Y-44228922D01*
X46764023Y-44376756D01*
X46764024Y-44376759D01*
X46764025Y-44376761D01*
X46770568Y-44398331D01*
X46812687Y-44537179D01*
X46829117Y-44704000D01*
X46812687Y-44870821D01*
X46812686Y-44870824D01*
X46812686Y-44870825D01*
X46767010Y-45021400D01*
X46764023Y-45031244D01*
X46685005Y-45179078D01*
X46578659Y-45308659D01*
X46449078Y-45415005D01*
X46301244Y-45494023D01*
X46301241Y-45494024D01*
X46301239Y-45494025D01*
X46140825Y-45542686D01*
X46140824Y-45542686D01*
X46140821Y-45542687D01*
X46015804Y-45555000D01*
X45932196Y-45555000D01*
X45807179Y-45542687D01*
X45807176Y-45542686D01*
X45807175Y-45542686D01*
X45646761Y-45494025D01*
X45646759Y-45494024D01*
X45646756Y-45494023D01*
X45498922Y-45415005D01*
X45369341Y-45308659D01*
X45262995Y-45179078D01*
X45183977Y-45031244D01*
X45180991Y-45021400D01*
X45135314Y-44870825D01*
X45135314Y-44870824D01*
X45135313Y-44870821D01*
X45118883Y-44704000D01*
X45135313Y-44537179D01*
X45177432Y-44398331D01*
X45183975Y-44376761D01*
X45183976Y-44376759D01*
X45183977Y-44376756D01*
X45262995Y-44228922D01*
X45369341Y-44099341D01*
X45498922Y-43992995D01*
X45646756Y-43913977D01*
X45646759Y-43913976D01*
X45646761Y-43913975D01*
X45807175Y-43865314D01*
X45807176Y-43865314D01*
X45807179Y-43865313D01*
X45932196Y-43853000D01*
X46015804Y-43853000D01*
X46140821Y-43865313D01*
X46140821Y-43865313D01*
G37*
G36*
X171188677Y-42489085D02*
X171405972Y-42579091D01*
X171601531Y-42709760D01*
X171767840Y-42876069D01*
X171898509Y-43071628D01*
X171988515Y-43288923D01*
X172034400Y-43519601D01*
X172034400Y-43754799D01*
X171988515Y-43985477D01*
X171898509Y-44202772D01*
X171767840Y-44398331D01*
X171601531Y-44564640D01*
X171405972Y-44695309D01*
X171261864Y-44755000D01*
X171188677Y-44785315D01*
X170957999Y-44831200D01*
X170722801Y-44831200D01*
X170492123Y-44785315D01*
X170418936Y-44755000D01*
X170274828Y-44695309D01*
X170079269Y-44564640D01*
X169912960Y-44398331D01*
X169782291Y-44202772D01*
X169692285Y-43985477D01*
X169646400Y-43754799D01*
X169646400Y-43519601D01*
X169692285Y-43288923D01*
X169782291Y-43071628D01*
X169912960Y-42876069D01*
X170079269Y-42709760D01*
X170274828Y-42579091D01*
X170492123Y-42489085D01*
X170722801Y-42443200D01*
X170957999Y-42443200D01*
X171188677Y-42489085D01*
X171188677Y-42489085D01*
G37*
G36*
X113937077Y-42489085D02*
X114154372Y-42579091D01*
X114349931Y-42709760D01*
X114516240Y-42876069D01*
X114646909Y-43071628D01*
X114736915Y-43288923D01*
X114782800Y-43519601D01*
X114782800Y-43754799D01*
X114736915Y-43985477D01*
X114646909Y-44202772D01*
X114516240Y-44398331D01*
X114349931Y-44564640D01*
X114154372Y-44695309D01*
X114010264Y-44755000D01*
X113937077Y-44785315D01*
X113706399Y-44831200D01*
X113471201Y-44831200D01*
X113240523Y-44785315D01*
X113167336Y-44755000D01*
X113023228Y-44695309D01*
X112827669Y-44564640D01*
X112661360Y-44398331D01*
X112530691Y-44202772D01*
X112440685Y-43985477D01*
X112394800Y-43754799D01*
X112394800Y-43519601D01*
X112440685Y-43288923D01*
X112530691Y-43071628D01*
X112661360Y-42876069D01*
X112827669Y-42709760D01*
X113023228Y-42579091D01*
X113240523Y-42489085D01*
X113471201Y-42443200D01*
X113706399Y-42443200D01*
X113937077Y-42489085D01*
X113937077Y-42489085D01*
G37*
G36*
X266438677Y-42463685D02*
X266655972Y-42553691D01*
X266851531Y-42684360D01*
X267017840Y-42850669D01*
X267148509Y-43046228D01*
X267238515Y-43263523D01*
X267284400Y-43494201D01*
X267284400Y-43729399D01*
X267238515Y-43960077D01*
X267148509Y-44177372D01*
X267017840Y-44372931D01*
X266851531Y-44539240D01*
X266655972Y-44669909D01*
X266438677Y-44759915D01*
X266207999Y-44805800D01*
X265972801Y-44805800D01*
X265742123Y-44759915D01*
X265524828Y-44669909D01*
X265329269Y-44539240D01*
X265162960Y-44372931D01*
X265032291Y-44177372D01*
X264942285Y-43960077D01*
X264896400Y-43729399D01*
X264896400Y-43494201D01*
X264942285Y-43263523D01*
X265032291Y-43046228D01*
X265162960Y-42850669D01*
X265329269Y-42684360D01*
X265524828Y-42553691D01*
X265742123Y-42463685D01*
X265972801Y-42417800D01*
X266207999Y-42417800D01*
X266438677Y-42463685D01*
X266438677Y-42463685D01*
G37*
G36*
X247363277Y-42463685D02*
X247580572Y-42553691D01*
X247776131Y-42684360D01*
X247942440Y-42850669D01*
X248073109Y-43046228D01*
X248163115Y-43263523D01*
X248209000Y-43494201D01*
X248209000Y-43729399D01*
X248163115Y-43960077D01*
X248073109Y-44177372D01*
X247942440Y-44372931D01*
X247776131Y-44539240D01*
X247580572Y-44669909D01*
X247424598Y-44734515D01*
X247363277Y-44759915D01*
X247132599Y-44805800D01*
X246897401Y-44805800D01*
X246666723Y-44759915D01*
X246605402Y-44734515D01*
X246449428Y-44669909D01*
X246253869Y-44539240D01*
X246087560Y-44372931D01*
X245956891Y-44177372D01*
X245866885Y-43960077D01*
X245821000Y-43729399D01*
X245821000Y-43494201D01*
X245866885Y-43263523D01*
X245956891Y-43046228D01*
X246087560Y-42850669D01*
X246253869Y-42684360D01*
X246449428Y-42553691D01*
X246666723Y-42463685D01*
X246897401Y-42417800D01*
X247132599Y-42417800D01*
X247363277Y-42463685D01*
X247363277Y-42463685D01*
G37*
G36*
X75913277Y-42463685D02*
X76130572Y-42553691D01*
X76326131Y-42684360D01*
X76492440Y-42850669D01*
X76623109Y-43046228D01*
X76713115Y-43263523D01*
X76759000Y-43494201D01*
X76759000Y-43729399D01*
X76713115Y-43960077D01*
X76623109Y-44177372D01*
X76492440Y-44372931D01*
X76326131Y-44539240D01*
X76130572Y-44669909D01*
X75974598Y-44734515D01*
X75913277Y-44759915D01*
X75682599Y-44805800D01*
X75447401Y-44805800D01*
X75216723Y-44759915D01*
X75155402Y-44734515D01*
X74999428Y-44669909D01*
X74803869Y-44539240D01*
X74637560Y-44372931D01*
X74506891Y-44177372D01*
X74416885Y-43960077D01*
X74371000Y-43729399D01*
X74371000Y-43494201D01*
X74416885Y-43263523D01*
X74506891Y-43046228D01*
X74637560Y-42850669D01*
X74803869Y-42684360D01*
X74999428Y-42553691D01*
X75216723Y-42463685D01*
X75447401Y-42417800D01*
X75682599Y-42417800D01*
X75913277Y-42463685D01*
X75913277Y-42463685D01*
G37*
G36*
X56787077Y-42463685D02*
X57004372Y-42553691D01*
X57199931Y-42684360D01*
X57366240Y-42850669D01*
X57496909Y-43046228D01*
X57586915Y-43263523D01*
X57632800Y-43494201D01*
X57632800Y-43729399D01*
X57586915Y-43960077D01*
X57496909Y-44177372D01*
X57366240Y-44372931D01*
X57199931Y-44539240D01*
X57004372Y-44669909D01*
X56787077Y-44759915D01*
X56556399Y-44805800D01*
X56321201Y-44805800D01*
X56090523Y-44759915D01*
X55873228Y-44669909D01*
X55677669Y-44539240D01*
X55511360Y-44372931D01*
X55380691Y-44177372D01*
X55290685Y-43960077D01*
X55244800Y-43729399D01*
X55244800Y-43494201D01*
X55290685Y-43263523D01*
X55380691Y-43046228D01*
X55511360Y-42850669D01*
X55677669Y-42684360D01*
X55873228Y-42553691D01*
X56090523Y-42463685D01*
X56321201Y-42417800D01*
X56556399Y-42417800D01*
X56787077Y-42463685D01*
X56787077Y-42463685D01*
G37*
G36*
X152087877Y-42438285D02*
X152305172Y-42528291D01*
X152500731Y-42658960D01*
X152667040Y-42825269D01*
X152797709Y-43020828D01*
X152887715Y-43238123D01*
X152933600Y-43468801D01*
X152933600Y-43703999D01*
X152887715Y-43934677D01*
X152797709Y-44151972D01*
X152667040Y-44347531D01*
X152500731Y-44513840D01*
X152305172Y-44644509D01*
X152182529Y-44695309D01*
X152087877Y-44734515D01*
X151857199Y-44780400D01*
X151622001Y-44780400D01*
X151391323Y-44734515D01*
X151296671Y-44695309D01*
X151174028Y-44644509D01*
X150978469Y-44513840D01*
X150812160Y-44347531D01*
X150681491Y-44151972D01*
X150591485Y-43934677D01*
X150545600Y-43703999D01*
X150545600Y-43468801D01*
X150591485Y-43238123D01*
X150681491Y-43020828D01*
X150812160Y-42825269D01*
X150978469Y-42658960D01*
X151174028Y-42528291D01*
X151391323Y-42438285D01*
X151622001Y-42392400D01*
X151857199Y-42392400D01*
X152087877Y-42438285D01*
X152087877Y-42438285D01*
G37*
G36*
X228313277Y-42438285D02*
X228530572Y-42528291D01*
X228726131Y-42658960D01*
X228892440Y-42825269D01*
X229023109Y-43020828D01*
X229113115Y-43238123D01*
X229159000Y-43468801D01*
X229159000Y-43703999D01*
X229113115Y-43934677D01*
X229023109Y-44151972D01*
X228892440Y-44347531D01*
X228726131Y-44513840D01*
X228530572Y-44644509D01*
X228407929Y-44695309D01*
X228313277Y-44734515D01*
X228082599Y-44780400D01*
X227847401Y-44780400D01*
X227616723Y-44734515D01*
X227522071Y-44695309D01*
X227399428Y-44644509D01*
X227203869Y-44513840D01*
X227037560Y-44347531D01*
X226906891Y-44151972D01*
X226816885Y-43934677D01*
X226771000Y-43703999D01*
X226771000Y-43468801D01*
X226816885Y-43238123D01*
X226906891Y-43020828D01*
X227037560Y-42825269D01*
X227203869Y-42658960D01*
X227399428Y-42528291D01*
X227616723Y-42438285D01*
X227847401Y-42392400D01*
X228082599Y-42392400D01*
X228313277Y-42438285D01*
X228313277Y-42438285D01*
G37*
G36*
X209263277Y-42438285D02*
X209480572Y-42528291D01*
X209676131Y-42658960D01*
X209842440Y-42825269D01*
X209973109Y-43020828D01*
X210063115Y-43238123D01*
X210109000Y-43468801D01*
X210109000Y-43703999D01*
X210063115Y-43934677D01*
X209973109Y-44151972D01*
X209842440Y-44347531D01*
X209676131Y-44513840D01*
X209480572Y-44644509D01*
X209357929Y-44695309D01*
X209263277Y-44734515D01*
X209032599Y-44780400D01*
X208797401Y-44780400D01*
X208566723Y-44734515D01*
X208472071Y-44695309D01*
X208349428Y-44644509D01*
X208153869Y-44513840D01*
X207987560Y-44347531D01*
X207856891Y-44151972D01*
X207766885Y-43934677D01*
X207721000Y-43703999D01*
X207721000Y-43468801D01*
X207766885Y-43238123D01*
X207856891Y-43020828D01*
X207987560Y-42825269D01*
X208153869Y-42658960D01*
X208349428Y-42528291D01*
X208566723Y-42438285D01*
X208797401Y-42392400D01*
X209032599Y-42392400D01*
X209263277Y-42438285D01*
X209263277Y-42438285D01*
G37*
G36*
X132987077Y-42412885D02*
X133204372Y-42502891D01*
X133399931Y-42633560D01*
X133566240Y-42799869D01*
X133696909Y-42995428D01*
X133786915Y-43212723D01*
X133832800Y-43443401D01*
X133832800Y-43678599D01*
X133786915Y-43909277D01*
X133696909Y-44126572D01*
X133566240Y-44322131D01*
X133399931Y-44488440D01*
X133204372Y-44619109D01*
X133081729Y-44669909D01*
X132987077Y-44709115D01*
X132756399Y-44755000D01*
X132521201Y-44755000D01*
X132290523Y-44709115D01*
X132195871Y-44669909D01*
X132073228Y-44619109D01*
X131877669Y-44488440D01*
X131711360Y-44322131D01*
X131580691Y-44126572D01*
X131490685Y-43909277D01*
X131444800Y-43678599D01*
X131444800Y-43443401D01*
X131490685Y-43212723D01*
X131580691Y-42995428D01*
X131711360Y-42799869D01*
X131877669Y-42633560D01*
X132073228Y-42502891D01*
X132290523Y-42412885D01*
X132521201Y-42367000D01*
X132756399Y-42367000D01*
X132987077Y-42412885D01*
X132987077Y-42412885D01*
G37*
G36*
X37762477Y-42412885D02*
X37979772Y-42502891D01*
X38175331Y-42633560D01*
X38341640Y-42799869D01*
X38472309Y-42995428D01*
X38562315Y-43212723D01*
X38608200Y-43443401D01*
X38608200Y-43678599D01*
X38562315Y-43909277D01*
X38472309Y-44126572D01*
X38341640Y-44322131D01*
X38175331Y-44488440D01*
X37979772Y-44619109D01*
X37762477Y-44709115D01*
X37531799Y-44755000D01*
X37296601Y-44755000D01*
X37065923Y-44709115D01*
X36848628Y-44619109D01*
X36653069Y-44488440D01*
X36486760Y-44322131D01*
X36356091Y-44126572D01*
X36266085Y-43909277D01*
X36220200Y-43678599D01*
X36220200Y-43443401D01*
X36266085Y-43212723D01*
X36356091Y-42995428D01*
X36486760Y-42799869D01*
X36653069Y-42633560D01*
X36848628Y-42502891D01*
X37065923Y-42412885D01*
X37296601Y-42367000D01*
X37531799Y-42367000D01*
X37762477Y-42412885D01*
X37762477Y-42412885D01*
G37*
G36*
X190187877Y-42412885D02*
X190405172Y-42502891D01*
X190600731Y-42633560D01*
X190767040Y-42799869D01*
X190897709Y-42995428D01*
X190987715Y-43212723D01*
X191033600Y-43443401D01*
X191033600Y-43678599D01*
X190987715Y-43909277D01*
X190897709Y-44126572D01*
X190767040Y-44322131D01*
X190600731Y-44488440D01*
X190405172Y-44619109D01*
X190187877Y-44709115D01*
X189957199Y-44755000D01*
X189722001Y-44755000D01*
X189491323Y-44709115D01*
X189274028Y-44619109D01*
X189078469Y-44488440D01*
X188912160Y-44322131D01*
X188781491Y-44126572D01*
X188691485Y-43909277D01*
X188645600Y-43678599D01*
X188645600Y-43443401D01*
X188691485Y-43212723D01*
X188781491Y-42995428D01*
X188912160Y-42799869D01*
X189078469Y-42633560D01*
X189274028Y-42502891D01*
X189491323Y-42412885D01*
X189722001Y-42367000D01*
X189957199Y-42367000D01*
X190187877Y-42412885D01*
X190187877Y-42412885D01*
G37*
G36*
X94963277Y-42336685D02*
X95180572Y-42426691D01*
X95376131Y-42557360D01*
X95542440Y-42723669D01*
X95673109Y-42919228D01*
X95763115Y-43136523D01*
X95809000Y-43367201D01*
X95809000Y-43602399D01*
X95763115Y-43833077D01*
X95673109Y-44050372D01*
X95542440Y-44245931D01*
X95376131Y-44412240D01*
X95180572Y-44542909D01*
X95128108Y-44564640D01*
X94963277Y-44632915D01*
X94732599Y-44678800D01*
X94497401Y-44678800D01*
X94266723Y-44632915D01*
X94101892Y-44564640D01*
X94049428Y-44542909D01*
X93853869Y-44412240D01*
X93687560Y-44245931D01*
X93556891Y-44050372D01*
X93466885Y-43833077D01*
X93421000Y-43602399D01*
X93421000Y-43367201D01*
X93466885Y-43136523D01*
X93556891Y-42919228D01*
X93687560Y-42723669D01*
X93853869Y-42557360D01*
X94049428Y-42426691D01*
X94266723Y-42336685D01*
X94497401Y-42290800D01*
X94732599Y-42290800D01*
X94963277Y-42336685D01*
X94963277Y-42336685D01*
G37*
M02*
