%TF.GenerationSoftware,KiCad,Pcbnew,(5.0.2)-1*%
%TF.CreationDate,2019-02-24T15:28:46-05:00*%
%TF.ProjectId,TG4x,54473478-2e6b-4696-9361-645f70636258,rev?*%
%TF.SameCoordinates,Original*%
%TF.FileFunction,Copper,L2,Bot*%
%TF.FilePolarity,Positive*%
%FSLAX46Y46*%
G04 Gerber Fmt 4.6, Leading zero omitted, Abs format (unit mm)*
G04 Created by KiCad (PCBNEW (5.0.2)-1) date 2/24/2019 3:28:46 PM*
%MOMM*%
%LPD*%
G01*
G04 APERTURE LIST*
%ADD10C,0.150000*%
%ADD11C,2.286000*%
%ADD12C,2.000000*%
%ADD13R,1.752600X1.752600*%
%ADD14C,1.752600*%
%ADD15R,1.600000X1.600000*%
%ADD16O,1.600000X1.600000*%
%ADD17R,1.500000X1.000000*%
%ADD18C,0.800000*%
%ADD19C,0.250000*%
G04 APERTURE END LIST*
D10*
X27432000Y-41656000D02*
X270510000Y-41656000D01*
X270510000Y-41656000D02*
X272796000Y-43942000D01*
X27559000Y-112395000D02*
X270510000Y-112395000D01*
X270510000Y-112395000D02*
X272796000Y-110236000D01*
X25146000Y-43942000D02*
X27432000Y-41656000D01*
X27559000Y-112395000D02*
X25146000Y-109982000D01*
X25146000Y-109982000D02*
X25146000Y-43942000D01*
X272796000Y-43942000D02*
X272796000Y-110236000D01*
D11*
X56438800Y-43611800D03*
X50088800Y-46151800D03*
X94615000Y-43484800D03*
X88265000Y-46024800D03*
X151739600Y-43586400D03*
X145389600Y-46126400D03*
X132638800Y-43561000D03*
X126288800Y-46101000D03*
X227965000Y-43586400D03*
X221615000Y-46126400D03*
X37084000Y-100584000D03*
X30734000Y-103124000D03*
X246888000Y-100584000D03*
X240538000Y-103124000D03*
D12*
X28520000Y-77914500D03*
X33020000Y-77914500D03*
X28520000Y-84414500D03*
X33020000Y-84414500D03*
D13*
X28956000Y-59461400D03*
D14*
X31496000Y-59918600D03*
X34036000Y-59461400D03*
X36576000Y-59918600D03*
X39116000Y-59461400D03*
X41656000Y-59918600D03*
X44196000Y-59461400D03*
X46736000Y-59918600D03*
X49276000Y-59461400D03*
X51816000Y-59918600D03*
X54356000Y-59461400D03*
X56896000Y-74701400D03*
X54356000Y-75158600D03*
X51816000Y-74701400D03*
X49276000Y-75158600D03*
X46736000Y-74701400D03*
X44196000Y-75158600D03*
X41656000Y-74701400D03*
X39116000Y-75158600D03*
X36576000Y-74701400D03*
X34036000Y-75158600D03*
X31496000Y-74701400D03*
X56896000Y-59918600D03*
X28956000Y-75158600D03*
D11*
X141986000Y-100584000D03*
X135636000Y-103124000D03*
X80314800Y-62560200D03*
X73964800Y-65100200D03*
X70612000Y-81534000D03*
X64262000Y-84074000D03*
X61239400Y-62560200D03*
X54889400Y-65100200D03*
X263398000Y-81534000D03*
X257048000Y-84074000D03*
X258826000Y-62484000D03*
X252476000Y-65024000D03*
X39370000Y-62230000D03*
X33020000Y-64770000D03*
X37846000Y-84074000D03*
X44196000Y-81534000D03*
X194640200Y-62661800D03*
X188290200Y-65201800D03*
X89662000Y-81534000D03*
X83312000Y-84074000D03*
X232740200Y-62661800D03*
X226390200Y-65201800D03*
X137464800Y-62636400D03*
X131114800Y-65176400D03*
X108712000Y-81534000D03*
X102362000Y-84074000D03*
X99364800Y-62712600D03*
X93014800Y-65252600D03*
X127762000Y-81534000D03*
X121412000Y-84074000D03*
X146812000Y-81534000D03*
X140462000Y-84074000D03*
X227838000Y-100584000D03*
X221488000Y-103124000D03*
X175564800Y-62687200D03*
X169214800Y-65227200D03*
X208915000Y-43586400D03*
X202565000Y-46126400D03*
X75565000Y-43611800D03*
X69215000Y-46151800D03*
X208788000Y-100584000D03*
X202438000Y-103124000D03*
X118440200Y-62611000D03*
X112090200Y-65151000D03*
X203962000Y-81534000D03*
X197612000Y-84074000D03*
X113588800Y-43637200D03*
X107238800Y-46177200D03*
X184912000Y-81534000D03*
X178562000Y-84074000D03*
X75184000Y-100584000D03*
X68834000Y-103124000D03*
X223012000Y-81534000D03*
X216662000Y-84074000D03*
X156514800Y-62661800D03*
X150164800Y-65201800D03*
X37414200Y-43561000D03*
X31064200Y-46101000D03*
X170840400Y-43637200D03*
X164490400Y-46177200D03*
X189839600Y-43561000D03*
X183489600Y-46101000D03*
X247015000Y-43611800D03*
X240665000Y-46151800D03*
X165862000Y-81534000D03*
X159512000Y-84074000D03*
X213690200Y-62611000D03*
X207340200Y-65151000D03*
X242062000Y-81534000D03*
X235712000Y-84074000D03*
X266090400Y-43611800D03*
X259740400Y-46151800D03*
X265938000Y-100584000D03*
X259588000Y-103124000D03*
X56134000Y-100584000D03*
X49784000Y-103124000D03*
D15*
X50292000Y-70612000D03*
D16*
X50292000Y-62992000D03*
X230733600Y-84099400D03*
D15*
X230733600Y-91719400D03*
X43180000Y-52324000D03*
D16*
X43180000Y-44704000D03*
D15*
X61849000Y-110617000D03*
D16*
X61849000Y-102997000D03*
D15*
X59258200Y-91541600D03*
D16*
X59258200Y-83921600D03*
X64236600Y-102997000D03*
D15*
X64236600Y-110617000D03*
D16*
X29464000Y-96266000D03*
D15*
X29464000Y-88646000D03*
D16*
X251993400Y-83921600D03*
D15*
X251993400Y-91541600D03*
D16*
X246913400Y-64947800D03*
D15*
X246913400Y-72567800D03*
X221183200Y-72567800D03*
D16*
X221183200Y-64947800D03*
D15*
X33274000Y-95694500D03*
D16*
X33274000Y-88074500D03*
X45974000Y-44704000D03*
D15*
X45974000Y-52324000D03*
D16*
X47244000Y-70612000D03*
D15*
X47244000Y-62992000D03*
X63500000Y-53467000D03*
D16*
X63500000Y-45847000D03*
X68681600Y-65176400D03*
D15*
X68681600Y-72796400D03*
X82727800Y-53467000D03*
D16*
X82727800Y-45847000D03*
D15*
X97637600Y-91643200D03*
D16*
X97637600Y-84023200D03*
X101828600Y-45897800D03*
D15*
X101828600Y-53517800D03*
X106705400Y-72593200D03*
D16*
X106705400Y-64973200D03*
X116636800Y-84251800D03*
D15*
X116636800Y-91871800D03*
X121005600Y-53492400D03*
D16*
X121005600Y-45872400D03*
X130556000Y-103124000D03*
D15*
X130556000Y-110744000D03*
D16*
X78003400Y-83997800D03*
D15*
X78003400Y-91617800D03*
X140030200Y-53594000D03*
D16*
X140030200Y-45974000D03*
X87884000Y-64922400D03*
D15*
X87884000Y-72542400D03*
X154305000Y-91617800D03*
D16*
X154305000Y-83997800D03*
X159232600Y-45897800D03*
D15*
X159232600Y-53517800D03*
D16*
X126111000Y-61595000D03*
D15*
X126111000Y-69215000D03*
X135509000Y-91694000D03*
D16*
X135509000Y-84074000D03*
D15*
X163931600Y-72618600D03*
D16*
X163931600Y-64998600D03*
X173507400Y-84074000D03*
D15*
X173507400Y-91694000D03*
D16*
X144856200Y-64973200D03*
D15*
X144856200Y-72593200D03*
D16*
X216331800Y-103124000D03*
D15*
X216331800Y-110744000D03*
X215849200Y-53390800D03*
D16*
X215849200Y-45770800D03*
D15*
X192405000Y-91871800D03*
D16*
X192405000Y-84251800D03*
D15*
X178460400Y-53492400D03*
D16*
X178460400Y-45872400D03*
X202209400Y-64998600D03*
D15*
X202209400Y-72618600D03*
D16*
X197485000Y-45923200D03*
D15*
X197485000Y-53543200D03*
X183388000Y-69342000D03*
D16*
X183388000Y-61722000D03*
D15*
X211759800Y-91592400D03*
D16*
X211759800Y-83972400D03*
X197129400Y-102997000D03*
D15*
X197129400Y-110617000D03*
D17*
X126656000Y-104318000D03*
X126656000Y-107518000D03*
X121756000Y-104318000D03*
X121756000Y-107518000D03*
X237109000Y-104076500D03*
X237109000Y-107276500D03*
X232209000Y-104076500D03*
X232209000Y-107276500D03*
X194474000Y-104496000D03*
X194474000Y-107696000D03*
X189574000Y-104496000D03*
X189574000Y-107696000D03*
X46418500Y-104115000D03*
X46418500Y-107315000D03*
X41518500Y-104115000D03*
X41518500Y-107315000D03*
X151982000Y-107518000D03*
X151982000Y-104318000D03*
X156882000Y-107518000D03*
X156882000Y-104318000D03*
X82640000Y-107442000D03*
X82640000Y-104242000D03*
X87540000Y-107442000D03*
X87540000Y-104242000D03*
D15*
X235483400Y-53543200D03*
D16*
X235483400Y-45923200D03*
D15*
X255143000Y-110744000D03*
D16*
X255143000Y-103124000D03*
D15*
X254457200Y-53365400D03*
D16*
X254457200Y-45745400D03*
X252666500Y-103124000D03*
D15*
X252666500Y-110744000D03*
D18*
X56388000Y-90030000D03*
X38862000Y-76962000D03*
X50800000Y-90424000D03*
X81026000Y-102616000D03*
X44984500Y-106299000D03*
X48768000Y-90424000D03*
X41910000Y-98552000D03*
D19*
X30759400Y-102997000D02*
X30810200Y-102946200D01*
X44323000Y-93243400D02*
X37160200Y-100406200D01*
X44323000Y-81356200D02*
X44323000Y-93243400D01*
X40530999Y-77564199D02*
X44323000Y-81356200D01*
X37846000Y-60604400D02*
X39547800Y-62306200D01*
X37701001Y-59265675D02*
X37846000Y-59410674D01*
X37846000Y-59410674D02*
X37846000Y-60604400D01*
X37701001Y-45403435D02*
X37701001Y-59265675D01*
X37160200Y-44862634D02*
X37701001Y-45403435D01*
X37160200Y-43307000D02*
X37160200Y-44862634D01*
X40454699Y-77487899D02*
X40530999Y-77564199D01*
X40454699Y-64931145D02*
X40454699Y-77487899D01*
X39370000Y-63846446D02*
X40454699Y-64931145D01*
X39370000Y-62230000D02*
X39370000Y-63846446D01*
X58204798Y-98386202D02*
X56197500Y-100393500D01*
X59436000Y-98386202D02*
X58204798Y-98386202D01*
X62445202Y-95377000D02*
X59436000Y-98386202D01*
X70510400Y-81330800D02*
X70510400Y-88480900D01*
X70510400Y-88480900D02*
X63614300Y-95377000D01*
X63614300Y-95377000D02*
X62445202Y-95377000D01*
X61239400Y-72161400D02*
X70612000Y-81534000D01*
X61239400Y-62560200D02*
X61239400Y-72161400D01*
X61239400Y-48412400D02*
X61239400Y-62560200D01*
X56184800Y-43357800D02*
X61239400Y-48412400D01*
X89585800Y-82911834D02*
X89458800Y-83038834D01*
X89585800Y-81356200D02*
X89585800Y-82911834D01*
X76815834Y-100406200D02*
X75260200Y-100406200D01*
X89458800Y-87763234D02*
X76815834Y-100406200D01*
X89458800Y-83038834D02*
X89458800Y-87763234D01*
X76707999Y-44754799D02*
X76707999Y-57149999D01*
X75565000Y-43611800D02*
X76707999Y-44754799D01*
X80314800Y-72085200D02*
X84874100Y-76644500D01*
X80314800Y-62560200D02*
X80314800Y-72085200D01*
X89585800Y-81356200D02*
X84874100Y-76644500D01*
X76707999Y-57149999D02*
X80314800Y-60756800D01*
X80314800Y-60756800D02*
X80314800Y-62560200D01*
X99364800Y-72161400D02*
X103632000Y-76428600D01*
X99364800Y-62712600D02*
X99364800Y-72161400D01*
X103632000Y-76428600D02*
X108635800Y-81432400D01*
X94615000Y-45101246D02*
X95123000Y-45609246D01*
X94615000Y-43484800D02*
X94615000Y-45101246D01*
X95123000Y-58470800D02*
X99364800Y-62712600D01*
X95123000Y-45609246D02*
X95123000Y-58470800D01*
X113588800Y-45253646D02*
X113864654Y-45529500D01*
X113588800Y-43637200D02*
X113588800Y-45253646D01*
X113864654Y-58035454D02*
X118440200Y-62611000D01*
X113864654Y-45529500D02*
X113864654Y-58035454D01*
X119189500Y-72961500D02*
X127762000Y-81534000D01*
X119189500Y-66294000D02*
X119189500Y-72961500D01*
X118440200Y-62611000D02*
X118440200Y-65544700D01*
X118440200Y-65544700D02*
X119189500Y-66294000D01*
X142577999Y-97350401D02*
X146710400Y-93218000D01*
X142577999Y-99433201D02*
X142577999Y-97350401D01*
X141478000Y-100533200D02*
X142577999Y-99433201D01*
X146710400Y-81432400D02*
X146710400Y-93218000D01*
X132638800Y-45177446D02*
X133223000Y-45761646D01*
X132638800Y-43561000D02*
X132638800Y-45177446D01*
X133223000Y-58394600D02*
X137464800Y-62636400D01*
X133223000Y-45761646D02*
X133223000Y-58394600D01*
X137464800Y-64252846D02*
X138049000Y-64837046D01*
X137464800Y-62636400D02*
X137464800Y-64252846D01*
X138049000Y-72771000D02*
X146812000Y-81534000D01*
X138049000Y-64837046D02*
X138049000Y-72771000D01*
X151739600Y-45202846D02*
X152273000Y-45736246D01*
X151739600Y-43586400D02*
X151739600Y-45202846D01*
X152273000Y-58420000D02*
X156514800Y-62661800D01*
X152273000Y-45736246D02*
X152273000Y-58420000D01*
X156514800Y-62661800D02*
X156514800Y-65328800D01*
X156514800Y-65328800D02*
X157226000Y-66040000D01*
X157226000Y-72898000D02*
X165862000Y-81534000D01*
X157226000Y-66040000D02*
X157226000Y-72898000D01*
X170840400Y-45253646D02*
X171640500Y-46053746D01*
X170840400Y-43637200D02*
X170840400Y-45253646D01*
X171640500Y-58762900D02*
X175564800Y-62687200D01*
X171640500Y-46053746D02*
X171640500Y-58762900D01*
X175564800Y-64303646D02*
X175904154Y-64643000D01*
X175564800Y-62687200D02*
X175564800Y-64303646D01*
X175904154Y-72526154D02*
X184912000Y-81534000D01*
X175904154Y-64643000D02*
X175904154Y-72526154D01*
X208661000Y-86156800D02*
X203936600Y-81432400D01*
X208661000Y-100457000D02*
X208661000Y-86156800D01*
X189839600Y-45177446D02*
X190436500Y-45774346D01*
X189839600Y-43561000D02*
X189839600Y-45177446D01*
X190436500Y-58458100D02*
X194640200Y-62661800D01*
X190436500Y-45774346D02*
X190436500Y-58458100D01*
X194640200Y-64278246D02*
X195199000Y-64837046D01*
X194640200Y-62661800D02*
X194640200Y-64278246D01*
X195199000Y-72771000D02*
X203962000Y-81534000D01*
X195199000Y-64837046D02*
X195199000Y-72771000D01*
X222961200Y-95808800D02*
X227660200Y-100507800D01*
X222961200Y-81407000D02*
X222961200Y-95808800D01*
X208915000Y-45202846D02*
X209296000Y-45583846D01*
X208915000Y-43586400D02*
X208915000Y-45202846D01*
X209296000Y-58216800D02*
X213690200Y-62611000D01*
X209296000Y-45583846D02*
X209296000Y-58216800D01*
X213690200Y-64227446D02*
X214122000Y-64659246D01*
X213690200Y-62611000D02*
X213690200Y-64227446D01*
X214122000Y-72644000D02*
X223012000Y-81534000D01*
X214122000Y-64659246D02*
X214122000Y-72644000D01*
X242036600Y-95758000D02*
X242036600Y-81483200D01*
X246786400Y-100507800D02*
X242036600Y-95758000D01*
X232486200Y-48107600D02*
X227711000Y-43332400D01*
X232486200Y-62407800D02*
X232486200Y-48107600D01*
X242036600Y-81483200D02*
X242036600Y-71958200D01*
X242036600Y-71958200D02*
X232486200Y-62407800D01*
X246761000Y-43357800D02*
X258673600Y-55270400D01*
X263423400Y-98018600D02*
X265887200Y-100482400D01*
X263423400Y-81407000D02*
X263423400Y-98018600D01*
X258673600Y-62382400D02*
X258673600Y-76657200D01*
X258673600Y-55270400D02*
X258673600Y-62382400D01*
X258673600Y-76657200D02*
X263423400Y-81407000D01*
X56388000Y-90030000D02*
X56388000Y-90030000D01*
X82640000Y-108192000D02*
X83668000Y-109220000D01*
X82640000Y-107442000D02*
X82640000Y-108192000D01*
X187352000Y-109220000D02*
X185166000Y-109220000D01*
X147828000Y-109220000D02*
X185166000Y-109220000D01*
X119026000Y-109220000D02*
X117348000Y-109220000D01*
X83668000Y-109220000D02*
X117348000Y-109220000D01*
X119812000Y-107518000D02*
X121756000Y-107518000D01*
X118110000Y-109220000D02*
X119812000Y-107518000D01*
X117348000Y-109220000D02*
X118110000Y-109220000D01*
X148768000Y-107518000D02*
X151982000Y-107518000D01*
X147066000Y-109220000D02*
X148768000Y-107518000D01*
X147066000Y-109220000D02*
X147828000Y-109220000D01*
X118110000Y-109220000D02*
X147066000Y-109220000D01*
X188800000Y-109220000D02*
X187198000Y-109220000D01*
X189574000Y-108446000D02*
X188800000Y-109220000D01*
X189574000Y-107696000D02*
X189574000Y-108446000D01*
X185166000Y-109220000D02*
X187198000Y-109220000D01*
X80010000Y-106172000D02*
X77724000Y-108458000D01*
X80010000Y-104902000D02*
X80010000Y-106172000D01*
X81788000Y-103124000D02*
X80010000Y-104902000D01*
X82640000Y-106692000D02*
X83715001Y-105616999D01*
X83357002Y-103124000D02*
X81788000Y-103124000D01*
X82640000Y-107442000D02*
X82640000Y-106692000D01*
X83715001Y-105616999D02*
X83867001Y-105616999D01*
X83867001Y-105616999D02*
X84582000Y-104902000D01*
X84582000Y-104902000D02*
X84582000Y-104348998D01*
X84582000Y-104348998D02*
X83357002Y-103124000D01*
X62992000Y-108458000D02*
X62992000Y-106426000D01*
X77724000Y-108458000D02*
X62992000Y-108458000D01*
X59944000Y-103378000D02*
X57072998Y-103378000D01*
X62992000Y-106426000D02*
X59944000Y-103378000D01*
X54672000Y-102362000D02*
X53594000Y-101284000D01*
X56056998Y-102362000D02*
X54672000Y-102362000D01*
X57072998Y-103378000D02*
X56056998Y-102362000D01*
X231209000Y-107276500D02*
X232209000Y-107276500D01*
X229265500Y-109220000D02*
X231209000Y-107276500D01*
X187198000Y-109220000D02*
X229265500Y-109220000D01*
X41518500Y-106565000D02*
X41518500Y-107315000D01*
X45974000Y-102109500D02*
X41518500Y-106565000D01*
X45974000Y-101284000D02*
X45974000Y-102109500D01*
X53594000Y-101284000D02*
X45974000Y-101284000D01*
X55822315Y-90030000D02*
X56388000Y-90030000D01*
X54688000Y-90030000D02*
X55822315Y-90030000D01*
X45974000Y-98744000D02*
X54688000Y-90030000D01*
X45974000Y-101284000D02*
X45974000Y-98744000D01*
X33972500Y-76962000D02*
X33020000Y-77914500D01*
X38862000Y-76962000D02*
X33972500Y-76962000D01*
X50800000Y-90424000D02*
X50800000Y-90424000D01*
X50800000Y-90424000D02*
X50800000Y-91718000D01*
X50800000Y-90424000D02*
X50800000Y-90424000D01*
X41518500Y-100999500D02*
X42378500Y-100139500D01*
X41518500Y-104115000D02*
X41518500Y-100999500D01*
X50800000Y-91718000D02*
X42378500Y-100139500D01*
X81026000Y-102616000D02*
X82296000Y-101346000D01*
X87540000Y-102706000D02*
X88900000Y-101346000D01*
X87540000Y-104242000D02*
X87540000Y-102706000D01*
X88900000Y-101346000D02*
X82296000Y-101346000D01*
X130048000Y-101346000D02*
X88900000Y-101346000D01*
X126906000Y-104318000D02*
X126656000Y-104318000D01*
X129878000Y-101346000D02*
X126906000Y-104318000D01*
X130302000Y-101346000D02*
X129878000Y-101346000D01*
X130302000Y-101346000D02*
X130048000Y-101346000D01*
X156882000Y-102526000D02*
X156882000Y-104318000D01*
X155702000Y-101346000D02*
X156882000Y-102526000D01*
X154686000Y-101346000D02*
X155702000Y-101346000D01*
X192074000Y-101346000D02*
X191770000Y-101346000D01*
X194474000Y-103746000D02*
X192074000Y-101346000D01*
X194474000Y-104496000D02*
X194474000Y-103746000D01*
X155702000Y-101346000D02*
X191770000Y-101346000D01*
X138176000Y-101346000D02*
X138684000Y-101346000D01*
X138176000Y-101346000D02*
X130302000Y-101346000D01*
X138684000Y-101346000D02*
X140462000Y-103124000D01*
X143002000Y-103124000D02*
X144780000Y-101346000D01*
X140462000Y-103124000D02*
X143002000Y-103124000D01*
X144780000Y-101346000D02*
X154686000Y-101346000D01*
X236109000Y-104076500D02*
X237109000Y-104076500D01*
X234140500Y-102108000D02*
X236109000Y-104076500D01*
X227151398Y-102108000D02*
X234140500Y-102108000D01*
X191770000Y-101346000D02*
X206248000Y-101346000D01*
X206248000Y-101346000D02*
X207264000Y-102362000D01*
X207264000Y-102362000D02*
X210312000Y-102362000D01*
X210312000Y-102362000D02*
X211328000Y-101346000D01*
X211328000Y-101346000D02*
X226389398Y-101346000D01*
X226389398Y-101346000D02*
X227151398Y-102108000D01*
X46418500Y-104865000D02*
X46418500Y-104115000D01*
X44984500Y-106299000D02*
X46418500Y-104865000D01*
X48368001Y-90823999D02*
X48368001Y-92093999D01*
X48768000Y-90424000D02*
X48368001Y-90823999D01*
X48368001Y-92093999D02*
X41910000Y-98552000D01*
X41910000Y-98552000D02*
X41910000Y-98552000D01*
X76708000Y-108966000D02*
X80264000Y-108966000D01*
X76708000Y-108966000D02*
X76916000Y-108966000D01*
X82640000Y-104992000D02*
X82640000Y-104242000D01*
X80264000Y-107368000D02*
X82640000Y-104992000D01*
X80264000Y-108966000D02*
X80264000Y-107368000D01*
X47319500Y-108966000D02*
X48768000Y-108966000D01*
X46418500Y-108065000D02*
X47319500Y-108966000D01*
X46418500Y-107315000D02*
X46418500Y-108065000D01*
X48768000Y-108966000D02*
X76708000Y-108966000D01*
X120218000Y-104318000D02*
X121756000Y-104318000D01*
X117094000Y-107442000D02*
X120218000Y-104318000D01*
X87540000Y-107442000D02*
X117094000Y-107442000D01*
X128076201Y-107938201D02*
X130810000Y-107938201D01*
X127656000Y-107518000D02*
X128076201Y-107938201D01*
X126656000Y-107518000D02*
X127656000Y-107518000D01*
X129854201Y-107938201D02*
X130810000Y-107938201D01*
X128076201Y-107938201D02*
X135497201Y-107938201D01*
X135497201Y-107938201D02*
X136017000Y-108458000D01*
X150982000Y-104318000D02*
X151982000Y-104318000D01*
X146842000Y-108458000D02*
X150982000Y-104318000D01*
X136017000Y-108458000D02*
X146842000Y-108458000D01*
X157132000Y-107518000D02*
X156882000Y-107518000D01*
X158402000Y-106248000D02*
X157132000Y-107518000D01*
X188572000Y-106248000D02*
X158402000Y-106248000D01*
X189574000Y-105246000D02*
X188572000Y-106248000D01*
X189574000Y-104496000D02*
X189574000Y-105246000D01*
X196922000Y-107696000D02*
X194474000Y-107696000D01*
X229552500Y-104076500D02*
X228473000Y-105156000D01*
X232209000Y-104076500D02*
X229552500Y-104076500D01*
X228473000Y-105156000D02*
X228473000Y-107442000D01*
X228473000Y-107442000D02*
X227330000Y-108585000D01*
X227330000Y-108585000D02*
X197811000Y-108585000D01*
X197811000Y-108585000D02*
X196922000Y-107696000D01*
M02*
