G04 #@! TF.GenerationSoftware,KiCad,Pcbnew,(5.0.2)-1*
G04 #@! TF.CreationDate,2019-05-14T00:13:12-04:00*
G04 #@! TF.ProjectId,TG4x,54473478-2e6b-4696-9361-645f70636258,rev?*
G04 #@! TF.SameCoordinates,Original*
G04 #@! TF.FileFunction,Copper,L2,Bot*
G04 #@! TF.FilePolarity,Positive*
%FSLAX46Y46*%
G04 Gerber Fmt 4.6, Leading zero omitted, Abs format (unit mm)*
G04 Created by KiCad (PCBNEW (5.0.2)-1) date 5/14/2019 12:13:12 AM*
%MOMM*%
%LPD*%
G01*
G04 APERTURE LIST*
G04 #@! TA.AperFunction,ComponentPad*
%ADD10C,2.286000*%
G04 #@! TD*
G04 #@! TA.AperFunction,ComponentPad*
%ADD11R,1.752600X1.752600*%
G04 #@! TD*
G04 #@! TA.AperFunction,ComponentPad*
%ADD12C,1.752600*%
G04 #@! TD*
G04 #@! TA.AperFunction,ComponentPad*
%ADD13R,1.600000X1.600000*%
G04 #@! TD*
G04 #@! TA.AperFunction,ComponentPad*
%ADD14C,1.600000*%
G04 #@! TD*
G04 #@! TA.AperFunction,Conductor*
%ADD15R,2.900000X0.500000*%
G04 #@! TD*
G04 #@! TA.AperFunction,SMDPad,CuDef*
%ADD16R,1.600000X1.200000*%
G04 #@! TD*
G04 #@! TA.AperFunction,SMDPad,CuDef*
%ADD17R,1.500000X1.000000*%
G04 #@! TD*
G04 #@! TA.AperFunction,ComponentPad*
%ADD18C,2.000000*%
G04 #@! TD*
G04 #@! TA.AperFunction,ComponentPad*
%ADD19R,1.700000X1.700000*%
G04 #@! TD*
G04 #@! TA.AperFunction,ComponentPad*
%ADD20O,1.700000X1.700000*%
G04 #@! TD*
G04 #@! TA.AperFunction,ViaPad*
%ADD21C,0.800000*%
G04 #@! TD*
G04 #@! TA.AperFunction,Conductor*
%ADD22C,0.250000*%
G04 #@! TD*
G04 APERTURE END LIST*
D10*
G04 #@! TO.P,SW13,2*
G04 #@! TO.N,COL5*
X244017800Y-23609300D03*
G04 #@! TO.P,SW13,1*
G04 #@! TO.N,Net-(D13-Pad2)*
X237667800Y-26149300D03*
G04 #@! TD*
G04 #@! TO.P,225u,2*
G04 #@! TO.N,Net-(D37-Pad2)*
X241642900Y-61696600D03*
G04 #@! TO.P,225u,1*
G04 #@! TO.N,COL4*
X235292900Y-64236600D03*
G04 #@! TD*
G04 #@! TO.P,275u,2*
G04 #@! TO.N,Net-(D42-Pad2)*
X148297900Y-75717400D03*
G04 #@! TO.P,275u,1*
G04 #@! TO.N,COL5*
X154647900Y-73177400D03*
G04 #@! TD*
G04 #@! TO.P,225u,2*
G04 #@! TO.N,Net-(D41-Pad2)*
X100698300Y-75704700D03*
G04 #@! TO.P,225u,1*
G04 #@! TO.N,COL4*
X107048300Y-73164700D03*
G04 #@! TD*
G04 #@! TO.P,SW33,2*
G04 #@! TO.N,Net-(D33-Pad2)*
X164973000Y-56667400D03*
G04 #@! TO.P,SW33,1*
G04 #@! TO.N,COL0*
X171323000Y-54127400D03*
G04 #@! TD*
G04 #@! TO.P,SW27,2*
G04 #@! TO.N,Net-(D27-Pad2)*
X50698400Y-56642000D03*
G04 #@! TO.P,SW27,1*
G04 #@! TO.N,COL1*
X57048400Y-54102000D03*
G04 #@! TD*
G04 #@! TO.P,SW29,2*
G04 #@! TO.N,Net-(D29-Pad2)*
X88798400Y-56667400D03*
G04 #@! TO.P,SW29,1*
G04 #@! TO.N,COL3*
X95148400Y-54127400D03*
G04 #@! TD*
D11*
G04 #@! TO.P,U1,1*
G04 #@! TO.N,COL0*
X16814800Y-51892200D03*
D12*
G04 #@! TO.P,U1,2*
G04 #@! TO.N,LED*
X19354800Y-51892200D03*
G04 #@! TO.P,U1,3*
G04 #@! TO.N,GND*
X21894800Y-51892200D03*
G04 #@! TO.P,U1,4*
X24434800Y-51892200D03*
G04 #@! TO.P,U1,5*
G04 #@! TO.N,ROW7*
X26974800Y-51892200D03*
G04 #@! TO.P,U1,6*
G04 #@! TO.N,ROW6*
X29514800Y-51892200D03*
G04 #@! TO.P,U1,7*
G04 #@! TO.N,ROW5*
X32054800Y-51892200D03*
G04 #@! TO.P,U1,8*
G04 #@! TO.N,ROW4*
X34594800Y-51892200D03*
G04 #@! TO.P,U1,9*
G04 #@! TO.N,ROW3*
X37134800Y-51892200D03*
G04 #@! TO.P,U1,10*
G04 #@! TO.N,ROW2*
X39674800Y-51892200D03*
G04 #@! TO.P,U1,11*
G04 #@! TO.N,ROW1*
X42214800Y-51892200D03*
G04 #@! TO.P,U1,13*
G04 #@! TO.N,SDA*
X44754800Y-67132200D03*
G04 #@! TO.P,U1,14*
G04 #@! TO.N,SCL*
X42214800Y-67132200D03*
G04 #@! TO.P,U1,15*
G04 #@! TO.N,COL1*
X39674800Y-67132200D03*
G04 #@! TO.P,U1,16*
G04 #@! TO.N,COL2*
X37134800Y-67132200D03*
G04 #@! TO.P,U1,17*
G04 #@! TO.N,COL3*
X34594800Y-67132200D03*
G04 #@! TO.P,U1,18*
G04 #@! TO.N,COL4*
X32054800Y-67132200D03*
G04 #@! TO.P,U1,19*
G04 #@! TO.N,COL5*
X29514800Y-67132200D03*
G04 #@! TO.P,U1,20*
G04 #@! TO.N,COL6*
X26974800Y-67132200D03*
G04 #@! TO.P,U1,21*
G04 #@! TO.N,VCC*
X24434800Y-67132200D03*
G04 #@! TO.P,U1,22*
G04 #@! TO.N,RST*
X21894800Y-67132200D03*
G04 #@! TO.P,U1,23*
G04 #@! TO.N,GND*
X19354800Y-67132200D03*
G04 #@! TO.P,U1,12*
G04 #@! TO.N,ROW0*
X44754800Y-51892200D03*
G04 #@! TO.P,U1,24*
G04 #@! TO.N,N/C*
X16814800Y-67132200D03*
G04 #@! TD*
D10*
G04 #@! TO.P,SW34,2*
G04 #@! TO.N,Net-(D34-Pad2)*
X184023000Y-56642000D03*
G04 #@! TO.P,SW34,1*
G04 #@! TO.N,COL1*
X190373000Y-54102000D03*
G04 #@! TD*
G04 #@! TO.P,SW22,2*
G04 #@! TO.N,Net-(D22-Pad2)*
X174498000Y-37592000D03*
G04 #@! TO.P,SW22,1*
G04 #@! TO.N,COL1*
X180848000Y-35052000D03*
G04 #@! TD*
G04 #@! TO.P,SW4,2*
G04 #@! TO.N,Net-(D4-Pad2)*
X74498200Y-18542000D03*
G04 #@! TO.P,SW4,1*
G04 #@! TO.N,COL3*
X80848200Y-16002000D03*
G04 #@! TD*
G04 #@! TO.P,SW35,2*
G04 #@! TO.N,Net-(D35-Pad2)*
X203098400Y-56642000D03*
G04 #@! TO.P,SW35,1*
G04 #@! TO.N,COL2*
X209448400Y-54102000D03*
G04 #@! TD*
G04 #@! TO.P,600u,2*
G04 #@! TO.N,Net-(D42-Pad2)*
X123266200Y-75565000D03*
G04 #@! TO.P,600u,1*
G04 #@! TO.N,COL5*
X129616200Y-73025000D03*
G04 #@! TD*
G04 #@! TO.P,SW15,2*
G04 #@! TO.N,Net-(D15-Pad2)*
X41148000Y-37592000D03*
G04 #@! TO.P,SW15,1*
G04 #@! TO.N,COL1*
X47498000Y-35052000D03*
G04 #@! TD*
G04 #@! TO.P,SW1,2*
G04 #@! TO.N,Net-(D1-Pad2)*
X17348200Y-18542000D03*
G04 #@! TO.P,SW1,1*
G04 #@! TO.N,COL0*
X23698200Y-16002000D03*
G04 #@! TD*
G04 #@! TO.P,SW2,2*
G04 #@! TO.N,Net-(D2-Pad2)*
X36398200Y-18542000D03*
G04 #@! TO.P,SW2,1*
G04 #@! TO.N,COL1*
X42748200Y-16002000D03*
G04 #@! TD*
G04 #@! TO.P,SW3,2*
G04 #@! TO.N,Net-(D3-Pad2)*
X55448200Y-18567400D03*
G04 #@! TO.P,SW3,1*
G04 #@! TO.N,COL2*
X61798200Y-16027400D03*
G04 #@! TD*
G04 #@! TO.P,SW5,2*
G04 #@! TO.N,Net-(D5-Pad2)*
X93548200Y-18567400D03*
G04 #@! TO.P,SW5,1*
G04 #@! TO.N,COL4*
X99898200Y-16027400D03*
G04 #@! TD*
G04 #@! TO.P,SW6,2*
G04 #@! TO.N,Net-(D6-Pad2)*
X112598200Y-18567400D03*
G04 #@! TO.P,SW6,1*
G04 #@! TO.N,COL5*
X118948200Y-16027400D03*
G04 #@! TD*
G04 #@! TO.P,SW7,2*
G04 #@! TO.N,Net-(D7-Pad2)*
X131673600Y-18516600D03*
G04 #@! TO.P,SW7,1*
G04 #@! TO.N,COL6*
X138023600Y-15976600D03*
G04 #@! TD*
G04 #@! TO.P,SW8,2*
G04 #@! TO.N,Net-(D8-Pad2)*
X150698200Y-18542000D03*
G04 #@! TO.P,SW8,1*
G04 #@! TO.N,COL0*
X157048200Y-16002000D03*
G04 #@! TD*
G04 #@! TO.P,SW9,2*
G04 #@! TO.N,Net-(D9-Pad2)*
X169748200Y-18542000D03*
G04 #@! TO.P,SW9,1*
G04 #@! TO.N,COL1*
X176098200Y-16002000D03*
G04 #@! TD*
G04 #@! TO.P,SW10,2*
G04 #@! TO.N,Net-(D10-Pad2)*
X188798200Y-18542000D03*
G04 #@! TO.P,SW10,1*
G04 #@! TO.N,COL2*
X195148200Y-16002000D03*
G04 #@! TD*
G04 #@! TO.P,SW11,2*
G04 #@! TO.N,Net-(D11-Pad2)*
X207848200Y-18542000D03*
G04 #@! TO.P,SW11,1*
G04 #@! TO.N,COL3*
X214198200Y-16002000D03*
G04 #@! TD*
G04 #@! TO.P,SW28,2*
G04 #@! TO.N,Net-(D28-Pad2)*
X69723000Y-56642000D03*
G04 #@! TO.P,SW28,1*
G04 #@! TO.N,COL2*
X76073000Y-54102000D03*
G04 #@! TD*
G04 #@! TO.P,SW30,2*
G04 #@! TO.N,Net-(D30-Pad2)*
X107823000Y-56642000D03*
G04 #@! TO.P,SW30,1*
G04 #@! TO.N,COL4*
X114173000Y-54102000D03*
G04 #@! TD*
G04 #@! TO.P,SW31,2*
G04 #@! TO.N,Net-(D31-Pad2)*
X126873000Y-56642000D03*
G04 #@! TO.P,SW31,1*
G04 #@! TO.N,COL5*
X133223000Y-54102000D03*
G04 #@! TD*
G04 #@! TO.P,SW32,2*
G04 #@! TO.N,Net-(D32-Pad2)*
X145923000Y-56642000D03*
G04 #@! TO.P,SW32,1*
G04 #@! TO.N,COL6*
X152273000Y-54102000D03*
G04 #@! TD*
G04 #@! TO.P,100u,2*
G04 #@! TO.N,Net-(D36-Pad2)*
X222148400Y-56667400D03*
G04 #@! TO.P,100u,1*
G04 #@! TO.N,COL3*
X228498400Y-54127400D03*
G04 #@! TD*
G04 #@! TO.P,100u,2*
G04 #@! TO.N,Net-(D44-Pad2)*
X207848200Y-75692000D03*
G04 #@! TO.P,100u,1*
G04 #@! TO.N,COL2*
X214198200Y-73152000D03*
G04 #@! TD*
G04 #@! TO.P,100u,2*
G04 #@! TO.N,Net-(D45-Pad2)*
X226898200Y-75717400D03*
G04 #@! TO.P,100u,1*
G04 #@! TO.N,COL3*
X233248200Y-73177400D03*
G04 #@! TD*
G04 #@! TO.P,100u,2*
G04 #@! TO.N,Net-(D46-Pad2)*
X245948200Y-75692000D03*
G04 #@! TO.P,100u,1*
G04 #@! TO.N,COL4*
X252298200Y-73152000D03*
G04 #@! TD*
G04 #@! TO.P,100u,2*
G04 #@! TO.N,Net-(D12-Pad2)*
X226898200Y-18567400D03*
G04 #@! TO.P,100u,1*
G04 #@! TO.N,COL4*
X233248200Y-16027400D03*
G04 #@! TD*
G04 #@! TO.P,SW15b1,2*
G04 #@! TO.N,Net-(D15-Pad2)*
X45974000Y-37592000D03*
G04 #@! TO.P,SW15b1,1*
G04 #@! TO.N,COL1*
X52324000Y-35052000D03*
G04 #@! TD*
G04 #@! TO.P,SW16,2*
G04 #@! TO.N,Net-(D16-Pad2)*
X60223400Y-37592000D03*
G04 #@! TO.P,SW16,1*
G04 #@! TO.N,COL2*
X66573400Y-35052000D03*
G04 #@! TD*
G04 #@! TO.P,SW16b1,2*
G04 #@! TO.N,Net-(D16-Pad2)*
X65049400Y-37592000D03*
G04 #@! TO.P,SW16b1,1*
G04 #@! TO.N,COL2*
X71399400Y-35052000D03*
G04 #@! TD*
G04 #@! TO.P,SW17,2*
G04 #@! TO.N,Net-(D17-Pad2)*
X79248000Y-37617400D03*
G04 #@! TO.P,SW17,1*
G04 #@! TO.N,COL3*
X85598000Y-35077400D03*
G04 #@! TD*
G04 #@! TO.P,SW17b1,2*
G04 #@! TO.N,Net-(D17-Pad2)*
X84074000Y-37592000D03*
G04 #@! TO.P,SW17b1,1*
G04 #@! TO.N,COL3*
X90424000Y-35052000D03*
G04 #@! TD*
G04 #@! TO.P,SW18,2*
G04 #@! TO.N,Net-(D18-Pad2)*
X98323400Y-37592000D03*
G04 #@! TO.P,SW18,1*
G04 #@! TO.N,COL4*
X104673400Y-35052000D03*
G04 #@! TD*
G04 #@! TO.P,SW18b1,2*
G04 #@! TO.N,Net-(D18-Pad2)*
X103149400Y-37592000D03*
G04 #@! TO.P,SW18b1,1*
G04 #@! TO.N,COL4*
X109499400Y-35052000D03*
G04 #@! TD*
G04 #@! TO.P,SW19,2*
G04 #@! TO.N,Net-(D19-Pad2)*
X117348000Y-37592000D03*
G04 #@! TO.P,SW19,1*
G04 #@! TO.N,COL5*
X123698000Y-35052000D03*
G04 #@! TD*
G04 #@! TO.P,SW19b1,2*
G04 #@! TO.N,Net-(D19-Pad2)*
X122174000Y-37592000D03*
G04 #@! TO.P,SW19b1,1*
G04 #@! TO.N,COL5*
X128524000Y-35052000D03*
G04 #@! TD*
G04 #@! TO.P,SW20,2*
G04 #@! TO.N,Net-(D20-Pad2)*
X136398000Y-37617400D03*
G04 #@! TO.P,SW20,1*
G04 #@! TO.N,COL6*
X142748000Y-35077400D03*
G04 #@! TD*
G04 #@! TO.P,SW20b1,2*
G04 #@! TO.N,Net-(D20-Pad2)*
X141249400Y-37617400D03*
G04 #@! TO.P,SW20b1,1*
G04 #@! TO.N,COL6*
X147599400Y-35077400D03*
G04 #@! TD*
G04 #@! TO.P,SW21,2*
G04 #@! TO.N,Net-(D21-Pad2)*
X155473400Y-37592000D03*
G04 #@! TO.P,SW21,1*
G04 #@! TO.N,COL0*
X161823400Y-35052000D03*
G04 #@! TD*
G04 #@! TO.P,SW21b1,2*
G04 #@! TO.N,Net-(D21-Pad2)*
X160274000Y-37617400D03*
G04 #@! TO.P,SW21b1,1*
G04 #@! TO.N,COL0*
X166624000Y-35077400D03*
G04 #@! TD*
G04 #@! TO.P,SW22b1,2*
G04 #@! TO.N,Net-(D22-Pad2)*
X179349400Y-37592000D03*
G04 #@! TO.P,SW22b1,1*
G04 #@! TO.N,COL1*
X185699400Y-35052000D03*
G04 #@! TD*
G04 #@! TO.P,SW23,2*
G04 #@! TO.N,Net-(D23-Pad2)*
X193573400Y-37592000D03*
G04 #@! TO.P,SW23,1*
G04 #@! TO.N,COL2*
X199923400Y-35052000D03*
G04 #@! TD*
G04 #@! TO.P,SW23b1,2*
G04 #@! TO.N,Net-(D23-Pad2)*
X198374000Y-37592000D03*
G04 #@! TO.P,SW23b1,1*
G04 #@! TO.N,COL2*
X204724000Y-35052000D03*
G04 #@! TD*
G04 #@! TO.P,SW24,2*
G04 #@! TO.N,Net-(D24-Pad2)*
X212598000Y-37592000D03*
G04 #@! TO.P,SW24,1*
G04 #@! TO.N,COL3*
X218948000Y-35052000D03*
G04 #@! TD*
G04 #@! TO.P,SW24b1,2*
G04 #@! TO.N,Net-(D24-Pad2)*
X217449400Y-37617400D03*
G04 #@! TO.P,SW24b1,1*
G04 #@! TO.N,COL3*
X223799400Y-35077400D03*
G04 #@! TD*
G04 #@! TO.P,100u,2*
G04 #@! TO.N,Net-(D38-Pad2)*
X17348200Y-75692000D03*
G04 #@! TO.P,100u,1*
G04 #@! TO.N,COL0*
X23698200Y-73152000D03*
G04 #@! TD*
G04 #@! TO.P,100u,2*
G04 #@! TO.N,Net-(D39-Pad2)*
X36398200Y-75692000D03*
G04 #@! TO.P,100u,1*
G04 #@! TO.N,COL1*
X42748200Y-73152000D03*
G04 #@! TD*
G04 #@! TO.P,100u,2*
G04 #@! TO.N,Net-(D40-Pad2)*
X55448200Y-75692000D03*
G04 #@! TO.P,100u,1*
G04 #@! TO.N,COL2*
X61798200Y-73152000D03*
G04 #@! TD*
G04 #@! TO.P,125u,2*
G04 #@! TO.N,Net-(D43-Pad2)*
X186410600Y-75692000D03*
G04 #@! TO.P,125u,1*
G04 #@! TO.N,COL1*
X192760600Y-73152000D03*
G04 #@! TD*
G04 #@! TO.P,100u,2*
G04 #@! TO.N,Net-(D43-Pad2)*
X188772800Y-75692000D03*
G04 #@! TO.P,100u,1*
G04 #@! TO.N,COL1*
X195122800Y-73152000D03*
G04 #@! TD*
G04 #@! TO.P,150u,2*
G04 #@! TO.N,Net-(D14-Pad2)*
X22174200Y-37592000D03*
G04 #@! TO.P,150u,1*
G04 #@! TO.N,COL0*
X28524200Y-35052000D03*
G04 #@! TD*
G04 #@! TO.P,125u,2*
G04 #@! TO.N,Net-(D14-Pad2)*
X19735800Y-37592000D03*
G04 #@! TO.P,125u,1*
G04 #@! TO.N,COL0*
X26085800Y-35052000D03*
G04 #@! TD*
G04 #@! TO.P,175u,2*
G04 #@! TO.N,Net-(D26-Pad2)*
X24485600Y-56642000D03*
G04 #@! TO.P,175u,1*
G04 #@! TO.N,COL0*
X30835600Y-54102000D03*
G04 #@! TD*
G04 #@! TO.P,125u,2*
G04 #@! TO.N,Net-(D37-Pad2)*
X251180600Y-61747400D03*
G04 #@! TO.P,125u,1*
G04 #@! TO.N,COL4*
X244830600Y-64287400D03*
G04 #@! TD*
G04 #@! TO.P,150u,2*
G04 #@! TO.N,Net-(D25-Pad2)*
X238810800Y-37592000D03*
G04 #@! TO.P,150u,1*
G04 #@! TO.N,COL4*
X245160800Y-35052000D03*
G04 #@! TD*
G04 #@! TO.P,175u,2*
G04 #@! TO.N,Net-(D25-Pad2)*
X241249200Y-37592000D03*
G04 #@! TO.P,175u,1*
G04 #@! TO.N,COL4*
X247599200Y-35052000D03*
G04 #@! TD*
G04 #@! TO.P,125u,1*
G04 #@! TO.N,COL0*
X26085800Y-73177400D03*
G04 #@! TO.P,125u,2*
G04 #@! TO.N,Net-(D38-Pad2)*
X19735800Y-75717400D03*
G04 #@! TD*
G04 #@! TO.P,125u,1*
G04 #@! TO.N,COL1*
X49885600Y-73177400D03*
G04 #@! TO.P,125u,2*
G04 #@! TO.N,Net-(D39-Pad2)*
X43535600Y-75717400D03*
G04 #@! TD*
G04 #@! TO.P,125u,1*
G04 #@! TO.N,COL2*
X73685400Y-73152000D03*
G04 #@! TO.P,125u,2*
G04 #@! TO.N,Net-(D40-Pad2)*
X67335400Y-75692000D03*
G04 #@! TD*
D13*
G04 #@! TO.P,D1,1*
G04 #@! TO.N,ROW0*
X25147100Y-29298900D03*
D14*
G04 #@! TO.P,D1,2*
G04 #@! TO.N,Net-(D1-Pad2)*
X17347100Y-29298900D03*
D15*
G04 #@! TD*
G04 #@! TO.N,ROW0*
G04 #@! TO.C,D1*
X23747100Y-29298900D03*
D16*
G04 #@! TO.P,D1,1*
G04 #@! TO.N,ROW0*
X22647100Y-29298900D03*
G04 #@! TO.P,D1,2*
G04 #@! TO.N,Net-(D1-Pad2)*
X19847100Y-29298900D03*
D15*
G04 #@! TD*
G04 #@! TO.N,Net-(D1-Pad2)*
G04 #@! TO.C,D1*
X18747100Y-29298900D03*
D13*
G04 #@! TO.P,D2,1*
G04 #@! TO.N,ROW0*
X44184400Y-29260800D03*
D14*
G04 #@! TO.P,D2,2*
G04 #@! TO.N,Net-(D2-Pad2)*
X36384400Y-29260800D03*
D15*
G04 #@! TD*
G04 #@! TO.N,ROW0*
G04 #@! TO.C,D2*
X42784400Y-29260800D03*
D16*
G04 #@! TO.P,D2,1*
G04 #@! TO.N,ROW0*
X41684400Y-29260800D03*
G04 #@! TO.P,D2,2*
G04 #@! TO.N,Net-(D2-Pad2)*
X38884400Y-29260800D03*
D15*
G04 #@! TD*
G04 #@! TO.N,Net-(D2-Pad2)*
G04 #@! TO.C,D2*
X37784400Y-29260800D03*
D13*
G04 #@! TO.P,D3,1*
G04 #@! TO.N,ROW0*
X63234400Y-29222700D03*
D14*
G04 #@! TO.P,D3,2*
G04 #@! TO.N,Net-(D3-Pad2)*
X55434400Y-29222700D03*
D15*
G04 #@! TD*
G04 #@! TO.N,ROW0*
G04 #@! TO.C,D3*
X61834400Y-29222700D03*
D16*
G04 #@! TO.P,D3,1*
G04 #@! TO.N,ROW0*
X60734400Y-29222700D03*
G04 #@! TO.P,D3,2*
G04 #@! TO.N,Net-(D3-Pad2)*
X57934400Y-29222700D03*
D15*
G04 #@! TD*
G04 #@! TO.N,Net-(D3-Pad2)*
G04 #@! TO.C,D3*
X56834400Y-29222700D03*
D13*
G04 #@! TO.P,D4,1*
G04 #@! TO.N,ROW0*
X82284400Y-29248100D03*
D14*
G04 #@! TO.P,D4,2*
G04 #@! TO.N,Net-(D4-Pad2)*
X74484400Y-29248100D03*
D15*
G04 #@! TD*
G04 #@! TO.N,ROW0*
G04 #@! TO.C,D4*
X80884400Y-29248100D03*
D16*
G04 #@! TO.P,D4,1*
G04 #@! TO.N,ROW0*
X79784400Y-29248100D03*
G04 #@! TO.P,D4,2*
G04 #@! TO.N,Net-(D4-Pad2)*
X76984400Y-29248100D03*
D15*
G04 #@! TD*
G04 #@! TO.N,Net-(D4-Pad2)*
G04 #@! TO.C,D4*
X75884400Y-29248100D03*
D13*
G04 #@! TO.P,D5,1*
G04 #@! TO.N,ROW0*
X101309000Y-29248100D03*
D14*
G04 #@! TO.P,D5,2*
G04 #@! TO.N,Net-(D5-Pad2)*
X93509000Y-29248100D03*
D15*
G04 #@! TD*
G04 #@! TO.N,ROW0*
G04 #@! TO.C,D5*
X99909000Y-29248100D03*
D16*
G04 #@! TO.P,D5,1*
G04 #@! TO.N,ROW0*
X98809000Y-29248100D03*
G04 #@! TO.P,D5,2*
G04 #@! TO.N,Net-(D5-Pad2)*
X96009000Y-29248100D03*
D15*
G04 #@! TD*
G04 #@! TO.N,Net-(D5-Pad2)*
G04 #@! TO.C,D5*
X94909000Y-29248100D03*
D13*
G04 #@! TO.P,D6,1*
G04 #@! TO.N,ROW0*
X120384400Y-29248100D03*
D14*
G04 #@! TO.P,D6,2*
G04 #@! TO.N,Net-(D6-Pad2)*
X112584400Y-29248100D03*
D15*
G04 #@! TD*
G04 #@! TO.N,ROW0*
G04 #@! TO.C,D6*
X118984400Y-29248100D03*
D16*
G04 #@! TO.P,D6,1*
G04 #@! TO.N,ROW0*
X117884400Y-29248100D03*
G04 #@! TO.P,D6,2*
G04 #@! TO.N,Net-(D6-Pad2)*
X115084400Y-29248100D03*
D15*
G04 #@! TD*
G04 #@! TO.N,Net-(D6-Pad2)*
G04 #@! TO.C,D6*
X113984400Y-29248100D03*
D13*
G04 #@! TO.P,D7,1*
G04 #@! TO.N,ROW0*
X139485200Y-29222700D03*
D14*
G04 #@! TO.P,D7,2*
G04 #@! TO.N,Net-(D7-Pad2)*
X131685200Y-29222700D03*
D15*
G04 #@! TD*
G04 #@! TO.N,ROW0*
G04 #@! TO.C,D7*
X138085200Y-29222700D03*
D16*
G04 #@! TO.P,D7,1*
G04 #@! TO.N,ROW0*
X136985200Y-29222700D03*
G04 #@! TO.P,D7,2*
G04 #@! TO.N,Net-(D7-Pad2)*
X134185200Y-29222700D03*
D15*
G04 #@! TD*
G04 #@! TO.N,Net-(D7-Pad2)*
G04 #@! TO.C,D7*
X133085200Y-29222700D03*
D13*
G04 #@! TO.P,D8,1*
G04 #@! TO.N,ROW4*
X158497100Y-29260800D03*
D14*
G04 #@! TO.P,D8,2*
G04 #@! TO.N,Net-(D8-Pad2)*
X150697100Y-29260800D03*
D15*
G04 #@! TD*
G04 #@! TO.N,ROW4*
G04 #@! TO.C,D8*
X157097100Y-29260800D03*
D16*
G04 #@! TO.P,D8,1*
G04 #@! TO.N,ROW4*
X155997100Y-29260800D03*
G04 #@! TO.P,D8,2*
G04 #@! TO.N,Net-(D8-Pad2)*
X153197100Y-29260800D03*
D15*
G04 #@! TD*
G04 #@! TO.N,Net-(D8-Pad2)*
G04 #@! TO.C,D8*
X152097100Y-29260800D03*
D13*
G04 #@! TO.P,D9,1*
G04 #@! TO.N,ROW4*
X177559800Y-29222700D03*
D14*
G04 #@! TO.P,D9,2*
G04 #@! TO.N,Net-(D9-Pad2)*
X169759800Y-29222700D03*
D15*
G04 #@! TD*
G04 #@! TO.N,ROW4*
G04 #@! TO.C,D9*
X176159800Y-29222700D03*
D16*
G04 #@! TO.P,D9,1*
G04 #@! TO.N,ROW4*
X175059800Y-29222700D03*
G04 #@! TO.P,D9,2*
G04 #@! TO.N,Net-(D9-Pad2)*
X172259800Y-29222700D03*
D15*
G04 #@! TD*
G04 #@! TO.N,Net-(D9-Pad2)*
G04 #@! TO.C,D9*
X171159800Y-29222700D03*
D13*
G04 #@! TO.P,D10,1*
G04 #@! TO.N,ROW4*
X196597100Y-29222700D03*
D14*
G04 #@! TO.P,D10,2*
G04 #@! TO.N,Net-(D10-Pad2)*
X188797100Y-29222700D03*
D15*
G04 #@! TD*
G04 #@! TO.N,ROW4*
G04 #@! TO.C,D10*
X195197100Y-29222700D03*
D16*
G04 #@! TO.P,D10,1*
G04 #@! TO.N,ROW4*
X194097100Y-29222700D03*
G04 #@! TO.P,D10,2*
G04 #@! TO.N,Net-(D10-Pad2)*
X191297100Y-29222700D03*
D15*
G04 #@! TD*
G04 #@! TO.N,Net-(D10-Pad2)*
G04 #@! TO.C,D10*
X190197100Y-29222700D03*
D13*
G04 #@! TO.P,D11,1*
G04 #@! TO.N,ROW4*
X215647100Y-29260800D03*
D14*
G04 #@! TO.P,D11,2*
G04 #@! TO.N,Net-(D11-Pad2)*
X207847100Y-29260800D03*
D15*
G04 #@! TD*
G04 #@! TO.N,ROW4*
G04 #@! TO.C,D11*
X214247100Y-29260800D03*
D16*
G04 #@! TO.P,D11,1*
G04 #@! TO.N,ROW4*
X213147100Y-29260800D03*
G04 #@! TO.P,D11,2*
G04 #@! TO.N,Net-(D11-Pad2)*
X210347100Y-29260800D03*
D15*
G04 #@! TD*
G04 #@! TO.N,Net-(D11-Pad2)*
G04 #@! TO.C,D11*
X209247100Y-29260800D03*
D13*
G04 #@! TO.P,D12,1*
G04 #@! TO.N,ROW4*
X240742300Y-29337000D03*
D14*
G04 #@! TO.P,D12,2*
G04 #@! TO.N,Net-(D12-Pad2)*
X232942300Y-29337000D03*
D15*
G04 #@! TD*
G04 #@! TO.N,ROW4*
G04 #@! TO.C,D12*
X239342300Y-29337000D03*
D16*
G04 #@! TO.P,D12,1*
G04 #@! TO.N,ROW4*
X238242300Y-29337000D03*
G04 #@! TO.P,D12,2*
G04 #@! TO.N,Net-(D12-Pad2)*
X235442300Y-29337000D03*
D15*
G04 #@! TD*
G04 #@! TO.N,Net-(D12-Pad2)*
G04 #@! TO.C,D12*
X234342300Y-29337000D03*
D13*
G04 #@! TO.P,D13,1*
G04 #@! TO.N,ROW4*
X237895300Y-31902400D03*
D14*
G04 #@! TO.P,D13,2*
G04 #@! TO.N,Net-(D13-Pad2)*
X245695300Y-31902400D03*
D15*
G04 #@! TD*
G04 #@! TO.N,ROW4*
G04 #@! TO.C,D13*
X239295300Y-31902400D03*
D16*
G04 #@! TO.P,D13,1*
G04 #@! TO.N,ROW4*
X240395300Y-31902400D03*
G04 #@! TO.P,D13,2*
G04 #@! TO.N,Net-(D13-Pad2)*
X243195300Y-31902400D03*
D15*
G04 #@! TD*
G04 #@! TO.N,Net-(D13-Pad2)*
G04 #@! TO.C,D13*
X244295300Y-31902400D03*
D13*
G04 #@! TO.P,D14,1*
G04 #@! TO.N,ROW1*
X25159800Y-31965900D03*
D14*
G04 #@! TO.P,D14,2*
G04 #@! TO.N,Net-(D14-Pad2)*
X17359800Y-31965900D03*
D15*
G04 #@! TD*
G04 #@! TO.N,ROW1*
G04 #@! TO.C,D14*
X23759800Y-31965900D03*
D16*
G04 #@! TO.P,D14,1*
G04 #@! TO.N,ROW1*
X22659800Y-31965900D03*
G04 #@! TO.P,D14,2*
G04 #@! TO.N,Net-(D14-Pad2)*
X19859800Y-31965900D03*
D15*
G04 #@! TD*
G04 #@! TO.N,Net-(D14-Pad2)*
G04 #@! TO.C,D14*
X18759800Y-31965900D03*
D13*
G04 #@! TO.P,D15,1*
G04 #@! TO.N,ROW1*
X48959600Y-32016700D03*
D14*
G04 #@! TO.P,D15,2*
G04 #@! TO.N,Net-(D15-Pad2)*
X41159600Y-32016700D03*
D15*
G04 #@! TD*
G04 #@! TO.N,ROW1*
G04 #@! TO.C,D15*
X47559600Y-32016700D03*
D16*
G04 #@! TO.P,D15,1*
G04 #@! TO.N,ROW1*
X46459600Y-32016700D03*
G04 #@! TO.P,D15,2*
G04 #@! TO.N,Net-(D15-Pad2)*
X43659600Y-32016700D03*
D15*
G04 #@! TD*
G04 #@! TO.N,Net-(D15-Pad2)*
G04 #@! TO.C,D15*
X42559600Y-32016700D03*
D13*
G04 #@! TO.P,D16,1*
G04 #@! TO.N,ROW1*
X68009600Y-31978600D03*
D14*
G04 #@! TO.P,D16,2*
G04 #@! TO.N,Net-(D16-Pad2)*
X60209600Y-31978600D03*
D15*
G04 #@! TD*
G04 #@! TO.N,ROW1*
G04 #@! TO.C,D16*
X66609600Y-31978600D03*
D16*
G04 #@! TO.P,D16,1*
G04 #@! TO.N,ROW1*
X65509600Y-31978600D03*
G04 #@! TO.P,D16,2*
G04 #@! TO.N,Net-(D16-Pad2)*
X62709600Y-31978600D03*
D15*
G04 #@! TD*
G04 #@! TO.N,Net-(D16-Pad2)*
G04 #@! TO.C,D16*
X61609600Y-31978600D03*
D13*
G04 #@! TO.P,D17,1*
G04 #@! TO.N,ROW1*
X87046900Y-31991300D03*
D14*
G04 #@! TO.P,D17,2*
G04 #@! TO.N,Net-(D17-Pad2)*
X79246900Y-31991300D03*
D15*
G04 #@! TD*
G04 #@! TO.N,ROW1*
G04 #@! TO.C,D17*
X85646900Y-31991300D03*
D16*
G04 #@! TO.P,D17,1*
G04 #@! TO.N,ROW1*
X84546900Y-31991300D03*
G04 #@! TO.P,D17,2*
G04 #@! TO.N,Net-(D17-Pad2)*
X81746900Y-31991300D03*
D15*
G04 #@! TD*
G04 #@! TO.N,Net-(D17-Pad2)*
G04 #@! TO.C,D17*
X80646900Y-31991300D03*
D13*
G04 #@! TO.P,D18,1*
G04 #@! TO.N,ROW1*
X106147700Y-32016700D03*
D14*
G04 #@! TO.P,D18,2*
G04 #@! TO.N,Net-(D18-Pad2)*
X98347700Y-32016700D03*
D15*
G04 #@! TD*
G04 #@! TO.N,ROW1*
G04 #@! TO.C,D18*
X104747700Y-32016700D03*
D16*
G04 #@! TO.P,D18,1*
G04 #@! TO.N,ROW1*
X103647700Y-32016700D03*
G04 #@! TO.P,D18,2*
G04 #@! TO.N,Net-(D18-Pad2)*
X100847700Y-32016700D03*
D15*
G04 #@! TD*
G04 #@! TO.N,Net-(D18-Pad2)*
G04 #@! TO.C,D18*
X99747700Y-32016700D03*
D13*
G04 #@! TO.P,D19,1*
G04 #@! TO.N,ROW1*
X125146900Y-32016700D03*
D14*
G04 #@! TO.P,D19,2*
G04 #@! TO.N,Net-(D19-Pad2)*
X117346900Y-32016700D03*
D15*
G04 #@! TD*
G04 #@! TO.N,ROW1*
G04 #@! TO.C,D19*
X123746900Y-32016700D03*
D16*
G04 #@! TO.P,D19,1*
G04 #@! TO.N,ROW1*
X122646900Y-32016700D03*
G04 #@! TO.P,D19,2*
G04 #@! TO.N,Net-(D19-Pad2)*
X119846900Y-32016700D03*
D15*
G04 #@! TD*
G04 #@! TO.N,Net-(D19-Pad2)*
G04 #@! TO.C,D19*
X118746900Y-32016700D03*
D13*
G04 #@! TO.P,D20,1*
G04 #@! TO.N,ROW1*
X144196900Y-32004000D03*
D14*
G04 #@! TO.P,D20,2*
G04 #@! TO.N,Net-(D20-Pad2)*
X136396900Y-32004000D03*
D15*
G04 #@! TD*
G04 #@! TO.N,ROW1*
G04 #@! TO.C,D20*
X142796900Y-32004000D03*
D16*
G04 #@! TO.P,D20,1*
G04 #@! TO.N,ROW1*
X141696900Y-32004000D03*
G04 #@! TO.P,D20,2*
G04 #@! TO.N,Net-(D20-Pad2)*
X138896900Y-32004000D03*
D15*
G04 #@! TD*
G04 #@! TO.N,Net-(D20-Pad2)*
G04 #@! TO.C,D20*
X137796900Y-32004000D03*
D13*
G04 #@! TO.P,D21,1*
G04 #@! TO.N,ROW5*
X163272300Y-31978600D03*
D14*
G04 #@! TO.P,D21,2*
G04 #@! TO.N,Net-(D21-Pad2)*
X155472300Y-31978600D03*
D15*
G04 #@! TD*
G04 #@! TO.N,ROW5*
G04 #@! TO.C,D21*
X161872300Y-31978600D03*
D16*
G04 #@! TO.P,D21,1*
G04 #@! TO.N,ROW5*
X160772300Y-31978600D03*
G04 #@! TO.P,D21,2*
G04 #@! TO.N,Net-(D21-Pad2)*
X157972300Y-31978600D03*
D15*
G04 #@! TD*
G04 #@! TO.N,Net-(D21-Pad2)*
G04 #@! TO.C,D21*
X156872300Y-31978600D03*
D13*
G04 #@! TO.P,D22,1*
G04 #@! TO.N,ROW5*
X182309600Y-31991300D03*
D14*
G04 #@! TO.P,D22,2*
G04 #@! TO.N,Net-(D22-Pad2)*
X174509600Y-31991300D03*
D15*
G04 #@! TD*
G04 #@! TO.N,ROW5*
G04 #@! TO.C,D22*
X180909600Y-31991300D03*
D16*
G04 #@! TO.P,D22,1*
G04 #@! TO.N,ROW5*
X179809600Y-31991300D03*
G04 #@! TO.P,D22,2*
G04 #@! TO.N,Net-(D22-Pad2)*
X177009600Y-31991300D03*
D15*
G04 #@! TD*
G04 #@! TO.N,Net-(D22-Pad2)*
G04 #@! TO.C,D22*
X175909600Y-31991300D03*
D13*
G04 #@! TO.P,D23,1*
G04 #@! TO.N,ROW5*
X201385000Y-31978600D03*
D14*
G04 #@! TO.P,D23,2*
G04 #@! TO.N,Net-(D23-Pad2)*
X193585000Y-31978600D03*
D15*
G04 #@! TD*
G04 #@! TO.N,ROW5*
G04 #@! TO.C,D23*
X199985000Y-31978600D03*
D16*
G04 #@! TO.P,D23,1*
G04 #@! TO.N,ROW5*
X198885000Y-31978600D03*
G04 #@! TO.P,D23,2*
G04 #@! TO.N,Net-(D23-Pad2)*
X196085000Y-31978600D03*
D15*
G04 #@! TD*
G04 #@! TO.N,Net-(D23-Pad2)*
G04 #@! TO.C,D23*
X194985000Y-31978600D03*
D13*
G04 #@! TO.P,D24,1*
G04 #@! TO.N,ROW5*
X220841400Y-32029400D03*
D14*
G04 #@! TO.P,D24,2*
G04 #@! TO.N,Net-(D24-Pad2)*
X213041400Y-32029400D03*
D15*
G04 #@! TD*
G04 #@! TO.N,ROW5*
G04 #@! TO.C,D24*
X219441400Y-32029400D03*
D16*
G04 #@! TO.P,D24,1*
G04 #@! TO.N,ROW5*
X218341400Y-32029400D03*
G04 #@! TO.P,D24,2*
G04 #@! TO.N,Net-(D24-Pad2)*
X215541400Y-32029400D03*
D15*
G04 #@! TD*
G04 #@! TO.N,Net-(D24-Pad2)*
G04 #@! TO.C,D24*
X214441400Y-32029400D03*
D13*
G04 #@! TO.P,D25,1*
G04 #@! TO.N,ROW5*
X226630400Y-32004000D03*
D14*
G04 #@! TO.P,D25,2*
G04 #@! TO.N,Net-(D25-Pad2)*
X234430400Y-32004000D03*
D15*
G04 #@! TD*
G04 #@! TO.N,ROW5*
G04 #@! TO.C,D25*
X228030400Y-32004000D03*
D16*
G04 #@! TO.P,D25,1*
G04 #@! TO.N,ROW5*
X229130400Y-32004000D03*
G04 #@! TO.P,D25,2*
G04 #@! TO.N,Net-(D25-Pad2)*
X231930400Y-32004000D03*
D15*
G04 #@! TD*
G04 #@! TO.N,Net-(D25-Pad2)*
G04 #@! TO.C,D25*
X233030400Y-32004000D03*
D13*
G04 #@! TO.P,D26,1*
G04 #@! TO.N,ROW2*
X58471900Y-48285400D03*
D14*
G04 #@! TO.P,D26,2*
G04 #@! TO.N,Net-(D26-Pad2)*
X50671900Y-48285400D03*
D15*
G04 #@! TD*
G04 #@! TO.N,ROW2*
G04 #@! TO.C,D26*
X57071900Y-48285400D03*
D16*
G04 #@! TO.P,D26,1*
G04 #@! TO.N,ROW2*
X55971900Y-48285400D03*
G04 #@! TO.P,D26,2*
G04 #@! TO.N,Net-(D26-Pad2)*
X53171900Y-48285400D03*
D15*
G04 #@! TD*
G04 #@! TO.N,Net-(D26-Pad2)*
G04 #@! TO.C,D26*
X52071900Y-48285400D03*
D13*
G04 #@! TO.P,D27,1*
G04 #@! TO.N,ROW2*
X58484600Y-51015900D03*
D14*
G04 #@! TO.P,D27,2*
G04 #@! TO.N,Net-(D27-Pad2)*
X50684600Y-51015900D03*
D15*
G04 #@! TD*
G04 #@! TO.N,ROW2*
G04 #@! TO.C,D27*
X57084600Y-51015900D03*
D16*
G04 #@! TO.P,D27,1*
G04 #@! TO.N,ROW2*
X55984600Y-51015900D03*
G04 #@! TO.P,D27,2*
G04 #@! TO.N,Net-(D27-Pad2)*
X53184600Y-51015900D03*
D15*
G04 #@! TD*
G04 #@! TO.N,Net-(D27-Pad2)*
G04 #@! TO.C,D27*
X52084600Y-51015900D03*
G04 #@! TO.N,Net-(D28-Pad2)*
G04 #@! TO.C,D28*
X63111200Y-51003200D03*
D16*
G04 #@! TD*
G04 #@! TO.P,D28,2*
G04 #@! TO.N,Net-(D28-Pad2)*
X64211200Y-51003200D03*
G04 #@! TO.P,D28,1*
G04 #@! TO.N,ROW2*
X67011200Y-51003200D03*
D15*
G04 #@! TD*
G04 #@! TO.N,ROW2*
G04 #@! TO.C,D28*
X68111200Y-51003200D03*
D14*
G04 #@! TO.P,D28,2*
G04 #@! TO.N,Net-(D28-Pad2)*
X61711200Y-51003200D03*
D13*
G04 #@! TO.P,D28,1*
G04 #@! TO.N,ROW2*
X69511200Y-51003200D03*
G04 #@! TD*
D15*
G04 #@! TO.N,Net-(D29-Pad2)*
G04 #@! TO.C,D29*
X87365200Y-50927000D03*
D16*
G04 #@! TD*
G04 #@! TO.P,D29,2*
G04 #@! TO.N,Net-(D29-Pad2)*
X88465200Y-50927000D03*
G04 #@! TO.P,D29,1*
G04 #@! TO.N,ROW2*
X91265200Y-50927000D03*
D15*
G04 #@! TD*
G04 #@! TO.N,ROW2*
G04 #@! TO.C,D29*
X92365200Y-50927000D03*
D14*
G04 #@! TO.P,D29,2*
G04 #@! TO.N,Net-(D29-Pad2)*
X85965200Y-50927000D03*
D13*
G04 #@! TO.P,D29,1*
G04 #@! TO.N,ROW2*
X93765200Y-50927000D03*
G04 #@! TD*
D15*
G04 #@! TO.N,Net-(D30-Pad2)*
G04 #@! TO.C,D30*
X106389800Y-50914300D03*
D16*
G04 #@! TD*
G04 #@! TO.P,D30,2*
G04 #@! TO.N,Net-(D30-Pad2)*
X107489800Y-50914300D03*
G04 #@! TO.P,D30,1*
G04 #@! TO.N,ROW2*
X110289800Y-50914300D03*
D15*
G04 #@! TD*
G04 #@! TO.N,ROW2*
G04 #@! TO.C,D30*
X111389800Y-50914300D03*
D14*
G04 #@! TO.P,D30,2*
G04 #@! TO.N,Net-(D30-Pad2)*
X104989800Y-50914300D03*
D13*
G04 #@! TO.P,D30,1*
G04 #@! TO.N,ROW2*
X112789800Y-50914300D03*
G04 #@! TD*
D15*
G04 #@! TO.N,Net-(D31-Pad2)*
G04 #@! TO.C,D31*
X125427100Y-50914300D03*
D16*
G04 #@! TD*
G04 #@! TO.P,D31,2*
G04 #@! TO.N,Net-(D31-Pad2)*
X126527100Y-50914300D03*
G04 #@! TO.P,D31,1*
G04 #@! TO.N,ROW2*
X129327100Y-50914300D03*
D15*
G04 #@! TD*
G04 #@! TO.N,ROW2*
G04 #@! TO.C,D31*
X130427100Y-50914300D03*
D14*
G04 #@! TO.P,D31,2*
G04 #@! TO.N,Net-(D31-Pad2)*
X124027100Y-50914300D03*
D13*
G04 #@! TO.P,D31,1*
G04 #@! TO.N,ROW2*
X131827100Y-50914300D03*
G04 #@! TD*
D15*
G04 #@! TO.N,Net-(D32-Pad2)*
G04 #@! TO.C,D32*
X144477100Y-50965100D03*
D16*
G04 #@! TD*
G04 #@! TO.P,D32,2*
G04 #@! TO.N,Net-(D32-Pad2)*
X145577100Y-50965100D03*
G04 #@! TO.P,D32,1*
G04 #@! TO.N,ROW2*
X148377100Y-50965100D03*
D15*
G04 #@! TD*
G04 #@! TO.N,ROW2*
G04 #@! TO.C,D32*
X149477100Y-50965100D03*
D14*
G04 #@! TO.P,D32,2*
G04 #@! TO.N,Net-(D32-Pad2)*
X143077100Y-50965100D03*
D13*
G04 #@! TO.P,D32,1*
G04 #@! TO.N,ROW2*
X150877100Y-50965100D03*
G04 #@! TD*
D15*
G04 #@! TO.N,Net-(D33-Pad2)*
G04 #@! TO.C,D33*
X163552500Y-50927000D03*
D16*
G04 #@! TD*
G04 #@! TO.P,D33,2*
G04 #@! TO.N,Net-(D33-Pad2)*
X164652500Y-50927000D03*
G04 #@! TO.P,D33,1*
G04 #@! TO.N,ROW6*
X167452500Y-50927000D03*
D15*
G04 #@! TD*
G04 #@! TO.N,ROW6*
G04 #@! TO.C,D33*
X168552500Y-50927000D03*
D14*
G04 #@! TO.P,D33,2*
G04 #@! TO.N,Net-(D33-Pad2)*
X162152500Y-50927000D03*
D13*
G04 #@! TO.P,D33,1*
G04 #@! TO.N,ROW6*
X169952500Y-50927000D03*
G04 #@! TD*
D15*
G04 #@! TO.N,Net-(D34-Pad2)*
G04 #@! TO.C,D34*
X182551700Y-50939700D03*
D16*
G04 #@! TD*
G04 #@! TO.P,D34,2*
G04 #@! TO.N,Net-(D34-Pad2)*
X183651700Y-50939700D03*
G04 #@! TO.P,D34,1*
G04 #@! TO.N,ROW6*
X186451700Y-50939700D03*
D15*
G04 #@! TD*
G04 #@! TO.N,ROW6*
G04 #@! TO.C,D34*
X187551700Y-50939700D03*
D14*
G04 #@! TO.P,D34,2*
G04 #@! TO.N,Net-(D34-Pad2)*
X181151700Y-50939700D03*
D13*
G04 #@! TO.P,D34,1*
G04 #@! TO.N,ROW6*
X188951700Y-50939700D03*
G04 #@! TD*
D15*
G04 #@! TO.N,Net-(D35-Pad2)*
G04 #@! TO.C,D35*
X204471900Y-51015900D03*
D16*
G04 #@! TD*
G04 #@! TO.P,D35,2*
G04 #@! TO.N,Net-(D35-Pad2)*
X205571900Y-51015900D03*
G04 #@! TO.P,D35,1*
G04 #@! TO.N,ROW6*
X208371900Y-51015900D03*
D15*
G04 #@! TD*
G04 #@! TO.N,ROW6*
G04 #@! TO.C,D35*
X209471900Y-51015900D03*
D14*
G04 #@! TO.P,D35,2*
G04 #@! TO.N,Net-(D35-Pad2)*
X203071900Y-51015900D03*
D13*
G04 #@! TO.P,D35,1*
G04 #@! TO.N,ROW6*
X210871900Y-51015900D03*
G04 #@! TD*
G04 #@! TO.P,D36,1*
G04 #@! TO.N,ROW6*
X236716400Y-48463200D03*
D14*
G04 #@! TO.P,D36,2*
G04 #@! TO.N,Net-(D36-Pad2)*
X228916400Y-48463200D03*
D15*
G04 #@! TD*
G04 #@! TO.N,ROW6*
G04 #@! TO.C,D36*
X235316400Y-48463200D03*
D16*
G04 #@! TO.P,D36,1*
G04 #@! TO.N,ROW6*
X234216400Y-48463200D03*
G04 #@! TO.P,D36,2*
G04 #@! TO.N,Net-(D36-Pad2)*
X231416400Y-48463200D03*
D15*
G04 #@! TD*
G04 #@! TO.N,Net-(D36-Pad2)*
G04 #@! TO.C,D36*
X230316400Y-48463200D03*
D13*
G04 #@! TO.P,D37,1*
G04 #@! TO.N,ROW6*
X244628500Y-50914300D03*
D14*
G04 #@! TO.P,D37,2*
G04 #@! TO.N,Net-(D37-Pad2)*
X236828500Y-50914300D03*
D15*
G04 #@! TD*
G04 #@! TO.N,ROW6*
G04 #@! TO.C,D37*
X243228500Y-50914300D03*
D16*
G04 #@! TO.P,D37,1*
G04 #@! TO.N,ROW6*
X242128500Y-50914300D03*
G04 #@! TO.P,D37,2*
G04 #@! TO.N,Net-(D37-Pad2)*
X239328500Y-50914300D03*
D15*
G04 #@! TD*
G04 #@! TO.N,Net-(D37-Pad2)*
G04 #@! TO.C,D37*
X238228500Y-50914300D03*
D13*
G04 #@! TO.P,D38,1*
G04 #@! TO.N,ROW3*
X25147100Y-70091300D03*
D14*
G04 #@! TO.P,D38,2*
G04 #@! TO.N,Net-(D38-Pad2)*
X17347100Y-70091300D03*
D15*
G04 #@! TD*
G04 #@! TO.N,ROW3*
G04 #@! TO.C,D38*
X23747100Y-70091300D03*
D16*
G04 #@! TO.P,D38,1*
G04 #@! TO.N,ROW3*
X22647100Y-70091300D03*
G04 #@! TO.P,D38,2*
G04 #@! TO.N,Net-(D38-Pad2)*
X19847100Y-70091300D03*
D15*
G04 #@! TD*
G04 #@! TO.N,Net-(D38-Pad2)*
G04 #@! TO.C,D38*
X18747100Y-70091300D03*
D13*
G04 #@! TO.P,D39,1*
G04 #@! TO.N,ROW3*
X44209800Y-69761100D03*
D14*
G04 #@! TO.P,D39,2*
G04 #@! TO.N,Net-(D39-Pad2)*
X36409800Y-69761100D03*
D15*
G04 #@! TD*
G04 #@! TO.N,ROW3*
G04 #@! TO.C,D39*
X42809800Y-69761100D03*
D16*
G04 #@! TO.P,D39,1*
G04 #@! TO.N,ROW3*
X41709800Y-69761100D03*
G04 #@! TO.P,D39,2*
G04 #@! TO.N,Net-(D39-Pad2)*
X38909800Y-69761100D03*
D15*
G04 #@! TD*
G04 #@! TO.N,Net-(D39-Pad2)*
G04 #@! TO.C,D39*
X37809800Y-69761100D03*
D13*
G04 #@! TO.P,D40,1*
G04 #@! TO.N,ROW3*
X75134300Y-70104000D03*
D14*
G04 #@! TO.P,D40,2*
G04 #@! TO.N,Net-(D40-Pad2)*
X67334300Y-70104000D03*
D15*
G04 #@! TD*
G04 #@! TO.N,ROW3*
G04 #@! TO.C,D40*
X73734300Y-70104000D03*
D16*
G04 #@! TO.P,D40,1*
G04 #@! TO.N,ROW3*
X72634300Y-70104000D03*
G04 #@! TO.P,D40,2*
G04 #@! TO.N,Net-(D40-Pad2)*
X69834300Y-70104000D03*
D15*
G04 #@! TD*
G04 #@! TO.N,Net-(D40-Pad2)*
G04 #@! TO.C,D40*
X68734300Y-70104000D03*
D13*
G04 #@! TO.P,D41,1*
G04 #@! TO.N,ROW3*
X109945000Y-70129400D03*
D14*
G04 #@! TO.P,D41,2*
G04 #@! TO.N,Net-(D41-Pad2)*
X102145000Y-70129400D03*
D15*
G04 #@! TD*
G04 #@! TO.N,ROW3*
G04 #@! TO.C,D41*
X108545000Y-70129400D03*
D16*
G04 #@! TO.P,D41,1*
G04 #@! TO.N,ROW3*
X107445000Y-70129400D03*
G04 #@! TO.P,D41,2*
G04 #@! TO.N,Net-(D41-Pad2)*
X104645000Y-70129400D03*
D15*
G04 #@! TD*
G04 #@! TO.N,Net-(D41-Pad2)*
G04 #@! TO.C,D41*
X103545000Y-70129400D03*
D13*
G04 #@! TO.P,D42,1*
G04 #@! TO.N,ROW3*
X160897400Y-70104000D03*
D14*
G04 #@! TO.P,D42,2*
G04 #@! TO.N,Net-(D42-Pad2)*
X153097400Y-70104000D03*
D15*
G04 #@! TD*
G04 #@! TO.N,ROW3*
G04 #@! TO.C,D42*
X159497400Y-70104000D03*
D16*
G04 #@! TO.P,D42,1*
G04 #@! TO.N,ROW3*
X158397400Y-70104000D03*
G04 #@! TO.P,D42,2*
G04 #@! TO.N,Net-(D42-Pad2)*
X155597400Y-70104000D03*
D15*
G04 #@! TD*
G04 #@! TO.N,Net-(D42-Pad2)*
G04 #@! TO.C,D42*
X154497400Y-70104000D03*
D13*
G04 #@! TO.P,D43,1*
G04 #@! TO.N,ROW7*
X194196800Y-67398900D03*
D14*
G04 #@! TO.P,D43,2*
G04 #@! TO.N,Net-(D43-Pad2)*
X186396800Y-67398900D03*
D15*
G04 #@! TD*
G04 #@! TO.N,ROW7*
G04 #@! TO.C,D43*
X192796800Y-67398900D03*
D16*
G04 #@! TO.P,D43,1*
G04 #@! TO.N,ROW7*
X191696800Y-67398900D03*
G04 #@! TO.P,D43,2*
G04 #@! TO.N,Net-(D43-Pad2)*
X188896800Y-67398900D03*
D15*
G04 #@! TD*
G04 #@! TO.N,Net-(D43-Pad2)*
G04 #@! TO.C,D43*
X187796800Y-67398900D03*
D13*
G04 #@! TO.P,D44,1*
G04 #@! TO.N,ROW7*
X215672500Y-70104000D03*
D14*
G04 #@! TO.P,D44,2*
G04 #@! TO.N,Net-(D44-Pad2)*
X207872500Y-70104000D03*
D15*
G04 #@! TD*
G04 #@! TO.N,ROW7*
G04 #@! TO.C,D44*
X214272500Y-70104000D03*
D16*
G04 #@! TO.P,D44,1*
G04 #@! TO.N,ROW7*
X213172500Y-70104000D03*
G04 #@! TO.P,D44,2*
G04 #@! TO.N,Net-(D44-Pad2)*
X210372500Y-70104000D03*
D15*
G04 #@! TD*
G04 #@! TO.N,Net-(D44-Pad2)*
G04 #@! TO.C,D44*
X209272500Y-70104000D03*
D13*
G04 #@! TO.P,D45,1*
G04 #@! TO.N,ROW7*
X234674700Y-70091300D03*
D14*
G04 #@! TO.P,D45,2*
G04 #@! TO.N,Net-(D45-Pad2)*
X226874700Y-70091300D03*
D15*
G04 #@! TD*
G04 #@! TO.N,ROW7*
G04 #@! TO.C,D45*
X233274700Y-70091300D03*
D16*
G04 #@! TO.P,D45,1*
G04 #@! TO.N,ROW7*
X232174700Y-70091300D03*
G04 #@! TO.P,D45,2*
G04 #@! TO.N,Net-(D45-Pad2)*
X229374700Y-70091300D03*
D15*
G04 #@! TD*
G04 #@! TO.N,Net-(D45-Pad2)*
G04 #@! TO.C,D45*
X228274700Y-70091300D03*
D13*
G04 #@! TO.P,D46,1*
G04 #@! TO.N,ROW7*
X253747100Y-70104000D03*
D14*
G04 #@! TO.P,D46,2*
G04 #@! TO.N,Net-(D46-Pad2)*
X245947100Y-70104000D03*
D15*
G04 #@! TD*
G04 #@! TO.N,ROW7*
G04 #@! TO.C,D46*
X252347100Y-70104000D03*
D16*
G04 #@! TO.P,D46,1*
G04 #@! TO.N,ROW7*
X251247100Y-70104000D03*
G04 #@! TO.P,D46,2*
G04 #@! TO.N,Net-(D46-Pad2)*
X248447100Y-70104000D03*
D15*
G04 #@! TD*
G04 #@! TO.N,Net-(D46-Pad2)*
G04 #@! TO.C,D46*
X247347100Y-70104000D03*
D10*
G04 #@! TO.P,225u,1*
G04 #@! TO.N,COL5*
X159435800Y-73152000D03*
G04 #@! TO.P,225u,2*
G04 #@! TO.N,Net-(D42-Pad2)*
X153085800Y-75692000D03*
G04 #@! TD*
G04 #@! TO.P,625u,1*
G04 #@! TO.N,COL5*
X145135600Y-73177400D03*
G04 #@! TO.P,625u,2*
G04 #@! TO.N,Net-(D42-Pad2)*
X138785600Y-75717400D03*
G04 #@! TD*
G04 #@! TO.P,275u,1*
G04 #@! TO.N,COL4*
X111785400Y-73152000D03*
G04 #@! TO.P,275u,2*
G04 #@! TO.N,Net-(D41-Pad2)*
X105435400Y-75692000D03*
G04 #@! TD*
D17*
G04 #@! TO.P,LED2,1*
G04 #@! TO.N,VCC*
X40577600Y-84785000D03*
G04 #@! TO.P,LED2,2*
G04 #@! TO.N,Net-(LED2-Pad2)*
X40577600Y-81585000D03*
G04 #@! TO.P,LED2,4*
G04 #@! TO.N,Net-(LED1-Pad2)*
X45477600Y-84785000D03*
G04 #@! TO.P,LED2,3*
G04 #@! TO.N,GND*
X45477600Y-81585000D03*
G04 #@! TD*
G04 #@! TO.P,LED3,3*
G04 #@! TO.N,GND*
X73878100Y-84810600D03*
G04 #@! TO.P,LED3,4*
G04 #@! TO.N,Net-(LED2-Pad2)*
X73878100Y-81610600D03*
G04 #@! TO.P,LED3,2*
G04 #@! TO.N,Net-(LED3-Pad2)*
X78778100Y-84810600D03*
G04 #@! TO.P,LED3,1*
G04 #@! TO.N,VCC*
X78778100Y-81610600D03*
G04 #@! TD*
G04 #@! TO.P,LED4,3*
G04 #@! TO.N,GND*
X107989200Y-84835800D03*
G04 #@! TO.P,LED4,4*
G04 #@! TO.N,Net-(LED3-Pad2)*
X107989200Y-81635800D03*
G04 #@! TO.P,LED4,2*
G04 #@! TO.N,Net-(LED4-Pad2)*
X112889200Y-84835800D03*
G04 #@! TO.P,LED4,1*
G04 #@! TO.N,VCC*
X112889200Y-81635800D03*
G04 #@! TD*
G04 #@! TO.P,LED5,3*
G04 #@! TO.N,GND*
X152972600Y-84785000D03*
G04 #@! TO.P,LED5,4*
G04 #@! TO.N,Net-(LED4-Pad2)*
X152972600Y-81585000D03*
G04 #@! TO.P,LED5,2*
G04 #@! TO.N,Net-(LED5-Pad2)*
X157872600Y-84785000D03*
G04 #@! TO.P,LED5,1*
G04 #@! TO.N,VCC*
X157872600Y-81585000D03*
G04 #@! TD*
G04 #@! TO.P,LED6,1*
G04 #@! TO.N,VCC*
X188606600Y-81597700D03*
G04 #@! TO.P,LED6,2*
G04 #@! TO.N,Net-(LED6-Pad2)*
X188606600Y-84797700D03*
G04 #@! TO.P,LED6,4*
G04 #@! TO.N,Net-(LED5-Pad2)*
X183706600Y-81597700D03*
G04 #@! TO.P,LED6,3*
G04 #@! TO.N,GND*
X183706600Y-84797700D03*
G04 #@! TD*
G04 #@! TO.P,LED7,3*
G04 #@! TO.N,GND*
X223470300Y-84810400D03*
G04 #@! TO.P,LED7,4*
G04 #@! TO.N,Net-(LED6-Pad2)*
X223470300Y-81610400D03*
G04 #@! TO.P,LED7,2*
G04 #@! TO.N,N/C*
X228370300Y-84810400D03*
G04 #@! TO.P,LED7,1*
G04 #@! TO.N,VCC*
X228370300Y-81610400D03*
G04 #@! TD*
D18*
G04 #@! TO.P,SW0,2*
G04 #@! TO.N,GND*
X234192200Y-42951400D03*
G04 #@! TO.P,SW0,1*
G04 #@! TO.N,RST*
X229692200Y-42951400D03*
G04 #@! TO.P,SW0,2*
G04 #@! TO.N,GND*
X234192200Y-36451400D03*
G04 #@! TO.P,SW0,1*
G04 #@! TO.N,RST*
X229692200Y-36451400D03*
G04 #@! TD*
D19*
G04 #@! TO.P,J1,1*
G04 #@! TO.N,SDA*
X254368300Y-43764200D03*
D20*
G04 #@! TO.P,J1,2*
G04 #@! TO.N,SCL*
X254368300Y-41224200D03*
G04 #@! TO.P,J1,3*
G04 #@! TO.N,GND*
X254368300Y-38684200D03*
G04 #@! TO.P,J1,4*
G04 #@! TO.N,VCC*
X254368300Y-36144200D03*
G04 #@! TD*
D10*
G04 #@! TO.P,SW12a1,1*
G04 #@! TO.N,Net-(D13-Pad2)*
X247205500Y-26162000D03*
G04 #@! TO.P,SW12a1,2*
G04 #@! TO.N,COL5*
X253555500Y-23622000D03*
G04 #@! TD*
D21*
G04 #@! TO.N,ROW0*
X34384199Y-29298900D03*
X44754800Y-47142400D03*
X34378900Y-44488100D03*
G04 #@! TO.N,ROW3*
X47332900Y-71229001D03*
X46304200Y-54292500D03*
G04 #@! TO.N,ROW4*
X152869900Y-45034200D03*
X34594800Y-46926500D03*
G04 #@! TO.N,ROW1*
X35166300Y-30891699D03*
X37236400Y-45758100D03*
X42189400Y-45758100D03*
G04 #@! TO.N,ROW5*
X154076400Y-45759201D03*
X32054800Y-46875700D03*
G04 #@! TO.N,ROW2*
X55115000Y-43878500D03*
X39674800Y-44602400D03*
G04 #@! TO.N,ROW6*
X29514800Y-46723300D03*
G04 #@! TO.N,ROW7*
X188631899Y-62883999D03*
X159994600Y-62883999D03*
X156591000Y-48501300D03*
X27012900Y-46710600D03*
G04 #@! TO.N,Net-(D26-Pad2)*
X48272700Y-57759600D03*
G04 #@! TO.N,Net-(D36-Pad2)*
X222148400Y-51216126D03*
G04 #@! TO.N,COL0*
X28524200Y-27495500D03*
X166624000Y-27635200D03*
X36004500Y-35052000D03*
X37084000Y-42748200D03*
X48120301Y-55244999D03*
X48526700Y-43865800D03*
X47764700Y-72326500D03*
G04 #@! TO.N,COL1*
X52336700Y-26644600D03*
X185699400Y-27216100D03*
X56502300Y-66560700D03*
G04 #@! TO.N,COL2*
X71399400Y-26276300D03*
X204724000Y-26911300D03*
X76259301Y-66192400D03*
G04 #@! TO.N,COL3*
X90424000Y-25742900D03*
X223799400Y-26670000D03*
X94513400Y-66662300D03*
X227076000Y-46288526D03*
X232381626Y-46288526D03*
G04 #@! TO.N,COL4*
X109156500Y-25184100D03*
X254872101Y-64287400D03*
X116972801Y-64960500D03*
X233375200Y-25946100D03*
G04 #@! TO.N,COL5*
X127787400Y-24866600D03*
X135991600Y-66649600D03*
G04 #@! TO.N,COL6*
X152273000Y-64160400D03*
X26987500Y-63931800D03*
G04 #@! TO.N,GND*
X44170800Y-81585000D03*
X37493199Y-82410001D03*
X75234800Y-82810000D03*
X110401100Y-82829400D03*
X155473400Y-82816700D03*
X186245500Y-82816700D03*
X226098100Y-82816700D03*
X30835600Y-57721500D03*
G04 #@! TO.N,LED*
X19342100Y-61722000D03*
G04 #@! TO.N,Net-(LED1-Pad2)*
X50317400Y-75425300D03*
X52044600Y-85064600D03*
X47142400Y-85547200D03*
X58456999Y-61506100D03*
G04 #@! TO.N,VCC*
X45300900Y-61709300D03*
X76174600Y-83718400D03*
X80695400Y-81610600D03*
X226365200Y-81610600D03*
X186791600Y-81610600D03*
X156146500Y-81610600D03*
X111239300Y-81623300D03*
X49664501Y-84358599D03*
X42633900Y-84358599D03*
X221132400Y-81610600D03*
X220789500Y-46609000D03*
X24434800Y-63119000D03*
G04 #@! TO.N,Net-(LED2-Pad2)*
X46786800Y-83604100D03*
X73304400Y-83604100D03*
G04 #@! TO.N,Net-(LED3-Pad2)*
X79272700Y-83566000D03*
X107289600Y-83578700D03*
G04 #@! TO.N,Net-(LED4-Pad2)*
X113383600Y-83591400D03*
X151790400Y-83578700D03*
G04 #@! TO.N,Net-(LED5-Pad2)*
X182194200Y-83705700D03*
X158280100Y-83705700D03*
G04 #@! TO.N,Net-(LED6-Pad2)*
X189024800Y-83629500D03*
X221208600Y-83629500D03*
G04 #@! TO.N,RST*
X218249500Y-61607700D03*
G04 #@! TO.N,SDA*
X216750900Y-64465200D03*
X216750900Y-48971200D03*
G04 #@! TO.N,SCL*
X215773000Y-65620900D03*
X215773000Y-47929800D03*
G04 #@! TD*
D22*
G04 #@! TO.N,ROW0*
X44754800Y-51892200D02*
X44754800Y-47142400D01*
X34378900Y-44488100D02*
X34378900Y-29298900D01*
G04 #@! TO.N,Net-(D1-Pad2)*
X17347100Y-18543100D02*
X17348200Y-18542000D01*
X17347100Y-29298900D02*
X17347100Y-18543100D01*
G04 #@! TO.N,ROW3*
X46304200Y-62090300D02*
X47332900Y-63119000D01*
X46304200Y-54292500D02*
X46304200Y-62090300D01*
X47332900Y-71229001D02*
X47332900Y-63119000D01*
G04 #@! TO.N,Net-(D2-Pad2)*
X36384400Y-18555800D02*
X36398200Y-18542000D01*
X36384400Y-29260800D02*
X36384400Y-18555800D01*
G04 #@! TO.N,Net-(D3-Pad2)*
X55434400Y-18581200D02*
X55448200Y-18567400D01*
X55434400Y-29222700D02*
X55434400Y-18581200D01*
G04 #@! TO.N,ROW4*
X156525098Y-29260800D02*
X152768300Y-33017598D01*
X158497100Y-29260800D02*
X156525098Y-29260800D01*
X151814411Y-33971487D02*
X151814411Y-43978711D01*
X156525098Y-29260800D02*
X151814411Y-33971487D01*
X151814411Y-43978711D02*
X152844500Y-45008800D01*
X34594800Y-51892200D02*
X34594800Y-46926500D01*
X240742300Y-30387000D02*
X240742300Y-29337000D01*
X240446100Y-30683200D02*
X240742300Y-30387000D01*
X238064500Y-30683200D02*
X240446100Y-30683200D01*
X237895300Y-30852400D02*
X238064500Y-30683200D01*
X237895300Y-31902400D02*
X237895300Y-30852400D01*
G04 #@! TO.N,ROW1*
X35166300Y-30891699D02*
X35166300Y-43688000D01*
X35166300Y-43688000D02*
X37236400Y-45758100D01*
X42189400Y-51866800D02*
X42214800Y-51892200D01*
X42189400Y-45758100D02*
X42189400Y-51866800D01*
G04 #@! TO.N,Net-(D4-Pad2)*
X74484400Y-18555800D02*
X74498200Y-18542000D01*
X74484400Y-29248100D02*
X74484400Y-18555800D01*
G04 #@! TO.N,ROW5*
X156932958Y-33959800D02*
X152323800Y-38568958D01*
X160241100Y-33959800D02*
X156932958Y-33959800D01*
X163272300Y-31978600D02*
X162222300Y-31978600D01*
X162222300Y-31978600D02*
X160241100Y-33959800D01*
X154076400Y-45167698D02*
X154076400Y-45759201D01*
X152323800Y-43415098D02*
X154076400Y-45167698D01*
X152323800Y-38568958D02*
X152323800Y-43415098D01*
X32054800Y-51892200D02*
X32054800Y-46875700D01*
X32054800Y-46875700D02*
X32054800Y-46799500D01*
G04 #@! TO.N,Net-(D5-Pad2)*
X93509000Y-18606600D02*
X93548200Y-18567400D01*
X93509000Y-29248100D02*
X93509000Y-18606600D01*
G04 #@! TO.N,Net-(D6-Pad2)*
X112584400Y-18581200D02*
X112598200Y-18567400D01*
X112584400Y-29248100D02*
X112584400Y-18581200D01*
G04 #@! TO.N,ROW2*
X58471900Y-51003200D02*
X58484600Y-51015900D01*
X58471900Y-48285400D02*
X58471900Y-51003200D01*
X58471900Y-47854700D02*
X58471900Y-48285400D01*
X69723000Y-51285600D02*
X69377100Y-50939700D01*
X58471900Y-48285400D02*
X58471900Y-47235400D01*
X58471900Y-47235400D02*
X55115000Y-43878500D01*
X39674800Y-51892200D02*
X39674800Y-44602400D01*
G04 #@! TO.N,Net-(D7-Pad2)*
X131685200Y-18528200D02*
X131673600Y-18516600D01*
X131685200Y-29222700D02*
X131685200Y-18528200D01*
G04 #@! TO.N,ROW6*
X29514800Y-51892200D02*
X29514800Y-46723300D01*
G04 #@! TO.N,Net-(D8-Pad2)*
X150697100Y-18543100D02*
X150698200Y-18542000D01*
X150697100Y-29260800D02*
X150697100Y-18543100D01*
G04 #@! TO.N,Net-(D9-Pad2)*
X169759800Y-18553600D02*
X169748200Y-18542000D01*
X169759800Y-29222700D02*
X169759800Y-18553600D01*
G04 #@! TO.N,Net-(D10-Pad2)*
X188798200Y-29221600D02*
X188797100Y-29222700D01*
X188798200Y-18542000D02*
X188798200Y-29221600D01*
G04 #@! TO.N,Net-(D11-Pad2)*
X207848200Y-29259700D02*
X207847100Y-29260800D01*
X207848200Y-18542000D02*
X207848200Y-29259700D01*
G04 #@! TO.N,Net-(D12-Pad2)*
X226898200Y-23292900D02*
X232942300Y-29337000D01*
X226898200Y-18567400D02*
X226898200Y-23292900D01*
G04 #@! TO.N,Net-(D13-Pad2)*
X247205500Y-26162000D02*
X247205500Y-30392200D01*
X247205500Y-30392200D02*
X245695300Y-31902400D01*
G04 #@! TO.N,Net-(D14-Pad2)*
X17359800Y-35216000D02*
X19735800Y-37592000D01*
X17359800Y-31965900D02*
X17359800Y-35216000D01*
G04 #@! TO.N,Net-(D15-Pad2)*
X41159600Y-37580400D02*
X41148000Y-37592000D01*
X41159600Y-32016700D02*
X41159600Y-37580400D01*
G04 #@! TO.N,ROW7*
X193146800Y-67398900D02*
X194196800Y-67398900D01*
X188631899Y-62883999D02*
X193146800Y-67398900D01*
X156990999Y-59880398D02*
X159994600Y-62883999D01*
X156591000Y-48501300D02*
X156990999Y-48901299D01*
X156990999Y-48901299D02*
X156990999Y-59880398D01*
X27012900Y-51854100D02*
X26974800Y-51892200D01*
X27012900Y-46710600D02*
X27012900Y-51854100D01*
G04 #@! TO.N,Net-(D16-Pad2)*
X60209600Y-37578200D02*
X60223400Y-37592000D01*
X60209600Y-31978600D02*
X60209600Y-37578200D01*
G04 #@! TO.N,Net-(D17-Pad2)*
X79246900Y-37616300D02*
X79248000Y-37617400D01*
X79246900Y-31991300D02*
X79246900Y-37616300D01*
G04 #@! TO.N,Net-(D18-Pad2)*
X98347700Y-37567700D02*
X98323400Y-37592000D01*
X98347700Y-32016700D02*
X98347700Y-37567700D01*
G04 #@! TO.N,Net-(D19-Pad2)*
X117346900Y-37590900D02*
X117348000Y-37592000D01*
X117346900Y-32016700D02*
X117346900Y-37590900D01*
G04 #@! TO.N,Net-(D20-Pad2)*
X136396900Y-37616300D02*
X136398000Y-37617400D01*
X136396900Y-32004000D02*
X136396900Y-37616300D01*
G04 #@! TO.N,Net-(D22-Pad2)*
X174509600Y-37580400D02*
X174498000Y-37592000D01*
X174509600Y-31991300D02*
X174509600Y-37580400D01*
G04 #@! TO.N,Net-(D23-Pad2)*
X193585000Y-37580400D02*
X193573400Y-37592000D01*
X193585000Y-31978600D02*
X193585000Y-37580400D01*
G04 #@! TO.N,Net-(D24-Pad2)*
X213041400Y-37148600D02*
X212598000Y-37592000D01*
X213041400Y-32029400D02*
X213041400Y-37148600D01*
G04 #@! TO.N,Net-(D25-Pad2)*
X241250300Y-37590900D02*
X241249200Y-37592000D01*
X235661200Y-32004000D02*
X241249200Y-37592000D01*
X234430400Y-32004000D02*
X235661200Y-32004000D01*
G04 #@! TO.N,Net-(D26-Pad2)*
X48272700Y-56654700D02*
X48272700Y-57759600D01*
X49559599Y-55367801D02*
X48272700Y-56654700D01*
X50671900Y-48285400D02*
X49559599Y-49397701D01*
X49559599Y-49397701D02*
X49559599Y-55367801D01*
G04 #@! TO.N,Net-(D27-Pad2)*
X50698400Y-51029700D02*
X50684600Y-51015900D01*
X50698400Y-56642000D02*
X50698400Y-51029700D01*
G04 #@! TO.N,Net-(D28-Pad2)*
X64084200Y-51003200D02*
X61711200Y-51003200D01*
X69723000Y-56642000D02*
X64084200Y-51003200D01*
G04 #@! TO.N,Net-(D29-Pad2)*
X88798400Y-51260200D02*
X88465200Y-50927000D01*
X88798400Y-56667400D02*
X88798400Y-51260200D01*
G04 #@! TO.N,Net-(D30-Pad2)*
X107823000Y-51247500D02*
X107489800Y-50914300D01*
X107823000Y-56642000D02*
X107823000Y-51247500D01*
G04 #@! TO.N,Net-(D31-Pad2)*
X126873000Y-51260200D02*
X126527100Y-50914300D01*
X126873000Y-56642000D02*
X126873000Y-51260200D01*
G04 #@! TO.N,Net-(D32-Pad2)*
X145923000Y-51311000D02*
X145577100Y-50965100D01*
X145923000Y-56642000D02*
X145923000Y-51311000D01*
G04 #@! TO.N,Net-(D33-Pad2)*
X164973000Y-51247500D02*
X164652500Y-50927000D01*
X164973000Y-56667400D02*
X164973000Y-51247500D01*
G04 #@! TO.N,Net-(D34-Pad2)*
X184023000Y-51311000D02*
X183651700Y-50939700D01*
X184023000Y-56642000D02*
X184023000Y-51311000D01*
G04 #@! TO.N,Net-(D35-Pad2)*
X203098400Y-51042400D02*
X203071900Y-51015900D01*
X203098400Y-56642000D02*
X203098400Y-51042400D01*
G04 #@! TO.N,Net-(D36-Pad2)*
X222124900Y-56643900D02*
X222148400Y-56667400D01*
X222148400Y-55050954D02*
X222148400Y-56667400D01*
X222148400Y-51216126D02*
X222148400Y-51216126D01*
X222148400Y-51216126D02*
X222148400Y-55050954D01*
G04 #@! TO.N,Net-(D37-Pad2)*
X239328500Y-51764300D02*
X239328500Y-50914300D01*
X240499901Y-52935701D02*
X239328500Y-51764300D01*
X240499901Y-60553601D02*
X240499901Y-52935701D01*
X241642900Y-61696600D02*
X240499901Y-60553601D01*
G04 #@! TO.N,Net-(D38-Pad2)*
X17347100Y-75690900D02*
X17348200Y-75692000D01*
X17347100Y-70091300D02*
X17347100Y-75690900D01*
G04 #@! TO.N,Net-(D39-Pad2)*
X36397100Y-75690900D02*
X36398200Y-75692000D01*
X36397100Y-70091300D02*
X36397100Y-75690900D01*
G04 #@! TO.N,Net-(D40-Pad2)*
X67334300Y-75690900D02*
X67335400Y-75692000D01*
X67334300Y-70104000D02*
X67334300Y-75690900D01*
G04 #@! TO.N,Net-(D41-Pad2)*
X105434300Y-75690900D02*
X105435400Y-75692000D01*
X105435400Y-73419800D02*
X105435400Y-75692000D01*
X102145000Y-70129400D02*
X105435400Y-73419800D01*
G04 #@! TO.N,Net-(D42-Pad2)*
X153097400Y-75680400D02*
X153085800Y-75692000D01*
X153097400Y-70104000D02*
X153097400Y-75680400D01*
G04 #@! TO.N,Net-(D43-Pad2)*
X188772800Y-67522900D02*
X188896800Y-67398900D01*
X186410600Y-67412700D02*
X186396800Y-67398900D01*
X186410600Y-75692000D02*
X186410600Y-67412700D01*
G04 #@! TO.N,Net-(D44-Pad2)*
X207848200Y-70128300D02*
X207872500Y-70104000D01*
X207848200Y-75692000D02*
X207848200Y-70128300D01*
G04 #@! TO.N,Net-(D45-Pad2)*
X226898200Y-70114800D02*
X226874700Y-70091300D01*
X226898200Y-75717400D02*
X226898200Y-70114800D01*
G04 #@! TO.N,Net-(D46-Pad2)*
X245947100Y-75690900D02*
X245948200Y-75692000D01*
X245947100Y-70104000D02*
X245947100Y-75690900D01*
G04 #@! TO.N,COL0*
X157048200Y-16002000D02*
X166624000Y-25577800D01*
X161848800Y-35077400D02*
X161823400Y-35052000D01*
X28524200Y-20828000D02*
X28524200Y-27495500D01*
X23698200Y-16002000D02*
X28524200Y-20828000D01*
X166624000Y-25577800D02*
X166624000Y-35077400D01*
X28524200Y-27495500D02*
X28524200Y-35052000D01*
X171323000Y-39776400D02*
X171323000Y-54127400D01*
X166624000Y-35077400D02*
X171323000Y-39776400D01*
X48520300Y-54845000D02*
X48520300Y-43732400D01*
X48120301Y-55244999D02*
X48520300Y-54845000D01*
X36004500Y-41668700D02*
X37084000Y-42748200D01*
X36004500Y-35052000D02*
X36004500Y-41668700D01*
X47040800Y-56324500D02*
X48120301Y-55244999D01*
X47040800Y-61912500D02*
X47040800Y-56324500D01*
X48164699Y-63036399D02*
X47040800Y-61912500D01*
X47764700Y-72326500D02*
X48164699Y-71926501D01*
X48164699Y-71926501D02*
X48164699Y-63036399D01*
G04 #@! TO.N,COL1*
X176098200Y-16002000D02*
X185699400Y-25603200D01*
X52324000Y-25577800D02*
X52324000Y-35052000D01*
X42748200Y-16002000D02*
X52324000Y-25577800D01*
X185699400Y-25603200D02*
X185699400Y-35052000D01*
X196265799Y-72009001D02*
X195122800Y-73152000D01*
X196265799Y-59994799D02*
X196265799Y-72009001D01*
X190373000Y-54102000D02*
X196265799Y-59994799D01*
X190373000Y-39725600D02*
X190373000Y-54102000D01*
X185699400Y-35052000D02*
X190373000Y-39725600D01*
X56935802Y-39663802D02*
X52324000Y-35052000D01*
X56935802Y-44564300D02*
X56935802Y-39663802D01*
X60586199Y-48214697D02*
X56935802Y-44564300D01*
X60586199Y-52180647D02*
X60586199Y-48214697D01*
X58664846Y-54102000D02*
X60586199Y-52180647D01*
X57048400Y-54102000D02*
X58664846Y-54102000D01*
X57048400Y-66014600D02*
X56502300Y-66560700D01*
X57048400Y-54102000D02*
X57048400Y-66014600D01*
X56502300Y-66560700D02*
X49885600Y-73177400D01*
G04 #@! TO.N,COL2*
X71399400Y-25628600D02*
X71399400Y-35052000D01*
X61798200Y-16027400D02*
X71399400Y-25628600D01*
X204722899Y-35050899D02*
X204724000Y-35052000D01*
X204722899Y-26033899D02*
X204722899Y-35050899D01*
X195148200Y-16459200D02*
X195148200Y-16002000D01*
X204722899Y-26033899D02*
X195148200Y-16459200D01*
X76073000Y-55718446D02*
X76073000Y-54102000D01*
X76259301Y-55904747D02*
X76073000Y-55718446D01*
X76259301Y-72194545D02*
X76259301Y-66192400D01*
X75301846Y-73152000D02*
X76259301Y-72194545D01*
X73685400Y-73152000D02*
X75301846Y-73152000D01*
X76073000Y-39725600D02*
X71399400Y-35052000D01*
X76073000Y-54102000D02*
X76073000Y-39725600D01*
X204724000Y-35052000D02*
X209448400Y-39776400D01*
X215814646Y-73152000D02*
X214198200Y-73152000D01*
X216797501Y-72169145D02*
X215814646Y-73152000D01*
X209448400Y-54102000D02*
X211064846Y-54102000D01*
X214071200Y-65421899D02*
X216797501Y-68148200D01*
X214071200Y-57108354D02*
X214071200Y-65421899D01*
X216797501Y-68148200D02*
X216797501Y-72169145D01*
X211064846Y-54102000D02*
X214071200Y-57108354D01*
X214071200Y-52030198D02*
X214071200Y-57108354D01*
X209448400Y-47407398D02*
X214071200Y-52030198D01*
X209448400Y-39776400D02*
X209448400Y-47407398D01*
X76259301Y-66192400D02*
X76259301Y-55904747D01*
G04 #@! TO.N,COL3*
X214198200Y-16002000D02*
X223799400Y-25603200D01*
X218973400Y-35077400D02*
X218948000Y-35052000D01*
X80848200Y-16002000D02*
X90424000Y-25577800D01*
X223799400Y-25603200D02*
X223799400Y-35077400D01*
X90424000Y-25577800D02*
X90424000Y-35052000D01*
X95148400Y-39776400D02*
X95148400Y-54127400D01*
X90424000Y-35052000D02*
X95148400Y-39776400D01*
X95148400Y-54127400D02*
X95148400Y-66027300D01*
X95148400Y-66027300D02*
X94513400Y-66662300D01*
X234391199Y-72034401D02*
X233248200Y-73177400D01*
X235699299Y-72034401D02*
X234391199Y-72034401D01*
X228498400Y-54127400D02*
X231457500Y-54127400D01*
X231457500Y-54127400D02*
X235000800Y-57670700D01*
X237363000Y-70370700D02*
X235699299Y-72034401D01*
X237363000Y-62966600D02*
X237363000Y-70370700D01*
X235000800Y-60604400D02*
X237363000Y-62966600D01*
X235000800Y-57670700D02*
X235000800Y-60604400D01*
X223799400Y-35077400D02*
X225415846Y-35077400D01*
X225212328Y-54127400D02*
X223291400Y-52206472D01*
X228498400Y-54127400D02*
X225212328Y-54127400D01*
X223291400Y-50073126D02*
X227076000Y-46288526D01*
X223291400Y-52206472D02*
X223291400Y-50073126D01*
X227076000Y-46288526D02*
X227076000Y-46288526D01*
X232381626Y-46288526D02*
X232381626Y-42043180D01*
X225415846Y-35077400D02*
X232381626Y-42043180D01*
G04 #@! TO.N,COL4*
X109499400Y-35052000D02*
X109499400Y-25527000D01*
X99999800Y-16027400D02*
X99898200Y-16027400D01*
X109499400Y-25527000D02*
X99999800Y-16027400D01*
X254872101Y-72194545D02*
X254872101Y-64287400D01*
X253914646Y-73152000D02*
X254872101Y-72194545D01*
X252298200Y-73152000D02*
X253914646Y-73152000D01*
X114173000Y-39725600D02*
X114173000Y-54102000D01*
X109499400Y-35052000D02*
X114173000Y-39725600D01*
X254872101Y-52108100D02*
X254872101Y-64287400D01*
X251714000Y-48949999D02*
X254872101Y-52108100D01*
X251714000Y-39166800D02*
X251714000Y-48949999D01*
X247599200Y-35052000D02*
X251714000Y-39166800D01*
X111785400Y-73152000D02*
X111785400Y-70167500D01*
X117918402Y-64014899D02*
X116972801Y-64960500D01*
X117938001Y-64014899D02*
X117918402Y-64014899D01*
X117938001Y-56250555D02*
X117938001Y-64014899D01*
X114173000Y-54102000D02*
X115789446Y-54102000D01*
X115789446Y-54102000D02*
X117938001Y-56250555D01*
X116572802Y-65380098D02*
X111785400Y-70167500D01*
X116572802Y-65360499D02*
X116572802Y-65380098D01*
X116972801Y-64960500D02*
X116572802Y-65360499D01*
X233248200Y-25819100D02*
X233375200Y-25946100D01*
X233248200Y-16027400D02*
X233248200Y-25819100D01*
G04 #@! TO.N,COL5*
X253543900Y-23633600D02*
X253555500Y-23622000D01*
X118948200Y-16027400D02*
X127787400Y-24866600D01*
X128524000Y-25603200D02*
X128524000Y-35052000D01*
X127787400Y-24866600D02*
X128524000Y-25603200D01*
X133223000Y-39751000D02*
X133223000Y-54102000D01*
X128524000Y-35052000D02*
X133223000Y-39751000D01*
X135991600Y-66649600D02*
X129616200Y-73025000D01*
X136988001Y-65653199D02*
X135991600Y-66649600D01*
X136988001Y-56250555D02*
X136988001Y-65653199D01*
X134839446Y-54102000D02*
X136988001Y-56250555D01*
X133223000Y-54102000D02*
X134839446Y-54102000D01*
G04 #@! TO.N,COL6*
X147599400Y-25552400D02*
X138023600Y-15976600D01*
X147599400Y-35077400D02*
X147599400Y-25552400D01*
X152273000Y-49531098D02*
X152273000Y-54102000D01*
X151364401Y-48622499D02*
X152273000Y-49531098D01*
X151364401Y-38842401D02*
X151364401Y-48622499D01*
X147599400Y-35077400D02*
X151364401Y-38842401D01*
X152273000Y-64160400D02*
X152273000Y-54102000D01*
X26987500Y-67119500D02*
X26974800Y-67132200D01*
X26987500Y-63931800D02*
X26987500Y-67119500D01*
G04 #@! TO.N,GND*
X45477600Y-81585000D02*
X44170800Y-81585000D01*
X75128700Y-82810000D02*
X75234800Y-82810000D01*
X73878100Y-84060600D02*
X75128700Y-82810000D01*
X73878100Y-84810600D02*
X73878100Y-84060600D01*
X108989200Y-84835800D02*
X110375700Y-83449300D01*
X107989200Y-84835800D02*
X108989200Y-84835800D01*
X110375700Y-83449300D02*
X110375700Y-82829400D01*
X184264500Y-84797700D02*
X186245500Y-82816700D01*
X183706600Y-84797700D02*
X184264500Y-84797700D01*
X153505100Y-84785000D02*
X155473400Y-82816700D01*
X152972600Y-84785000D02*
X153505100Y-84785000D01*
X224104400Y-84810400D02*
X226098100Y-82816700D01*
X223470300Y-84810400D02*
X224104400Y-84810400D01*
X30264100Y-57721500D02*
X30835600Y-57721500D01*
X24434800Y-51892200D02*
X30264100Y-57721500D01*
X30835600Y-57721500D02*
X30861000Y-57721500D01*
G04 #@! TO.N,LED*
X19354800Y-51892200D02*
X19354800Y-58953400D01*
X19342100Y-58966100D02*
X19342100Y-61722000D01*
X19354800Y-58953400D02*
X19342100Y-58966100D01*
G04 #@! TO.N,Net-(LED1-Pad2)*
X58456999Y-67285701D02*
X50317400Y-75425300D01*
X50317400Y-83337400D02*
X52044600Y-85064600D01*
X50317400Y-75425300D02*
X50317400Y-83337400D01*
X46380200Y-84785000D02*
X47142400Y-85547200D01*
X45477600Y-84785000D02*
X46380200Y-84785000D01*
X58456999Y-67285701D02*
X58456999Y-61494501D01*
G04 #@! TO.N,VCC*
X40576500Y-84786100D02*
X40577600Y-84785000D01*
X77420300Y-83718400D02*
X76174600Y-83718400D01*
X78778100Y-82360600D02*
X77420300Y-83718400D01*
X78778100Y-81610600D02*
X78778100Y-82360600D01*
X78778100Y-81610600D02*
X80695400Y-81610600D01*
X228370100Y-81610600D02*
X228370300Y-81610400D01*
X226365200Y-81610600D02*
X228370100Y-81610600D01*
X156172100Y-81585000D02*
X156146500Y-81610600D01*
X157872600Y-81585000D02*
X156172100Y-81585000D01*
X186804500Y-81597700D02*
X186791600Y-81610600D01*
X188606600Y-81597700D02*
X186804500Y-81597700D01*
X42207499Y-84785000D02*
X42633900Y-84358599D01*
X40577600Y-84785000D02*
X42207499Y-84785000D01*
X221132400Y-81044915D02*
X219417900Y-79330415D01*
X221132400Y-81610600D02*
X221132400Y-81044915D01*
X219417900Y-79330415D02*
X219417900Y-69621400D01*
X217475901Y-67679401D02*
X217475901Y-49922599D01*
X219417900Y-69621400D02*
X217475901Y-67679401D01*
X217475901Y-49922599D02*
X220789500Y-46609000D01*
X49664501Y-76423401D02*
X46126400Y-72885300D01*
X46126400Y-72885300D02*
X46126400Y-67867699D01*
X49664501Y-84358599D02*
X49664501Y-76423401D01*
X46126400Y-67867699D02*
X46607899Y-67386200D01*
X45300900Y-62274985D02*
X45300900Y-61709300D01*
X46607899Y-67386200D02*
X46607899Y-63581984D01*
X46607899Y-63581984D02*
X45300900Y-62274985D01*
X24434800Y-63684685D02*
X24434800Y-67132200D01*
X24434800Y-63119000D02*
X24434800Y-63684685D01*
X112876700Y-81623300D02*
X112889200Y-81635800D01*
X111239300Y-81623300D02*
X112876700Y-81623300D01*
G04 #@! TO.N,Net-(LED2-Pad2)*
X40577600Y-82335000D02*
X41846700Y-83604100D01*
X40577600Y-81585000D02*
X40577600Y-82335000D01*
X41846700Y-83604100D02*
X46786800Y-83604100D01*
X73878100Y-83030400D02*
X73304400Y-83604100D01*
X73878100Y-81610600D02*
X73878100Y-83030400D01*
G04 #@! TO.N,Net-(LED3-Pad2)*
X78778100Y-84060600D02*
X79272700Y-83566000D01*
X78778100Y-84810600D02*
X78778100Y-84060600D01*
X107989200Y-82879100D02*
X107289600Y-83578700D01*
X107989200Y-81635800D02*
X107989200Y-82879100D01*
G04 #@! TO.N,Net-(LED4-Pad2)*
X112889200Y-84085800D02*
X113383600Y-83591400D01*
X112889200Y-84835800D02*
X112889200Y-84085800D01*
X152972600Y-82396500D02*
X151790400Y-83578700D01*
X152972600Y-81585000D02*
X152972600Y-82396500D01*
G04 #@! TO.N,Net-(LED5-Pad2)*
X182348600Y-83705700D02*
X182194200Y-83705700D01*
X183706600Y-82347700D02*
X182348600Y-83705700D01*
X183706600Y-81597700D02*
X183706600Y-82347700D01*
X157872600Y-84113200D02*
X158280100Y-83705700D01*
X157872600Y-84785000D02*
X157872600Y-84113200D01*
G04 #@! TO.N,Net-(LED6-Pad2)*
X188606600Y-84047700D02*
X189024800Y-83629500D01*
X188606600Y-84797700D02*
X188606600Y-84047700D01*
X223220300Y-81610400D02*
X221201200Y-83629500D01*
X223470300Y-81610400D02*
X223220300Y-81610400D01*
G04 #@! TO.N,RST*
X224933001Y-43951399D02*
X218249500Y-50634900D01*
X229692200Y-42951400D02*
X228692201Y-43951399D01*
X228692201Y-43951399D02*
X224933001Y-43951399D01*
X218249500Y-50634900D02*
X218249500Y-61607700D01*
X22288500Y-66738500D02*
X21894800Y-67132200D01*
G04 #@! TO.N,SDA*
X216750900Y-64465200D02*
X216750900Y-48971200D01*
G04 #@! TO.N,SCL*
X215773000Y-65620900D02*
X215773000Y-47929800D01*
G04 #@! TD*
M02*
