G04 #@! TF.GenerationSoftware,KiCad,Pcbnew,(5.0.2)-1*
G04 #@! TF.CreationDate,2019-02-24T12:45:01-05:00*
G04 #@! TF.ProjectId,TG4x,54473478-2e6b-4696-9361-645f70636258,rev?*
G04 #@! TF.SameCoordinates,Original*
G04 #@! TF.FileFunction,Copper,L2,Bot*
G04 #@! TF.FilePolarity,Positive*
%FSLAX46Y46*%
G04 Gerber Fmt 4.6, Leading zero omitted, Abs format (unit mm)*
G04 Created by KiCad (PCBNEW (5.0.2)-1) date 2/24/2019 12:45:01 PM*
%MOMM*%
%LPD*%
G01*
G04 APERTURE LIST*
G04 #@! TA.AperFunction,ComponentPad*
%ADD10C,2.286000*%
G04 #@! TD*
G04 #@! TA.AperFunction,ComponentPad*
%ADD11C,2.000000*%
G04 #@! TD*
G04 #@! TA.AperFunction,ComponentPad*
%ADD12R,1.752600X1.752600*%
G04 #@! TD*
G04 #@! TA.AperFunction,ComponentPad*
%ADD13C,1.752600*%
G04 #@! TD*
G04 #@! TA.AperFunction,ComponentPad*
%ADD14R,1.600000X1.600000*%
G04 #@! TD*
G04 #@! TA.AperFunction,ComponentPad*
%ADD15O,1.600000X1.600000*%
G04 #@! TD*
G04 #@! TA.AperFunction,SMDPad,CuDef*
%ADD16R,1.500000X1.000000*%
G04 #@! TD*
G04 #@! TA.AperFunction,ViaPad*
%ADD17C,0.800000*%
G04 #@! TD*
G04 #@! TA.AperFunction,Conductor*
%ADD18C,0.250000*%
G04 #@! TD*
G04 APERTURE END LIST*
D10*
G04 #@! TO.P,SW5,1*
G04 #@! TO.N,Net-(SW5-Pad1)*
X56438800Y-43611800D03*
G04 #@! TO.P,SW5,2*
G04 #@! TO.N,Net-(D5-Pad2)*
X50088800Y-46151800D03*
G04 #@! TD*
G04 #@! TO.P,SW13,1*
G04 #@! TO.N,Net-(SW13-Pad1)*
X94615000Y-43484800D03*
G04 #@! TO.P,SW13,2*
G04 #@! TO.N,Net-(D13-Pad2)*
X88265000Y-46024800D03*
G04 #@! TD*
G04 #@! TO.P,SW23,1*
G04 #@! TO.N,Net-(SW23-Pad1)*
X151739600Y-43586400D03*
G04 #@! TO.P,SW23,2*
G04 #@! TO.N,Net-(D23-Pad2)*
X145389600Y-46126400D03*
G04 #@! TD*
G04 #@! TO.P,SW19,1*
G04 #@! TO.N,Net-(SW19-Pad1)*
X132638800Y-43561000D03*
G04 #@! TO.P,SW19,2*
G04 #@! TO.N,Net-(D19-Pad2)*
X126288800Y-46101000D03*
G04 #@! TD*
G04 #@! TO.P,SW37,1*
G04 #@! TO.N,Net-(SW37-Pad1)*
X227965000Y-43586400D03*
G04 #@! TO.P,SW37,2*
G04 #@! TO.N,Net-(D37-Pad2)*
X221615000Y-46126400D03*
G04 #@! TD*
G04 #@! TO.P,SW2,1*
G04 #@! TO.N,Net-(SW1-Pad1)*
X37084000Y-100584000D03*
G04 #@! TO.P,SW2,2*
G04 #@! TO.N,Net-(D2-Pad2)*
X30734000Y-103124000D03*
G04 #@! TD*
G04 #@! TO.P,SW40,1*
G04 #@! TO.N,Net-(SW37-Pad1)*
X246888000Y-100584000D03*
G04 #@! TO.P,SW40,2*
G04 #@! TO.N,Net-(D40-Pad2)*
X240538000Y-103124000D03*
G04 #@! TD*
D11*
G04 #@! TO.P,SW46,2*
G04 #@! TO.N,Net-(SW46-Pad2)*
X28520000Y-77914500D03*
G04 #@! TO.P,SW46,1*
G04 #@! TO.N,Net-(D46-Pad3)*
X33020000Y-77914500D03*
G04 #@! TO.P,SW46,2*
G04 #@! TO.N,Net-(SW46-Pad2)*
X28520000Y-84414500D03*
G04 #@! TO.P,SW46,1*
G04 #@! TO.N,Net-(D46-Pad3)*
X33020000Y-84414500D03*
G04 #@! TD*
D12*
G04 #@! TO.P,U1,1*
G04 #@! TO.N,Net-(D1-Pad1)*
X28956000Y-59461400D03*
D13*
G04 #@! TO.P,U1,2*
G04 #@! TO.N,Net-(SW26-Pad1)*
X31496000Y-59918600D03*
G04 #@! TO.P,U1,3*
G04 #@! TO.N,Net-(U1-Pad3)*
X34036000Y-59461400D03*
G04 #@! TO.P,U1,4*
G04 #@! TO.N,Net-(U1-Pad4)*
X36576000Y-59918600D03*
G04 #@! TO.P,U1,5*
G04 #@! TO.N,Net-(D11-Pad1)*
X39116000Y-59461400D03*
G04 #@! TO.P,U1,6*
G04 #@! TO.N,Net-(SW23-Pad1)*
X41656000Y-59918600D03*
G04 #@! TO.P,U1,7*
G04 #@! TO.N,Net-(SW19-Pad1)*
X44196000Y-59461400D03*
G04 #@! TO.P,U1,8*
G04 #@! TO.N,Net-(SW16-Pad1)*
X46736000Y-59918600D03*
G04 #@! TO.P,U1,9*
G04 #@! TO.N,Net-(SW13-Pad1)*
X49276000Y-59461400D03*
G04 #@! TO.P,U1,10*
G04 #@! TO.N,Net-(SW10-Pad1)*
X51816000Y-59918600D03*
G04 #@! TO.P,U1,11*
G04 #@! TO.N,Net-(SW5-Pad1)*
X54356000Y-59461400D03*
G04 #@! TO.P,U1,13*
G04 #@! TO.N,Net-(D46-Pad4)*
X56896000Y-74701400D03*
G04 #@! TO.P,U1,14*
G04 #@! TO.N,Net-(SW45-Pad1)*
X54356000Y-75158600D03*
G04 #@! TO.P,U1,15*
G04 #@! TO.N,Net-(SW41-Pad1)*
X51816000Y-74701400D03*
G04 #@! TO.P,U1,16*
G04 #@! TO.N,Net-(SW37-Pad1)*
X49276000Y-75158600D03*
G04 #@! TO.P,U1,17*
G04 #@! TO.N,Net-(SW33-Pad1)*
X46736000Y-74701400D03*
G04 #@! TO.P,U1,18*
G04 #@! TO.N,Net-(SW29-Pad1)*
X44196000Y-75158600D03*
G04 #@! TO.P,U1,19*
G04 #@! TO.N,Net-(D12-Pad1)*
X41656000Y-74701400D03*
G04 #@! TO.P,U1,20*
G04 #@! TO.N,Net-(D10-Pad1)*
X39116000Y-75158600D03*
G04 #@! TO.P,U1,21*
G04 #@! TO.N,Net-(D46-Pad1)*
X36576000Y-74701400D03*
G04 #@! TO.P,U1,22*
G04 #@! TO.N,Net-(SW46-Pad2)*
X34036000Y-75158600D03*
G04 #@! TO.P,U1,23*
G04 #@! TO.N,Net-(D46-Pad3)*
X31496000Y-74701400D03*
G04 #@! TO.P,U1,12*
G04 #@! TO.N,Net-(SW1-Pad1)*
X56896000Y-59918600D03*
G04 #@! TO.P,U1,24*
G04 #@! TO.N,Net-(U1-Pad24)*
X28956000Y-75158600D03*
G04 #@! TD*
D10*
G04 #@! TO.P,SW22,1*
G04 #@! TO.N,Net-(SW19-Pad1)*
X141986000Y-100584000D03*
G04 #@! TO.P,SW22,2*
G04 #@! TO.N,Net-(D22-Pad2)*
X135636000Y-103124000D03*
G04 #@! TD*
G04 #@! TO.P,SW11,1*
G04 #@! TO.N,Net-(SW10-Pad1)*
X80314800Y-62560200D03*
G04 #@! TO.P,SW11,2*
G04 #@! TO.N,Net-(D11-Pad2)*
X73964800Y-65100200D03*
G04 #@! TD*
G04 #@! TO.P,SW8,1*
G04 #@! TO.N,Net-(SW5-Pad1)*
X70612000Y-81534000D03*
G04 #@! TO.P,SW8,2*
G04 #@! TO.N,Net-(D8-Pad2)*
X64262000Y-84074000D03*
G04 #@! TD*
G04 #@! TO.P,SW7,1*
G04 #@! TO.N,Net-(SW5-Pad1)*
X61239400Y-62560200D03*
G04 #@! TO.P,SW7,2*
G04 #@! TO.N,Net-(D7-Pad2)*
X54889400Y-65100200D03*
G04 #@! TD*
G04 #@! TO.P,SW43,1*
G04 #@! TO.N,Net-(SW41-Pad1)*
X263398000Y-81534000D03*
G04 #@! TO.P,SW43,2*
G04 #@! TO.N,Net-(D43-Pad2)*
X257048000Y-84074000D03*
G04 #@! TD*
G04 #@! TO.P,SW42,1*
G04 #@! TO.N,Net-(SW41-Pad1)*
X258826000Y-62484000D03*
G04 #@! TO.P,SW42,2*
G04 #@! TO.N,Net-(D42-Pad2)*
X252476000Y-65024000D03*
G04 #@! TD*
G04 #@! TO.P,SW3,1*
G04 #@! TO.N,Net-(SW1-Pad1)*
X39370000Y-62230000D03*
G04 #@! TO.P,SW3,2*
G04 #@! TO.N,Net-(D3-Pad2)*
X33020000Y-64770000D03*
G04 #@! TD*
G04 #@! TO.P,SW4,2*
G04 #@! TO.N,Net-(D4-Pad2)*
X37846000Y-84074000D03*
G04 #@! TO.P,SW4,1*
G04 #@! TO.N,Net-(SW1-Pad1)*
X44196000Y-81534000D03*
G04 #@! TD*
G04 #@! TO.P,SW30,1*
G04 #@! TO.N,Net-(SW29-Pad1)*
X194640200Y-62661800D03*
G04 #@! TO.P,SW30,2*
G04 #@! TO.N,Net-(D30-Pad2)*
X188290200Y-65201800D03*
G04 #@! TD*
G04 #@! TO.P,SW12,1*
G04 #@! TO.N,Net-(SW10-Pad1)*
X89662000Y-81534000D03*
G04 #@! TO.P,SW12,2*
G04 #@! TO.N,Net-(D12-Pad2)*
X83312000Y-84074000D03*
G04 #@! TD*
G04 #@! TO.P,SW38,1*
G04 #@! TO.N,Net-(SW37-Pad1)*
X232740200Y-62661800D03*
G04 #@! TO.P,SW38,2*
G04 #@! TO.N,Net-(D38-Pad2)*
X226390200Y-65201800D03*
G04 #@! TD*
G04 #@! TO.P,SW20,1*
G04 #@! TO.N,Net-(SW19-Pad1)*
X137464800Y-62636400D03*
G04 #@! TO.P,SW20,2*
G04 #@! TO.N,Net-(D20-Pad2)*
X131114800Y-65176400D03*
G04 #@! TD*
G04 #@! TO.P,SW15,1*
G04 #@! TO.N,Net-(SW13-Pad1)*
X108712000Y-81534000D03*
G04 #@! TO.P,SW15,2*
G04 #@! TO.N,Net-(D15-Pad2)*
X102362000Y-84074000D03*
G04 #@! TD*
G04 #@! TO.P,SW14,1*
G04 #@! TO.N,Net-(SW13-Pad1)*
X99364800Y-62712600D03*
G04 #@! TO.P,SW14,2*
G04 #@! TO.N,Net-(D14-Pad2)*
X93014800Y-65252600D03*
G04 #@! TD*
G04 #@! TO.P,SW18,1*
G04 #@! TO.N,Net-(SW16-Pad1)*
X127762000Y-81534000D03*
G04 #@! TO.P,SW18,2*
G04 #@! TO.N,Net-(D18-Pad2)*
X121412000Y-84074000D03*
G04 #@! TD*
G04 #@! TO.P,SW21,1*
G04 #@! TO.N,Net-(SW19-Pad1)*
X146812000Y-81534000D03*
G04 #@! TO.P,SW21,2*
G04 #@! TO.N,Net-(D21-Pad2)*
X140462000Y-84074000D03*
G04 #@! TD*
G04 #@! TO.P,SW36,1*
G04 #@! TO.N,Net-(SW33-Pad1)*
X227838000Y-100584000D03*
G04 #@! TO.P,SW36,2*
G04 #@! TO.N,Net-(D36-Pad2)*
X221488000Y-103124000D03*
G04 #@! TD*
G04 #@! TO.P,SW27,1*
G04 #@! TO.N,Net-(SW26-Pad1)*
X175564800Y-62687200D03*
G04 #@! TO.P,SW27,2*
G04 #@! TO.N,Net-(D27-Pad2)*
X169214800Y-65227200D03*
G04 #@! TD*
G04 #@! TO.P,SW33,1*
G04 #@! TO.N,Net-(SW33-Pad1)*
X208915000Y-43586400D03*
G04 #@! TO.P,SW33,2*
G04 #@! TO.N,Net-(D33-Pad2)*
X202565000Y-46126400D03*
G04 #@! TD*
G04 #@! TO.P,SW9,1*
G04 #@! TO.N,Net-(SW10-Pad1)*
X75565000Y-43611800D03*
G04 #@! TO.P,SW9,2*
G04 #@! TO.N,Net-(D9-Pad2)*
X69215000Y-46151800D03*
G04 #@! TD*
G04 #@! TO.P,SW32,1*
G04 #@! TO.N,Net-(SW29-Pad1)*
X208788000Y-100584000D03*
G04 #@! TO.P,SW32,2*
G04 #@! TO.N,Net-(D32-Pad2)*
X202438000Y-103124000D03*
G04 #@! TD*
G04 #@! TO.P,SW17,1*
G04 #@! TO.N,Net-(SW16-Pad1)*
X118440200Y-62611000D03*
G04 #@! TO.P,SW17,2*
G04 #@! TO.N,Net-(D17-Pad2)*
X112090200Y-65151000D03*
G04 #@! TD*
G04 #@! TO.P,SW31,1*
G04 #@! TO.N,Net-(SW29-Pad1)*
X203962000Y-81534000D03*
G04 #@! TO.P,SW31,2*
G04 #@! TO.N,Net-(D31-Pad2)*
X197612000Y-84074000D03*
G04 #@! TD*
G04 #@! TO.P,SW16,1*
G04 #@! TO.N,Net-(SW16-Pad1)*
X113588800Y-43637200D03*
G04 #@! TO.P,SW16,2*
G04 #@! TO.N,Net-(D16-Pad2)*
X107238800Y-46177200D03*
G04 #@! TD*
G04 #@! TO.P,SW28,1*
G04 #@! TO.N,Net-(SW26-Pad1)*
X184912000Y-81534000D03*
G04 #@! TO.P,SW28,2*
G04 #@! TO.N,Net-(D28-Pad2)*
X178562000Y-84074000D03*
G04 #@! TD*
G04 #@! TO.P,SW10,1*
G04 #@! TO.N,Net-(SW10-Pad1)*
X75184000Y-100584000D03*
G04 #@! TO.P,SW10,2*
G04 #@! TO.N,Net-(D10-Pad2)*
X68834000Y-103124000D03*
G04 #@! TD*
G04 #@! TO.P,SW35,1*
G04 #@! TO.N,Net-(SW33-Pad1)*
X223012000Y-81534000D03*
G04 #@! TO.P,SW35,2*
G04 #@! TO.N,Net-(D35-Pad2)*
X216662000Y-84074000D03*
G04 #@! TD*
G04 #@! TO.P,SW24,1*
G04 #@! TO.N,Net-(SW23-Pad1)*
X156514800Y-62661800D03*
G04 #@! TO.P,SW24,2*
G04 #@! TO.N,Net-(D24-Pad2)*
X150164800Y-65201800D03*
G04 #@! TD*
G04 #@! TO.P,SW1,1*
G04 #@! TO.N,Net-(SW1-Pad1)*
X37414200Y-43561000D03*
G04 #@! TO.P,SW1,2*
G04 #@! TO.N,Net-(D1-Pad2)*
X31064200Y-46101000D03*
G04 #@! TD*
G04 #@! TO.P,SW26,1*
G04 #@! TO.N,Net-(SW26-Pad1)*
X170840400Y-43637200D03*
G04 #@! TO.P,SW26,2*
G04 #@! TO.N,Net-(D26-Pad2)*
X164490400Y-46177200D03*
G04 #@! TD*
G04 #@! TO.P,SW29,1*
G04 #@! TO.N,Net-(SW29-Pad1)*
X189839600Y-43561000D03*
G04 #@! TO.P,SW29,2*
G04 #@! TO.N,Net-(D29-Pad2)*
X183489600Y-46101000D03*
G04 #@! TD*
G04 #@! TO.P,SW41,1*
G04 #@! TO.N,Net-(SW41-Pad1)*
X247015000Y-43611800D03*
G04 #@! TO.P,SW41,2*
G04 #@! TO.N,Net-(D41-Pad2)*
X240665000Y-46151800D03*
G04 #@! TD*
G04 #@! TO.P,SW25,1*
G04 #@! TO.N,Net-(SW23-Pad1)*
X165862000Y-81534000D03*
G04 #@! TO.P,SW25,2*
G04 #@! TO.N,Net-(D25-Pad2)*
X159512000Y-84074000D03*
G04 #@! TD*
G04 #@! TO.P,SW34,1*
G04 #@! TO.N,Net-(SW33-Pad1)*
X213690200Y-62611000D03*
G04 #@! TO.P,SW34,2*
G04 #@! TO.N,Net-(D34-Pad2)*
X207340200Y-65151000D03*
G04 #@! TD*
G04 #@! TO.P,SW39,1*
G04 #@! TO.N,Net-(SW37-Pad1)*
X242062000Y-81534000D03*
G04 #@! TO.P,SW39,2*
G04 #@! TO.N,Net-(D39-Pad2)*
X235712000Y-84074000D03*
G04 #@! TD*
G04 #@! TO.P,SW45,1*
G04 #@! TO.N,Net-(SW45-Pad1)*
X266090400Y-43611800D03*
G04 #@! TO.P,SW45,2*
G04 #@! TO.N,Net-(D45-Pad2)*
X259740400Y-46151800D03*
G04 #@! TD*
G04 #@! TO.P,SW44,1*
G04 #@! TO.N,Net-(SW41-Pad1)*
X265938000Y-100584000D03*
G04 #@! TO.P,SW44,2*
G04 #@! TO.N,Net-(D44-Pad2)*
X259588000Y-103124000D03*
G04 #@! TD*
G04 #@! TO.P,SW6,1*
G04 #@! TO.N,Net-(SW5-Pad1)*
X56134000Y-100584000D03*
G04 #@! TO.P,SW6,2*
G04 #@! TO.N,Net-(D6-Pad2)*
X49784000Y-103124000D03*
G04 #@! TD*
D14*
G04 #@! TO.P,D7,1*
G04 #@! TO.N,Net-(D11-Pad1)*
X50292000Y-70612000D03*
D15*
G04 #@! TO.P,D7,2*
G04 #@! TO.N,Net-(D7-Pad2)*
X50292000Y-62992000D03*
G04 #@! TD*
G04 #@! TO.P,D39,2*
G04 #@! TO.N,Net-(D39-Pad2)*
X230733600Y-84099400D03*
D14*
G04 #@! TO.P,D39,1*
G04 #@! TO.N,Net-(D12-Pad1)*
X230733600Y-91719400D03*
G04 #@! TD*
G04 #@! TO.P,D1,1*
G04 #@! TO.N,Net-(D1-Pad1)*
X43180000Y-52324000D03*
D15*
G04 #@! TO.P,D1,2*
G04 #@! TO.N,Net-(D1-Pad2)*
X43180000Y-44704000D03*
G04 #@! TD*
D14*
G04 #@! TO.P,D6,1*
G04 #@! TO.N,Net-(D10-Pad1)*
X61849000Y-110617000D03*
D15*
G04 #@! TO.P,D6,2*
G04 #@! TO.N,Net-(D6-Pad2)*
X61849000Y-102997000D03*
G04 #@! TD*
D14*
G04 #@! TO.P,D8,1*
G04 #@! TO.N,Net-(D12-Pad1)*
X59258200Y-91541600D03*
D15*
G04 #@! TO.P,D8,2*
G04 #@! TO.N,Net-(D8-Pad2)*
X59258200Y-83921600D03*
G04 #@! TD*
G04 #@! TO.P,D10,2*
G04 #@! TO.N,Net-(D10-Pad2)*
X64236600Y-102997000D03*
D14*
G04 #@! TO.P,D10,1*
G04 #@! TO.N,Net-(D10-Pad1)*
X64236600Y-110617000D03*
G04 #@! TD*
D15*
G04 #@! TO.P,D2,2*
G04 #@! TO.N,Net-(D2-Pad2)*
X29464000Y-96266000D03*
D14*
G04 #@! TO.P,D2,1*
G04 #@! TO.N,Net-(D10-Pad1)*
X29464000Y-88646000D03*
G04 #@! TD*
D15*
G04 #@! TO.P,D43,2*
G04 #@! TO.N,Net-(D43-Pad2)*
X251993400Y-83921600D03*
D14*
G04 #@! TO.P,D43,1*
G04 #@! TO.N,Net-(D12-Pad1)*
X251993400Y-91541600D03*
G04 #@! TD*
D15*
G04 #@! TO.P,D42,2*
G04 #@! TO.N,Net-(D42-Pad2)*
X246913400Y-64947800D03*
D14*
G04 #@! TO.P,D42,1*
G04 #@! TO.N,Net-(D11-Pad1)*
X246913400Y-72567800D03*
G04 #@! TD*
G04 #@! TO.P,D38,1*
G04 #@! TO.N,Net-(D11-Pad1)*
X221183200Y-72567800D03*
D15*
G04 #@! TO.P,D38,2*
G04 #@! TO.N,Net-(D38-Pad2)*
X221183200Y-64947800D03*
G04 #@! TD*
D14*
G04 #@! TO.P,D4,1*
G04 #@! TO.N,Net-(D12-Pad1)*
X33274000Y-95694500D03*
D15*
G04 #@! TO.P,D4,2*
G04 #@! TO.N,Net-(D4-Pad2)*
X33274000Y-88074500D03*
G04 #@! TD*
G04 #@! TO.P,D5,2*
G04 #@! TO.N,Net-(D5-Pad2)*
X45974000Y-44704000D03*
D14*
G04 #@! TO.P,D5,1*
G04 #@! TO.N,Net-(D1-Pad1)*
X45974000Y-52324000D03*
G04 #@! TD*
D15*
G04 #@! TO.P,D3,2*
G04 #@! TO.N,Net-(D3-Pad2)*
X47244000Y-70612000D03*
D14*
G04 #@! TO.P,D3,1*
G04 #@! TO.N,Net-(D11-Pad1)*
X47244000Y-62992000D03*
G04 #@! TD*
G04 #@! TO.P,D9,1*
G04 #@! TO.N,Net-(D1-Pad1)*
X63500000Y-53467000D03*
D15*
G04 #@! TO.P,D9,2*
G04 #@! TO.N,Net-(D9-Pad2)*
X63500000Y-45847000D03*
G04 #@! TD*
G04 #@! TO.P,D11,2*
G04 #@! TO.N,Net-(D11-Pad2)*
X68681600Y-65176400D03*
D14*
G04 #@! TO.P,D11,1*
G04 #@! TO.N,Net-(D11-Pad1)*
X68681600Y-72796400D03*
G04 #@! TD*
G04 #@! TO.P,D13,1*
G04 #@! TO.N,Net-(D1-Pad1)*
X82727800Y-53467000D03*
D15*
G04 #@! TO.P,D13,2*
G04 #@! TO.N,Net-(D13-Pad2)*
X82727800Y-45847000D03*
G04 #@! TD*
D14*
G04 #@! TO.P,D15,1*
G04 #@! TO.N,Net-(D12-Pad1)*
X97637600Y-91643200D03*
D15*
G04 #@! TO.P,D15,2*
G04 #@! TO.N,Net-(D15-Pad2)*
X97637600Y-84023200D03*
G04 #@! TD*
G04 #@! TO.P,D16,2*
G04 #@! TO.N,Net-(D16-Pad2)*
X101828600Y-45897800D03*
D14*
G04 #@! TO.P,D16,1*
G04 #@! TO.N,Net-(D1-Pad1)*
X101828600Y-53517800D03*
G04 #@! TD*
G04 #@! TO.P,D17,1*
G04 #@! TO.N,Net-(D11-Pad1)*
X106705400Y-72593200D03*
D15*
G04 #@! TO.P,D17,2*
G04 #@! TO.N,Net-(D17-Pad2)*
X106705400Y-64973200D03*
G04 #@! TD*
G04 #@! TO.P,D18,2*
G04 #@! TO.N,Net-(D18-Pad2)*
X116636800Y-84251800D03*
D14*
G04 #@! TO.P,D18,1*
G04 #@! TO.N,Net-(D12-Pad1)*
X116636800Y-91871800D03*
G04 #@! TD*
G04 #@! TO.P,D19,1*
G04 #@! TO.N,Net-(D1-Pad1)*
X121005600Y-53492400D03*
D15*
G04 #@! TO.P,D19,2*
G04 #@! TO.N,Net-(D19-Pad2)*
X121005600Y-45872400D03*
G04 #@! TD*
G04 #@! TO.P,D22,2*
G04 #@! TO.N,Net-(D22-Pad2)*
X130556000Y-103124000D03*
D14*
G04 #@! TO.P,D22,1*
G04 #@! TO.N,Net-(D10-Pad1)*
X130556000Y-110744000D03*
G04 #@! TD*
D15*
G04 #@! TO.P,D12,2*
G04 #@! TO.N,Net-(D12-Pad2)*
X78003400Y-83997800D03*
D14*
G04 #@! TO.P,D12,1*
G04 #@! TO.N,Net-(D12-Pad1)*
X78003400Y-91617800D03*
G04 #@! TD*
G04 #@! TO.P,D23,1*
G04 #@! TO.N,Net-(D1-Pad1)*
X140030200Y-53594000D03*
D15*
G04 #@! TO.P,D23,2*
G04 #@! TO.N,Net-(D23-Pad2)*
X140030200Y-45974000D03*
G04 #@! TD*
G04 #@! TO.P,D14,2*
G04 #@! TO.N,Net-(D14-Pad2)*
X87884000Y-64922400D03*
D14*
G04 #@! TO.P,D14,1*
G04 #@! TO.N,Net-(D11-Pad1)*
X87884000Y-72542400D03*
G04 #@! TD*
G04 #@! TO.P,D25,1*
G04 #@! TO.N,Net-(D12-Pad1)*
X154305000Y-91617800D03*
D15*
G04 #@! TO.P,D25,2*
G04 #@! TO.N,Net-(D25-Pad2)*
X154305000Y-83997800D03*
G04 #@! TD*
G04 #@! TO.P,D26,2*
G04 #@! TO.N,Net-(D26-Pad2)*
X159232600Y-45897800D03*
D14*
G04 #@! TO.P,D26,1*
G04 #@! TO.N,Net-(D1-Pad1)*
X159232600Y-53517800D03*
G04 #@! TD*
D15*
G04 #@! TO.P,D20,2*
G04 #@! TO.N,Net-(D20-Pad2)*
X126111000Y-61595000D03*
D14*
G04 #@! TO.P,D20,1*
G04 #@! TO.N,Net-(D11-Pad1)*
X126111000Y-69215000D03*
G04 #@! TD*
G04 #@! TO.P,D21,1*
G04 #@! TO.N,Net-(D12-Pad1)*
X135509000Y-91694000D03*
D15*
G04 #@! TO.P,D21,2*
G04 #@! TO.N,Net-(D21-Pad2)*
X135509000Y-84074000D03*
G04 #@! TD*
D14*
G04 #@! TO.P,D27,1*
G04 #@! TO.N,Net-(D11-Pad1)*
X163931600Y-72618600D03*
D15*
G04 #@! TO.P,D27,2*
G04 #@! TO.N,Net-(D27-Pad2)*
X163931600Y-64998600D03*
G04 #@! TD*
G04 #@! TO.P,D28,2*
G04 #@! TO.N,Net-(D28-Pad2)*
X173507400Y-84074000D03*
D14*
G04 #@! TO.P,D28,1*
G04 #@! TO.N,Net-(D12-Pad1)*
X173507400Y-91694000D03*
G04 #@! TD*
D15*
G04 #@! TO.P,D24,2*
G04 #@! TO.N,Net-(D24-Pad2)*
X144856200Y-64973200D03*
D14*
G04 #@! TO.P,D24,1*
G04 #@! TO.N,Net-(D11-Pad1)*
X144856200Y-72593200D03*
G04 #@! TD*
D15*
G04 #@! TO.P,D36,2*
G04 #@! TO.N,Net-(D36-Pad2)*
X216331800Y-103124000D03*
D14*
G04 #@! TO.P,D36,1*
G04 #@! TO.N,Net-(D10-Pad1)*
X216331800Y-110744000D03*
G04 #@! TD*
G04 #@! TO.P,D37,1*
G04 #@! TO.N,Net-(D1-Pad1)*
X215849200Y-53390800D03*
D15*
G04 #@! TO.P,D37,2*
G04 #@! TO.N,Net-(D37-Pad2)*
X215849200Y-45770800D03*
G04 #@! TD*
D14*
G04 #@! TO.P,D31,1*
G04 #@! TO.N,Net-(D12-Pad1)*
X192405000Y-91871800D03*
D15*
G04 #@! TO.P,D31,2*
G04 #@! TO.N,Net-(D31-Pad2)*
X192405000Y-84251800D03*
G04 #@! TD*
D14*
G04 #@! TO.P,D29,1*
G04 #@! TO.N,Net-(D1-Pad1)*
X178460400Y-53492400D03*
D15*
G04 #@! TO.P,D29,2*
G04 #@! TO.N,Net-(D29-Pad2)*
X178460400Y-45872400D03*
G04 #@! TD*
G04 #@! TO.P,D34,2*
G04 #@! TO.N,Net-(D34-Pad2)*
X202209400Y-64998600D03*
D14*
G04 #@! TO.P,D34,1*
G04 #@! TO.N,Net-(D11-Pad1)*
X202209400Y-72618600D03*
G04 #@! TD*
D15*
G04 #@! TO.P,D33,2*
G04 #@! TO.N,Net-(D33-Pad2)*
X197485000Y-45923200D03*
D14*
G04 #@! TO.P,D33,1*
G04 #@! TO.N,Net-(D1-Pad1)*
X197485000Y-53543200D03*
G04 #@! TD*
G04 #@! TO.P,D30,1*
G04 #@! TO.N,Net-(D11-Pad1)*
X183388000Y-69342000D03*
D15*
G04 #@! TO.P,D30,2*
G04 #@! TO.N,Net-(D30-Pad2)*
X183388000Y-61722000D03*
G04 #@! TD*
D14*
G04 #@! TO.P,D35,1*
G04 #@! TO.N,Net-(D12-Pad1)*
X211759800Y-91592400D03*
D15*
G04 #@! TO.P,D35,2*
G04 #@! TO.N,Net-(D35-Pad2)*
X211759800Y-83972400D03*
G04 #@! TD*
G04 #@! TO.P,D32,2*
G04 #@! TO.N,Net-(D32-Pad2)*
X197129400Y-102997000D03*
D14*
G04 #@! TO.P,D32,1*
G04 #@! TO.N,Net-(D10-Pad1)*
X197129400Y-110617000D03*
G04 #@! TD*
D16*
G04 #@! TO.P,D49,1*
G04 #@! TO.N,Net-(D46-Pad1)*
X126656000Y-104318000D03*
G04 #@! TO.P,D49,2*
G04 #@! TO.N,Net-(D49-Pad2)*
X126656000Y-107518000D03*
G04 #@! TO.P,D49,4*
G04 #@! TO.N,Net-(D48-Pad2)*
X121756000Y-104318000D03*
G04 #@! TO.P,D49,3*
G04 #@! TO.N,Net-(D46-Pad3)*
X121756000Y-107518000D03*
G04 #@! TD*
G04 #@! TO.P,D52,1*
G04 #@! TO.N,Net-(D46-Pad1)*
X237109000Y-104076500D03*
G04 #@! TO.P,D52,2*
G04 #@! TO.N,Net-(D52-Pad2)*
X237109000Y-107276500D03*
G04 #@! TO.P,D52,4*
G04 #@! TO.N,Net-(D51-Pad2)*
X232209000Y-104076500D03*
G04 #@! TO.P,D52,3*
G04 #@! TO.N,Net-(D46-Pad3)*
X232209000Y-107276500D03*
G04 #@! TD*
G04 #@! TO.P,D51,1*
G04 #@! TO.N,Net-(D46-Pad1)*
X194474000Y-104496000D03*
G04 #@! TO.P,D51,2*
G04 #@! TO.N,Net-(D51-Pad2)*
X194474000Y-107696000D03*
G04 #@! TO.P,D51,4*
G04 #@! TO.N,Net-(D50-Pad2)*
X189574000Y-104496000D03*
G04 #@! TO.P,D51,3*
G04 #@! TO.N,Net-(D46-Pad3)*
X189574000Y-107696000D03*
G04 #@! TD*
G04 #@! TO.P,D47,1*
G04 #@! TO.N,Net-(D46-Pad1)*
X46418500Y-104115000D03*
G04 #@! TO.P,D47,2*
G04 #@! TO.N,Net-(D47-Pad2)*
X46418500Y-107315000D03*
G04 #@! TO.P,D47,4*
G04 #@! TO.N,Net-(D46-Pad2)*
X41518500Y-104115000D03*
G04 #@! TO.P,D47,3*
G04 #@! TO.N,Net-(D46-Pad3)*
X41518500Y-107315000D03*
G04 #@! TD*
G04 #@! TO.P,D50,3*
G04 #@! TO.N,Net-(D46-Pad3)*
X151982000Y-107518000D03*
G04 #@! TO.P,D50,4*
G04 #@! TO.N,Net-(D49-Pad2)*
X151982000Y-104318000D03*
G04 #@! TO.P,D50,2*
G04 #@! TO.N,Net-(D50-Pad2)*
X156882000Y-107518000D03*
G04 #@! TO.P,D50,1*
G04 #@! TO.N,Net-(D46-Pad1)*
X156882000Y-104318000D03*
G04 #@! TD*
G04 #@! TO.P,D48,3*
G04 #@! TO.N,Net-(D46-Pad3)*
X82640000Y-107442000D03*
G04 #@! TO.P,D48,4*
G04 #@! TO.N,Net-(D47-Pad2)*
X82640000Y-104242000D03*
G04 #@! TO.P,D48,2*
G04 #@! TO.N,Net-(D48-Pad2)*
X87540000Y-107442000D03*
G04 #@! TO.P,D48,1*
G04 #@! TO.N,Net-(D46-Pad1)*
X87540000Y-104242000D03*
G04 #@! TD*
D14*
G04 #@! TO.P,D41,1*
G04 #@! TO.N,Net-(D1-Pad1)*
X235483400Y-53543200D03*
D15*
G04 #@! TO.P,D41,2*
G04 #@! TO.N,Net-(D41-Pad2)*
X235483400Y-45923200D03*
G04 #@! TD*
D14*
G04 #@! TO.P,D44,1*
G04 #@! TO.N,Net-(D10-Pad1)*
X255143000Y-110744000D03*
D15*
G04 #@! TO.P,D44,2*
G04 #@! TO.N,Net-(D44-Pad2)*
X255143000Y-103124000D03*
G04 #@! TD*
D14*
G04 #@! TO.P,D45,1*
G04 #@! TO.N,Net-(D1-Pad1)*
X254457200Y-53365400D03*
D15*
G04 #@! TO.P,D45,2*
G04 #@! TO.N,Net-(D45-Pad2)*
X254457200Y-45745400D03*
G04 #@! TD*
G04 #@! TO.P,D40,2*
G04 #@! TO.N,Net-(D40-Pad2)*
X252666500Y-103124000D03*
D14*
G04 #@! TO.P,D40,1*
G04 #@! TO.N,Net-(D10-Pad1)*
X252666500Y-110744000D03*
G04 #@! TD*
D17*
G04 #@! TO.N,Net-(D46-Pad3)*
X56388000Y-90030000D03*
X38862000Y-76962000D03*
G04 #@! TO.N,Net-(D46-Pad2)*
X50800000Y-90424000D03*
G04 #@! TO.N,Net-(D46-Pad1)*
X81026000Y-102616000D03*
X44984500Y-106299000D03*
X48768000Y-90424000D03*
X41910000Y-98552000D03*
G04 #@! TD*
D18*
G04 #@! TO.N,Net-(D2-Pad2)*
X30759400Y-102997000D02*
X30810200Y-102946200D01*
G04 #@! TO.N,Net-(SW1-Pad1)*
X44323000Y-93243400D02*
X37160200Y-100406200D01*
X44323000Y-81356200D02*
X44323000Y-93243400D01*
X40530999Y-77564199D02*
X44323000Y-81356200D01*
X37846000Y-60604400D02*
X39547800Y-62306200D01*
X37701001Y-59265675D02*
X37846000Y-59410674D01*
X37846000Y-59410674D02*
X37846000Y-60604400D01*
X37701001Y-45403435D02*
X37701001Y-59265675D01*
X37160200Y-44862634D02*
X37701001Y-45403435D01*
X37160200Y-43307000D02*
X37160200Y-44862634D01*
X40454699Y-77487899D02*
X40530999Y-77564199D01*
X40454699Y-64931145D02*
X40454699Y-77487899D01*
X39370000Y-63846446D02*
X40454699Y-64931145D01*
X39370000Y-62230000D02*
X39370000Y-63846446D01*
G04 #@! TO.N,Net-(SW5-Pad1)*
X58204798Y-98386202D02*
X56197500Y-100393500D01*
X59436000Y-98386202D02*
X58204798Y-98386202D01*
X62445202Y-95377000D02*
X59436000Y-98386202D01*
X70510400Y-81330800D02*
X70510400Y-88480900D01*
X70510400Y-88480900D02*
X63614300Y-95377000D01*
X63614300Y-95377000D02*
X62445202Y-95377000D01*
X61239400Y-72161400D02*
X70612000Y-81534000D01*
X61239400Y-62560200D02*
X61239400Y-72161400D01*
X61239400Y-48412400D02*
X61239400Y-62560200D01*
X56184800Y-43357800D02*
X61239400Y-48412400D01*
G04 #@! TO.N,Net-(SW10-Pad1)*
X89585800Y-82911834D02*
X89458800Y-83038834D01*
X89585800Y-81356200D02*
X89585800Y-82911834D01*
X76815834Y-100406200D02*
X75260200Y-100406200D01*
X89458800Y-87763234D02*
X76815834Y-100406200D01*
X89458800Y-83038834D02*
X89458800Y-87763234D01*
X76707999Y-44754799D02*
X76707999Y-57149999D01*
X75565000Y-43611800D02*
X76707999Y-44754799D01*
X80314800Y-72085200D02*
X84874100Y-76644500D01*
X80314800Y-62560200D02*
X80314800Y-72085200D01*
X89585800Y-81356200D02*
X84874100Y-76644500D01*
X76707999Y-57149999D02*
X80314800Y-60756800D01*
X80314800Y-60756800D02*
X80314800Y-62560200D01*
G04 #@! TO.N,Net-(SW13-Pad1)*
X99364800Y-72161400D02*
X103632000Y-76428600D01*
X99364800Y-62712600D02*
X99364800Y-72161400D01*
X103632000Y-76428600D02*
X108635800Y-81432400D01*
X94615000Y-45101246D02*
X95123000Y-45609246D01*
X94615000Y-43484800D02*
X94615000Y-45101246D01*
X95123000Y-58470800D02*
X99364800Y-62712600D01*
X95123000Y-45609246D02*
X95123000Y-58470800D01*
G04 #@! TO.N,Net-(SW16-Pad1)*
X113588800Y-45253646D02*
X113864654Y-45529500D01*
X113588800Y-43637200D02*
X113588800Y-45253646D01*
X113864654Y-58035454D02*
X118440200Y-62611000D01*
X113864654Y-45529500D02*
X113864654Y-58035454D01*
X119189500Y-72961500D02*
X127762000Y-81534000D01*
X119189500Y-66294000D02*
X119189500Y-72961500D01*
X118440200Y-62611000D02*
X118440200Y-65544700D01*
X118440200Y-65544700D02*
X119189500Y-66294000D01*
G04 #@! TO.N,Net-(SW19-Pad1)*
X142577999Y-97350401D02*
X146710400Y-93218000D01*
X142577999Y-99433201D02*
X142577999Y-97350401D01*
X141478000Y-100533200D02*
X142577999Y-99433201D01*
X146710400Y-81432400D02*
X146710400Y-93218000D01*
X132638800Y-45177446D02*
X133223000Y-45761646D01*
X132638800Y-43561000D02*
X132638800Y-45177446D01*
X133223000Y-58394600D02*
X137464800Y-62636400D01*
X133223000Y-45761646D02*
X133223000Y-58394600D01*
X137464800Y-64252846D02*
X138049000Y-64837046D01*
X137464800Y-62636400D02*
X137464800Y-64252846D01*
X138049000Y-72771000D02*
X146812000Y-81534000D01*
X138049000Y-64837046D02*
X138049000Y-72771000D01*
G04 #@! TO.N,Net-(SW23-Pad1)*
X151739600Y-45202846D02*
X152273000Y-45736246D01*
X151739600Y-43586400D02*
X151739600Y-45202846D01*
X152273000Y-58420000D02*
X156514800Y-62661800D01*
X152273000Y-45736246D02*
X152273000Y-58420000D01*
X156514800Y-62661800D02*
X156514800Y-65328800D01*
X156514800Y-65328800D02*
X157226000Y-66040000D01*
X157226000Y-72898000D02*
X165862000Y-81534000D01*
X157226000Y-66040000D02*
X157226000Y-72898000D01*
G04 #@! TO.N,Net-(SW26-Pad1)*
X170840400Y-45253646D02*
X171640500Y-46053746D01*
X170840400Y-43637200D02*
X170840400Y-45253646D01*
X171640500Y-58762900D02*
X175564800Y-62687200D01*
X171640500Y-46053746D02*
X171640500Y-58762900D01*
X175564800Y-64303646D02*
X175904154Y-64643000D01*
X175564800Y-62687200D02*
X175564800Y-64303646D01*
X175904154Y-72526154D02*
X184912000Y-81534000D01*
X175904154Y-64643000D02*
X175904154Y-72526154D01*
G04 #@! TO.N,Net-(SW29-Pad1)*
X208661000Y-86156800D02*
X203936600Y-81432400D01*
X208661000Y-100457000D02*
X208661000Y-86156800D01*
X189839600Y-45177446D02*
X190436500Y-45774346D01*
X189839600Y-43561000D02*
X189839600Y-45177446D01*
X190436500Y-58458100D02*
X194640200Y-62661800D01*
X190436500Y-45774346D02*
X190436500Y-58458100D01*
X194640200Y-64278246D02*
X195199000Y-64837046D01*
X194640200Y-62661800D02*
X194640200Y-64278246D01*
X195199000Y-72771000D02*
X203962000Y-81534000D01*
X195199000Y-64837046D02*
X195199000Y-72771000D01*
G04 #@! TO.N,Net-(SW33-Pad1)*
X222961200Y-95808800D02*
X227660200Y-100507800D01*
X222961200Y-81407000D02*
X222961200Y-95808800D01*
X208915000Y-45202846D02*
X209296000Y-45583846D01*
X208915000Y-43586400D02*
X208915000Y-45202846D01*
X209296000Y-58216800D02*
X213690200Y-62611000D01*
X209296000Y-45583846D02*
X209296000Y-58216800D01*
X213690200Y-64227446D02*
X214122000Y-64659246D01*
X213690200Y-62611000D02*
X213690200Y-64227446D01*
X214122000Y-72644000D02*
X223012000Y-81534000D01*
X214122000Y-64659246D02*
X214122000Y-72644000D01*
G04 #@! TO.N,Net-(SW37-Pad1)*
X242036600Y-95758000D02*
X242036600Y-81483200D01*
X246786400Y-100507800D02*
X242036600Y-95758000D01*
X232486200Y-48107600D02*
X227711000Y-43332400D01*
X232486200Y-62407800D02*
X232486200Y-48107600D01*
X242036600Y-81483200D02*
X242036600Y-71958200D01*
X242036600Y-71958200D02*
X232486200Y-62407800D01*
G04 #@! TO.N,Net-(SW41-Pad1)*
X246761000Y-43357800D02*
X258673600Y-55270400D01*
X263423400Y-98018600D02*
X265887200Y-100482400D01*
X263423400Y-81407000D02*
X263423400Y-98018600D01*
X258673600Y-62382400D02*
X258673600Y-76657200D01*
X258673600Y-55270400D02*
X258673600Y-62382400D01*
X258673600Y-76657200D02*
X263423400Y-81407000D01*
G04 #@! TO.N,Net-(D46-Pad3)*
X56388000Y-90030000D02*
X56388000Y-90030000D01*
X82640000Y-108192000D02*
X83668000Y-109220000D01*
X82640000Y-107442000D02*
X82640000Y-108192000D01*
X187352000Y-109220000D02*
X185166000Y-109220000D01*
X147828000Y-109220000D02*
X185166000Y-109220000D01*
X119026000Y-109220000D02*
X117348000Y-109220000D01*
X83668000Y-109220000D02*
X117348000Y-109220000D01*
X119812000Y-107518000D02*
X121756000Y-107518000D01*
X118110000Y-109220000D02*
X119812000Y-107518000D01*
X117348000Y-109220000D02*
X118110000Y-109220000D01*
X148768000Y-107518000D02*
X151982000Y-107518000D01*
X147066000Y-109220000D02*
X148768000Y-107518000D01*
X147066000Y-109220000D02*
X147828000Y-109220000D01*
X118110000Y-109220000D02*
X147066000Y-109220000D01*
X188800000Y-109220000D02*
X187198000Y-109220000D01*
X189574000Y-108446000D02*
X188800000Y-109220000D01*
X189574000Y-107696000D02*
X189574000Y-108446000D01*
X185166000Y-109220000D02*
X187198000Y-109220000D01*
X80010000Y-106172000D02*
X77724000Y-108458000D01*
X80010000Y-104902000D02*
X80010000Y-106172000D01*
X81788000Y-103124000D02*
X80010000Y-104902000D01*
X82640000Y-106692000D02*
X83715001Y-105616999D01*
X83357002Y-103124000D02*
X81788000Y-103124000D01*
X82640000Y-107442000D02*
X82640000Y-106692000D01*
X83715001Y-105616999D02*
X83867001Y-105616999D01*
X83867001Y-105616999D02*
X84582000Y-104902000D01*
X84582000Y-104902000D02*
X84582000Y-104348998D01*
X84582000Y-104348998D02*
X83357002Y-103124000D01*
X62992000Y-108458000D02*
X62992000Y-106426000D01*
X77724000Y-108458000D02*
X62992000Y-108458000D01*
X59944000Y-103378000D02*
X57072998Y-103378000D01*
X62992000Y-106426000D02*
X59944000Y-103378000D01*
X54672000Y-102362000D02*
X53594000Y-101284000D01*
X56056998Y-102362000D02*
X54672000Y-102362000D01*
X57072998Y-103378000D02*
X56056998Y-102362000D01*
X231209000Y-107276500D02*
X232209000Y-107276500D01*
X229265500Y-109220000D02*
X231209000Y-107276500D01*
X187198000Y-109220000D02*
X229265500Y-109220000D01*
X41518500Y-106565000D02*
X41518500Y-107315000D01*
X45974000Y-102109500D02*
X41518500Y-106565000D01*
X45974000Y-101284000D02*
X45974000Y-102109500D01*
X53594000Y-101284000D02*
X45974000Y-101284000D01*
X55822315Y-90030000D02*
X56388000Y-90030000D01*
X54688000Y-90030000D02*
X55822315Y-90030000D01*
X45974000Y-98744000D02*
X54688000Y-90030000D01*
X45974000Y-101284000D02*
X45974000Y-98744000D01*
X33972500Y-76962000D02*
X33020000Y-77914500D01*
X38862000Y-76962000D02*
X33972500Y-76962000D01*
G04 #@! TO.N,Net-(D46-Pad2)*
X50800000Y-90424000D02*
X50800000Y-90424000D01*
X50800000Y-90424000D02*
X50800000Y-91718000D01*
X50800000Y-90424000D02*
X50800000Y-90424000D01*
X41518500Y-100999500D02*
X42378500Y-100139500D01*
X41518500Y-104115000D02*
X41518500Y-100999500D01*
X50800000Y-91718000D02*
X42378500Y-100139500D01*
G04 #@! TO.N,Net-(D46-Pad1)*
X81026000Y-102616000D02*
X82296000Y-101346000D01*
X87540000Y-102706000D02*
X88900000Y-101346000D01*
X87540000Y-104242000D02*
X87540000Y-102706000D01*
X88900000Y-101346000D02*
X82296000Y-101346000D01*
X130048000Y-101346000D02*
X88900000Y-101346000D01*
X126906000Y-104318000D02*
X126656000Y-104318000D01*
X129878000Y-101346000D02*
X126906000Y-104318000D01*
X130302000Y-101346000D02*
X129878000Y-101346000D01*
X130302000Y-101346000D02*
X130048000Y-101346000D01*
X156882000Y-102526000D02*
X156882000Y-104318000D01*
X155702000Y-101346000D02*
X156882000Y-102526000D01*
X154686000Y-101346000D02*
X155702000Y-101346000D01*
X192074000Y-101346000D02*
X191770000Y-101346000D01*
X194474000Y-103746000D02*
X192074000Y-101346000D01*
X194474000Y-104496000D02*
X194474000Y-103746000D01*
X155702000Y-101346000D02*
X191770000Y-101346000D01*
X138176000Y-101346000D02*
X138684000Y-101346000D01*
X138176000Y-101346000D02*
X130302000Y-101346000D01*
X138684000Y-101346000D02*
X140462000Y-103124000D01*
X143002000Y-103124000D02*
X144780000Y-101346000D01*
X140462000Y-103124000D02*
X143002000Y-103124000D01*
X144780000Y-101346000D02*
X154686000Y-101346000D01*
X236109000Y-104076500D02*
X237109000Y-104076500D01*
X234140500Y-102108000D02*
X236109000Y-104076500D01*
X227151398Y-102108000D02*
X234140500Y-102108000D01*
X191770000Y-101346000D02*
X206248000Y-101346000D01*
X206248000Y-101346000D02*
X207264000Y-102362000D01*
X207264000Y-102362000D02*
X210312000Y-102362000D01*
X210312000Y-102362000D02*
X211328000Y-101346000D01*
X211328000Y-101346000D02*
X226389398Y-101346000D01*
X226389398Y-101346000D02*
X227151398Y-102108000D01*
X46418500Y-104865000D02*
X46418500Y-104115000D01*
X44984500Y-106299000D02*
X46418500Y-104865000D01*
X48368001Y-90823999D02*
X48368001Y-92093999D01*
X48768000Y-90424000D02*
X48368001Y-90823999D01*
X48368001Y-92093999D02*
X41910000Y-98552000D01*
X41910000Y-98552000D02*
X41910000Y-98552000D01*
G04 #@! TO.N,Net-(D47-Pad2)*
X76708000Y-108966000D02*
X80264000Y-108966000D01*
X76708000Y-108966000D02*
X76916000Y-108966000D01*
X82640000Y-104992000D02*
X82640000Y-104242000D01*
X80264000Y-107368000D02*
X82640000Y-104992000D01*
X80264000Y-108966000D02*
X80264000Y-107368000D01*
X47319500Y-108966000D02*
X48768000Y-108966000D01*
X46418500Y-108065000D02*
X47319500Y-108966000D01*
X46418500Y-107315000D02*
X46418500Y-108065000D01*
X48768000Y-108966000D02*
X76708000Y-108966000D01*
G04 #@! TO.N,Net-(D48-Pad2)*
X120218000Y-104318000D02*
X121756000Y-104318000D01*
X117094000Y-107442000D02*
X120218000Y-104318000D01*
X87540000Y-107442000D02*
X117094000Y-107442000D01*
G04 #@! TO.N,Net-(D49-Pad2)*
X128076201Y-107938201D02*
X130810000Y-107938201D01*
X127656000Y-107518000D02*
X128076201Y-107938201D01*
X126656000Y-107518000D02*
X127656000Y-107518000D01*
X129854201Y-107938201D02*
X130810000Y-107938201D01*
X128076201Y-107938201D02*
X135497201Y-107938201D01*
X135497201Y-107938201D02*
X136017000Y-108458000D01*
X150982000Y-104318000D02*
X151982000Y-104318000D01*
X146842000Y-108458000D02*
X150982000Y-104318000D01*
X136017000Y-108458000D02*
X146842000Y-108458000D01*
G04 #@! TO.N,Net-(D50-Pad2)*
X157132000Y-107518000D02*
X156882000Y-107518000D01*
X158402000Y-106248000D02*
X157132000Y-107518000D01*
X188572000Y-106248000D02*
X158402000Y-106248000D01*
X189574000Y-105246000D02*
X188572000Y-106248000D01*
X189574000Y-104496000D02*
X189574000Y-105246000D01*
G04 #@! TO.N,Net-(D51-Pad2)*
X196922000Y-107696000D02*
X194474000Y-107696000D01*
X229552500Y-104076500D02*
X228473000Y-105156000D01*
X232209000Y-104076500D02*
X229552500Y-104076500D01*
X228473000Y-105156000D02*
X228473000Y-107442000D01*
X228473000Y-107442000D02*
X227330000Y-108585000D01*
X227330000Y-108585000D02*
X197811000Y-108585000D01*
X197811000Y-108585000D02*
X196922000Y-107696000D01*
G04 #@! TD*
M02*
