M48
;DRILL file {KiCad (5.0.2)-1} date 5/2/2019 12:01:03 AM
;FORMAT={-:-/ absolute / metric / decimal}
FMAT,2
METRIC,TZ
T1C1.800
T2C3.048
T3C3.500
T4C3.988
%
G90
G05
T1
X182.753Y-59.182
X192.913Y-59.182
X239.979Y-40.132
X250.139Y-40.132
X231.623Y-59.182
X241.783Y-59.182
X92.278Y-21.107
X102.438Y-21.107
X111.328Y-21.107
X121.488Y-21.107
X104.165Y-78.232
X114.325Y-78.232
X244.678Y-78.232
X254.838Y-78.232
X235.153Y-21.082
X245.313Y-21.082
X18.466Y-78.257
X28.626Y-78.257
X242.291Y-59.207
X252.451Y-59.207
X144.653Y-59.182
X154.813Y-59.182
X178.079Y-40.132
X188.239Y-40.132
X244.665Y-21.082
X254.825Y-21.082
X168.478Y-21.082
X178.638Y-21.082
X225.628Y-78.257
X235.788Y-78.257
X120.904Y-40.132
X131.064Y-40.132
X192.303Y-40.132
X202.463Y-40.132
X201.828Y-59.182
X211.988Y-59.182
X187.503Y-78.232
X197.663Y-78.232
X125.603Y-59.182
X135.763Y-59.182
X54.178Y-78.232
X64.338Y-78.232
X39.878Y-40.132
X50.038Y-40.132
X16.078Y-21.082
X26.238Y-21.082
X82.804Y-40.132
X92.964Y-40.132
X116.078Y-40.132
X126.238Y-40.132
X211.328Y-40.132
X221.488Y-40.132
X121.996Y-78.105
X132.156Y-78.105
X23.216Y-59.182
X33.376Y-59.182
X187.528Y-21.082
X197.688Y-21.082
X197.104Y-40.132
X207.264Y-40.132
X130.404Y-21.057
X140.564Y-21.057
X206.578Y-21.082
X216.738Y-21.082
X137.516Y-78.257
X147.676Y-78.257
X220.878Y-59.207
X231.038Y-59.207
X63.779Y-40.132
X73.939Y-40.132
X101.879Y-40.132
X112.039Y-40.132
X42.266Y-78.257
X52.426Y-78.257
X185.141Y-78.232
X195.301Y-78.232
X73.228Y-21.082
X83.388Y-21.082
X159.004Y-40.157
X169.164Y-40.157
X106.553Y-59.182
X116.713Y-59.182
X16.078Y-78.232
X26.238Y-78.232
X54.178Y-21.107
X64.338Y-21.107
X149.428Y-21.082
X159.588Y-21.082
X151.816Y-78.232
X161.976Y-78.232
X154.203Y-40.132
X164.363Y-40.132
X135.128Y-40.157
X145.288Y-40.157
X44.704Y-40.132
X54.864Y-40.132
X66.065Y-78.232
X76.225Y-78.232
X173.228Y-40.132
X183.388Y-40.132
X35.128Y-78.232
X45.288Y-78.232
X18.466Y-40.132
X28.626Y-40.132
X87.528Y-59.207
X97.688Y-59.207
X216.179Y-40.157
X226.339Y-40.157
X35.128Y-21.082
X45.288Y-21.082
X139.979Y-40.157
X150.139Y-40.157
X206.578Y-78.232
X216.738Y-78.232
X97.053Y-40.132
X107.213Y-40.132
X163.703Y-59.207
X173.863Y-59.207
X237.541Y-40.132
X247.701Y-40.132
X20.904Y-40.132
X31.064Y-40.132
X68.453Y-59.182
X78.613Y-59.182
X49.428Y-59.182
X59.588Y-59.182
X225.628Y-21.107
X235.788Y-21.107
X58.953Y-40.132
X69.113Y-40.132
X77.978Y-40.157
X88.138Y-40.157
T2
X92.558Y-71.272
X192.634Y-71.272
X144.958Y-71.247
X168.834Y-71.247
X97.307Y-71.247
X121.183Y-71.247
T3
X72.492Y-49.695
X198.323Y-49.67
X135.433Y-49.67
T4
X49.784Y-40.132
X71.145Y-78.232
X178.308Y-40.132
X40.208Y-78.232
X23.546Y-40.132
X92.608Y-59.207
X221.259Y-40.157
X40.208Y-21.082
X145.059Y-40.157
X211.658Y-78.232
X102.133Y-40.132
X168.783Y-59.207
X242.621Y-40.132
X25.984Y-40.132
X73.533Y-59.182
X54.508Y-59.182
X230.708Y-21.107
X64.033Y-40.132
X83.058Y-40.157
X187.833Y-59.182
X245.059Y-40.132
X236.703Y-59.182
X97.358Y-21.107
X116.408Y-21.107
X97.307Y-86.487
X109.245Y-78.232
X121.183Y-86.487
X249.758Y-78.232
X240.233Y-21.082
X23.546Y-78.257
X247.371Y-59.207
X149.733Y-59.182
X183.159Y-40.132
X249.745Y-21.082
X173.558Y-21.082
X230.708Y-78.257
X125.984Y-40.132
X197.383Y-40.132
X206.908Y-59.182
X192.583Y-78.232
X130.683Y-59.182
X59.258Y-78.232
X44.958Y-40.132
X21.158Y-21.082
X87.884Y-40.132
X121.158Y-40.132
X216.408Y-40.132
X127.076Y-78.105
X28.296Y-59.182
X192.608Y-21.082
X202.184Y-40.132
X135.484Y-21.057
X211.658Y-21.082
X92.558Y-86.512
X142.596Y-78.257
X192.634Y-86.512
X225.958Y-59.207
X68.859Y-40.132
X106.959Y-40.132
X47.346Y-78.257
X190.221Y-78.232
X78.308Y-21.082
X164.084Y-40.157
X111.633Y-59.182
X21.158Y-78.232
X59.258Y-21.107
X154.508Y-21.082
X144.958Y-86.487
X156.896Y-78.232
X168.834Y-86.487
X159.283Y-40.132
X140.208Y-40.157
T0
M30
