M48
;DRILL file {KiCad (5.0.2)-1} date 2/11/2019 11:16:15 AM
;FORMAT={-:-/ absolute / inch / decimal}
FMAT,2
INCH,TZ
T1C0.0709
T2C0.1378
T3C0.1570
%
G90
G05
T1
X3.612Y-2.669
X4.012Y-2.669
X3.98Y-3.41
X4.38Y-3.41
X7.925Y-1.916
X8.325Y-1.916
X1.91Y-4.16
X2.31Y-4.16
X2.862Y-2.663
X3.262Y-2.663
X1.922Y-1.917
X2.322Y-1.917
X5.112Y-2.666
X5.512Y-2.666
X2.675Y-1.917
X3.075Y-1.917
X8.863Y-2.667
X9.263Y-2.667
X8.113Y-2.665
X8.513Y-2.665
X9.23Y-3.41
X9.63Y-3.41
X6.98Y-3.41
X7.38Y-3.41
X6.612Y-2.668
X7.012Y-2.668
X2.111Y-2.663
X2.511Y-2.663
X5.862Y-2.667
X6.262Y-2.667
X10.07Y-3.41
X10.47Y-3.41
X9.425Y-1.917
X9.825Y-1.917
X4.172Y-1.918
X4.572Y-1.918
X4.922Y-1.915
X5.322Y-1.915
X5.29Y-4.16
X5.69Y-4.16
X10.176Y-1.917
X10.576Y-1.917
X7.363Y-2.667
X7.763Y-2.667
X3.425Y-1.912
X3.825Y-1.912
X1.173Y-1.915
X1.573Y-1.915
X8.67Y-4.16
X9.07Y-4.16
X7.92Y-4.16
X8.32Y-4.16
X4.73Y-3.41
X5.13Y-3.41
X1.44Y-3.41
X1.84Y-3.41
X7.174Y-1.915
X7.574Y-1.915
X10.17Y-4.16
X10.57Y-4.16
X1.25Y-2.65
X1.65Y-2.65
X6.23Y-3.41
X6.63Y-3.41
X8.675Y-1.916
X9.075Y-1.916
X9.42Y-4.16
X9.82Y-4.16
X2.66Y-4.16
X3.06Y-4.16
X3.23Y-3.41
X3.63Y-3.41
X8.48Y-3.41
X8.88Y-3.41
X1.16Y-4.16
X1.56Y-4.16
X5.674Y-1.916
X6.074Y-1.916
X7.73Y-3.41
X8.13Y-3.41
X5.48Y-3.41
X5.88Y-3.41
X4.363Y-2.665
X4.763Y-2.665
X9.89Y-2.66
X10.29Y-2.66
X2.48Y-3.41
X2.88Y-3.41
X6.426Y-1.918
X6.826Y-1.918
T2
X4.92Y-2.91
X7.18Y-2.92
T3
X3.812Y-2.669
X4.18Y-3.41
X8.125Y-1.916
X2.11Y-4.16
X3.062Y-2.663
X2.122Y-1.917
X5.312Y-2.666
X2.875Y-1.917
X9.063Y-2.667
X8.313Y-2.665
X9.43Y-3.41
X7.18Y-3.41
X6.812Y-2.668
X2.311Y-2.663
X6.062Y-2.667
X10.27Y-3.41
X9.625Y-1.917
X4.372Y-1.918
X5.122Y-1.915
X5.49Y-4.16
X10.376Y-1.917
X7.563Y-2.667
X3.625Y-1.912
X1.373Y-1.915
X8.87Y-4.16
X8.12Y-4.16
X4.93Y-3.41
X1.64Y-3.41
X7.374Y-1.915
X10.37Y-4.16
X1.45Y-2.65
X6.43Y-3.41
X8.875Y-1.916
X9.62Y-4.16
X2.86Y-4.16
X3.43Y-3.41
X8.68Y-3.41
X1.36Y-4.16
X5.874Y-1.916
X7.93Y-3.41
X5.68Y-3.41
X4.563Y-2.665
X10.09Y-2.66
X2.68Y-3.41
X6.626Y-1.918
T0
M30
