G04 #@! TF.GenerationSoftware,KiCad,Pcbnew,(5.0.2)-1*
G04 #@! TF.CreationDate,2019-04-26T14:55:14-04:00*
G04 #@! TF.ProjectId,switch_plate,73776974-6368-45f7-906c-6174652e6b69,rev?*
G04 #@! TF.SameCoordinates,Original*
G04 #@! TF.FileFunction,Legend,Top*
G04 #@! TF.FilePolarity,Positive*
%FSLAX46Y46*%
G04 Gerber Fmt 4.6, Leading zero omitted, Abs format (unit mm)*
G04 Created by KiCad (PCBNEW (5.0.2)-1) date 4/26/2019 2:55:14 PM*
%MOMM*%
%LPD*%
G01*
G04 APERTURE LIST*
%ADD10C,0.250000*%
%ADD11C,0.150000*%
G04 APERTURE END LIST*
D10*
X237112635Y-59677180D02*
X236922159Y-59677180D01*
X236826921Y-59724800D01*
X236779302Y-59772419D01*
X236684063Y-59915276D01*
X236636444Y-60105752D01*
X236636444Y-60486704D01*
X236684063Y-60581942D01*
X236731682Y-60629561D01*
X236826921Y-60677180D01*
X237017397Y-60677180D01*
X237112635Y-60629561D01*
X237160254Y-60581942D01*
X237207873Y-60486704D01*
X237207873Y-60248609D01*
X237160254Y-60153371D01*
X237112635Y-60105752D01*
X237017397Y-60058133D01*
X236826921Y-60058133D01*
X236731682Y-60105752D01*
X236684063Y-60153371D01*
X236636444Y-60248609D01*
X237541206Y-59677180D02*
X238160254Y-59677180D01*
X237826921Y-60058133D01*
X237969778Y-60058133D01*
X238065016Y-60105752D01*
X238112635Y-60153371D01*
X238160254Y-60248609D01*
X238160254Y-60486704D01*
X238112635Y-60581942D01*
X238065016Y-60629561D01*
X237969778Y-60677180D01*
X237684063Y-60677180D01*
X237588825Y-60629561D01*
X237541206Y-60581942D01*
X238588825Y-60581942D02*
X238636444Y-60629561D01*
X238588825Y-60677180D01*
X238541206Y-60629561D01*
X238588825Y-60581942D01*
X238588825Y-60677180D01*
X239112635Y-60677180D02*
X239303111Y-60677180D01*
X239398349Y-60629561D01*
X239445968Y-60581942D01*
X239541206Y-60439085D01*
X239588825Y-60248609D01*
X239588825Y-59867657D01*
X239541206Y-59772419D01*
X239493587Y-59724800D01*
X239398349Y-59677180D01*
X239207873Y-59677180D01*
X239112635Y-59724800D01*
X239065016Y-59772419D01*
X239017397Y-59867657D01*
X239017397Y-60105752D01*
X239065016Y-60200990D01*
X239112635Y-60248609D01*
X239207873Y-60296228D01*
X239398349Y-60296228D01*
X239493587Y-60248609D01*
X239541206Y-60200990D01*
X239588825Y-60105752D01*
X239922159Y-59677180D02*
X240541206Y-59677180D01*
X240207873Y-60058133D01*
X240350730Y-60058133D01*
X240445968Y-60105752D01*
X240493587Y-60153371D01*
X240541206Y-60248609D01*
X240541206Y-60486704D01*
X240493587Y-60581942D01*
X240445968Y-60629561D01*
X240350730Y-60677180D01*
X240065016Y-60677180D01*
X239969778Y-60629561D01*
X239922159Y-60581942D01*
X240922159Y-59772419D02*
X240969778Y-59724800D01*
X241065016Y-59677180D01*
X241303111Y-59677180D01*
X241398349Y-59724800D01*
X241445968Y-59772419D01*
X241493587Y-59867657D01*
X241493587Y-59962895D01*
X241445968Y-60105752D01*
X240874540Y-60677180D01*
X241493587Y-60677180D01*
X242684063Y-60677180D02*
X242684063Y-60010514D01*
X242684063Y-60105752D02*
X242731682Y-60058133D01*
X242826921Y-60010514D01*
X242969778Y-60010514D01*
X243065016Y-60058133D01*
X243112635Y-60153371D01*
X243112635Y-60677180D01*
X243112635Y-60153371D02*
X243160254Y-60058133D01*
X243255492Y-60010514D01*
X243398349Y-60010514D01*
X243493587Y-60058133D01*
X243541206Y-60153371D01*
X243541206Y-60677180D01*
X244017397Y-60677180D02*
X244017397Y-60010514D01*
X244017397Y-60105752D02*
X244065016Y-60058133D01*
X244160254Y-60010514D01*
X244303111Y-60010514D01*
X244398349Y-60058133D01*
X244445968Y-60153371D01*
X244445968Y-60677180D01*
X244445968Y-60153371D02*
X244493587Y-60058133D01*
X244588825Y-60010514D01*
X244731682Y-60010514D01*
X244826921Y-60058133D01*
X244874540Y-60153371D01*
X244874540Y-60677180D01*
X208813400Y-58724800D02*
X272745205Y-58724800D01*
X208813400Y-58724800D02*
X208813400Y-59311221D01*
X272745205Y-58724800D02*
X272745205Y-59311221D01*
X272745205Y-58724800D02*
X271618701Y-59311221D01*
X272745205Y-58724800D02*
X271618701Y-58138379D01*
X208813400Y-58724800D02*
X209939904Y-59311221D01*
X208813400Y-58724800D02*
X209939904Y-58138379D01*
X206511685Y-33480895D02*
X205845019Y-33480895D01*
X206892638Y-33242800D02*
X206178352Y-33004704D01*
X206178352Y-33623752D01*
X205845019Y-34528514D02*
X205845019Y-33957085D01*
X205845019Y-34242800D02*
X206845019Y-34242800D01*
X206702161Y-34147562D01*
X206606923Y-34052323D01*
X206559304Y-33957085D01*
X205940257Y-34957085D02*
X205892638Y-35004704D01*
X205845019Y-34957085D01*
X205892638Y-34909466D01*
X205940257Y-34957085D01*
X205845019Y-34957085D01*
X205845019Y-35957085D02*
X205845019Y-35385657D01*
X205845019Y-35671371D02*
X206845019Y-35671371D01*
X206702161Y-35576133D01*
X206606923Y-35480895D01*
X206559304Y-35385657D01*
X206845019Y-36290419D02*
X206845019Y-36957085D01*
X205845019Y-36528514D01*
X206511685Y-37766609D02*
X205845019Y-37766609D01*
X206892638Y-37528514D02*
X206178352Y-37290419D01*
X206178352Y-37909466D01*
X205845019Y-39052323D02*
X206511685Y-39052323D01*
X206416447Y-39052323D02*
X206464066Y-39099942D01*
X206511685Y-39195181D01*
X206511685Y-39338038D01*
X206464066Y-39433276D01*
X206368828Y-39480895D01*
X205845019Y-39480895D01*
X206368828Y-39480895D02*
X206464066Y-39528514D01*
X206511685Y-39623752D01*
X206511685Y-39766609D01*
X206464066Y-39861847D01*
X206368828Y-39909466D01*
X205845019Y-39909466D01*
X205845019Y-40385657D02*
X206511685Y-40385657D01*
X206416447Y-40385657D02*
X206464066Y-40433276D01*
X206511685Y-40528514D01*
X206511685Y-40671371D01*
X206464066Y-40766609D01*
X206368828Y-40814228D01*
X205845019Y-40814228D01*
X206368828Y-40814228D02*
X206464066Y-40861847D01*
X206511685Y-40957085D01*
X206511685Y-41099942D01*
X206464066Y-41195181D01*
X206368828Y-41242800D01*
X205845019Y-41242800D01*
X207797400Y-16560800D02*
X207797400Y-57734325D01*
X208153000Y-16560800D02*
X207210979Y-16560800D01*
X208153000Y-57734325D02*
X207210979Y-57734325D01*
X207797400Y-57734325D02*
X207210979Y-56607821D01*
X207797400Y-57734325D02*
X208383821Y-56607821D01*
X207797400Y-16560800D02*
X207210979Y-17687304D01*
X207797400Y-16560800D02*
X208383821Y-17687304D01*
G04 #@! TO.C,REF\002A\002A*
D11*
X80607066Y-55951780D02*
X80273733Y-55475590D01*
X80035638Y-55951780D02*
X80035638Y-54951780D01*
X80416590Y-54951780D01*
X80511828Y-54999400D01*
X80559447Y-55047019D01*
X80607066Y-55142257D01*
X80607066Y-55285114D01*
X80559447Y-55380352D01*
X80511828Y-55427971D01*
X80416590Y-55475590D01*
X80035638Y-55475590D01*
X81035638Y-55427971D02*
X81368971Y-55427971D01*
X81511828Y-55951780D02*
X81035638Y-55951780D01*
X81035638Y-54951780D01*
X81511828Y-54951780D01*
X82273733Y-55427971D02*
X81940400Y-55427971D01*
X81940400Y-55951780D02*
X81940400Y-54951780D01*
X82416590Y-54951780D01*
X82940400Y-54951780D02*
X82940400Y-55189876D01*
X82702304Y-55094638D02*
X82940400Y-55189876D01*
X83178495Y-55094638D01*
X82797542Y-55380352D02*
X82940400Y-55189876D01*
X83083257Y-55380352D01*
X83702304Y-54951780D02*
X83702304Y-55189876D01*
X83464209Y-55094638D02*
X83702304Y-55189876D01*
X83940400Y-55094638D01*
X83559447Y-55380352D02*
X83702304Y-55189876D01*
X83845161Y-55380352D01*
X143548266Y-55926380D02*
X143214933Y-55450190D01*
X142976838Y-55926380D02*
X142976838Y-54926380D01*
X143357790Y-54926380D01*
X143453028Y-54974000D01*
X143500647Y-55021619D01*
X143548266Y-55116857D01*
X143548266Y-55259714D01*
X143500647Y-55354952D01*
X143453028Y-55402571D01*
X143357790Y-55450190D01*
X142976838Y-55450190D01*
X143976838Y-55402571D02*
X144310171Y-55402571D01*
X144453028Y-55926380D02*
X143976838Y-55926380D01*
X143976838Y-54926380D01*
X144453028Y-54926380D01*
X145214933Y-55402571D02*
X144881600Y-55402571D01*
X144881600Y-55926380D02*
X144881600Y-54926380D01*
X145357790Y-54926380D01*
X145881600Y-54926380D02*
X145881600Y-55164476D01*
X145643504Y-55069238D02*
X145881600Y-55164476D01*
X146119695Y-55069238D01*
X145738742Y-55354952D02*
X145881600Y-55164476D01*
X146024457Y-55354952D01*
X146643504Y-54926380D02*
X146643504Y-55164476D01*
X146405409Y-55069238D02*
X146643504Y-55164476D01*
X146881600Y-55069238D01*
X146500647Y-55354952D02*
X146643504Y-55164476D01*
X146786361Y-55354952D01*
X206438666Y-55926380D02*
X206105333Y-55450190D01*
X205867238Y-55926380D02*
X205867238Y-54926380D01*
X206248190Y-54926380D01*
X206343428Y-54974000D01*
X206391047Y-55021619D01*
X206438666Y-55116857D01*
X206438666Y-55259714D01*
X206391047Y-55354952D01*
X206343428Y-55402571D01*
X206248190Y-55450190D01*
X205867238Y-55450190D01*
X206867238Y-55402571D02*
X207200571Y-55402571D01*
X207343428Y-55926380D02*
X206867238Y-55926380D01*
X206867238Y-54926380D01*
X207343428Y-54926380D01*
X208105333Y-55402571D02*
X207772000Y-55402571D01*
X207772000Y-55926380D02*
X207772000Y-54926380D01*
X208248190Y-54926380D01*
X208772000Y-54926380D02*
X208772000Y-55164476D01*
X208533904Y-55069238D02*
X208772000Y-55164476D01*
X209010095Y-55069238D01*
X208629142Y-55354952D02*
X208772000Y-55164476D01*
X208914857Y-55354952D01*
X209533904Y-54926380D02*
X209533904Y-55164476D01*
X209295809Y-55069238D02*
X209533904Y-55164476D01*
X209772000Y-55069238D01*
X209391047Y-55354952D02*
X209533904Y-55164476D01*
X209676761Y-55354952D01*
X80657866Y-95474180D02*
X80324533Y-94997990D01*
X80086438Y-95474180D02*
X80086438Y-94474180D01*
X80467390Y-94474180D01*
X80562628Y-94521800D01*
X80610247Y-94569419D01*
X80657866Y-94664657D01*
X80657866Y-94807514D01*
X80610247Y-94902752D01*
X80562628Y-94950371D01*
X80467390Y-94997990D01*
X80086438Y-94997990D01*
X81086438Y-94950371D02*
X81419771Y-94950371D01*
X81562628Y-95474180D02*
X81086438Y-95474180D01*
X81086438Y-94474180D01*
X81562628Y-94474180D01*
X82324533Y-94950371D02*
X81991200Y-94950371D01*
X81991200Y-95474180D02*
X81991200Y-94474180D01*
X82467390Y-94474180D01*
X82991200Y-94474180D02*
X82991200Y-94712276D01*
X82753104Y-94617038D02*
X82991200Y-94712276D01*
X83229295Y-94617038D01*
X82848342Y-94902752D02*
X82991200Y-94712276D01*
X83134057Y-94902752D01*
X83753104Y-94474180D02*
X83753104Y-94712276D01*
X83515009Y-94617038D02*
X83753104Y-94712276D01*
X83991200Y-94617038D01*
X83610247Y-94902752D02*
X83753104Y-94712276D01*
X83895961Y-94902752D01*
X143599066Y-95448780D02*
X143265733Y-94972590D01*
X143027638Y-95448780D02*
X143027638Y-94448780D01*
X143408590Y-94448780D01*
X143503828Y-94496400D01*
X143551447Y-94544019D01*
X143599066Y-94639257D01*
X143599066Y-94782114D01*
X143551447Y-94877352D01*
X143503828Y-94924971D01*
X143408590Y-94972590D01*
X143027638Y-94972590D01*
X144027638Y-94924971D02*
X144360971Y-94924971D01*
X144503828Y-95448780D02*
X144027638Y-95448780D01*
X144027638Y-94448780D01*
X144503828Y-94448780D01*
X145265733Y-94924971D02*
X144932400Y-94924971D01*
X144932400Y-95448780D02*
X144932400Y-94448780D01*
X145408590Y-94448780D01*
X145932400Y-94448780D02*
X145932400Y-94686876D01*
X145694304Y-94591638D02*
X145932400Y-94686876D01*
X146170495Y-94591638D01*
X145789542Y-94877352D02*
X145932400Y-94686876D01*
X146075257Y-94877352D01*
X146694304Y-94448780D02*
X146694304Y-94686876D01*
X146456209Y-94591638D02*
X146694304Y-94686876D01*
X146932400Y-94591638D01*
X146551447Y-94877352D02*
X146694304Y-94686876D01*
X146837161Y-94877352D01*
X206489466Y-95448780D02*
X206156133Y-94972590D01*
X205918038Y-95448780D02*
X205918038Y-94448780D01*
X206298990Y-94448780D01*
X206394228Y-94496400D01*
X206441847Y-94544019D01*
X206489466Y-94639257D01*
X206489466Y-94782114D01*
X206441847Y-94877352D01*
X206394228Y-94924971D01*
X206298990Y-94972590D01*
X205918038Y-94972590D01*
X206918038Y-94924971D02*
X207251371Y-94924971D01*
X207394228Y-95448780D02*
X206918038Y-95448780D01*
X206918038Y-94448780D01*
X207394228Y-94448780D01*
X208156133Y-94924971D02*
X207822800Y-94924971D01*
X207822800Y-95448780D02*
X207822800Y-94448780D01*
X208298990Y-94448780D01*
X208822800Y-94448780D02*
X208822800Y-94686876D01*
X208584704Y-94591638D02*
X208822800Y-94686876D01*
X209060895Y-94591638D01*
X208679942Y-94877352D02*
X208822800Y-94686876D01*
X208965657Y-94877352D01*
X209584704Y-94448780D02*
X209584704Y-94686876D01*
X209346609Y-94591638D02*
X209584704Y-94686876D01*
X209822800Y-94591638D01*
X209441847Y-94877352D02*
X209584704Y-94686876D01*
X209727561Y-94877352D01*
X18326266Y-95448780D02*
X17992933Y-94972590D01*
X17754838Y-95448780D02*
X17754838Y-94448780D01*
X18135790Y-94448780D01*
X18231028Y-94496400D01*
X18278647Y-94544019D01*
X18326266Y-94639257D01*
X18326266Y-94782114D01*
X18278647Y-94877352D01*
X18231028Y-94924971D01*
X18135790Y-94972590D01*
X17754838Y-94972590D01*
X18754838Y-94924971D02*
X19088171Y-94924971D01*
X19231028Y-95448780D02*
X18754838Y-95448780D01*
X18754838Y-94448780D01*
X19231028Y-94448780D01*
X19992933Y-94924971D02*
X19659600Y-94924971D01*
X19659600Y-95448780D02*
X19659600Y-94448780D01*
X20135790Y-94448780D01*
X20659600Y-94448780D02*
X20659600Y-94686876D01*
X20421504Y-94591638D02*
X20659600Y-94686876D01*
X20897695Y-94591638D01*
X20516742Y-94877352D02*
X20659600Y-94686876D01*
X20802457Y-94877352D01*
X21421504Y-94448780D02*
X21421504Y-94686876D01*
X21183409Y-94591638D02*
X21421504Y-94686876D01*
X21659600Y-94591638D01*
X21278647Y-94877352D02*
X21421504Y-94686876D01*
X21564361Y-94877352D01*
X268846466Y-95448780D02*
X268513133Y-94972590D01*
X268275038Y-95448780D02*
X268275038Y-94448780D01*
X268655990Y-94448780D01*
X268751228Y-94496400D01*
X268798847Y-94544019D01*
X268846466Y-94639257D01*
X268846466Y-94782114D01*
X268798847Y-94877352D01*
X268751228Y-94924971D01*
X268655990Y-94972590D01*
X268275038Y-94972590D01*
X269275038Y-94924971D02*
X269608371Y-94924971D01*
X269751228Y-95448780D02*
X269275038Y-95448780D01*
X269275038Y-94448780D01*
X269751228Y-94448780D01*
X270513133Y-94924971D02*
X270179800Y-94924971D01*
X270179800Y-95448780D02*
X270179800Y-94448780D01*
X270655990Y-94448780D01*
X271179800Y-94448780D02*
X271179800Y-94686876D01*
X270941704Y-94591638D02*
X271179800Y-94686876D01*
X271417895Y-94591638D01*
X271036942Y-94877352D02*
X271179800Y-94686876D01*
X271322657Y-94877352D01*
X271941704Y-94448780D02*
X271941704Y-94686876D01*
X271703609Y-94591638D02*
X271941704Y-94686876D01*
X272179800Y-94591638D01*
X271798847Y-94877352D02*
X271941704Y-94686876D01*
X272084561Y-94877352D01*
X206438666Y-16378580D02*
X206105333Y-15902390D01*
X205867238Y-16378580D02*
X205867238Y-15378580D01*
X206248190Y-15378580D01*
X206343428Y-15426200D01*
X206391047Y-15473819D01*
X206438666Y-15569057D01*
X206438666Y-15711914D01*
X206391047Y-15807152D01*
X206343428Y-15854771D01*
X206248190Y-15902390D01*
X205867238Y-15902390D01*
X206867238Y-15854771D02*
X207200571Y-15854771D01*
X207343428Y-16378580D02*
X206867238Y-16378580D01*
X206867238Y-15378580D01*
X207343428Y-15378580D01*
X208105333Y-15854771D02*
X207772000Y-15854771D01*
X207772000Y-16378580D02*
X207772000Y-15378580D01*
X208248190Y-15378580D01*
X208772000Y-15378580D02*
X208772000Y-15616676D01*
X208533904Y-15521438D02*
X208772000Y-15616676D01*
X209010095Y-15521438D01*
X208629142Y-15807152D02*
X208772000Y-15616676D01*
X208914857Y-15807152D01*
X209533904Y-15378580D02*
X209533904Y-15616676D01*
X209295809Y-15521438D02*
X209533904Y-15616676D01*
X209772000Y-15521438D01*
X209391047Y-15807152D02*
X209533904Y-15616676D01*
X209676761Y-15807152D01*
X80607066Y-16403980D02*
X80273733Y-15927790D01*
X80035638Y-16403980D02*
X80035638Y-15403980D01*
X80416590Y-15403980D01*
X80511828Y-15451600D01*
X80559447Y-15499219D01*
X80607066Y-15594457D01*
X80607066Y-15737314D01*
X80559447Y-15832552D01*
X80511828Y-15880171D01*
X80416590Y-15927790D01*
X80035638Y-15927790D01*
X81035638Y-15880171D02*
X81368971Y-15880171D01*
X81511828Y-16403980D02*
X81035638Y-16403980D01*
X81035638Y-15403980D01*
X81511828Y-15403980D01*
X82273733Y-15880171D02*
X81940400Y-15880171D01*
X81940400Y-16403980D02*
X81940400Y-15403980D01*
X82416590Y-15403980D01*
X82940400Y-15403980D02*
X82940400Y-15642076D01*
X82702304Y-15546838D02*
X82940400Y-15642076D01*
X83178495Y-15546838D01*
X82797542Y-15832552D02*
X82940400Y-15642076D01*
X83083257Y-15832552D01*
X83702304Y-15403980D02*
X83702304Y-15642076D01*
X83464209Y-15546838D02*
X83702304Y-15642076D01*
X83940400Y-15546838D01*
X83559447Y-15832552D02*
X83702304Y-15642076D01*
X83845161Y-15832552D01*
X143548266Y-16378580D02*
X143214933Y-15902390D01*
X142976838Y-16378580D02*
X142976838Y-15378580D01*
X143357790Y-15378580D01*
X143453028Y-15426200D01*
X143500647Y-15473819D01*
X143548266Y-15569057D01*
X143548266Y-15711914D01*
X143500647Y-15807152D01*
X143453028Y-15854771D01*
X143357790Y-15902390D01*
X142976838Y-15902390D01*
X143976838Y-15854771D02*
X144310171Y-15854771D01*
X144453028Y-16378580D02*
X143976838Y-16378580D01*
X143976838Y-15378580D01*
X144453028Y-15378580D01*
X145214933Y-15854771D02*
X144881600Y-15854771D01*
X144881600Y-16378580D02*
X144881600Y-15378580D01*
X145357790Y-15378580D01*
X145881600Y-15378580D02*
X145881600Y-15616676D01*
X145643504Y-15521438D02*
X145881600Y-15616676D01*
X146119695Y-15521438D01*
X145738742Y-15807152D02*
X145881600Y-15616676D01*
X146024457Y-15807152D01*
X146643504Y-15378580D02*
X146643504Y-15616676D01*
X146405409Y-15521438D02*
X146643504Y-15616676D01*
X146881600Y-15521438D01*
X146500647Y-15807152D02*
X146643504Y-15616676D01*
X146786361Y-15807152D01*
X18326266Y-16353180D02*
X17992933Y-15876990D01*
X17754838Y-16353180D02*
X17754838Y-15353180D01*
X18135790Y-15353180D01*
X18231028Y-15400800D01*
X18278647Y-15448419D01*
X18326266Y-15543657D01*
X18326266Y-15686514D01*
X18278647Y-15781752D01*
X18231028Y-15829371D01*
X18135790Y-15876990D01*
X17754838Y-15876990D01*
X18754838Y-15829371D02*
X19088171Y-15829371D01*
X19231028Y-16353180D02*
X18754838Y-16353180D01*
X18754838Y-15353180D01*
X19231028Y-15353180D01*
X19992933Y-15829371D02*
X19659600Y-15829371D01*
X19659600Y-16353180D02*
X19659600Y-15353180D01*
X20135790Y-15353180D01*
X20659600Y-15353180D02*
X20659600Y-15591276D01*
X20421504Y-15496038D02*
X20659600Y-15591276D01*
X20897695Y-15496038D01*
X20516742Y-15781752D02*
X20659600Y-15591276D01*
X20802457Y-15781752D01*
X21421504Y-15353180D02*
X21421504Y-15591276D01*
X21183409Y-15496038D02*
X21421504Y-15591276D01*
X21659600Y-15496038D01*
X21278647Y-15781752D02*
X21421504Y-15591276D01*
X21564361Y-15781752D01*
X268846466Y-16378580D02*
X268513133Y-15902390D01*
X268275038Y-16378580D02*
X268275038Y-15378580D01*
X268655990Y-15378580D01*
X268751228Y-15426200D01*
X268798847Y-15473819D01*
X268846466Y-15569057D01*
X268846466Y-15711914D01*
X268798847Y-15807152D01*
X268751228Y-15854771D01*
X268655990Y-15902390D01*
X268275038Y-15902390D01*
X269275038Y-15854771D02*
X269608371Y-15854771D01*
X269751228Y-16378580D02*
X269275038Y-16378580D01*
X269275038Y-15378580D01*
X269751228Y-15378580D01*
X270513133Y-15854771D02*
X270179800Y-15854771D01*
X270179800Y-16378580D02*
X270179800Y-15378580D01*
X270655990Y-15378580D01*
X271179800Y-15378580D02*
X271179800Y-15616676D01*
X270941704Y-15521438D02*
X271179800Y-15616676D01*
X271417895Y-15521438D01*
X271036942Y-15807152D02*
X271179800Y-15616676D01*
X271322657Y-15807152D01*
X271941704Y-15378580D02*
X271941704Y-15616676D01*
X271703609Y-15521438D02*
X271941704Y-15616676D01*
X272179800Y-15521438D01*
X271798847Y-15807152D02*
X271941704Y-15616676D01*
X272084561Y-15807152D01*
G04 #@! TD*
M02*
