G04 #@! TF.GenerationSoftware,KiCad,Pcbnew,(5.0.2)-1*
G04 #@! TF.CreationDate,2019-05-02T00:05:32-04:00*
G04 #@! TF.ProjectId,switch_plate,73776974-6368-45f7-906c-6174652e6b69,rev?*
G04 #@! TF.SameCoordinates,Original*
G04 #@! TF.FileFunction,Copper,L1,Top*
G04 #@! TF.FilePolarity,Positive*
%FSLAX46Y46*%
G04 Gerber Fmt 4.6, Leading zero omitted, Abs format (unit mm)*
G04 Created by KiCad (PCBNEW (5.0.2)-1) date 5/2/2019 12:05:32 AM*
%MOMM*%
%LPD*%
G01*
G04 APERTURE LIST*
G04 #@! TA.AperFunction,NonConductor*
%ADD10C,0.250000*%
G04 #@! TD*
G04 #@! TA.AperFunction,ComponentPad*
%ADD11C,4.400000*%
G04 #@! TD*
G04 APERTURE END LIST*
D10*
X225192961Y-97245514D02*
X225192961Y-98055038D01*
X225145342Y-98150276D01*
X225097723Y-98197895D01*
X225002485Y-98245514D01*
X224859628Y-98245514D01*
X224764390Y-98197895D01*
X225192961Y-97864561D02*
X225097723Y-97912180D01*
X224907247Y-97912180D01*
X224812009Y-97864561D01*
X224764390Y-97816942D01*
X224716771Y-97721704D01*
X224716771Y-97435990D01*
X224764390Y-97340752D01*
X224812009Y-97293133D01*
X224907247Y-97245514D01*
X225097723Y-97245514D01*
X225192961Y-97293133D01*
X225669152Y-97912180D02*
X225669152Y-97245514D01*
X225669152Y-96912180D02*
X225621533Y-96959800D01*
X225669152Y-97007419D01*
X225716771Y-96959800D01*
X225669152Y-96912180D01*
X225669152Y-97007419D01*
X226002485Y-97245514D02*
X226383438Y-97245514D01*
X226145342Y-96912180D02*
X226145342Y-97769323D01*
X226192961Y-97864561D01*
X226288200Y-97912180D01*
X226383438Y-97912180D01*
X226716771Y-97912180D02*
X226716771Y-96912180D01*
X227145342Y-97912180D02*
X227145342Y-97388371D01*
X227097723Y-97293133D01*
X227002485Y-97245514D01*
X226859628Y-97245514D01*
X226764390Y-97293133D01*
X226716771Y-97340752D01*
X228050104Y-97245514D02*
X228050104Y-97912180D01*
X227621533Y-97245514D02*
X227621533Y-97769323D01*
X227669152Y-97864561D01*
X227764390Y-97912180D01*
X227907247Y-97912180D01*
X228002485Y-97864561D01*
X228050104Y-97816942D01*
X228526295Y-97912180D02*
X228526295Y-96912180D01*
X228526295Y-97293133D02*
X228621533Y-97245514D01*
X228812009Y-97245514D01*
X228907247Y-97293133D01*
X228954866Y-97340752D01*
X229002485Y-97435990D01*
X229002485Y-97721704D01*
X228954866Y-97816942D01*
X228907247Y-97864561D01*
X228812009Y-97912180D01*
X228621533Y-97912180D01*
X228526295Y-97864561D01*
X229431057Y-97816942D02*
X229478676Y-97864561D01*
X229431057Y-97912180D01*
X229383438Y-97864561D01*
X229431057Y-97816942D01*
X229431057Y-97912180D01*
X230335819Y-97864561D02*
X230240580Y-97912180D01*
X230050104Y-97912180D01*
X229954866Y-97864561D01*
X229907247Y-97816942D01*
X229859628Y-97721704D01*
X229859628Y-97435990D01*
X229907247Y-97340752D01*
X229954866Y-97293133D01*
X230050104Y-97245514D01*
X230240580Y-97245514D01*
X230335819Y-97293133D01*
X230907247Y-97912180D02*
X230812009Y-97864561D01*
X230764390Y-97816942D01*
X230716771Y-97721704D01*
X230716771Y-97435990D01*
X230764390Y-97340752D01*
X230812009Y-97293133D01*
X230907247Y-97245514D01*
X231050104Y-97245514D01*
X231145342Y-97293133D01*
X231192961Y-97340752D01*
X231240580Y-97435990D01*
X231240580Y-97721704D01*
X231192961Y-97816942D01*
X231145342Y-97864561D01*
X231050104Y-97912180D01*
X230907247Y-97912180D01*
X231669152Y-97912180D02*
X231669152Y-97245514D01*
X231669152Y-97340752D02*
X231716771Y-97293133D01*
X231812009Y-97245514D01*
X231954866Y-97245514D01*
X232050104Y-97293133D01*
X232097723Y-97388371D01*
X232097723Y-97912180D01*
X232097723Y-97388371D02*
X232145342Y-97293133D01*
X232240580Y-97245514D01*
X232383438Y-97245514D01*
X232478676Y-97293133D01*
X232526295Y-97388371D01*
X232526295Y-97912180D01*
X233716771Y-96864561D02*
X232859628Y-98150276D01*
X234050104Y-97912180D02*
X234050104Y-96912180D01*
X234383438Y-97626466D01*
X234716771Y-96912180D01*
X234716771Y-97912180D01*
X235097723Y-97245514D02*
X235335819Y-97912180D01*
X235573914Y-97245514D02*
X235335819Y-97912180D01*
X235240580Y-98150276D01*
X235192961Y-98197895D01*
X235097723Y-98245514D01*
X235812009Y-97245514D02*
X236192961Y-97245514D01*
X235954866Y-96912180D02*
X235954866Y-97769323D01*
X236002485Y-97864561D01*
X236097723Y-97912180D01*
X236192961Y-97912180D01*
X236526295Y-97912180D02*
X236526295Y-96912180D01*
X236954866Y-97912180D02*
X236954866Y-97388371D01*
X236907247Y-97293133D01*
X236812009Y-97245514D01*
X236669152Y-97245514D01*
X236573914Y-97293133D01*
X236526295Y-97340752D01*
X237573914Y-97912180D02*
X237478676Y-97864561D01*
X237431057Y-97816942D01*
X237383438Y-97721704D01*
X237383438Y-97435990D01*
X237431057Y-97340752D01*
X237478676Y-97293133D01*
X237573914Y-97245514D01*
X237716771Y-97245514D01*
X237812009Y-97293133D01*
X237859628Y-97340752D01*
X237907247Y-97435990D01*
X237907247Y-97721704D01*
X237859628Y-97816942D01*
X237812009Y-97864561D01*
X237716771Y-97912180D01*
X237573914Y-97912180D01*
X238288199Y-97864561D02*
X238383438Y-97912180D01*
X238573914Y-97912180D01*
X238669152Y-97864561D01*
X238716771Y-97769323D01*
X238716771Y-97721704D01*
X238669152Y-97626466D01*
X238573914Y-97578847D01*
X238431057Y-97578847D01*
X238335819Y-97531228D01*
X238288199Y-97435990D01*
X238288199Y-97388371D01*
X238335819Y-97293133D01*
X238431057Y-97245514D01*
X238573914Y-97245514D01*
X238669152Y-97293133D01*
X239145342Y-97912180D02*
X239145342Y-96912180D01*
X239478676Y-97626466D01*
X239812009Y-96912180D01*
X239812009Y-97912180D01*
X240716771Y-97912180D02*
X240716771Y-97388371D01*
X240669152Y-97293133D01*
X240573914Y-97245514D01*
X240383438Y-97245514D01*
X240288199Y-97293133D01*
X240716771Y-97864561D02*
X240621533Y-97912180D01*
X240383438Y-97912180D01*
X240288199Y-97864561D01*
X240240580Y-97769323D01*
X240240580Y-97674085D01*
X240288199Y-97578847D01*
X240383438Y-97531228D01*
X240621533Y-97531228D01*
X240716771Y-97483609D01*
X241192961Y-97245514D02*
X241192961Y-97912180D01*
X241192961Y-97340752D02*
X241240580Y-97293133D01*
X241335819Y-97245514D01*
X241478676Y-97245514D01*
X241573914Y-97293133D01*
X241621533Y-97388371D01*
X241621533Y-97912180D01*
X242097723Y-97245514D02*
X242097723Y-97912180D01*
X242097723Y-97340752D02*
X242145342Y-97293133D01*
X242240580Y-97245514D01*
X242383438Y-97245514D01*
X242478676Y-97293133D01*
X242526295Y-97388371D01*
X242526295Y-97912180D01*
X243716771Y-96864561D02*
X242859628Y-98150276D01*
X243907247Y-97245514D02*
X244288199Y-97245514D01*
X244050104Y-96912180D02*
X244050104Y-97769323D01*
X244097723Y-97864561D01*
X244192961Y-97912180D01*
X244288199Y-97912180D01*
X245050104Y-97245514D02*
X245050104Y-98055038D01*
X245002485Y-98150276D01*
X244954866Y-98197895D01*
X244859628Y-98245514D01*
X244716771Y-98245514D01*
X244621533Y-98197895D01*
X245050104Y-97864561D02*
X244954866Y-97912180D01*
X244764390Y-97912180D01*
X244669152Y-97864561D01*
X244621533Y-97816942D01*
X244573914Y-97721704D01*
X244573914Y-97435990D01*
X244621533Y-97340752D01*
X244669152Y-97293133D01*
X244764390Y-97245514D01*
X244954866Y-97245514D01*
X245050104Y-97293133D01*
X245954866Y-97245514D02*
X245954866Y-97912180D01*
X245716771Y-96864561D02*
X245478676Y-97578847D01*
X246097723Y-97578847D01*
X246383438Y-97912180D02*
X246907247Y-97245514D01*
X246383438Y-97245514D02*
X246907247Y-97912180D01*
D11*
G04 #@! TO.P,REF\002A\002A,1*
G04 #@! TO.N,N/C*
X207772000Y-19126200D03*
G04 #@! TD*
G04 #@! TO.P,REF\002A\002A,1*
G04 #@! TO.N,N/C*
X144881600Y-58668920D03*
G04 #@! TD*
G04 #@! TO.P,REF\002A\002A,1*
G04 #@! TO.N,N/C*
X81940400Y-58694320D03*
G04 #@! TD*
G04 #@! TO.P,REF\002A\002A,1*
G04 #@! TO.N,N/C*
X207772000Y-58668920D03*
G04 #@! TD*
G04 #@! TO.P,REF\002A\002A,1*
G04 #@! TO.N,N/C*
X81991200Y-98221800D03*
G04 #@! TD*
G04 #@! TO.P,REF\002A\002A,1*
G04 #@! TO.N,N/C*
X207822800Y-98196400D03*
G04 #@! TD*
G04 #@! TO.P,REF\002A\002A,1*
G04 #@! TO.N,N/C*
X19659600Y-98196400D03*
G04 #@! TD*
G04 #@! TO.P,REF\002A\002A,1*
G04 #@! TO.N,N/C*
X270179800Y-98196400D03*
G04 #@! TD*
G04 #@! TO.P,REF\002A\002A,1*
G04 #@! TO.N,N/C*
X81940400Y-19151600D03*
G04 #@! TD*
G04 #@! TO.P,REF\002A\002A,1*
G04 #@! TO.N,N/C*
X144881600Y-19126200D03*
G04 #@! TD*
G04 #@! TO.P,REF\002A\002A,1*
G04 #@! TO.N,N/C*
X19659600Y-19100800D03*
G04 #@! TD*
G04 #@! TO.P,REF\002A\002A,1*
G04 #@! TO.N,N/C*
X270179800Y-19126200D03*
G04 #@! TD*
G04 #@! TO.P,H1,1*
G04 #@! TO.N,N/C*
X144932400Y-98196400D03*
G04 #@! TD*
M02*
