G04 #@! TF.GenerationSoftware,KiCad,Pcbnew,(5.0.2)-1*
G04 #@! TF.CreationDate,2019-04-26T14:55:14-04:00*
G04 #@! TF.ProjectId,switch_plate,73776974-6368-45f7-906c-6174652e6b69,rev?*
G04 #@! TF.SameCoordinates,Original*
G04 #@! TF.FileFunction,Profile,NP*
%FSLAX46Y46*%
G04 Gerber Fmt 4.6, Leading zero omitted, Abs format (unit mm)*
G04 Created by KiCad (PCBNEW (5.0.2)-1) date 4/26/2019 2:55:14 PM*
%MOMM*%
%LPD*%
G01*
G04 APERTURE LIST*
%ADD10C,0.200000*%
G04 APERTURE END LIST*
D10*
X206826700Y-58750200D02*
X206874700Y-59058900D01*
X207516700Y-59701000D02*
X207825700Y-59750700D01*
X207825700Y-59750700D02*
X208135700Y-59701000D01*
X208413700Y-57939900D02*
X208135700Y-57797700D01*
X208635700Y-59337200D02*
X208777700Y-59058900D01*
X208635700Y-58161800D02*
X208413700Y-57939900D01*
X208413700Y-59559100D02*
X208635700Y-59337200D01*
X144912700Y-57749700D02*
X144603700Y-57797700D01*
X145722700Y-58161800D02*
X145500700Y-57939900D01*
X145864700Y-58440100D02*
X145722700Y-58161800D01*
X206874700Y-58440100D02*
X206826700Y-58750200D01*
X145500700Y-57939900D02*
X145222700Y-57797700D01*
X207825700Y-57749700D02*
X207516700Y-57797700D01*
X207238700Y-59559100D02*
X207516700Y-59701000D01*
X145222700Y-57797700D02*
X144912700Y-57749700D01*
X208777700Y-58440100D02*
X208635700Y-58161800D01*
X208135700Y-59701000D02*
X208413700Y-59559100D01*
X207516700Y-57797700D02*
X207238700Y-57939900D01*
X208777700Y-59058900D02*
X208825700Y-58750200D01*
X207016700Y-59337200D02*
X207238700Y-59559100D01*
X208825700Y-58750200D02*
X208777700Y-58440100D01*
X207238700Y-57939900D02*
X207016700Y-58161800D01*
X207016700Y-58161800D02*
X206874700Y-58440100D01*
X206874700Y-59058900D02*
X207016700Y-59337200D01*
X208135700Y-57797700D02*
X207825700Y-57749700D01*
X144103700Y-58161800D02*
X143961700Y-58440100D01*
X144325700Y-57939900D02*
X144103700Y-58161800D01*
X144603700Y-57797700D02*
X144325700Y-57939900D01*
X82588500Y-59559100D02*
X82809000Y-59337200D01*
X82309800Y-59701000D02*
X82588500Y-59559100D01*
X81049000Y-58440100D02*
X81001000Y-58750200D01*
X145912700Y-58750200D02*
X145864700Y-58440100D01*
X81049000Y-59058900D02*
X81191100Y-59337200D01*
X145500700Y-59559100D02*
X145722700Y-59337200D01*
X82588500Y-57939900D02*
X82309800Y-57797700D01*
X81691400Y-59701000D02*
X82000100Y-59750700D01*
X82809000Y-58161800D02*
X82588500Y-57939900D01*
X82809000Y-59337200D02*
X82952200Y-59058900D01*
X81412700Y-57939900D02*
X81191100Y-58161800D01*
X82000100Y-59750700D02*
X82309800Y-59701000D01*
X81001000Y-58750200D02*
X81049000Y-59058900D01*
X145864700Y-59058900D02*
X145912700Y-58750200D01*
X82000100Y-57749700D02*
X81691400Y-57797700D01*
X82309800Y-57797700D02*
X82000100Y-57749700D01*
X145722700Y-59337200D02*
X145864700Y-59058900D01*
X81191100Y-58161800D02*
X81049000Y-58440100D01*
X145222700Y-59701000D02*
X145500700Y-59559100D01*
X144912700Y-59750700D02*
X145222700Y-59701000D01*
X81191100Y-59337200D02*
X81412700Y-59559100D01*
X144103700Y-59337200D02*
X144325700Y-59559100D01*
X81691400Y-57797700D02*
X81412700Y-57939900D01*
X143961700Y-58440100D02*
X143913700Y-58750200D01*
X81412700Y-59559100D02*
X81691400Y-59701000D01*
X144603700Y-59701000D02*
X144912700Y-59750700D01*
X144325700Y-59559100D02*
X144603700Y-59701000D01*
X143961700Y-59058900D02*
X144103700Y-59337200D01*
X143913700Y-58750200D02*
X143961700Y-59058900D01*
X83000200Y-58750200D02*
X82952200Y-58440100D01*
X82952200Y-59058900D02*
X83000200Y-58750200D01*
X82952200Y-58440100D02*
X82809000Y-58161800D01*
X267013700Y-24091900D02*
X266213700Y-24091900D01*
X259938700Y-37841800D02*
X263238700Y-37841800D01*
X232362700Y-32991100D02*
X232362700Y-36091700D01*
X233163700Y-23091400D02*
X233163700Y-24091900D01*
X266213700Y-37092100D02*
X266213700Y-36091700D01*
X23612410Y-23091400D02*
X23612410Y-24091900D01*
X266213700Y-36091700D02*
X267013700Y-36091700D01*
X263238700Y-37841800D02*
X263238700Y-37092100D01*
X259938700Y-37092100D02*
X259938700Y-37841800D01*
X236138700Y-37841800D02*
X239437700Y-37841800D01*
X233163700Y-27191100D02*
X233163700Y-32991100D01*
X267013700Y-27191100D02*
X267013700Y-24091900D01*
X266213700Y-32991100D02*
X266213700Y-27191100D01*
X233163700Y-32991100D02*
X232362700Y-32991100D01*
X232362700Y-24091900D02*
X232362700Y-27191100D01*
X23612410Y-32991100D02*
X22811780Y-32991100D01*
X23612410Y-27191100D02*
X23612410Y-32991100D01*
X267013700Y-32991100D02*
X266213700Y-32991100D01*
X239437700Y-37841800D02*
X239437700Y-37092100D01*
X233163700Y-24091900D02*
X232362700Y-24091900D01*
X266213700Y-24091900D02*
X266213700Y-23091400D01*
X266213700Y-27191100D02*
X267013700Y-27191100D01*
X263238700Y-37092100D02*
X266213700Y-37092100D01*
X232362700Y-27191100D02*
X233163700Y-27191100D01*
X267013700Y-36091700D02*
X267013700Y-32991100D01*
X239437700Y-37092100D02*
X259938700Y-37092100D01*
X233163700Y-36091700D02*
X233163700Y-37092100D01*
X236138700Y-37092100D02*
X236138700Y-37841800D01*
X233163700Y-37092100D02*
X236138700Y-37092100D01*
X232362700Y-36091700D02*
X233163700Y-36091700D01*
X22811780Y-27191100D02*
X23612410Y-27191100D01*
X22811780Y-24091900D02*
X22811780Y-27191100D01*
X23612410Y-24091900D02*
X22811780Y-24091900D01*
X266213700Y-23091400D02*
X233163700Y-23091400D01*
X261450700Y-43141900D02*
X261450700Y-42142900D01*
X261450700Y-55141700D02*
X262249700Y-55141700D01*
X261450700Y-56142100D02*
X261450700Y-55141700D01*
X262249700Y-43141900D02*
X261450700Y-43141900D01*
X261450700Y-42142900D02*
X245069700Y-42142900D01*
X261450700Y-46242500D02*
X262249700Y-46242500D01*
X245069700Y-55141700D02*
X245069700Y-56142100D01*
X244269700Y-52042500D02*
X244269700Y-55141700D01*
X245069700Y-43141900D02*
X244269700Y-43141900D01*
X244269700Y-55141700D02*
X245069700Y-55141700D01*
X244269700Y-46242500D02*
X245069700Y-46242500D01*
X245069700Y-56142100D02*
X261450700Y-56142100D01*
X245069700Y-46242500D02*
X245069700Y-52042500D01*
X245069700Y-42142900D02*
X245069700Y-43141900D01*
X237642400Y-42142900D02*
X47424900Y-42142900D01*
X262249700Y-52042500D02*
X261450700Y-52042500D01*
X245069700Y-52042500D02*
X244269700Y-52042500D01*
X261450700Y-52042500D02*
X261450700Y-46242500D01*
X262249700Y-55141700D02*
X262249700Y-52042500D01*
X244269700Y-43141900D02*
X244269700Y-46242500D01*
X262249700Y-46242500D02*
X262249700Y-43141900D01*
X47424900Y-52042500D02*
X46625700Y-52042500D01*
X46625700Y-52042500D02*
X46625700Y-55141700D01*
X42375800Y-43141900D02*
X42375800Y-42142900D01*
X238437700Y-55141700D02*
X238437700Y-52042500D01*
X46625700Y-55141700D02*
X47424900Y-55141700D01*
X237636700Y-56142100D02*
X237636700Y-55141700D01*
X237636700Y-52042500D02*
X237636700Y-46242500D01*
X238437700Y-46242500D02*
X238437700Y-43141900D01*
X238437700Y-43141900D02*
X237636700Y-43141900D01*
X47424900Y-56142100D02*
X237642400Y-56142100D01*
X47424900Y-55141700D02*
X47424900Y-56142100D01*
X47424900Y-43141900D02*
X46625700Y-43141900D01*
X42375800Y-42142900D02*
X25995040Y-42142900D01*
X238437700Y-52042500D02*
X237636700Y-52042500D01*
X47424900Y-46242500D02*
X47424900Y-52042500D01*
X43175000Y-43141900D02*
X42375800Y-43141900D01*
X237636700Y-55141700D02*
X238437700Y-55141700D01*
X47424900Y-42142900D02*
X47424900Y-43141900D01*
X46625700Y-46242500D02*
X47424900Y-46242500D01*
X237636700Y-46242500D02*
X238437700Y-46242500D01*
X46625700Y-43141900D02*
X46625700Y-46242500D01*
X237636700Y-43141900D02*
X237636700Y-42142900D01*
X151400700Y-62191900D02*
X151400700Y-65292500D01*
X147949700Y-62191900D02*
X147150700Y-62191900D01*
X147150700Y-65292500D02*
X147949700Y-65292500D01*
X128899700Y-65292500D02*
X128899700Y-62191900D01*
X133149700Y-62191900D02*
X132350700Y-62191900D01*
X133149700Y-61192900D02*
X133149700Y-62191900D01*
X166999700Y-71092600D02*
X166200700Y-71092600D01*
X147949700Y-65292500D02*
X147949700Y-62191900D01*
X132350700Y-74191800D02*
X133149700Y-74191800D01*
X128899700Y-62191900D02*
X128100700Y-62191900D01*
X166999700Y-62191900D02*
X166200700Y-62191900D01*
X166200700Y-71092600D02*
X166200700Y-65292500D01*
X166200700Y-74191800D02*
X166999700Y-74191800D01*
X132350700Y-62191900D02*
X132350700Y-65292500D01*
X147949700Y-74191800D02*
X147949700Y-71092600D01*
X147949700Y-71092600D02*
X147150700Y-71092600D01*
X186049700Y-74191800D02*
X186049700Y-71092600D01*
X166200700Y-61192900D02*
X152199700Y-61192900D01*
X166999700Y-74191800D02*
X166999700Y-71092600D01*
X128100700Y-61192900D02*
X114100000Y-61192900D01*
X171249700Y-61192900D02*
X171249700Y-62191900D01*
X171249700Y-75192200D02*
X185250700Y-75192200D01*
X170450700Y-65292500D02*
X171249700Y-65292500D01*
X147150700Y-74191800D02*
X147949700Y-74191800D01*
X166200700Y-62191900D02*
X166200700Y-61192900D01*
X151400700Y-71092600D02*
X151400700Y-74191800D01*
X151400700Y-65292500D02*
X152199700Y-65292500D01*
X152199700Y-71092600D02*
X151400700Y-71092600D01*
X185250700Y-74191800D02*
X186049700Y-74191800D01*
X170450700Y-74191800D02*
X171249700Y-74191800D01*
X170450700Y-71092600D02*
X170450700Y-74191800D01*
X166200700Y-75192200D02*
X166200700Y-74191800D01*
X132350700Y-65292500D02*
X133149700Y-65292500D01*
X185250700Y-75192200D02*
X185250700Y-74191800D01*
X171249700Y-74191800D02*
X171249700Y-75192200D01*
X152199700Y-74191800D02*
X152199700Y-75192200D01*
X128100700Y-62191900D02*
X128100700Y-61192900D01*
X171249700Y-65292500D02*
X171249700Y-71092600D01*
X133149700Y-65292500D02*
X133149700Y-71092600D01*
X171249700Y-71092600D02*
X170450700Y-71092600D01*
X170450700Y-62191900D02*
X170450700Y-65292500D01*
X152199700Y-65292500D02*
X152199700Y-71092600D01*
X152199700Y-62191900D02*
X151400700Y-62191900D01*
X152199700Y-61192900D02*
X152199700Y-62191900D01*
X147150700Y-61192900D02*
X133149700Y-61192900D01*
X147150700Y-62191900D02*
X147150700Y-61192900D01*
X147150700Y-75192200D02*
X147150700Y-74191800D01*
X147150700Y-71092600D02*
X147150700Y-65292500D01*
X133149700Y-75192200D02*
X147150700Y-75192200D01*
X133149700Y-74191800D02*
X133149700Y-75192200D01*
X132350700Y-71092600D02*
X132350700Y-74191800D01*
X171249700Y-62191900D02*
X170450700Y-62191900D01*
X166200700Y-65292500D02*
X166999700Y-65292500D01*
X152199700Y-75192200D02*
X166200700Y-75192200D01*
X166999700Y-65292500D02*
X166999700Y-62191900D01*
X151400700Y-74191800D02*
X152199700Y-74191800D01*
X133149700Y-71092600D02*
X132350700Y-71092600D01*
X109050700Y-62191900D02*
X109050700Y-61192900D01*
X114100000Y-75192200D02*
X128100700Y-75192200D01*
X109050700Y-61192900D02*
X95050000Y-61192900D01*
X114100000Y-62191900D02*
X113300600Y-62191900D01*
X70950700Y-65292500D02*
X71750100Y-65292500D01*
X114100000Y-61192900D02*
X114100000Y-62191900D01*
X109050700Y-75192200D02*
X109050700Y-74191800D01*
X75200600Y-65292500D02*
X76000000Y-65292500D01*
X71750100Y-65292500D02*
X71750100Y-62191900D01*
X90800100Y-71092600D02*
X90000700Y-71092600D01*
X71750100Y-62191900D02*
X70950700Y-62191900D01*
X95050000Y-75192200D02*
X109050700Y-75192200D01*
X90000700Y-75192200D02*
X90000700Y-74191800D01*
X95050000Y-62191900D02*
X94250600Y-62191900D01*
X90000700Y-62191900D02*
X90000700Y-61192900D01*
X90000700Y-65292500D02*
X90800100Y-65292500D01*
X128100700Y-65292500D02*
X128899700Y-65292500D01*
X114100000Y-65292500D02*
X114100000Y-71092600D01*
X128100700Y-71092600D02*
X128100700Y-65292500D01*
X128899700Y-71092600D02*
X128100700Y-71092600D01*
X113300600Y-71092600D02*
X113300600Y-74191800D01*
X109850100Y-65292500D02*
X109850100Y-62191900D01*
X95050000Y-74191800D02*
X95050000Y-75192200D01*
X76000000Y-71092600D02*
X75200600Y-71092600D01*
X90800100Y-62191900D02*
X90000700Y-62191900D01*
X113300600Y-65292500D02*
X114100000Y-65292500D01*
X95050000Y-61192900D02*
X95050000Y-62191900D01*
X76000000Y-62191900D02*
X75200600Y-62191900D01*
X90800100Y-65292500D02*
X90800100Y-62191900D01*
X76000000Y-61192900D02*
X76000000Y-62191900D01*
X114100000Y-71092600D02*
X113300600Y-71092600D01*
X128100700Y-75192200D02*
X128100700Y-74191800D01*
X113300600Y-62191900D02*
X113300600Y-65292500D01*
X70950700Y-71092600D02*
X70950700Y-65292500D01*
X94250600Y-74191800D02*
X95050000Y-74191800D01*
X109850100Y-71092600D02*
X109050700Y-71092600D01*
X75200600Y-71092600D02*
X75200600Y-74191800D01*
X76000000Y-74191800D02*
X76000000Y-75192200D01*
X94250600Y-62191900D02*
X94250600Y-65292500D01*
X109850100Y-74191800D02*
X109850100Y-71092600D01*
X71750100Y-74191800D02*
X71750100Y-71092600D01*
X70950700Y-62191900D02*
X70950700Y-61192900D01*
X114100000Y-74191800D02*
X114100000Y-75192200D01*
X109050700Y-71092600D02*
X109050700Y-65292500D01*
X128899700Y-74191800D02*
X128899700Y-71092600D01*
X90800100Y-74191800D02*
X90800100Y-71092600D01*
X70950700Y-61192900D02*
X56950000Y-61192900D01*
X128100700Y-74191800D02*
X128899700Y-74191800D01*
X113300600Y-74191800D02*
X114100000Y-74191800D01*
X75200600Y-62191900D02*
X75200600Y-65292500D01*
X95050000Y-65292500D02*
X95050000Y-71092600D01*
X90000700Y-74191800D02*
X90800100Y-74191800D01*
X109050700Y-65292500D02*
X109850100Y-65292500D01*
X90000700Y-71092600D02*
X90000700Y-65292500D01*
X109050700Y-74191800D02*
X109850100Y-74191800D01*
X76000000Y-75192200D02*
X90000700Y-75192200D01*
X94250600Y-71092600D02*
X94250600Y-74191800D01*
X95050000Y-71092600D02*
X94250600Y-71092600D01*
X76000000Y-65292500D02*
X76000000Y-71092600D01*
X75200600Y-74191800D02*
X76000000Y-74191800D01*
X94250600Y-65292500D02*
X95050000Y-65292500D01*
X90000700Y-61192900D02*
X76000000Y-61192900D01*
X71750100Y-71092600D02*
X70950700Y-71092600D01*
X109850100Y-62191900D02*
X109050700Y-62191900D01*
X204300700Y-74191800D02*
X205099700Y-74191800D01*
X204300700Y-62191900D02*
X204300700Y-61192900D01*
X189500700Y-71092600D02*
X189500700Y-74191800D01*
X43175000Y-46242500D02*
X43175000Y-43141900D01*
X43175000Y-52042500D02*
X42375800Y-52042500D01*
X189500700Y-65292500D02*
X190299700Y-65292500D01*
X25995040Y-52042500D02*
X25194410Y-52042500D01*
X42375800Y-46242500D02*
X43175000Y-46242500D01*
X25995040Y-55141700D02*
X25995040Y-56142100D01*
X186049700Y-65292500D02*
X186049700Y-62191900D01*
X25194410Y-46242500D02*
X25995040Y-46242500D01*
X25194410Y-43141900D02*
X25194410Y-46242500D01*
X209349700Y-74191800D02*
X209349700Y-75192200D01*
X209349700Y-61192900D02*
X209349700Y-62191900D01*
X204300700Y-61192900D02*
X190299700Y-61192900D01*
X185250700Y-65292500D02*
X186049700Y-65292500D01*
X186049700Y-71092600D02*
X185250700Y-71092600D01*
X185250700Y-71092600D02*
X185250700Y-65292500D01*
X224149700Y-65292500D02*
X224149700Y-62191900D01*
X223350700Y-65292500D02*
X224149700Y-65292500D01*
X205099700Y-71092600D02*
X204300700Y-71092600D01*
X185250700Y-62191900D02*
X185250700Y-61192900D01*
X190299700Y-75192200D02*
X204300700Y-75192200D01*
X205099700Y-74191800D02*
X205099700Y-71092600D01*
X189500700Y-74191800D02*
X190299700Y-74191800D01*
X189500700Y-62191900D02*
X189500700Y-65292500D01*
X190299700Y-61192900D02*
X190299700Y-62191900D01*
X223350700Y-75192200D02*
X223350700Y-74191800D01*
X42375800Y-52042500D02*
X42375800Y-46242500D01*
X42375800Y-55141700D02*
X43175000Y-55141700D01*
X205099700Y-62191900D02*
X204300700Y-62191900D01*
X224149700Y-71092600D02*
X223350700Y-71092600D01*
X43175000Y-55141700D02*
X43175000Y-52042500D01*
X25995040Y-43141900D02*
X25194410Y-43141900D01*
X204300700Y-65292500D02*
X205099700Y-65292500D01*
X190299700Y-71092600D02*
X189500700Y-71092600D01*
X204300700Y-75192200D02*
X204300700Y-74191800D01*
X185250700Y-61192900D02*
X171249700Y-61192900D01*
X190299700Y-62191900D02*
X189500700Y-62191900D01*
X208550700Y-62191900D02*
X208550700Y-65292500D01*
X205099700Y-65292500D02*
X205099700Y-62191900D01*
X209349700Y-62191900D02*
X208550700Y-62191900D01*
X25194410Y-55141700D02*
X25995040Y-55141700D01*
X208550700Y-65292500D02*
X209349700Y-65292500D01*
X25194410Y-52042500D02*
X25194410Y-55141700D01*
X224149700Y-74191800D02*
X224149700Y-71092600D01*
X209349700Y-65292500D02*
X209349700Y-71092600D01*
X25995040Y-46242500D02*
X25995040Y-52042500D01*
X223350700Y-61192900D02*
X209349700Y-61192900D01*
X186049700Y-62191900D02*
X185250700Y-62191900D01*
X223350700Y-62191900D02*
X223350700Y-61192900D01*
X224149700Y-62191900D02*
X223350700Y-62191900D01*
X223350700Y-74191800D02*
X224149700Y-74191800D01*
X204300700Y-71092600D02*
X204300700Y-65292500D01*
X223350700Y-71092600D02*
X223350700Y-65292500D01*
X190299700Y-65292500D02*
X190299700Y-71092600D01*
X209349700Y-75192200D02*
X223350700Y-75192200D01*
X208550700Y-74191800D02*
X209349700Y-74191800D01*
X208550700Y-71092600D02*
X208550700Y-74191800D01*
X42375800Y-56142100D02*
X42375800Y-55141700D01*
X209349700Y-71092600D02*
X208550700Y-71092600D01*
X190299700Y-74191800D02*
X190299700Y-75192200D01*
X25995040Y-56142100D02*
X42375800Y-56142100D01*
X25995040Y-42142900D02*
X25995040Y-43141900D01*
X17566964Y-17267800D02*
X17673072Y-17152100D01*
X17469124Y-99943207D02*
X17382306Y-99812290D01*
X17240369Y-17801200D02*
X17305137Y-17659000D01*
X17185247Y-99386480D02*
X17143906Y-99234900D01*
X17673072Y-100182986D02*
X17566964Y-100065854D01*
X17912852Y-100386934D02*
X17788829Y-100289095D01*
X18043760Y-100473753D02*
X17912852Y-100386934D01*
X17788829Y-17045900D02*
X17912852Y-16948200D01*
X17469124Y-17392000D02*
X17566964Y-17267800D01*
X17305137Y-17659000D02*
X17382306Y-17522800D01*
X17673072Y-17152100D02*
X17788829Y-17045900D01*
X17382306Y-17522800D02*
X17469124Y-17392000D01*
X17382306Y-99812290D02*
X17305137Y-99675870D01*
X17185247Y-17948700D02*
X17240369Y-17801200D01*
X17788829Y-100289095D02*
X17673072Y-100182986D01*
X17566964Y-100065854D02*
X17469124Y-99943207D01*
X17094297Y-98924840D02*
X17087407Y-98767740D01*
X17143906Y-99234900D02*
X17112211Y-99080560D01*
X17112211Y-18254500D02*
X17143906Y-18100000D01*
X17240369Y-99533930D02*
X17185247Y-99386480D01*
X17087407Y-98767740D02*
X17088785Y-18567400D01*
X17088785Y-18567400D02*
X17094297Y-18410100D01*
X17112211Y-99080560D02*
X17094297Y-98924840D01*
X17305137Y-99675870D02*
X17240369Y-99533930D01*
X17094297Y-18410100D02*
X17112211Y-18254500D01*
X18043760Y-16861400D02*
X18180190Y-16784100D01*
X17143906Y-18100000D02*
X17185247Y-17948700D01*
X17912852Y-16948200D02*
X18043760Y-16861400D01*
X272682700Y-18100000D02*
X272713700Y-18254500D01*
X272732700Y-98924840D02*
X272713700Y-99080560D01*
X272521700Y-17659000D02*
X272586700Y-17801200D01*
X271051700Y-16591200D02*
X271205700Y-16622900D01*
X19088320Y-100768652D02*
X18931220Y-100761762D01*
X272521700Y-99675870D02*
X272444700Y-99812290D01*
X270895700Y-100761762D02*
X270737700Y-100767274D01*
X272641700Y-17948700D02*
X272682700Y-18100000D01*
X271783700Y-16861400D02*
X271913700Y-16948200D01*
X271913700Y-16948200D02*
X272036700Y-17045900D01*
X271357700Y-16664200D02*
X271504700Y-16719200D01*
X272444700Y-99812290D02*
X272357700Y-99943207D01*
X271913700Y-100386934D02*
X271783700Y-100473753D01*
X272259700Y-100065854D02*
X272153700Y-100182986D01*
X272713700Y-99080560D02*
X272682700Y-99234900D01*
X272357700Y-99943207D02*
X272259700Y-100065854D01*
X18180190Y-100550922D02*
X18043760Y-100473753D01*
X18322130Y-100615690D02*
X18180190Y-100550922D01*
X18469580Y-100670811D02*
X18322130Y-100615690D01*
X18621160Y-100712152D02*
X18469580Y-100670811D01*
X271051700Y-100743847D02*
X270895700Y-100761762D01*
X271357700Y-100670811D02*
X271205700Y-100712152D01*
X272713700Y-18254500D02*
X272732700Y-18410100D01*
X270895700Y-16573200D02*
X271051700Y-16591200D01*
X272153700Y-100182986D02*
X272036700Y-100289095D01*
X272259700Y-17267800D02*
X272357700Y-17392000D01*
X272641700Y-99386480D02*
X272586700Y-99533930D01*
X272739700Y-98767740D02*
X272732700Y-98924840D01*
X272036700Y-17045900D02*
X272153700Y-17152100D01*
X271504700Y-16719200D02*
X271646700Y-16784100D01*
X270738700Y-16567900D02*
X270895700Y-16573200D01*
X18775500Y-100743847D02*
X18621160Y-100712152D01*
X272036700Y-100289095D02*
X271913700Y-100386934D01*
X272444700Y-17522800D02*
X272521700Y-17659000D01*
X18931220Y-100761762D02*
X18775500Y-100743847D01*
X271205700Y-16622900D02*
X271357700Y-16664200D01*
X270737700Y-100767274D02*
X19088320Y-100768652D01*
X271205700Y-100712152D02*
X271051700Y-100743847D01*
X272586700Y-99533930D02*
X272521700Y-99675870D01*
X272732700Y-18410100D02*
X272739700Y-18567400D01*
X272586700Y-17801200D02*
X272641700Y-17948700D01*
X271504700Y-100615690D02*
X271357700Y-100670811D01*
X272739700Y-18567400D02*
X272739700Y-98767740D01*
X272357700Y-17392000D02*
X272444700Y-17522800D01*
X271646700Y-16784100D02*
X271783700Y-16861400D01*
X271646700Y-100550922D02*
X271504700Y-100615690D01*
X272153700Y-17152100D02*
X272259700Y-17267800D01*
X271783700Y-100473753D02*
X271646700Y-100550922D01*
X272682700Y-99234900D02*
X272641700Y-99386480D01*
X19088320Y-17566900D02*
X18778260Y-17614900D01*
X18136090Y-18876100D02*
X18278030Y-19154400D01*
X18136090Y-18257300D02*
X18087860Y-18567400D01*
X270738700Y-17566900D02*
X270429700Y-17614900D01*
X18278030Y-17979000D02*
X18136090Y-18257300D01*
X206826700Y-18567400D02*
X206874700Y-18876100D01*
X18499900Y-17757100D02*
X18278030Y-17979000D01*
X271047700Y-17614900D02*
X270738700Y-17566900D01*
X271325700Y-17757100D02*
X271047700Y-17614900D01*
X271689700Y-18257300D02*
X271547700Y-17979000D01*
X207516700Y-19518200D02*
X207825700Y-19567900D01*
X207825700Y-19567900D02*
X208135700Y-19518200D01*
X271738700Y-18567400D02*
X271689700Y-18257300D01*
X271689700Y-18876100D02*
X271738700Y-18567400D01*
X269929700Y-17979000D02*
X269787700Y-18257300D01*
X270151700Y-17757100D02*
X269929700Y-17979000D01*
X208413700Y-17757100D02*
X208135700Y-17614900D01*
X208635700Y-19154400D02*
X208777700Y-18876100D01*
X208635700Y-17979000D02*
X208413700Y-17757100D01*
X208413700Y-19376300D02*
X208635700Y-19154400D01*
X144912700Y-17566900D02*
X144603700Y-17614900D01*
X145722700Y-17979000D02*
X145500700Y-17757100D01*
X145864700Y-18257300D02*
X145722700Y-17979000D01*
X271325700Y-19376300D02*
X271547700Y-19154400D01*
X270151700Y-19376300D02*
X270429700Y-19518200D01*
X206874700Y-18257300D02*
X206826700Y-18567400D01*
X270738700Y-19567900D02*
X271047700Y-19518200D01*
X145500700Y-17757100D02*
X145222700Y-17614900D01*
X207825700Y-17566900D02*
X207516700Y-17614900D01*
X207238700Y-19376300D02*
X207516700Y-19518200D01*
X145222700Y-17614900D02*
X144912700Y-17566900D01*
X269787700Y-18876100D02*
X269929700Y-19154400D01*
X208777700Y-18257300D02*
X208635700Y-17979000D01*
X208135700Y-19518200D02*
X208413700Y-19376300D01*
X270429700Y-17614900D02*
X270151700Y-17757100D01*
X207516700Y-17614900D02*
X207238700Y-17757100D01*
X19397000Y-17614900D02*
X19088320Y-17566900D01*
X19675360Y-17757100D02*
X19397000Y-17614900D01*
X269929700Y-19154400D02*
X270151700Y-19376300D01*
X19897230Y-17979000D02*
X19675360Y-17757100D01*
X18087860Y-18567400D02*
X18136090Y-18876100D01*
X20039160Y-18257300D02*
X19897230Y-17979000D01*
X269787700Y-18257300D02*
X269739700Y-18567400D01*
X269739700Y-18567400D02*
X269787700Y-18876100D01*
X208777700Y-18876100D02*
X208825700Y-18567400D01*
X20088770Y-18567400D02*
X20039160Y-18257300D01*
X19897230Y-19154400D02*
X20039160Y-18876100D01*
X19088320Y-19567900D02*
X19397000Y-19518200D01*
X207016700Y-19154400D02*
X207238700Y-19376300D01*
X208825700Y-18567400D02*
X208777700Y-18257300D01*
X271047700Y-19518200D02*
X271325700Y-19376300D01*
X270429700Y-19518200D02*
X270738700Y-19567900D01*
X207238700Y-17757100D02*
X207016700Y-17979000D01*
X207016700Y-17979000D02*
X206874700Y-18257300D01*
X206874700Y-18876100D02*
X207016700Y-19154400D01*
X18778260Y-17614900D02*
X18499900Y-17757100D01*
X208135700Y-17614900D02*
X207825700Y-17566900D01*
X271547700Y-17979000D02*
X271325700Y-17757100D01*
X20039160Y-18876100D02*
X20088770Y-18567400D01*
X19675360Y-19376300D02*
X19897230Y-19154400D01*
X18499900Y-19376300D02*
X18778260Y-19518200D01*
X271547700Y-19154400D02*
X271689700Y-18876100D01*
X19397000Y-19518200D02*
X19675360Y-19376300D01*
X18778260Y-19518200D02*
X19088320Y-19567900D01*
X18278030Y-19154400D02*
X18499900Y-19376300D01*
X144103700Y-17979000D02*
X143961700Y-18257300D01*
X228913700Y-27191100D02*
X228913700Y-24091900D01*
X228913700Y-24091900D02*
X228113700Y-24091900D01*
X209063700Y-24091900D02*
X209063700Y-23091400D01*
X144325700Y-17757100D02*
X144103700Y-17979000D01*
X213312700Y-36091700D02*
X214113700Y-36091700D01*
X144603700Y-17614900D02*
X144325700Y-17757100D01*
X209863700Y-36091700D02*
X209863700Y-32991100D01*
X228913700Y-32991100D02*
X228113700Y-32991100D01*
X228113700Y-36091700D02*
X228913700Y-36091700D01*
X209063700Y-23091400D02*
X195063700Y-23091400D01*
X82588500Y-19376300D02*
X82809000Y-19154400D01*
X82309800Y-19518200D02*
X82588500Y-19376300D01*
X209863700Y-32991100D02*
X209063700Y-32991100D01*
X81049000Y-18257300D02*
X81001000Y-18567400D01*
X228113700Y-23091400D02*
X214113700Y-23091400D01*
X228113700Y-27191100D02*
X228913700Y-27191100D01*
X209863700Y-27191100D02*
X209863700Y-24091900D01*
X214113700Y-27191100D02*
X214113700Y-32991100D01*
X214113700Y-36091700D02*
X214113700Y-37092100D01*
X214113700Y-23091400D02*
X214113700Y-24091900D01*
X209863700Y-24091900D02*
X209063700Y-24091900D01*
X214113700Y-37092100D02*
X228113700Y-37092100D01*
X214113700Y-32991100D02*
X213312700Y-32991100D01*
X145912700Y-18567400D02*
X145864700Y-18257300D01*
X209063700Y-32991100D02*
X209063700Y-27191100D01*
X81049000Y-18876100D02*
X81191100Y-19154400D01*
X145500700Y-19376300D02*
X145722700Y-19154400D01*
X82588500Y-17757100D02*
X82309800Y-17614900D01*
X81691400Y-19518200D02*
X82000100Y-19567900D01*
X82809000Y-17979000D02*
X82588500Y-17757100D01*
X82809000Y-19154400D02*
X82952200Y-18876100D01*
X81412700Y-17757100D02*
X81191100Y-17979000D01*
X214113700Y-24091900D02*
X213312700Y-24091900D01*
X82000100Y-19567900D02*
X82309800Y-19518200D01*
X81001000Y-18567400D02*
X81049000Y-18876100D01*
X209063700Y-36091700D02*
X209863700Y-36091700D01*
X145864700Y-18876100D02*
X145912700Y-18567400D01*
X82000100Y-17566900D02*
X81691400Y-17614900D01*
X213312700Y-32991100D02*
X213312700Y-36091700D01*
X82309800Y-17614900D02*
X82000100Y-17566900D01*
X213312700Y-24091900D02*
X213312700Y-27191100D01*
X145722700Y-19154400D02*
X145864700Y-18876100D01*
X81191100Y-17979000D02*
X81049000Y-18257300D01*
X228913700Y-36091700D02*
X228913700Y-32991100D01*
X145222700Y-19518200D02*
X145500700Y-19376300D01*
X144912700Y-19567900D02*
X145222700Y-19518200D01*
X209063700Y-27191100D02*
X209863700Y-27191100D01*
X81191100Y-19154400D02*
X81412700Y-19376300D01*
X144103700Y-19154400D02*
X144325700Y-19376300D01*
X81691400Y-17614900D02*
X81412700Y-17757100D01*
X143961700Y-18257300D02*
X143913700Y-18567400D01*
X81412700Y-19376300D02*
X81691400Y-19518200D01*
X228113700Y-24091900D02*
X228113700Y-23091400D01*
X144603700Y-19518200D02*
X144912700Y-19567900D01*
X144325700Y-19376300D02*
X144603700Y-19518200D01*
X143961700Y-18876100D02*
X144103700Y-19154400D01*
X213312700Y-27191100D02*
X214113700Y-27191100D01*
X143913700Y-18567400D02*
X143961700Y-18876100D01*
X83000200Y-18567400D02*
X82952200Y-18257300D01*
X82952200Y-18876100D02*
X83000200Y-18567400D01*
X82952200Y-18257300D02*
X82809000Y-17979000D01*
X228113700Y-32991100D02*
X228113700Y-27191100D01*
X228113700Y-37092100D02*
X228113700Y-36091700D01*
X270429700Y-99719970D02*
X270738700Y-99768200D01*
X270151700Y-99578030D02*
X270429700Y-99719970D01*
X269929700Y-99354780D02*
X270151700Y-99578030D01*
X207516700Y-97816900D02*
X207238700Y-97958830D01*
X271325700Y-99578030D02*
X271547700Y-99354780D01*
X207825700Y-99768200D02*
X208135700Y-99719970D01*
X18931220Y-16573200D02*
X19088320Y-16566500D01*
X207516700Y-99719970D02*
X207825700Y-99768200D01*
X207238700Y-99578030D02*
X207516700Y-99719970D01*
X206874700Y-99077800D02*
X207016700Y-99354780D01*
X269787700Y-99077800D02*
X269929700Y-99354780D01*
X206826700Y-98767740D02*
X206874700Y-99077800D01*
X206874700Y-98459060D02*
X206826700Y-98767740D01*
X270738700Y-99768200D02*
X271047700Y-99719970D01*
X270738700Y-97768660D02*
X270429700Y-97816900D01*
X269929700Y-98180700D02*
X269787700Y-98459060D01*
X18322130Y-16719200D02*
X18469580Y-16664200D01*
X18621160Y-16622900D02*
X18775500Y-16591200D01*
X207238700Y-97958830D02*
X207016700Y-98180700D01*
X271689700Y-99077800D02*
X271738700Y-98767740D01*
X270429700Y-97816900D02*
X270151700Y-97958830D01*
X18180190Y-16784100D02*
X18322130Y-16719200D01*
X19088320Y-16566500D02*
X270738700Y-16567900D01*
X271047700Y-97816900D02*
X270738700Y-97768660D01*
X270151700Y-97958830D02*
X269929700Y-98180700D01*
X18469580Y-16664200D02*
X18621160Y-16622900D01*
X271738700Y-98767740D02*
X271689700Y-98459060D01*
X208635700Y-99354780D02*
X208777700Y-99077800D01*
X208413700Y-99578030D02*
X208635700Y-99354780D01*
X271689700Y-98459060D02*
X271547700Y-98180700D01*
X269787700Y-98459060D02*
X269739700Y-98767740D01*
X271547700Y-99354780D02*
X271689700Y-99077800D01*
X271325700Y-97958830D02*
X271047700Y-97816900D01*
X207016700Y-98180700D02*
X206874700Y-98459060D01*
X208135700Y-99719970D02*
X208413700Y-99578030D01*
X207016700Y-99354780D02*
X207238700Y-99578030D01*
X271547700Y-98180700D02*
X271325700Y-97958830D01*
X271047700Y-99719970D02*
X271325700Y-99578030D01*
X18775500Y-16591200D02*
X18931220Y-16573200D01*
X269739700Y-98767740D02*
X269787700Y-99077800D01*
X18278030Y-98180700D02*
X18136090Y-98459060D01*
X81191100Y-98180700D02*
X81049000Y-98459060D01*
X20088770Y-98767740D02*
X20039160Y-98459060D01*
X20039160Y-99077800D02*
X20088770Y-98767740D01*
X81412700Y-97958830D02*
X81191100Y-98180700D01*
X18136090Y-99077800D02*
X18278030Y-99354780D01*
X82309800Y-99719970D02*
X82588500Y-99578030D01*
X145500700Y-99578030D02*
X145722700Y-99354780D01*
X19088320Y-99768200D02*
X19397000Y-99719970D01*
X144603700Y-99719970D02*
X144912700Y-99768200D01*
X18778260Y-99719970D02*
X19088320Y-99768200D01*
X144325700Y-99578030D02*
X144603700Y-99719970D01*
X18778260Y-97816900D02*
X18499900Y-97958830D01*
X81691400Y-97816900D02*
X81412700Y-97958830D01*
X143913700Y-98767740D02*
X143961700Y-99077800D01*
X207825700Y-97768660D02*
X207516700Y-97816900D01*
X208777700Y-99077800D02*
X208825700Y-98767740D01*
X19897230Y-99354780D02*
X20039160Y-99077800D01*
X82952200Y-98459060D02*
X82809000Y-98180700D01*
X145222700Y-99719970D02*
X145500700Y-99578030D01*
X83000200Y-98767740D02*
X82952200Y-98459060D01*
X82588500Y-99578030D02*
X82809000Y-99354780D01*
X145864700Y-99077800D02*
X145912700Y-98767740D01*
X144603700Y-97816900D02*
X144325700Y-97958830D01*
X145864700Y-98459060D02*
X145722700Y-98180700D01*
X81191100Y-99354780D02*
X81412700Y-99578030D01*
X19675360Y-99578030D02*
X19897230Y-99354780D01*
X19397000Y-99719970D02*
X19675360Y-99578030D01*
X18499900Y-99578030D02*
X18778260Y-99719970D01*
X18278030Y-99354780D02*
X18499900Y-99578030D01*
X18087860Y-98767740D02*
X18136090Y-99077800D01*
X145222700Y-97816900D02*
X144912700Y-97768660D01*
X145912700Y-98767740D02*
X145864700Y-98459060D01*
X208825700Y-98767740D02*
X208777700Y-98459060D01*
X18136090Y-98459060D02*
X18087860Y-98767740D01*
X18499900Y-97958830D02*
X18278030Y-98180700D01*
X82000100Y-97768660D02*
X81691400Y-97816900D01*
X82588500Y-97958830D02*
X82309800Y-97816900D01*
X82952200Y-99077800D02*
X83000200Y-98767740D01*
X81049000Y-98459060D02*
X81001000Y-98767740D01*
X82809000Y-99354780D02*
X82952200Y-99077800D01*
X82000100Y-99768200D02*
X82309800Y-99719970D01*
X81691400Y-99719970D02*
X82000100Y-99768200D01*
X81412700Y-99578030D02*
X81691400Y-99719970D01*
X145722700Y-98180700D02*
X145500700Y-97958830D01*
X208635700Y-98180700D02*
X208413700Y-97958830D01*
X143961700Y-98459060D02*
X143913700Y-98767740D01*
X208413700Y-97958830D02*
X208135700Y-97816900D01*
X144103700Y-98180700D02*
X143961700Y-98459060D01*
X81049000Y-99077800D02*
X81191100Y-99354780D01*
X144912700Y-99768200D02*
X145222700Y-99719970D01*
X144912700Y-97768660D02*
X144603700Y-97816900D01*
X145500700Y-97958830D02*
X145222700Y-97816900D01*
X145722700Y-99354780D02*
X145864700Y-99077800D01*
X144103700Y-99354780D02*
X144325700Y-99578030D01*
X144325700Y-97958830D02*
X144103700Y-98180700D01*
X143961700Y-99077800D02*
X144103700Y-99354780D01*
X208135700Y-97816900D02*
X207825700Y-97768660D01*
X82309800Y-97816900D02*
X82000100Y-97768660D01*
X208777700Y-98459060D02*
X208635700Y-98180700D01*
X82809000Y-98180700D02*
X82588500Y-97958830D01*
X81001000Y-98767740D02*
X81049000Y-99077800D01*
X19897230Y-98180700D02*
X19675360Y-97958830D01*
X20039160Y-98459060D02*
X19897230Y-98180700D01*
X132861700Y-32991100D02*
X132861700Y-27191100D01*
X113813200Y-37092100D02*
X113813200Y-36091700D01*
X99813900Y-27191100D02*
X99813900Y-32991100D01*
X99813900Y-36091700D02*
X99813900Y-37092100D01*
X114612600Y-32991100D02*
X113813200Y-32991100D01*
X133662700Y-36091700D02*
X133662700Y-32991100D01*
X99813900Y-32991100D02*
X99013100Y-32991100D01*
X95564000Y-24091900D02*
X94763200Y-24091900D01*
X99813900Y-24091900D02*
X99013100Y-24091900D01*
X113813200Y-36091700D02*
X114612600Y-36091700D01*
X99013100Y-27191100D02*
X99813900Y-27191100D01*
X137111700Y-32991100D02*
X137111700Y-36091700D01*
X137912700Y-24091900D02*
X137111700Y-24091900D01*
X99013100Y-24091900D02*
X99013100Y-27191100D01*
X99813900Y-37092100D02*
X113813200Y-37092100D01*
X137111700Y-24091900D02*
X137111700Y-27191100D01*
X95564000Y-32991100D02*
X94763200Y-32991100D01*
X137912700Y-32991100D02*
X137111700Y-32991100D01*
X137912700Y-27191100D02*
X137912700Y-32991100D01*
X118862700Y-32991100D02*
X118062700Y-32991100D01*
X113813200Y-32991100D02*
X113813200Y-27191100D01*
X137912700Y-23091400D02*
X137912700Y-24091900D01*
X118062700Y-36091700D02*
X118862700Y-36091700D01*
X94763200Y-27191100D02*
X95564000Y-27191100D01*
X113813200Y-23091400D02*
X99813900Y-23091400D01*
X118862700Y-37092100D02*
X132861700Y-37092100D01*
X118862700Y-27191100D02*
X118862700Y-32991100D01*
X114612600Y-27191100D02*
X114612600Y-24091900D01*
X95564000Y-36091700D02*
X95564000Y-32991100D01*
X114612600Y-36091700D02*
X114612600Y-32991100D01*
X132861700Y-24091900D02*
X132861700Y-23091400D01*
X132861700Y-36091700D02*
X133662700Y-36091700D01*
X118062700Y-24091900D02*
X118062700Y-27191100D01*
X118862700Y-23091400D02*
X118862700Y-24091900D01*
X99013100Y-36091700D02*
X99813900Y-36091700D01*
X94763200Y-32991100D02*
X94763200Y-27191100D01*
X133662700Y-24091900D02*
X132861700Y-24091900D01*
X132861700Y-37092100D02*
X132861700Y-36091700D01*
X94763200Y-36091700D02*
X95564000Y-36091700D01*
X118862700Y-36091700D02*
X118862700Y-37092100D01*
X94763200Y-23091400D02*
X80763900Y-23091400D01*
X118062700Y-27191100D02*
X118862700Y-27191100D01*
X99813900Y-23091400D02*
X99813900Y-24091900D01*
X118862700Y-24091900D02*
X118062700Y-24091900D01*
X95564000Y-27191100D02*
X95564000Y-24091900D01*
X94763200Y-24091900D02*
X94763200Y-23091400D01*
X113813200Y-24091900D02*
X113813200Y-23091400D01*
X99013100Y-32991100D02*
X99013100Y-36091700D01*
X94763200Y-37092100D02*
X94763200Y-36091700D01*
X137111700Y-27191100D02*
X137912700Y-27191100D01*
X132861700Y-23091400D02*
X118862700Y-23091400D01*
X118062700Y-32991100D02*
X118062700Y-36091700D01*
X133662700Y-27191100D02*
X133662700Y-24091900D01*
X132861700Y-27191100D02*
X133662700Y-27191100D01*
X133662700Y-32991100D02*
X132861700Y-32991100D01*
X114612600Y-24091900D02*
X113813200Y-24091900D01*
X113813200Y-27191100D02*
X114612600Y-27191100D01*
X61713900Y-27191100D02*
X61713900Y-32991100D01*
X60913100Y-24091900D02*
X60913100Y-27191100D01*
X56663200Y-24091900D02*
X56663200Y-23091400D01*
X57464000Y-36091700D02*
X57464000Y-32991100D01*
X42663800Y-37092100D02*
X56663200Y-37092100D01*
X41863200Y-32991100D02*
X41863200Y-36091700D01*
X37613300Y-37092100D02*
X37613300Y-36091700D01*
X37613300Y-36091700D02*
X38413900Y-36091700D01*
X42663800Y-24091900D02*
X41863200Y-24091900D01*
X56663200Y-36091700D02*
X57464000Y-36091700D01*
X37613300Y-32991100D02*
X37613300Y-27191100D01*
X22811780Y-32991100D02*
X22811780Y-36091700D01*
X37613300Y-23091400D02*
X23612410Y-23091400D01*
X75713200Y-36091700D02*
X76514000Y-36091700D01*
X38413900Y-32991100D02*
X37613300Y-32991100D01*
X76514000Y-36091700D02*
X76514000Y-32991100D01*
X42663800Y-23091400D02*
X42663800Y-24091900D01*
X38413900Y-24091900D02*
X37613300Y-24091900D01*
X23612410Y-36091700D02*
X23612410Y-37092100D01*
X61713900Y-37092100D02*
X75713200Y-37092100D01*
X38413900Y-27191100D02*
X38413900Y-24091900D01*
X60913100Y-32991100D02*
X60913100Y-36091700D01*
X61713900Y-24091900D02*
X60913100Y-24091900D01*
X37613300Y-24091900D02*
X37613300Y-23091400D01*
X61713900Y-23091400D02*
X61713900Y-24091900D01*
X56663200Y-37092100D02*
X56663200Y-36091700D01*
X42663800Y-27191100D02*
X42663800Y-32991100D01*
X22811780Y-36091700D02*
X23612410Y-36091700D01*
X41863200Y-24091900D02*
X41863200Y-27191100D01*
X38413900Y-36091700D02*
X38413900Y-32991100D01*
X80763900Y-37092100D02*
X94763200Y-37092100D01*
X42663800Y-36091700D02*
X42663800Y-37092100D01*
X80763900Y-36091700D02*
X80763900Y-37092100D01*
X80763900Y-24091900D02*
X79963100Y-24091900D01*
X79963100Y-36091700D02*
X80763900Y-36091700D01*
X79963100Y-32991100D02*
X79963100Y-36091700D01*
X57464000Y-32991100D02*
X56663200Y-32991100D01*
X56663200Y-23091400D02*
X42663800Y-23091400D01*
X80763900Y-32991100D02*
X79963100Y-32991100D01*
X80763900Y-27191100D02*
X80763900Y-32991100D01*
X79963100Y-27191100D02*
X80763900Y-27191100D01*
X79963100Y-24091900D02*
X79963100Y-27191100D01*
X80763900Y-23091400D02*
X80763900Y-24091900D01*
X76514000Y-27191100D02*
X76514000Y-24091900D01*
X57464000Y-27191100D02*
X57464000Y-24091900D01*
X41863200Y-36091700D02*
X42663800Y-36091700D01*
X75713200Y-23091400D02*
X61713900Y-23091400D01*
X56663200Y-32991100D02*
X56663200Y-27191100D01*
X57464000Y-24091900D02*
X56663200Y-24091900D01*
X76514000Y-24091900D02*
X75713200Y-24091900D01*
X75713200Y-24091900D02*
X75713200Y-23091400D01*
X76514000Y-32991100D02*
X75713200Y-32991100D01*
X41863200Y-27191100D02*
X42663800Y-27191100D01*
X23612410Y-37092100D02*
X37613300Y-37092100D01*
X56663200Y-27191100D02*
X57464000Y-27191100D01*
X75713200Y-27191100D02*
X76514000Y-27191100D01*
X75713200Y-32991100D02*
X75713200Y-27191100D01*
X61713900Y-36091700D02*
X61713900Y-37092100D01*
X75713200Y-37092100D02*
X75713200Y-36091700D01*
X60913100Y-36091700D02*
X61713900Y-36091700D01*
X42663800Y-32991100D02*
X41863200Y-32991100D01*
X60913100Y-27191100D02*
X61713900Y-27191100D01*
X61713900Y-32991100D02*
X60913100Y-32991100D01*
X37613300Y-27191100D02*
X38413900Y-27191100D01*
X137111700Y-36091700D02*
X137912700Y-36091700D01*
X170963700Y-32991100D02*
X170963700Y-27191100D01*
X170963700Y-36091700D02*
X171763700Y-36091700D01*
X156963700Y-32991100D02*
X156162700Y-32991100D01*
X156162700Y-24091900D02*
X156162700Y-27191100D01*
X171763700Y-32991100D02*
X170963700Y-32991100D01*
X152713700Y-36091700D02*
X152713700Y-32991100D01*
X195063700Y-23091400D02*
X195063700Y-24091900D01*
X209063700Y-37092100D02*
X209063700Y-36091700D01*
X156162700Y-36091700D02*
X156963700Y-36091700D01*
X176013700Y-32991100D02*
X175212700Y-32991100D01*
X156963700Y-23091400D02*
X156963700Y-24091900D01*
X156963700Y-36091700D02*
X156963700Y-37092100D01*
X194262700Y-24091900D02*
X194262700Y-27191100D01*
X190813700Y-24091900D02*
X190013700Y-24091900D01*
X170963700Y-37092100D02*
X170963700Y-36091700D01*
X176013700Y-27191100D02*
X176013700Y-32991100D01*
X151913700Y-32991100D02*
X151913700Y-27191100D01*
X195063700Y-37092100D02*
X209063700Y-37092100D01*
X195063700Y-36091700D02*
X195063700Y-37092100D01*
X195063700Y-32991100D02*
X194262700Y-32991100D01*
X195063700Y-24091900D02*
X194262700Y-24091900D01*
X176013700Y-36091700D02*
X176013700Y-37092100D01*
X194262700Y-36091700D02*
X195063700Y-36091700D01*
X194262700Y-32991100D02*
X194262700Y-36091700D01*
X190013700Y-36091700D02*
X190813700Y-36091700D01*
X151913700Y-27191100D02*
X152713700Y-27191100D01*
X190013700Y-23091400D02*
X176013700Y-23091400D01*
X156963700Y-27191100D02*
X156963700Y-32991100D01*
X190013700Y-27191100D02*
X190813700Y-27191100D01*
X152713700Y-27191100D02*
X152713700Y-24091900D01*
X156963700Y-24091900D02*
X156162700Y-24091900D01*
X170963700Y-27191100D02*
X171763700Y-27191100D01*
X156963700Y-37092100D02*
X170963700Y-37092100D01*
X175212700Y-32991100D02*
X175212700Y-36091700D01*
X137912700Y-37092100D02*
X151913700Y-37092100D01*
X171763700Y-36091700D02*
X171763700Y-32991100D01*
X195063700Y-27191100D02*
X195063700Y-32991100D01*
X176013700Y-24091900D02*
X175212700Y-24091900D01*
X194262700Y-27191100D02*
X195063700Y-27191100D01*
X190013700Y-24091900D02*
X190013700Y-23091400D01*
X171763700Y-27191100D02*
X171763700Y-24091900D01*
X190813700Y-27191100D02*
X190813700Y-24091900D01*
X190013700Y-32991100D02*
X190013700Y-27191100D01*
X190813700Y-32991100D02*
X190013700Y-32991100D01*
X190813700Y-36091700D02*
X190813700Y-32991100D01*
X190013700Y-37092100D02*
X190013700Y-36091700D01*
X175212700Y-24091900D02*
X175212700Y-27191100D01*
X151913700Y-24091900D02*
X151913700Y-23091400D01*
X175212700Y-27191100D02*
X176013700Y-27191100D01*
X176013700Y-23091400D02*
X176013700Y-24091900D01*
X171763700Y-24091900D02*
X170963700Y-24091900D01*
X156162700Y-32991100D02*
X156162700Y-36091700D01*
X151913700Y-37092100D02*
X151913700Y-36091700D01*
X152713700Y-32991100D02*
X151913700Y-32991100D01*
X137912700Y-36091700D02*
X137912700Y-37092100D01*
X176013700Y-37092100D02*
X190013700Y-37092100D01*
X152713700Y-24091900D02*
X151913700Y-24091900D01*
X175212700Y-36091700D02*
X176013700Y-36091700D01*
X170963700Y-23091400D02*
X156963700Y-23091400D01*
X156162700Y-27191100D02*
X156963700Y-27191100D01*
X170963700Y-24091900D02*
X170963700Y-23091400D01*
X151913700Y-23091400D02*
X137912700Y-23091400D01*
X151913700Y-36091700D02*
X152713700Y-36091700D01*
X56150600Y-74191800D02*
X56950000Y-74191800D01*
X70950700Y-74191800D02*
X71750100Y-74191800D01*
X70950700Y-75192200D02*
X70950700Y-74191800D01*
X56950000Y-75192200D02*
X70950700Y-75192200D01*
X56950000Y-74191800D02*
X56950000Y-75192200D01*
X266213700Y-80242800D02*
X252213700Y-80242800D01*
X29956900Y-65292500D02*
X30756200Y-65292500D01*
X237056700Y-75192200D02*
X257556700Y-75192200D01*
X237056700Y-75941900D02*
X237056700Y-75192200D01*
X227600700Y-71092600D02*
X227600700Y-74191800D01*
X228399700Y-65292500D02*
X228399700Y-71092600D01*
X227600700Y-62191900D02*
X227600700Y-65292500D01*
X56950000Y-62191900D02*
X56150600Y-62191900D01*
X45556300Y-62191900D02*
X44757000Y-62191900D01*
X30756200Y-62191900D02*
X29956900Y-62191900D01*
X263831700Y-65292500D02*
X264631700Y-65292500D01*
X44757000Y-62191900D02*
X44757000Y-61192900D01*
X227600700Y-74191800D02*
X228399700Y-74191800D01*
X260856700Y-75192200D02*
X263831700Y-75192200D01*
X44757000Y-65292500D02*
X45556300Y-65292500D01*
X44757000Y-71092600D02*
X44757000Y-65292500D01*
X263831700Y-61192900D02*
X228399700Y-61192900D01*
X257556700Y-75192200D02*
X257556700Y-75941900D01*
X228399700Y-74191800D02*
X228399700Y-75192200D01*
X30756200Y-61192900D02*
X30756200Y-62191900D01*
X228399700Y-61192900D02*
X228399700Y-62191900D01*
X264631700Y-71092600D02*
X263831700Y-71092600D01*
X30756200Y-75192200D02*
X44757000Y-75192200D01*
X30756200Y-71092600D02*
X29956900Y-71092600D01*
X263831700Y-62191900D02*
X263831700Y-61192900D01*
X263831700Y-75192200D02*
X263831700Y-74191800D01*
X233756700Y-75192200D02*
X233756700Y-75941900D01*
X56150600Y-71092600D02*
X56150600Y-74191800D01*
X56950000Y-71092600D02*
X56150600Y-71092600D01*
X56950000Y-65292500D02*
X56950000Y-71092600D01*
X45556300Y-65292500D02*
X45556300Y-62191900D01*
X45556300Y-74191800D02*
X45556300Y-71092600D01*
X264631700Y-65292500D02*
X264631700Y-62191900D01*
X263831700Y-71092600D02*
X263831700Y-65292500D01*
X56150600Y-65292500D02*
X56950000Y-65292500D01*
X56150600Y-62191900D02*
X56150600Y-65292500D01*
X56950000Y-61192900D02*
X56950000Y-62191900D01*
X44757000Y-61192900D02*
X30756200Y-61192900D01*
X29956900Y-71092600D02*
X29956900Y-74191800D01*
X257556700Y-75941900D02*
X260856700Y-75941900D01*
X45556300Y-71092600D02*
X44757000Y-71092600D01*
X228399700Y-62191900D02*
X227600700Y-62191900D01*
X30756200Y-65292500D02*
X30756200Y-71092600D01*
X264631700Y-62191900D02*
X263831700Y-62191900D01*
X264631700Y-74191800D02*
X264631700Y-71092600D01*
X44757000Y-74191800D02*
X45556300Y-74191800D01*
X30756200Y-74191800D02*
X30756200Y-75192200D01*
X29956900Y-74191800D02*
X30756200Y-74191800D01*
X227600700Y-65292500D02*
X228399700Y-65292500D01*
X29956900Y-62191900D02*
X29956900Y-65292500D01*
X44757000Y-75192200D02*
X44757000Y-74191800D01*
X263831700Y-74191800D02*
X264631700Y-74191800D01*
X260856700Y-75941900D02*
X260856700Y-75192200D01*
X233756700Y-75941900D02*
X237056700Y-75941900D01*
X228399700Y-75192200D02*
X233756700Y-75192200D01*
X228399700Y-71092600D02*
X227600700Y-71092600D01*
X213312700Y-81241900D02*
X213312700Y-84341000D01*
X233163700Y-84341000D02*
X233163700Y-90142600D01*
X88418900Y-81241900D02*
X87619500Y-81241900D01*
X228913700Y-93241810D02*
X228913700Y-90142600D01*
X228113700Y-81241900D02*
X228113700Y-80242800D01*
X214113700Y-93241810D02*
X214113700Y-94242250D01*
X87619500Y-80242800D02*
X73620200Y-80242800D01*
X214113700Y-80242800D02*
X214113700Y-81241900D01*
X228913700Y-81241900D02*
X228113700Y-81241900D01*
X233163700Y-81241900D02*
X232362700Y-81241900D01*
X232362700Y-84341000D02*
X233163700Y-84341000D01*
X252213700Y-80242800D02*
X252213700Y-81241900D01*
X247963700Y-81241900D02*
X247163700Y-81241900D01*
X214113700Y-81241900D02*
X213312700Y-81241900D01*
X247963700Y-90142600D02*
X247163700Y-90142600D01*
X228113700Y-84341000D02*
X228913700Y-84341000D01*
X247163700Y-94242250D02*
X247163700Y-93241810D01*
X88418900Y-84341000D02*
X88418900Y-81241900D01*
X87619500Y-84341000D02*
X88418900Y-84341000D01*
X251412700Y-84341000D02*
X252213700Y-84341000D01*
X213312700Y-93241810D02*
X214113700Y-93241810D01*
X266213700Y-94242250D02*
X266213700Y-93241810D01*
X247163700Y-84341000D02*
X247963700Y-84341000D01*
X232362700Y-90142600D02*
X232362700Y-93241810D01*
X214113700Y-94242250D02*
X228113700Y-94242250D01*
X252213700Y-94242250D02*
X266213700Y-94242250D01*
X233163700Y-94242250D02*
X247163700Y-94242250D01*
X232362700Y-81241900D02*
X232362700Y-84341000D01*
X228113700Y-80242800D02*
X214113700Y-80242800D01*
X214113700Y-84341000D02*
X214113700Y-90142600D01*
X252213700Y-90142600D02*
X251412700Y-90142600D01*
X252213700Y-84341000D02*
X252213700Y-90142600D01*
X247163700Y-80242800D02*
X233163700Y-80242800D01*
X233163700Y-80242800D02*
X233163700Y-81241900D01*
X228913700Y-84341000D02*
X228913700Y-81241900D01*
X232362700Y-93241810D02*
X233163700Y-93241810D01*
X228113700Y-90142600D02*
X228113700Y-84341000D01*
X252213700Y-81241900D02*
X251412700Y-81241900D01*
X247963700Y-84341000D02*
X247963700Y-81241900D01*
X233163700Y-93241810D02*
X233163700Y-94242250D01*
X228913700Y-90142600D02*
X228113700Y-90142600D01*
X267013700Y-81241900D02*
X266213700Y-81241900D01*
X252213700Y-93241810D02*
X252213700Y-94242250D01*
X233163700Y-90142600D02*
X232362700Y-90142600D01*
X251412700Y-90142600D02*
X251412700Y-93241810D01*
X266213700Y-81241900D02*
X266213700Y-80242800D01*
X213312700Y-90142600D02*
X213312700Y-93241810D01*
X251412700Y-93241810D02*
X252213700Y-93241810D01*
X267013700Y-84341000D02*
X267013700Y-81241900D01*
X266213700Y-84341000D02*
X267013700Y-84341000D01*
X214113700Y-90142600D02*
X213312700Y-90142600D01*
X266213700Y-90142600D02*
X266213700Y-84341000D01*
X267013700Y-90142600D02*
X266213700Y-90142600D01*
X267013700Y-93241810D02*
X267013700Y-90142600D01*
X266213700Y-93241810D02*
X267013700Y-93241810D01*
X213312700Y-84341000D02*
X214113700Y-84341000D01*
X228113700Y-94242250D02*
X228113700Y-93241810D01*
X251412700Y-81241900D02*
X251412700Y-84341000D01*
X228113700Y-93241810D02*
X228913700Y-93241810D01*
X247163700Y-81241900D02*
X247163700Y-80242800D01*
X247163700Y-90142600D02*
X247163700Y-84341000D01*
X247963700Y-93241810D02*
X247963700Y-90142600D01*
X87619500Y-81241900D02*
X87619500Y-80242800D01*
X247163700Y-93241810D02*
X247963700Y-93241810D01*
X73620200Y-90142600D02*
X72819400Y-90142600D01*
X49806200Y-94242250D02*
X63807000Y-94242250D01*
X49806200Y-93241810D02*
X49806200Y-94242250D01*
X49006900Y-84341000D02*
X49806200Y-84341000D01*
X49806200Y-81241900D02*
X49006900Y-81241900D01*
X39994500Y-80242800D02*
X25995040Y-80242800D01*
X40793800Y-84341000D02*
X40793800Y-81241900D01*
X39994500Y-84341000D02*
X40793800Y-84341000D01*
X88418900Y-93241810D02*
X88418900Y-90142600D01*
X87619500Y-93241810D02*
X88418900Y-93241810D01*
X72819400Y-93241810D02*
X73620200Y-93241810D01*
X73620200Y-84341000D02*
X73620200Y-90142600D01*
X126518700Y-81711800D02*
X126518700Y-81241900D01*
X72819400Y-90142600D02*
X72819400Y-93241810D01*
X72819400Y-81241900D02*
X72819400Y-84341000D01*
X49806200Y-80242800D02*
X49806200Y-81241900D01*
X64606400Y-81241900D02*
X63807000Y-81241900D01*
X40793800Y-81241900D02*
X39994500Y-81241900D01*
X25995040Y-93241810D02*
X25995040Y-94242250D01*
X73620200Y-81241900D02*
X72819400Y-81241900D01*
X39994500Y-90142600D02*
X39994500Y-84341000D01*
X63807000Y-93241810D02*
X64606400Y-93241810D01*
X49006900Y-90142600D02*
X49006900Y-93241810D01*
X87619500Y-94242250D02*
X87619500Y-93241810D01*
X40793800Y-93241810D02*
X40793800Y-90142600D01*
X49806200Y-84341000D02*
X49806200Y-90142600D01*
X39994500Y-93241810D02*
X40793800Y-93241810D01*
X25194410Y-93241810D02*
X25995040Y-93241810D01*
X64606400Y-84341000D02*
X64606400Y-81241900D01*
X25194410Y-81241900D02*
X25194410Y-84341000D01*
X125719700Y-81241900D02*
X125719700Y-80242800D01*
X63807000Y-94242250D02*
X63807000Y-93241810D01*
X125719700Y-80242800D02*
X111720200Y-80242800D01*
X73620200Y-94242250D02*
X87619500Y-94242250D01*
X73620200Y-80242800D02*
X73620200Y-81241900D01*
X63807000Y-81241900D02*
X63807000Y-80242800D01*
X49006900Y-81241900D02*
X49006900Y-84341000D01*
X40793800Y-90142600D02*
X39994500Y-90142600D01*
X25995040Y-94242250D02*
X39994500Y-94242250D01*
X49806200Y-90142600D02*
X49006900Y-90142600D01*
X25194410Y-84341000D02*
X25995040Y-84341000D01*
X72819400Y-84341000D02*
X73620200Y-84341000D01*
X63807000Y-90142600D02*
X63807000Y-84341000D01*
X25194410Y-90142600D02*
X25194410Y-93241810D01*
X39994500Y-81241900D02*
X39994500Y-80242800D01*
X63807000Y-84341000D02*
X64606400Y-84341000D01*
X126518700Y-81241900D02*
X125719700Y-81241900D01*
X39994500Y-94242250D02*
X39994500Y-93241810D01*
X25995040Y-90142600D02*
X25194410Y-90142600D01*
X64606400Y-90142600D02*
X63807000Y-90142600D01*
X49006900Y-93241810D02*
X49806200Y-93241810D01*
X25995040Y-81241900D02*
X25194410Y-81241900D01*
X87619500Y-90142600D02*
X87619500Y-84341000D01*
X128968700Y-81711800D02*
X126517400Y-81711800D01*
X63807000Y-80242800D02*
X49806200Y-80242800D01*
X64606400Y-93241810D02*
X64606400Y-90142600D01*
X25995040Y-84341000D02*
X25995040Y-90142600D01*
X25995040Y-80242800D02*
X25995040Y-81241900D01*
X88418900Y-90142600D02*
X87619500Y-90142600D01*
X73620200Y-93241810D02*
X73620200Y-94242250D01*
X176593700Y-81711800D02*
X174142400Y-81711800D01*
X176593700Y-80792600D02*
X176593700Y-81711800D01*
X179894700Y-80792600D02*
X176593700Y-80792600D01*
X179894700Y-81711800D02*
X179894700Y-80792600D01*
X132269700Y-80792600D02*
X128968700Y-80792600D01*
X133994700Y-84941900D02*
X133994700Y-81711800D01*
X145056700Y-81241900D02*
X144256700Y-81241900D01*
X174143700Y-81711800D02*
X174143700Y-81241900D01*
X173344700Y-80242800D02*
X159080200Y-80242800D01*
X144256700Y-81241900D02*
X144256700Y-84937600D01*
X181619700Y-81711800D02*
X179894700Y-81711800D01*
X128968700Y-80792600D02*
X128968700Y-81711800D01*
X132269700Y-81711800D02*
X132269700Y-80792600D01*
X133994700Y-81711800D02*
X132269700Y-81711800D01*
X144246600Y-84941900D02*
X133994700Y-84941900D01*
X145056700Y-80242800D02*
X145056700Y-81241900D01*
X159056700Y-80242800D02*
X145056700Y-80242800D01*
X173344700Y-81241900D02*
X173344700Y-80242800D01*
X174143700Y-81241900D02*
X173344700Y-81241900D01*
X156094700Y-94991900D02*
X156094700Y-94242250D01*
X173344700Y-94242250D02*
X173344700Y-93241810D01*
X192681700Y-81241900D02*
X191881700Y-81241900D01*
X207481700Y-84341000D02*
X207481700Y-81241900D01*
X207481700Y-93241810D02*
X207481700Y-90142600D01*
X191881700Y-93241810D02*
X192681700Y-93241810D01*
X179894700Y-94012130D02*
X181619700Y-94012130D01*
X127244700Y-93243400D02*
X127244700Y-94012130D01*
X181619700Y-89541800D02*
X191897000Y-89541800D01*
X128968700Y-94991900D02*
X132269700Y-94991900D01*
X200406700Y-94242250D02*
X200406700Y-94991900D01*
X191881700Y-89535000D02*
X191881700Y-93241810D01*
X132269700Y-94991900D02*
X132269700Y-94012130D01*
X133994700Y-94012130D02*
X133994700Y-89541800D01*
X206681700Y-90142600D02*
X206681700Y-84341000D01*
X206681700Y-94242250D02*
X206681700Y-93241810D01*
X174869700Y-94012130D02*
X176593700Y-94012130D01*
X159080200Y-94242250D02*
X173344700Y-94242250D01*
X152793700Y-94991900D02*
X156094700Y-94991900D01*
X144256700Y-93241810D02*
X145056700Y-93241810D01*
X207481700Y-90142600D02*
X206681700Y-90142600D01*
X192681700Y-93241810D02*
X192681700Y-94242250D01*
X179894700Y-94991900D02*
X179894700Y-94012130D01*
X176593700Y-94012130D02*
X176593700Y-94991900D01*
X173344700Y-93241810D02*
X174879000Y-93241810D01*
X132269700Y-94012130D02*
X133994700Y-94012130D01*
X156094700Y-94242250D02*
X159056700Y-94242250D01*
X206681700Y-93241810D02*
X207481700Y-93241810D01*
X174869700Y-93243400D02*
X174869700Y-94012130D01*
X145056700Y-93241810D02*
X145056700Y-94242250D01*
X203706700Y-94991900D02*
X203706700Y-94242250D01*
X181619700Y-94012130D02*
X181619700Y-89541800D01*
X192681700Y-94242250D02*
X200406700Y-94242250D01*
X144256700Y-89535000D02*
X144256700Y-93241810D01*
X128968700Y-94012130D02*
X128968700Y-94991900D01*
X206681700Y-84341000D02*
X207481700Y-84341000D01*
X192681700Y-80242800D02*
X192681700Y-81241900D01*
X206681700Y-80242800D02*
X192681700Y-80242800D01*
X133994700Y-89541800D02*
X144246600Y-89541800D01*
X206681700Y-81241900D02*
X206681700Y-80242800D01*
X203706700Y-94242250D02*
X206681700Y-94242250D01*
X176593700Y-94991900D02*
X179894700Y-94991900D01*
X145056700Y-94242250D02*
X152793700Y-94242250D01*
X200406700Y-94991900D02*
X203706700Y-94991900D01*
X127244700Y-94012130D02*
X128968700Y-94012130D01*
X152793700Y-94242250D02*
X152793700Y-94991900D01*
X181619700Y-84941900D02*
X181619700Y-81711800D01*
X191897000Y-84941900D02*
X181619700Y-84941900D01*
X207481700Y-81241900D02*
X206681700Y-81241900D01*
X191881700Y-81241900D02*
X191881700Y-84937600D01*
X111720200Y-81241900D02*
X110919400Y-81241900D01*
X105168700Y-81711800D02*
X103706800Y-81711800D01*
X100406200Y-94991900D02*
X103706800Y-94991900D01*
X111720200Y-80242800D02*
X111720200Y-81241900D01*
X98681200Y-81711800D02*
X98681200Y-84941900D01*
X110921800Y-81711800D02*
X108469300Y-81711800D01*
X100406200Y-94012130D02*
X100406200Y-94991900D01*
X110194400Y-94012130D02*
X110194400Y-93243400D01*
X108469300Y-81711800D02*
X108469300Y-80792600D01*
X98681200Y-87742100D02*
X98681200Y-94012130D01*
X108469300Y-80792600D02*
X105168700Y-80792600D01*
X103706800Y-81711800D02*
X103706800Y-80792600D01*
X103706800Y-94991900D02*
X105168700Y-94991900D01*
X100406200Y-80792600D02*
X100406200Y-81711800D01*
X108469300Y-94012130D02*
X110194400Y-94012130D01*
X111720200Y-93241810D02*
X111720200Y-94242250D01*
X110185200Y-93241810D02*
X111720200Y-93241810D01*
X110919400Y-81241900D02*
X110919400Y-81711800D01*
X97857100Y-87742100D02*
X98681200Y-87742100D01*
X19397000Y-97816900D02*
X19088320Y-97768660D01*
X19675360Y-97958830D02*
X19397000Y-97816900D01*
X125719700Y-93241810D02*
X127254000Y-93241810D01*
X103706800Y-80792600D02*
X100406200Y-80792600D01*
X125719700Y-94242250D02*
X125719700Y-93241810D01*
X111720200Y-94242250D02*
X125719700Y-94242250D01*
X108469300Y-94991900D02*
X108469300Y-94012130D01*
X97857100Y-84941900D02*
X97857100Y-87742100D01*
X105168700Y-80792600D02*
X105168700Y-81711800D01*
X19088320Y-97768660D02*
X18778260Y-97816900D01*
X98681200Y-84941900D02*
X97857100Y-84941900D01*
X105168700Y-94991900D02*
X108469300Y-94991900D01*
X98681200Y-94012130D02*
X100406200Y-94012130D01*
X100406200Y-81711800D02*
X98681200Y-81711800D01*
M02*
