G04 #@! TF.GenerationSoftware,KiCad,Pcbnew,(5.0.2)-1*
G04 #@! TF.CreationDate,2019-04-30T13:22:38-04:00*
G04 #@! TF.ProjectId,switch_plate,73776974-6368-45f7-906c-6174652e6b69,rev?*
G04 #@! TF.SameCoordinates,Original*
G04 #@! TF.FileFunction,Profile,NP*
%FSLAX46Y46*%
G04 Gerber Fmt 4.6, Leading zero omitted, Abs format (unit mm)*
G04 Created by KiCad (PCBNEW (5.0.2)-1) date 4/30/2019 1:22:38 PM*
%MOMM*%
%LPD*%
G01*
G04 APERTURE LIST*
%ADD10C,0.200000*%
%ADD11C,0.150000*%
G04 APERTURE END LIST*
D10*
X173323130Y-94294990D02*
X173323130Y-89595890D01*
X173323130Y-89595890D02*
X174849130Y-89595890D01*
X118841430Y-37144860D02*
X118841430Y-23145560D01*
X132842130Y-37144860D02*
X118841430Y-37144860D01*
X118841430Y-23145560D02*
X132842130Y-23145560D01*
X56642130Y-23145560D02*
X56642130Y-37144860D01*
X263218130Y-37144860D02*
X266192130Y-37144860D01*
X239418130Y-37144860D02*
X259918130Y-37144860D01*
X228092130Y-23145560D02*
X228092130Y-37144860D01*
X209042130Y-37144860D02*
X195043130Y-37144860D01*
X37592330Y-37144860D02*
X23592780Y-37144860D01*
X236118130Y-37144860D02*
X236118130Y-38115060D01*
X113792130Y-23145560D02*
X113792130Y-37144860D01*
X175993130Y-23145560D02*
X189992130Y-23145560D01*
X94742130Y-37144860D02*
X80742830Y-37144860D01*
X214093130Y-23145560D02*
X228092130Y-23145560D01*
X99792830Y-23145560D02*
X113792130Y-23145560D01*
X75692130Y-23145560D02*
X75692130Y-37144860D01*
X189992130Y-37144860D02*
X175993130Y-37144860D01*
X214093130Y-37144860D02*
X214093130Y-23145560D01*
X228092130Y-37144860D02*
X214093130Y-37144860D01*
X263218130Y-38115060D02*
X263218130Y-37144860D01*
X195043130Y-37144860D02*
X195043130Y-23145560D01*
X99792830Y-37144860D02*
X99792830Y-23145560D01*
X23592780Y-23145560D02*
X37592330Y-23145560D01*
X259918130Y-38115060D02*
X263218130Y-38115060D01*
X233143130Y-23145560D02*
X233143130Y-37144860D01*
X239418130Y-38115060D02*
X239418130Y-37144860D01*
X266192130Y-23145560D02*
X233143130Y-23145560D01*
X233143130Y-37144860D02*
X236118130Y-37144860D01*
X80742830Y-23145560D02*
X94742130Y-23145560D01*
X61692830Y-37144860D02*
X61692830Y-23145560D01*
X75692130Y-37144860D02*
X61692830Y-37144860D01*
X156943130Y-37144860D02*
X156943130Y-23145560D01*
X94742130Y-23145560D02*
X94742130Y-37144860D01*
X236118130Y-38115060D02*
X239418130Y-38115060D01*
X209042130Y-23145560D02*
X209042130Y-37144860D01*
X195043130Y-23145560D02*
X209042130Y-23145560D01*
X151892130Y-37144860D02*
X137891130Y-37144860D01*
X189992130Y-23145560D02*
X189992130Y-37144860D01*
X170942130Y-37144860D02*
X156943130Y-37144860D01*
X170942130Y-23145560D02*
X170942130Y-37144860D01*
X156943130Y-23145560D02*
X170942130Y-23145560D01*
X80742830Y-37144860D02*
X80742830Y-23145560D01*
X42642830Y-37144860D02*
X42642830Y-23145560D01*
X37592330Y-23145560D02*
X37592330Y-37144860D01*
X56642130Y-37144860D02*
X42642830Y-37144860D01*
X266192130Y-37144860D02*
X266192130Y-23145560D01*
X23592780Y-37144860D02*
X23592780Y-23145560D01*
X151892130Y-23145560D02*
X151892130Y-37144860D01*
X113792130Y-37144860D02*
X99792830Y-37144860D01*
X137891130Y-23145560D02*
X151892130Y-23145560D01*
X132842130Y-23145560D02*
X132842130Y-37144860D01*
X61692830Y-23145560D02*
X75692130Y-23145560D01*
X175993130Y-37144860D02*
X175993130Y-23145560D01*
X259918130Y-37144860D02*
X259918130Y-38115060D01*
X42642830Y-23145560D02*
X56642130Y-23145560D01*
X137891130Y-37144860D02*
X137891130Y-23145560D01*
X261430130Y-56194860D02*
X245049130Y-56194860D01*
X261430130Y-42195560D02*
X261430130Y-56194860D01*
X245049130Y-42195560D02*
X261430130Y-42195560D01*
X212521800Y-42189400D02*
X237617130Y-42195560D01*
X237617130Y-42195560D02*
X237617130Y-56194860D01*
X237617130Y-56194860D02*
X214236300Y-56194960D01*
X245049130Y-56194860D02*
X245049130Y-42195560D01*
X47405330Y-56194860D02*
X47405330Y-42195560D01*
X214236300Y-56194960D02*
X47405330Y-56194860D01*
X47405330Y-42195560D02*
X212524340Y-42189400D01*
X25974040Y-56194860D02*
X25974040Y-42195560D01*
X206661130Y-80295460D02*
X192661130Y-80295460D01*
X206661130Y-94294990D02*
X206661130Y-80295460D01*
X203686130Y-94294990D02*
X206661130Y-94294990D01*
X176574130Y-94066230D02*
X176574130Y-95265130D01*
X179873130Y-95265130D02*
X179873130Y-94066230D01*
X174849130Y-89595890D02*
X174849130Y-94066230D01*
X159118300Y-80294480D02*
X145035130Y-80295460D01*
X173323130Y-80295460D02*
X159138620Y-80294480D01*
X176574130Y-95265130D02*
X179873130Y-95265130D01*
X192661130Y-80295460D02*
X192661130Y-84995960D01*
X63785930Y-80295460D02*
X63785930Y-94294990D01*
X200385130Y-94294990D02*
X200385130Y-95265130D01*
X49786530Y-94294990D02*
X49786530Y-80295460D01*
X63785930Y-94294990D02*
X49786530Y-94294990D01*
X179873130Y-94066230D02*
X181598130Y-94066230D01*
X228092130Y-94294990D02*
X214093130Y-94294990D01*
X228092130Y-80295460D02*
X228092130Y-94294990D01*
X214093130Y-80295460D02*
X228092130Y-80295460D01*
X174849130Y-94066230D02*
X176574130Y-94066230D01*
X73599130Y-94294990D02*
X73599130Y-80295460D01*
X200385130Y-95265130D02*
X203686130Y-95265130D01*
X87598430Y-94294990D02*
X73599130Y-94294990D01*
X87598430Y-80295460D02*
X87598430Y-94294990D01*
X39973530Y-94294990D02*
X25974040Y-94294990D01*
X133973130Y-81765860D02*
X125696980Y-81765140D01*
X173321980Y-81762600D02*
X173323130Y-80295460D01*
X192661130Y-89595890D02*
X192661130Y-94294990D01*
X73599130Y-80295460D02*
X87598430Y-80295460D01*
X49786530Y-80295460D02*
X63785930Y-80295460D01*
X145035130Y-84995960D02*
X133973130Y-84995960D01*
X25974040Y-94294990D02*
X25974040Y-80295460D01*
X39973530Y-80295460D02*
X39973530Y-94294990D01*
X145035130Y-80295460D02*
X145035130Y-84995960D01*
X181598130Y-81765860D02*
X173321980Y-81762600D01*
X181598130Y-89595890D02*
X192661130Y-89595890D01*
X25974040Y-80295460D02*
X39973530Y-80295460D01*
X125698130Y-80295460D02*
X111699130Y-80295460D01*
X125696980Y-81765140D02*
X125698130Y-80295460D01*
X181598130Y-94066230D02*
X181598130Y-89595890D01*
X203686130Y-95265130D02*
X203686130Y-94294990D01*
X133973130Y-84995960D02*
X133973130Y-81765860D01*
X181598130Y-84995960D02*
X181598130Y-81765860D01*
X192661130Y-94294990D02*
X200385130Y-94294990D01*
X192661130Y-84995960D02*
X181598130Y-84995960D01*
X133973130Y-89595890D02*
X145035130Y-89595890D01*
X156073130Y-94294990D02*
X159052260Y-94294960D01*
X111699130Y-89595890D02*
X111699130Y-94294990D01*
X159059880Y-94294960D02*
X173323130Y-94294990D01*
X110173730Y-94066230D02*
X110173730Y-89595890D01*
X156073130Y-95265130D02*
X156073130Y-94294990D01*
X132248130Y-94066230D02*
X133973130Y-94066230D01*
X108448230Y-94066230D02*
X110173730Y-94066230D01*
X100385130Y-94066230D02*
X100385130Y-95265130D01*
X97836030Y-87796160D02*
X98661530Y-87796160D01*
X128949130Y-94066230D02*
X128949130Y-95265130D01*
X97836030Y-84995960D02*
X97836030Y-87796160D01*
X111699040Y-81767680D02*
X98661530Y-81765860D01*
X152774130Y-95265130D02*
X156073130Y-95265130D01*
X152774130Y-94294990D02*
X152774130Y-95265130D01*
X145035130Y-89595890D02*
X145035130Y-94294990D01*
X133973130Y-94066230D02*
X133973130Y-89595890D01*
X132248130Y-95265130D02*
X132248130Y-94066230D01*
X128949130Y-95265130D02*
X132248130Y-95265130D01*
X127224130Y-94066230D02*
X128949130Y-94066230D01*
X127224130Y-89595890D02*
X127224130Y-94066230D01*
X125698130Y-94294990D02*
X125698130Y-89595890D01*
X111699130Y-94294990D02*
X125698130Y-94294990D01*
X110173730Y-89595890D02*
X111699130Y-89595890D01*
X100385130Y-95265130D02*
X103685730Y-95265130D01*
X105149130Y-94066230D02*
X105149130Y-95265130D01*
X98661530Y-81765860D02*
X98661530Y-84995960D01*
X105149130Y-95265130D02*
X108448230Y-95265130D01*
X103685730Y-95265130D02*
X103685730Y-94066230D01*
X98661530Y-94066230D02*
X100385130Y-94066230D01*
X98661530Y-84995960D02*
X97836030Y-84995960D01*
X103685730Y-94066230D02*
X105149130Y-94066230D01*
X98661530Y-87796160D02*
X98661530Y-94066230D01*
X108448230Y-95265130D02*
X108448230Y-94066230D01*
X125698130Y-89595890D02*
X127224130Y-89595890D01*
X145035130Y-94294990D02*
X152774130Y-94294990D01*
X111699130Y-80295460D02*
X111699040Y-81767680D01*
X114080330Y-75244960D02*
X114080330Y-61245560D01*
X185230130Y-75244960D02*
X171230130Y-75244960D01*
X237036130Y-75244960D02*
X257535130Y-75244960D01*
X166180130Y-75244960D02*
X152180130Y-75244960D01*
X228380130Y-61245560D02*
X228380130Y-75244960D01*
X95030330Y-75244960D02*
X95030330Y-61245560D01*
X30736540Y-61245560D02*
X44736030Y-61245560D01*
X147130130Y-75244960D02*
X133130130Y-75244960D01*
X56930330Y-75244960D02*
X56930330Y-61245560D01*
X257535130Y-75244960D02*
X257535130Y-76215160D01*
X147130130Y-61245560D02*
X147130130Y-75244960D01*
X247142130Y-80295460D02*
X247142130Y-94294990D01*
X114080330Y-61245560D02*
X128080130Y-61245560D01*
X109029630Y-61245560D02*
X109029630Y-75244960D01*
X257535130Y-76215160D02*
X260836130Y-76215160D01*
X228380130Y-75244960D02*
X233735130Y-75244960D01*
X233735130Y-75244960D02*
X233735130Y-76215160D01*
X247142130Y-94294990D02*
X233143130Y-94294990D01*
X133130130Y-61245560D02*
X147130130Y-61245560D01*
X44736030Y-61245560D02*
X44736030Y-75244960D01*
X128080130Y-75244960D02*
X114080330Y-75244960D01*
X89979630Y-61245560D02*
X89979630Y-75244960D01*
X260836130Y-75244960D02*
X263811130Y-75244960D01*
X214093130Y-94294990D02*
X214093130Y-80295460D01*
X128080130Y-61245560D02*
X128080130Y-75244960D01*
X233143130Y-80295460D02*
X247142130Y-80295460D01*
X42354830Y-56194860D02*
X25974040Y-56194860D01*
X42354830Y-42195560D02*
X42354830Y-56194860D01*
X70929630Y-61245560D02*
X70929630Y-75244960D01*
X252193130Y-80295460D02*
X266192130Y-80295460D01*
X233735130Y-76215160D02*
X237036130Y-76215160D01*
X223330130Y-61245560D02*
X223330130Y-75244960D01*
X75980330Y-75244960D02*
X75980330Y-61245560D01*
X237036130Y-76215160D02*
X237036130Y-75244960D01*
X133130130Y-75244960D02*
X133130130Y-61245560D01*
X95030330Y-61245560D02*
X109029630Y-61245560D01*
X75980330Y-61245560D02*
X89979630Y-61245560D01*
X263811130Y-75244960D02*
X263811130Y-61245560D01*
X25974040Y-42195560D02*
X42354830Y-42195560D01*
X190280130Y-61245560D02*
X204280130Y-61245560D01*
X266192130Y-94294990D02*
X252193130Y-94294990D01*
X252193130Y-94294990D02*
X252193130Y-80295460D01*
X185230130Y-61245560D02*
X185230130Y-75244960D01*
X70929630Y-75244960D02*
X56930330Y-75244960D01*
X223330130Y-75244960D02*
X209330130Y-75244960D01*
X204280130Y-75244960D02*
X190280130Y-75244960D01*
X209330130Y-61245560D02*
X223330130Y-61245560D01*
X190280130Y-75244960D02*
X190280130Y-61245560D01*
X209330130Y-75244960D02*
X209330130Y-61245560D01*
X89979630Y-75244960D02*
X75980330Y-75244960D01*
X152180130Y-75244960D02*
X152180130Y-61245560D01*
X171230130Y-75244960D02*
X171230130Y-61245560D01*
X152180130Y-61245560D02*
X166180130Y-61245560D01*
X233143130Y-94294990D02*
X233143130Y-80295460D01*
X44736030Y-75244960D02*
X30736540Y-75244960D01*
X109029630Y-75244960D02*
X95030330Y-75244960D01*
X204280130Y-61245560D02*
X204280130Y-75244960D01*
X171230130Y-61245560D02*
X185230130Y-61245560D01*
X166180130Y-61245560D02*
X166180130Y-75244960D01*
X263811130Y-61245560D02*
X228380130Y-61245560D01*
X56930330Y-61245560D02*
X70929630Y-61245560D01*
X260836130Y-76215160D02*
X260836130Y-75244960D01*
X266192130Y-80295460D02*
X266192130Y-94294990D01*
X30736540Y-75244960D02*
X30736540Y-61245560D01*
D11*
X17716500Y-100076000D02*
X17081500Y-98806000D01*
X19050000Y-100774500D02*
X17716500Y-100076000D01*
X272224500Y-100012500D02*
X272796000Y-98856800D01*
X270764000Y-100774500D02*
X272224500Y-100012500D01*
X272097500Y-17272000D02*
X272796000Y-18542000D01*
X270764000Y-16510000D02*
X272097500Y-17272000D01*
X17716500Y-17208500D02*
X19050000Y-16510000D01*
X17081500Y-18542000D02*
X17716500Y-17208500D01*
X17081500Y-98806000D02*
X17081500Y-18542000D01*
X270764000Y-100774500D02*
X19050000Y-100774500D01*
X272796000Y-18542000D02*
X272796000Y-98856800D01*
X19050000Y-16510000D02*
X270764000Y-16510000D01*
M02*
