G04 #@! TF.GenerationSoftware,KiCad,Pcbnew,(5.0.2)-1*
G04 #@! TF.CreationDate,2019-04-30T13:22:38-04:00*
G04 #@! TF.ProjectId,switch_plate,73776974-6368-45f7-906c-6174652e6b69,rev?*
G04 #@! TF.SameCoordinates,Original*
G04 #@! TF.FileFunction,Soldermask,Top*
G04 #@! TF.FilePolarity,Negative*
%FSLAX46Y46*%
G04 Gerber Fmt 4.6, Leading zero omitted, Abs format (unit mm)*
G04 Created by KiCad (PCBNEW (5.0.2)-1) date 4/30/2019 1:22:38 PM*
%MOMM*%
%LPD*%
G01*
G04 APERTURE LIST*
%ADD10C,0.100000*%
G04 APERTURE END LIST*
D10*
G36*
X82326934Y-97115032D02*
X82536402Y-97201796D01*
X82724923Y-97327762D01*
X82885238Y-97488077D01*
X83011204Y-97676598D01*
X83097968Y-97886066D01*
X83142200Y-98108435D01*
X83142200Y-98335165D01*
X83097968Y-98557534D01*
X83011204Y-98767002D01*
X82885238Y-98955523D01*
X82724923Y-99115838D01*
X82536402Y-99241804D01*
X82326934Y-99328568D01*
X82104565Y-99372800D01*
X81877835Y-99372800D01*
X81655466Y-99328568D01*
X81445998Y-99241804D01*
X81257477Y-99115838D01*
X81097162Y-98955523D01*
X80971196Y-98767002D01*
X80884432Y-98557534D01*
X80840200Y-98335165D01*
X80840200Y-98108435D01*
X80884432Y-97886066D01*
X80971196Y-97676598D01*
X81097162Y-97488077D01*
X81257477Y-97327762D01*
X81445998Y-97201796D01*
X81655466Y-97115032D01*
X81877835Y-97070800D01*
X82104565Y-97070800D01*
X82326934Y-97115032D01*
X82326934Y-97115032D01*
G37*
G36*
X270515534Y-97089632D02*
X270725002Y-97176396D01*
X270913523Y-97302362D01*
X271073838Y-97462677D01*
X271199804Y-97651198D01*
X271286568Y-97860666D01*
X271330800Y-98083035D01*
X271330800Y-98309765D01*
X271286568Y-98532134D01*
X271199804Y-98741602D01*
X271073838Y-98930123D01*
X270913523Y-99090438D01*
X270725002Y-99216404D01*
X270515534Y-99303168D01*
X270293165Y-99347400D01*
X270066435Y-99347400D01*
X269844066Y-99303168D01*
X269634598Y-99216404D01*
X269446077Y-99090438D01*
X269285762Y-98930123D01*
X269159796Y-98741602D01*
X269073032Y-98532134D01*
X269028800Y-98309765D01*
X269028800Y-98083035D01*
X269073032Y-97860666D01*
X269159796Y-97651198D01*
X269285762Y-97462677D01*
X269446077Y-97302362D01*
X269634598Y-97176396D01*
X269844066Y-97089632D01*
X270066435Y-97045400D01*
X270293165Y-97045400D01*
X270515534Y-97089632D01*
X270515534Y-97089632D01*
G37*
G36*
X208158534Y-97089632D02*
X208368002Y-97176396D01*
X208556523Y-97302362D01*
X208716838Y-97462677D01*
X208842804Y-97651198D01*
X208929568Y-97860666D01*
X208973800Y-98083035D01*
X208973800Y-98309765D01*
X208929568Y-98532134D01*
X208842804Y-98741602D01*
X208716838Y-98930123D01*
X208556523Y-99090438D01*
X208368002Y-99216404D01*
X208158534Y-99303168D01*
X207936165Y-99347400D01*
X207709435Y-99347400D01*
X207487066Y-99303168D01*
X207277598Y-99216404D01*
X207089077Y-99090438D01*
X206928762Y-98930123D01*
X206802796Y-98741602D01*
X206716032Y-98532134D01*
X206671800Y-98309765D01*
X206671800Y-98083035D01*
X206716032Y-97860666D01*
X206802796Y-97651198D01*
X206928762Y-97462677D01*
X207089077Y-97302362D01*
X207277598Y-97176396D01*
X207487066Y-97089632D01*
X207709435Y-97045400D01*
X207936165Y-97045400D01*
X208158534Y-97089632D01*
X208158534Y-97089632D01*
G37*
G36*
X145268134Y-97089632D02*
X145477602Y-97176396D01*
X145666123Y-97302362D01*
X145826438Y-97462677D01*
X145952404Y-97651198D01*
X146039168Y-97860666D01*
X146083400Y-98083035D01*
X146083400Y-98309765D01*
X146039168Y-98532134D01*
X145952404Y-98741602D01*
X145826438Y-98930123D01*
X145666123Y-99090438D01*
X145477602Y-99216404D01*
X145268134Y-99303168D01*
X145045765Y-99347400D01*
X144819035Y-99347400D01*
X144596666Y-99303168D01*
X144387198Y-99216404D01*
X144198677Y-99090438D01*
X144038362Y-98930123D01*
X143912396Y-98741602D01*
X143825632Y-98532134D01*
X143781400Y-98309765D01*
X143781400Y-98083035D01*
X143825632Y-97860666D01*
X143912396Y-97651198D01*
X144038362Y-97462677D01*
X144198677Y-97302362D01*
X144387198Y-97176396D01*
X144596666Y-97089632D01*
X144819035Y-97045400D01*
X145045765Y-97045400D01*
X145268134Y-97089632D01*
X145268134Y-97089632D01*
G37*
G36*
X19995334Y-97089632D02*
X20204802Y-97176396D01*
X20393323Y-97302362D01*
X20553638Y-97462677D01*
X20679604Y-97651198D01*
X20766368Y-97860666D01*
X20810600Y-98083035D01*
X20810600Y-98309765D01*
X20766368Y-98532134D01*
X20679604Y-98741602D01*
X20553638Y-98930123D01*
X20393323Y-99090438D01*
X20204802Y-99216404D01*
X19995334Y-99303168D01*
X19772965Y-99347400D01*
X19546235Y-99347400D01*
X19323866Y-99303168D01*
X19114398Y-99216404D01*
X18925877Y-99090438D01*
X18765562Y-98930123D01*
X18639596Y-98741602D01*
X18552832Y-98532134D01*
X18508600Y-98309765D01*
X18508600Y-98083035D01*
X18552832Y-97860666D01*
X18639596Y-97651198D01*
X18765562Y-97462677D01*
X18925877Y-97302362D01*
X19114398Y-97176396D01*
X19323866Y-97089632D01*
X19546235Y-97045400D01*
X19772965Y-97045400D01*
X19995334Y-97089632D01*
X19995334Y-97089632D01*
G37*
G36*
X82276134Y-57587552D02*
X82485602Y-57674316D01*
X82674123Y-57800282D01*
X82834438Y-57960597D01*
X82960404Y-58149118D01*
X83047168Y-58358586D01*
X83091400Y-58580955D01*
X83091400Y-58807685D01*
X83047168Y-59030054D01*
X82960404Y-59239522D01*
X82834438Y-59428043D01*
X82674123Y-59588358D01*
X82485602Y-59714324D01*
X82276134Y-59801088D01*
X82053765Y-59845320D01*
X81827035Y-59845320D01*
X81604666Y-59801088D01*
X81395198Y-59714324D01*
X81206677Y-59588358D01*
X81046362Y-59428043D01*
X80920396Y-59239522D01*
X80833632Y-59030054D01*
X80789400Y-58807685D01*
X80789400Y-58580955D01*
X80833632Y-58358586D01*
X80920396Y-58149118D01*
X81046362Y-57960597D01*
X81206677Y-57800282D01*
X81395198Y-57674316D01*
X81604666Y-57587552D01*
X81827035Y-57543320D01*
X82053765Y-57543320D01*
X82276134Y-57587552D01*
X82276134Y-57587552D01*
G37*
G36*
X145217334Y-57562152D02*
X145426802Y-57648916D01*
X145615323Y-57774882D01*
X145775638Y-57935197D01*
X145901604Y-58123718D01*
X145988368Y-58333186D01*
X146032600Y-58555555D01*
X146032600Y-58782285D01*
X145988368Y-59004654D01*
X145901604Y-59214122D01*
X145775638Y-59402643D01*
X145615323Y-59562958D01*
X145426802Y-59688924D01*
X145217334Y-59775688D01*
X144994965Y-59819920D01*
X144768235Y-59819920D01*
X144545866Y-59775688D01*
X144336398Y-59688924D01*
X144147877Y-59562958D01*
X143987562Y-59402643D01*
X143861596Y-59214122D01*
X143774832Y-59004654D01*
X143730600Y-58782285D01*
X143730600Y-58555555D01*
X143774832Y-58333186D01*
X143861596Y-58123718D01*
X143987562Y-57935197D01*
X144147877Y-57774882D01*
X144336398Y-57648916D01*
X144545866Y-57562152D01*
X144768235Y-57517920D01*
X144994965Y-57517920D01*
X145217334Y-57562152D01*
X145217334Y-57562152D01*
G37*
G36*
X208107734Y-57562152D02*
X208317202Y-57648916D01*
X208505723Y-57774882D01*
X208666038Y-57935197D01*
X208792004Y-58123718D01*
X208878768Y-58333186D01*
X208923000Y-58555555D01*
X208923000Y-58782285D01*
X208878768Y-59004654D01*
X208792004Y-59214122D01*
X208666038Y-59402643D01*
X208505723Y-59562958D01*
X208317202Y-59688924D01*
X208107734Y-59775688D01*
X207885365Y-59819920D01*
X207658635Y-59819920D01*
X207436266Y-59775688D01*
X207226798Y-59688924D01*
X207038277Y-59562958D01*
X206877962Y-59402643D01*
X206751996Y-59214122D01*
X206665232Y-59004654D01*
X206621000Y-58782285D01*
X206621000Y-58555555D01*
X206665232Y-58333186D01*
X206751996Y-58123718D01*
X206877962Y-57935197D01*
X207038277Y-57774882D01*
X207226798Y-57648916D01*
X207436266Y-57562152D01*
X207658635Y-57517920D01*
X207885365Y-57517920D01*
X208107734Y-57562152D01*
X208107734Y-57562152D01*
G37*
G36*
X82276134Y-18044832D02*
X82485602Y-18131596D01*
X82674123Y-18257562D01*
X82834438Y-18417877D01*
X82960404Y-18606398D01*
X83047168Y-18815866D01*
X83091400Y-19038235D01*
X83091400Y-19264965D01*
X83047168Y-19487334D01*
X82960404Y-19696802D01*
X82834438Y-19885323D01*
X82674123Y-20045638D01*
X82485602Y-20171604D01*
X82276134Y-20258368D01*
X82053765Y-20302600D01*
X81827035Y-20302600D01*
X81604666Y-20258368D01*
X81395198Y-20171604D01*
X81206677Y-20045638D01*
X81046362Y-19885323D01*
X80920396Y-19696802D01*
X80833632Y-19487334D01*
X80789400Y-19264965D01*
X80789400Y-19038235D01*
X80833632Y-18815866D01*
X80920396Y-18606398D01*
X81046362Y-18417877D01*
X81206677Y-18257562D01*
X81395198Y-18131596D01*
X81604666Y-18044832D01*
X81827035Y-18000600D01*
X82053765Y-18000600D01*
X82276134Y-18044832D01*
X82276134Y-18044832D01*
G37*
G36*
X145217334Y-18019432D02*
X145426802Y-18106196D01*
X145615323Y-18232162D01*
X145775638Y-18392477D01*
X145901604Y-18580998D01*
X145988368Y-18790466D01*
X146032600Y-19012835D01*
X146032600Y-19239565D01*
X145988368Y-19461934D01*
X145901604Y-19671402D01*
X145775638Y-19859923D01*
X145615323Y-20020238D01*
X145426802Y-20146204D01*
X145217334Y-20232968D01*
X144994965Y-20277200D01*
X144768235Y-20277200D01*
X144545866Y-20232968D01*
X144336398Y-20146204D01*
X144147877Y-20020238D01*
X143987562Y-19859923D01*
X143861596Y-19671402D01*
X143774832Y-19461934D01*
X143730600Y-19239565D01*
X143730600Y-19012835D01*
X143774832Y-18790466D01*
X143861596Y-18580998D01*
X143987562Y-18392477D01*
X144147877Y-18232162D01*
X144336398Y-18106196D01*
X144545866Y-18019432D01*
X144768235Y-17975200D01*
X144994965Y-17975200D01*
X145217334Y-18019432D01*
X145217334Y-18019432D01*
G37*
G36*
X270515534Y-18019432D02*
X270725002Y-18106196D01*
X270913523Y-18232162D01*
X271073838Y-18392477D01*
X271199804Y-18580998D01*
X271286568Y-18790466D01*
X271330800Y-19012835D01*
X271330800Y-19239565D01*
X271286568Y-19461934D01*
X271199804Y-19671402D01*
X271073838Y-19859923D01*
X270913523Y-20020238D01*
X270725002Y-20146204D01*
X270515534Y-20232968D01*
X270293165Y-20277200D01*
X270066435Y-20277200D01*
X269844066Y-20232968D01*
X269634598Y-20146204D01*
X269446077Y-20020238D01*
X269285762Y-19859923D01*
X269159796Y-19671402D01*
X269073032Y-19461934D01*
X269028800Y-19239565D01*
X269028800Y-19012835D01*
X269073032Y-18790466D01*
X269159796Y-18580998D01*
X269285762Y-18392477D01*
X269446077Y-18232162D01*
X269634598Y-18106196D01*
X269844066Y-18019432D01*
X270066435Y-17975200D01*
X270293165Y-17975200D01*
X270515534Y-18019432D01*
X270515534Y-18019432D01*
G37*
G36*
X208107734Y-18019432D02*
X208317202Y-18106196D01*
X208505723Y-18232162D01*
X208666038Y-18392477D01*
X208792004Y-18580998D01*
X208878768Y-18790466D01*
X208923000Y-19012835D01*
X208923000Y-19239565D01*
X208878768Y-19461934D01*
X208792004Y-19671402D01*
X208666038Y-19859923D01*
X208505723Y-20020238D01*
X208317202Y-20146204D01*
X208107734Y-20232968D01*
X207885365Y-20277200D01*
X207658635Y-20277200D01*
X207436266Y-20232968D01*
X207226798Y-20146204D01*
X207038277Y-20020238D01*
X206877962Y-19859923D01*
X206751996Y-19671402D01*
X206665232Y-19461934D01*
X206621000Y-19239565D01*
X206621000Y-19012835D01*
X206665232Y-18790466D01*
X206751996Y-18580998D01*
X206877962Y-18392477D01*
X207038277Y-18232162D01*
X207226798Y-18106196D01*
X207436266Y-18019432D01*
X207658635Y-17975200D01*
X207885365Y-17975200D01*
X208107734Y-18019432D01*
X208107734Y-18019432D01*
G37*
G36*
X19995334Y-17994032D02*
X20204802Y-18080796D01*
X20393323Y-18206762D01*
X20553638Y-18367077D01*
X20679604Y-18555598D01*
X20766368Y-18765066D01*
X20810600Y-18987435D01*
X20810600Y-19214165D01*
X20766368Y-19436534D01*
X20679604Y-19646002D01*
X20553638Y-19834523D01*
X20393323Y-19994838D01*
X20204802Y-20120804D01*
X19995334Y-20207568D01*
X19772965Y-20251800D01*
X19546235Y-20251800D01*
X19323866Y-20207568D01*
X19114398Y-20120804D01*
X18925877Y-19994838D01*
X18765562Y-19834523D01*
X18639596Y-19646002D01*
X18552832Y-19436534D01*
X18508600Y-19214165D01*
X18508600Y-18987435D01*
X18552832Y-18765066D01*
X18639596Y-18555598D01*
X18765562Y-18367077D01*
X18925877Y-18206762D01*
X19114398Y-18080796D01*
X19323866Y-17994032D01*
X19546235Y-17949800D01*
X19772965Y-17949800D01*
X19995334Y-17994032D01*
X19995334Y-17994032D01*
G37*
M02*
