G04 #@! TF.GenerationSoftware,KiCad,Pcbnew,(5.0.2)-1*
G04 #@! TF.CreationDate,2019-05-29T12:45:37-04:00*
G04 #@! TF.ProjectId,bottom_plate,626f7474-6f6d-45f7-906c-6174652e6b69,rev?*
G04 #@! TF.SameCoordinates,Original*
G04 #@! TF.FileFunction,Legend,Bot*
G04 #@! TF.FilePolarity,Positive*
%FSLAX46Y46*%
G04 Gerber Fmt 4.6, Leading zero omitted, Abs format (unit mm)*
G04 Created by KiCad (PCBNEW (5.0.2)-1) date 5/29/2019 12:45:37 PM*
%MOMM*%
%LPD*%
G01*
G04 APERTURE LIST*
%ADD10C,0.600000*%
%ADD11C,0.010000*%
G04 APERTURE END LIST*
D10*
X50430938Y-89643057D02*
X48907128Y-89643057D01*
X49859509Y-88309723D02*
X49859509Y-91738295D01*
X49669033Y-92119247D01*
X49288080Y-92309723D01*
X48907128Y-92309723D01*
X45859509Y-89643057D02*
X45859509Y-92881152D01*
X46049985Y-93262104D01*
X46240461Y-93452580D01*
X46621414Y-93643057D01*
X47192842Y-93643057D01*
X47573795Y-93452580D01*
X45859509Y-92119247D02*
X46240461Y-92309723D01*
X47002366Y-92309723D01*
X47383319Y-92119247D01*
X47573795Y-91928771D01*
X47764271Y-91547819D01*
X47764271Y-90404961D01*
X47573795Y-90024009D01*
X47383319Y-89833533D01*
X47002366Y-89643057D01*
X46240461Y-89643057D01*
X45859509Y-89833533D01*
X42240461Y-89643057D02*
X42240461Y-92309723D01*
X43192842Y-88119247D02*
X44145223Y-90976390D01*
X41669033Y-90976390D01*
X40526176Y-92309723D02*
X38430938Y-89643057D01*
X40526176Y-89643057D02*
X38430938Y-92309723D01*
D11*
G04 #@! TO.C,G\002A\002A\002A*
G36*
X11501969Y-72025447D02*
X11423065Y-72467041D01*
X11389562Y-72803710D01*
X11404210Y-73007491D01*
X11405116Y-73010333D01*
X11434098Y-73171207D01*
X11370125Y-73226421D01*
X11295925Y-73312941D01*
X11224794Y-73519949D01*
X11196899Y-73651343D01*
X11124613Y-74061297D01*
X12781032Y-74353368D01*
X12222902Y-72797524D01*
X11664773Y-71241681D01*
X11501969Y-72025447D01*
X11501969Y-72025447D01*
G37*
X11501969Y-72025447D02*
X11423065Y-72467041D01*
X11389562Y-72803710D01*
X11404210Y-73007491D01*
X11405116Y-73010333D01*
X11434098Y-73171207D01*
X11370125Y-73226421D01*
X11295925Y-73312941D01*
X11224794Y-73519949D01*
X11196899Y-73651343D01*
X11124613Y-74061297D01*
X12781032Y-74353368D01*
X12222902Y-72797524D01*
X11664773Y-71241681D01*
X11501969Y-72025447D01*
G36*
X179803962Y-84016981D02*
X179643858Y-84199381D01*
X179391501Y-84492366D01*
X179055074Y-84886279D01*
X178642766Y-85371462D01*
X178162762Y-85938258D01*
X177623247Y-86577008D01*
X177032407Y-87278055D01*
X176398428Y-88031741D01*
X175729497Y-88828410D01*
X175423949Y-89192761D01*
X174741412Y-90006331D01*
X174089706Y-90781917D01*
X173477079Y-91509780D01*
X172911774Y-92180181D01*
X172402038Y-92783380D01*
X171956116Y-93309638D01*
X171582256Y-93749215D01*
X171288701Y-94092371D01*
X171083698Y-94329367D01*
X170975493Y-94450464D01*
X170960711Y-94464506D01*
X170918447Y-94393478D01*
X170825656Y-94179718D01*
X170688806Y-93839945D01*
X170514362Y-93390881D01*
X170308790Y-92849247D01*
X170078555Y-92231765D01*
X169830124Y-91555155D01*
X169742131Y-91313152D01*
X169488351Y-90618286D01*
X169250097Y-89975215D01*
X169033925Y-89400939D01*
X168846386Y-88912458D01*
X168694032Y-88526773D01*
X168583416Y-88260886D01*
X168521091Y-88131796D01*
X168512202Y-88122108D01*
X168444705Y-88182626D01*
X168279239Y-88361460D01*
X168026076Y-88646701D01*
X167695484Y-89026442D01*
X167297736Y-89488779D01*
X166843105Y-90021803D01*
X166341861Y-90613609D01*
X165804275Y-91252288D01*
X165544137Y-91562694D01*
X164994014Y-92218977D01*
X164476633Y-92834182D01*
X164002127Y-93396399D01*
X163580632Y-93893717D01*
X163222278Y-94314223D01*
X162937204Y-94646008D01*
X162735540Y-94877159D01*
X162627421Y-94995766D01*
X162611804Y-95009245D01*
X162576080Y-94930603D01*
X162487780Y-94706685D01*
X162352090Y-94351395D01*
X162174198Y-93878635D01*
X161959285Y-93302307D01*
X161712540Y-92636313D01*
X161439148Y-91894557D01*
X161144295Y-91090940D01*
X160857751Y-90306784D01*
X160547124Y-89457738D01*
X160252410Y-88657298D01*
X159978880Y-87919434D01*
X159731802Y-87258119D01*
X159516444Y-86687321D01*
X159338075Y-86221012D01*
X159201963Y-85873163D01*
X159113378Y-85657745D01*
X159078413Y-85588543D01*
X159010729Y-85645874D01*
X158847129Y-85819258D01*
X158599989Y-86094566D01*
X158281683Y-86457669D01*
X157904586Y-86894440D01*
X157481076Y-87390752D01*
X157023525Y-87932478D01*
X156984492Y-87978937D01*
X156525315Y-88524201D01*
X156100273Y-89026049D01*
X155721597Y-89470256D01*
X155401523Y-89842597D01*
X155152287Y-90128843D01*
X154986120Y-90314770D01*
X154915260Y-90386151D01*
X154914041Y-90386483D01*
X154878487Y-90307996D01*
X154790144Y-90083320D01*
X154653851Y-89725491D01*
X154474449Y-89247544D01*
X154256781Y-88662514D01*
X154005688Y-87983439D01*
X153726011Y-87223352D01*
X153422592Y-86395289D01*
X153100271Y-85512285D01*
X152929005Y-85041796D01*
X152598359Y-84134969D01*
X152283493Y-83275965D01*
X151989314Y-82477878D01*
X151720726Y-81753807D01*
X151482639Y-81116848D01*
X151279957Y-80580098D01*
X151117589Y-80156654D01*
X151000439Y-79859613D01*
X150933416Y-79702070D01*
X150920128Y-79679662D01*
X150855176Y-79738529D01*
X150691369Y-79916305D01*
X150438299Y-80201853D01*
X150105562Y-80584028D01*
X149702751Y-81051697D01*
X149239459Y-81593717D01*
X148725281Y-82198949D01*
X148169810Y-82856255D01*
X147582640Y-83554496D01*
X147574369Y-83564355D01*
X146986552Y-84264635D01*
X146430744Y-84925901D01*
X145916530Y-85536812D01*
X145453489Y-86086026D01*
X145051204Y-86562202D01*
X144719258Y-86953998D01*
X144467231Y-87250072D01*
X144304706Y-87439081D01*
X144241264Y-87509685D01*
X144241200Y-87509731D01*
X144203043Y-87439470D01*
X144112914Y-87223981D01*
X143976153Y-86877370D01*
X143798100Y-86413746D01*
X143584098Y-85847218D01*
X143339487Y-85191895D01*
X143069608Y-84461885D01*
X142779801Y-83671298D01*
X142569653Y-83094119D01*
X142269086Y-82268269D01*
X141985145Y-81491842D01*
X141723149Y-80779130D01*
X141488415Y-80144423D01*
X141286263Y-79602010D01*
X141122012Y-79166184D01*
X141000980Y-78851234D01*
X140928485Y-78671450D01*
X140909570Y-78633683D01*
X140848882Y-78695368D01*
X140689322Y-78875689D01*
X140440546Y-79163302D01*
X140112209Y-79546859D01*
X139713966Y-80015013D01*
X139255472Y-80556419D01*
X138746383Y-81159728D01*
X138196353Y-81813595D01*
X137681299Y-82427571D01*
X137101014Y-83120049D01*
X136551986Y-83774966D01*
X136044061Y-84380596D01*
X135587085Y-84925212D01*
X135190903Y-85397085D01*
X134865359Y-85784490D01*
X134620300Y-86075699D01*
X134465571Y-86258985D01*
X134412134Y-86321488D01*
X134363856Y-86265437D01*
X134262752Y-86053447D01*
X134110526Y-85689891D01*
X133908886Y-85179141D01*
X133659537Y-84525572D01*
X133364185Y-83733556D01*
X133024536Y-82807466D01*
X132800464Y-82190025D01*
X132508962Y-81386046D01*
X132234060Y-80631886D01*
X131981211Y-79942230D01*
X131755870Y-79331767D01*
X131563493Y-78815181D01*
X131409534Y-78407160D01*
X131299447Y-78122389D01*
X131238687Y-77975556D01*
X131228820Y-77958379D01*
X131168927Y-78020536D01*
X131008867Y-78202975D01*
X130756912Y-78495918D01*
X130421331Y-78889589D01*
X130010394Y-79374209D01*
X129532370Y-79940003D01*
X128995531Y-80577192D01*
X128408143Y-81275998D01*
X127778480Y-82026644D01*
X127114809Y-82819353D01*
X126891903Y-83085929D01*
X126216476Y-83893582D01*
X125570800Y-84664994D01*
X124963343Y-85390087D01*
X124402572Y-86058784D01*
X123896955Y-86661011D01*
X123454960Y-87186688D01*
X123085054Y-87625742D01*
X122795706Y-87968093D01*
X122595383Y-88203667D01*
X122492554Y-88322386D01*
X122481926Y-88333762D01*
X122433250Y-88347121D01*
X122372056Y-88289829D01*
X122290676Y-88145339D01*
X122181439Y-87897101D01*
X122036677Y-87528568D01*
X121848720Y-87023187D01*
X121753612Y-86762168D01*
X121569647Y-86262397D01*
X121402006Y-85820552D01*
X121259999Y-85460081D01*
X121152938Y-85204434D01*
X121090132Y-85077063D01*
X121080621Y-85067161D01*
X121009478Y-85125517D01*
X120847952Y-85294525D01*
X120613756Y-85554491D01*
X120324595Y-85885722D01*
X119998182Y-86268525D01*
X119966556Y-86306054D01*
X119637404Y-86695765D01*
X119344899Y-87039693D01*
X119106704Y-87317261D01*
X118940487Y-87507893D01*
X118863912Y-87591015D01*
X118862145Y-87592432D01*
X118823711Y-87522695D01*
X118733258Y-87308713D01*
X118596514Y-86965425D01*
X118419202Y-86507774D01*
X118207046Y-85950695D01*
X117965772Y-85309130D01*
X117701106Y-84598019D01*
X117418769Y-83832300D01*
X117362501Y-83678872D01*
X117077320Y-82902689D01*
X116809103Y-82176731D01*
X116563553Y-81516152D01*
X116346375Y-80936104D01*
X116163271Y-80451742D01*
X116019945Y-80078219D01*
X115922101Y-79830686D01*
X115875443Y-79724298D01*
X115872873Y-79721296D01*
X115811500Y-79782503D01*
X115652163Y-79960776D01*
X115405731Y-80243452D01*
X115083073Y-80617872D01*
X114695061Y-81071375D01*
X114252563Y-81591301D01*
X113766448Y-82164988D01*
X113276553Y-82745393D01*
X112759219Y-83358228D01*
X112275235Y-83929235D01*
X111835466Y-84445759D01*
X111450783Y-84895144D01*
X111132051Y-85264736D01*
X110890138Y-85541877D01*
X110735913Y-85713914D01*
X110680554Y-85768477D01*
X110643982Y-85689648D01*
X110556417Y-85467681D01*
X110423917Y-85118871D01*
X110252535Y-84659518D01*
X110048327Y-84105914D01*
X109817348Y-83474357D01*
X109565655Y-82781144D01*
X109398583Y-82318452D01*
X109136831Y-81594660D01*
X108891816Y-80922243D01*
X108669611Y-80317495D01*
X108476290Y-79796713D01*
X108317926Y-79376193D01*
X108200590Y-79072229D01*
X108130357Y-78901116D01*
X108113009Y-78868860D01*
X108049915Y-78929566D01*
X107891860Y-79105547D01*
X107651853Y-79381634D01*
X107342905Y-79742658D01*
X106978025Y-80173446D01*
X106570222Y-80658831D01*
X106285000Y-81000380D01*
X105855298Y-81512312D01*
X105458344Y-81977887D01*
X105107347Y-82382179D01*
X104815519Y-82710264D01*
X104596073Y-82947215D01*
X104462219Y-83078106D01*
X104427198Y-83099154D01*
X104386700Y-83014807D01*
X104293490Y-82783807D01*
X104152288Y-82418798D01*
X103967816Y-81932425D01*
X103744790Y-81337330D01*
X103487932Y-80646160D01*
X103201959Y-79871557D01*
X102891595Y-79026166D01*
X102561555Y-78122630D01*
X102257337Y-77285995D01*
X101914044Y-76342162D01*
X101586411Y-75445717D01*
X101279135Y-74609252D01*
X100996919Y-73845361D01*
X100744463Y-73166636D01*
X100526466Y-72585669D01*
X100347630Y-72115050D01*
X100212655Y-71767375D01*
X100126242Y-71555235D01*
X100094020Y-71490635D01*
X100027937Y-71549143D01*
X99864109Y-71725738D01*
X99613024Y-72008278D01*
X99285169Y-72384623D01*
X98891035Y-72842634D01*
X98441108Y-73370168D01*
X97945879Y-73955087D01*
X97415835Y-74585248D01*
X97267039Y-74762858D01*
X96728612Y-75404466D01*
X96221746Y-76005302D01*
X95757008Y-76553060D01*
X95344963Y-77035436D01*
X94996180Y-77440127D01*
X94721222Y-77754827D01*
X94530658Y-77967231D01*
X94435051Y-78065037D01*
X94426979Y-78070187D01*
X94383419Y-77995278D01*
X94288166Y-77775519D01*
X94146794Y-77425416D01*
X93964873Y-76959476D01*
X93747973Y-76392208D01*
X93501667Y-75738116D01*
X93231526Y-75011709D01*
X92943120Y-74227492D01*
X92789530Y-73806477D01*
X92494584Y-72997735D01*
X92216386Y-72238694D01*
X91960372Y-71543933D01*
X91731983Y-70928030D01*
X91536656Y-70405565D01*
X91379827Y-69991115D01*
X91266937Y-69699261D01*
X91203425Y-69544580D01*
X91191771Y-69523203D01*
X91131444Y-69584983D01*
X90971763Y-69765692D01*
X90722041Y-70054392D01*
X90391588Y-70440145D01*
X89989716Y-70912011D01*
X89525735Y-71459050D01*
X89008959Y-72070326D01*
X88448698Y-72734899D01*
X87854264Y-73441832D01*
X87723798Y-73597222D01*
X87123197Y-74311798D01*
X86554680Y-74986329D01*
X86027570Y-75609878D01*
X85551188Y-76171506D01*
X85134858Y-76660274D01*
X84787900Y-77065245D01*
X84519637Y-77375481D01*
X84339391Y-77580042D01*
X84256484Y-77667992D01*
X84252286Y-77670618D01*
X84211398Y-77592271D01*
X84122404Y-77377427D01*
X83994193Y-77049039D01*
X83835656Y-76630062D01*
X83655684Y-76143453D01*
X83573293Y-75917411D01*
X83386820Y-75408637D01*
X83217971Y-74957557D01*
X83075631Y-74587123D01*
X82968680Y-74320288D01*
X82906004Y-74180003D01*
X82894831Y-74164296D01*
X82832234Y-74225130D01*
X82673062Y-74401975D01*
X82429306Y-74680901D01*
X82112961Y-75047973D01*
X81736020Y-75489257D01*
X81310479Y-75990820D01*
X80848329Y-76538729D01*
X80740234Y-76667319D01*
X80270936Y-77222868D01*
X79834307Y-77733823D01*
X79442483Y-78186429D01*
X79107594Y-78566932D01*
X78841772Y-78861583D01*
X78657148Y-79056625D01*
X78565855Y-79138307D01*
X78559380Y-79139637D01*
X78519644Y-79055659D01*
X78427217Y-78824904D01*
X78286765Y-78459922D01*
X78102956Y-77973259D01*
X77880456Y-77377462D01*
X77623932Y-76685080D01*
X77338050Y-75908659D01*
X77027476Y-75060746D01*
X76696879Y-74153890D01*
X76366486Y-73243607D01*
X76021102Y-72292638D01*
X75691084Y-71389060D01*
X75381110Y-70545371D01*
X75095858Y-69774067D01*
X74840010Y-69087649D01*
X74618242Y-68498611D01*
X74435235Y-68019453D01*
X74295667Y-67662672D01*
X74204216Y-67440764D01*
X74166057Y-67366231D01*
X74100096Y-67426271D01*
X73934849Y-67606273D01*
X73679167Y-67895890D01*
X73341901Y-68284774D01*
X72931905Y-68762581D01*
X72458027Y-69318962D01*
X71929120Y-69943572D01*
X71354036Y-70626065D01*
X70741625Y-71356091D01*
X70267489Y-71923378D01*
X69633531Y-72681663D01*
X69030770Y-73399909D01*
X68468011Y-74067798D01*
X67954052Y-74675015D01*
X67497695Y-75211242D01*
X67107740Y-75666164D01*
X66792990Y-76029464D01*
X66562245Y-76290826D01*
X66424307Y-76439933D01*
X66387085Y-76471906D01*
X66347427Y-76389176D01*
X66255716Y-76161883D01*
X66117472Y-75804714D01*
X65938213Y-75332352D01*
X65723461Y-74759481D01*
X65478732Y-74100787D01*
X65209547Y-73370951D01*
X64921425Y-72584662D01*
X64770815Y-72171714D01*
X64475190Y-71363443D01*
X64195321Y-70605084D01*
X63936755Y-69911204D01*
X63705042Y-69296374D01*
X63505729Y-68775161D01*
X63344367Y-68362137D01*
X63226504Y-68071868D01*
X63157689Y-67918926D01*
X63143289Y-67898496D01*
X63077469Y-67961348D01*
X62912829Y-68143022D01*
X62658992Y-68432289D01*
X62325580Y-68817916D01*
X61922218Y-69288675D01*
X61458526Y-69833332D01*
X60944130Y-70440658D01*
X60388650Y-71099422D01*
X59801711Y-71798394D01*
X59800474Y-71799870D01*
X59214285Y-72498432D01*
X58660426Y-73156651D01*
X58148415Y-73763331D01*
X57687773Y-74307283D01*
X57288019Y-74777312D01*
X56958672Y-75162227D01*
X56709251Y-75450835D01*
X56549276Y-75631942D01*
X56488267Y-75694358D01*
X56488211Y-75694350D01*
X56452699Y-75615422D01*
X56365068Y-75391171D01*
X56230501Y-75035617D01*
X56054180Y-74562780D01*
X55841292Y-73986678D01*
X55597018Y-73321332D01*
X55326543Y-72580761D01*
X55035049Y-71778986D01*
X54771545Y-71051305D01*
X54466104Y-70208137D01*
X54177180Y-69414148D01*
X53909961Y-68683356D01*
X53669636Y-68029775D01*
X53461391Y-67467423D01*
X53290413Y-67010317D01*
X53161891Y-66672472D01*
X53081011Y-66467902D01*
X53053515Y-66409256D01*
X52992541Y-66470770D01*
X52833359Y-66650258D01*
X52586237Y-66935668D01*
X52261448Y-67314948D01*
X51869259Y-67776047D01*
X51419940Y-68306914D01*
X50923761Y-68895498D01*
X50390991Y-69529746D01*
X50187416Y-69772661D01*
X49643646Y-70420686D01*
X49132526Y-71027413D01*
X48664341Y-71580798D01*
X48249380Y-72068795D01*
X47897929Y-72479359D01*
X47620274Y-72800445D01*
X47426702Y-73020007D01*
X47327502Y-73126000D01*
X47316790Y-73134025D01*
X47280431Y-73054922D01*
X47191484Y-72829924D01*
X47054919Y-72472391D01*
X46875705Y-71995679D01*
X46658806Y-71413148D01*
X46409194Y-70738156D01*
X46131836Y-69984060D01*
X45831699Y-69164218D01*
X45513752Y-68291988D01*
X45417660Y-68027668D01*
X45095496Y-67142663D01*
X44789780Y-66306168D01*
X44505470Y-65531533D01*
X44247525Y-64832108D01*
X44020902Y-64221244D01*
X43830558Y-63712292D01*
X43681454Y-63318603D01*
X43578546Y-63053528D01*
X43526792Y-62930418D01*
X43522025Y-62923168D01*
X43462127Y-62985273D01*
X43301760Y-63167591D01*
X43049118Y-63460469D01*
X42712394Y-63854248D01*
X42299779Y-64339274D01*
X41819467Y-64905889D01*
X41279652Y-65544438D01*
X40688524Y-66245263D01*
X40054278Y-66998710D01*
X39385106Y-67795120D01*
X39080508Y-68158104D01*
X38398360Y-68970459D01*
X37747320Y-69744071D01*
X37135597Y-70469287D01*
X36571404Y-71136451D01*
X36062951Y-71735907D01*
X35618451Y-72257999D01*
X35246112Y-72693073D01*
X34954147Y-73031471D01*
X34750767Y-73263540D01*
X34644183Y-73379622D01*
X34630059Y-73391466D01*
X34591859Y-73312502D01*
X34501390Y-73088943D01*
X34364147Y-72735365D01*
X34185627Y-72266346D01*
X33971326Y-71696466D01*
X33726741Y-71040303D01*
X33457366Y-70312435D01*
X33168700Y-69527442D01*
X33014377Y-69105842D01*
X32717421Y-68296231D01*
X32436363Y-67535585D01*
X32176770Y-66838582D01*
X31944205Y-66219904D01*
X31744237Y-65694229D01*
X31582431Y-65276238D01*
X31464354Y-64980611D01*
X31395570Y-64822028D01*
X31381274Y-64798654D01*
X31316010Y-64856311D01*
X31151580Y-65033086D01*
X30897358Y-65318129D01*
X30562722Y-65700587D01*
X30157047Y-66169610D01*
X29689708Y-66714344D01*
X29170083Y-67323940D01*
X28607547Y-67987546D01*
X28011474Y-68694308D01*
X27870735Y-68861691D01*
X27269076Y-69575562D01*
X26699233Y-70247630D01*
X26170508Y-70867186D01*
X25692209Y-71423520D01*
X25273637Y-71905920D01*
X24924099Y-72303678D01*
X24652900Y-72606085D01*
X24469344Y-72802429D01*
X24382735Y-72882001D01*
X24377426Y-72882557D01*
X24337763Y-72789671D01*
X24246508Y-72554751D01*
X24110043Y-72194864D01*
X23934753Y-71727075D01*
X23727018Y-71168451D01*
X23493222Y-70536057D01*
X23239747Y-69846960D01*
X23121263Y-69523730D01*
X22860681Y-68817133D01*
X22615524Y-68162008D01*
X22392300Y-67575045D01*
X22197520Y-67072935D01*
X22037694Y-66672365D01*
X21919330Y-66390025D01*
X21848938Y-66242604D01*
X21834465Y-66224692D01*
X21759148Y-66283173D01*
X21591341Y-66454617D01*
X21346691Y-66721680D01*
X21040846Y-67067017D01*
X20689453Y-67473285D01*
X20391905Y-67823581D01*
X20017693Y-68265316D01*
X19679499Y-68660322D01*
X19392476Y-68991242D01*
X19171779Y-69240716D01*
X19032564Y-69391387D01*
X18990143Y-69429141D01*
X18955186Y-69350468D01*
X18867270Y-69124753D01*
X18730914Y-68764236D01*
X18550632Y-68281155D01*
X18330941Y-67687751D01*
X18076357Y-66996263D01*
X17791395Y-66218929D01*
X17480574Y-65367992D01*
X17148406Y-64455688D01*
X16799412Y-63494258D01*
X16751160Y-63361111D01*
X16400147Y-62393892D01*
X16065223Y-61474105D01*
X15750917Y-60613994D01*
X15461759Y-59825806D01*
X15202273Y-59121786D01*
X14976990Y-58514179D01*
X14790436Y-58015232D01*
X14647138Y-57637189D01*
X14551625Y-57392296D01*
X14508426Y-57292799D01*
X14506851Y-57291174D01*
X14429204Y-57345390D01*
X14289329Y-57492100D01*
X14219439Y-57574599D01*
X14099544Y-57741352D01*
X14010566Y-57928610D01*
X13937327Y-58180833D01*
X13864654Y-58542479D01*
X13838860Y-58689619D01*
X13697531Y-59512721D01*
X13936435Y-59233290D01*
X14090575Y-59064697D01*
X14197069Y-58969571D01*
X14217012Y-58961308D01*
X14250430Y-59039458D01*
X14335953Y-59262017D01*
X14468173Y-59614127D01*
X14641675Y-60080932D01*
X14851050Y-60647573D01*
X15090887Y-61299195D01*
X15355775Y-62020939D01*
X15640302Y-62797949D01*
X15939058Y-63615366D01*
X16246631Y-64458335D01*
X16557610Y-65311998D01*
X16866584Y-66161498D01*
X17168143Y-66991977D01*
X17456874Y-67788578D01*
X17727368Y-68536445D01*
X17974212Y-69220720D01*
X18191996Y-69826545D01*
X18375309Y-70339065D01*
X18518739Y-70743420D01*
X18616877Y-71024755D01*
X18664309Y-71168213D01*
X18667788Y-71181781D01*
X18589651Y-71189761D01*
X18352303Y-71166643D01*
X17962782Y-71113495D01*
X17428129Y-71031388D01*
X16755381Y-70921391D01*
X15951576Y-70784576D01*
X15255863Y-70663054D01*
X11830319Y-70059038D01*
X11683297Y-70892842D01*
X17011256Y-71832305D01*
X16096324Y-72917584D01*
X15181393Y-74002862D01*
X30098061Y-76633073D01*
X29723344Y-75635743D01*
X28745411Y-75463307D01*
X28671652Y-75473008D01*
X28457200Y-75454929D01*
X28127818Y-75412384D01*
X27709266Y-75348686D01*
X27246228Y-75270490D01*
X26767455Y-75182353D01*
X26355317Y-75099352D01*
X26035155Y-75027185D01*
X25971297Y-75009670D01*
X24083933Y-74676877D01*
X24002082Y-74669980D01*
X23770472Y-74636141D01*
X23406039Y-74578181D01*
X22925722Y-74498915D01*
X22346459Y-74401166D01*
X21685187Y-74287753D01*
X20958844Y-74161491D01*
X20443779Y-74071035D01*
X19684927Y-73935703D01*
X18981567Y-73807319D01*
X18350378Y-73689143D01*
X17808045Y-73584437D01*
X17371249Y-73496463D01*
X17056670Y-73428481D01*
X16880994Y-73383753D01*
X16849362Y-73368322D01*
X16917185Y-73280225D01*
X17067848Y-73093022D01*
X17276085Y-72837935D01*
X17426040Y-72655729D01*
X17963138Y-72005076D01*
X20021867Y-72320171D01*
X19669286Y-71371365D01*
X19316704Y-70422559D01*
X19891862Y-69734141D01*
X20368644Y-69165410D01*
X20749075Y-68716604D01*
X21043636Y-68376272D01*
X21262806Y-68132960D01*
X21417066Y-67975213D01*
X21516895Y-67891579D01*
X21572774Y-67870604D01*
X21587885Y-67880573D01*
X21627432Y-67973940D01*
X21716849Y-68205030D01*
X21848775Y-68553800D01*
X22015846Y-69000201D01*
X22210701Y-69524188D01*
X22425978Y-70105715D01*
X22654314Y-70724736D01*
X22888346Y-71361202D01*
X23120713Y-71995070D01*
X23344052Y-72606293D01*
X23551000Y-73174822D01*
X23734197Y-73680613D01*
X23886278Y-74103620D01*
X23999883Y-74423795D01*
X24067647Y-74621093D01*
X24083933Y-74676877D01*
X25971297Y-75009670D01*
X25832312Y-74971550D01*
X25771511Y-74938928D01*
X25856481Y-74825078D01*
X26023249Y-74619096D01*
X26250149Y-74346271D01*
X26515513Y-74031893D01*
X26797674Y-73701251D01*
X27074962Y-73379638D01*
X27325712Y-73092343D01*
X27528255Y-72864654D01*
X27660923Y-72721863D01*
X27701997Y-72685698D01*
X27740965Y-72762281D01*
X27825729Y-72966959D01*
X27944577Y-73268553D01*
X28085800Y-73635891D01*
X28237685Y-74037794D01*
X28388521Y-74443087D01*
X28526598Y-74820596D01*
X28640204Y-75139143D01*
X28717627Y-75367555D01*
X28745411Y-75463307D01*
X29723344Y-75635743D01*
X29579157Y-75251984D01*
X32668324Y-75796687D01*
X32314300Y-76228607D01*
X32116445Y-76465566D01*
X31950967Y-76655894D01*
X31861535Y-76750582D01*
X31874812Y-76770422D01*
X31953805Y-76799960D01*
X32106334Y-76840671D01*
X32340218Y-76894028D01*
X32663275Y-76961502D01*
X33083327Y-77044569D01*
X33608191Y-77144700D01*
X34245689Y-77263368D01*
X35003639Y-77402048D01*
X35889859Y-77562211D01*
X36912171Y-77745330D01*
X38078393Y-77952880D01*
X39396345Y-78186332D01*
X40775467Y-78429814D01*
X49788143Y-80018992D01*
X49419556Y-79015345D01*
X48439151Y-78842473D01*
X48359630Y-78841730D01*
X48121261Y-78811996D01*
X47731796Y-78754557D01*
X47198992Y-78670696D01*
X46530604Y-78561703D01*
X45734386Y-78428860D01*
X44818094Y-78273456D01*
X43789482Y-78096774D01*
X42656307Y-77900102D01*
X41426321Y-77684724D01*
X40935315Y-77598273D01*
X39638713Y-77368773D01*
X38446012Y-77155897D01*
X37364023Y-76960917D01*
X36399556Y-76785109D01*
X35559423Y-76629744D01*
X34850437Y-76496098D01*
X34279404Y-76385443D01*
X33853140Y-76299055D01*
X33578452Y-76238206D01*
X33462153Y-76204170D01*
X33458656Y-76199942D01*
X33523289Y-76116599D01*
X33686627Y-75916579D01*
X33939246Y-75611080D01*
X34271724Y-75211298D01*
X34674636Y-74728427D01*
X34960736Y-74386305D01*
X33973408Y-74212212D01*
X33630439Y-74629172D01*
X33287470Y-75046133D01*
X31273545Y-74690496D01*
X29259621Y-74334860D01*
X28658740Y-72681925D01*
X28476201Y-72187064D01*
X28310042Y-71750325D01*
X28169688Y-71395374D01*
X28064562Y-71145878D01*
X28004085Y-71025505D01*
X27996334Y-71018142D01*
X27925973Y-71076815D01*
X27764617Y-71246935D01*
X27529227Y-71509486D01*
X27236762Y-71845458D01*
X26904183Y-72235835D01*
X26804696Y-72354071D01*
X25674584Y-73700849D01*
X25352737Y-73645562D01*
X25139059Y-73589346D01*
X25081695Y-73517452D01*
X25091857Y-73493558D01*
X25176920Y-73380503D01*
X25356124Y-73158512D01*
X25617273Y-72841907D01*
X25948165Y-72445010D01*
X26336601Y-71982143D01*
X26770383Y-71467628D01*
X27237311Y-70915786D01*
X27725184Y-70340938D01*
X28221805Y-69757406D01*
X28714974Y-69179513D01*
X29192490Y-68621579D01*
X29642155Y-68097926D01*
X30051770Y-67622876D01*
X30409134Y-67210750D01*
X30702049Y-66875870D01*
X30918316Y-66632558D01*
X31045734Y-66495135D01*
X31075169Y-66469382D01*
X31118017Y-66549242D01*
X31212539Y-66772976D01*
X31352844Y-67125211D01*
X31533038Y-67590572D01*
X31747234Y-68153685D01*
X31989540Y-68799176D01*
X32254064Y-69511671D01*
X32534916Y-70275797D01*
X32561186Y-70347656D01*
X33973408Y-74212212D01*
X34960736Y-74386305D01*
X35138559Y-74173664D01*
X35654070Y-73558205D01*
X36211745Y-72893248D01*
X36802160Y-72189987D01*
X37415892Y-71459618D01*
X38043518Y-70713339D01*
X38675613Y-69962344D01*
X39302755Y-69217829D01*
X39915520Y-68490992D01*
X40504484Y-67793028D01*
X41060223Y-67135132D01*
X41573314Y-66528502D01*
X42034335Y-65984334D01*
X42433860Y-65513822D01*
X42762466Y-65128163D01*
X43010731Y-64838555D01*
X43169231Y-64656192D01*
X43228541Y-64592271D01*
X43228624Y-64592270D01*
X43261649Y-64670448D01*
X43347445Y-64894048D01*
X43480984Y-65249325D01*
X43657242Y-65722537D01*
X43871193Y-66299940D01*
X44117813Y-66967791D01*
X44392076Y-67712344D01*
X44688956Y-68519858D01*
X45003429Y-69376588D01*
X45330469Y-70268792D01*
X45665050Y-71182725D01*
X46002149Y-72104643D01*
X46336738Y-73020803D01*
X46663794Y-73917462D01*
X46978290Y-74780876D01*
X47275201Y-75597301D01*
X47549503Y-76352994D01*
X47796169Y-77034211D01*
X48010175Y-77627209D01*
X48186496Y-78118243D01*
X48320104Y-78493571D01*
X48405978Y-78739450D01*
X48439089Y-78842133D01*
X48439151Y-78842473D01*
X49419556Y-79015345D01*
X49045434Y-77996632D01*
X51608077Y-78448495D01*
X49670649Y-80772030D01*
X53205721Y-81395358D01*
X56740793Y-82018688D01*
X56386350Y-81045247D01*
X55403321Y-80871912D01*
X55321284Y-80871582D01*
X55095295Y-80844374D01*
X54748005Y-80793718D01*
X54302063Y-80723042D01*
X53780117Y-80635773D01*
X53351743Y-80561379D01*
X52788265Y-80460150D01*
X52284977Y-80366145D01*
X51864339Y-80283854D01*
X51548815Y-80217766D01*
X51360865Y-80172374D01*
X51317137Y-80154597D01*
X51371571Y-80078270D01*
X51517150Y-79894879D01*
X51735462Y-79626472D01*
X52008094Y-79295103D01*
X52316632Y-78922820D01*
X52642665Y-78531675D01*
X52967779Y-78143717D01*
X53273561Y-77780997D01*
X53541597Y-77465565D01*
X53753476Y-77219472D01*
X53890784Y-77064769D01*
X53932049Y-77023108D01*
X53989333Y-77071104D01*
X54082441Y-77233570D01*
X54191729Y-77464987D01*
X54297550Y-77719834D01*
X54380257Y-77952594D01*
X54420202Y-78117746D01*
X54420013Y-78153673D01*
X54363849Y-78236640D01*
X54218525Y-78421701D01*
X54005258Y-78682530D01*
X53745270Y-78992807D01*
X53710254Y-79034098D01*
X53011773Y-79856637D01*
X55213243Y-80292431D01*
X55312661Y-80557336D01*
X55378192Y-80751751D01*
X55403689Y-80867872D01*
X55403321Y-80871912D01*
X56386350Y-81045247D01*
X56172117Y-80456877D01*
X59170013Y-80985487D01*
X59858121Y-81108316D01*
X60490083Y-81224004D01*
X61047341Y-81328936D01*
X61511337Y-81419490D01*
X61863515Y-81492048D01*
X62085319Y-81542990D01*
X62158354Y-81568289D01*
X62103026Y-81654430D01*
X61964839Y-81834356D01*
X61770902Y-82073083D01*
X61718789Y-82135578D01*
X61288780Y-82648675D01*
X81037159Y-86130847D01*
X80863340Y-85666551D01*
X80771114Y-85411411D01*
X80710755Y-85227402D01*
X80696223Y-85164233D01*
X80778123Y-85170119D01*
X81009013Y-85202921D01*
X81371197Y-85259724D01*
X81474742Y-85276676D01*
X77528843Y-84580908D01*
X77488702Y-84580170D01*
X77302659Y-84553655D01*
X76977677Y-84502510D01*
X76520719Y-84427889D01*
X75938748Y-84330941D01*
X75238726Y-84212817D01*
X74427617Y-84074667D01*
X73512385Y-83917642D01*
X72499990Y-83742892D01*
X71397400Y-83551567D01*
X71332137Y-83540214D01*
X70163660Y-83336237D01*
X69043603Y-83139397D01*
X67983073Y-82951717D01*
X66993182Y-82775225D01*
X66085040Y-82611944D01*
X65269756Y-82463901D01*
X64558441Y-82333118D01*
X63962204Y-82221622D01*
X63492155Y-82131438D01*
X63159405Y-82064591D01*
X62975062Y-82023105D01*
X62940094Y-82010577D01*
X63005256Y-81902804D01*
X63080991Y-81820986D01*
X63130671Y-81789349D01*
X63211864Y-81771102D01*
X63342095Y-81768298D01*
X63538885Y-81782987D01*
X63819756Y-81817219D01*
X64202230Y-81873047D01*
X64703829Y-81952521D01*
X65342074Y-82057691D01*
X65896395Y-82150534D01*
X68582794Y-82602228D01*
X68221492Y-81614313D01*
X67227829Y-81439104D01*
X67202024Y-81455280D01*
X67108353Y-81456817D01*
X66937492Y-81442231D01*
X66680114Y-81410034D01*
X66326894Y-81358744D01*
X65868506Y-81286875D01*
X65295626Y-81192942D01*
X64598926Y-81075460D01*
X63769082Y-80932944D01*
X62796769Y-80763908D01*
X61672659Y-80566868D01*
X60939156Y-80437707D01*
X59721932Y-80222558D01*
X58662365Y-80034065D01*
X57751182Y-79870431D01*
X56979111Y-79729864D01*
X56336885Y-79610568D01*
X55815229Y-79510751D01*
X55404873Y-79428618D01*
X55096548Y-79362376D01*
X54880980Y-79310227D01*
X54748900Y-79270381D01*
X54691036Y-79241043D01*
X54687924Y-79227980D01*
X54769954Y-79120048D01*
X54948276Y-78899463D01*
X55212537Y-78578457D01*
X55552383Y-78169262D01*
X55957463Y-77684110D01*
X56417423Y-77135232D01*
X56850341Y-76620029D01*
X55822517Y-76438796D01*
X55781325Y-76536263D01*
X55661391Y-76705549D01*
X55497443Y-76906483D01*
X55324216Y-77098890D01*
X55176436Y-77242599D01*
X55088835Y-77297435D01*
X55082346Y-77294960D01*
X55034138Y-77200745D01*
X54943494Y-76980951D01*
X54824020Y-76669790D01*
X54707490Y-76352159D01*
X54573211Y-75981021D01*
X54456607Y-75662784D01*
X54371520Y-75434987D01*
X54334563Y-75341058D01*
X54262332Y-75358108D01*
X54091446Y-75510577D01*
X53823160Y-75797166D01*
X53458729Y-76216576D01*
X53253813Y-76460143D01*
X52223775Y-77694460D01*
X50472831Y-77385467D01*
X48721886Y-77076474D01*
X48186700Y-75597337D01*
X47651513Y-74118199D01*
X50184200Y-71095007D01*
X50698487Y-70482301D01*
X51179514Y-69911500D01*
X51616419Y-69395328D01*
X51998342Y-68946510D01*
X52314421Y-68577773D01*
X52553796Y-68301840D01*
X52705605Y-68131435D01*
X52758641Y-68078811D01*
X52792341Y-68156412D01*
X52877168Y-68375258D01*
X53006545Y-68717397D01*
X53173891Y-69164876D01*
X53372630Y-69699742D01*
X53596179Y-70304046D01*
X53837960Y-70959833D01*
X54091394Y-71649151D01*
X54349902Y-72354051D01*
X54606904Y-73056577D01*
X54855821Y-73738779D01*
X55090073Y-74382704D01*
X55303082Y-74970401D01*
X55488267Y-75483917D01*
X55639050Y-75905300D01*
X55748851Y-76216598D01*
X55811092Y-76399860D01*
X55822517Y-76438796D01*
X56850341Y-76620029D01*
X56921910Y-76534858D01*
X57460572Y-75895221D01*
X58023056Y-75228552D01*
X58599008Y-74547083D01*
X59178076Y-73863045D01*
X59749906Y-73188669D01*
X60304147Y-72536188D01*
X60830444Y-71917833D01*
X61318444Y-71345833D01*
X61757797Y-70832423D01*
X62138147Y-70389833D01*
X62449143Y-70030294D01*
X62680430Y-69766038D01*
X62821658Y-69609297D01*
X62862963Y-69569559D01*
X62898828Y-69649484D01*
X62987016Y-69873466D01*
X63121982Y-70226429D01*
X63298181Y-70693290D01*
X63510066Y-71258973D01*
X63752093Y-71908394D01*
X64018716Y-72626478D01*
X64304389Y-73398143D01*
X64603570Y-74208310D01*
X64910710Y-75041898D01*
X65220265Y-75883830D01*
X65526690Y-76719024D01*
X65824440Y-77532402D01*
X66107969Y-78308884D01*
X66371731Y-79033390D01*
X66610182Y-79690841D01*
X66817775Y-80266157D01*
X66988968Y-80744259D01*
X67118212Y-81110067D01*
X67199964Y-81348500D01*
X67227829Y-81439104D01*
X68221492Y-81614313D01*
X67658531Y-80075004D01*
X67434194Y-79453326D01*
X67232981Y-78879708D01*
X67061457Y-78374153D01*
X66926185Y-77956660D01*
X66833732Y-77647231D01*
X66790660Y-77465871D01*
X66790031Y-77428653D01*
X66858283Y-77333023D01*
X67023140Y-77124349D01*
X67273510Y-76815790D01*
X67598305Y-76420505D01*
X67986436Y-75951653D01*
X68426814Y-75422390D01*
X68908349Y-74845876D01*
X69419951Y-74235268D01*
X69950533Y-73603726D01*
X70489003Y-72964408D01*
X71024273Y-72330471D01*
X71545254Y-71715075D01*
X72040857Y-71131377D01*
X72499991Y-70592536D01*
X72911567Y-70111711D01*
X73264497Y-69702059D01*
X73547692Y-69376739D01*
X73750060Y-69148909D01*
X73860514Y-69031728D01*
X73877640Y-69018652D01*
X73916589Y-69100203D01*
X74008068Y-69328150D01*
X74147264Y-69689563D01*
X74329361Y-70171511D01*
X74549542Y-70761062D01*
X74802993Y-71445286D01*
X75084898Y-72211254D01*
X75390441Y-73046032D01*
X75714808Y-73936690D01*
X75927978Y-74524329D01*
X77913638Y-80006400D01*
X76232348Y-82002442D01*
X74551057Y-83998486D01*
X77143565Y-84500446D01*
X77416117Y-84554716D01*
X77528843Y-84580908D01*
X81474742Y-85276676D01*
X81846978Y-85337617D01*
X82418662Y-85433689D01*
X83068552Y-85545025D01*
X83778954Y-85668714D01*
X84034346Y-85713631D01*
X87365763Y-86301050D01*
X87081425Y-85520145D01*
X87011322Y-85327610D01*
X86028292Y-85154276D01*
X85945752Y-85148965D01*
X85711065Y-85116292D01*
X85338781Y-85058669D01*
X84843448Y-84978510D01*
X84239616Y-84878231D01*
X83541831Y-84760247D01*
X82764643Y-84626970D01*
X81922601Y-84480814D01*
X81093143Y-84335290D01*
X80063477Y-84152409D01*
X79136169Y-83985024D01*
X78320023Y-83834833D01*
X77623844Y-83703532D01*
X77056434Y-83592819D01*
X76626600Y-83504387D01*
X76343144Y-83439935D01*
X76214872Y-83401157D01*
X76208204Y-83394071D01*
X76276009Y-83305372D01*
X76439960Y-83103931D01*
X76688349Y-82803592D01*
X77009464Y-82418208D01*
X77391600Y-81961623D01*
X77823046Y-81447689D01*
X78292095Y-80890252D01*
X78787037Y-80303161D01*
X79296163Y-79700265D01*
X79807766Y-79095412D01*
X80310135Y-78502449D01*
X80791563Y-77935227D01*
X81240342Y-77407591D01*
X81644761Y-76933393D01*
X81993113Y-76526479D01*
X82273688Y-76200697D01*
X82474778Y-75969898D01*
X82584675Y-75847927D01*
X82601823Y-75832086D01*
X82644098Y-75910250D01*
X82732561Y-76121571D01*
X82856809Y-76439608D01*
X83006445Y-76837918D01*
X83125580Y-77163755D01*
X83604294Y-78487480D01*
X81537331Y-80945918D01*
X79470369Y-83404355D01*
X82653761Y-83988159D01*
X85837152Y-84571963D01*
X85937101Y-84838284D01*
X86002859Y-85033202D01*
X86028666Y-85149938D01*
X86028292Y-85154276D01*
X87011322Y-85327610D01*
X86797088Y-84739239D01*
X87713409Y-84900812D01*
X88112537Y-84973165D01*
X88369685Y-85027553D01*
X88510025Y-85073092D01*
X88558731Y-85118897D01*
X88540976Y-85174085D01*
X88525599Y-85194923D01*
X88428347Y-85314407D01*
X88251213Y-85528301D01*
X88023366Y-85801470D01*
X87871808Y-85982356D01*
X87322145Y-86637250D01*
X99754700Y-88829444D01*
X99531057Y-89090916D01*
X99307415Y-89352386D01*
X112798479Y-91731224D01*
X112544056Y-91020074D01*
X112441000Y-90732016D01*
X111468662Y-90560566D01*
X111385154Y-90566167D01*
X111155328Y-90543818D01*
X110799367Y-90496413D01*
X110337452Y-90426849D01*
X109789767Y-90338024D01*
X109176493Y-90232833D01*
X109138508Y-90226145D01*
X106821426Y-89817582D01*
X106645909Y-89335276D01*
X106571680Y-89131027D01*
X106545784Y-89059703D01*
X105549733Y-88884072D01*
X105523617Y-88897686D01*
X105431487Y-88897612D01*
X105265171Y-88882514D01*
X105016495Y-88851059D01*
X104677287Y-88801910D01*
X104239375Y-88733734D01*
X103694586Y-88645194D01*
X103034747Y-88534957D01*
X102251684Y-88401686D01*
X101337227Y-88244047D01*
X100283201Y-88060705D01*
X99081434Y-87850324D01*
X97723754Y-87611570D01*
X97267689Y-87531190D01*
X96106403Y-87326003D01*
X94993499Y-87128542D01*
X93940151Y-86940835D01*
X92957532Y-86764912D01*
X92056820Y-86602800D01*
X91249189Y-86456528D01*
X90545813Y-86328123D01*
X89957870Y-86219616D01*
X89496533Y-86133032D01*
X89172978Y-86070401D01*
X88998379Y-86033752D01*
X88969763Y-86025100D01*
X89022758Y-85941752D01*
X89152005Y-85769842D01*
X89279596Y-85608783D01*
X89582085Y-85234113D01*
X93518182Y-85904758D01*
X97454278Y-86575403D01*
X97105839Y-85617744D01*
X96108052Y-85441808D01*
X96028479Y-85441324D01*
X95789599Y-85411710D01*
X95398697Y-85354173D01*
X94863060Y-85269920D01*
X94189973Y-85160159D01*
X93386723Y-85026097D01*
X92460597Y-84868944D01*
X91418879Y-84689904D01*
X90268856Y-84490187D01*
X89017814Y-84270999D01*
X88604122Y-84198141D01*
X87307521Y-83968642D01*
X86114820Y-83755765D01*
X85032831Y-83560786D01*
X84068364Y-83384977D01*
X83228232Y-83229612D01*
X82519244Y-83095966D01*
X81948212Y-82985312D01*
X81521947Y-82898923D01*
X81247260Y-82838075D01*
X81130960Y-82804038D01*
X81127464Y-82799810D01*
X81192135Y-82716402D01*
X81355506Y-82516327D01*
X81608155Y-82210782D01*
X81940658Y-81810962D01*
X82343593Y-81328062D01*
X82807534Y-80773280D01*
X83323058Y-80157809D01*
X83880743Y-79492846D01*
X84471166Y-78789587D01*
X85084900Y-78059228D01*
X85712526Y-77312964D01*
X86344618Y-76561991D01*
X86971752Y-75817504D01*
X87584505Y-75090701D01*
X88173455Y-74392775D01*
X88729178Y-73734923D01*
X89242248Y-73128341D01*
X89703246Y-72584225D01*
X90102745Y-72113769D01*
X90431322Y-71728171D01*
X90679554Y-71438625D01*
X90838018Y-71256328D01*
X90897291Y-71192475D01*
X90897372Y-71192475D01*
X90930426Y-71270698D01*
X91016252Y-71494342D01*
X91149825Y-71849660D01*
X91326119Y-72322908D01*
X91540106Y-72900343D01*
X91786763Y-73568220D01*
X92061062Y-74312796D01*
X92357977Y-75120323D01*
X92672482Y-75977060D01*
X92999553Y-76869260D01*
X93334162Y-77783182D01*
X93671283Y-78705079D01*
X94005890Y-79621207D01*
X94332958Y-80517824D01*
X94647460Y-81381182D01*
X94944371Y-82197538D01*
X95218663Y-82953149D01*
X95465312Y-83634269D01*
X95679292Y-84227154D01*
X95855575Y-84718061D01*
X95989136Y-85093244D01*
X96074950Y-85338959D01*
X96107990Y-85441462D01*
X96108052Y-85441808D01*
X97105839Y-85617744D01*
X94735527Y-79103116D01*
X97219998Y-76137450D01*
X97730428Y-75530304D01*
X98208986Y-74965203D01*
X98644512Y-74455030D01*
X99025841Y-74012666D01*
X99341813Y-73650997D01*
X99581268Y-73382903D01*
X99733043Y-73221268D01*
X99784670Y-73177196D01*
X99820805Y-73255146D01*
X99909908Y-73479184D01*
X100047175Y-73836225D01*
X100227801Y-74313184D01*
X100446985Y-74896975D01*
X100699925Y-75574512D01*
X100981817Y-76332709D01*
X101287857Y-77158483D01*
X101613244Y-78038745D01*
X101953172Y-78960411D01*
X102302843Y-79910395D01*
X102657449Y-80875613D01*
X103012189Y-81842976D01*
X103362262Y-82799402D01*
X103702861Y-83731804D01*
X104029187Y-84627095D01*
X104336435Y-85472192D01*
X104619803Y-86254007D01*
X104874486Y-86959457D01*
X105095684Y-87575453D01*
X105278592Y-88088912D01*
X105418407Y-88486747D01*
X105510327Y-88755874D01*
X105549549Y-88883206D01*
X105549733Y-88884072D01*
X106545784Y-89059703D01*
X106448911Y-88792897D01*
X106286784Y-88346188D01*
X106094484Y-87816211D01*
X105881193Y-87228272D01*
X105656095Y-86607677D01*
X105616121Y-86497454D01*
X104761850Y-84141939D01*
X106269772Y-82336979D01*
X106663531Y-81867613D01*
X107021916Y-81444161D01*
X107330715Y-81083115D01*
X107575710Y-80800970D01*
X107742689Y-80614220D01*
X107817437Y-80539360D01*
X107819507Y-80538675D01*
X107856572Y-80617041D01*
X107944114Y-80837456D01*
X108075637Y-81182511D01*
X108244641Y-81634795D01*
X108444628Y-82176897D01*
X108669099Y-82791409D01*
X108911555Y-83460920D01*
X108947291Y-83560067D01*
X110033263Y-86574801D01*
X108837994Y-87989188D01*
X107642724Y-89403575D01*
X109447345Y-89743287D01*
X110041071Y-89855820D01*
X110490233Y-89944048D01*
X110816829Y-90014178D01*
X111042855Y-90072412D01*
X111190312Y-90124956D01*
X111281196Y-90178016D01*
X111337505Y-90237795D01*
X111366851Y-90284711D01*
X111447843Y-90459174D01*
X111468662Y-90560566D01*
X112441000Y-90732016D01*
X112289634Y-90308923D01*
X114138855Y-90611819D01*
X114676644Y-90701351D01*
X115155298Y-90783797D01*
X115550562Y-90854753D01*
X115838178Y-90909811D01*
X115993893Y-90944568D01*
X116014517Y-90952476D01*
X115974912Y-91028819D01*
X115846984Y-91204340D01*
X115652786Y-91449803D01*
X115498227Y-91636874D01*
X114955495Y-92283511D01*
X124361438Y-93942032D01*
X124132850Y-93312806D01*
X124026493Y-93010524D01*
X123993853Y-92910023D01*
X123010277Y-92736592D01*
X122984234Y-92760271D01*
X122883982Y-92765767D01*
X122696757Y-92751258D01*
X122409795Y-92714922D01*
X122010330Y-92654936D01*
X121485601Y-92569477D01*
X120822841Y-92456723D01*
X120009287Y-92314852D01*
X119805914Y-92279042D01*
X118957343Y-92128342D01*
X118263245Y-92002447D01*
X117711005Y-91898704D01*
X117288003Y-91814459D01*
X116981622Y-91747060D01*
X116779244Y-91693854D01*
X116668251Y-91652188D01*
X116636025Y-91619410D01*
X116638306Y-91613042D01*
X116727424Y-91492893D01*
X116906923Y-91269093D01*
X117162099Y-90958887D01*
X117478241Y-90579516D01*
X117840644Y-90148225D01*
X118234600Y-89682254D01*
X118645403Y-89198849D01*
X119058343Y-88715250D01*
X119089451Y-88679001D01*
X118088281Y-88502468D01*
X118064537Y-88557632D01*
X118055167Y-88569320D01*
X117946470Y-88694841D01*
X117757361Y-88916354D01*
X117516438Y-89200272D01*
X117303654Y-89452082D01*
X116688193Y-90181794D01*
X112973545Y-89526801D01*
X112158618Y-89381445D01*
X111417706Y-89246013D01*
X110764992Y-89123299D01*
X110214658Y-89016100D01*
X109780888Y-88927212D01*
X109477865Y-88859431D01*
X109319770Y-88815552D01*
X109299763Y-88802568D01*
X109368224Y-88713725D01*
X109532718Y-88512421D01*
X109781414Y-88212625D01*
X110102482Y-87828305D01*
X110484089Y-87373432D01*
X110914407Y-86861973D01*
X111381602Y-86307897D01*
X111873843Y-85725173D01*
X112379301Y-85127771D01*
X112886142Y-84529657D01*
X113382538Y-83944804D01*
X113856656Y-83387178D01*
X114296665Y-82870748D01*
X114690734Y-82409485D01*
X115027032Y-82017355D01*
X115293727Y-81708329D01*
X115478990Y-81496376D01*
X115570988Y-81395463D01*
X115578856Y-81388909D01*
X115615931Y-81467416D01*
X115704784Y-81688982D01*
X115839343Y-82037521D01*
X116013537Y-82496944D01*
X116221295Y-83051168D01*
X116456543Y-83684104D01*
X116713211Y-84379666D01*
X116906458Y-84906368D01*
X117215164Y-85751565D01*
X117469149Y-86452279D01*
X117672858Y-87022683D01*
X117830738Y-87476955D01*
X117947233Y-87829269D01*
X118026789Y-88093801D01*
X118073852Y-88284728D01*
X118092868Y-88416225D01*
X118088281Y-88502468D01*
X119089451Y-88679001D01*
X119458714Y-88248702D01*
X119831810Y-87816446D01*
X120162921Y-87435727D01*
X120437342Y-87123788D01*
X120640365Y-86897869D01*
X120757281Y-86775216D01*
X120779424Y-86757988D01*
X120819473Y-86836233D01*
X120909387Y-87052412D01*
X121041244Y-87385291D01*
X121207120Y-87813639D01*
X121399093Y-88316220D01*
X121609239Y-88871803D01*
X121829637Y-89459154D01*
X122052362Y-90057039D01*
X122269492Y-90644226D01*
X122473104Y-91199481D01*
X122655275Y-91701570D01*
X122808081Y-92129263D01*
X122923602Y-92461322D01*
X122993912Y-92676518D01*
X123010277Y-92736592D01*
X123993853Y-92910023D01*
X123949154Y-92772395D01*
X123914339Y-92640565D01*
X123913819Y-92629389D01*
X123996610Y-92635339D01*
X124233684Y-92668901D01*
X124612616Y-92727990D01*
X125120980Y-92810516D01*
X125746351Y-92914391D01*
X126476303Y-93037526D01*
X127298413Y-93177836D01*
X128200253Y-93333229D01*
X129169399Y-93501619D01*
X130193425Y-93680917D01*
X130672448Y-93765242D01*
X137421522Y-94955286D01*
X137058445Y-93949352D01*
X136077330Y-93776355D01*
X135997818Y-93778501D01*
X135757166Y-93750570D01*
X135360713Y-93693435D01*
X134813802Y-93607967D01*
X134121771Y-93495044D01*
X133289963Y-93355535D01*
X132323715Y-93190318D01*
X131228370Y-93000263D01*
X130009266Y-92786246D01*
X129810154Y-92751088D01*
X123529237Y-91641212D01*
X123140368Y-90555461D01*
X122998884Y-90153244D01*
X122882255Y-89807922D01*
X122800692Y-89550796D01*
X122764407Y-89413163D01*
X122763662Y-89400730D01*
X122818584Y-89325155D01*
X122971872Y-89132907D01*
X123213272Y-88836255D01*
X123532525Y-88447467D01*
X123919376Y-87978809D01*
X124363569Y-87442551D01*
X124854845Y-86850957D01*
X125382951Y-86216297D01*
X125937628Y-85550838D01*
X126508619Y-84866846D01*
X127085671Y-84176590D01*
X127658523Y-83492337D01*
X128216922Y-82826355D01*
X128750608Y-82190910D01*
X129249329Y-81598271D01*
X129702825Y-81060705D01*
X130100840Y-80590479D01*
X130433120Y-80199860D01*
X130689405Y-79901117D01*
X130859441Y-79706517D01*
X130932970Y-79628328D01*
X130934931Y-79627356D01*
X130967954Y-79705629D01*
X131053432Y-79929374D01*
X131186345Y-80284785D01*
X131361676Y-80758051D01*
X131574405Y-81335366D01*
X131819514Y-82002921D01*
X132091984Y-82746906D01*
X132386797Y-83553514D01*
X132698934Y-84408938D01*
X133023375Y-85299367D01*
X133355105Y-86210994D01*
X133689103Y-87130010D01*
X134020350Y-88042607D01*
X134343828Y-88934978D01*
X134654519Y-89793312D01*
X134947402Y-90603801D01*
X135217462Y-91352638D01*
X135459678Y-92026014D01*
X135669033Y-92610121D01*
X135840507Y-93091150D01*
X135969081Y-93455293D01*
X136049738Y-93688741D01*
X136077330Y-93776355D01*
X137058445Y-93949352D01*
X136965851Y-93692812D01*
X136510180Y-92430339D01*
X137302023Y-92545357D01*
X137780430Y-92620931D01*
X138319040Y-92715248D01*
X138812874Y-92809796D01*
X138881191Y-92823806D01*
X139668516Y-92987239D01*
X138749248Y-94093247D01*
X137829981Y-95199253D01*
X143494104Y-96197991D01*
X144449072Y-96367301D01*
X145353130Y-96529378D01*
X146192765Y-96681686D01*
X146954458Y-96821686D01*
X147624694Y-96946842D01*
X148189955Y-97054616D01*
X148636726Y-97142470D01*
X148951489Y-97207865D01*
X149120729Y-97248267D01*
X149146889Y-97259209D01*
X149088179Y-97358084D01*
X148957408Y-97523295D01*
X148922545Y-97563543D01*
X148709540Y-97805395D01*
X164628164Y-100612278D01*
X164264145Y-99623500D01*
X163276496Y-99449351D01*
X163200669Y-99451447D01*
X162977780Y-99425002D01*
X162627122Y-99373102D01*
X162167984Y-99298830D01*
X161619662Y-99205271D01*
X161001448Y-99095510D01*
X160566797Y-99016113D01*
X157840420Y-98512701D01*
X157546948Y-97708693D01*
X156553935Y-97533598D01*
X156527814Y-97546948D01*
X156435869Y-97546704D01*
X156270048Y-97531547D01*
X156022298Y-97500160D01*
X155684569Y-97451222D01*
X155248806Y-97383417D01*
X154706960Y-97295424D01*
X154050977Y-97185927D01*
X153272804Y-97053605D01*
X152364391Y-96897142D01*
X151317685Y-96715217D01*
X150124632Y-96506514D01*
X148777184Y-96269713D01*
X148012853Y-96135040D01*
X146582067Y-95882377D01*
X145310144Y-95656906D01*
X144189070Y-95457112D01*
X143210824Y-95281478D01*
X142367392Y-95128491D01*
X141650755Y-94996636D01*
X141052894Y-94884398D01*
X140565794Y-94790261D01*
X140181437Y-94712711D01*
X139891805Y-94650231D01*
X139688880Y-94601309D01*
X139564646Y-94564428D01*
X139511085Y-94538073D01*
X139508500Y-94528028D01*
X139581463Y-94432942D01*
X139753218Y-94221295D01*
X140014910Y-93903602D01*
X140357680Y-93490378D01*
X140772672Y-92992136D01*
X141251031Y-92419392D01*
X141783897Y-91782660D01*
X142362414Y-91092455D01*
X142977727Y-90359291D01*
X143620977Y-89593683D01*
X144283307Y-88806146D01*
X144542085Y-88498734D01*
X143565829Y-88326594D01*
X142366859Y-89757433D01*
X141985226Y-90212755D01*
X141611690Y-90658211D01*
X141270004Y-91065490D01*
X140983917Y-91406282D01*
X140777184Y-91652278D01*
X140742433Y-91693569D01*
X140316976Y-92198866D01*
X136174138Y-91468372D01*
X135445333Y-89451894D01*
X135247162Y-88898452D01*
X135070746Y-88395879D01*
X134923666Y-87966590D01*
X134813503Y-87633001D01*
X134747841Y-87417526D01*
X134732535Y-87344623D01*
X134787981Y-87264890D01*
X134939914Y-87071277D01*
X135176231Y-86778269D01*
X135484829Y-86400347D01*
X135853605Y-85951996D01*
X136270457Y-85447699D01*
X136723282Y-84901940D01*
X137199977Y-84329202D01*
X137688438Y-83743967D01*
X138176563Y-83160721D01*
X138652249Y-82593946D01*
X139103393Y-82058126D01*
X139517893Y-81567743D01*
X139883645Y-81137282D01*
X140188545Y-80781226D01*
X140420494Y-80514058D01*
X140567386Y-80350262D01*
X140616671Y-80303130D01*
X140652787Y-80381830D01*
X140740729Y-80604753D01*
X140874885Y-80956827D01*
X141049643Y-81422981D01*
X141259390Y-81988145D01*
X141498513Y-82637247D01*
X141761402Y-83355217D01*
X142042443Y-84126982D01*
X142112054Y-84318768D01*
X143565829Y-88326594D01*
X144542085Y-88498734D01*
X144955862Y-88007194D01*
X145629784Y-87207342D01*
X146296216Y-86417104D01*
X146946301Y-85646995D01*
X147571182Y-84907530D01*
X148162004Y-84209223D01*
X148709908Y-83562589D01*
X149206037Y-82978142D01*
X149641535Y-82466397D01*
X150007544Y-82037869D01*
X150295209Y-81703073D01*
X150495673Y-81472522D01*
X150600078Y-81356731D01*
X150613242Y-81344844D01*
X150648437Y-81422365D01*
X150736733Y-81646156D01*
X150873401Y-82003335D01*
X151053713Y-82481018D01*
X151272942Y-83066322D01*
X151526360Y-83746364D01*
X151809241Y-84508262D01*
X152116856Y-85339133D01*
X152444478Y-86226091D01*
X152787378Y-87156257D01*
X153140829Y-88116746D01*
X153500105Y-89094674D01*
X153860477Y-90077160D01*
X154217217Y-91051321D01*
X154565599Y-92004273D01*
X154900894Y-92923132D01*
X155218374Y-93795018D01*
X155513314Y-94607044D01*
X155780983Y-95346330D01*
X156016656Y-95999993D01*
X156215604Y-96555148D01*
X156373099Y-96998914D01*
X156484416Y-97318408D01*
X156544824Y-97500744D01*
X156553935Y-97533598D01*
X157546948Y-97708693D01*
X156599452Y-95112893D01*
X156334650Y-94386567D01*
X156086705Y-93704818D01*
X155861926Y-93085114D01*
X155666618Y-92544919D01*
X155507092Y-92101703D01*
X155389657Y-91772930D01*
X155320619Y-91576067D01*
X155305539Y-91530262D01*
X155305841Y-91459907D01*
X155346949Y-91355319D01*
X155439002Y-91202972D01*
X155592135Y-90989346D01*
X155816485Y-90700917D01*
X156122189Y-90324163D01*
X156519382Y-89845563D01*
X156976973Y-89300523D01*
X157401054Y-88799611D01*
X157791578Y-88343108D01*
X158134964Y-87946511D01*
X158417634Y-87625323D01*
X158626007Y-87395043D01*
X158746502Y-87271173D01*
X158769936Y-87253958D01*
X158803892Y-87304654D01*
X158874141Y-87460240D01*
X158982747Y-87726220D01*
X159131771Y-88108101D01*
X159323278Y-88611386D01*
X159559330Y-89241578D01*
X159841989Y-90004183D01*
X160173318Y-90904706D01*
X160555381Y-91948650D01*
X160990239Y-93141522D01*
X161442278Y-94385051D01*
X161962634Y-95818116D01*
X160333503Y-97748680D01*
X162864107Y-98242057D01*
X163061962Y-98810617D01*
X163162186Y-99101563D01*
X163238754Y-99329322D01*
X163275894Y-99446939D01*
X163276496Y-99449351D01*
X164264145Y-99623500D01*
X163832733Y-98451662D01*
X165463831Y-98715916D01*
X165967661Y-98799164D01*
X166410983Y-98875508D01*
X166767897Y-98940232D01*
X167012501Y-98988622D01*
X167118890Y-99015961D01*
X167121157Y-99017626D01*
X167079439Y-99092335D01*
X166946900Y-99271806D01*
X166742353Y-99531752D01*
X166484613Y-99847887D01*
X166387443Y-99964772D01*
X165627501Y-100874461D01*
X172641738Y-102111260D01*
X172468399Y-102295627D01*
X172295062Y-102479996D01*
X179473463Y-103745741D01*
X179286947Y-103311273D01*
X185439548Y-104339014D01*
X186547552Y-104524547D01*
X187689031Y-104716517D01*
X188840032Y-104910849D01*
X189976602Y-105103463D01*
X191074784Y-105290282D01*
X192110625Y-105467228D01*
X193060172Y-105630222D01*
X193899470Y-105775188D01*
X194604565Y-105898046D01*
X194827402Y-105937218D01*
X198062655Y-106507681D01*
X197892130Y-106052587D01*
X178115773Y-102565482D01*
X178039590Y-102577403D01*
X177810497Y-102558249D01*
X177441687Y-102509830D01*
X176946359Y-102433962D01*
X176337707Y-102332459D01*
X176031285Y-102279065D01*
X175377142Y-102160608D01*
X174832412Y-102055559D01*
X174410118Y-101966726D01*
X174123279Y-101896922D01*
X173984918Y-101848953D01*
X173974547Y-101835272D01*
X174047465Y-101736044D01*
X174207887Y-101534734D01*
X174437874Y-101252735D01*
X174719488Y-100911434D01*
X175034791Y-100532222D01*
X175365843Y-100136489D01*
X175694705Y-99745624D01*
X176003438Y-99381017D01*
X176274105Y-99064058D01*
X176488766Y-98816136D01*
X176629482Y-98658643D01*
X176677916Y-98611837D01*
X176714380Y-98689006D01*
X176797810Y-98899565D01*
X176918668Y-99217280D01*
X177067411Y-99615915D01*
X177234498Y-100069237D01*
X177410388Y-100551008D01*
X177585541Y-101034995D01*
X177750413Y-101494960D01*
X177895467Y-101904671D01*
X178011157Y-102237891D01*
X178087945Y-102468386D01*
X178115773Y-102565482D01*
X197892130Y-106052587D01*
X197821201Y-105863297D01*
X201744812Y-106555136D01*
X201609237Y-106165845D01*
X196709274Y-105301849D01*
X196683133Y-105315897D01*
X196590656Y-105316098D01*
X196423472Y-105301089D01*
X196173202Y-105269507D01*
X195831476Y-105219992D01*
X195389917Y-105151178D01*
X194840152Y-105061706D01*
X194173806Y-104950214D01*
X193382507Y-104815337D01*
X192457879Y-104655714D01*
X191391549Y-104469983D01*
X190175141Y-104256781D01*
X188835008Y-104020870D01*
X187464153Y-103778741D01*
X186251855Y-103563674D01*
X185189781Y-103374083D01*
X184269593Y-103208387D01*
X183482958Y-103065000D01*
X182821542Y-102942339D01*
X182277006Y-102838819D01*
X181841018Y-102752857D01*
X181505243Y-102682869D01*
X181261344Y-102627269D01*
X181100987Y-102584476D01*
X181015838Y-102552904D01*
X180997276Y-102531400D01*
X181069866Y-102436340D01*
X181240625Y-102225023D01*
X181500365Y-101908403D01*
X181839896Y-101497432D01*
X182250027Y-101003066D01*
X182721571Y-100436258D01*
X183245337Y-99807962D01*
X183812136Y-99129130D01*
X184412777Y-98410718D01*
X184944227Y-97775795D01*
X183966109Y-97603326D01*
X182118400Y-99820612D01*
X181671630Y-100356320D01*
X181251106Y-100859751D01*
X180871226Y-101313729D01*
X180546391Y-101701076D01*
X180290998Y-102004617D01*
X180119445Y-102207176D01*
X180057002Y-102279632D01*
X179914585Y-102420541D01*
X179775551Y-102478871D01*
X179574151Y-102471470D01*
X179411033Y-102445141D01*
X178978752Y-102368919D01*
X178005420Y-99661097D01*
X177773788Y-99021204D01*
X177558331Y-98434607D01*
X177366062Y-97919743D01*
X177203997Y-97495048D01*
X177079148Y-97178957D01*
X176998531Y-96989905D01*
X176971078Y-96942517D01*
X176904524Y-97002764D01*
X176743220Y-97178791D01*
X176500050Y-97455653D01*
X176187898Y-97818406D01*
X175819648Y-98252108D01*
X175408185Y-98741815D01*
X175073018Y-99144036D01*
X173235968Y-101356311D01*
X170251222Y-100830020D01*
X169564650Y-100707628D01*
X168934214Y-100592679D01*
X168378519Y-100488764D01*
X167916167Y-100399471D01*
X167565765Y-100328389D01*
X167345917Y-100279110D01*
X167274936Y-100255740D01*
X167329992Y-100173030D01*
X167468623Y-99996157D01*
X167663866Y-99759230D01*
X167721433Y-99690988D01*
X168159469Y-99174222D01*
X172901024Y-99964673D01*
X172540448Y-98976886D01*
X171547076Y-98801728D01*
X171521146Y-98820680D01*
X171425118Y-98823797D01*
X171248384Y-98809448D01*
X170980336Y-98775999D01*
X170610365Y-98721818D01*
X170127863Y-98645272D01*
X169522221Y-98544730D01*
X168782831Y-98418558D01*
X167899085Y-98265125D01*
X166860373Y-98082796D01*
X166758536Y-98064846D01*
X165705539Y-97878479D01*
X164808995Y-97718151D01*
X164058378Y-97581767D01*
X163443159Y-97467234D01*
X162952813Y-97372456D01*
X162576811Y-97295339D01*
X162304628Y-97233790D01*
X162125734Y-97185713D01*
X162029605Y-97149016D01*
X162005714Y-97121603D01*
X162006752Y-97119511D01*
X162085908Y-97014877D01*
X162259850Y-96799415D01*
X162516663Y-96487219D01*
X162844433Y-96092382D01*
X163231245Y-95628995D01*
X163665186Y-95111153D01*
X164134338Y-94552948D01*
X164626791Y-93968474D01*
X165130628Y-93371823D01*
X165633935Y-92777087D01*
X166124797Y-92198360D01*
X166591300Y-91649736D01*
X167021528Y-91145306D01*
X167403569Y-90699163D01*
X167725508Y-90325401D01*
X167975429Y-90038113D01*
X168141419Y-89851390D01*
X168211562Y-89779328D01*
X168212655Y-89778937D01*
X168249914Y-89855673D01*
X168338576Y-90074329D01*
X168472269Y-90417653D01*
X168644614Y-90868396D01*
X168849239Y-91409305D01*
X169079768Y-92023131D01*
X169329826Y-92692622D01*
X169593036Y-93400527D01*
X169863025Y-94129596D01*
X170133417Y-94862577D01*
X170397838Y-95582219D01*
X170649911Y-96271274D01*
X170883261Y-96912487D01*
X171091514Y-97488609D01*
X171268295Y-97982390D01*
X171407227Y-98376577D01*
X171501936Y-98653921D01*
X171546048Y-98797170D01*
X171547076Y-98801728D01*
X172540448Y-98976886D01*
X172146330Y-97897213D01*
X171939920Y-97329977D01*
X171750957Y-96807316D01*
X171587849Y-96352744D01*
X171458997Y-95989778D01*
X171372807Y-95741934D01*
X171339144Y-95638548D01*
X171341449Y-95587754D01*
X171374110Y-95507050D01*
X171443896Y-95387944D01*
X171557571Y-95221938D01*
X171721906Y-95000541D01*
X171943667Y-94715256D01*
X172229622Y-94357588D01*
X172586537Y-93919043D01*
X173021181Y-93391125D01*
X173540320Y-92765341D01*
X174150724Y-92033193D01*
X174859158Y-91186190D01*
X175407424Y-90531838D01*
X176067039Y-89745744D01*
X176695103Y-88998676D01*
X177283154Y-88300611D01*
X177822734Y-87661526D01*
X178305381Y-87091396D01*
X178722635Y-86600197D01*
X179066035Y-86197907D01*
X179327121Y-85894502D01*
X179497432Y-85699957D01*
X179568509Y-85624249D01*
X179569902Y-85623604D01*
X179604809Y-85702347D01*
X179692835Y-85927990D01*
X179829422Y-86288222D01*
X180010010Y-86770732D01*
X180230044Y-87363213D01*
X180484965Y-88053353D01*
X180770217Y-88828843D01*
X181081243Y-89677373D01*
X181413483Y-90586635D01*
X181762382Y-91544316D01*
X181788857Y-91617101D01*
X183966109Y-97603326D01*
X184944227Y-97775795D01*
X185038072Y-97663678D01*
X185678831Y-96898966D01*
X186325865Y-96127533D01*
X186969983Y-95360334D01*
X187601997Y-94608323D01*
X188212717Y-93882452D01*
X188792953Y-93193677D01*
X189333516Y-92552951D01*
X189825217Y-91971228D01*
X190258864Y-91459460D01*
X190625270Y-91028602D01*
X190915244Y-90689609D01*
X191119598Y-90453432D01*
X191229140Y-90331027D01*
X191245387Y-90315897D01*
X191280476Y-90393250D01*
X191368141Y-90616484D01*
X191503494Y-90972193D01*
X191681647Y-91446973D01*
X191897713Y-92027419D01*
X192146805Y-92700126D01*
X192424035Y-93451690D01*
X192724516Y-94268705D01*
X193043361Y-95137767D01*
X193375681Y-96045471D01*
X193716591Y-96978412D01*
X194061201Y-97923185D01*
X194404626Y-98866385D01*
X194741977Y-99794608D01*
X195068367Y-100694449D01*
X195378909Y-101552504D01*
X195668715Y-102355365D01*
X195932898Y-103089630D01*
X196166569Y-103741894D01*
X196364844Y-104298751D01*
X196522833Y-104746798D01*
X196635649Y-105072628D01*
X196698405Y-105262838D01*
X196709274Y-105301849D01*
X201609237Y-106165845D01*
X201457712Y-105730757D01*
X203127020Y-106025101D01*
X202432218Y-106848289D01*
X201737416Y-107671477D01*
X223739025Y-111550954D01*
X223370683Y-110546161D01*
X222390586Y-110373344D01*
X222310517Y-110371633D01*
X222069726Y-110340704D01*
X221674110Y-110281546D01*
X221129565Y-110195150D01*
X220441987Y-110082505D01*
X219617270Y-109944600D01*
X218661310Y-109782426D01*
X217580004Y-109596974D01*
X216379248Y-109389233D01*
X215064937Y-109160192D01*
X213642967Y-108910841D01*
X212885417Y-108777443D01*
X211518478Y-108535752D01*
X210229273Y-108306486D01*
X209025966Y-108091150D01*
X207916716Y-107891251D01*
X206909686Y-107708294D01*
X206013036Y-107543783D01*
X205234927Y-107399223D01*
X204583520Y-107276122D01*
X204066978Y-107175983D01*
X203693459Y-107100313D01*
X203471126Y-107050616D01*
X203407123Y-107029129D01*
X203471305Y-106947336D01*
X203635493Y-106747390D01*
X203891303Y-106439232D01*
X204214525Y-106051777D01*
X200402358Y-105379590D01*
X200328120Y-105394121D01*
X200108578Y-105378228D01*
X199764523Y-105334433D01*
X199316749Y-105265258D01*
X198964298Y-105205128D01*
X197511973Y-104949044D01*
X197040963Y-103639083D01*
X196883934Y-103195950D01*
X196750715Y-102807732D01*
X196650651Y-102502663D01*
X196593083Y-102308970D01*
X196583005Y-102255106D01*
X196638842Y-102167664D01*
X196781551Y-101981005D01*
X196989344Y-101721181D01*
X197240438Y-101414242D01*
X197513046Y-101086240D01*
X197785383Y-100763225D01*
X198035663Y-100471247D01*
X198242100Y-100236357D01*
X198382911Y-100084605D01*
X198435042Y-100040477D01*
X198470711Y-100117870D01*
X198555664Y-100332020D01*
X198681614Y-100660436D01*
X198840273Y-101080628D01*
X199023355Y-101570105D01*
X199222571Y-102106376D01*
X199429636Y-102666954D01*
X199636263Y-103229347D01*
X199834163Y-103771063D01*
X200015051Y-104269616D01*
X200170640Y-104702512D01*
X200292641Y-105047262D01*
X200372769Y-105281375D01*
X200402358Y-105379590D01*
X204214525Y-106051777D01*
X204230353Y-106032805D01*
X204644258Y-105538050D01*
X205124638Y-104964912D01*
X205663108Y-104323331D01*
X206251286Y-103623252D01*
X206880788Y-102874614D01*
X207543233Y-102087361D01*
X208230236Y-101271436D01*
X208582045Y-100853848D01*
X207508811Y-100664608D01*
X207457850Y-100754481D01*
X207309708Y-100957750D01*
X207076832Y-101258755D01*
X206771669Y-101641838D01*
X206406669Y-102091339D01*
X205994279Y-102591601D01*
X205630667Y-103027300D01*
X203745171Y-105274488D01*
X202430470Y-105021119D01*
X201115768Y-104767749D01*
X200690510Y-103608874D01*
X200265252Y-102449999D01*
X203002550Y-99181208D01*
X203537627Y-98543341D01*
X204039747Y-97946901D01*
X204498480Y-97404126D01*
X204903396Y-96927253D01*
X205244070Y-96528520D01*
X205510072Y-96220163D01*
X205690973Y-96014420D01*
X205776346Y-95923529D01*
X205781468Y-95920165D01*
X205820032Y-95998190D01*
X205906311Y-96211889D01*
X206031580Y-96537286D01*
X206187108Y-96950408D01*
X206364166Y-97427279D01*
X206554027Y-97943924D01*
X206747961Y-98476369D01*
X206937239Y-99000638D01*
X207113134Y-99492757D01*
X207266916Y-99928752D01*
X207389856Y-100284646D01*
X207473227Y-100536466D01*
X207508299Y-100660237D01*
X207508811Y-100664608D01*
X208582045Y-100853848D01*
X208933415Y-100436782D01*
X209644388Y-99593338D01*
X210354771Y-98751051D01*
X211056181Y-97919858D01*
X211740235Y-97109707D01*
X212398551Y-96330536D01*
X213022745Y-95592291D01*
X213604435Y-94904910D01*
X214135238Y-94278340D01*
X214606769Y-93722520D01*
X215010649Y-93247394D01*
X215338492Y-92862904D01*
X215581915Y-92578992D01*
X215732537Y-92405601D01*
X215781956Y-92352242D01*
X215814707Y-92430467D01*
X215900994Y-92655567D01*
X216036338Y-93015334D01*
X216216263Y-93497556D01*
X216436291Y-94090023D01*
X216691942Y-94780525D01*
X216978743Y-95556852D01*
X217292212Y-96406795D01*
X217627873Y-97318143D01*
X217981249Y-98278687D01*
X218347863Y-99276215D01*
X218723235Y-100298519D01*
X219102889Y-101333387D01*
X219482347Y-102368609D01*
X219857132Y-103391977D01*
X220222764Y-104391280D01*
X220574768Y-105354308D01*
X220908666Y-106268850D01*
X221219980Y-107122695D01*
X221504231Y-107903636D01*
X221756944Y-108599462D01*
X221973639Y-109197962D01*
X222149841Y-109686925D01*
X222281069Y-110054144D01*
X222362847Y-110287406D01*
X222390586Y-110373344D01*
X223370683Y-110546161D01*
X223250457Y-110218202D01*
X222761889Y-108885448D01*
X224678379Y-109223377D01*
X225290882Y-109332085D01*
X225755258Y-109417130D01*
X226090294Y-109483390D01*
X226314775Y-109535740D01*
X226447489Y-109579057D01*
X226507217Y-109618219D01*
X226512747Y-109658101D01*
X226490740Y-109693845D01*
X226393488Y-109813331D01*
X226216353Y-110027224D01*
X225988506Y-110300392D01*
X225836948Y-110481278D01*
X225287286Y-111136173D01*
X240613237Y-113838551D01*
X240384649Y-113209326D01*
X240278292Y-112907043D01*
X240258717Y-112846771D01*
X239279750Y-112674153D01*
X239196609Y-112670740D01*
X238959781Y-112639663D01*
X238582268Y-112583069D01*
X238077071Y-112503106D01*
X237457192Y-112401918D01*
X236735633Y-112281652D01*
X235925396Y-112144456D01*
X235039481Y-111992473D01*
X234090892Y-111827852D01*
X233097708Y-111653632D01*
X232099934Y-111477017D01*
X231152415Y-111307969D01*
X230268108Y-111148887D01*
X229459975Y-111002162D01*
X228740970Y-110870190D01*
X228124054Y-110755362D01*
X227622184Y-110660073D01*
X227248317Y-110586717D01*
X227015413Y-110537689D01*
X226936420Y-110515422D01*
X226990869Y-110427367D01*
X227121969Y-110253105D01*
X227245956Y-110098363D01*
X227546633Y-109731552D01*
X230062411Y-110152446D01*
X232578189Y-110573341D01*
X232235479Y-109631690D01*
X231245834Y-109457189D01*
X231163646Y-109454982D01*
X230930187Y-109425310D01*
X230560846Y-109370664D01*
X230071013Y-109293535D01*
X229476079Y-109196413D01*
X228791434Y-109081790D01*
X228032470Y-108952155D01*
X227214576Y-108810002D01*
X226840364Y-108744194D01*
X222442164Y-107968001D01*
X221993467Y-106733973D01*
X221839739Y-106304061D01*
X221710517Y-105929021D01*
X221615501Y-105638121D01*
X221564398Y-105460629D01*
X221558518Y-105421977D01*
X221615061Y-105337751D01*
X221768303Y-105141002D01*
X222005864Y-104846399D01*
X222315368Y-104468610D01*
X222684440Y-104022305D01*
X223100700Y-103522154D01*
X223551772Y-102982824D01*
X224025278Y-102418985D01*
X224508843Y-101845306D01*
X224990087Y-101276457D01*
X225456635Y-100727105D01*
X225896108Y-100211920D01*
X226296131Y-99745572D01*
X226644325Y-99342729D01*
X226928313Y-99018059D01*
X227135719Y-98786234D01*
X227254165Y-98661919D01*
X227276932Y-98644697D01*
X227314706Y-98725017D01*
X227404252Y-98948752D01*
X227539759Y-99300074D01*
X227715419Y-99763157D01*
X227925420Y-100322172D01*
X228163954Y-100961292D01*
X228425210Y-101664689D01*
X228703379Y-102416537D01*
X228992651Y-103201007D01*
X229287217Y-104002272D01*
X229581267Y-104804505D01*
X229868991Y-105591877D01*
X230144578Y-106348562D01*
X230402220Y-107058732D01*
X230636107Y-107706560D01*
X230840428Y-108276217D01*
X231009375Y-108751877D01*
X231137138Y-109117712D01*
X231217906Y-109357894D01*
X231245870Y-109456596D01*
X231245834Y-109457189D01*
X232235479Y-109631690D01*
X231714000Y-108198850D01*
X231497750Y-107599499D01*
X231303709Y-107051713D01*
X231138713Y-106575599D01*
X231009599Y-106191263D01*
X230923202Y-105918814D01*
X230886358Y-105778356D01*
X230886287Y-105764314D01*
X230960119Y-105666932D01*
X231125787Y-105462194D01*
X231368689Y-105167403D01*
X231674220Y-104799857D01*
X232027779Y-104376859D01*
X232414761Y-103915708D01*
X232820563Y-103433707D01*
X233230582Y-102948154D01*
X233630215Y-102476352D01*
X234004859Y-102035600D01*
X234339908Y-101643200D01*
X234620762Y-101316452D01*
X234832817Y-101072657D01*
X234961469Y-100929116D01*
X234994250Y-100897555D01*
X235029309Y-100975311D01*
X235114919Y-101193222D01*
X235244072Y-101532196D01*
X235409759Y-101973139D01*
X235604969Y-102496955D01*
X235822694Y-103084552D01*
X236055927Y-103716835D01*
X236297655Y-104374710D01*
X236540873Y-105039084D01*
X236778569Y-105690861D01*
X237003736Y-106310950D01*
X237209364Y-106880254D01*
X237388444Y-107379681D01*
X237533967Y-107790137D01*
X237638925Y-108092526D01*
X237675552Y-108201969D01*
X237768703Y-108487135D01*
X236482868Y-110019042D01*
X235197034Y-111550951D01*
X237164841Y-111920205D01*
X237795333Y-112039720D01*
X238279164Y-112135066D01*
X238636443Y-112211428D01*
X238887277Y-112273989D01*
X239051776Y-112327936D01*
X239150048Y-112378452D01*
X239202203Y-112430723D01*
X239212145Y-112448084D01*
X239272254Y-112607229D01*
X239279750Y-112674153D01*
X240258717Y-112846771D01*
X240200952Y-112668914D01*
X240166138Y-112537084D01*
X240165617Y-112525909D01*
X240248299Y-112530360D01*
X240483054Y-112562218D01*
X240855273Y-112619071D01*
X241350340Y-112698510D01*
X241953645Y-112798125D01*
X242650573Y-112915507D01*
X243426511Y-113048246D01*
X244266848Y-113193931D01*
X245060054Y-113333053D01*
X249944936Y-114194390D01*
X249393196Y-114870858D01*
X257210528Y-116249265D01*
X256869287Y-115307874D01*
X256859090Y-115279742D01*
X255873567Y-115105968D01*
X255792000Y-115107157D01*
X255570888Y-115081620D01*
X255237229Y-115033227D01*
X254818023Y-114965849D01*
X254424001Y-114898197D01*
X252982614Y-114644041D01*
X252664688Y-113761500D01*
X251670944Y-113586276D01*
X251588204Y-113579478D01*
X251350595Y-113545025D01*
X250969965Y-113484923D01*
X250458161Y-113401175D01*
X249827029Y-113295787D01*
X249088418Y-113170763D01*
X248254175Y-113028110D01*
X247336146Y-112869830D01*
X246346179Y-112697930D01*
X245296120Y-112514415D01*
X244241073Y-112328917D01*
X243144616Y-112134998D01*
X242097240Y-111948620D01*
X241110763Y-111771953D01*
X240197003Y-111607166D01*
X239367780Y-111456427D01*
X238634910Y-111321906D01*
X238010212Y-111205771D01*
X237505504Y-111110190D01*
X237132607Y-111037334D01*
X236903334Y-110989370D01*
X236829329Y-110968747D01*
X236884067Y-110895178D01*
X237038139Y-110703809D01*
X237282118Y-110405895D01*
X237606573Y-110012688D01*
X238002072Y-109535444D01*
X238459186Y-108985418D01*
X238968484Y-108373863D01*
X239520534Y-107712036D01*
X240105908Y-107011188D01*
X240715174Y-106282576D01*
X241338901Y-105537454D01*
X241967660Y-104787077D01*
X242592019Y-104042698D01*
X243202548Y-103315573D01*
X243789818Y-102616955D01*
X244344396Y-101958100D01*
X244856853Y-101350262D01*
X245317758Y-100804695D01*
X245717680Y-100332653D01*
X246047189Y-99945393D01*
X246296855Y-99654166D01*
X246457247Y-99470230D01*
X246518935Y-99404836D01*
X246519142Y-99404820D01*
X246553257Y-99483284D01*
X246639726Y-99707269D01*
X246773537Y-100062972D01*
X246949675Y-100536594D01*
X247163129Y-101114337D01*
X247408883Y-101782397D01*
X247681927Y-102526976D01*
X247977244Y-103334274D01*
X248289824Y-104190491D01*
X248614652Y-105081826D01*
X248946715Y-105994479D01*
X249280999Y-106914652D01*
X249612493Y-107828541D01*
X249936182Y-108722349D01*
X250247052Y-109582274D01*
X250540091Y-110394518D01*
X250810286Y-111145278D01*
X251052623Y-111820758D01*
X251262089Y-112407153D01*
X251433670Y-112890666D01*
X251562354Y-113257497D01*
X251643127Y-113493843D01*
X251670976Y-113585908D01*
X251670944Y-113586276D01*
X252664688Y-113761500D01*
X252652851Y-113728642D01*
X252523169Y-113358769D01*
X252420070Y-113045728D01*
X252354667Y-112824585D01*
X252337260Y-112732871D01*
X252394247Y-112642129D01*
X252538732Y-112453657D01*
X252748557Y-112193571D01*
X253001557Y-111887986D01*
X253275573Y-111563017D01*
X253548441Y-111244780D01*
X253798000Y-110959387D01*
X254002087Y-110732957D01*
X254138544Y-110591602D01*
X254183607Y-110557170D01*
X254222503Y-110634796D01*
X254309823Y-110847295D01*
X254436499Y-111170263D01*
X254593465Y-111579295D01*
X254771654Y-112049987D01*
X254962001Y-112557937D01*
X255155438Y-113078741D01*
X255342900Y-113587994D01*
X255515320Y-114061293D01*
X255663632Y-114474234D01*
X255778769Y-114802413D01*
X255851663Y-115021429D01*
X255873567Y-115105968D01*
X256859090Y-115279742D01*
X256528046Y-114366482D01*
X257195358Y-114459177D01*
X257862670Y-114551873D01*
X258008503Y-113724812D01*
X256183863Y-113403079D01*
X255868429Y-112552212D01*
X255721413Y-112154250D01*
X255581483Y-111773053D01*
X255468514Y-111462875D01*
X255420971Y-111330706D01*
X255288946Y-110960068D01*
X257320483Y-108550456D01*
X259352019Y-106140843D01*
X259467607Y-105345678D01*
X259583193Y-104550514D01*
X257296501Y-107279894D01*
X256808237Y-107861256D01*
X256353406Y-108400061D01*
X255943496Y-108882906D01*
X255589991Y-109296386D01*
X255304378Y-109627097D01*
X255098142Y-109861635D01*
X254982772Y-109986594D01*
X254962407Y-110003812D01*
X254912914Y-109927455D01*
X254827983Y-109732084D01*
X254725659Y-109459355D01*
X254721820Y-109448452D01*
X254619184Y-109173177D01*
X254533362Y-108973213D01*
X254482407Y-108890493D01*
X254481475Y-108890236D01*
X254415792Y-108949718D01*
X254257615Y-109121008D01*
X254022958Y-109385911D01*
X253727830Y-109726233D01*
X253388245Y-110123780D01*
X253199829Y-110346577D01*
X252798856Y-110820041D01*
X252491796Y-111175774D01*
X252265254Y-111427037D01*
X252105833Y-111587091D01*
X252000136Y-111669193D01*
X251934766Y-111686604D01*
X251896327Y-111652583D01*
X251891154Y-111641840D01*
X251851749Y-111538196D01*
X251759165Y-111287142D01*
X251617715Y-110900542D01*
X251431705Y-110390262D01*
X251205446Y-109768168D01*
X250943247Y-109046126D01*
X250649419Y-108236000D01*
X250328270Y-107349658D01*
X249984110Y-106398964D01*
X249621248Y-105395783D01*
X249336731Y-104608647D01*
X248963836Y-103577972D01*
X248606952Y-102594040D01*
X248270308Y-101668357D01*
X247958128Y-100812429D01*
X247674639Y-100037764D01*
X247424067Y-99355868D01*
X247210638Y-98778248D01*
X247038580Y-98316411D01*
X246912117Y-97981863D01*
X246835476Y-97786112D01*
X246812976Y-97737174D01*
X246753033Y-97799274D01*
X246593163Y-97981395D01*
X246341859Y-98273497D01*
X246007621Y-98665535D01*
X245598950Y-99147466D01*
X245124342Y-99709247D01*
X244592294Y-100340837D01*
X244011307Y-101032190D01*
X243389879Y-101773266D01*
X242736507Y-102554021D01*
X242700807Y-102596725D01*
X242043331Y-103382876D01*
X241415614Y-104132720D01*
X240826379Y-104835880D01*
X240284353Y-105481980D01*
X239798256Y-106060642D01*
X239376814Y-106561490D01*
X239028752Y-106974147D01*
X238762793Y-107288235D01*
X238587659Y-107493379D01*
X238512077Y-107579201D01*
X238511478Y-107579787D01*
X238476527Y-107583782D01*
X238427135Y-107532208D01*
X238358815Y-107413874D01*
X238267079Y-107217594D01*
X238147439Y-106932180D01*
X237995406Y-106546446D01*
X237806493Y-106049203D01*
X237576213Y-105429264D01*
X237300076Y-104675442D01*
X236973595Y-103776549D01*
X236861448Y-103466647D01*
X236569758Y-102662165D01*
X236294657Y-101907491D01*
X236041594Y-101217303D01*
X235816023Y-100606280D01*
X235623397Y-100089099D01*
X235469167Y-99680437D01*
X235358786Y-99394974D01*
X235297705Y-99247386D01*
X235287637Y-99229831D01*
X235225846Y-99291094D01*
X235067217Y-99469448D01*
X234823026Y-99751657D01*
X234504547Y-100124483D01*
X234123056Y-100574690D01*
X233689826Y-101089041D01*
X233216134Y-101654297D01*
X232901130Y-102031641D01*
X232407766Y-102622232D01*
X231947852Y-103170312D01*
X231532651Y-103662644D01*
X231173422Y-104085988D01*
X230881427Y-104427104D01*
X230667926Y-104672755D01*
X230544181Y-104809700D01*
X230517356Y-104834198D01*
X230481129Y-104755654D01*
X230393152Y-104533065D01*
X230259108Y-104181678D01*
X230084682Y-103716744D01*
X229875559Y-103153510D01*
X229637423Y-102507227D01*
X229375959Y-101793143D01*
X229096851Y-101026509D01*
X229055881Y-100913622D01*
X228773831Y-100140359D01*
X228507190Y-99417419D01*
X228261803Y-98760082D01*
X228043510Y-98183628D01*
X227858160Y-97703333D01*
X227711592Y-97334477D01*
X227609653Y-97092339D01*
X227558184Y-96992198D01*
X227555348Y-96990380D01*
X227487640Y-97051698D01*
X227321496Y-97231658D01*
X227066826Y-97518764D01*
X226733536Y-97901521D01*
X226331535Y-98368433D01*
X225870730Y-98908006D01*
X225361030Y-99508743D01*
X224812341Y-100159149D01*
X224365557Y-100691302D01*
X223793680Y-101373414D01*
X223254032Y-102016234D01*
X222756445Y-102608107D01*
X222310751Y-103137380D01*
X221926779Y-103592400D01*
X221614362Y-103961512D01*
X221383331Y-104233062D01*
X221243518Y-104395398D01*
X221204175Y-104438663D01*
X221168006Y-104366567D01*
X221078314Y-104146669D01*
X220939362Y-103790340D01*
X220755409Y-103308945D01*
X220530715Y-102713855D01*
X220269540Y-102016438D01*
X219976144Y-101228063D01*
X219654789Y-100360099D01*
X219309733Y-99423913D01*
X218945237Y-98430874D01*
X218635299Y-97583412D01*
X218257949Y-96551204D01*
X217896773Y-95565651D01*
X217556023Y-94638219D01*
X217239951Y-93780368D01*
X216952809Y-93003560D01*
X216698849Y-92319258D01*
X216482323Y-91738922D01*
X216307483Y-91274016D01*
X216178583Y-90936002D01*
X216099871Y-90736339D01*
X216075810Y-90683901D01*
X216015648Y-90745799D01*
X215855413Y-90927207D01*
X215603830Y-91217880D01*
X215269623Y-91607572D01*
X214861518Y-92086035D01*
X214388238Y-92643024D01*
X213858508Y-93268293D01*
X213281054Y-93951593D01*
X212664597Y-94682680D01*
X212129607Y-95318391D01*
X211487796Y-96081267D01*
X210878244Y-96804967D01*
X210309629Y-97479244D01*
X209790623Y-98093848D01*
X209329905Y-98638531D01*
X208936149Y-99103045D01*
X208618030Y-99477142D01*
X208384226Y-99750573D01*
X208243410Y-99913090D01*
X208203361Y-99956401D01*
X208170304Y-99878754D01*
X208086483Y-99659662D01*
X207958498Y-99316999D01*
X207792951Y-98868639D01*
X207596444Y-98332457D01*
X207375577Y-97726325D01*
X207150508Y-97105598D01*
X206912028Y-96449457D01*
X206690631Y-95846241D01*
X206493059Y-95313870D01*
X206326054Y-94870261D01*
X206196358Y-94533335D01*
X206110715Y-94321010D01*
X206076382Y-94251044D01*
X206015375Y-94312637D01*
X205855766Y-94492646D01*
X205607433Y-94779468D01*
X205280258Y-95161499D01*
X204884119Y-95627136D01*
X204428897Y-96164775D01*
X203924474Y-96762813D01*
X203380728Y-97409647D01*
X202986445Y-97879942D01*
X202299108Y-98698916D01*
X201712427Y-99393897D01*
X201220004Y-99972091D01*
X200815444Y-100440708D01*
X200492351Y-100806953D01*
X200244327Y-101078036D01*
X200064978Y-101261163D01*
X199947907Y-101363542D01*
X199886717Y-101392382D01*
X199876310Y-101384650D01*
X199827722Y-101265037D01*
X199732581Y-101014313D01*
X199601403Y-100660792D01*
X199444704Y-100232790D01*
X199293807Y-99816346D01*
X199125812Y-99356773D01*
X198975450Y-98957198D01*
X198852623Y-98642999D01*
X198767234Y-98439552D01*
X198730166Y-98371993D01*
X198664962Y-98431613D01*
X198507623Y-98603067D01*
X198274253Y-98867967D01*
X197980958Y-99207926D01*
X197643842Y-99604556D01*
X197474617Y-99805583D01*
X197121892Y-100221690D01*
X196804246Y-100588473D01*
X196537962Y-100887779D01*
X196339324Y-101101452D01*
X196224614Y-101211336D01*
X196204290Y-101221951D01*
X196166714Y-101140241D01*
X196076330Y-100911276D01*
X195937609Y-100547153D01*
X195755019Y-100059969D01*
X195533028Y-99461821D01*
X195276106Y-98764807D01*
X194988723Y-97981025D01*
X194675345Y-97122571D01*
X194340442Y-96201542D01*
X193988483Y-95230036D01*
X193881719Y-94934651D01*
X193525422Y-93950785D01*
X193184499Y-93014092D01*
X192863450Y-92136643D01*
X192566769Y-91330508D01*
X192298952Y-90607757D01*
X192064498Y-89980459D01*
X191867900Y-89460685D01*
X191713656Y-89060503D01*
X191606262Y-88791985D01*
X191550215Y-88667199D01*
X191544121Y-88659602D01*
X191478002Y-88720543D01*
X191313099Y-88900717D01*
X191058851Y-89189114D01*
X190724691Y-89574725D01*
X190320055Y-90046540D01*
X189854377Y-90593550D01*
X189337094Y-91204745D01*
X188777640Y-91869117D01*
X188185451Y-92575656D01*
X188085198Y-92695585D01*
X187488409Y-93409304D01*
X186923349Y-94084192D01*
X186399426Y-94709070D01*
X185926044Y-95272763D01*
X185512609Y-95764093D01*
X185168530Y-96171885D01*
X184903210Y-96484963D01*
X184726058Y-96692148D01*
X184646479Y-96782265D01*
X184643437Y-96785069D01*
X184606203Y-96713790D01*
X184515852Y-96495014D01*
X184376798Y-96140504D01*
X184193454Y-95662022D01*
X183970232Y-95071332D01*
X183711545Y-94380198D01*
X183421809Y-93600381D01*
X183105435Y-92743645D01*
X182766837Y-91821755D01*
X182410428Y-90846471D01*
X182245637Y-90393933D01*
X181882622Y-89397280D01*
X181535821Y-88447703D01*
X181209624Y-87557077D01*
X180908426Y-86737276D01*
X180636618Y-86000175D01*
X180398594Y-85357648D01*
X180198746Y-84821571D01*
X180041467Y-84403816D01*
X179931150Y-84116259D01*
X179872186Y-83970773D01*
X179863626Y-83954824D01*
X179803962Y-84016981D01*
X179803962Y-84016981D01*
G37*
X179803962Y-84016981D02*
X179643858Y-84199381D01*
X179391501Y-84492366D01*
X179055074Y-84886279D01*
X178642766Y-85371462D01*
X178162762Y-85938258D01*
X177623247Y-86577008D01*
X177032407Y-87278055D01*
X176398428Y-88031741D01*
X175729497Y-88828410D01*
X175423949Y-89192761D01*
X174741412Y-90006331D01*
X174089706Y-90781917D01*
X173477079Y-91509780D01*
X172911774Y-92180181D01*
X172402038Y-92783380D01*
X171956116Y-93309638D01*
X171582256Y-93749215D01*
X171288701Y-94092371D01*
X171083698Y-94329367D01*
X170975493Y-94450464D01*
X170960711Y-94464506D01*
X170918447Y-94393478D01*
X170825656Y-94179718D01*
X170688806Y-93839945D01*
X170514362Y-93390881D01*
X170308790Y-92849247D01*
X170078555Y-92231765D01*
X169830124Y-91555155D01*
X169742131Y-91313152D01*
X169488351Y-90618286D01*
X169250097Y-89975215D01*
X169033925Y-89400939D01*
X168846386Y-88912458D01*
X168694032Y-88526773D01*
X168583416Y-88260886D01*
X168521091Y-88131796D01*
X168512202Y-88122108D01*
X168444705Y-88182626D01*
X168279239Y-88361460D01*
X168026076Y-88646701D01*
X167695484Y-89026442D01*
X167297736Y-89488779D01*
X166843105Y-90021803D01*
X166341861Y-90613609D01*
X165804275Y-91252288D01*
X165544137Y-91562694D01*
X164994014Y-92218977D01*
X164476633Y-92834182D01*
X164002127Y-93396399D01*
X163580632Y-93893717D01*
X163222278Y-94314223D01*
X162937204Y-94646008D01*
X162735540Y-94877159D01*
X162627421Y-94995766D01*
X162611804Y-95009245D01*
X162576080Y-94930603D01*
X162487780Y-94706685D01*
X162352090Y-94351395D01*
X162174198Y-93878635D01*
X161959285Y-93302307D01*
X161712540Y-92636313D01*
X161439148Y-91894557D01*
X161144295Y-91090940D01*
X160857751Y-90306784D01*
X160547124Y-89457738D01*
X160252410Y-88657298D01*
X159978880Y-87919434D01*
X159731802Y-87258119D01*
X159516444Y-86687321D01*
X159338075Y-86221012D01*
X159201963Y-85873163D01*
X159113378Y-85657745D01*
X159078413Y-85588543D01*
X159010729Y-85645874D01*
X158847129Y-85819258D01*
X158599989Y-86094566D01*
X158281683Y-86457669D01*
X157904586Y-86894440D01*
X157481076Y-87390752D01*
X157023525Y-87932478D01*
X156984492Y-87978937D01*
X156525315Y-88524201D01*
X156100273Y-89026049D01*
X155721597Y-89470256D01*
X155401523Y-89842597D01*
X155152287Y-90128843D01*
X154986120Y-90314770D01*
X154915260Y-90386151D01*
X154914041Y-90386483D01*
X154878487Y-90307996D01*
X154790144Y-90083320D01*
X154653851Y-89725491D01*
X154474449Y-89247544D01*
X154256781Y-88662514D01*
X154005688Y-87983439D01*
X153726011Y-87223352D01*
X153422592Y-86395289D01*
X153100271Y-85512285D01*
X152929005Y-85041796D01*
X152598359Y-84134969D01*
X152283493Y-83275965D01*
X151989314Y-82477878D01*
X151720726Y-81753807D01*
X151482639Y-81116848D01*
X151279957Y-80580098D01*
X151117589Y-80156654D01*
X151000439Y-79859613D01*
X150933416Y-79702070D01*
X150920128Y-79679662D01*
X150855176Y-79738529D01*
X150691369Y-79916305D01*
X150438299Y-80201853D01*
X150105562Y-80584028D01*
X149702751Y-81051697D01*
X149239459Y-81593717D01*
X148725281Y-82198949D01*
X148169810Y-82856255D01*
X147582640Y-83554496D01*
X147574369Y-83564355D01*
X146986552Y-84264635D01*
X146430744Y-84925901D01*
X145916530Y-85536812D01*
X145453489Y-86086026D01*
X145051204Y-86562202D01*
X144719258Y-86953998D01*
X144467231Y-87250072D01*
X144304706Y-87439081D01*
X144241264Y-87509685D01*
X144241200Y-87509731D01*
X144203043Y-87439470D01*
X144112914Y-87223981D01*
X143976153Y-86877370D01*
X143798100Y-86413746D01*
X143584098Y-85847218D01*
X143339487Y-85191895D01*
X143069608Y-84461885D01*
X142779801Y-83671298D01*
X142569653Y-83094119D01*
X142269086Y-82268269D01*
X141985145Y-81491842D01*
X141723149Y-80779130D01*
X141488415Y-80144423D01*
X141286263Y-79602010D01*
X141122012Y-79166184D01*
X141000980Y-78851234D01*
X140928485Y-78671450D01*
X140909570Y-78633683D01*
X140848882Y-78695368D01*
X140689322Y-78875689D01*
X140440546Y-79163302D01*
X140112209Y-79546859D01*
X139713966Y-80015013D01*
X139255472Y-80556419D01*
X138746383Y-81159728D01*
X138196353Y-81813595D01*
X137681299Y-82427571D01*
X137101014Y-83120049D01*
X136551986Y-83774966D01*
X136044061Y-84380596D01*
X135587085Y-84925212D01*
X135190903Y-85397085D01*
X134865359Y-85784490D01*
X134620300Y-86075699D01*
X134465571Y-86258985D01*
X134412134Y-86321488D01*
X134363856Y-86265437D01*
X134262752Y-86053447D01*
X134110526Y-85689891D01*
X133908886Y-85179141D01*
X133659537Y-84525572D01*
X133364185Y-83733556D01*
X133024536Y-82807466D01*
X132800464Y-82190025D01*
X132508962Y-81386046D01*
X132234060Y-80631886D01*
X131981211Y-79942230D01*
X131755870Y-79331767D01*
X131563493Y-78815181D01*
X131409534Y-78407160D01*
X131299447Y-78122389D01*
X131238687Y-77975556D01*
X131228820Y-77958379D01*
X131168927Y-78020536D01*
X131008867Y-78202975D01*
X130756912Y-78495918D01*
X130421331Y-78889589D01*
X130010394Y-79374209D01*
X129532370Y-79940003D01*
X128995531Y-80577192D01*
X128408143Y-81275998D01*
X127778480Y-82026644D01*
X127114809Y-82819353D01*
X126891903Y-83085929D01*
X126216476Y-83893582D01*
X125570800Y-84664994D01*
X124963343Y-85390087D01*
X124402572Y-86058784D01*
X123896955Y-86661011D01*
X123454960Y-87186688D01*
X123085054Y-87625742D01*
X122795706Y-87968093D01*
X122595383Y-88203667D01*
X122492554Y-88322386D01*
X122481926Y-88333762D01*
X122433250Y-88347121D01*
X122372056Y-88289829D01*
X122290676Y-88145339D01*
X122181439Y-87897101D01*
X122036677Y-87528568D01*
X121848720Y-87023187D01*
X121753612Y-86762168D01*
X121569647Y-86262397D01*
X121402006Y-85820552D01*
X121259999Y-85460081D01*
X121152938Y-85204434D01*
X121090132Y-85077063D01*
X121080621Y-85067161D01*
X121009478Y-85125517D01*
X120847952Y-85294525D01*
X120613756Y-85554491D01*
X120324595Y-85885722D01*
X119998182Y-86268525D01*
X119966556Y-86306054D01*
X119637404Y-86695765D01*
X119344899Y-87039693D01*
X119106704Y-87317261D01*
X118940487Y-87507893D01*
X118863912Y-87591015D01*
X118862145Y-87592432D01*
X118823711Y-87522695D01*
X118733258Y-87308713D01*
X118596514Y-86965425D01*
X118419202Y-86507774D01*
X118207046Y-85950695D01*
X117965772Y-85309130D01*
X117701106Y-84598019D01*
X117418769Y-83832300D01*
X117362501Y-83678872D01*
X117077320Y-82902689D01*
X116809103Y-82176731D01*
X116563553Y-81516152D01*
X116346375Y-80936104D01*
X116163271Y-80451742D01*
X116019945Y-80078219D01*
X115922101Y-79830686D01*
X115875443Y-79724298D01*
X115872873Y-79721296D01*
X115811500Y-79782503D01*
X115652163Y-79960776D01*
X115405731Y-80243452D01*
X115083073Y-80617872D01*
X114695061Y-81071375D01*
X114252563Y-81591301D01*
X113766448Y-82164988D01*
X113276553Y-82745393D01*
X112759219Y-83358228D01*
X112275235Y-83929235D01*
X111835466Y-84445759D01*
X111450783Y-84895144D01*
X111132051Y-85264736D01*
X110890138Y-85541877D01*
X110735913Y-85713914D01*
X110680554Y-85768477D01*
X110643982Y-85689648D01*
X110556417Y-85467681D01*
X110423917Y-85118871D01*
X110252535Y-84659518D01*
X110048327Y-84105914D01*
X109817348Y-83474357D01*
X109565655Y-82781144D01*
X109398583Y-82318452D01*
X109136831Y-81594660D01*
X108891816Y-80922243D01*
X108669611Y-80317495D01*
X108476290Y-79796713D01*
X108317926Y-79376193D01*
X108200590Y-79072229D01*
X108130357Y-78901116D01*
X108113009Y-78868860D01*
X108049915Y-78929566D01*
X107891860Y-79105547D01*
X107651853Y-79381634D01*
X107342905Y-79742658D01*
X106978025Y-80173446D01*
X106570222Y-80658831D01*
X106285000Y-81000380D01*
X105855298Y-81512312D01*
X105458344Y-81977887D01*
X105107347Y-82382179D01*
X104815519Y-82710264D01*
X104596073Y-82947215D01*
X104462219Y-83078106D01*
X104427198Y-83099154D01*
X104386700Y-83014807D01*
X104293490Y-82783807D01*
X104152288Y-82418798D01*
X103967816Y-81932425D01*
X103744790Y-81337330D01*
X103487932Y-80646160D01*
X103201959Y-79871557D01*
X102891595Y-79026166D01*
X102561555Y-78122630D01*
X102257337Y-77285995D01*
X101914044Y-76342162D01*
X101586411Y-75445717D01*
X101279135Y-74609252D01*
X100996919Y-73845361D01*
X100744463Y-73166636D01*
X100526466Y-72585669D01*
X100347630Y-72115050D01*
X100212655Y-71767375D01*
X100126242Y-71555235D01*
X100094020Y-71490635D01*
X100027937Y-71549143D01*
X99864109Y-71725738D01*
X99613024Y-72008278D01*
X99285169Y-72384623D01*
X98891035Y-72842634D01*
X98441108Y-73370168D01*
X97945879Y-73955087D01*
X97415835Y-74585248D01*
X97267039Y-74762858D01*
X96728612Y-75404466D01*
X96221746Y-76005302D01*
X95757008Y-76553060D01*
X95344963Y-77035436D01*
X94996180Y-77440127D01*
X94721222Y-77754827D01*
X94530658Y-77967231D01*
X94435051Y-78065037D01*
X94426979Y-78070187D01*
X94383419Y-77995278D01*
X94288166Y-77775519D01*
X94146794Y-77425416D01*
X93964873Y-76959476D01*
X93747973Y-76392208D01*
X93501667Y-75738116D01*
X93231526Y-75011709D01*
X92943120Y-74227492D01*
X92789530Y-73806477D01*
X92494584Y-72997735D01*
X92216386Y-72238694D01*
X91960372Y-71543933D01*
X91731983Y-70928030D01*
X91536656Y-70405565D01*
X91379827Y-69991115D01*
X91266937Y-69699261D01*
X91203425Y-69544580D01*
X91191771Y-69523203D01*
X91131444Y-69584983D01*
X90971763Y-69765692D01*
X90722041Y-70054392D01*
X90391588Y-70440145D01*
X89989716Y-70912011D01*
X89525735Y-71459050D01*
X89008959Y-72070326D01*
X88448698Y-72734899D01*
X87854264Y-73441832D01*
X87723798Y-73597222D01*
X87123197Y-74311798D01*
X86554680Y-74986329D01*
X86027570Y-75609878D01*
X85551188Y-76171506D01*
X85134858Y-76660274D01*
X84787900Y-77065245D01*
X84519637Y-77375481D01*
X84339391Y-77580042D01*
X84256484Y-77667992D01*
X84252286Y-77670618D01*
X84211398Y-77592271D01*
X84122404Y-77377427D01*
X83994193Y-77049039D01*
X83835656Y-76630062D01*
X83655684Y-76143453D01*
X83573293Y-75917411D01*
X83386820Y-75408637D01*
X83217971Y-74957557D01*
X83075631Y-74587123D01*
X82968680Y-74320288D01*
X82906004Y-74180003D01*
X82894831Y-74164296D01*
X82832234Y-74225130D01*
X82673062Y-74401975D01*
X82429306Y-74680901D01*
X82112961Y-75047973D01*
X81736020Y-75489257D01*
X81310479Y-75990820D01*
X80848329Y-76538729D01*
X80740234Y-76667319D01*
X80270936Y-77222868D01*
X79834307Y-77733823D01*
X79442483Y-78186429D01*
X79107594Y-78566932D01*
X78841772Y-78861583D01*
X78657148Y-79056625D01*
X78565855Y-79138307D01*
X78559380Y-79139637D01*
X78519644Y-79055659D01*
X78427217Y-78824904D01*
X78286765Y-78459922D01*
X78102956Y-77973259D01*
X77880456Y-77377462D01*
X77623932Y-76685080D01*
X77338050Y-75908659D01*
X77027476Y-75060746D01*
X76696879Y-74153890D01*
X76366486Y-73243607D01*
X76021102Y-72292638D01*
X75691084Y-71389060D01*
X75381110Y-70545371D01*
X75095858Y-69774067D01*
X74840010Y-69087649D01*
X74618242Y-68498611D01*
X74435235Y-68019453D01*
X74295667Y-67662672D01*
X74204216Y-67440764D01*
X74166057Y-67366231D01*
X74100096Y-67426271D01*
X73934849Y-67606273D01*
X73679167Y-67895890D01*
X73341901Y-68284774D01*
X72931905Y-68762581D01*
X72458027Y-69318962D01*
X71929120Y-69943572D01*
X71354036Y-70626065D01*
X70741625Y-71356091D01*
X70267489Y-71923378D01*
X69633531Y-72681663D01*
X69030770Y-73399909D01*
X68468011Y-74067798D01*
X67954052Y-74675015D01*
X67497695Y-75211242D01*
X67107740Y-75666164D01*
X66792990Y-76029464D01*
X66562245Y-76290826D01*
X66424307Y-76439933D01*
X66387085Y-76471906D01*
X66347427Y-76389176D01*
X66255716Y-76161883D01*
X66117472Y-75804714D01*
X65938213Y-75332352D01*
X65723461Y-74759481D01*
X65478732Y-74100787D01*
X65209547Y-73370951D01*
X64921425Y-72584662D01*
X64770815Y-72171714D01*
X64475190Y-71363443D01*
X64195321Y-70605084D01*
X63936755Y-69911204D01*
X63705042Y-69296374D01*
X63505729Y-68775161D01*
X63344367Y-68362137D01*
X63226504Y-68071868D01*
X63157689Y-67918926D01*
X63143289Y-67898496D01*
X63077469Y-67961348D01*
X62912829Y-68143022D01*
X62658992Y-68432289D01*
X62325580Y-68817916D01*
X61922218Y-69288675D01*
X61458526Y-69833332D01*
X60944130Y-70440658D01*
X60388650Y-71099422D01*
X59801711Y-71798394D01*
X59800474Y-71799870D01*
X59214285Y-72498432D01*
X58660426Y-73156651D01*
X58148415Y-73763331D01*
X57687773Y-74307283D01*
X57288019Y-74777312D01*
X56958672Y-75162227D01*
X56709251Y-75450835D01*
X56549276Y-75631942D01*
X56488267Y-75694358D01*
X56488211Y-75694350D01*
X56452699Y-75615422D01*
X56365068Y-75391171D01*
X56230501Y-75035617D01*
X56054180Y-74562780D01*
X55841292Y-73986678D01*
X55597018Y-73321332D01*
X55326543Y-72580761D01*
X55035049Y-71778986D01*
X54771545Y-71051305D01*
X54466104Y-70208137D01*
X54177180Y-69414148D01*
X53909961Y-68683356D01*
X53669636Y-68029775D01*
X53461391Y-67467423D01*
X53290413Y-67010317D01*
X53161891Y-66672472D01*
X53081011Y-66467902D01*
X53053515Y-66409256D01*
X52992541Y-66470770D01*
X52833359Y-66650258D01*
X52586237Y-66935668D01*
X52261448Y-67314948D01*
X51869259Y-67776047D01*
X51419940Y-68306914D01*
X50923761Y-68895498D01*
X50390991Y-69529746D01*
X50187416Y-69772661D01*
X49643646Y-70420686D01*
X49132526Y-71027413D01*
X48664341Y-71580798D01*
X48249380Y-72068795D01*
X47897929Y-72479359D01*
X47620274Y-72800445D01*
X47426702Y-73020007D01*
X47327502Y-73126000D01*
X47316790Y-73134025D01*
X47280431Y-73054922D01*
X47191484Y-72829924D01*
X47054919Y-72472391D01*
X46875705Y-71995679D01*
X46658806Y-71413148D01*
X46409194Y-70738156D01*
X46131836Y-69984060D01*
X45831699Y-69164218D01*
X45513752Y-68291988D01*
X45417660Y-68027668D01*
X45095496Y-67142663D01*
X44789780Y-66306168D01*
X44505470Y-65531533D01*
X44247525Y-64832108D01*
X44020902Y-64221244D01*
X43830558Y-63712292D01*
X43681454Y-63318603D01*
X43578546Y-63053528D01*
X43526792Y-62930418D01*
X43522025Y-62923168D01*
X43462127Y-62985273D01*
X43301760Y-63167591D01*
X43049118Y-63460469D01*
X42712394Y-63854248D01*
X42299779Y-64339274D01*
X41819467Y-64905889D01*
X41279652Y-65544438D01*
X40688524Y-66245263D01*
X40054278Y-66998710D01*
X39385106Y-67795120D01*
X39080508Y-68158104D01*
X38398360Y-68970459D01*
X37747320Y-69744071D01*
X37135597Y-70469287D01*
X36571404Y-71136451D01*
X36062951Y-71735907D01*
X35618451Y-72257999D01*
X35246112Y-72693073D01*
X34954147Y-73031471D01*
X34750767Y-73263540D01*
X34644183Y-73379622D01*
X34630059Y-73391466D01*
X34591859Y-73312502D01*
X34501390Y-73088943D01*
X34364147Y-72735365D01*
X34185627Y-72266346D01*
X33971326Y-71696466D01*
X33726741Y-71040303D01*
X33457366Y-70312435D01*
X33168700Y-69527442D01*
X33014377Y-69105842D01*
X32717421Y-68296231D01*
X32436363Y-67535585D01*
X32176770Y-66838582D01*
X31944205Y-66219904D01*
X31744237Y-65694229D01*
X31582431Y-65276238D01*
X31464354Y-64980611D01*
X31395570Y-64822028D01*
X31381274Y-64798654D01*
X31316010Y-64856311D01*
X31151580Y-65033086D01*
X30897358Y-65318129D01*
X30562722Y-65700587D01*
X30157047Y-66169610D01*
X29689708Y-66714344D01*
X29170083Y-67323940D01*
X28607547Y-67987546D01*
X28011474Y-68694308D01*
X27870735Y-68861691D01*
X27269076Y-69575562D01*
X26699233Y-70247630D01*
X26170508Y-70867186D01*
X25692209Y-71423520D01*
X25273637Y-71905920D01*
X24924099Y-72303678D01*
X24652900Y-72606085D01*
X24469344Y-72802429D01*
X24382735Y-72882001D01*
X24377426Y-72882557D01*
X24337763Y-72789671D01*
X24246508Y-72554751D01*
X24110043Y-72194864D01*
X23934753Y-71727075D01*
X23727018Y-71168451D01*
X23493222Y-70536057D01*
X23239747Y-69846960D01*
X23121263Y-69523730D01*
X22860681Y-68817133D01*
X22615524Y-68162008D01*
X22392300Y-67575045D01*
X22197520Y-67072935D01*
X22037694Y-66672365D01*
X21919330Y-66390025D01*
X21848938Y-66242604D01*
X21834465Y-66224692D01*
X21759148Y-66283173D01*
X21591341Y-66454617D01*
X21346691Y-66721680D01*
X21040846Y-67067017D01*
X20689453Y-67473285D01*
X20391905Y-67823581D01*
X20017693Y-68265316D01*
X19679499Y-68660322D01*
X19392476Y-68991242D01*
X19171779Y-69240716D01*
X19032564Y-69391387D01*
X18990143Y-69429141D01*
X18955186Y-69350468D01*
X18867270Y-69124753D01*
X18730914Y-68764236D01*
X18550632Y-68281155D01*
X18330941Y-67687751D01*
X18076357Y-66996263D01*
X17791395Y-66218929D01*
X17480574Y-65367992D01*
X17148406Y-64455688D01*
X16799412Y-63494258D01*
X16751160Y-63361111D01*
X16400147Y-62393892D01*
X16065223Y-61474105D01*
X15750917Y-60613994D01*
X15461759Y-59825806D01*
X15202273Y-59121786D01*
X14976990Y-58514179D01*
X14790436Y-58015232D01*
X14647138Y-57637189D01*
X14551625Y-57392296D01*
X14508426Y-57292799D01*
X14506851Y-57291174D01*
X14429204Y-57345390D01*
X14289329Y-57492100D01*
X14219439Y-57574599D01*
X14099544Y-57741352D01*
X14010566Y-57928610D01*
X13937327Y-58180833D01*
X13864654Y-58542479D01*
X13838860Y-58689619D01*
X13697531Y-59512721D01*
X13936435Y-59233290D01*
X14090575Y-59064697D01*
X14197069Y-58969571D01*
X14217012Y-58961308D01*
X14250430Y-59039458D01*
X14335953Y-59262017D01*
X14468173Y-59614127D01*
X14641675Y-60080932D01*
X14851050Y-60647573D01*
X15090887Y-61299195D01*
X15355775Y-62020939D01*
X15640302Y-62797949D01*
X15939058Y-63615366D01*
X16246631Y-64458335D01*
X16557610Y-65311998D01*
X16866584Y-66161498D01*
X17168143Y-66991977D01*
X17456874Y-67788578D01*
X17727368Y-68536445D01*
X17974212Y-69220720D01*
X18191996Y-69826545D01*
X18375309Y-70339065D01*
X18518739Y-70743420D01*
X18616877Y-71024755D01*
X18664309Y-71168213D01*
X18667788Y-71181781D01*
X18589651Y-71189761D01*
X18352303Y-71166643D01*
X17962782Y-71113495D01*
X17428129Y-71031388D01*
X16755381Y-70921391D01*
X15951576Y-70784576D01*
X15255863Y-70663054D01*
X11830319Y-70059038D01*
X11683297Y-70892842D01*
X17011256Y-71832305D01*
X16096324Y-72917584D01*
X15181393Y-74002862D01*
X30098061Y-76633073D01*
X29723344Y-75635743D01*
X28745411Y-75463307D01*
X28671652Y-75473008D01*
X28457200Y-75454929D01*
X28127818Y-75412384D01*
X27709266Y-75348686D01*
X27246228Y-75270490D01*
X26767455Y-75182353D01*
X26355317Y-75099352D01*
X26035155Y-75027185D01*
X25971297Y-75009670D01*
X24083933Y-74676877D01*
X24002082Y-74669980D01*
X23770472Y-74636141D01*
X23406039Y-74578181D01*
X22925722Y-74498915D01*
X22346459Y-74401166D01*
X21685187Y-74287753D01*
X20958844Y-74161491D01*
X20443779Y-74071035D01*
X19684927Y-73935703D01*
X18981567Y-73807319D01*
X18350378Y-73689143D01*
X17808045Y-73584437D01*
X17371249Y-73496463D01*
X17056670Y-73428481D01*
X16880994Y-73383753D01*
X16849362Y-73368322D01*
X16917185Y-73280225D01*
X17067848Y-73093022D01*
X17276085Y-72837935D01*
X17426040Y-72655729D01*
X17963138Y-72005076D01*
X20021867Y-72320171D01*
X19669286Y-71371365D01*
X19316704Y-70422559D01*
X19891862Y-69734141D01*
X20368644Y-69165410D01*
X20749075Y-68716604D01*
X21043636Y-68376272D01*
X21262806Y-68132960D01*
X21417066Y-67975213D01*
X21516895Y-67891579D01*
X21572774Y-67870604D01*
X21587885Y-67880573D01*
X21627432Y-67973940D01*
X21716849Y-68205030D01*
X21848775Y-68553800D01*
X22015846Y-69000201D01*
X22210701Y-69524188D01*
X22425978Y-70105715D01*
X22654314Y-70724736D01*
X22888346Y-71361202D01*
X23120713Y-71995070D01*
X23344052Y-72606293D01*
X23551000Y-73174822D01*
X23734197Y-73680613D01*
X23886278Y-74103620D01*
X23999883Y-74423795D01*
X24067647Y-74621093D01*
X24083933Y-74676877D01*
X25971297Y-75009670D01*
X25832312Y-74971550D01*
X25771511Y-74938928D01*
X25856481Y-74825078D01*
X26023249Y-74619096D01*
X26250149Y-74346271D01*
X26515513Y-74031893D01*
X26797674Y-73701251D01*
X27074962Y-73379638D01*
X27325712Y-73092343D01*
X27528255Y-72864654D01*
X27660923Y-72721863D01*
X27701997Y-72685698D01*
X27740965Y-72762281D01*
X27825729Y-72966959D01*
X27944577Y-73268553D01*
X28085800Y-73635891D01*
X28237685Y-74037794D01*
X28388521Y-74443087D01*
X28526598Y-74820596D01*
X28640204Y-75139143D01*
X28717627Y-75367555D01*
X28745411Y-75463307D01*
X29723344Y-75635743D01*
X29579157Y-75251984D01*
X32668324Y-75796687D01*
X32314300Y-76228607D01*
X32116445Y-76465566D01*
X31950967Y-76655894D01*
X31861535Y-76750582D01*
X31874812Y-76770422D01*
X31953805Y-76799960D01*
X32106334Y-76840671D01*
X32340218Y-76894028D01*
X32663275Y-76961502D01*
X33083327Y-77044569D01*
X33608191Y-77144700D01*
X34245689Y-77263368D01*
X35003639Y-77402048D01*
X35889859Y-77562211D01*
X36912171Y-77745330D01*
X38078393Y-77952880D01*
X39396345Y-78186332D01*
X40775467Y-78429814D01*
X49788143Y-80018992D01*
X49419556Y-79015345D01*
X48439151Y-78842473D01*
X48359630Y-78841730D01*
X48121261Y-78811996D01*
X47731796Y-78754557D01*
X47198992Y-78670696D01*
X46530604Y-78561703D01*
X45734386Y-78428860D01*
X44818094Y-78273456D01*
X43789482Y-78096774D01*
X42656307Y-77900102D01*
X41426321Y-77684724D01*
X40935315Y-77598273D01*
X39638713Y-77368773D01*
X38446012Y-77155897D01*
X37364023Y-76960917D01*
X36399556Y-76785109D01*
X35559423Y-76629744D01*
X34850437Y-76496098D01*
X34279404Y-76385443D01*
X33853140Y-76299055D01*
X33578452Y-76238206D01*
X33462153Y-76204170D01*
X33458656Y-76199942D01*
X33523289Y-76116599D01*
X33686627Y-75916579D01*
X33939246Y-75611080D01*
X34271724Y-75211298D01*
X34674636Y-74728427D01*
X34960736Y-74386305D01*
X33973408Y-74212212D01*
X33630439Y-74629172D01*
X33287470Y-75046133D01*
X31273545Y-74690496D01*
X29259621Y-74334860D01*
X28658740Y-72681925D01*
X28476201Y-72187064D01*
X28310042Y-71750325D01*
X28169688Y-71395374D01*
X28064562Y-71145878D01*
X28004085Y-71025505D01*
X27996334Y-71018142D01*
X27925973Y-71076815D01*
X27764617Y-71246935D01*
X27529227Y-71509486D01*
X27236762Y-71845458D01*
X26904183Y-72235835D01*
X26804696Y-72354071D01*
X25674584Y-73700849D01*
X25352737Y-73645562D01*
X25139059Y-73589346D01*
X25081695Y-73517452D01*
X25091857Y-73493558D01*
X25176920Y-73380503D01*
X25356124Y-73158512D01*
X25617273Y-72841907D01*
X25948165Y-72445010D01*
X26336601Y-71982143D01*
X26770383Y-71467628D01*
X27237311Y-70915786D01*
X27725184Y-70340938D01*
X28221805Y-69757406D01*
X28714974Y-69179513D01*
X29192490Y-68621579D01*
X29642155Y-68097926D01*
X30051770Y-67622876D01*
X30409134Y-67210750D01*
X30702049Y-66875870D01*
X30918316Y-66632558D01*
X31045734Y-66495135D01*
X31075169Y-66469382D01*
X31118017Y-66549242D01*
X31212539Y-66772976D01*
X31352844Y-67125211D01*
X31533038Y-67590572D01*
X31747234Y-68153685D01*
X31989540Y-68799176D01*
X32254064Y-69511671D01*
X32534916Y-70275797D01*
X32561186Y-70347656D01*
X33973408Y-74212212D01*
X34960736Y-74386305D01*
X35138559Y-74173664D01*
X35654070Y-73558205D01*
X36211745Y-72893248D01*
X36802160Y-72189987D01*
X37415892Y-71459618D01*
X38043518Y-70713339D01*
X38675613Y-69962344D01*
X39302755Y-69217829D01*
X39915520Y-68490992D01*
X40504484Y-67793028D01*
X41060223Y-67135132D01*
X41573314Y-66528502D01*
X42034335Y-65984334D01*
X42433860Y-65513822D01*
X42762466Y-65128163D01*
X43010731Y-64838555D01*
X43169231Y-64656192D01*
X43228541Y-64592271D01*
X43228624Y-64592270D01*
X43261649Y-64670448D01*
X43347445Y-64894048D01*
X43480984Y-65249325D01*
X43657242Y-65722537D01*
X43871193Y-66299940D01*
X44117813Y-66967791D01*
X44392076Y-67712344D01*
X44688956Y-68519858D01*
X45003429Y-69376588D01*
X45330469Y-70268792D01*
X45665050Y-71182725D01*
X46002149Y-72104643D01*
X46336738Y-73020803D01*
X46663794Y-73917462D01*
X46978290Y-74780876D01*
X47275201Y-75597301D01*
X47549503Y-76352994D01*
X47796169Y-77034211D01*
X48010175Y-77627209D01*
X48186496Y-78118243D01*
X48320104Y-78493571D01*
X48405978Y-78739450D01*
X48439089Y-78842133D01*
X48439151Y-78842473D01*
X49419556Y-79015345D01*
X49045434Y-77996632D01*
X51608077Y-78448495D01*
X49670649Y-80772030D01*
X53205721Y-81395358D01*
X56740793Y-82018688D01*
X56386350Y-81045247D01*
X55403321Y-80871912D01*
X55321284Y-80871582D01*
X55095295Y-80844374D01*
X54748005Y-80793718D01*
X54302063Y-80723042D01*
X53780117Y-80635773D01*
X53351743Y-80561379D01*
X52788265Y-80460150D01*
X52284977Y-80366145D01*
X51864339Y-80283854D01*
X51548815Y-80217766D01*
X51360865Y-80172374D01*
X51317137Y-80154597D01*
X51371571Y-80078270D01*
X51517150Y-79894879D01*
X51735462Y-79626472D01*
X52008094Y-79295103D01*
X52316632Y-78922820D01*
X52642665Y-78531675D01*
X52967779Y-78143717D01*
X53273561Y-77780997D01*
X53541597Y-77465565D01*
X53753476Y-77219472D01*
X53890784Y-77064769D01*
X53932049Y-77023108D01*
X53989333Y-77071104D01*
X54082441Y-77233570D01*
X54191729Y-77464987D01*
X54297550Y-77719834D01*
X54380257Y-77952594D01*
X54420202Y-78117746D01*
X54420013Y-78153673D01*
X54363849Y-78236640D01*
X54218525Y-78421701D01*
X54005258Y-78682530D01*
X53745270Y-78992807D01*
X53710254Y-79034098D01*
X53011773Y-79856637D01*
X55213243Y-80292431D01*
X55312661Y-80557336D01*
X55378192Y-80751751D01*
X55403689Y-80867872D01*
X55403321Y-80871912D01*
X56386350Y-81045247D01*
X56172117Y-80456877D01*
X59170013Y-80985487D01*
X59858121Y-81108316D01*
X60490083Y-81224004D01*
X61047341Y-81328936D01*
X61511337Y-81419490D01*
X61863515Y-81492048D01*
X62085319Y-81542990D01*
X62158354Y-81568289D01*
X62103026Y-81654430D01*
X61964839Y-81834356D01*
X61770902Y-82073083D01*
X61718789Y-82135578D01*
X61288780Y-82648675D01*
X81037159Y-86130847D01*
X80863340Y-85666551D01*
X80771114Y-85411411D01*
X80710755Y-85227402D01*
X80696223Y-85164233D01*
X80778123Y-85170119D01*
X81009013Y-85202921D01*
X81371197Y-85259724D01*
X81474742Y-85276676D01*
X77528843Y-84580908D01*
X77488702Y-84580170D01*
X77302659Y-84553655D01*
X76977677Y-84502510D01*
X76520719Y-84427889D01*
X75938748Y-84330941D01*
X75238726Y-84212817D01*
X74427617Y-84074667D01*
X73512385Y-83917642D01*
X72499990Y-83742892D01*
X71397400Y-83551567D01*
X71332137Y-83540214D01*
X70163660Y-83336237D01*
X69043603Y-83139397D01*
X67983073Y-82951717D01*
X66993182Y-82775225D01*
X66085040Y-82611944D01*
X65269756Y-82463901D01*
X64558441Y-82333118D01*
X63962204Y-82221622D01*
X63492155Y-82131438D01*
X63159405Y-82064591D01*
X62975062Y-82023105D01*
X62940094Y-82010577D01*
X63005256Y-81902804D01*
X63080991Y-81820986D01*
X63130671Y-81789349D01*
X63211864Y-81771102D01*
X63342095Y-81768298D01*
X63538885Y-81782987D01*
X63819756Y-81817219D01*
X64202230Y-81873047D01*
X64703829Y-81952521D01*
X65342074Y-82057691D01*
X65896395Y-82150534D01*
X68582794Y-82602228D01*
X68221492Y-81614313D01*
X67227829Y-81439104D01*
X67202024Y-81455280D01*
X67108353Y-81456817D01*
X66937492Y-81442231D01*
X66680114Y-81410034D01*
X66326894Y-81358744D01*
X65868506Y-81286875D01*
X65295626Y-81192942D01*
X64598926Y-81075460D01*
X63769082Y-80932944D01*
X62796769Y-80763908D01*
X61672659Y-80566868D01*
X60939156Y-80437707D01*
X59721932Y-80222558D01*
X58662365Y-80034065D01*
X57751182Y-79870431D01*
X56979111Y-79729864D01*
X56336885Y-79610568D01*
X55815229Y-79510751D01*
X55404873Y-79428618D01*
X55096548Y-79362376D01*
X54880980Y-79310227D01*
X54748900Y-79270381D01*
X54691036Y-79241043D01*
X54687924Y-79227980D01*
X54769954Y-79120048D01*
X54948276Y-78899463D01*
X55212537Y-78578457D01*
X55552383Y-78169262D01*
X55957463Y-77684110D01*
X56417423Y-77135232D01*
X56850341Y-76620029D01*
X55822517Y-76438796D01*
X55781325Y-76536263D01*
X55661391Y-76705549D01*
X55497443Y-76906483D01*
X55324216Y-77098890D01*
X55176436Y-77242599D01*
X55088835Y-77297435D01*
X55082346Y-77294960D01*
X55034138Y-77200745D01*
X54943494Y-76980951D01*
X54824020Y-76669790D01*
X54707490Y-76352159D01*
X54573211Y-75981021D01*
X54456607Y-75662784D01*
X54371520Y-75434987D01*
X54334563Y-75341058D01*
X54262332Y-75358108D01*
X54091446Y-75510577D01*
X53823160Y-75797166D01*
X53458729Y-76216576D01*
X53253813Y-76460143D01*
X52223775Y-77694460D01*
X50472831Y-77385467D01*
X48721886Y-77076474D01*
X48186700Y-75597337D01*
X47651513Y-74118199D01*
X50184200Y-71095007D01*
X50698487Y-70482301D01*
X51179514Y-69911500D01*
X51616419Y-69395328D01*
X51998342Y-68946510D01*
X52314421Y-68577773D01*
X52553796Y-68301840D01*
X52705605Y-68131435D01*
X52758641Y-68078811D01*
X52792341Y-68156412D01*
X52877168Y-68375258D01*
X53006545Y-68717397D01*
X53173891Y-69164876D01*
X53372630Y-69699742D01*
X53596179Y-70304046D01*
X53837960Y-70959833D01*
X54091394Y-71649151D01*
X54349902Y-72354051D01*
X54606904Y-73056577D01*
X54855821Y-73738779D01*
X55090073Y-74382704D01*
X55303082Y-74970401D01*
X55488267Y-75483917D01*
X55639050Y-75905300D01*
X55748851Y-76216598D01*
X55811092Y-76399860D01*
X55822517Y-76438796D01*
X56850341Y-76620029D01*
X56921910Y-76534858D01*
X57460572Y-75895221D01*
X58023056Y-75228552D01*
X58599008Y-74547083D01*
X59178076Y-73863045D01*
X59749906Y-73188669D01*
X60304147Y-72536188D01*
X60830444Y-71917833D01*
X61318444Y-71345833D01*
X61757797Y-70832423D01*
X62138147Y-70389833D01*
X62449143Y-70030294D01*
X62680430Y-69766038D01*
X62821658Y-69609297D01*
X62862963Y-69569559D01*
X62898828Y-69649484D01*
X62987016Y-69873466D01*
X63121982Y-70226429D01*
X63298181Y-70693290D01*
X63510066Y-71258973D01*
X63752093Y-71908394D01*
X64018716Y-72626478D01*
X64304389Y-73398143D01*
X64603570Y-74208310D01*
X64910710Y-75041898D01*
X65220265Y-75883830D01*
X65526690Y-76719024D01*
X65824440Y-77532402D01*
X66107969Y-78308884D01*
X66371731Y-79033390D01*
X66610182Y-79690841D01*
X66817775Y-80266157D01*
X66988968Y-80744259D01*
X67118212Y-81110067D01*
X67199964Y-81348500D01*
X67227829Y-81439104D01*
X68221492Y-81614313D01*
X67658531Y-80075004D01*
X67434194Y-79453326D01*
X67232981Y-78879708D01*
X67061457Y-78374153D01*
X66926185Y-77956660D01*
X66833732Y-77647231D01*
X66790660Y-77465871D01*
X66790031Y-77428653D01*
X66858283Y-77333023D01*
X67023140Y-77124349D01*
X67273510Y-76815790D01*
X67598305Y-76420505D01*
X67986436Y-75951653D01*
X68426814Y-75422390D01*
X68908349Y-74845876D01*
X69419951Y-74235268D01*
X69950533Y-73603726D01*
X70489003Y-72964408D01*
X71024273Y-72330471D01*
X71545254Y-71715075D01*
X72040857Y-71131377D01*
X72499991Y-70592536D01*
X72911567Y-70111711D01*
X73264497Y-69702059D01*
X73547692Y-69376739D01*
X73750060Y-69148909D01*
X73860514Y-69031728D01*
X73877640Y-69018652D01*
X73916589Y-69100203D01*
X74008068Y-69328150D01*
X74147264Y-69689563D01*
X74329361Y-70171511D01*
X74549542Y-70761062D01*
X74802993Y-71445286D01*
X75084898Y-72211254D01*
X75390441Y-73046032D01*
X75714808Y-73936690D01*
X75927978Y-74524329D01*
X77913638Y-80006400D01*
X76232348Y-82002442D01*
X74551057Y-83998486D01*
X77143565Y-84500446D01*
X77416117Y-84554716D01*
X77528843Y-84580908D01*
X81474742Y-85276676D01*
X81846978Y-85337617D01*
X82418662Y-85433689D01*
X83068552Y-85545025D01*
X83778954Y-85668714D01*
X84034346Y-85713631D01*
X87365763Y-86301050D01*
X87081425Y-85520145D01*
X87011322Y-85327610D01*
X86028292Y-85154276D01*
X85945752Y-85148965D01*
X85711065Y-85116292D01*
X85338781Y-85058669D01*
X84843448Y-84978510D01*
X84239616Y-84878231D01*
X83541831Y-84760247D01*
X82764643Y-84626970D01*
X81922601Y-84480814D01*
X81093143Y-84335290D01*
X80063477Y-84152409D01*
X79136169Y-83985024D01*
X78320023Y-83834833D01*
X77623844Y-83703532D01*
X77056434Y-83592819D01*
X76626600Y-83504387D01*
X76343144Y-83439935D01*
X76214872Y-83401157D01*
X76208204Y-83394071D01*
X76276009Y-83305372D01*
X76439960Y-83103931D01*
X76688349Y-82803592D01*
X77009464Y-82418208D01*
X77391600Y-81961623D01*
X77823046Y-81447689D01*
X78292095Y-80890252D01*
X78787037Y-80303161D01*
X79296163Y-79700265D01*
X79807766Y-79095412D01*
X80310135Y-78502449D01*
X80791563Y-77935227D01*
X81240342Y-77407591D01*
X81644761Y-76933393D01*
X81993113Y-76526479D01*
X82273688Y-76200697D01*
X82474778Y-75969898D01*
X82584675Y-75847927D01*
X82601823Y-75832086D01*
X82644098Y-75910250D01*
X82732561Y-76121571D01*
X82856809Y-76439608D01*
X83006445Y-76837918D01*
X83125580Y-77163755D01*
X83604294Y-78487480D01*
X81537331Y-80945918D01*
X79470369Y-83404355D01*
X82653761Y-83988159D01*
X85837152Y-84571963D01*
X85937101Y-84838284D01*
X86002859Y-85033202D01*
X86028666Y-85149938D01*
X86028292Y-85154276D01*
X87011322Y-85327610D01*
X86797088Y-84739239D01*
X87713409Y-84900812D01*
X88112537Y-84973165D01*
X88369685Y-85027553D01*
X88510025Y-85073092D01*
X88558731Y-85118897D01*
X88540976Y-85174085D01*
X88525599Y-85194923D01*
X88428347Y-85314407D01*
X88251213Y-85528301D01*
X88023366Y-85801470D01*
X87871808Y-85982356D01*
X87322145Y-86637250D01*
X99754700Y-88829444D01*
X99531057Y-89090916D01*
X99307415Y-89352386D01*
X112798479Y-91731224D01*
X112544056Y-91020074D01*
X112441000Y-90732016D01*
X111468662Y-90560566D01*
X111385154Y-90566167D01*
X111155328Y-90543818D01*
X110799367Y-90496413D01*
X110337452Y-90426849D01*
X109789767Y-90338024D01*
X109176493Y-90232833D01*
X109138508Y-90226145D01*
X106821426Y-89817582D01*
X106645909Y-89335276D01*
X106571680Y-89131027D01*
X106545784Y-89059703D01*
X105549733Y-88884072D01*
X105523617Y-88897686D01*
X105431487Y-88897612D01*
X105265171Y-88882514D01*
X105016495Y-88851059D01*
X104677287Y-88801910D01*
X104239375Y-88733734D01*
X103694586Y-88645194D01*
X103034747Y-88534957D01*
X102251684Y-88401686D01*
X101337227Y-88244047D01*
X100283201Y-88060705D01*
X99081434Y-87850324D01*
X97723754Y-87611570D01*
X97267689Y-87531190D01*
X96106403Y-87326003D01*
X94993499Y-87128542D01*
X93940151Y-86940835D01*
X92957532Y-86764912D01*
X92056820Y-86602800D01*
X91249189Y-86456528D01*
X90545813Y-86328123D01*
X89957870Y-86219616D01*
X89496533Y-86133032D01*
X89172978Y-86070401D01*
X88998379Y-86033752D01*
X88969763Y-86025100D01*
X89022758Y-85941752D01*
X89152005Y-85769842D01*
X89279596Y-85608783D01*
X89582085Y-85234113D01*
X93518182Y-85904758D01*
X97454278Y-86575403D01*
X97105839Y-85617744D01*
X96108052Y-85441808D01*
X96028479Y-85441324D01*
X95789599Y-85411710D01*
X95398697Y-85354173D01*
X94863060Y-85269920D01*
X94189973Y-85160159D01*
X93386723Y-85026097D01*
X92460597Y-84868944D01*
X91418879Y-84689904D01*
X90268856Y-84490187D01*
X89017814Y-84270999D01*
X88604122Y-84198141D01*
X87307521Y-83968642D01*
X86114820Y-83755765D01*
X85032831Y-83560786D01*
X84068364Y-83384977D01*
X83228232Y-83229612D01*
X82519244Y-83095966D01*
X81948212Y-82985312D01*
X81521947Y-82898923D01*
X81247260Y-82838075D01*
X81130960Y-82804038D01*
X81127464Y-82799810D01*
X81192135Y-82716402D01*
X81355506Y-82516327D01*
X81608155Y-82210782D01*
X81940658Y-81810962D01*
X82343593Y-81328062D01*
X82807534Y-80773280D01*
X83323058Y-80157809D01*
X83880743Y-79492846D01*
X84471166Y-78789587D01*
X85084900Y-78059228D01*
X85712526Y-77312964D01*
X86344618Y-76561991D01*
X86971752Y-75817504D01*
X87584505Y-75090701D01*
X88173455Y-74392775D01*
X88729178Y-73734923D01*
X89242248Y-73128341D01*
X89703246Y-72584225D01*
X90102745Y-72113769D01*
X90431322Y-71728171D01*
X90679554Y-71438625D01*
X90838018Y-71256328D01*
X90897291Y-71192475D01*
X90897372Y-71192475D01*
X90930426Y-71270698D01*
X91016252Y-71494342D01*
X91149825Y-71849660D01*
X91326119Y-72322908D01*
X91540106Y-72900343D01*
X91786763Y-73568220D01*
X92061062Y-74312796D01*
X92357977Y-75120323D01*
X92672482Y-75977060D01*
X92999553Y-76869260D01*
X93334162Y-77783182D01*
X93671283Y-78705079D01*
X94005890Y-79621207D01*
X94332958Y-80517824D01*
X94647460Y-81381182D01*
X94944371Y-82197538D01*
X95218663Y-82953149D01*
X95465312Y-83634269D01*
X95679292Y-84227154D01*
X95855575Y-84718061D01*
X95989136Y-85093244D01*
X96074950Y-85338959D01*
X96107990Y-85441462D01*
X96108052Y-85441808D01*
X97105839Y-85617744D01*
X94735527Y-79103116D01*
X97219998Y-76137450D01*
X97730428Y-75530304D01*
X98208986Y-74965203D01*
X98644512Y-74455030D01*
X99025841Y-74012666D01*
X99341813Y-73650997D01*
X99581268Y-73382903D01*
X99733043Y-73221268D01*
X99784670Y-73177196D01*
X99820805Y-73255146D01*
X99909908Y-73479184D01*
X100047175Y-73836225D01*
X100227801Y-74313184D01*
X100446985Y-74896975D01*
X100699925Y-75574512D01*
X100981817Y-76332709D01*
X101287857Y-77158483D01*
X101613244Y-78038745D01*
X101953172Y-78960411D01*
X102302843Y-79910395D01*
X102657449Y-80875613D01*
X103012189Y-81842976D01*
X103362262Y-82799402D01*
X103702861Y-83731804D01*
X104029187Y-84627095D01*
X104336435Y-85472192D01*
X104619803Y-86254007D01*
X104874486Y-86959457D01*
X105095684Y-87575453D01*
X105278592Y-88088912D01*
X105418407Y-88486747D01*
X105510327Y-88755874D01*
X105549549Y-88883206D01*
X105549733Y-88884072D01*
X106545784Y-89059703D01*
X106448911Y-88792897D01*
X106286784Y-88346188D01*
X106094484Y-87816211D01*
X105881193Y-87228272D01*
X105656095Y-86607677D01*
X105616121Y-86497454D01*
X104761850Y-84141939D01*
X106269772Y-82336979D01*
X106663531Y-81867613D01*
X107021916Y-81444161D01*
X107330715Y-81083115D01*
X107575710Y-80800970D01*
X107742689Y-80614220D01*
X107817437Y-80539360D01*
X107819507Y-80538675D01*
X107856572Y-80617041D01*
X107944114Y-80837456D01*
X108075637Y-81182511D01*
X108244641Y-81634795D01*
X108444628Y-82176897D01*
X108669099Y-82791409D01*
X108911555Y-83460920D01*
X108947291Y-83560067D01*
X110033263Y-86574801D01*
X108837994Y-87989188D01*
X107642724Y-89403575D01*
X109447345Y-89743287D01*
X110041071Y-89855820D01*
X110490233Y-89944048D01*
X110816829Y-90014178D01*
X111042855Y-90072412D01*
X111190312Y-90124956D01*
X111281196Y-90178016D01*
X111337505Y-90237795D01*
X111366851Y-90284711D01*
X111447843Y-90459174D01*
X111468662Y-90560566D01*
X112441000Y-90732016D01*
X112289634Y-90308923D01*
X114138855Y-90611819D01*
X114676644Y-90701351D01*
X115155298Y-90783797D01*
X115550562Y-90854753D01*
X115838178Y-90909811D01*
X115993893Y-90944568D01*
X116014517Y-90952476D01*
X115974912Y-91028819D01*
X115846984Y-91204340D01*
X115652786Y-91449803D01*
X115498227Y-91636874D01*
X114955495Y-92283511D01*
X124361438Y-93942032D01*
X124132850Y-93312806D01*
X124026493Y-93010524D01*
X123993853Y-92910023D01*
X123010277Y-92736592D01*
X122984234Y-92760271D01*
X122883982Y-92765767D01*
X122696757Y-92751258D01*
X122409795Y-92714922D01*
X122010330Y-92654936D01*
X121485601Y-92569477D01*
X120822841Y-92456723D01*
X120009287Y-92314852D01*
X119805914Y-92279042D01*
X118957343Y-92128342D01*
X118263245Y-92002447D01*
X117711005Y-91898704D01*
X117288003Y-91814459D01*
X116981622Y-91747060D01*
X116779244Y-91693854D01*
X116668251Y-91652188D01*
X116636025Y-91619410D01*
X116638306Y-91613042D01*
X116727424Y-91492893D01*
X116906923Y-91269093D01*
X117162099Y-90958887D01*
X117478241Y-90579516D01*
X117840644Y-90148225D01*
X118234600Y-89682254D01*
X118645403Y-89198849D01*
X119058343Y-88715250D01*
X119089451Y-88679001D01*
X118088281Y-88502468D01*
X118064537Y-88557632D01*
X118055167Y-88569320D01*
X117946470Y-88694841D01*
X117757361Y-88916354D01*
X117516438Y-89200272D01*
X117303654Y-89452082D01*
X116688193Y-90181794D01*
X112973545Y-89526801D01*
X112158618Y-89381445D01*
X111417706Y-89246013D01*
X110764992Y-89123299D01*
X110214658Y-89016100D01*
X109780888Y-88927212D01*
X109477865Y-88859431D01*
X109319770Y-88815552D01*
X109299763Y-88802568D01*
X109368224Y-88713725D01*
X109532718Y-88512421D01*
X109781414Y-88212625D01*
X110102482Y-87828305D01*
X110484089Y-87373432D01*
X110914407Y-86861973D01*
X111381602Y-86307897D01*
X111873843Y-85725173D01*
X112379301Y-85127771D01*
X112886142Y-84529657D01*
X113382538Y-83944804D01*
X113856656Y-83387178D01*
X114296665Y-82870748D01*
X114690734Y-82409485D01*
X115027032Y-82017355D01*
X115293727Y-81708329D01*
X115478990Y-81496376D01*
X115570988Y-81395463D01*
X115578856Y-81388909D01*
X115615931Y-81467416D01*
X115704784Y-81688982D01*
X115839343Y-82037521D01*
X116013537Y-82496944D01*
X116221295Y-83051168D01*
X116456543Y-83684104D01*
X116713211Y-84379666D01*
X116906458Y-84906368D01*
X117215164Y-85751565D01*
X117469149Y-86452279D01*
X117672858Y-87022683D01*
X117830738Y-87476955D01*
X117947233Y-87829269D01*
X118026789Y-88093801D01*
X118073852Y-88284728D01*
X118092868Y-88416225D01*
X118088281Y-88502468D01*
X119089451Y-88679001D01*
X119458714Y-88248702D01*
X119831810Y-87816446D01*
X120162921Y-87435727D01*
X120437342Y-87123788D01*
X120640365Y-86897869D01*
X120757281Y-86775216D01*
X120779424Y-86757988D01*
X120819473Y-86836233D01*
X120909387Y-87052412D01*
X121041244Y-87385291D01*
X121207120Y-87813639D01*
X121399093Y-88316220D01*
X121609239Y-88871803D01*
X121829637Y-89459154D01*
X122052362Y-90057039D01*
X122269492Y-90644226D01*
X122473104Y-91199481D01*
X122655275Y-91701570D01*
X122808081Y-92129263D01*
X122923602Y-92461322D01*
X122993912Y-92676518D01*
X123010277Y-92736592D01*
X123993853Y-92910023D01*
X123949154Y-92772395D01*
X123914339Y-92640565D01*
X123913819Y-92629389D01*
X123996610Y-92635339D01*
X124233684Y-92668901D01*
X124612616Y-92727990D01*
X125120980Y-92810516D01*
X125746351Y-92914391D01*
X126476303Y-93037526D01*
X127298413Y-93177836D01*
X128200253Y-93333229D01*
X129169399Y-93501619D01*
X130193425Y-93680917D01*
X130672448Y-93765242D01*
X137421522Y-94955286D01*
X137058445Y-93949352D01*
X136077330Y-93776355D01*
X135997818Y-93778501D01*
X135757166Y-93750570D01*
X135360713Y-93693435D01*
X134813802Y-93607967D01*
X134121771Y-93495044D01*
X133289963Y-93355535D01*
X132323715Y-93190318D01*
X131228370Y-93000263D01*
X130009266Y-92786246D01*
X129810154Y-92751088D01*
X123529237Y-91641212D01*
X123140368Y-90555461D01*
X122998884Y-90153244D01*
X122882255Y-89807922D01*
X122800692Y-89550796D01*
X122764407Y-89413163D01*
X122763662Y-89400730D01*
X122818584Y-89325155D01*
X122971872Y-89132907D01*
X123213272Y-88836255D01*
X123532525Y-88447467D01*
X123919376Y-87978809D01*
X124363569Y-87442551D01*
X124854845Y-86850957D01*
X125382951Y-86216297D01*
X125937628Y-85550838D01*
X126508619Y-84866846D01*
X127085671Y-84176590D01*
X127658523Y-83492337D01*
X128216922Y-82826355D01*
X128750608Y-82190910D01*
X129249329Y-81598271D01*
X129702825Y-81060705D01*
X130100840Y-80590479D01*
X130433120Y-80199860D01*
X130689405Y-79901117D01*
X130859441Y-79706517D01*
X130932970Y-79628328D01*
X130934931Y-79627356D01*
X130967954Y-79705629D01*
X131053432Y-79929374D01*
X131186345Y-80284785D01*
X131361676Y-80758051D01*
X131574405Y-81335366D01*
X131819514Y-82002921D01*
X132091984Y-82746906D01*
X132386797Y-83553514D01*
X132698934Y-84408938D01*
X133023375Y-85299367D01*
X133355105Y-86210994D01*
X133689103Y-87130010D01*
X134020350Y-88042607D01*
X134343828Y-88934978D01*
X134654519Y-89793312D01*
X134947402Y-90603801D01*
X135217462Y-91352638D01*
X135459678Y-92026014D01*
X135669033Y-92610121D01*
X135840507Y-93091150D01*
X135969081Y-93455293D01*
X136049738Y-93688741D01*
X136077330Y-93776355D01*
X137058445Y-93949352D01*
X136965851Y-93692812D01*
X136510180Y-92430339D01*
X137302023Y-92545357D01*
X137780430Y-92620931D01*
X138319040Y-92715248D01*
X138812874Y-92809796D01*
X138881191Y-92823806D01*
X139668516Y-92987239D01*
X138749248Y-94093247D01*
X137829981Y-95199253D01*
X143494104Y-96197991D01*
X144449072Y-96367301D01*
X145353130Y-96529378D01*
X146192765Y-96681686D01*
X146954458Y-96821686D01*
X147624694Y-96946842D01*
X148189955Y-97054616D01*
X148636726Y-97142470D01*
X148951489Y-97207865D01*
X149120729Y-97248267D01*
X149146889Y-97259209D01*
X149088179Y-97358084D01*
X148957408Y-97523295D01*
X148922545Y-97563543D01*
X148709540Y-97805395D01*
X164628164Y-100612278D01*
X164264145Y-99623500D01*
X163276496Y-99449351D01*
X163200669Y-99451447D01*
X162977780Y-99425002D01*
X162627122Y-99373102D01*
X162167984Y-99298830D01*
X161619662Y-99205271D01*
X161001448Y-99095510D01*
X160566797Y-99016113D01*
X157840420Y-98512701D01*
X157546948Y-97708693D01*
X156553935Y-97533598D01*
X156527814Y-97546948D01*
X156435869Y-97546704D01*
X156270048Y-97531547D01*
X156022298Y-97500160D01*
X155684569Y-97451222D01*
X155248806Y-97383417D01*
X154706960Y-97295424D01*
X154050977Y-97185927D01*
X153272804Y-97053605D01*
X152364391Y-96897142D01*
X151317685Y-96715217D01*
X150124632Y-96506514D01*
X148777184Y-96269713D01*
X148012853Y-96135040D01*
X146582067Y-95882377D01*
X145310144Y-95656906D01*
X144189070Y-95457112D01*
X143210824Y-95281478D01*
X142367392Y-95128491D01*
X141650755Y-94996636D01*
X141052894Y-94884398D01*
X140565794Y-94790261D01*
X140181437Y-94712711D01*
X139891805Y-94650231D01*
X139688880Y-94601309D01*
X139564646Y-94564428D01*
X139511085Y-94538073D01*
X139508500Y-94528028D01*
X139581463Y-94432942D01*
X139753218Y-94221295D01*
X140014910Y-93903602D01*
X140357680Y-93490378D01*
X140772672Y-92992136D01*
X141251031Y-92419392D01*
X141783897Y-91782660D01*
X142362414Y-91092455D01*
X142977727Y-90359291D01*
X143620977Y-89593683D01*
X144283307Y-88806146D01*
X144542085Y-88498734D01*
X143565829Y-88326594D01*
X142366859Y-89757433D01*
X141985226Y-90212755D01*
X141611690Y-90658211D01*
X141270004Y-91065490D01*
X140983917Y-91406282D01*
X140777184Y-91652278D01*
X140742433Y-91693569D01*
X140316976Y-92198866D01*
X136174138Y-91468372D01*
X135445333Y-89451894D01*
X135247162Y-88898452D01*
X135070746Y-88395879D01*
X134923666Y-87966590D01*
X134813503Y-87633001D01*
X134747841Y-87417526D01*
X134732535Y-87344623D01*
X134787981Y-87264890D01*
X134939914Y-87071277D01*
X135176231Y-86778269D01*
X135484829Y-86400347D01*
X135853605Y-85951996D01*
X136270457Y-85447699D01*
X136723282Y-84901940D01*
X137199977Y-84329202D01*
X137688438Y-83743967D01*
X138176563Y-83160721D01*
X138652249Y-82593946D01*
X139103393Y-82058126D01*
X139517893Y-81567743D01*
X139883645Y-81137282D01*
X140188545Y-80781226D01*
X140420494Y-80514058D01*
X140567386Y-80350262D01*
X140616671Y-80303130D01*
X140652787Y-80381830D01*
X140740729Y-80604753D01*
X140874885Y-80956827D01*
X141049643Y-81422981D01*
X141259390Y-81988145D01*
X141498513Y-82637247D01*
X141761402Y-83355217D01*
X142042443Y-84126982D01*
X142112054Y-84318768D01*
X143565829Y-88326594D01*
X144542085Y-88498734D01*
X144955862Y-88007194D01*
X145629784Y-87207342D01*
X146296216Y-86417104D01*
X146946301Y-85646995D01*
X147571182Y-84907530D01*
X148162004Y-84209223D01*
X148709908Y-83562589D01*
X149206037Y-82978142D01*
X149641535Y-82466397D01*
X150007544Y-82037869D01*
X150295209Y-81703073D01*
X150495673Y-81472522D01*
X150600078Y-81356731D01*
X150613242Y-81344844D01*
X150648437Y-81422365D01*
X150736733Y-81646156D01*
X150873401Y-82003335D01*
X151053713Y-82481018D01*
X151272942Y-83066322D01*
X151526360Y-83746364D01*
X151809241Y-84508262D01*
X152116856Y-85339133D01*
X152444478Y-86226091D01*
X152787378Y-87156257D01*
X153140829Y-88116746D01*
X153500105Y-89094674D01*
X153860477Y-90077160D01*
X154217217Y-91051321D01*
X154565599Y-92004273D01*
X154900894Y-92923132D01*
X155218374Y-93795018D01*
X155513314Y-94607044D01*
X155780983Y-95346330D01*
X156016656Y-95999993D01*
X156215604Y-96555148D01*
X156373099Y-96998914D01*
X156484416Y-97318408D01*
X156544824Y-97500744D01*
X156553935Y-97533598D01*
X157546948Y-97708693D01*
X156599452Y-95112893D01*
X156334650Y-94386567D01*
X156086705Y-93704818D01*
X155861926Y-93085114D01*
X155666618Y-92544919D01*
X155507092Y-92101703D01*
X155389657Y-91772930D01*
X155320619Y-91576067D01*
X155305539Y-91530262D01*
X155305841Y-91459907D01*
X155346949Y-91355319D01*
X155439002Y-91202972D01*
X155592135Y-90989346D01*
X155816485Y-90700917D01*
X156122189Y-90324163D01*
X156519382Y-89845563D01*
X156976973Y-89300523D01*
X157401054Y-88799611D01*
X157791578Y-88343108D01*
X158134964Y-87946511D01*
X158417634Y-87625323D01*
X158626007Y-87395043D01*
X158746502Y-87271173D01*
X158769936Y-87253958D01*
X158803892Y-87304654D01*
X158874141Y-87460240D01*
X158982747Y-87726220D01*
X159131771Y-88108101D01*
X159323278Y-88611386D01*
X159559330Y-89241578D01*
X159841989Y-90004183D01*
X160173318Y-90904706D01*
X160555381Y-91948650D01*
X160990239Y-93141522D01*
X161442278Y-94385051D01*
X161962634Y-95818116D01*
X160333503Y-97748680D01*
X162864107Y-98242057D01*
X163061962Y-98810617D01*
X163162186Y-99101563D01*
X163238754Y-99329322D01*
X163275894Y-99446939D01*
X163276496Y-99449351D01*
X164264145Y-99623500D01*
X163832733Y-98451662D01*
X165463831Y-98715916D01*
X165967661Y-98799164D01*
X166410983Y-98875508D01*
X166767897Y-98940232D01*
X167012501Y-98988622D01*
X167118890Y-99015961D01*
X167121157Y-99017626D01*
X167079439Y-99092335D01*
X166946900Y-99271806D01*
X166742353Y-99531752D01*
X166484613Y-99847887D01*
X166387443Y-99964772D01*
X165627501Y-100874461D01*
X172641738Y-102111260D01*
X172468399Y-102295627D01*
X172295062Y-102479996D01*
X179473463Y-103745741D01*
X179286947Y-103311273D01*
X185439548Y-104339014D01*
X186547552Y-104524547D01*
X187689031Y-104716517D01*
X188840032Y-104910849D01*
X189976602Y-105103463D01*
X191074784Y-105290282D01*
X192110625Y-105467228D01*
X193060172Y-105630222D01*
X193899470Y-105775188D01*
X194604565Y-105898046D01*
X194827402Y-105937218D01*
X198062655Y-106507681D01*
X197892130Y-106052587D01*
X178115773Y-102565482D01*
X178039590Y-102577403D01*
X177810497Y-102558249D01*
X177441687Y-102509830D01*
X176946359Y-102433962D01*
X176337707Y-102332459D01*
X176031285Y-102279065D01*
X175377142Y-102160608D01*
X174832412Y-102055559D01*
X174410118Y-101966726D01*
X174123279Y-101896922D01*
X173984918Y-101848953D01*
X173974547Y-101835272D01*
X174047465Y-101736044D01*
X174207887Y-101534734D01*
X174437874Y-101252735D01*
X174719488Y-100911434D01*
X175034791Y-100532222D01*
X175365843Y-100136489D01*
X175694705Y-99745624D01*
X176003438Y-99381017D01*
X176274105Y-99064058D01*
X176488766Y-98816136D01*
X176629482Y-98658643D01*
X176677916Y-98611837D01*
X176714380Y-98689006D01*
X176797810Y-98899565D01*
X176918668Y-99217280D01*
X177067411Y-99615915D01*
X177234498Y-100069237D01*
X177410388Y-100551008D01*
X177585541Y-101034995D01*
X177750413Y-101494960D01*
X177895467Y-101904671D01*
X178011157Y-102237891D01*
X178087945Y-102468386D01*
X178115773Y-102565482D01*
X197892130Y-106052587D01*
X197821201Y-105863297D01*
X201744812Y-106555136D01*
X201609237Y-106165845D01*
X196709274Y-105301849D01*
X196683133Y-105315897D01*
X196590656Y-105316098D01*
X196423472Y-105301089D01*
X196173202Y-105269507D01*
X195831476Y-105219992D01*
X195389917Y-105151178D01*
X194840152Y-105061706D01*
X194173806Y-104950214D01*
X193382507Y-104815337D01*
X192457879Y-104655714D01*
X191391549Y-104469983D01*
X190175141Y-104256781D01*
X188835008Y-104020870D01*
X187464153Y-103778741D01*
X186251855Y-103563674D01*
X185189781Y-103374083D01*
X184269593Y-103208387D01*
X183482958Y-103065000D01*
X182821542Y-102942339D01*
X182277006Y-102838819D01*
X181841018Y-102752857D01*
X181505243Y-102682869D01*
X181261344Y-102627269D01*
X181100987Y-102584476D01*
X181015838Y-102552904D01*
X180997276Y-102531400D01*
X181069866Y-102436340D01*
X181240625Y-102225023D01*
X181500365Y-101908403D01*
X181839896Y-101497432D01*
X182250027Y-101003066D01*
X182721571Y-100436258D01*
X183245337Y-99807962D01*
X183812136Y-99129130D01*
X184412777Y-98410718D01*
X184944227Y-97775795D01*
X183966109Y-97603326D01*
X182118400Y-99820612D01*
X181671630Y-100356320D01*
X181251106Y-100859751D01*
X180871226Y-101313729D01*
X180546391Y-101701076D01*
X180290998Y-102004617D01*
X180119445Y-102207176D01*
X180057002Y-102279632D01*
X179914585Y-102420541D01*
X179775551Y-102478871D01*
X179574151Y-102471470D01*
X179411033Y-102445141D01*
X178978752Y-102368919D01*
X178005420Y-99661097D01*
X177773788Y-99021204D01*
X177558331Y-98434607D01*
X177366062Y-97919743D01*
X177203997Y-97495048D01*
X177079148Y-97178957D01*
X176998531Y-96989905D01*
X176971078Y-96942517D01*
X176904524Y-97002764D01*
X176743220Y-97178791D01*
X176500050Y-97455653D01*
X176187898Y-97818406D01*
X175819648Y-98252108D01*
X175408185Y-98741815D01*
X175073018Y-99144036D01*
X173235968Y-101356311D01*
X170251222Y-100830020D01*
X169564650Y-100707628D01*
X168934214Y-100592679D01*
X168378519Y-100488764D01*
X167916167Y-100399471D01*
X167565765Y-100328389D01*
X167345917Y-100279110D01*
X167274936Y-100255740D01*
X167329992Y-100173030D01*
X167468623Y-99996157D01*
X167663866Y-99759230D01*
X167721433Y-99690988D01*
X168159469Y-99174222D01*
X172901024Y-99964673D01*
X172540448Y-98976886D01*
X171547076Y-98801728D01*
X171521146Y-98820680D01*
X171425118Y-98823797D01*
X171248384Y-98809448D01*
X170980336Y-98775999D01*
X170610365Y-98721818D01*
X170127863Y-98645272D01*
X169522221Y-98544730D01*
X168782831Y-98418558D01*
X167899085Y-98265125D01*
X166860373Y-98082796D01*
X166758536Y-98064846D01*
X165705539Y-97878479D01*
X164808995Y-97718151D01*
X164058378Y-97581767D01*
X163443159Y-97467234D01*
X162952813Y-97372456D01*
X162576811Y-97295339D01*
X162304628Y-97233790D01*
X162125734Y-97185713D01*
X162029605Y-97149016D01*
X162005714Y-97121603D01*
X162006752Y-97119511D01*
X162085908Y-97014877D01*
X162259850Y-96799415D01*
X162516663Y-96487219D01*
X162844433Y-96092382D01*
X163231245Y-95628995D01*
X163665186Y-95111153D01*
X164134338Y-94552948D01*
X164626791Y-93968474D01*
X165130628Y-93371823D01*
X165633935Y-92777087D01*
X166124797Y-92198360D01*
X166591300Y-91649736D01*
X167021528Y-91145306D01*
X167403569Y-90699163D01*
X167725508Y-90325401D01*
X167975429Y-90038113D01*
X168141419Y-89851390D01*
X168211562Y-89779328D01*
X168212655Y-89778937D01*
X168249914Y-89855673D01*
X168338576Y-90074329D01*
X168472269Y-90417653D01*
X168644614Y-90868396D01*
X168849239Y-91409305D01*
X169079768Y-92023131D01*
X169329826Y-92692622D01*
X169593036Y-93400527D01*
X169863025Y-94129596D01*
X170133417Y-94862577D01*
X170397838Y-95582219D01*
X170649911Y-96271274D01*
X170883261Y-96912487D01*
X171091514Y-97488609D01*
X171268295Y-97982390D01*
X171407227Y-98376577D01*
X171501936Y-98653921D01*
X171546048Y-98797170D01*
X171547076Y-98801728D01*
X172540448Y-98976886D01*
X172146330Y-97897213D01*
X171939920Y-97329977D01*
X171750957Y-96807316D01*
X171587849Y-96352744D01*
X171458997Y-95989778D01*
X171372807Y-95741934D01*
X171339144Y-95638548D01*
X171341449Y-95587754D01*
X171374110Y-95507050D01*
X171443896Y-95387944D01*
X171557571Y-95221938D01*
X171721906Y-95000541D01*
X171943667Y-94715256D01*
X172229622Y-94357588D01*
X172586537Y-93919043D01*
X173021181Y-93391125D01*
X173540320Y-92765341D01*
X174150724Y-92033193D01*
X174859158Y-91186190D01*
X175407424Y-90531838D01*
X176067039Y-89745744D01*
X176695103Y-88998676D01*
X177283154Y-88300611D01*
X177822734Y-87661526D01*
X178305381Y-87091396D01*
X178722635Y-86600197D01*
X179066035Y-86197907D01*
X179327121Y-85894502D01*
X179497432Y-85699957D01*
X179568509Y-85624249D01*
X179569902Y-85623604D01*
X179604809Y-85702347D01*
X179692835Y-85927990D01*
X179829422Y-86288222D01*
X180010010Y-86770732D01*
X180230044Y-87363213D01*
X180484965Y-88053353D01*
X180770217Y-88828843D01*
X181081243Y-89677373D01*
X181413483Y-90586635D01*
X181762382Y-91544316D01*
X181788857Y-91617101D01*
X183966109Y-97603326D01*
X184944227Y-97775795D01*
X185038072Y-97663678D01*
X185678831Y-96898966D01*
X186325865Y-96127533D01*
X186969983Y-95360334D01*
X187601997Y-94608323D01*
X188212717Y-93882452D01*
X188792953Y-93193677D01*
X189333516Y-92552951D01*
X189825217Y-91971228D01*
X190258864Y-91459460D01*
X190625270Y-91028602D01*
X190915244Y-90689609D01*
X191119598Y-90453432D01*
X191229140Y-90331027D01*
X191245387Y-90315897D01*
X191280476Y-90393250D01*
X191368141Y-90616484D01*
X191503494Y-90972193D01*
X191681647Y-91446973D01*
X191897713Y-92027419D01*
X192146805Y-92700126D01*
X192424035Y-93451690D01*
X192724516Y-94268705D01*
X193043361Y-95137767D01*
X193375681Y-96045471D01*
X193716591Y-96978412D01*
X194061201Y-97923185D01*
X194404626Y-98866385D01*
X194741977Y-99794608D01*
X195068367Y-100694449D01*
X195378909Y-101552504D01*
X195668715Y-102355365D01*
X195932898Y-103089630D01*
X196166569Y-103741894D01*
X196364844Y-104298751D01*
X196522833Y-104746798D01*
X196635649Y-105072628D01*
X196698405Y-105262838D01*
X196709274Y-105301849D01*
X201609237Y-106165845D01*
X201457712Y-105730757D01*
X203127020Y-106025101D01*
X202432218Y-106848289D01*
X201737416Y-107671477D01*
X223739025Y-111550954D01*
X223370683Y-110546161D01*
X222390586Y-110373344D01*
X222310517Y-110371633D01*
X222069726Y-110340704D01*
X221674110Y-110281546D01*
X221129565Y-110195150D01*
X220441987Y-110082505D01*
X219617270Y-109944600D01*
X218661310Y-109782426D01*
X217580004Y-109596974D01*
X216379248Y-109389233D01*
X215064937Y-109160192D01*
X213642967Y-108910841D01*
X212885417Y-108777443D01*
X211518478Y-108535752D01*
X210229273Y-108306486D01*
X209025966Y-108091150D01*
X207916716Y-107891251D01*
X206909686Y-107708294D01*
X206013036Y-107543783D01*
X205234927Y-107399223D01*
X204583520Y-107276122D01*
X204066978Y-107175983D01*
X203693459Y-107100313D01*
X203471126Y-107050616D01*
X203407123Y-107029129D01*
X203471305Y-106947336D01*
X203635493Y-106747390D01*
X203891303Y-106439232D01*
X204214525Y-106051777D01*
X200402358Y-105379590D01*
X200328120Y-105394121D01*
X200108578Y-105378228D01*
X199764523Y-105334433D01*
X199316749Y-105265258D01*
X198964298Y-105205128D01*
X197511973Y-104949044D01*
X197040963Y-103639083D01*
X196883934Y-103195950D01*
X196750715Y-102807732D01*
X196650651Y-102502663D01*
X196593083Y-102308970D01*
X196583005Y-102255106D01*
X196638842Y-102167664D01*
X196781551Y-101981005D01*
X196989344Y-101721181D01*
X197240438Y-101414242D01*
X197513046Y-101086240D01*
X197785383Y-100763225D01*
X198035663Y-100471247D01*
X198242100Y-100236357D01*
X198382911Y-100084605D01*
X198435042Y-100040477D01*
X198470711Y-100117870D01*
X198555664Y-100332020D01*
X198681614Y-100660436D01*
X198840273Y-101080628D01*
X199023355Y-101570105D01*
X199222571Y-102106376D01*
X199429636Y-102666954D01*
X199636263Y-103229347D01*
X199834163Y-103771063D01*
X200015051Y-104269616D01*
X200170640Y-104702512D01*
X200292641Y-105047262D01*
X200372769Y-105281375D01*
X200402358Y-105379590D01*
X204214525Y-106051777D01*
X204230353Y-106032805D01*
X204644258Y-105538050D01*
X205124638Y-104964912D01*
X205663108Y-104323331D01*
X206251286Y-103623252D01*
X206880788Y-102874614D01*
X207543233Y-102087361D01*
X208230236Y-101271436D01*
X208582045Y-100853848D01*
X207508811Y-100664608D01*
X207457850Y-100754481D01*
X207309708Y-100957750D01*
X207076832Y-101258755D01*
X206771669Y-101641838D01*
X206406669Y-102091339D01*
X205994279Y-102591601D01*
X205630667Y-103027300D01*
X203745171Y-105274488D01*
X202430470Y-105021119D01*
X201115768Y-104767749D01*
X200690510Y-103608874D01*
X200265252Y-102449999D01*
X203002550Y-99181208D01*
X203537627Y-98543341D01*
X204039747Y-97946901D01*
X204498480Y-97404126D01*
X204903396Y-96927253D01*
X205244070Y-96528520D01*
X205510072Y-96220163D01*
X205690973Y-96014420D01*
X205776346Y-95923529D01*
X205781468Y-95920165D01*
X205820032Y-95998190D01*
X205906311Y-96211889D01*
X206031580Y-96537286D01*
X206187108Y-96950408D01*
X206364166Y-97427279D01*
X206554027Y-97943924D01*
X206747961Y-98476369D01*
X206937239Y-99000638D01*
X207113134Y-99492757D01*
X207266916Y-99928752D01*
X207389856Y-100284646D01*
X207473227Y-100536466D01*
X207508299Y-100660237D01*
X207508811Y-100664608D01*
X208582045Y-100853848D01*
X208933415Y-100436782D01*
X209644388Y-99593338D01*
X210354771Y-98751051D01*
X211056181Y-97919858D01*
X211740235Y-97109707D01*
X212398551Y-96330536D01*
X213022745Y-95592291D01*
X213604435Y-94904910D01*
X214135238Y-94278340D01*
X214606769Y-93722520D01*
X215010649Y-93247394D01*
X215338492Y-92862904D01*
X215581915Y-92578992D01*
X215732537Y-92405601D01*
X215781956Y-92352242D01*
X215814707Y-92430467D01*
X215900994Y-92655567D01*
X216036338Y-93015334D01*
X216216263Y-93497556D01*
X216436291Y-94090023D01*
X216691942Y-94780525D01*
X216978743Y-95556852D01*
X217292212Y-96406795D01*
X217627873Y-97318143D01*
X217981249Y-98278687D01*
X218347863Y-99276215D01*
X218723235Y-100298519D01*
X219102889Y-101333387D01*
X219482347Y-102368609D01*
X219857132Y-103391977D01*
X220222764Y-104391280D01*
X220574768Y-105354308D01*
X220908666Y-106268850D01*
X221219980Y-107122695D01*
X221504231Y-107903636D01*
X221756944Y-108599462D01*
X221973639Y-109197962D01*
X222149841Y-109686925D01*
X222281069Y-110054144D01*
X222362847Y-110287406D01*
X222390586Y-110373344D01*
X223370683Y-110546161D01*
X223250457Y-110218202D01*
X222761889Y-108885448D01*
X224678379Y-109223377D01*
X225290882Y-109332085D01*
X225755258Y-109417130D01*
X226090294Y-109483390D01*
X226314775Y-109535740D01*
X226447489Y-109579057D01*
X226507217Y-109618219D01*
X226512747Y-109658101D01*
X226490740Y-109693845D01*
X226393488Y-109813331D01*
X226216353Y-110027224D01*
X225988506Y-110300392D01*
X225836948Y-110481278D01*
X225287286Y-111136173D01*
X240613237Y-113838551D01*
X240384649Y-113209326D01*
X240278292Y-112907043D01*
X240258717Y-112846771D01*
X239279750Y-112674153D01*
X239196609Y-112670740D01*
X238959781Y-112639663D01*
X238582268Y-112583069D01*
X238077071Y-112503106D01*
X237457192Y-112401918D01*
X236735633Y-112281652D01*
X235925396Y-112144456D01*
X235039481Y-111992473D01*
X234090892Y-111827852D01*
X233097708Y-111653632D01*
X232099934Y-111477017D01*
X231152415Y-111307969D01*
X230268108Y-111148887D01*
X229459975Y-111002162D01*
X228740970Y-110870190D01*
X228124054Y-110755362D01*
X227622184Y-110660073D01*
X227248317Y-110586717D01*
X227015413Y-110537689D01*
X226936420Y-110515422D01*
X226990869Y-110427367D01*
X227121969Y-110253105D01*
X227245956Y-110098363D01*
X227546633Y-109731552D01*
X230062411Y-110152446D01*
X232578189Y-110573341D01*
X232235479Y-109631690D01*
X231245834Y-109457189D01*
X231163646Y-109454982D01*
X230930187Y-109425310D01*
X230560846Y-109370664D01*
X230071013Y-109293535D01*
X229476079Y-109196413D01*
X228791434Y-109081790D01*
X228032470Y-108952155D01*
X227214576Y-108810002D01*
X226840364Y-108744194D01*
X222442164Y-107968001D01*
X221993467Y-106733973D01*
X221839739Y-106304061D01*
X221710517Y-105929021D01*
X221615501Y-105638121D01*
X221564398Y-105460629D01*
X221558518Y-105421977D01*
X221615061Y-105337751D01*
X221768303Y-105141002D01*
X222005864Y-104846399D01*
X222315368Y-104468610D01*
X222684440Y-104022305D01*
X223100700Y-103522154D01*
X223551772Y-102982824D01*
X224025278Y-102418985D01*
X224508843Y-101845306D01*
X224990087Y-101276457D01*
X225456635Y-100727105D01*
X225896108Y-100211920D01*
X226296131Y-99745572D01*
X226644325Y-99342729D01*
X226928313Y-99018059D01*
X227135719Y-98786234D01*
X227254165Y-98661919D01*
X227276932Y-98644697D01*
X227314706Y-98725017D01*
X227404252Y-98948752D01*
X227539759Y-99300074D01*
X227715419Y-99763157D01*
X227925420Y-100322172D01*
X228163954Y-100961292D01*
X228425210Y-101664689D01*
X228703379Y-102416537D01*
X228992651Y-103201007D01*
X229287217Y-104002272D01*
X229581267Y-104804505D01*
X229868991Y-105591877D01*
X230144578Y-106348562D01*
X230402220Y-107058732D01*
X230636107Y-107706560D01*
X230840428Y-108276217D01*
X231009375Y-108751877D01*
X231137138Y-109117712D01*
X231217906Y-109357894D01*
X231245870Y-109456596D01*
X231245834Y-109457189D01*
X232235479Y-109631690D01*
X231714000Y-108198850D01*
X231497750Y-107599499D01*
X231303709Y-107051713D01*
X231138713Y-106575599D01*
X231009599Y-106191263D01*
X230923202Y-105918814D01*
X230886358Y-105778356D01*
X230886287Y-105764314D01*
X230960119Y-105666932D01*
X231125787Y-105462194D01*
X231368689Y-105167403D01*
X231674220Y-104799857D01*
X232027779Y-104376859D01*
X232414761Y-103915708D01*
X232820563Y-103433707D01*
X233230582Y-102948154D01*
X233630215Y-102476352D01*
X234004859Y-102035600D01*
X234339908Y-101643200D01*
X234620762Y-101316452D01*
X234832817Y-101072657D01*
X234961469Y-100929116D01*
X234994250Y-100897555D01*
X235029309Y-100975311D01*
X235114919Y-101193222D01*
X235244072Y-101532196D01*
X235409759Y-101973139D01*
X235604969Y-102496955D01*
X235822694Y-103084552D01*
X236055927Y-103716835D01*
X236297655Y-104374710D01*
X236540873Y-105039084D01*
X236778569Y-105690861D01*
X237003736Y-106310950D01*
X237209364Y-106880254D01*
X237388444Y-107379681D01*
X237533967Y-107790137D01*
X237638925Y-108092526D01*
X237675552Y-108201969D01*
X237768703Y-108487135D01*
X236482868Y-110019042D01*
X235197034Y-111550951D01*
X237164841Y-111920205D01*
X237795333Y-112039720D01*
X238279164Y-112135066D01*
X238636443Y-112211428D01*
X238887277Y-112273989D01*
X239051776Y-112327936D01*
X239150048Y-112378452D01*
X239202203Y-112430723D01*
X239212145Y-112448084D01*
X239272254Y-112607229D01*
X239279750Y-112674153D01*
X240258717Y-112846771D01*
X240200952Y-112668914D01*
X240166138Y-112537084D01*
X240165617Y-112525909D01*
X240248299Y-112530360D01*
X240483054Y-112562218D01*
X240855273Y-112619071D01*
X241350340Y-112698510D01*
X241953645Y-112798125D01*
X242650573Y-112915507D01*
X243426511Y-113048246D01*
X244266848Y-113193931D01*
X245060054Y-113333053D01*
X249944936Y-114194390D01*
X249393196Y-114870858D01*
X257210528Y-116249265D01*
X256869287Y-115307874D01*
X256859090Y-115279742D01*
X255873567Y-115105968D01*
X255792000Y-115107157D01*
X255570888Y-115081620D01*
X255237229Y-115033227D01*
X254818023Y-114965849D01*
X254424001Y-114898197D01*
X252982614Y-114644041D01*
X252664688Y-113761500D01*
X251670944Y-113586276D01*
X251588204Y-113579478D01*
X251350595Y-113545025D01*
X250969965Y-113484923D01*
X250458161Y-113401175D01*
X249827029Y-113295787D01*
X249088418Y-113170763D01*
X248254175Y-113028110D01*
X247336146Y-112869830D01*
X246346179Y-112697930D01*
X245296120Y-112514415D01*
X244241073Y-112328917D01*
X243144616Y-112134998D01*
X242097240Y-111948620D01*
X241110763Y-111771953D01*
X240197003Y-111607166D01*
X239367780Y-111456427D01*
X238634910Y-111321906D01*
X238010212Y-111205771D01*
X237505504Y-111110190D01*
X237132607Y-111037334D01*
X236903334Y-110989370D01*
X236829329Y-110968747D01*
X236884067Y-110895178D01*
X237038139Y-110703809D01*
X237282118Y-110405895D01*
X237606573Y-110012688D01*
X238002072Y-109535444D01*
X238459186Y-108985418D01*
X238968484Y-108373863D01*
X239520534Y-107712036D01*
X240105908Y-107011188D01*
X240715174Y-106282576D01*
X241338901Y-105537454D01*
X241967660Y-104787077D01*
X242592019Y-104042698D01*
X243202548Y-103315573D01*
X243789818Y-102616955D01*
X244344396Y-101958100D01*
X244856853Y-101350262D01*
X245317758Y-100804695D01*
X245717680Y-100332653D01*
X246047189Y-99945393D01*
X246296855Y-99654166D01*
X246457247Y-99470230D01*
X246518935Y-99404836D01*
X246519142Y-99404820D01*
X246553257Y-99483284D01*
X246639726Y-99707269D01*
X246773537Y-100062972D01*
X246949675Y-100536594D01*
X247163129Y-101114337D01*
X247408883Y-101782397D01*
X247681927Y-102526976D01*
X247977244Y-103334274D01*
X248289824Y-104190491D01*
X248614652Y-105081826D01*
X248946715Y-105994479D01*
X249280999Y-106914652D01*
X249612493Y-107828541D01*
X249936182Y-108722349D01*
X250247052Y-109582274D01*
X250540091Y-110394518D01*
X250810286Y-111145278D01*
X251052623Y-111820758D01*
X251262089Y-112407153D01*
X251433670Y-112890666D01*
X251562354Y-113257497D01*
X251643127Y-113493843D01*
X251670976Y-113585908D01*
X251670944Y-113586276D01*
X252664688Y-113761500D01*
X252652851Y-113728642D01*
X252523169Y-113358769D01*
X252420070Y-113045728D01*
X252354667Y-112824585D01*
X252337260Y-112732871D01*
X252394247Y-112642129D01*
X252538732Y-112453657D01*
X252748557Y-112193571D01*
X253001557Y-111887986D01*
X253275573Y-111563017D01*
X253548441Y-111244780D01*
X253798000Y-110959387D01*
X254002087Y-110732957D01*
X254138544Y-110591602D01*
X254183607Y-110557170D01*
X254222503Y-110634796D01*
X254309823Y-110847295D01*
X254436499Y-111170263D01*
X254593465Y-111579295D01*
X254771654Y-112049987D01*
X254962001Y-112557937D01*
X255155438Y-113078741D01*
X255342900Y-113587994D01*
X255515320Y-114061293D01*
X255663632Y-114474234D01*
X255778769Y-114802413D01*
X255851663Y-115021429D01*
X255873567Y-115105968D01*
X256859090Y-115279742D01*
X256528046Y-114366482D01*
X257195358Y-114459177D01*
X257862670Y-114551873D01*
X258008503Y-113724812D01*
X256183863Y-113403079D01*
X255868429Y-112552212D01*
X255721413Y-112154250D01*
X255581483Y-111773053D01*
X255468514Y-111462875D01*
X255420971Y-111330706D01*
X255288946Y-110960068D01*
X257320483Y-108550456D01*
X259352019Y-106140843D01*
X259467607Y-105345678D01*
X259583193Y-104550514D01*
X257296501Y-107279894D01*
X256808237Y-107861256D01*
X256353406Y-108400061D01*
X255943496Y-108882906D01*
X255589991Y-109296386D01*
X255304378Y-109627097D01*
X255098142Y-109861635D01*
X254982772Y-109986594D01*
X254962407Y-110003812D01*
X254912914Y-109927455D01*
X254827983Y-109732084D01*
X254725659Y-109459355D01*
X254721820Y-109448452D01*
X254619184Y-109173177D01*
X254533362Y-108973213D01*
X254482407Y-108890493D01*
X254481475Y-108890236D01*
X254415792Y-108949718D01*
X254257615Y-109121008D01*
X254022958Y-109385911D01*
X253727830Y-109726233D01*
X253388245Y-110123780D01*
X253199829Y-110346577D01*
X252798856Y-110820041D01*
X252491796Y-111175774D01*
X252265254Y-111427037D01*
X252105833Y-111587091D01*
X252000136Y-111669193D01*
X251934766Y-111686604D01*
X251896327Y-111652583D01*
X251891154Y-111641840D01*
X251851749Y-111538196D01*
X251759165Y-111287142D01*
X251617715Y-110900542D01*
X251431705Y-110390262D01*
X251205446Y-109768168D01*
X250943247Y-109046126D01*
X250649419Y-108236000D01*
X250328270Y-107349658D01*
X249984110Y-106398964D01*
X249621248Y-105395783D01*
X249336731Y-104608647D01*
X248963836Y-103577972D01*
X248606952Y-102594040D01*
X248270308Y-101668357D01*
X247958128Y-100812429D01*
X247674639Y-100037764D01*
X247424067Y-99355868D01*
X247210638Y-98778248D01*
X247038580Y-98316411D01*
X246912117Y-97981863D01*
X246835476Y-97786112D01*
X246812976Y-97737174D01*
X246753033Y-97799274D01*
X246593163Y-97981395D01*
X246341859Y-98273497D01*
X246007621Y-98665535D01*
X245598950Y-99147466D01*
X245124342Y-99709247D01*
X244592294Y-100340837D01*
X244011307Y-101032190D01*
X243389879Y-101773266D01*
X242736507Y-102554021D01*
X242700807Y-102596725D01*
X242043331Y-103382876D01*
X241415614Y-104132720D01*
X240826379Y-104835880D01*
X240284353Y-105481980D01*
X239798256Y-106060642D01*
X239376814Y-106561490D01*
X239028752Y-106974147D01*
X238762793Y-107288235D01*
X238587659Y-107493379D01*
X238512077Y-107579201D01*
X238511478Y-107579787D01*
X238476527Y-107583782D01*
X238427135Y-107532208D01*
X238358815Y-107413874D01*
X238267079Y-107217594D01*
X238147439Y-106932180D01*
X237995406Y-106546446D01*
X237806493Y-106049203D01*
X237576213Y-105429264D01*
X237300076Y-104675442D01*
X236973595Y-103776549D01*
X236861448Y-103466647D01*
X236569758Y-102662165D01*
X236294657Y-101907491D01*
X236041594Y-101217303D01*
X235816023Y-100606280D01*
X235623397Y-100089099D01*
X235469167Y-99680437D01*
X235358786Y-99394974D01*
X235297705Y-99247386D01*
X235287637Y-99229831D01*
X235225846Y-99291094D01*
X235067217Y-99469448D01*
X234823026Y-99751657D01*
X234504547Y-100124483D01*
X234123056Y-100574690D01*
X233689826Y-101089041D01*
X233216134Y-101654297D01*
X232901130Y-102031641D01*
X232407766Y-102622232D01*
X231947852Y-103170312D01*
X231532651Y-103662644D01*
X231173422Y-104085988D01*
X230881427Y-104427104D01*
X230667926Y-104672755D01*
X230544181Y-104809700D01*
X230517356Y-104834198D01*
X230481129Y-104755654D01*
X230393152Y-104533065D01*
X230259108Y-104181678D01*
X230084682Y-103716744D01*
X229875559Y-103153510D01*
X229637423Y-102507227D01*
X229375959Y-101793143D01*
X229096851Y-101026509D01*
X229055881Y-100913622D01*
X228773831Y-100140359D01*
X228507190Y-99417419D01*
X228261803Y-98760082D01*
X228043510Y-98183628D01*
X227858160Y-97703333D01*
X227711592Y-97334477D01*
X227609653Y-97092339D01*
X227558184Y-96992198D01*
X227555348Y-96990380D01*
X227487640Y-97051698D01*
X227321496Y-97231658D01*
X227066826Y-97518764D01*
X226733536Y-97901521D01*
X226331535Y-98368433D01*
X225870730Y-98908006D01*
X225361030Y-99508743D01*
X224812341Y-100159149D01*
X224365557Y-100691302D01*
X223793680Y-101373414D01*
X223254032Y-102016234D01*
X222756445Y-102608107D01*
X222310751Y-103137380D01*
X221926779Y-103592400D01*
X221614362Y-103961512D01*
X221383331Y-104233062D01*
X221243518Y-104395398D01*
X221204175Y-104438663D01*
X221168006Y-104366567D01*
X221078314Y-104146669D01*
X220939362Y-103790340D01*
X220755409Y-103308945D01*
X220530715Y-102713855D01*
X220269540Y-102016438D01*
X219976144Y-101228063D01*
X219654789Y-100360099D01*
X219309733Y-99423913D01*
X218945237Y-98430874D01*
X218635299Y-97583412D01*
X218257949Y-96551204D01*
X217896773Y-95565651D01*
X217556023Y-94638219D01*
X217239951Y-93780368D01*
X216952809Y-93003560D01*
X216698849Y-92319258D01*
X216482323Y-91738922D01*
X216307483Y-91274016D01*
X216178583Y-90936002D01*
X216099871Y-90736339D01*
X216075810Y-90683901D01*
X216015648Y-90745799D01*
X215855413Y-90927207D01*
X215603830Y-91217880D01*
X215269623Y-91607572D01*
X214861518Y-92086035D01*
X214388238Y-92643024D01*
X213858508Y-93268293D01*
X213281054Y-93951593D01*
X212664597Y-94682680D01*
X212129607Y-95318391D01*
X211487796Y-96081267D01*
X210878244Y-96804967D01*
X210309629Y-97479244D01*
X209790623Y-98093848D01*
X209329905Y-98638531D01*
X208936149Y-99103045D01*
X208618030Y-99477142D01*
X208384226Y-99750573D01*
X208243410Y-99913090D01*
X208203361Y-99956401D01*
X208170304Y-99878754D01*
X208086483Y-99659662D01*
X207958498Y-99316999D01*
X207792951Y-98868639D01*
X207596444Y-98332457D01*
X207375577Y-97726325D01*
X207150508Y-97105598D01*
X206912028Y-96449457D01*
X206690631Y-95846241D01*
X206493059Y-95313870D01*
X206326054Y-94870261D01*
X206196358Y-94533335D01*
X206110715Y-94321010D01*
X206076382Y-94251044D01*
X206015375Y-94312637D01*
X205855766Y-94492646D01*
X205607433Y-94779468D01*
X205280258Y-95161499D01*
X204884119Y-95627136D01*
X204428897Y-96164775D01*
X203924474Y-96762813D01*
X203380728Y-97409647D01*
X202986445Y-97879942D01*
X202299108Y-98698916D01*
X201712427Y-99393897D01*
X201220004Y-99972091D01*
X200815444Y-100440708D01*
X200492351Y-100806953D01*
X200244327Y-101078036D01*
X200064978Y-101261163D01*
X199947907Y-101363542D01*
X199886717Y-101392382D01*
X199876310Y-101384650D01*
X199827722Y-101265037D01*
X199732581Y-101014313D01*
X199601403Y-100660792D01*
X199444704Y-100232790D01*
X199293807Y-99816346D01*
X199125812Y-99356773D01*
X198975450Y-98957198D01*
X198852623Y-98642999D01*
X198767234Y-98439552D01*
X198730166Y-98371993D01*
X198664962Y-98431613D01*
X198507623Y-98603067D01*
X198274253Y-98867967D01*
X197980958Y-99207926D01*
X197643842Y-99604556D01*
X197474617Y-99805583D01*
X197121892Y-100221690D01*
X196804246Y-100588473D01*
X196537962Y-100887779D01*
X196339324Y-101101452D01*
X196224614Y-101211336D01*
X196204290Y-101221951D01*
X196166714Y-101140241D01*
X196076330Y-100911276D01*
X195937609Y-100547153D01*
X195755019Y-100059969D01*
X195533028Y-99461821D01*
X195276106Y-98764807D01*
X194988723Y-97981025D01*
X194675345Y-97122571D01*
X194340442Y-96201542D01*
X193988483Y-95230036D01*
X193881719Y-94934651D01*
X193525422Y-93950785D01*
X193184499Y-93014092D01*
X192863450Y-92136643D01*
X192566769Y-91330508D01*
X192298952Y-90607757D01*
X192064498Y-89980459D01*
X191867900Y-89460685D01*
X191713656Y-89060503D01*
X191606262Y-88791985D01*
X191550215Y-88667199D01*
X191544121Y-88659602D01*
X191478002Y-88720543D01*
X191313099Y-88900717D01*
X191058851Y-89189114D01*
X190724691Y-89574725D01*
X190320055Y-90046540D01*
X189854377Y-90593550D01*
X189337094Y-91204745D01*
X188777640Y-91869117D01*
X188185451Y-92575656D01*
X188085198Y-92695585D01*
X187488409Y-93409304D01*
X186923349Y-94084192D01*
X186399426Y-94709070D01*
X185926044Y-95272763D01*
X185512609Y-95764093D01*
X185168530Y-96171885D01*
X184903210Y-96484963D01*
X184726058Y-96692148D01*
X184646479Y-96782265D01*
X184643437Y-96785069D01*
X184606203Y-96713790D01*
X184515852Y-96495014D01*
X184376798Y-96140504D01*
X184193454Y-95662022D01*
X183970232Y-95071332D01*
X183711545Y-94380198D01*
X183421809Y-93600381D01*
X183105435Y-92743645D01*
X182766837Y-91821755D01*
X182410428Y-90846471D01*
X182245637Y-90393933D01*
X181882622Y-89397280D01*
X181535821Y-88447703D01*
X181209624Y-87557077D01*
X180908426Y-86737276D01*
X180636618Y-86000175D01*
X180398594Y-85357648D01*
X180198746Y-84821571D01*
X180041467Y-84403816D01*
X179931150Y-84116259D01*
X179872186Y-83970773D01*
X179863626Y-83954824D01*
X179803962Y-84016981D01*
G04 #@! TD*
M02*
