G04 #@! TF.GenerationSoftware,KiCad,Pcbnew,(5.0.2)-1*
G04 #@! TF.CreationDate,2019-05-20T15:04:01-04:00*
G04 #@! TF.ProjectId,bottom_plate,626f7474-6f6d-45f7-906c-6174652e6b69,rev?*
G04 #@! TF.SameCoordinates,Original*
G04 #@! TF.FileFunction,Legend,Top*
G04 #@! TF.FilePolarity,Positive*
%FSLAX46Y46*%
G04 Gerber Fmt 4.6, Leading zero omitted, Abs format (unit mm)*
G04 Created by KiCad (PCBNEW (5.0.2)-1) date 5/20/2019 3:04:01 PM*
%MOMM*%
%LPD*%
G01*
G04 APERTURE LIST*
%ADD10C,0.600000*%
%ADD11C,0.010000*%
%ADD12C,0.150000*%
G04 APERTURE END LIST*
D10*
X38240461Y-89643057D02*
X39764271Y-89643057D01*
X38811890Y-88309723D02*
X38811890Y-91738295D01*
X39002366Y-92119247D01*
X39383319Y-92309723D01*
X39764271Y-92309723D01*
X42811890Y-89643057D02*
X42811890Y-92881152D01*
X42621414Y-93262104D01*
X42430938Y-93452580D01*
X42049985Y-93643057D01*
X41478557Y-93643057D01*
X41097604Y-93452580D01*
X42811890Y-92119247D02*
X42430938Y-92309723D01*
X41669033Y-92309723D01*
X41288080Y-92119247D01*
X41097604Y-91928771D01*
X40907128Y-91547819D01*
X40907128Y-90404961D01*
X41097604Y-90024009D01*
X41288080Y-89833533D01*
X41669033Y-89643057D01*
X42430938Y-89643057D01*
X42811890Y-89833533D01*
X46430938Y-89643057D02*
X46430938Y-92309723D01*
X45478557Y-88119247D02*
X44526176Y-90976390D01*
X47002366Y-90976390D01*
X48145223Y-92309723D02*
X50240461Y-89643057D01*
X48145223Y-89643057D02*
X50240461Y-92309723D01*
D11*
G04 #@! TO.C,G\002A\002A\002A*
G36*
X268236785Y-117036995D02*
X268159897Y-117478945D01*
X268076232Y-117806769D01*
X267992770Y-117993250D01*
X267990947Y-117995611D01*
X267908690Y-118136871D01*
X267949921Y-118210635D01*
X267990055Y-118317315D01*
X267986095Y-118536167D01*
X267967369Y-118669178D01*
X267895083Y-119079132D01*
X266238664Y-118787061D01*
X267295264Y-117515937D01*
X268351863Y-116244814D01*
X268236785Y-117036995D01*
X268236785Y-117036995D01*
G37*
X268236785Y-117036995D02*
X268159897Y-117478945D01*
X268076232Y-117806769D01*
X267992770Y-117993250D01*
X267990947Y-117995611D01*
X267908690Y-118136871D01*
X267949921Y-118210635D01*
X267990055Y-118317315D01*
X267986095Y-118536167D01*
X267967369Y-118669178D01*
X267895083Y-119079132D01*
X266238664Y-118787061D01*
X267295264Y-117515937D01*
X268351863Y-116244814D01*
X268236785Y-117036995D01*
G36*
X105983299Y-70742679D02*
X106071363Y-70968838D01*
X106208294Y-71330465D01*
X106389705Y-71815688D01*
X106611206Y-72412628D01*
X106868407Y-73109413D01*
X107156920Y-73894167D01*
X107472355Y-74755015D01*
X107810325Y-75680081D01*
X108166438Y-76657493D01*
X108328944Y-77104375D01*
X108692062Y-78102322D01*
X109039198Y-79054031D01*
X109365935Y-79947529D01*
X109667858Y-80770846D01*
X109940547Y-81512008D01*
X110179585Y-82159042D01*
X110380555Y-82699977D01*
X110539040Y-83122840D01*
X110650622Y-83415659D01*
X110710884Y-83566461D01*
X110719972Y-83584711D01*
X110783980Y-83532423D01*
X110944285Y-83363290D01*
X111189092Y-83090814D01*
X111506604Y-82728495D01*
X111885029Y-82289835D01*
X112312570Y-81788337D01*
X112777434Y-81237499D01*
X112942889Y-81040187D01*
X113419023Y-80474024D01*
X113862851Y-79951223D01*
X114262401Y-79485515D01*
X114605700Y-79090635D01*
X114880778Y-78780318D01*
X115075662Y-78568298D01*
X115178379Y-78468310D01*
X115190046Y-78462247D01*
X115232774Y-78542200D01*
X115327096Y-78766842D01*
X115467434Y-79121468D01*
X115648209Y-79591377D01*
X115863841Y-80161869D01*
X116108750Y-80818241D01*
X116377356Y-81545792D01*
X116664080Y-82329819D01*
X116802365Y-82710478D01*
X117094850Y-83515335D01*
X117370616Y-84270394D01*
X117624216Y-84960996D01*
X117850200Y-85572481D01*
X118043120Y-86090192D01*
X118197526Y-86499469D01*
X118307969Y-86785653D01*
X118369001Y-86934086D01*
X118379067Y-86952093D01*
X118439534Y-86890412D01*
X118599093Y-86710199D01*
X118848116Y-86422744D01*
X119176974Y-86039338D01*
X119576041Y-85571271D01*
X120035689Y-85029833D01*
X120546289Y-84426316D01*
X121098213Y-83772009D01*
X121635674Y-83133147D01*
X122217959Y-82441546D01*
X122768666Y-81790176D01*
X123278064Y-81190364D01*
X123736425Y-80653436D01*
X124134019Y-80190718D01*
X124461119Y-79813537D01*
X124707993Y-79533218D01*
X124864913Y-79361090D01*
X124921438Y-79308021D01*
X124965431Y-79385043D01*
X125059865Y-79603925D01*
X125197940Y-79947157D01*
X125372861Y-80397229D01*
X125577831Y-80936634D01*
X125806052Y-81547865D01*
X126050728Y-82213412D01*
X126071517Y-82270419D01*
X126316511Y-82939847D01*
X126544278Y-83556803D01*
X126748189Y-84103736D01*
X126921612Y-84563094D01*
X127057916Y-84917321D01*
X127150470Y-85148868D01*
X127192644Y-85240179D01*
X127193675Y-85240908D01*
X127253929Y-85179315D01*
X127413789Y-84998403D01*
X127664247Y-84708769D01*
X127996297Y-84321005D01*
X128400930Y-83845704D01*
X128869138Y-83293460D01*
X129391914Y-82674867D01*
X129960248Y-82000518D01*
X130565136Y-81281007D01*
X130886991Y-80897467D01*
X131507849Y-80158416D01*
X132097523Y-79458907D01*
X132646922Y-78809566D01*
X133146959Y-78221024D01*
X133588541Y-77703909D01*
X133962578Y-77268851D01*
X134259981Y-76926477D01*
X134471660Y-76687416D01*
X134588524Y-76562298D01*
X134608675Y-76545786D01*
X134649576Y-76623318D01*
X134742701Y-76846398D01*
X134882846Y-77201280D01*
X135064805Y-77674210D01*
X135283371Y-78251445D01*
X135533342Y-78919232D01*
X135809510Y-79663824D01*
X136106670Y-80471471D01*
X136419616Y-81328427D01*
X136424016Y-81340521D01*
X136736874Y-82199613D01*
X137032996Y-83011098D01*
X137307256Y-83761039D01*
X137554530Y-84435500D01*
X137769692Y-85020549D01*
X137947618Y-85502248D01*
X138083182Y-85866665D01*
X138171261Y-86099862D01*
X138206729Y-86187907D01*
X138206773Y-86187972D01*
X138266659Y-86134999D01*
X138425055Y-85963331D01*
X138672116Y-85684398D01*
X138998000Y-85309632D01*
X139392859Y-84850463D01*
X139846853Y-84318322D01*
X140350134Y-83724642D01*
X140892860Y-83080853D01*
X141287741Y-82610357D01*
X141852639Y-81937112D01*
X142385010Y-81304623D01*
X142874968Y-80724500D01*
X143312628Y-80208354D01*
X143688105Y-79767793D01*
X143991512Y-79414428D01*
X144212964Y-79159867D01*
X144342577Y-79015720D01*
X144373268Y-78986700D01*
X144409199Y-79065421D01*
X144497462Y-79289440D01*
X144632866Y-79644794D01*
X144810217Y-80117518D01*
X145024326Y-80693646D01*
X145269997Y-81359215D01*
X145542041Y-82100259D01*
X145835265Y-82902814D01*
X146109264Y-83655922D01*
X146417713Y-84505108D01*
X146709635Y-85308307D01*
X146979791Y-86051133D01*
X147222938Y-86719200D01*
X147433838Y-87298118D01*
X147607249Y-87773502D01*
X147737930Y-88130964D01*
X147820640Y-88356117D01*
X147849476Y-88433127D01*
X147914013Y-88396969D01*
X148081525Y-88232343D01*
X148348914Y-87942776D01*
X148713080Y-87531793D01*
X149170926Y-87002922D01*
X149719351Y-86359687D01*
X150355258Y-85605614D01*
X150776994Y-85102046D01*
X151325893Y-84446252D01*
X151842156Y-83831595D01*
X152315632Y-83270011D01*
X152736173Y-82773434D01*
X153093632Y-82353799D01*
X153377857Y-82023041D01*
X153578702Y-81793096D01*
X153686018Y-81675900D01*
X153701165Y-81663133D01*
X153736187Y-81742026D01*
X153824196Y-81968206D01*
X153960764Y-82329656D01*
X154141464Y-82814362D01*
X154361868Y-83410305D01*
X154617551Y-84105471D01*
X154904084Y-84887842D01*
X155217041Y-85745403D01*
X155551995Y-86666137D01*
X155904520Y-87638029D01*
X156022808Y-87964767D01*
X156381268Y-88954722D01*
X156724167Y-89900446D01*
X157046994Y-90789573D01*
X157345238Y-91609738D01*
X157614389Y-92348577D01*
X157849936Y-92993724D01*
X158047369Y-93532815D01*
X158202176Y-93953483D01*
X158309847Y-94243364D01*
X158365871Y-94390093D01*
X158371967Y-94404418D01*
X158413138Y-94433619D01*
X158490237Y-94400712D01*
X158616128Y-94292770D01*
X158803679Y-94096864D01*
X159065756Y-93800067D01*
X159415229Y-93389449D01*
X159593875Y-93176701D01*
X159937677Y-92769989D01*
X160246328Y-92412127D01*
X160503060Y-92121965D01*
X160691100Y-91918353D01*
X160793682Y-91820144D01*
X160806006Y-91814092D01*
X160852900Y-91893260D01*
X160946880Y-92107321D01*
X161078039Y-92431710D01*
X161236474Y-92841864D01*
X161412275Y-93313220D01*
X161429159Y-93359303D01*
X161605170Y-93838088D01*
X161762405Y-94261318D01*
X161891301Y-94603613D01*
X161982294Y-94839598D01*
X162025822Y-94943897D01*
X162026998Y-94945834D01*
X162086966Y-94893447D01*
X162245150Y-94723307D01*
X162491058Y-94447491D01*
X162814204Y-94078084D01*
X163204097Y-93627162D01*
X163650248Y-93106809D01*
X164142168Y-92529105D01*
X164669369Y-91906129D01*
X164774719Y-91781199D01*
X165308172Y-91149363D01*
X165808505Y-90558921D01*
X166265178Y-90022163D01*
X166667647Y-89551375D01*
X167005370Y-89158849D01*
X167267805Y-88856872D01*
X167444409Y-88657732D01*
X167524640Y-88573719D01*
X167528082Y-88571777D01*
X167564820Y-88650283D01*
X167653574Y-88872301D01*
X167788464Y-89222214D01*
X167963604Y-89684410D01*
X168173109Y-90243271D01*
X168411096Y-90883185D01*
X168671682Y-91588535D01*
X168933523Y-92301492D01*
X169210056Y-93054307D01*
X169469556Y-93756411D01*
X169706142Y-94392194D01*
X169913927Y-94946047D01*
X170087030Y-95402362D01*
X170219565Y-95745529D01*
X170305650Y-95959939D01*
X170339008Y-96030146D01*
X170400336Y-95968579D01*
X170558536Y-95789947D01*
X170802346Y-95507491D01*
X171120501Y-95134456D01*
X171501737Y-94684082D01*
X171934791Y-94169612D01*
X172408399Y-93604289D01*
X172723645Y-93226642D01*
X173217163Y-92636025D01*
X173677382Y-92087959D01*
X174093022Y-91595681D01*
X174452802Y-91172426D01*
X174745442Y-90831430D01*
X174959664Y-90585928D01*
X175084185Y-90449156D01*
X175111519Y-90424778D01*
X175150046Y-90503403D01*
X175238380Y-90722829D01*
X175369485Y-91064353D01*
X175536324Y-91509271D01*
X175731861Y-92038876D01*
X175949058Y-92634465D01*
X176100263Y-93052968D01*
X176328959Y-93680994D01*
X176542739Y-94254257D01*
X176734292Y-94754216D01*
X176896309Y-95162326D01*
X177021479Y-95460041D01*
X177102492Y-95628819D01*
X177128202Y-95660576D01*
X177195107Y-95595167D01*
X177361702Y-95409978D01*
X177619229Y-95115276D01*
X177958926Y-94721327D01*
X178372035Y-94238400D01*
X178849798Y-93676763D01*
X179383454Y-93046683D01*
X179964242Y-92358426D01*
X180583405Y-91622261D01*
X181155423Y-90940129D01*
X181800822Y-90170629D01*
X182415299Y-89440304D01*
X182990132Y-88759379D01*
X183516594Y-88138080D01*
X183985963Y-87586631D01*
X184389516Y-87115260D01*
X184718527Y-86734189D01*
X184964275Y-86453646D01*
X185118033Y-86283854D01*
X185170406Y-86234171D01*
X185212492Y-86311752D01*
X185306041Y-86533730D01*
X185445350Y-86885107D01*
X185624715Y-87350888D01*
X185838431Y-87916079D01*
X186080797Y-88565683D01*
X186346105Y-89284705D01*
X186628656Y-90058149D01*
X186707732Y-90275939D01*
X186994246Y-91063006D01*
X187265046Y-91800965D01*
X187514413Y-92474639D01*
X187736625Y-93068852D01*
X187925962Y-93568428D01*
X188076704Y-93958190D01*
X188183130Y-94222963D01*
X188239519Y-94347568D01*
X188245342Y-94355169D01*
X188311897Y-94299676D01*
X188476567Y-94125748D01*
X188729155Y-93845111D01*
X189059466Y-93469492D01*
X189457303Y-93010618D01*
X189912467Y-92480215D01*
X190414762Y-91890009D01*
X190953993Y-91251727D01*
X191242316Y-90908633D01*
X191796081Y-90249542D01*
X192317109Y-89631426D01*
X192795305Y-89066125D01*
X193220572Y-88565480D01*
X193582814Y-88141329D01*
X193871934Y-87805513D01*
X194077836Y-87569870D01*
X194190423Y-87446239D01*
X194208685Y-87430138D01*
X194244243Y-87508825D01*
X194332488Y-87733250D01*
X194468409Y-88089950D01*
X194646998Y-88565460D01*
X194863247Y-89146317D01*
X195112147Y-89819057D01*
X195388689Y-90570216D01*
X195687865Y-91386331D01*
X196004666Y-92253939D01*
X196074116Y-92444580D01*
X196394098Y-93321480D01*
X196697626Y-94149775D01*
X196979681Y-94916002D01*
X197235246Y-95606692D01*
X197459299Y-96208377D01*
X197646824Y-96707592D01*
X197792802Y-97090870D01*
X197892214Y-97344742D01*
X197940041Y-97455744D01*
X197943087Y-97459647D01*
X198008306Y-97400010D01*
X198165414Y-97228560D01*
X198398208Y-96963827D01*
X198690482Y-96624340D01*
X199026031Y-96228631D01*
X199180764Y-96044400D01*
X199530003Y-95630087D01*
X199842947Y-95263961D01*
X200103399Y-94964550D01*
X200295163Y-94750386D01*
X200402039Y-94639998D01*
X200417910Y-94629059D01*
X200455926Y-94707633D01*
X200545014Y-94928254D01*
X200678671Y-95273728D01*
X200850393Y-95726859D01*
X201053673Y-96270452D01*
X201282007Y-96887311D01*
X201528889Y-97560241D01*
X201586485Y-97718047D01*
X201837472Y-98400602D01*
X202073012Y-99030078D01*
X202286406Y-99589400D01*
X202470959Y-100061496D01*
X202619974Y-100429293D01*
X202726755Y-100675717D01*
X202784605Y-100783697D01*
X202790235Y-100787162D01*
X202856297Y-100721839D01*
X203022073Y-100536612D01*
X203278885Y-100241679D01*
X203618058Y-99847231D01*
X204030914Y-99363465D01*
X204508777Y-98800575D01*
X205042970Y-98168755D01*
X205624817Y-97478200D01*
X206245639Y-96739105D01*
X206867443Y-95996720D01*
X207517248Y-95221230D01*
X208136406Y-94485017D01*
X208716245Y-93798226D01*
X209248094Y-93171000D01*
X209723282Y-92613482D01*
X210133139Y-92135817D01*
X210468991Y-91748148D01*
X210722168Y-91460618D01*
X210884001Y-91283371D01*
X210945350Y-91226384D01*
X210986798Y-91305363D01*
X211080516Y-91531027D01*
X211221723Y-91890627D01*
X211405643Y-92371410D01*
X211627494Y-92960629D01*
X211882500Y-93645532D01*
X212165881Y-94413370D01*
X212472857Y-95251394D01*
X212798651Y-96146851D01*
X213050170Y-96842090D01*
X213386547Y-97771472D01*
X213707302Y-98652558D01*
X214007691Y-99472644D01*
X214282974Y-100219026D01*
X214528409Y-100878997D01*
X214739254Y-101439857D01*
X214910767Y-101888898D01*
X215038205Y-102213417D01*
X215116827Y-102400709D01*
X215140869Y-102443485D01*
X215206431Y-102379308D01*
X215370349Y-102197090D01*
X215622415Y-101908743D01*
X215952421Y-101526178D01*
X216350155Y-101061305D01*
X216805412Y-100526037D01*
X217307982Y-99932282D01*
X217847654Y-99291956D01*
X218130418Y-98955423D01*
X218684659Y-98297006D01*
X219207024Y-97680103D01*
X219687318Y-97116504D01*
X220115341Y-96618003D01*
X220480899Y-96196392D01*
X220773793Y-95863466D01*
X220983825Y-95631014D01*
X221100800Y-95510832D01*
X221121318Y-95496559D01*
X221161672Y-95578131D01*
X221254248Y-95805160D01*
X221393841Y-96163799D01*
X221575254Y-96640203D01*
X221793281Y-97220530D01*
X222042725Y-97890932D01*
X222318382Y-98637566D01*
X222615051Y-99446587D01*
X222927531Y-100304150D01*
X222928189Y-100305961D01*
X223240104Y-101162883D01*
X223535437Y-101970837D01*
X223809073Y-102716048D01*
X224055893Y-103384745D01*
X224270779Y-103963151D01*
X224448616Y-104437497D01*
X224584284Y-104794007D01*
X224672670Y-105018906D01*
X224708652Y-105098424D01*
X224708707Y-105098435D01*
X224769072Y-105036413D01*
X224928117Y-104855658D01*
X225176176Y-104567571D01*
X225503582Y-104183555D01*
X225900670Y-103715008D01*
X226357775Y-103173334D01*
X226865228Y-102569933D01*
X227413366Y-101916207D01*
X227909860Y-101322534D01*
X228485262Y-100634683D01*
X229028322Y-99987395D01*
X229529371Y-99392069D01*
X229978740Y-98860101D01*
X230366763Y-98402887D01*
X230683769Y-98031825D01*
X230920090Y-97758312D01*
X231066059Y-97593742D01*
X231111955Y-97548036D01*
X231148213Y-97626695D01*
X231236407Y-97849802D01*
X231371009Y-98202520D01*
X231546490Y-98670012D01*
X231757322Y-99237440D01*
X231997976Y-99889967D01*
X232262924Y-100612759D01*
X232546639Y-101390975D01*
X232654854Y-101688867D01*
X232944194Y-102483791D01*
X233216977Y-103228742D01*
X233467658Y-103908882D01*
X233690689Y-104509375D01*
X233880524Y-105015382D01*
X234031617Y-105412067D01*
X234138419Y-105684594D01*
X234195386Y-105818123D01*
X234202706Y-105829328D01*
X234263928Y-105767431D01*
X234424464Y-105586423D01*
X234675077Y-105297160D01*
X235006528Y-104910493D01*
X235409584Y-104437277D01*
X235875003Y-103888364D01*
X236393551Y-103274607D01*
X236955989Y-102606860D01*
X237553082Y-101895977D01*
X237733782Y-101680462D01*
X238339207Y-100959017D01*
X238912584Y-100277529D01*
X239444689Y-99646850D01*
X239926295Y-99077828D01*
X240348179Y-98581313D01*
X240701115Y-98168156D01*
X240975876Y-97849207D01*
X241163240Y-97635314D01*
X241253978Y-97537329D01*
X241260938Y-97532147D01*
X241295983Y-97610993D01*
X241384322Y-97837164D01*
X241521557Y-98198788D01*
X241703295Y-98683987D01*
X241925137Y-99280884D01*
X242182688Y-99977604D01*
X242471553Y-100762272D01*
X242787335Y-101623010D01*
X243125637Y-102547943D01*
X243482064Y-103525194D01*
X243644145Y-103970466D01*
X244007313Y-104967138D01*
X244354500Y-105916765D01*
X244681293Y-106807466D01*
X244983277Y-107627361D01*
X245256041Y-108364566D01*
X245495168Y-109007200D01*
X245696248Y-109543383D01*
X245854866Y-109961231D01*
X245966609Y-110248865D01*
X246027062Y-110394400D01*
X246036284Y-110410360D01*
X246099188Y-110349225D01*
X246260662Y-110170090D01*
X246510559Y-109884775D01*
X246838727Y-109505098D01*
X247235015Y-109042882D01*
X247689271Y-108509943D01*
X248191345Y-107918103D01*
X248731087Y-107279180D01*
X249020298Y-106935787D01*
X249576249Y-106276567D01*
X250100513Y-105657921D01*
X250582840Y-105091739D01*
X251012980Y-104589913D01*
X251380680Y-104164333D01*
X251675689Y-103826891D01*
X251887756Y-103589477D01*
X252006630Y-103463984D01*
X252028058Y-103446908D01*
X252069667Y-103523410D01*
X252163720Y-103745763D01*
X252305119Y-104100564D01*
X252488766Y-104574410D01*
X252709560Y-105153896D01*
X252962405Y-105825618D01*
X253242200Y-106576173D01*
X253543844Y-107392157D01*
X253862242Y-108260165D01*
X253937245Y-108465589D01*
X254258461Y-109342188D01*
X254564078Y-110168624D01*
X254849016Y-110931651D01*
X255108194Y-111618021D01*
X255336531Y-112214489D01*
X255528948Y-112707809D01*
X255680363Y-113084734D01*
X255785695Y-113332016D01*
X255839866Y-113436412D01*
X255844665Y-113438750D01*
X255913705Y-113365032D01*
X256079804Y-113175490D01*
X256331127Y-112883980D01*
X256655839Y-112504355D01*
X257042107Y-112050469D01*
X257478095Y-111536177D01*
X257951969Y-110975330D01*
X258173858Y-110712118D01*
X258660395Y-110137258D01*
X259114834Y-109605491D01*
X259525349Y-109130273D01*
X259880114Y-108725063D01*
X260167305Y-108403314D01*
X260375096Y-108178484D01*
X260491664Y-108064029D01*
X260511391Y-108052148D01*
X260562163Y-108132861D01*
X260661213Y-108351359D01*
X260799768Y-108685991D01*
X260969057Y-109115107D01*
X261160305Y-109617058D01*
X261320101Y-110047996D01*
X261520663Y-110591079D01*
X261703361Y-111077933D01*
X261859894Y-111487063D01*
X261981955Y-111796975D01*
X262061243Y-111986173D01*
X262088192Y-112036159D01*
X262147950Y-111974188D01*
X262307762Y-111792153D01*
X262559200Y-111500015D01*
X262893832Y-111107727D01*
X263303231Y-110625249D01*
X263778964Y-110062535D01*
X264312604Y-109429543D01*
X264895719Y-108736231D01*
X265519880Y-107992553D01*
X266176656Y-107208468D01*
X266267537Y-107099853D01*
X266928190Y-106311019D01*
X267557501Y-105561253D01*
X268147027Y-104860512D01*
X268688323Y-104218755D01*
X269172949Y-103645942D01*
X269592460Y-103152030D01*
X269938413Y-102746978D01*
X270202367Y-102440744D01*
X270375878Y-102243287D01*
X270450503Y-102164566D01*
X270452539Y-102163577D01*
X270506960Y-102241081D01*
X270588222Y-102426783D01*
X270625680Y-102528211D01*
X270681311Y-102725913D01*
X270700878Y-102932311D01*
X270683435Y-103194372D01*
X270628035Y-103559064D01*
X270601948Y-103706152D01*
X270453237Y-104527953D01*
X270324311Y-104183663D01*
X270237130Y-103972519D01*
X270169593Y-103846707D01*
X270153679Y-103832121D01*
X270095547Y-103894128D01*
X269939062Y-104074015D01*
X269694387Y-104359668D01*
X269371692Y-104738980D01*
X268981141Y-105199838D01*
X268532900Y-105730133D01*
X268037136Y-106317754D01*
X267504015Y-106950590D01*
X266943703Y-107616531D01*
X266366367Y-108303467D01*
X265782172Y-108999286D01*
X265201285Y-109691880D01*
X264633872Y-110369135D01*
X264090100Y-111018943D01*
X263580133Y-111629195D01*
X263114140Y-112187777D01*
X262702285Y-112682579D01*
X262354735Y-113101494D01*
X262081657Y-113432408D01*
X261893216Y-113663211D01*
X261799578Y-113781794D01*
X261791669Y-113793354D01*
X261862364Y-113827577D01*
X262093306Y-113887031D01*
X262477513Y-113970312D01*
X263008005Y-114076019D01*
X263677803Y-114202750D01*
X264479926Y-114349103D01*
X265175245Y-114472857D01*
X268600789Y-115076873D01*
X268453767Y-115910678D01*
X263125807Y-114971214D01*
X263614375Y-116303968D01*
X264102943Y-117636720D01*
X249186274Y-115006509D01*
X249879500Y-114197487D01*
X250857433Y-114369923D01*
X250923426Y-114404266D01*
X251131128Y-114460624D01*
X251455197Y-114533300D01*
X251870293Y-114616597D01*
X252332151Y-114701485D01*
X252812195Y-114782413D01*
X253227867Y-114845377D01*
X253553403Y-114887065D01*
X253619400Y-114892447D01*
X255506765Y-115225240D01*
X255586038Y-115246753D01*
X255815254Y-115294171D01*
X256177532Y-115364349D01*
X256655993Y-115454142D01*
X257233754Y-115560407D01*
X257893937Y-115680002D01*
X258619659Y-115809779D01*
X259134601Y-115900940D01*
X259893974Y-116033312D01*
X260598826Y-116153234D01*
X261232368Y-116258064D01*
X261777807Y-116345162D01*
X262218350Y-116411886D01*
X262537208Y-116455596D01*
X262717587Y-116473650D01*
X262752589Y-116469969D01*
X262718988Y-116363988D01*
X262641438Y-116136545D01*
X262533004Y-115825621D01*
X262454411Y-115603116D01*
X262172240Y-114808003D01*
X260129898Y-114399969D01*
X260785727Y-113628972D01*
X261441557Y-112857977D01*
X261136538Y-112014360D01*
X260883027Y-111316858D01*
X260679039Y-110765004D01*
X260518643Y-110344450D01*
X260395908Y-110040851D01*
X260304904Y-109839858D01*
X260239700Y-109727124D01*
X260194364Y-109688301D01*
X260176755Y-109692501D01*
X260107660Y-109766712D01*
X259944598Y-109953284D01*
X259701342Y-110235898D01*
X259391668Y-110598237D01*
X259029350Y-111023979D01*
X258628161Y-111496806D01*
X258201879Y-112000400D01*
X257764276Y-112518439D01*
X257329127Y-113034606D01*
X256910206Y-113532581D01*
X256521290Y-113996043D01*
X256176151Y-114408674D01*
X255888565Y-114754156D01*
X255672305Y-115016167D01*
X255541148Y-115178390D01*
X255506765Y-115225240D01*
X253619400Y-114892447D01*
X253763042Y-114904161D01*
X253831333Y-114894301D01*
X253790427Y-114758256D01*
X253704166Y-114507658D01*
X253584261Y-114173682D01*
X253442424Y-113787503D01*
X253290366Y-113380297D01*
X253139798Y-112983241D01*
X253002431Y-112627511D01*
X252889977Y-112344279D01*
X252814148Y-112164725D01*
X252787920Y-112116693D01*
X252725109Y-112175329D01*
X252575453Y-112338672D01*
X252360620Y-112581430D01*
X252102277Y-112878314D01*
X251822094Y-113204031D01*
X251541735Y-113533293D01*
X251282870Y-113840811D01*
X251067166Y-114101291D01*
X250916291Y-114289448D01*
X250857433Y-114369923D01*
X249879500Y-114197487D01*
X250146245Y-113886186D01*
X247057078Y-113341483D01*
X247242026Y-113868437D01*
X247346905Y-114158776D01*
X247437307Y-114394223D01*
X247488961Y-114513788D01*
X247469698Y-114527891D01*
X247385367Y-114528630D01*
X247228112Y-114514719D01*
X246990084Y-114484864D01*
X246663432Y-114437777D01*
X246240302Y-114372168D01*
X245712844Y-114286747D01*
X245073205Y-114180221D01*
X244313534Y-114051303D01*
X243425980Y-113898702D01*
X242402691Y-113721126D01*
X241235815Y-113517288D01*
X239917499Y-113285895D01*
X238538273Y-113043006D01*
X229525597Y-111453828D01*
X230215223Y-110636773D01*
X231195628Y-110809644D01*
X231270608Y-110836144D01*
X231504771Y-110889730D01*
X231890393Y-110968960D01*
X232419748Y-111072386D01*
X233085105Y-111198568D01*
X233878740Y-111346059D01*
X234792924Y-111513417D01*
X235819932Y-111699197D01*
X236952034Y-111901955D01*
X238181506Y-112120245D01*
X238672469Y-112206941D01*
X239969370Y-112434747D01*
X241162950Y-112642636D01*
X242246374Y-112829477D01*
X243212807Y-112994138D01*
X244055411Y-113135485D01*
X244767350Y-113252387D01*
X245341791Y-113343710D01*
X245771896Y-113408323D01*
X246050829Y-113445092D01*
X246171755Y-113452885D01*
X246176487Y-113450108D01*
X246144258Y-113349686D01*
X246059180Y-113105864D01*
X245926283Y-112732388D01*
X245750590Y-112243001D01*
X245537128Y-111651447D01*
X245385294Y-111232105D01*
X246372622Y-111406198D01*
X246552299Y-111915314D01*
X246731975Y-112424431D01*
X248746081Y-112779045D01*
X250760186Y-113133659D01*
X251890166Y-111785922D01*
X252230949Y-111383336D01*
X252536461Y-111029765D01*
X252789750Y-110744225D01*
X252973870Y-110545731D01*
X253071870Y-110453301D01*
X253081671Y-110449033D01*
X253127721Y-110528233D01*
X253221162Y-110743280D01*
X253352558Y-111070506D01*
X253512477Y-111486245D01*
X253691482Y-111966828D01*
X253744530Y-112111960D01*
X254345863Y-113764038D01*
X254667210Y-113822164D01*
X254887228Y-113842420D01*
X254965722Y-113794481D01*
X254964344Y-113768553D01*
X254923079Y-113633223D01*
X254830607Y-113363328D01*
X254693493Y-112976498D01*
X254518303Y-112490365D01*
X254311602Y-111922560D01*
X254079955Y-111290712D01*
X253829927Y-110612451D01*
X253568086Y-109905409D01*
X253300994Y-109187214D01*
X253035219Y-108475498D01*
X252777324Y-107787891D01*
X252533878Y-107142024D01*
X252311443Y-106555527D01*
X252116586Y-106046029D01*
X251955871Y-105631162D01*
X251835865Y-105328556D01*
X251763132Y-105155841D01*
X251744280Y-105121574D01*
X251676702Y-105181963D01*
X251511359Y-105359875D01*
X251259045Y-105642880D01*
X250930554Y-106018547D01*
X250536680Y-106474440D01*
X250088216Y-106998131D01*
X249595957Y-107577185D01*
X249070697Y-108199171D01*
X249021433Y-108257711D01*
X246372622Y-111406198D01*
X245385294Y-111232105D01*
X245290923Y-110971469D01*
X245017000Y-110216812D01*
X244720386Y-109401221D01*
X244406107Y-108538437D01*
X244079188Y-107642207D01*
X243744655Y-106726273D01*
X243407536Y-105804379D01*
X243072854Y-104890268D01*
X242745637Y-103997687D01*
X242430909Y-103140378D01*
X242133699Y-102332084D01*
X241859030Y-101586551D01*
X241611929Y-100917522D01*
X241397423Y-100338740D01*
X241220537Y-99863949D01*
X241086296Y-99506895D01*
X240999727Y-99281319D01*
X240965856Y-99200968D01*
X240965778Y-99200939D01*
X240908006Y-99263106D01*
X240750909Y-99443878D01*
X240503912Y-99732057D01*
X240176435Y-100116447D01*
X239777903Y-100585852D01*
X239317738Y-101129077D01*
X238805362Y-101734926D01*
X238250201Y-102392201D01*
X237661674Y-103089708D01*
X237049205Y-103816251D01*
X236422218Y-104560634D01*
X235790134Y-105311658D01*
X235162379Y-106058131D01*
X234548371Y-106788855D01*
X233957536Y-107492635D01*
X233399297Y-108158274D01*
X232883076Y-108774576D01*
X232418296Y-109330347D01*
X232014378Y-109814388D01*
X231680747Y-110215504D01*
X231426827Y-110522500D01*
X231262037Y-110724180D01*
X231195802Y-110809346D01*
X231195628Y-110809644D01*
X230215223Y-110636773D01*
X230915203Y-109807453D01*
X228352560Y-109355590D01*
X229378451Y-112201637D01*
X225843379Y-111578309D01*
X222308307Y-110954981D01*
X222974311Y-110161472D01*
X223957340Y-110334807D01*
X224034542Y-110362555D01*
X224256208Y-110414280D01*
X224599879Y-110485460D01*
X225043100Y-110571567D01*
X225563417Y-110668078D01*
X225991401Y-110744682D01*
X226555519Y-110842279D01*
X227060607Y-110926078D01*
X227484023Y-110992616D01*
X227803122Y-111038430D01*
X227995263Y-111060057D01*
X228042433Y-111058309D01*
X228017387Y-110967967D01*
X227943311Y-110745844D01*
X227829965Y-110418958D01*
X227687110Y-110014327D01*
X227524507Y-109558969D01*
X227351916Y-109079903D01*
X227179099Y-108604146D01*
X227015815Y-108158717D01*
X226871827Y-107770635D01*
X226756895Y-107466916D01*
X226680780Y-107274581D01*
X226656252Y-107221318D01*
X226586007Y-107246828D01*
X226442947Y-107367651D01*
X226261100Y-107547733D01*
X226074498Y-107751018D01*
X225917172Y-107941454D01*
X225823150Y-108082983D01*
X225811040Y-108116808D01*
X225835440Y-108213982D01*
X225908706Y-108437585D01*
X226019902Y-108755626D01*
X226158090Y-109136113D01*
X226176872Y-109186889D01*
X226551905Y-110198718D01*
X224334149Y-109855283D01*
X224150124Y-110070210D01*
X224022051Y-110230487D01*
X223958376Y-110330884D01*
X223957340Y-110334807D01*
X222974311Y-110161472D01*
X223376858Y-109681858D01*
X220378962Y-109153248D01*
X219690342Y-109033322D01*
X219056924Y-108925890D01*
X218497385Y-108833901D01*
X218030399Y-108760297D01*
X217674644Y-108708027D01*
X217448793Y-108680036D01*
X217371510Y-108678830D01*
X217394040Y-108778699D01*
X217462355Y-108995037D01*
X217562947Y-109285697D01*
X217590542Y-109362247D01*
X217819129Y-109991472D01*
X198070750Y-106509300D01*
X198392885Y-106132454D01*
X198566812Y-105924244D01*
X198686466Y-105771976D01*
X198721726Y-105717587D01*
X198642752Y-105695107D01*
X198414568Y-105646961D01*
X198054798Y-105576465D01*
X197951700Y-105556980D01*
X201897599Y-106252749D01*
X201935571Y-106265784D01*
X202119463Y-106304498D01*
X202442339Y-106367588D01*
X202897261Y-106453757D01*
X203477293Y-106561701D01*
X204175499Y-106690123D01*
X204984942Y-106837719D01*
X205898685Y-107003192D01*
X206909793Y-107185240D01*
X208011326Y-107382562D01*
X208076536Y-107394214D01*
X209244309Y-107602181D01*
X210364142Y-107800294D01*
X211424904Y-107986656D01*
X212415461Y-108159370D01*
X213324681Y-108316539D01*
X214141431Y-108456267D01*
X214854579Y-108576656D01*
X215452993Y-108675809D01*
X215925539Y-108751829D01*
X216261085Y-108802821D01*
X216448499Y-108826886D01*
X216485643Y-108827074D01*
X216461272Y-108703514D01*
X216418087Y-108600727D01*
X216382225Y-108554006D01*
X216312168Y-108509090D01*
X216190750Y-108461914D01*
X216000805Y-108408410D01*
X215725164Y-108344515D01*
X215346662Y-108266162D01*
X214848131Y-108169285D01*
X214212406Y-108049821D01*
X213659761Y-107947475D01*
X210980883Y-107453127D01*
X211658283Y-106648363D01*
X212651946Y-106823572D01*
X212670662Y-106847600D01*
X212758158Y-106881081D01*
X212923704Y-106925812D01*
X213176572Y-106983586D01*
X213526032Y-107056197D01*
X213981357Y-107145440D01*
X214551815Y-107253109D01*
X215246680Y-107380997D01*
X216075222Y-107530899D01*
X217046711Y-107704608D01*
X218170421Y-107903919D01*
X218903864Y-108033421D01*
X220121265Y-108247562D01*
X221181401Y-108432829D01*
X222093599Y-108590707D01*
X222867185Y-108722681D01*
X223511482Y-108830234D01*
X224035817Y-108914853D01*
X224449517Y-108978023D01*
X224761904Y-109021229D01*
X224982307Y-109045954D01*
X225120050Y-109053686D01*
X225184459Y-109045907D01*
X225191851Y-109034696D01*
X225151683Y-108905217D01*
X225059560Y-108636945D01*
X224921026Y-108244916D01*
X224741628Y-107744165D01*
X224526910Y-107149725D01*
X224282415Y-106476633D01*
X224051815Y-105844434D01*
X225079639Y-106025667D01*
X225085011Y-106131344D01*
X225139813Y-106331441D01*
X225225150Y-106576330D01*
X225322124Y-106816382D01*
X225411841Y-107001967D01*
X225475404Y-107083458D01*
X225482348Y-107083351D01*
X225559872Y-107011306D01*
X225720223Y-106835769D01*
X225938915Y-106584236D01*
X226157054Y-106325617D01*
X226410171Y-106022787D01*
X226628587Y-105763623D01*
X226786454Y-105578665D01*
X226853307Y-105503041D01*
X226915351Y-105543767D01*
X227023784Y-105745487D01*
X227177871Y-106106552D01*
X227376878Y-106625311D01*
X227486131Y-106924275D01*
X228031888Y-108436448D01*
X229782920Y-108744947D01*
X231533951Y-109053447D01*
X232542757Y-107846557D01*
X233551563Y-106639667D01*
X232205607Y-102932566D01*
X231931894Y-102180914D01*
X231675101Y-101480015D01*
X231441086Y-100845542D01*
X231235701Y-100293166D01*
X231064799Y-99838561D01*
X230934235Y-99497398D01*
X230849863Y-99285348D01*
X230818024Y-99217757D01*
X230759816Y-99279153D01*
X230605254Y-99455789D01*
X230366662Y-99733045D01*
X230056361Y-100096301D01*
X229686672Y-100530938D01*
X229269921Y-101022340D01*
X228818429Y-101555884D01*
X228344518Y-102116952D01*
X227860510Y-102690926D01*
X227378729Y-103263184D01*
X226911497Y-103819110D01*
X226471136Y-104344083D01*
X226069970Y-104823484D01*
X225720320Y-105242695D01*
X225434508Y-105587094D01*
X225224859Y-105842065D01*
X225103693Y-105992986D01*
X225079639Y-106025667D01*
X224051815Y-105844434D01*
X224013693Y-105739921D01*
X223726284Y-104954626D01*
X223425737Y-104135781D01*
X223117596Y-103298423D01*
X222807404Y-102457584D01*
X222500709Y-101628300D01*
X222203055Y-100825608D01*
X221919988Y-100064539D01*
X221657053Y-99360129D01*
X221419793Y-98727414D01*
X221213756Y-98181429D01*
X221044485Y-97737205D01*
X220917527Y-97409781D01*
X220838425Y-97214189D01*
X220813202Y-97162722D01*
X220752164Y-97225559D01*
X220592687Y-97405872D01*
X220345140Y-97691387D01*
X220019892Y-98069830D01*
X219627310Y-98528928D01*
X219177764Y-99056407D01*
X218681621Y-99639995D01*
X218149251Y-100267417D01*
X217591020Y-100926398D01*
X217017299Y-101604667D01*
X216438455Y-102289950D01*
X215864856Y-102969973D01*
X215306871Y-103632461D01*
X214774869Y-104265143D01*
X214279218Y-104855745D01*
X213830285Y-105391991D01*
X213438442Y-105861610D01*
X213114053Y-106252327D01*
X212867489Y-106551870D01*
X212709119Y-106747964D01*
X212651946Y-106823572D01*
X211658283Y-106648363D01*
X212713768Y-105394430D01*
X213137202Y-104886971D01*
X213522470Y-104416766D01*
X213856560Y-104000364D01*
X214126464Y-103654314D01*
X214319173Y-103395167D01*
X214421676Y-103239475D01*
X214434996Y-103204717D01*
X214403568Y-103091511D01*
X214320024Y-102839037D01*
X214190286Y-102463455D01*
X214020274Y-101980922D01*
X213815908Y-101407596D01*
X213583106Y-100759634D01*
X213327791Y-100053193D01*
X213055882Y-99304432D01*
X212773298Y-98529507D01*
X212485961Y-97744576D01*
X212199792Y-96965797D01*
X211920707Y-96209328D01*
X211654630Y-95491325D01*
X211407479Y-94827948D01*
X211185176Y-94235352D01*
X210993639Y-93729696D01*
X210838790Y-93327137D01*
X210726547Y-93043833D01*
X210662833Y-92895942D01*
X210651212Y-92877796D01*
X210586720Y-92941108D01*
X210422795Y-93124021D01*
X210168383Y-93416030D01*
X209832432Y-93806631D01*
X209423892Y-94285323D01*
X208951707Y-94841598D01*
X208424827Y-95464954D01*
X207852199Y-96144887D01*
X207242771Y-96870893D01*
X206841473Y-97350183D01*
X203100584Y-101822509D01*
X203997793Y-104273211D01*
X204895002Y-106723913D01*
X202287162Y-106308912D01*
X202012484Y-106266691D01*
X201897599Y-106252749D01*
X197951700Y-105556980D01*
X197581069Y-105486934D01*
X197011003Y-105381684D01*
X196362227Y-105264030D01*
X195652364Y-105137288D01*
X195397012Y-105092147D01*
X192065594Y-104504729D01*
X192599870Y-103868167D01*
X192731596Y-103711220D01*
X193714626Y-103884555D01*
X193794005Y-103907795D01*
X194025713Y-103957360D01*
X194395254Y-104030541D01*
X194888130Y-104124630D01*
X195489844Y-104236922D01*
X196185901Y-104364709D01*
X196961802Y-104505284D01*
X197803051Y-104655938D01*
X198632259Y-104802881D01*
X199662377Y-104983195D01*
X200591011Y-105143063D01*
X201409305Y-105281068D01*
X202108407Y-105395793D01*
X202679465Y-105485822D01*
X203113622Y-105549735D01*
X203402027Y-105586117D01*
X203535826Y-105593550D01*
X203544516Y-105589172D01*
X203511136Y-105482632D01*
X203425970Y-105237264D01*
X203295283Y-104870084D01*
X203125342Y-104398113D01*
X202922413Y-103838366D01*
X202692762Y-103207863D01*
X202442655Y-102523619D01*
X202178359Y-101802654D01*
X201906139Y-101061985D01*
X201632262Y-100318631D01*
X201362994Y-99589607D01*
X201104601Y-98891935D01*
X200863349Y-98242628D01*
X200645505Y-97658708D01*
X200457334Y-97157191D01*
X200305104Y-96755094D01*
X200195079Y-96469437D01*
X200133526Y-96317235D01*
X200122830Y-96296484D01*
X200056371Y-96355475D01*
X199900967Y-96523796D01*
X199675437Y-96780157D01*
X199398595Y-97103268D01*
X199175202Y-97368708D01*
X198272617Y-98448873D01*
X199374092Y-101465992D01*
X200475566Y-104483109D01*
X197284483Y-103942922D01*
X194093401Y-103402734D01*
X193908393Y-103618809D01*
X193779935Y-103779482D01*
X193715758Y-103880351D01*
X193714626Y-103884555D01*
X192731596Y-103711220D01*
X193134144Y-103231605D01*
X192217824Y-103070034D01*
X191818019Y-103001513D01*
X191557778Y-102964671D01*
X191410326Y-102959464D01*
X191348891Y-102985849D01*
X191346700Y-103043782D01*
X191354023Y-103068622D01*
X191404544Y-103214163D01*
X191497840Y-103475740D01*
X191618516Y-103810363D01*
X191699067Y-104032177D01*
X191991595Y-104835571D01*
X179559040Y-102643376D01*
X179679767Y-102965569D01*
X179800494Y-103287761D01*
X166309430Y-100908922D01*
X166791737Y-100327677D01*
X166987099Y-100092238D01*
X167959437Y-100263687D01*
X168035994Y-100297512D01*
X168259603Y-100355116D01*
X168610311Y-100432315D01*
X169068161Y-100524931D01*
X169613197Y-100628782D01*
X170225463Y-100739687D01*
X170263445Y-100746395D01*
X172580527Y-101154959D01*
X172910417Y-100761770D01*
X173050027Y-100595227D01*
X173098755Y-100537061D01*
X174094807Y-100712691D01*
X174114691Y-100734416D01*
X174201290Y-100765857D01*
X174362740Y-100808553D01*
X174607177Y-100864047D01*
X174942738Y-100933879D01*
X175377559Y-101019588D01*
X175919775Y-101122717D01*
X176577525Y-101244806D01*
X177358944Y-101387395D01*
X178272168Y-101552026D01*
X179325335Y-101740239D01*
X180526582Y-101953574D01*
X181884042Y-102193573D01*
X182340095Y-102274024D01*
X183501525Y-102478394D01*
X184614848Y-102673477D01*
X185668872Y-102857357D01*
X186652400Y-103028118D01*
X187554239Y-103183845D01*
X188363191Y-103322620D01*
X189068065Y-103442528D01*
X189657663Y-103541652D01*
X190120792Y-103618077D01*
X190446255Y-103669886D01*
X190622858Y-103695163D01*
X190652708Y-103696820D01*
X190631415Y-103600373D01*
X190568760Y-103394626D01*
X190503949Y-103199642D01*
X190347847Y-102744109D01*
X186419752Y-102028085D01*
X182491657Y-101312061D01*
X183146621Y-100531329D01*
X184144408Y-100707266D01*
X184219347Y-100734027D01*
X184453951Y-100787901D01*
X184840956Y-100867530D01*
X185373107Y-100971557D01*
X186043142Y-101098624D01*
X186843802Y-101247375D01*
X187767826Y-101416453D01*
X188807956Y-101604500D01*
X189956931Y-101810157D01*
X191207492Y-102032069D01*
X191621155Y-102105097D01*
X192918055Y-102332902D01*
X194111635Y-102540791D01*
X195195059Y-102727632D01*
X196161491Y-102892293D01*
X197004096Y-103033640D01*
X197716036Y-103150542D01*
X198290476Y-103241865D01*
X198720581Y-103306478D01*
X198999514Y-103343248D01*
X199120441Y-103351041D01*
X199125172Y-103348263D01*
X199092929Y-103247766D01*
X199007840Y-103003882D01*
X198874930Y-102630352D01*
X198699226Y-102140921D01*
X198485753Y-101549332D01*
X198239538Y-100869330D01*
X197965606Y-100114657D01*
X197668985Y-99299056D01*
X197354698Y-98436273D01*
X197027774Y-97540050D01*
X196693236Y-96624131D01*
X196356112Y-95702259D01*
X196021427Y-94788178D01*
X195694209Y-93895632D01*
X195379482Y-93038363D01*
X195082272Y-92230116D01*
X194807607Y-91484636D01*
X194560510Y-90815663D01*
X194346009Y-90236943D01*
X194169129Y-89762219D01*
X194034898Y-89405234D01*
X193948340Y-89179733D01*
X193914481Y-89099459D01*
X193914405Y-89099431D01*
X193856590Y-89161632D01*
X193699449Y-89342433D01*
X193452405Y-89630639D01*
X193124883Y-90015050D01*
X192726306Y-90484474D01*
X192266098Y-91027711D01*
X191753681Y-91633568D01*
X191198482Y-92290844D01*
X190609922Y-92988346D01*
X189997425Y-93714876D01*
X189370416Y-94459238D01*
X188738319Y-95210236D01*
X188110557Y-95956672D01*
X187496552Y-96687352D01*
X186905732Y-97391077D01*
X186347516Y-98056652D01*
X185831331Y-98672880D01*
X185366601Y-99228565D01*
X184962747Y-99712509D01*
X184629195Y-100113519D01*
X184375368Y-100420395D01*
X184210690Y-100621942D01*
X184144584Y-100706962D01*
X184144408Y-100707266D01*
X183146621Y-100531329D01*
X187602120Y-95220276D01*
X186281798Y-91583722D01*
X186009807Y-90838614D01*
X185753385Y-90143916D01*
X185518615Y-89515551D01*
X185311580Y-88969443D01*
X185138362Y-88521516D01*
X185005041Y-88187692D01*
X184917701Y-87983895D01*
X184884262Y-87924823D01*
X184823645Y-87985713D01*
X184663291Y-88165765D01*
X184412187Y-88454327D01*
X184079324Y-88840743D01*
X183673690Y-89314362D01*
X183204273Y-89864528D01*
X182680062Y-90480588D01*
X182110047Y-91151889D01*
X181503217Y-91867776D01*
X180868560Y-92617597D01*
X180215064Y-93390695D01*
X179551719Y-94176421D01*
X178887514Y-94964117D01*
X178231437Y-95743131D01*
X177592477Y-96502810D01*
X176979624Y-97232499D01*
X176401866Y-97921545D01*
X175868190Y-98559293D01*
X175387588Y-99135092D01*
X174969047Y-99638285D01*
X174621557Y-100058221D01*
X174354105Y-100384244D01*
X174175682Y-100605702D01*
X174095275Y-100711940D01*
X174094807Y-100712691D01*
X173098755Y-100537061D01*
X173281040Y-100319478D01*
X173586173Y-99955159D01*
X173948138Y-99522914D01*
X174349653Y-99043383D01*
X174773431Y-98537202D01*
X174848693Y-98447298D01*
X176457080Y-96526016D01*
X175657428Y-94314168D01*
X175447949Y-93738436D01*
X175256006Y-93217946D01*
X175089315Y-92773058D01*
X174955595Y-92424135D01*
X174862557Y-92191538D01*
X174817921Y-92095626D01*
X174816211Y-92094275D01*
X174754578Y-92155238D01*
X174596929Y-92332419D01*
X174355322Y-92611681D01*
X174041820Y-92978887D01*
X173668484Y-93419896D01*
X173247375Y-93920575D01*
X172790555Y-94466784D01*
X172723063Y-94547730D01*
X170671483Y-97009229D01*
X171310920Y-98747124D01*
X171950358Y-100485019D01*
X170138380Y-100187027D01*
X169541972Y-100089708D01*
X169089722Y-100018993D01*
X168758836Y-99973190D01*
X168526524Y-99950607D01*
X168369988Y-99949549D01*
X168266438Y-99968325D01*
X168193079Y-100005240D01*
X168149457Y-100039290D01*
X168013680Y-100175530D01*
X167959437Y-100263687D01*
X166987099Y-100092238D01*
X167274043Y-99746432D01*
X165432748Y-99398590D01*
X164896770Y-99298788D01*
X164418784Y-99212552D01*
X164023089Y-99144041D01*
X163733987Y-99097408D01*
X163575776Y-99076811D01*
X163553691Y-99077189D01*
X163564796Y-99162473D01*
X163624978Y-99371163D01*
X163723510Y-99668242D01*
X163804767Y-99896894D01*
X164093605Y-100690159D01*
X154687662Y-99031637D01*
X155117672Y-98518540D01*
X155321001Y-98270864D01*
X155386046Y-98187587D01*
X156369622Y-98361018D01*
X156385996Y-98392176D01*
X156478323Y-98431629D01*
X156659219Y-98482030D01*
X156941303Y-98546032D01*
X157337193Y-98626288D01*
X157859506Y-98725451D01*
X158520861Y-98846175D01*
X159333874Y-98991111D01*
X159537230Y-99027019D01*
X160386169Y-99175635D01*
X161081466Y-99294727D01*
X161635884Y-99386119D01*
X162062189Y-99451629D01*
X162373145Y-99493084D01*
X162581516Y-99512304D01*
X162700066Y-99511113D01*
X162741559Y-99491334D01*
X162741593Y-99484569D01*
X162698944Y-99341185D01*
X162606813Y-99069490D01*
X162473123Y-98690717D01*
X162305800Y-98226098D01*
X162112762Y-97696867D01*
X161901936Y-97124257D01*
X161681242Y-96529502D01*
X161458605Y-95933834D01*
X161441772Y-95889131D01*
X162442942Y-96065665D01*
X162446386Y-96125623D01*
X162451193Y-96139811D01*
X162510405Y-96294939D01*
X162612347Y-96567772D01*
X162741635Y-96916967D01*
X162855463Y-97226368D01*
X163184231Y-98122573D01*
X166898879Y-98777566D01*
X167714374Y-98919697D01*
X168456925Y-99045839D01*
X169112246Y-99153767D01*
X169666055Y-99241258D01*
X170104066Y-99306089D01*
X170411998Y-99346036D01*
X170575565Y-99358875D01*
X170598807Y-99353517D01*
X170564861Y-99246617D01*
X170479137Y-99001193D01*
X170347975Y-98634417D01*
X170177715Y-98163463D01*
X169974697Y-97605505D01*
X169745261Y-96977713D01*
X169495746Y-96297262D01*
X169232494Y-95581324D01*
X168961843Y-94847073D01*
X168690134Y-94111680D01*
X168423706Y-93392320D01*
X168168901Y-92706166D01*
X167932057Y-92070388D01*
X167719514Y-91502163D01*
X167537614Y-91018661D01*
X167392695Y-90637057D01*
X167291097Y-90374522D01*
X167239162Y-90248230D01*
X167234010Y-90239380D01*
X167172321Y-90300472D01*
X167013046Y-90478286D01*
X166767394Y-90759784D01*
X166446573Y-91131922D01*
X166061789Y-91581665D01*
X165624252Y-92095971D01*
X165145166Y-92661800D01*
X164783431Y-93090643D01*
X164204268Y-93779285D01*
X163725942Y-94350873D01*
X163339428Y-94817205D01*
X163035699Y-95190083D01*
X162805731Y-95481306D01*
X162640497Y-95702675D01*
X162530972Y-95865991D01*
X162468128Y-95983054D01*
X162442942Y-96065665D01*
X161441772Y-95889131D01*
X161241949Y-95358487D01*
X161039194Y-94824693D01*
X160858264Y-94353687D01*
X160707083Y-93966703D01*
X160593573Y-93684971D01*
X160525657Y-93529727D01*
X160510741Y-93505965D01*
X160446347Y-93565794D01*
X160287918Y-93738183D01*
X160050161Y-94005889D01*
X159747785Y-94351671D01*
X159395497Y-94758284D01*
X159008003Y-95208487D01*
X158600011Y-95685036D01*
X158186229Y-96170688D01*
X157781364Y-96648200D01*
X157400123Y-97100330D01*
X157057214Y-97509834D01*
X156767343Y-97859470D01*
X156545219Y-98131994D01*
X156405548Y-98310164D01*
X156369622Y-98361018D01*
X155386046Y-98187587D01*
X155475121Y-98073548D01*
X155552925Y-97961575D01*
X155557237Y-97951251D01*
X155477403Y-97928526D01*
X155243148Y-97878980D01*
X154866858Y-97804902D01*
X154360927Y-97708581D01*
X153737743Y-97592302D01*
X153009698Y-97458353D01*
X152189179Y-97309023D01*
X151288579Y-97146598D01*
X150320287Y-96973365D01*
X149296693Y-96791612D01*
X148817718Y-96707016D01*
X142068645Y-95516972D01*
X142753874Y-94695883D01*
X143734989Y-94868880D01*
X143808973Y-94898092D01*
X144044664Y-94954153D01*
X144436749Y-95036058D01*
X144979910Y-95142799D01*
X145668828Y-95273375D01*
X146498187Y-95426775D01*
X147462670Y-95601998D01*
X148556961Y-95798034D01*
X149775741Y-96013883D01*
X149974871Y-96048945D01*
X156256601Y-97154203D01*
X156993368Y-96266932D01*
X157263886Y-95937362D01*
X157491588Y-95652755D01*
X157656174Y-95439031D01*
X157737345Y-95322109D01*
X157742297Y-95310680D01*
X157716535Y-95220879D01*
X157638244Y-94987797D01*
X157512864Y-94626472D01*
X157345837Y-94151940D01*
X157142607Y-93579235D01*
X156908613Y-92923393D01*
X156649301Y-92199451D01*
X156370111Y-91422443D01*
X156076486Y-90607405D01*
X155773868Y-89769372D01*
X155467698Y-88923381D01*
X155163422Y-88084466D01*
X154866478Y-87267664D01*
X154582311Y-86488009D01*
X154316362Y-85760539D01*
X154074073Y-85100287D01*
X153860888Y-84522290D01*
X153682247Y-84041582D01*
X153543593Y-83673201D01*
X153450370Y-83432181D01*
X153408017Y-83333558D01*
X153406507Y-83331975D01*
X153348704Y-83394232D01*
X153191856Y-83575249D01*
X152945401Y-83863767D01*
X152618777Y-84248525D01*
X152221424Y-84718266D01*
X151762779Y-85261730D01*
X151252284Y-85867658D01*
X150699374Y-86524789D01*
X150113489Y-87221867D01*
X149504069Y-87947632D01*
X148880550Y-88690823D01*
X148252373Y-89440181D01*
X147628976Y-90184448D01*
X147019797Y-90912366D01*
X146434276Y-91612674D01*
X145881851Y-92274113D01*
X145371961Y-92885424D01*
X144914044Y-93435347D01*
X144517539Y-93912625D01*
X144191884Y-94305996D01*
X143946520Y-94604204D01*
X143790883Y-94795987D01*
X143734989Y-94868880D01*
X142753874Y-94695883D01*
X142928626Y-94486484D01*
X143788608Y-93455996D01*
X143005181Y-93293251D01*
X142529778Y-93200643D01*
X141991391Y-93105056D01*
X141495002Y-93025001D01*
X141426013Y-93014801D01*
X140630272Y-92899096D01*
X141115824Y-94252811D01*
X141601376Y-95606525D01*
X135937253Y-94607788D01*
X134981970Y-94440268D01*
X134076999Y-94283365D01*
X133235908Y-94139316D01*
X132472268Y-94010359D01*
X131799646Y-93898733D01*
X131231614Y-93806676D01*
X130781739Y-93736427D01*
X130463591Y-93690223D01*
X130290740Y-93670305D01*
X130262415Y-93671640D01*
X130283767Y-93784633D01*
X130350146Y-93984606D01*
X130369141Y-94034350D01*
X130486583Y-94334469D01*
X114567958Y-91527586D01*
X115248206Y-90722941D01*
X116235855Y-90897090D01*
X116306392Y-90924994D01*
X116524884Y-90976377D01*
X116872146Y-91047538D01*
X117328996Y-91134780D01*
X117876249Y-91234401D01*
X118494721Y-91342701D01*
X118930315Y-91416751D01*
X121664449Y-91876175D01*
X122215209Y-91221027D01*
X123208222Y-91396122D01*
X123228202Y-91417601D01*
X123314685Y-91448819D01*
X123475690Y-91491290D01*
X123719234Y-91546531D01*
X124053333Y-91616055D01*
X124486007Y-91701379D01*
X125025271Y-91804015D01*
X125679144Y-91925480D01*
X126455644Y-92067290D01*
X127362787Y-92230958D01*
X128408591Y-92417999D01*
X129601074Y-92629931D01*
X130948252Y-92868264D01*
X131712548Y-93003130D01*
X133143464Y-93255062D01*
X134415796Y-93478212D01*
X135537595Y-93673897D01*
X136516915Y-93843435D01*
X137361807Y-93988145D01*
X138080323Y-94109346D01*
X138680516Y-94208357D01*
X139170436Y-94286495D01*
X139558138Y-94345080D01*
X139851672Y-94385428D01*
X140059092Y-94408860D01*
X140188447Y-94416695D01*
X140247792Y-94410248D01*
X140253657Y-94401692D01*
X140217616Y-94287386D01*
X140128606Y-94029760D01*
X139991354Y-93641722D01*
X139810586Y-93136184D01*
X139591030Y-92526054D01*
X139337410Y-91824242D01*
X139054455Y-91043659D01*
X138746890Y-90197213D01*
X138419442Y-89297816D01*
X138076838Y-88358375D01*
X137723805Y-87391802D01*
X137585774Y-87014422D01*
X138562031Y-87186562D01*
X139199318Y-88941184D01*
X139402206Y-89499572D01*
X139600860Y-90045921D01*
X139782643Y-90545501D01*
X139934918Y-90963588D01*
X140045049Y-91265456D01*
X140063582Y-91316143D01*
X140290558Y-91936481D01*
X144433396Y-92666975D01*
X145807925Y-91021372D01*
X146183433Y-90569085D01*
X146521100Y-90157158D01*
X146806136Y-89804064D01*
X147023749Y-89528270D01*
X147159147Y-89348248D01*
X147198465Y-89284976D01*
X147173633Y-89191088D01*
X147097083Y-88957187D01*
X146975232Y-88601024D01*
X146814501Y-88140347D01*
X146621310Y-87592906D01*
X146402077Y-86976450D01*
X146163222Y-86308729D01*
X145911163Y-85607492D01*
X145652322Y-84890488D01*
X145393116Y-84175468D01*
X145139966Y-83480179D01*
X144899291Y-82822372D01*
X144677510Y-82219796D01*
X144481041Y-81690201D01*
X144316306Y-81251335D01*
X144189724Y-80920948D01*
X144107711Y-80716790D01*
X144077518Y-80655644D01*
X144016664Y-80717246D01*
X143857781Y-80896647D01*
X143611300Y-81181604D01*
X143287646Y-81559875D01*
X142897251Y-82019218D01*
X142450543Y-82547389D01*
X141957948Y-83132147D01*
X141429897Y-83761247D01*
X141298889Y-83917659D01*
X138562031Y-87186562D01*
X137585774Y-87014422D01*
X137365068Y-86411006D01*
X137005354Y-85428895D01*
X136649390Y-84458382D01*
X136301902Y-83512374D01*
X135967618Y-82603782D01*
X135651263Y-81745515D01*
X135357563Y-80950483D01*
X135091247Y-80231598D01*
X134857040Y-79601765D01*
X134659669Y-79073898D01*
X134503859Y-78660905D01*
X134394338Y-78375695D01*
X134335832Y-78231179D01*
X134327528Y-78215506D01*
X134267941Y-78276315D01*
X134108429Y-78456411D01*
X133857841Y-78745306D01*
X133525026Y-79132511D01*
X133118832Y-79607536D01*
X132648108Y-80159893D01*
X132121703Y-80779091D01*
X131548465Y-81454644D01*
X130937244Y-82176059D01*
X130296888Y-82932850D01*
X129636246Y-83714527D01*
X128964166Y-84510600D01*
X128289497Y-85310580D01*
X127621088Y-86103979D01*
X126967788Y-86880308D01*
X126338445Y-87629075D01*
X125741909Y-88339795D01*
X125187026Y-89001974D01*
X124682649Y-89605129D01*
X124237623Y-90138766D01*
X123860799Y-90592397D01*
X123561025Y-90955533D01*
X123347148Y-91217687D01*
X123228020Y-91368366D01*
X123208222Y-91396122D01*
X122215209Y-91221027D01*
X123993380Y-89105836D01*
X124490630Y-88513880D01*
X124956794Y-87958049D01*
X125379969Y-87452596D01*
X125748256Y-87011778D01*
X126049750Y-86649852D01*
X126272550Y-86381072D01*
X126404755Y-86219694D01*
X126434592Y-86181808D01*
X126458372Y-86115594D01*
X126455514Y-86003253D01*
X126421118Y-85828610D01*
X126350284Y-85575492D01*
X126238113Y-85227725D01*
X126079703Y-84769136D01*
X125870154Y-84183551D01*
X125626574Y-83514875D01*
X125399390Y-82899128D01*
X125188551Y-82336588D01*
X125001517Y-81846464D01*
X124845747Y-81447967D01*
X124728702Y-81160307D01*
X124657839Y-81002695D01*
X124641706Y-80978504D01*
X124592459Y-81014529D01*
X124473233Y-81136705D01*
X124280206Y-81349499D01*
X124009558Y-81657380D01*
X123657467Y-82064814D01*
X123220113Y-82576267D01*
X122693674Y-83196207D01*
X122074329Y-83929100D01*
X121358258Y-84779414D01*
X120541638Y-85751616D01*
X119691549Y-86765544D01*
X118712437Y-87934213D01*
X119583027Y-90305545D01*
X117036293Y-89903650D01*
X116655911Y-90370252D01*
X116462221Y-90609373D01*
X116312373Y-90797209D01*
X116237246Y-90895029D01*
X116235855Y-90897090D01*
X115248206Y-90722941D01*
X116054393Y-89769325D01*
X114431282Y-89459774D01*
X113929364Y-89365681D01*
X113486666Y-89285796D01*
X113129140Y-89224545D01*
X112882738Y-89186357D01*
X112773413Y-89175661D01*
X112770714Y-89176450D01*
X112784364Y-89260922D01*
X112847527Y-89474901D01*
X112950832Y-89789129D01*
X113084904Y-90174351D01*
X113136237Y-90317421D01*
X113539217Y-91432165D01*
X106524980Y-90195365D01*
X106624807Y-90427899D01*
X106724634Y-90660433D01*
X99546232Y-89394687D01*
X99870098Y-89050213D01*
X93737035Y-87911661D01*
X92632397Y-87707044D01*
X91494099Y-87497029D01*
X90346047Y-87285975D01*
X89212142Y-87078244D01*
X88116293Y-86878195D01*
X87082401Y-86690192D01*
X86134372Y-86518592D01*
X85296108Y-86367759D01*
X84591516Y-86242051D01*
X84368720Y-86202646D01*
X81133467Y-85632183D01*
X81449360Y-85262859D01*
X101225716Y-88749964D01*
X101293227Y-88787222D01*
X101515056Y-88847577D01*
X101878184Y-88928219D01*
X102369588Y-89026339D01*
X102976250Y-89139128D01*
X103282455Y-89193757D01*
X103937663Y-89306174D01*
X104485471Y-89393768D01*
X104912680Y-89454726D01*
X105206094Y-89487236D01*
X105352518Y-89489483D01*
X105366942Y-89480174D01*
X105332360Y-89361990D01*
X105250465Y-89117954D01*
X105130796Y-88774301D01*
X104982898Y-88357265D01*
X104816308Y-87893083D01*
X104640570Y-87407989D01*
X104465225Y-86928218D01*
X104299813Y-86480007D01*
X104153876Y-86089590D01*
X104036954Y-85783201D01*
X103958590Y-85587077D01*
X103929086Y-85526529D01*
X103868428Y-85586573D01*
X103718014Y-85755898D01*
X103495779Y-86013117D01*
X103219666Y-86336839D01*
X102907610Y-86705674D01*
X102577552Y-87098233D01*
X102247429Y-87493126D01*
X101935182Y-87868963D01*
X101658747Y-88204354D01*
X101436066Y-88477910D01*
X101285075Y-88668241D01*
X101225716Y-88749964D01*
X81449360Y-85262859D01*
X81580752Y-85109243D01*
X77657141Y-84417405D01*
X77917685Y-84097960D01*
X82817648Y-84961956D01*
X82837407Y-84984098D01*
X82924239Y-85015915D01*
X83086474Y-85058992D01*
X83332453Y-85114912D01*
X83670506Y-85185260D01*
X84108971Y-85271618D01*
X84656182Y-85375573D01*
X85320475Y-85498708D01*
X86110184Y-85642606D01*
X87033644Y-85808850D01*
X88099190Y-85999027D01*
X89315159Y-86214718D01*
X90655158Y-86451387D01*
X92026154Y-86692721D01*
X93238898Y-86905253D01*
X94301765Y-87090347D01*
X95223131Y-87249367D01*
X96011367Y-87383672D01*
X96674848Y-87494626D01*
X97221950Y-87583591D01*
X97661045Y-87651930D01*
X98000508Y-87701004D01*
X98248714Y-87732177D01*
X98414037Y-87746809D01*
X98504849Y-87746264D01*
X98529646Y-87732405D01*
X98493947Y-87618251D01*
X98405760Y-87361274D01*
X98269974Y-86974913D01*
X98091480Y-86472600D01*
X97875166Y-85867775D01*
X97625919Y-85173872D01*
X97348630Y-84404328D01*
X97048188Y-83572579D01*
X96729481Y-82692061D01*
X96447238Y-81913661D01*
X97425356Y-82086130D01*
X98403278Y-84801651D01*
X98639881Y-85457856D01*
X98862862Y-86074754D01*
X99064562Y-86631280D01*
X99237327Y-87106368D01*
X99373501Y-87478953D01*
X99465428Y-87727970D01*
X99499324Y-87817414D01*
X99584959Y-87998534D01*
X99695658Y-88100898D01*
X99887443Y-88162826D01*
X100049729Y-88193876D01*
X100482010Y-88270098D01*
X102322773Y-86058478D01*
X102759292Y-85536397D01*
X103162383Y-85058868D01*
X103519150Y-84640813D01*
X103816696Y-84297160D01*
X104042126Y-84042832D01*
X104182540Y-83892754D01*
X104224545Y-83857614D01*
X104266480Y-83936990D01*
X104357851Y-84157571D01*
X104491664Y-84500905D01*
X104660922Y-84948544D01*
X104858629Y-85482040D01*
X105077787Y-86082942D01*
X105255175Y-86575540D01*
X106224794Y-89282706D01*
X109209540Y-89808998D01*
X109896567Y-89928809D01*
X110528298Y-90036413D01*
X111086022Y-90128824D01*
X111551030Y-90203050D01*
X111904612Y-90256099D01*
X112128056Y-90284985D01*
X112202749Y-90287301D01*
X112179302Y-90190749D01*
X112109525Y-89977128D01*
X112007090Y-89687712D01*
X111976336Y-89603897D01*
X111741460Y-88968479D01*
X107015507Y-88089552D01*
X107692180Y-87284660D01*
X108685552Y-87459819D01*
X108703437Y-87486497D01*
X108792607Y-87522269D01*
X108963590Y-87569232D01*
X109226913Y-87629478D01*
X109593103Y-87705102D01*
X110072687Y-87798198D01*
X110676192Y-87910861D01*
X111414144Y-88045184D01*
X112297072Y-88203263D01*
X113335501Y-88387191D01*
X113437336Y-88405153D01*
X114490571Y-88590171D01*
X115387882Y-88746148D01*
X116139877Y-88874716D01*
X116757167Y-88977507D01*
X117250357Y-89056153D01*
X117630059Y-89112288D01*
X117906879Y-89147543D01*
X118091427Y-89163550D01*
X118194310Y-89161944D01*
X118226137Y-89144356D01*
X118225877Y-89142035D01*
X118187281Y-89016638D01*
X118097521Y-88754679D01*
X117962974Y-88373475D01*
X117790012Y-87890345D01*
X117585016Y-87322607D01*
X117354357Y-86687578D01*
X117104415Y-86002577D01*
X116841563Y-85284923D01*
X116572178Y-84551932D01*
X116302636Y-83820921D01*
X116039313Y-83109211D01*
X115788584Y-82434120D01*
X115556827Y-81812964D01*
X115350415Y-81263061D01*
X115175726Y-80801730D01*
X115039135Y-80446290D01*
X114947019Y-80214056D01*
X114905753Y-80122349D01*
X114904859Y-80121608D01*
X114843602Y-80180973D01*
X114685502Y-80356118D01*
X114442448Y-80633012D01*
X114126333Y-80997625D01*
X113749047Y-81435928D01*
X113322480Y-81933891D01*
X112858523Y-82477481D01*
X112369068Y-83052671D01*
X111866005Y-83645429D01*
X111361226Y-84241727D01*
X110866619Y-84827533D01*
X110394078Y-85388818D01*
X109955493Y-85911551D01*
X109562753Y-86381702D01*
X109227751Y-86785241D01*
X108962378Y-87108139D01*
X108778522Y-87336364D01*
X108688077Y-87455888D01*
X108685552Y-87459819D01*
X107692180Y-87284660D01*
X108431800Y-86404895D01*
X108819768Y-85942465D01*
X109176096Y-85515953D01*
X109484840Y-85144581D01*
X109730062Y-84847575D01*
X109895823Y-84644157D01*
X109962815Y-84558519D01*
X109978023Y-84509999D01*
X109974933Y-84422992D01*
X109950093Y-84287201D01*
X109900050Y-84092327D01*
X109821348Y-83828076D01*
X109710534Y-83484149D01*
X109564154Y-83050249D01*
X109378755Y-82516079D01*
X109150882Y-81871342D01*
X108877081Y-81105741D01*
X108553899Y-80208977D01*
X108177881Y-79170755D01*
X107886480Y-78368347D01*
X107535505Y-77404059D01*
X107200830Y-76487234D01*
X106886995Y-75630142D01*
X106598536Y-74845052D01*
X106339992Y-74144230D01*
X106115901Y-73539944D01*
X105930802Y-73044466D01*
X105789232Y-72670061D01*
X105695731Y-72428999D01*
X105654835Y-72333547D01*
X105653746Y-72332465D01*
X105594012Y-72394520D01*
X105434120Y-72576449D01*
X105182564Y-72868240D01*
X104847838Y-73259887D01*
X104438434Y-73741380D01*
X103962844Y-74302712D01*
X103429562Y-74933872D01*
X102847079Y-75624853D01*
X102223890Y-76365646D01*
X101568486Y-77146242D01*
X101518713Y-77205582D01*
X97425356Y-82086130D01*
X96447238Y-81913661D01*
X96397398Y-81776209D01*
X96056829Y-80838463D01*
X95712662Y-79892254D01*
X95369786Y-78951021D01*
X95033090Y-78028200D01*
X94707463Y-77137227D01*
X94397795Y-76291537D01*
X94108973Y-75504568D01*
X93845887Y-74789756D01*
X93613426Y-74160536D01*
X93416479Y-73630343D01*
X93259935Y-73212616D01*
X93148683Y-72920790D01*
X93087612Y-72768301D01*
X93077519Y-72748527D01*
X93018090Y-72809214D01*
X92859362Y-72989001D01*
X92610512Y-73276966D01*
X92280719Y-73662181D01*
X91879159Y-74133723D01*
X91415010Y-74680666D01*
X90897449Y-75292087D01*
X90335653Y-75957059D01*
X89738800Y-76664659D01*
X89116068Y-77403961D01*
X88476633Y-78164041D01*
X87829674Y-78933974D01*
X87184367Y-79702834D01*
X86549889Y-80459698D01*
X85935419Y-81193639D01*
X85350134Y-81893736D01*
X84803210Y-82549059D01*
X84303826Y-83148687D01*
X83861160Y-83681694D01*
X83484386Y-84137154D01*
X83182684Y-84504145D01*
X82965231Y-84771740D01*
X82841204Y-84929015D01*
X82817648Y-84961956D01*
X77917685Y-84097960D01*
X78208880Y-83740936D01*
X76539572Y-83446592D01*
X76910926Y-84457772D01*
X77282280Y-85468952D01*
X55280671Y-81589475D01*
X55970458Y-80771258D01*
X56950555Y-80944076D01*
X57026381Y-80969854D01*
X57263228Y-81023145D01*
X57655219Y-81102864D01*
X58196473Y-81207923D01*
X58881112Y-81337237D01*
X59703259Y-81489719D01*
X60657034Y-81664283D01*
X61736557Y-81859843D01*
X62935951Y-82075313D01*
X64249336Y-82309605D01*
X65670834Y-82561635D01*
X66428322Y-82695379D01*
X67795489Y-82935784D01*
X69085358Y-83161279D01*
X70289746Y-83370485D01*
X71400470Y-83562027D01*
X72409343Y-83734528D01*
X73308185Y-83886610D01*
X74088810Y-84016898D01*
X74743036Y-84124015D01*
X75262676Y-84206583D01*
X75639550Y-84263227D01*
X75865472Y-84292570D01*
X75932964Y-84294269D01*
X75900627Y-84195457D01*
X75814727Y-83951413D01*
X75679741Y-83574348D01*
X75508529Y-83099711D01*
X79320696Y-83771899D01*
X79385486Y-83810945D01*
X79597224Y-83871098D01*
X79935509Y-83947618D01*
X80379938Y-84035762D01*
X80731699Y-84099804D01*
X82184025Y-84355888D01*
X83074661Y-83286023D01*
X83373781Y-82923321D01*
X83631744Y-82604079D01*
X83830114Y-82351631D01*
X83950457Y-82189310D01*
X83978350Y-82142141D01*
X83955787Y-82040874D01*
X83885525Y-81816663D01*
X83779129Y-81501438D01*
X83648157Y-81127132D01*
X83504173Y-80725673D01*
X83358737Y-80328993D01*
X83223413Y-79969023D01*
X83109763Y-79677693D01*
X83029346Y-79486932D01*
X82995452Y-79427636D01*
X82935463Y-79488162D01*
X82782390Y-79660341D01*
X82551711Y-79925874D01*
X82258907Y-80266461D01*
X81919455Y-80663801D01*
X81548837Y-81099595D01*
X81162531Y-81555546D01*
X80776016Y-82013352D01*
X80404772Y-82454713D01*
X80064278Y-82861331D01*
X79770014Y-83214906D01*
X79537459Y-83497138D01*
X79382091Y-83689728D01*
X79320696Y-83771899D01*
X75508529Y-83099711D01*
X75500144Y-83076469D01*
X75280416Y-82469988D01*
X75025032Y-81767115D01*
X74738469Y-80980059D01*
X74425204Y-80121030D01*
X74089715Y-79202238D01*
X73736476Y-78235893D01*
X73369967Y-77234206D01*
X73182198Y-76721475D01*
X74255433Y-76910716D01*
X74272582Y-77012598D01*
X74342268Y-77254276D01*
X74458150Y-77616777D01*
X74613887Y-78081129D01*
X74803136Y-78628359D01*
X75019557Y-79239497D01*
X75212222Y-79773283D01*
X76215425Y-82529827D01*
X77537498Y-82741391D01*
X78859571Y-82952956D01*
X79655542Y-82009416D01*
X80451512Y-81065878D01*
X78997286Y-77058007D01*
X78712640Y-76275602D01*
X78444796Y-75543396D01*
X78199369Y-74876459D01*
X77981972Y-74289855D01*
X77798218Y-73798651D01*
X77653723Y-73417912D01*
X77554099Y-73162705D01*
X77504961Y-73048097D01*
X77501299Y-73043184D01*
X77438375Y-73103314D01*
X77284209Y-73274616D01*
X77055203Y-73537545D01*
X76767758Y-73872558D01*
X76438279Y-74260113D01*
X76083165Y-74680664D01*
X75718819Y-75114669D01*
X75361645Y-75542584D01*
X75028044Y-75944866D01*
X74734417Y-76301970D01*
X74497168Y-76594353D01*
X74332698Y-76802472D01*
X74257409Y-76906783D01*
X74255433Y-76910716D01*
X73182198Y-76721475D01*
X72994664Y-76209386D01*
X72615043Y-75173641D01*
X72235580Y-74139184D01*
X71860755Y-73118223D01*
X71495042Y-72122969D01*
X71142920Y-71165631D01*
X70808864Y-70258420D01*
X70497353Y-69413544D01*
X70212861Y-68643215D01*
X69959867Y-67959642D01*
X69742847Y-67375035D01*
X69566279Y-66901604D01*
X69434640Y-66551558D01*
X69352405Y-66337108D01*
X69324216Y-66270064D01*
X69266685Y-66332370D01*
X69108613Y-66514383D01*
X68858384Y-66806163D01*
X68524381Y-67197765D01*
X68114986Y-67679249D01*
X67638587Y-68240670D01*
X67103563Y-68872088D01*
X66518301Y-69563560D01*
X65891183Y-70305144D01*
X65230593Y-71086899D01*
X64544914Y-71898879D01*
X63842531Y-72731145D01*
X63131827Y-73573754D01*
X62421187Y-74416763D01*
X61718992Y-75250230D01*
X61033628Y-76064214D01*
X60373477Y-76848771D01*
X59746924Y-77593960D01*
X59162352Y-78289837D01*
X58628146Y-78926461D01*
X58152688Y-79493891D01*
X57744361Y-79982183D01*
X57411551Y-80381394D01*
X57162641Y-80681583D01*
X57006013Y-80872809D01*
X56950555Y-80944076D01*
X55970458Y-80771258D01*
X56195602Y-80504197D01*
X57110535Y-79418919D01*
X55194045Y-79080990D01*
X54581300Y-78973653D01*
X54115843Y-78894743D01*
X53778350Y-78842418D01*
X53549501Y-78814834D01*
X53409976Y-78810149D01*
X53340456Y-78826520D01*
X53321618Y-78862106D01*
X53330073Y-78903221D01*
X53380593Y-79048763D01*
X53473890Y-79310340D01*
X53594567Y-79644962D01*
X53675118Y-79866776D01*
X53967644Y-80670171D01*
X38641694Y-77967792D01*
X39071704Y-77454696D01*
X39275034Y-77207019D01*
X39314043Y-77157077D01*
X40293010Y-77329695D01*
X40372303Y-77354923D01*
X40605478Y-77406721D01*
X40979580Y-77482658D01*
X41481659Y-77580304D01*
X42098763Y-77697230D01*
X42817940Y-77831005D01*
X43626238Y-77979200D01*
X44510707Y-78139382D01*
X45458393Y-78309126D01*
X46451267Y-78485102D01*
X47449274Y-78660397D01*
X48397469Y-78825615D01*
X49282854Y-78978577D01*
X50092434Y-79117099D01*
X50813215Y-79238999D01*
X51432199Y-79342094D01*
X51936394Y-79424202D01*
X52312803Y-79483140D01*
X52548430Y-79516726D01*
X52630275Y-79522819D01*
X52609226Y-79421452D01*
X52545633Y-79212860D01*
X52482049Y-79025045D01*
X52324962Y-78577517D01*
X49816950Y-78112582D01*
X47308937Y-77647646D01*
X47953043Y-76879998D01*
X48942688Y-77054499D01*
X49020674Y-77080535D01*
X49250202Y-77132500D01*
X49615959Y-77207472D01*
X50102631Y-77302527D01*
X50694903Y-77414742D01*
X51377463Y-77541193D01*
X52134994Y-77678958D01*
X52952182Y-77825114D01*
X53326334Y-77891262D01*
X57724764Y-78666152D01*
X58568463Y-77660009D01*
X58859959Y-77308601D01*
X59109659Y-77000376D01*
X59298438Y-76759517D01*
X59407165Y-76610207D01*
X59425911Y-76575898D01*
X59401584Y-76477412D01*
X59324877Y-76240117D01*
X59202402Y-75882029D01*
X59040775Y-75421167D01*
X58846605Y-74875548D01*
X58626512Y-74263190D01*
X58387104Y-73602110D01*
X58134998Y-72910327D01*
X57876805Y-72205855D01*
X57619142Y-71506717D01*
X57368620Y-70830927D01*
X57131853Y-70196502D01*
X56915455Y-69621462D01*
X56726041Y-69123824D01*
X56570223Y-68721605D01*
X56454614Y-68432824D01*
X56385829Y-68275495D01*
X56370326Y-68251525D01*
X56307358Y-68314081D01*
X56146691Y-68493697D01*
X55899196Y-68777486D01*
X55575747Y-69152561D01*
X55187216Y-69606039D01*
X54744475Y-70125033D01*
X54258399Y-70696655D01*
X53739858Y-71308021D01*
X53199727Y-71946245D01*
X52648877Y-72598440D01*
X52098180Y-73251722D01*
X51558512Y-73893202D01*
X51040742Y-74509997D01*
X50555746Y-75089220D01*
X50114394Y-75617985D01*
X49727560Y-76083406D01*
X49406117Y-76472596D01*
X49160936Y-76772671D01*
X49002892Y-76970744D01*
X48942856Y-77053930D01*
X48942688Y-77054499D01*
X47953043Y-76879998D01*
X48933132Y-75711925D01*
X49341331Y-75222681D01*
X49711024Y-74774297D01*
X50028910Y-74383327D01*
X50281688Y-74066330D01*
X50456058Y-73839860D01*
X50538719Y-73720475D01*
X50543588Y-73707304D01*
X50507516Y-73590542D01*
X50421863Y-73341490D01*
X50294435Y-72981400D01*
X50133038Y-72531522D01*
X49945475Y-72013109D01*
X49739553Y-71447414D01*
X49523079Y-70855688D01*
X49303855Y-70259183D01*
X49089689Y-69679151D01*
X48888385Y-69136844D01*
X48707750Y-68653516D01*
X48555588Y-68250415D01*
X48439705Y-67948796D01*
X48367906Y-67769909D01*
X48347896Y-67729040D01*
X48288357Y-67790116D01*
X48133379Y-67965605D01*
X47896080Y-68239964D01*
X47589574Y-68597647D01*
X47226981Y-69023107D01*
X46821416Y-69500800D01*
X46385996Y-70015182D01*
X45933838Y-70550707D01*
X45478059Y-71091828D01*
X45031777Y-71623002D01*
X44608107Y-72128683D01*
X44220166Y-72593324D01*
X43881072Y-73001384D01*
X43603941Y-73337314D01*
X43401889Y-73585570D01*
X43330039Y-73675885D01*
X43144974Y-73911994D01*
X43829320Y-75791297D01*
X44513665Y-77670601D01*
X42538239Y-77344557D01*
X41904894Y-77241224D01*
X41417631Y-77165340D01*
X41055782Y-77114900D01*
X40798677Y-77087898D01*
X40625648Y-77082329D01*
X40516025Y-77096188D01*
X40449138Y-77127468D01*
X40433857Y-77140382D01*
X40322942Y-77269371D01*
X40293010Y-77329695D01*
X39314043Y-77157077D01*
X39429155Y-77009703D01*
X39506958Y-76897730D01*
X39511270Y-76887407D01*
X39432051Y-76863311D01*
X39200557Y-76812956D01*
X38831342Y-76739074D01*
X38338960Y-76644400D01*
X37737969Y-76531665D01*
X37042924Y-76403604D01*
X36268381Y-76262951D01*
X35428896Y-76112439D01*
X34635943Y-75971878D01*
X29751062Y-75110542D01*
X30038161Y-75934921D01*
X22220829Y-74556514D01*
X22863466Y-73788607D01*
X22882670Y-73765659D01*
X23868192Y-73939434D01*
X23944433Y-73968449D01*
X24160945Y-74020077D01*
X24491033Y-74088721D01*
X24908002Y-74168782D01*
X25301401Y-74239974D01*
X26742788Y-74494129D01*
X27343387Y-73773549D01*
X28337131Y-73948773D01*
X28417207Y-73970684D01*
X28652270Y-74019576D01*
X29030501Y-74093281D01*
X29540083Y-74189630D01*
X30169198Y-74306458D01*
X30906026Y-74441594D01*
X31738748Y-74592872D01*
X32655548Y-74758122D01*
X33644606Y-74935178D01*
X34694104Y-75121870D01*
X35748968Y-75308407D01*
X36845625Y-75501193D01*
X37893581Y-75684279D01*
X38880990Y-75855661D01*
X39796004Y-76013336D01*
X40626775Y-76155299D01*
X41361457Y-76279547D01*
X41988202Y-76384075D01*
X42495162Y-76466879D01*
X42870489Y-76525955D01*
X43102339Y-76559299D01*
X43178935Y-76565231D01*
X43152660Y-76477378D01*
X43073332Y-76244854D01*
X42945959Y-75881460D01*
X42775556Y-75400996D01*
X42567135Y-74817265D01*
X42325709Y-74144068D01*
X42056290Y-73395204D01*
X41763891Y-72584477D01*
X41453523Y-71725687D01*
X41130200Y-70832634D01*
X40798935Y-69919121D01*
X40464739Y-68998949D01*
X40132626Y-68085918D01*
X39807608Y-67193830D01*
X39494696Y-66336487D01*
X39198905Y-65527689D01*
X38925246Y-64781237D01*
X38678732Y-64110933D01*
X38464375Y-63530577D01*
X38287189Y-63053973D01*
X38152185Y-62694919D01*
X38064376Y-62467217D01*
X38028774Y-62384669D01*
X38028585Y-62384583D01*
X37969691Y-62446647D01*
X37811830Y-62627550D01*
X37564431Y-62916035D01*
X37236927Y-63300852D01*
X36838746Y-63770747D01*
X36379323Y-64314465D01*
X35868085Y-64920754D01*
X35314465Y-65578362D01*
X34727893Y-66276034D01*
X34117800Y-67002517D01*
X33493617Y-67746558D01*
X32864775Y-68496906D01*
X32240704Y-69242303D01*
X31630836Y-69971500D01*
X31044601Y-70673241D01*
X30491431Y-71336275D01*
X29980756Y-71949347D01*
X29522006Y-72501206D01*
X29124614Y-72980596D01*
X28798008Y-73376266D01*
X28551622Y-73676961D01*
X28394885Y-73871428D01*
X28337227Y-73948416D01*
X28337131Y-73948773D01*
X27343387Y-73773549D01*
X27365748Y-73746721D01*
X27614114Y-73443508D01*
X27818061Y-73184608D01*
X27955156Y-72999170D01*
X28002881Y-72918940D01*
X27980367Y-72814180D01*
X27909056Y-72587658D01*
X27800839Y-72271493D01*
X27667613Y-71897805D01*
X27521269Y-71498716D01*
X27373700Y-71106344D01*
X27236802Y-70752809D01*
X27122466Y-70470231D01*
X27042585Y-70290730D01*
X27012016Y-70242962D01*
X26948915Y-70302604D01*
X26794183Y-70472423D01*
X26564685Y-70732588D01*
X26277288Y-71063266D01*
X25948859Y-71444628D01*
X25596262Y-71856843D01*
X25236365Y-72280078D01*
X24886033Y-72694504D01*
X24562134Y-73080288D01*
X24281532Y-73417601D01*
X24061096Y-73686609D01*
X23917689Y-73867485D01*
X23868192Y-73939434D01*
X22882670Y-73765659D01*
X23506102Y-73020700D01*
X22847331Y-72879570D01*
X22188559Y-72738442D01*
X22334392Y-71911381D01*
X24159032Y-72233115D01*
X24746456Y-71541446D01*
X25020717Y-71217766D01*
X25282585Y-70907417D01*
X25494829Y-70654583D01*
X25584709Y-70546646D01*
X25835537Y-70243514D01*
X24750654Y-67284393D01*
X23665770Y-64325272D01*
X23829115Y-63538528D01*
X23992462Y-62751785D01*
X25207747Y-66098658D01*
X25467727Y-66811956D01*
X25710846Y-67473828D01*
X25930893Y-68067752D01*
X26121660Y-68577202D01*
X26276939Y-68985654D01*
X26390521Y-69276584D01*
X26456195Y-69433466D01*
X26469443Y-69456611D01*
X26542067Y-69401786D01*
X26688696Y-69247246D01*
X26878129Y-69025961D01*
X26885465Y-69017029D01*
X27076060Y-68793458D01*
X27225099Y-68634907D01*
X27301273Y-68574603D01*
X27302236Y-68574680D01*
X27343614Y-68653040D01*
X27433667Y-68868100D01*
X27563571Y-69197285D01*
X27724504Y-69618022D01*
X27907639Y-70107739D01*
X28008491Y-70381542D01*
X28223349Y-70963593D01*
X28390223Y-71402893D01*
X28517166Y-71716486D01*
X28612231Y-71921412D01*
X28683473Y-72034714D01*
X28738946Y-72073432D01*
X28786703Y-72054610D01*
X28795238Y-72046284D01*
X28867715Y-71962368D01*
X29040581Y-71758119D01*
X29305726Y-71443213D01*
X29655044Y-71027326D01*
X30080426Y-70520134D01*
X30573766Y-69931314D01*
X31126953Y-69270540D01*
X31731882Y-68547490D01*
X32380442Y-67771840D01*
X33064529Y-66953264D01*
X33601104Y-66310909D01*
X34304022Y-65469929D01*
X34975908Y-64667396D01*
X35608852Y-63912678D01*
X36194950Y-63215141D01*
X36726294Y-62584152D01*
X37194976Y-62029080D01*
X37593091Y-61559292D01*
X37912731Y-61184155D01*
X38145989Y-60913036D01*
X38284960Y-60755303D01*
X38322840Y-60717012D01*
X38357928Y-60795868D01*
X38445869Y-61021685D01*
X38582112Y-61382121D01*
X38762108Y-61864833D01*
X38981303Y-62457473D01*
X39235149Y-63147701D01*
X39519093Y-63923172D01*
X39828585Y-64771541D01*
X40159074Y-65680465D01*
X40506009Y-66637601D01*
X40524950Y-66689940D01*
X40873896Y-67653551D01*
X41207296Y-68572865D01*
X41520500Y-69435150D01*
X41808860Y-70227669D01*
X42067727Y-70937688D01*
X42292453Y-71552473D01*
X42478387Y-72059287D01*
X42620883Y-72445397D01*
X42715291Y-72698069D01*
X42756962Y-72804566D01*
X42757325Y-72805322D01*
X42788802Y-72821030D01*
X42852854Y-72789459D01*
X42957527Y-72701628D01*
X43110862Y-72548561D01*
X43320904Y-72321279D01*
X43595697Y-72010806D01*
X43943284Y-71608162D01*
X44371708Y-71104371D01*
X44889015Y-70490454D01*
X45503246Y-69757433D01*
X45714622Y-69504578D01*
X46263870Y-68848376D01*
X46780495Y-68233304D01*
X47254354Y-67671292D01*
X47675304Y-67174268D01*
X48033199Y-66754159D01*
X48317899Y-66422893D01*
X48519257Y-66192397D01*
X48627132Y-66074601D01*
X48642598Y-66061548D01*
X48679709Y-66140250D01*
X48767771Y-66362102D01*
X48900714Y-66710810D01*
X49072472Y-67170078D01*
X49276977Y-67723613D01*
X49508161Y-68355117D01*
X49759957Y-69048297D01*
X49926905Y-69510622D01*
X50188522Y-70234336D01*
X50433244Y-70906663D01*
X50655019Y-71511311D01*
X50847792Y-72031988D01*
X51005508Y-72452400D01*
X51122116Y-72756258D01*
X51191560Y-72927268D01*
X51208388Y-72959463D01*
X51269295Y-72898046D01*
X51428096Y-72718970D01*
X51674238Y-72434620D01*
X51997161Y-72057382D01*
X52386310Y-71599640D01*
X52831126Y-71073780D01*
X53321054Y-70492187D01*
X53845533Y-69867247D01*
X53922642Y-69775180D01*
X54452154Y-69145017D01*
X54949974Y-68556872D01*
X55405386Y-68023106D01*
X55807672Y-67556076D01*
X56146115Y-67168140D01*
X56410000Y-66871658D01*
X56588608Y-66678988D01*
X56671223Y-66602490D01*
X56674509Y-66601751D01*
X56717162Y-66682529D01*
X56811737Y-66908460D01*
X56952852Y-67265354D01*
X57135131Y-67739020D01*
X57353196Y-68315266D01*
X57601666Y-68979904D01*
X57875164Y-69718739D01*
X58168310Y-70517584D01*
X58406143Y-71170453D01*
X58710235Y-72007022D01*
X58997481Y-72795646D01*
X59262627Y-73522009D01*
X59500421Y-74171799D01*
X59705611Y-74730704D01*
X59872943Y-75184409D01*
X59997165Y-75518600D01*
X60073025Y-75718965D01*
X60095197Y-75773077D01*
X60153843Y-75717700D01*
X60313336Y-75541739D01*
X60565780Y-75254424D01*
X60903286Y-74864976D01*
X61317962Y-74382624D01*
X61801917Y-73816594D01*
X62347258Y-73176111D01*
X62946095Y-72470401D01*
X63590537Y-71708690D01*
X64272689Y-70900204D01*
X64853785Y-70209856D01*
X65561414Y-69368958D01*
X66237888Y-68566371D01*
X66875288Y-67811413D01*
X67465701Y-67113400D01*
X68001210Y-66481647D01*
X68473900Y-65925473D01*
X68875854Y-65454192D01*
X69199157Y-65077123D01*
X69435892Y-64803579D01*
X69578145Y-64642879D01*
X69618690Y-64601832D01*
X69654054Y-64680574D01*
X69742579Y-64905846D01*
X69879574Y-65265036D01*
X70060343Y-65745532D01*
X70280193Y-66334720D01*
X70534429Y-67019990D01*
X70818358Y-67788728D01*
X71127285Y-68628321D01*
X71456518Y-69526159D01*
X71741819Y-70306509D01*
X72084005Y-71242891D01*
X72409276Y-72131426D01*
X72712983Y-72959517D01*
X72990482Y-73714566D01*
X73237124Y-74383975D01*
X73448260Y-74955148D01*
X73619245Y-75415487D01*
X73745430Y-75752394D01*
X73822170Y-75953272D01*
X73844990Y-76007669D01*
X73902610Y-75946011D01*
X74056310Y-75768800D01*
X74293774Y-75490575D01*
X74602686Y-75125875D01*
X74970728Y-74689238D01*
X75385584Y-74195202D01*
X75809381Y-73688887D01*
X76257891Y-73153881D01*
X76672249Y-72662765D01*
X77039988Y-72230074D01*
X77348644Y-71870338D01*
X77585754Y-71598089D01*
X77738852Y-71427860D01*
X77795043Y-71373856D01*
X77831305Y-71452600D01*
X77919722Y-71676343D01*
X78054980Y-72030802D01*
X78231762Y-72501695D01*
X78444753Y-73074737D01*
X78688638Y-73735648D01*
X78958100Y-74470143D01*
X79247824Y-75263940D01*
X79457479Y-75840726D01*
X79823258Y-76845393D01*
X80136861Y-77699117D01*
X80401833Y-78410861D01*
X80621719Y-78989584D01*
X80800064Y-79444247D01*
X80940414Y-79783810D01*
X81046313Y-80017235D01*
X81121309Y-80153480D01*
X81168945Y-80201509D01*
X81181369Y-80197803D01*
X81267936Y-80102021D01*
X81443093Y-79898958D01*
X81687271Y-79611623D01*
X81980905Y-79263027D01*
X82265134Y-78923306D01*
X82580181Y-78548907D01*
X82858137Y-78224856D01*
X83081019Y-77971615D01*
X83230842Y-77809642D01*
X83288781Y-77758836D01*
X83329661Y-77837161D01*
X83418871Y-78052088D01*
X83547566Y-78380830D01*
X83706900Y-78800599D01*
X83888031Y-79288610D01*
X83978295Y-79535393D01*
X84167431Y-80047044D01*
X84340473Y-80500349D01*
X84488330Y-80872679D01*
X84601908Y-81141404D01*
X84672117Y-81283894D01*
X84687585Y-81300820D01*
X84750842Y-81236891D01*
X84914085Y-81052646D01*
X85168978Y-80757928D01*
X85507184Y-80362574D01*
X85920365Y-79876425D01*
X86400185Y-79309318D01*
X86938307Y-78671095D01*
X87526394Y-77971593D01*
X88156111Y-77220653D01*
X88819118Y-76428113D01*
X89020471Y-76187058D01*
X89691783Y-75384386D01*
X90332513Y-74620785D01*
X90934306Y-73906058D01*
X91488810Y-73250010D01*
X91987670Y-72662445D01*
X92422534Y-72153166D01*
X92785049Y-71731978D01*
X93066861Y-71408685D01*
X93259616Y-71193091D01*
X93354963Y-71095001D01*
X93363287Y-71089945D01*
X93404577Y-71169826D01*
X93497911Y-71395534D01*
X93638188Y-71753496D01*
X93820310Y-72230141D01*
X94039173Y-72811896D01*
X94289679Y-73485189D01*
X94566724Y-74236445D01*
X94865211Y-75052095D01*
X95180036Y-75918566D01*
X95233225Y-76065550D01*
X95549917Y-76940341D01*
X95850074Y-77767790D01*
X96128680Y-78534175D01*
X96380719Y-79225779D01*
X96601176Y-79828882D01*
X96785032Y-80329763D01*
X96927272Y-80714704D01*
X97022879Y-80969985D01*
X97066837Y-81081885D01*
X97068736Y-81085560D01*
X97128104Y-81031314D01*
X97287831Y-80856634D01*
X97539750Y-80571063D01*
X97875687Y-80184144D01*
X98287475Y-79705424D01*
X98766943Y-79144446D01*
X99305919Y-78510753D01*
X99896234Y-77813891D01*
X100529717Y-77063405D01*
X101198198Y-76268837D01*
X101507828Y-75899953D01*
X102189826Y-75087563D01*
X102840487Y-74313866D01*
X103451624Y-73588517D01*
X104015046Y-72921172D01*
X104522566Y-72321487D01*
X104965992Y-71799119D01*
X105337137Y-71363723D01*
X105627812Y-71024954D01*
X105829826Y-70792470D01*
X105934993Y-70675924D01*
X105948492Y-70663865D01*
X105983299Y-70742679D01*
X105983299Y-70742679D01*
G37*
X105983299Y-70742679D02*
X106071363Y-70968838D01*
X106208294Y-71330465D01*
X106389705Y-71815688D01*
X106611206Y-72412628D01*
X106868407Y-73109413D01*
X107156920Y-73894167D01*
X107472355Y-74755015D01*
X107810325Y-75680081D01*
X108166438Y-76657493D01*
X108328944Y-77104375D01*
X108692062Y-78102322D01*
X109039198Y-79054031D01*
X109365935Y-79947529D01*
X109667858Y-80770846D01*
X109940547Y-81512008D01*
X110179585Y-82159042D01*
X110380555Y-82699977D01*
X110539040Y-83122840D01*
X110650622Y-83415659D01*
X110710884Y-83566461D01*
X110719972Y-83584711D01*
X110783980Y-83532423D01*
X110944285Y-83363290D01*
X111189092Y-83090814D01*
X111506604Y-82728495D01*
X111885029Y-82289835D01*
X112312570Y-81788337D01*
X112777434Y-81237499D01*
X112942889Y-81040187D01*
X113419023Y-80474024D01*
X113862851Y-79951223D01*
X114262401Y-79485515D01*
X114605700Y-79090635D01*
X114880778Y-78780318D01*
X115075662Y-78568298D01*
X115178379Y-78468310D01*
X115190046Y-78462247D01*
X115232774Y-78542200D01*
X115327096Y-78766842D01*
X115467434Y-79121468D01*
X115648209Y-79591377D01*
X115863841Y-80161869D01*
X116108750Y-80818241D01*
X116377356Y-81545792D01*
X116664080Y-82329819D01*
X116802365Y-82710478D01*
X117094850Y-83515335D01*
X117370616Y-84270394D01*
X117624216Y-84960996D01*
X117850200Y-85572481D01*
X118043120Y-86090192D01*
X118197526Y-86499469D01*
X118307969Y-86785653D01*
X118369001Y-86934086D01*
X118379067Y-86952093D01*
X118439534Y-86890412D01*
X118599093Y-86710199D01*
X118848116Y-86422744D01*
X119176974Y-86039338D01*
X119576041Y-85571271D01*
X120035689Y-85029833D01*
X120546289Y-84426316D01*
X121098213Y-83772009D01*
X121635674Y-83133147D01*
X122217959Y-82441546D01*
X122768666Y-81790176D01*
X123278064Y-81190364D01*
X123736425Y-80653436D01*
X124134019Y-80190718D01*
X124461119Y-79813537D01*
X124707993Y-79533218D01*
X124864913Y-79361090D01*
X124921438Y-79308021D01*
X124965431Y-79385043D01*
X125059865Y-79603925D01*
X125197940Y-79947157D01*
X125372861Y-80397229D01*
X125577831Y-80936634D01*
X125806052Y-81547865D01*
X126050728Y-82213412D01*
X126071517Y-82270419D01*
X126316511Y-82939847D01*
X126544278Y-83556803D01*
X126748189Y-84103736D01*
X126921612Y-84563094D01*
X127057916Y-84917321D01*
X127150470Y-85148868D01*
X127192644Y-85240179D01*
X127193675Y-85240908D01*
X127253929Y-85179315D01*
X127413789Y-84998403D01*
X127664247Y-84708769D01*
X127996297Y-84321005D01*
X128400930Y-83845704D01*
X128869138Y-83293460D01*
X129391914Y-82674867D01*
X129960248Y-82000518D01*
X130565136Y-81281007D01*
X130886991Y-80897467D01*
X131507849Y-80158416D01*
X132097523Y-79458907D01*
X132646922Y-78809566D01*
X133146959Y-78221024D01*
X133588541Y-77703909D01*
X133962578Y-77268851D01*
X134259981Y-76926477D01*
X134471660Y-76687416D01*
X134588524Y-76562298D01*
X134608675Y-76545786D01*
X134649576Y-76623318D01*
X134742701Y-76846398D01*
X134882846Y-77201280D01*
X135064805Y-77674210D01*
X135283371Y-78251445D01*
X135533342Y-78919232D01*
X135809510Y-79663824D01*
X136106670Y-80471471D01*
X136419616Y-81328427D01*
X136424016Y-81340521D01*
X136736874Y-82199613D01*
X137032996Y-83011098D01*
X137307256Y-83761039D01*
X137554530Y-84435500D01*
X137769692Y-85020549D01*
X137947618Y-85502248D01*
X138083182Y-85866665D01*
X138171261Y-86099862D01*
X138206729Y-86187907D01*
X138206773Y-86187972D01*
X138266659Y-86134999D01*
X138425055Y-85963331D01*
X138672116Y-85684398D01*
X138998000Y-85309632D01*
X139392859Y-84850463D01*
X139846853Y-84318322D01*
X140350134Y-83724642D01*
X140892860Y-83080853D01*
X141287741Y-82610357D01*
X141852639Y-81937112D01*
X142385010Y-81304623D01*
X142874968Y-80724500D01*
X143312628Y-80208354D01*
X143688105Y-79767793D01*
X143991512Y-79414428D01*
X144212964Y-79159867D01*
X144342577Y-79015720D01*
X144373268Y-78986700D01*
X144409199Y-79065421D01*
X144497462Y-79289440D01*
X144632866Y-79644794D01*
X144810217Y-80117518D01*
X145024326Y-80693646D01*
X145269997Y-81359215D01*
X145542041Y-82100259D01*
X145835265Y-82902814D01*
X146109264Y-83655922D01*
X146417713Y-84505108D01*
X146709635Y-85308307D01*
X146979791Y-86051133D01*
X147222938Y-86719200D01*
X147433838Y-87298118D01*
X147607249Y-87773502D01*
X147737930Y-88130964D01*
X147820640Y-88356117D01*
X147849476Y-88433127D01*
X147914013Y-88396969D01*
X148081525Y-88232343D01*
X148348914Y-87942776D01*
X148713080Y-87531793D01*
X149170926Y-87002922D01*
X149719351Y-86359687D01*
X150355258Y-85605614D01*
X150776994Y-85102046D01*
X151325893Y-84446252D01*
X151842156Y-83831595D01*
X152315632Y-83270011D01*
X152736173Y-82773434D01*
X153093632Y-82353799D01*
X153377857Y-82023041D01*
X153578702Y-81793096D01*
X153686018Y-81675900D01*
X153701165Y-81663133D01*
X153736187Y-81742026D01*
X153824196Y-81968206D01*
X153960764Y-82329656D01*
X154141464Y-82814362D01*
X154361868Y-83410305D01*
X154617551Y-84105471D01*
X154904084Y-84887842D01*
X155217041Y-85745403D01*
X155551995Y-86666137D01*
X155904520Y-87638029D01*
X156022808Y-87964767D01*
X156381268Y-88954722D01*
X156724167Y-89900446D01*
X157046994Y-90789573D01*
X157345238Y-91609738D01*
X157614389Y-92348577D01*
X157849936Y-92993724D01*
X158047369Y-93532815D01*
X158202176Y-93953483D01*
X158309847Y-94243364D01*
X158365871Y-94390093D01*
X158371967Y-94404418D01*
X158413138Y-94433619D01*
X158490237Y-94400712D01*
X158616128Y-94292770D01*
X158803679Y-94096864D01*
X159065756Y-93800067D01*
X159415229Y-93389449D01*
X159593875Y-93176701D01*
X159937677Y-92769989D01*
X160246328Y-92412127D01*
X160503060Y-92121965D01*
X160691100Y-91918353D01*
X160793682Y-91820144D01*
X160806006Y-91814092D01*
X160852900Y-91893260D01*
X160946880Y-92107321D01*
X161078039Y-92431710D01*
X161236474Y-92841864D01*
X161412275Y-93313220D01*
X161429159Y-93359303D01*
X161605170Y-93838088D01*
X161762405Y-94261318D01*
X161891301Y-94603613D01*
X161982294Y-94839598D01*
X162025822Y-94943897D01*
X162026998Y-94945834D01*
X162086966Y-94893447D01*
X162245150Y-94723307D01*
X162491058Y-94447491D01*
X162814204Y-94078084D01*
X163204097Y-93627162D01*
X163650248Y-93106809D01*
X164142168Y-92529105D01*
X164669369Y-91906129D01*
X164774719Y-91781199D01*
X165308172Y-91149363D01*
X165808505Y-90558921D01*
X166265178Y-90022163D01*
X166667647Y-89551375D01*
X167005370Y-89158849D01*
X167267805Y-88856872D01*
X167444409Y-88657732D01*
X167524640Y-88573719D01*
X167528082Y-88571777D01*
X167564820Y-88650283D01*
X167653574Y-88872301D01*
X167788464Y-89222214D01*
X167963604Y-89684410D01*
X168173109Y-90243271D01*
X168411096Y-90883185D01*
X168671682Y-91588535D01*
X168933523Y-92301492D01*
X169210056Y-93054307D01*
X169469556Y-93756411D01*
X169706142Y-94392194D01*
X169913927Y-94946047D01*
X170087030Y-95402362D01*
X170219565Y-95745529D01*
X170305650Y-95959939D01*
X170339008Y-96030146D01*
X170400336Y-95968579D01*
X170558536Y-95789947D01*
X170802346Y-95507491D01*
X171120501Y-95134456D01*
X171501737Y-94684082D01*
X171934791Y-94169612D01*
X172408399Y-93604289D01*
X172723645Y-93226642D01*
X173217163Y-92636025D01*
X173677382Y-92087959D01*
X174093022Y-91595681D01*
X174452802Y-91172426D01*
X174745442Y-90831430D01*
X174959664Y-90585928D01*
X175084185Y-90449156D01*
X175111519Y-90424778D01*
X175150046Y-90503403D01*
X175238380Y-90722829D01*
X175369485Y-91064353D01*
X175536324Y-91509271D01*
X175731861Y-92038876D01*
X175949058Y-92634465D01*
X176100263Y-93052968D01*
X176328959Y-93680994D01*
X176542739Y-94254257D01*
X176734292Y-94754216D01*
X176896309Y-95162326D01*
X177021479Y-95460041D01*
X177102492Y-95628819D01*
X177128202Y-95660576D01*
X177195107Y-95595167D01*
X177361702Y-95409978D01*
X177619229Y-95115276D01*
X177958926Y-94721327D01*
X178372035Y-94238400D01*
X178849798Y-93676763D01*
X179383454Y-93046683D01*
X179964242Y-92358426D01*
X180583405Y-91622261D01*
X181155423Y-90940129D01*
X181800822Y-90170629D01*
X182415299Y-89440304D01*
X182990132Y-88759379D01*
X183516594Y-88138080D01*
X183985963Y-87586631D01*
X184389516Y-87115260D01*
X184718527Y-86734189D01*
X184964275Y-86453646D01*
X185118033Y-86283854D01*
X185170406Y-86234171D01*
X185212492Y-86311752D01*
X185306041Y-86533730D01*
X185445350Y-86885107D01*
X185624715Y-87350888D01*
X185838431Y-87916079D01*
X186080797Y-88565683D01*
X186346105Y-89284705D01*
X186628656Y-90058149D01*
X186707732Y-90275939D01*
X186994246Y-91063006D01*
X187265046Y-91800965D01*
X187514413Y-92474639D01*
X187736625Y-93068852D01*
X187925962Y-93568428D01*
X188076704Y-93958190D01*
X188183130Y-94222963D01*
X188239519Y-94347568D01*
X188245342Y-94355169D01*
X188311897Y-94299676D01*
X188476567Y-94125748D01*
X188729155Y-93845111D01*
X189059466Y-93469492D01*
X189457303Y-93010618D01*
X189912467Y-92480215D01*
X190414762Y-91890009D01*
X190953993Y-91251727D01*
X191242316Y-90908633D01*
X191796081Y-90249542D01*
X192317109Y-89631426D01*
X192795305Y-89066125D01*
X193220572Y-88565480D01*
X193582814Y-88141329D01*
X193871934Y-87805513D01*
X194077836Y-87569870D01*
X194190423Y-87446239D01*
X194208685Y-87430138D01*
X194244243Y-87508825D01*
X194332488Y-87733250D01*
X194468409Y-88089950D01*
X194646998Y-88565460D01*
X194863247Y-89146317D01*
X195112147Y-89819057D01*
X195388689Y-90570216D01*
X195687865Y-91386331D01*
X196004666Y-92253939D01*
X196074116Y-92444580D01*
X196394098Y-93321480D01*
X196697626Y-94149775D01*
X196979681Y-94916002D01*
X197235246Y-95606692D01*
X197459299Y-96208377D01*
X197646824Y-96707592D01*
X197792802Y-97090870D01*
X197892214Y-97344742D01*
X197940041Y-97455744D01*
X197943087Y-97459647D01*
X198008306Y-97400010D01*
X198165414Y-97228560D01*
X198398208Y-96963827D01*
X198690482Y-96624340D01*
X199026031Y-96228631D01*
X199180764Y-96044400D01*
X199530003Y-95630087D01*
X199842947Y-95263961D01*
X200103399Y-94964550D01*
X200295163Y-94750386D01*
X200402039Y-94639998D01*
X200417910Y-94629059D01*
X200455926Y-94707633D01*
X200545014Y-94928254D01*
X200678671Y-95273728D01*
X200850393Y-95726859D01*
X201053673Y-96270452D01*
X201282007Y-96887311D01*
X201528889Y-97560241D01*
X201586485Y-97718047D01*
X201837472Y-98400602D01*
X202073012Y-99030078D01*
X202286406Y-99589400D01*
X202470959Y-100061496D01*
X202619974Y-100429293D01*
X202726755Y-100675717D01*
X202784605Y-100783697D01*
X202790235Y-100787162D01*
X202856297Y-100721839D01*
X203022073Y-100536612D01*
X203278885Y-100241679D01*
X203618058Y-99847231D01*
X204030914Y-99363465D01*
X204508777Y-98800575D01*
X205042970Y-98168755D01*
X205624817Y-97478200D01*
X206245639Y-96739105D01*
X206867443Y-95996720D01*
X207517248Y-95221230D01*
X208136406Y-94485017D01*
X208716245Y-93798226D01*
X209248094Y-93171000D01*
X209723282Y-92613482D01*
X210133139Y-92135817D01*
X210468991Y-91748148D01*
X210722168Y-91460618D01*
X210884001Y-91283371D01*
X210945350Y-91226384D01*
X210986798Y-91305363D01*
X211080516Y-91531027D01*
X211221723Y-91890627D01*
X211405643Y-92371410D01*
X211627494Y-92960629D01*
X211882500Y-93645532D01*
X212165881Y-94413370D01*
X212472857Y-95251394D01*
X212798651Y-96146851D01*
X213050170Y-96842090D01*
X213386547Y-97771472D01*
X213707302Y-98652558D01*
X214007691Y-99472644D01*
X214282974Y-100219026D01*
X214528409Y-100878997D01*
X214739254Y-101439857D01*
X214910767Y-101888898D01*
X215038205Y-102213417D01*
X215116827Y-102400709D01*
X215140869Y-102443485D01*
X215206431Y-102379308D01*
X215370349Y-102197090D01*
X215622415Y-101908743D01*
X215952421Y-101526178D01*
X216350155Y-101061305D01*
X216805412Y-100526037D01*
X217307982Y-99932282D01*
X217847654Y-99291956D01*
X218130418Y-98955423D01*
X218684659Y-98297006D01*
X219207024Y-97680103D01*
X219687318Y-97116504D01*
X220115341Y-96618003D01*
X220480899Y-96196392D01*
X220773793Y-95863466D01*
X220983825Y-95631014D01*
X221100800Y-95510832D01*
X221121318Y-95496559D01*
X221161672Y-95578131D01*
X221254248Y-95805160D01*
X221393841Y-96163799D01*
X221575254Y-96640203D01*
X221793281Y-97220530D01*
X222042725Y-97890932D01*
X222318382Y-98637566D01*
X222615051Y-99446587D01*
X222927531Y-100304150D01*
X222928189Y-100305961D01*
X223240104Y-101162883D01*
X223535437Y-101970837D01*
X223809073Y-102716048D01*
X224055893Y-103384745D01*
X224270779Y-103963151D01*
X224448616Y-104437497D01*
X224584284Y-104794007D01*
X224672670Y-105018906D01*
X224708652Y-105098424D01*
X224708707Y-105098435D01*
X224769072Y-105036413D01*
X224928117Y-104855658D01*
X225176176Y-104567571D01*
X225503582Y-104183555D01*
X225900670Y-103715008D01*
X226357775Y-103173334D01*
X226865228Y-102569933D01*
X227413366Y-101916207D01*
X227909860Y-101322534D01*
X228485262Y-100634683D01*
X229028322Y-99987395D01*
X229529371Y-99392069D01*
X229978740Y-98860101D01*
X230366763Y-98402887D01*
X230683769Y-98031825D01*
X230920090Y-97758312D01*
X231066059Y-97593742D01*
X231111955Y-97548036D01*
X231148213Y-97626695D01*
X231236407Y-97849802D01*
X231371009Y-98202520D01*
X231546490Y-98670012D01*
X231757322Y-99237440D01*
X231997976Y-99889967D01*
X232262924Y-100612759D01*
X232546639Y-101390975D01*
X232654854Y-101688867D01*
X232944194Y-102483791D01*
X233216977Y-103228742D01*
X233467658Y-103908882D01*
X233690689Y-104509375D01*
X233880524Y-105015382D01*
X234031617Y-105412067D01*
X234138419Y-105684594D01*
X234195386Y-105818123D01*
X234202706Y-105829328D01*
X234263928Y-105767431D01*
X234424464Y-105586423D01*
X234675077Y-105297160D01*
X235006528Y-104910493D01*
X235409584Y-104437277D01*
X235875003Y-103888364D01*
X236393551Y-103274607D01*
X236955989Y-102606860D01*
X237553082Y-101895977D01*
X237733782Y-101680462D01*
X238339207Y-100959017D01*
X238912584Y-100277529D01*
X239444689Y-99646850D01*
X239926295Y-99077828D01*
X240348179Y-98581313D01*
X240701115Y-98168156D01*
X240975876Y-97849207D01*
X241163240Y-97635314D01*
X241253978Y-97537329D01*
X241260938Y-97532147D01*
X241295983Y-97610993D01*
X241384322Y-97837164D01*
X241521557Y-98198788D01*
X241703295Y-98683987D01*
X241925137Y-99280884D01*
X242182688Y-99977604D01*
X242471553Y-100762272D01*
X242787335Y-101623010D01*
X243125637Y-102547943D01*
X243482064Y-103525194D01*
X243644145Y-103970466D01*
X244007313Y-104967138D01*
X244354500Y-105916765D01*
X244681293Y-106807466D01*
X244983277Y-107627361D01*
X245256041Y-108364566D01*
X245495168Y-109007200D01*
X245696248Y-109543383D01*
X245854866Y-109961231D01*
X245966609Y-110248865D01*
X246027062Y-110394400D01*
X246036284Y-110410360D01*
X246099188Y-110349225D01*
X246260662Y-110170090D01*
X246510559Y-109884775D01*
X246838727Y-109505098D01*
X247235015Y-109042882D01*
X247689271Y-108509943D01*
X248191345Y-107918103D01*
X248731087Y-107279180D01*
X249020298Y-106935787D01*
X249576249Y-106276567D01*
X250100513Y-105657921D01*
X250582840Y-105091739D01*
X251012980Y-104589913D01*
X251380680Y-104164333D01*
X251675689Y-103826891D01*
X251887756Y-103589477D01*
X252006630Y-103463984D01*
X252028058Y-103446908D01*
X252069667Y-103523410D01*
X252163720Y-103745763D01*
X252305119Y-104100564D01*
X252488766Y-104574410D01*
X252709560Y-105153896D01*
X252962405Y-105825618D01*
X253242200Y-106576173D01*
X253543844Y-107392157D01*
X253862242Y-108260165D01*
X253937245Y-108465589D01*
X254258461Y-109342188D01*
X254564078Y-110168624D01*
X254849016Y-110931651D01*
X255108194Y-111618021D01*
X255336531Y-112214489D01*
X255528948Y-112707809D01*
X255680363Y-113084734D01*
X255785695Y-113332016D01*
X255839866Y-113436412D01*
X255844665Y-113438750D01*
X255913705Y-113365032D01*
X256079804Y-113175490D01*
X256331127Y-112883980D01*
X256655839Y-112504355D01*
X257042107Y-112050469D01*
X257478095Y-111536177D01*
X257951969Y-110975330D01*
X258173858Y-110712118D01*
X258660395Y-110137258D01*
X259114834Y-109605491D01*
X259525349Y-109130273D01*
X259880114Y-108725063D01*
X260167305Y-108403314D01*
X260375096Y-108178484D01*
X260491664Y-108064029D01*
X260511391Y-108052148D01*
X260562163Y-108132861D01*
X260661213Y-108351359D01*
X260799768Y-108685991D01*
X260969057Y-109115107D01*
X261160305Y-109617058D01*
X261320101Y-110047996D01*
X261520663Y-110591079D01*
X261703361Y-111077933D01*
X261859894Y-111487063D01*
X261981955Y-111796975D01*
X262061243Y-111986173D01*
X262088192Y-112036159D01*
X262147950Y-111974188D01*
X262307762Y-111792153D01*
X262559200Y-111500015D01*
X262893832Y-111107727D01*
X263303231Y-110625249D01*
X263778964Y-110062535D01*
X264312604Y-109429543D01*
X264895719Y-108736231D01*
X265519880Y-107992553D01*
X266176656Y-107208468D01*
X266267537Y-107099853D01*
X266928190Y-106311019D01*
X267557501Y-105561253D01*
X268147027Y-104860512D01*
X268688323Y-104218755D01*
X269172949Y-103645942D01*
X269592460Y-103152030D01*
X269938413Y-102746978D01*
X270202367Y-102440744D01*
X270375878Y-102243287D01*
X270450503Y-102164566D01*
X270452539Y-102163577D01*
X270506960Y-102241081D01*
X270588222Y-102426783D01*
X270625680Y-102528211D01*
X270681311Y-102725913D01*
X270700878Y-102932311D01*
X270683435Y-103194372D01*
X270628035Y-103559064D01*
X270601948Y-103706152D01*
X270453237Y-104527953D01*
X270324311Y-104183663D01*
X270237130Y-103972519D01*
X270169593Y-103846707D01*
X270153679Y-103832121D01*
X270095547Y-103894128D01*
X269939062Y-104074015D01*
X269694387Y-104359668D01*
X269371692Y-104738980D01*
X268981141Y-105199838D01*
X268532900Y-105730133D01*
X268037136Y-106317754D01*
X267504015Y-106950590D01*
X266943703Y-107616531D01*
X266366367Y-108303467D01*
X265782172Y-108999286D01*
X265201285Y-109691880D01*
X264633872Y-110369135D01*
X264090100Y-111018943D01*
X263580133Y-111629195D01*
X263114140Y-112187777D01*
X262702285Y-112682579D01*
X262354735Y-113101494D01*
X262081657Y-113432408D01*
X261893216Y-113663211D01*
X261799578Y-113781794D01*
X261791669Y-113793354D01*
X261862364Y-113827577D01*
X262093306Y-113887031D01*
X262477513Y-113970312D01*
X263008005Y-114076019D01*
X263677803Y-114202750D01*
X264479926Y-114349103D01*
X265175245Y-114472857D01*
X268600789Y-115076873D01*
X268453767Y-115910678D01*
X263125807Y-114971214D01*
X263614375Y-116303968D01*
X264102943Y-117636720D01*
X249186274Y-115006509D01*
X249879500Y-114197487D01*
X250857433Y-114369923D01*
X250923426Y-114404266D01*
X251131128Y-114460624D01*
X251455197Y-114533300D01*
X251870293Y-114616597D01*
X252332151Y-114701485D01*
X252812195Y-114782413D01*
X253227867Y-114845377D01*
X253553403Y-114887065D01*
X253619400Y-114892447D01*
X255506765Y-115225240D01*
X255586038Y-115246753D01*
X255815254Y-115294171D01*
X256177532Y-115364349D01*
X256655993Y-115454142D01*
X257233754Y-115560407D01*
X257893937Y-115680002D01*
X258619659Y-115809779D01*
X259134601Y-115900940D01*
X259893974Y-116033312D01*
X260598826Y-116153234D01*
X261232368Y-116258064D01*
X261777807Y-116345162D01*
X262218350Y-116411886D01*
X262537208Y-116455596D01*
X262717587Y-116473650D01*
X262752589Y-116469969D01*
X262718988Y-116363988D01*
X262641438Y-116136545D01*
X262533004Y-115825621D01*
X262454411Y-115603116D01*
X262172240Y-114808003D01*
X260129898Y-114399969D01*
X260785727Y-113628972D01*
X261441557Y-112857977D01*
X261136538Y-112014360D01*
X260883027Y-111316858D01*
X260679039Y-110765004D01*
X260518643Y-110344450D01*
X260395908Y-110040851D01*
X260304904Y-109839858D01*
X260239700Y-109727124D01*
X260194364Y-109688301D01*
X260176755Y-109692501D01*
X260107660Y-109766712D01*
X259944598Y-109953284D01*
X259701342Y-110235898D01*
X259391668Y-110598237D01*
X259029350Y-111023979D01*
X258628161Y-111496806D01*
X258201879Y-112000400D01*
X257764276Y-112518439D01*
X257329127Y-113034606D01*
X256910206Y-113532581D01*
X256521290Y-113996043D01*
X256176151Y-114408674D01*
X255888565Y-114754156D01*
X255672305Y-115016167D01*
X255541148Y-115178390D01*
X255506765Y-115225240D01*
X253619400Y-114892447D01*
X253763042Y-114904161D01*
X253831333Y-114894301D01*
X253790427Y-114758256D01*
X253704166Y-114507658D01*
X253584261Y-114173682D01*
X253442424Y-113787503D01*
X253290366Y-113380297D01*
X253139798Y-112983241D01*
X253002431Y-112627511D01*
X252889977Y-112344279D01*
X252814148Y-112164725D01*
X252787920Y-112116693D01*
X252725109Y-112175329D01*
X252575453Y-112338672D01*
X252360620Y-112581430D01*
X252102277Y-112878314D01*
X251822094Y-113204031D01*
X251541735Y-113533293D01*
X251282870Y-113840811D01*
X251067166Y-114101291D01*
X250916291Y-114289448D01*
X250857433Y-114369923D01*
X249879500Y-114197487D01*
X250146245Y-113886186D01*
X247057078Y-113341483D01*
X247242026Y-113868437D01*
X247346905Y-114158776D01*
X247437307Y-114394223D01*
X247488961Y-114513788D01*
X247469698Y-114527891D01*
X247385367Y-114528630D01*
X247228112Y-114514719D01*
X246990084Y-114484864D01*
X246663432Y-114437777D01*
X246240302Y-114372168D01*
X245712844Y-114286747D01*
X245073205Y-114180221D01*
X244313534Y-114051303D01*
X243425980Y-113898702D01*
X242402691Y-113721126D01*
X241235815Y-113517288D01*
X239917499Y-113285895D01*
X238538273Y-113043006D01*
X229525597Y-111453828D01*
X230215223Y-110636773D01*
X231195628Y-110809644D01*
X231270608Y-110836144D01*
X231504771Y-110889730D01*
X231890393Y-110968960D01*
X232419748Y-111072386D01*
X233085105Y-111198568D01*
X233878740Y-111346059D01*
X234792924Y-111513417D01*
X235819932Y-111699197D01*
X236952034Y-111901955D01*
X238181506Y-112120245D01*
X238672469Y-112206941D01*
X239969370Y-112434747D01*
X241162950Y-112642636D01*
X242246374Y-112829477D01*
X243212807Y-112994138D01*
X244055411Y-113135485D01*
X244767350Y-113252387D01*
X245341791Y-113343710D01*
X245771896Y-113408323D01*
X246050829Y-113445092D01*
X246171755Y-113452885D01*
X246176487Y-113450108D01*
X246144258Y-113349686D01*
X246059180Y-113105864D01*
X245926283Y-112732388D01*
X245750590Y-112243001D01*
X245537128Y-111651447D01*
X245385294Y-111232105D01*
X246372622Y-111406198D01*
X246552299Y-111915314D01*
X246731975Y-112424431D01*
X248746081Y-112779045D01*
X250760186Y-113133659D01*
X251890166Y-111785922D01*
X252230949Y-111383336D01*
X252536461Y-111029765D01*
X252789750Y-110744225D01*
X252973870Y-110545731D01*
X253071870Y-110453301D01*
X253081671Y-110449033D01*
X253127721Y-110528233D01*
X253221162Y-110743280D01*
X253352558Y-111070506D01*
X253512477Y-111486245D01*
X253691482Y-111966828D01*
X253744530Y-112111960D01*
X254345863Y-113764038D01*
X254667210Y-113822164D01*
X254887228Y-113842420D01*
X254965722Y-113794481D01*
X254964344Y-113768553D01*
X254923079Y-113633223D01*
X254830607Y-113363328D01*
X254693493Y-112976498D01*
X254518303Y-112490365D01*
X254311602Y-111922560D01*
X254079955Y-111290712D01*
X253829927Y-110612451D01*
X253568086Y-109905409D01*
X253300994Y-109187214D01*
X253035219Y-108475498D01*
X252777324Y-107787891D01*
X252533878Y-107142024D01*
X252311443Y-106555527D01*
X252116586Y-106046029D01*
X251955871Y-105631162D01*
X251835865Y-105328556D01*
X251763132Y-105155841D01*
X251744280Y-105121574D01*
X251676702Y-105181963D01*
X251511359Y-105359875D01*
X251259045Y-105642880D01*
X250930554Y-106018547D01*
X250536680Y-106474440D01*
X250088216Y-106998131D01*
X249595957Y-107577185D01*
X249070697Y-108199171D01*
X249021433Y-108257711D01*
X246372622Y-111406198D01*
X245385294Y-111232105D01*
X245290923Y-110971469D01*
X245017000Y-110216812D01*
X244720386Y-109401221D01*
X244406107Y-108538437D01*
X244079188Y-107642207D01*
X243744655Y-106726273D01*
X243407536Y-105804379D01*
X243072854Y-104890268D01*
X242745637Y-103997687D01*
X242430909Y-103140378D01*
X242133699Y-102332084D01*
X241859030Y-101586551D01*
X241611929Y-100917522D01*
X241397423Y-100338740D01*
X241220537Y-99863949D01*
X241086296Y-99506895D01*
X240999727Y-99281319D01*
X240965856Y-99200968D01*
X240965778Y-99200939D01*
X240908006Y-99263106D01*
X240750909Y-99443878D01*
X240503912Y-99732057D01*
X240176435Y-100116447D01*
X239777903Y-100585852D01*
X239317738Y-101129077D01*
X238805362Y-101734926D01*
X238250201Y-102392201D01*
X237661674Y-103089708D01*
X237049205Y-103816251D01*
X236422218Y-104560634D01*
X235790134Y-105311658D01*
X235162379Y-106058131D01*
X234548371Y-106788855D01*
X233957536Y-107492635D01*
X233399297Y-108158274D01*
X232883076Y-108774576D01*
X232418296Y-109330347D01*
X232014378Y-109814388D01*
X231680747Y-110215504D01*
X231426827Y-110522500D01*
X231262037Y-110724180D01*
X231195802Y-110809346D01*
X231195628Y-110809644D01*
X230215223Y-110636773D01*
X230915203Y-109807453D01*
X228352560Y-109355590D01*
X229378451Y-112201637D01*
X225843379Y-111578309D01*
X222308307Y-110954981D01*
X222974311Y-110161472D01*
X223957340Y-110334807D01*
X224034542Y-110362555D01*
X224256208Y-110414280D01*
X224599879Y-110485460D01*
X225043100Y-110571567D01*
X225563417Y-110668078D01*
X225991401Y-110744682D01*
X226555519Y-110842279D01*
X227060607Y-110926078D01*
X227484023Y-110992616D01*
X227803122Y-111038430D01*
X227995263Y-111060057D01*
X228042433Y-111058309D01*
X228017387Y-110967967D01*
X227943311Y-110745844D01*
X227829965Y-110418958D01*
X227687110Y-110014327D01*
X227524507Y-109558969D01*
X227351916Y-109079903D01*
X227179099Y-108604146D01*
X227015815Y-108158717D01*
X226871827Y-107770635D01*
X226756895Y-107466916D01*
X226680780Y-107274581D01*
X226656252Y-107221318D01*
X226586007Y-107246828D01*
X226442947Y-107367651D01*
X226261100Y-107547733D01*
X226074498Y-107751018D01*
X225917172Y-107941454D01*
X225823150Y-108082983D01*
X225811040Y-108116808D01*
X225835440Y-108213982D01*
X225908706Y-108437585D01*
X226019902Y-108755626D01*
X226158090Y-109136113D01*
X226176872Y-109186889D01*
X226551905Y-110198718D01*
X224334149Y-109855283D01*
X224150124Y-110070210D01*
X224022051Y-110230487D01*
X223958376Y-110330884D01*
X223957340Y-110334807D01*
X222974311Y-110161472D01*
X223376858Y-109681858D01*
X220378962Y-109153248D01*
X219690342Y-109033322D01*
X219056924Y-108925890D01*
X218497385Y-108833901D01*
X218030399Y-108760297D01*
X217674644Y-108708027D01*
X217448793Y-108680036D01*
X217371510Y-108678830D01*
X217394040Y-108778699D01*
X217462355Y-108995037D01*
X217562947Y-109285697D01*
X217590542Y-109362247D01*
X217819129Y-109991472D01*
X198070750Y-106509300D01*
X198392885Y-106132454D01*
X198566812Y-105924244D01*
X198686466Y-105771976D01*
X198721726Y-105717587D01*
X198642752Y-105695107D01*
X198414568Y-105646961D01*
X198054798Y-105576465D01*
X197951700Y-105556980D01*
X201897599Y-106252749D01*
X201935571Y-106265784D01*
X202119463Y-106304498D01*
X202442339Y-106367588D01*
X202897261Y-106453757D01*
X203477293Y-106561701D01*
X204175499Y-106690123D01*
X204984942Y-106837719D01*
X205898685Y-107003192D01*
X206909793Y-107185240D01*
X208011326Y-107382562D01*
X208076536Y-107394214D01*
X209244309Y-107602181D01*
X210364142Y-107800294D01*
X211424904Y-107986656D01*
X212415461Y-108159370D01*
X213324681Y-108316539D01*
X214141431Y-108456267D01*
X214854579Y-108576656D01*
X215452993Y-108675809D01*
X215925539Y-108751829D01*
X216261085Y-108802821D01*
X216448499Y-108826886D01*
X216485643Y-108827074D01*
X216461272Y-108703514D01*
X216418087Y-108600727D01*
X216382225Y-108554006D01*
X216312168Y-108509090D01*
X216190750Y-108461914D01*
X216000805Y-108408410D01*
X215725164Y-108344515D01*
X215346662Y-108266162D01*
X214848131Y-108169285D01*
X214212406Y-108049821D01*
X213659761Y-107947475D01*
X210980883Y-107453127D01*
X211658283Y-106648363D01*
X212651946Y-106823572D01*
X212670662Y-106847600D01*
X212758158Y-106881081D01*
X212923704Y-106925812D01*
X213176572Y-106983586D01*
X213526032Y-107056197D01*
X213981357Y-107145440D01*
X214551815Y-107253109D01*
X215246680Y-107380997D01*
X216075222Y-107530899D01*
X217046711Y-107704608D01*
X218170421Y-107903919D01*
X218903864Y-108033421D01*
X220121265Y-108247562D01*
X221181401Y-108432829D01*
X222093599Y-108590707D01*
X222867185Y-108722681D01*
X223511482Y-108830234D01*
X224035817Y-108914853D01*
X224449517Y-108978023D01*
X224761904Y-109021229D01*
X224982307Y-109045954D01*
X225120050Y-109053686D01*
X225184459Y-109045907D01*
X225191851Y-109034696D01*
X225151683Y-108905217D01*
X225059560Y-108636945D01*
X224921026Y-108244916D01*
X224741628Y-107744165D01*
X224526910Y-107149725D01*
X224282415Y-106476633D01*
X224051815Y-105844434D01*
X225079639Y-106025667D01*
X225085011Y-106131344D01*
X225139813Y-106331441D01*
X225225150Y-106576330D01*
X225322124Y-106816382D01*
X225411841Y-107001967D01*
X225475404Y-107083458D01*
X225482348Y-107083351D01*
X225559872Y-107011306D01*
X225720223Y-106835769D01*
X225938915Y-106584236D01*
X226157054Y-106325617D01*
X226410171Y-106022787D01*
X226628587Y-105763623D01*
X226786454Y-105578665D01*
X226853307Y-105503041D01*
X226915351Y-105543767D01*
X227023784Y-105745487D01*
X227177871Y-106106552D01*
X227376878Y-106625311D01*
X227486131Y-106924275D01*
X228031888Y-108436448D01*
X229782920Y-108744947D01*
X231533951Y-109053447D01*
X232542757Y-107846557D01*
X233551563Y-106639667D01*
X232205607Y-102932566D01*
X231931894Y-102180914D01*
X231675101Y-101480015D01*
X231441086Y-100845542D01*
X231235701Y-100293166D01*
X231064799Y-99838561D01*
X230934235Y-99497398D01*
X230849863Y-99285348D01*
X230818024Y-99217757D01*
X230759816Y-99279153D01*
X230605254Y-99455789D01*
X230366662Y-99733045D01*
X230056361Y-100096301D01*
X229686672Y-100530938D01*
X229269921Y-101022340D01*
X228818429Y-101555884D01*
X228344518Y-102116952D01*
X227860510Y-102690926D01*
X227378729Y-103263184D01*
X226911497Y-103819110D01*
X226471136Y-104344083D01*
X226069970Y-104823484D01*
X225720320Y-105242695D01*
X225434508Y-105587094D01*
X225224859Y-105842065D01*
X225103693Y-105992986D01*
X225079639Y-106025667D01*
X224051815Y-105844434D01*
X224013693Y-105739921D01*
X223726284Y-104954626D01*
X223425737Y-104135781D01*
X223117596Y-103298423D01*
X222807404Y-102457584D01*
X222500709Y-101628300D01*
X222203055Y-100825608D01*
X221919988Y-100064539D01*
X221657053Y-99360129D01*
X221419793Y-98727414D01*
X221213756Y-98181429D01*
X221044485Y-97737205D01*
X220917527Y-97409781D01*
X220838425Y-97214189D01*
X220813202Y-97162722D01*
X220752164Y-97225559D01*
X220592687Y-97405872D01*
X220345140Y-97691387D01*
X220019892Y-98069830D01*
X219627310Y-98528928D01*
X219177764Y-99056407D01*
X218681621Y-99639995D01*
X218149251Y-100267417D01*
X217591020Y-100926398D01*
X217017299Y-101604667D01*
X216438455Y-102289950D01*
X215864856Y-102969973D01*
X215306871Y-103632461D01*
X214774869Y-104265143D01*
X214279218Y-104855745D01*
X213830285Y-105391991D01*
X213438442Y-105861610D01*
X213114053Y-106252327D01*
X212867489Y-106551870D01*
X212709119Y-106747964D01*
X212651946Y-106823572D01*
X211658283Y-106648363D01*
X212713768Y-105394430D01*
X213137202Y-104886971D01*
X213522470Y-104416766D01*
X213856560Y-104000364D01*
X214126464Y-103654314D01*
X214319173Y-103395167D01*
X214421676Y-103239475D01*
X214434996Y-103204717D01*
X214403568Y-103091511D01*
X214320024Y-102839037D01*
X214190286Y-102463455D01*
X214020274Y-101980922D01*
X213815908Y-101407596D01*
X213583106Y-100759634D01*
X213327791Y-100053193D01*
X213055882Y-99304432D01*
X212773298Y-98529507D01*
X212485961Y-97744576D01*
X212199792Y-96965797D01*
X211920707Y-96209328D01*
X211654630Y-95491325D01*
X211407479Y-94827948D01*
X211185176Y-94235352D01*
X210993639Y-93729696D01*
X210838790Y-93327137D01*
X210726547Y-93043833D01*
X210662833Y-92895942D01*
X210651212Y-92877796D01*
X210586720Y-92941108D01*
X210422795Y-93124021D01*
X210168383Y-93416030D01*
X209832432Y-93806631D01*
X209423892Y-94285323D01*
X208951707Y-94841598D01*
X208424827Y-95464954D01*
X207852199Y-96144887D01*
X207242771Y-96870893D01*
X206841473Y-97350183D01*
X203100584Y-101822509D01*
X203997793Y-104273211D01*
X204895002Y-106723913D01*
X202287162Y-106308912D01*
X202012484Y-106266691D01*
X201897599Y-106252749D01*
X197951700Y-105556980D01*
X197581069Y-105486934D01*
X197011003Y-105381684D01*
X196362227Y-105264030D01*
X195652364Y-105137288D01*
X195397012Y-105092147D01*
X192065594Y-104504729D01*
X192599870Y-103868167D01*
X192731596Y-103711220D01*
X193714626Y-103884555D01*
X193794005Y-103907795D01*
X194025713Y-103957360D01*
X194395254Y-104030541D01*
X194888130Y-104124630D01*
X195489844Y-104236922D01*
X196185901Y-104364709D01*
X196961802Y-104505284D01*
X197803051Y-104655938D01*
X198632259Y-104802881D01*
X199662377Y-104983195D01*
X200591011Y-105143063D01*
X201409305Y-105281068D01*
X202108407Y-105395793D01*
X202679465Y-105485822D01*
X203113622Y-105549735D01*
X203402027Y-105586117D01*
X203535826Y-105593550D01*
X203544516Y-105589172D01*
X203511136Y-105482632D01*
X203425970Y-105237264D01*
X203295283Y-104870084D01*
X203125342Y-104398113D01*
X202922413Y-103838366D01*
X202692762Y-103207863D01*
X202442655Y-102523619D01*
X202178359Y-101802654D01*
X201906139Y-101061985D01*
X201632262Y-100318631D01*
X201362994Y-99589607D01*
X201104601Y-98891935D01*
X200863349Y-98242628D01*
X200645505Y-97658708D01*
X200457334Y-97157191D01*
X200305104Y-96755094D01*
X200195079Y-96469437D01*
X200133526Y-96317235D01*
X200122830Y-96296484D01*
X200056371Y-96355475D01*
X199900967Y-96523796D01*
X199675437Y-96780157D01*
X199398595Y-97103268D01*
X199175202Y-97368708D01*
X198272617Y-98448873D01*
X199374092Y-101465992D01*
X200475566Y-104483109D01*
X197284483Y-103942922D01*
X194093401Y-103402734D01*
X193908393Y-103618809D01*
X193779935Y-103779482D01*
X193715758Y-103880351D01*
X193714626Y-103884555D01*
X192731596Y-103711220D01*
X193134144Y-103231605D01*
X192217824Y-103070034D01*
X191818019Y-103001513D01*
X191557778Y-102964671D01*
X191410326Y-102959464D01*
X191348891Y-102985849D01*
X191346700Y-103043782D01*
X191354023Y-103068622D01*
X191404544Y-103214163D01*
X191497840Y-103475740D01*
X191618516Y-103810363D01*
X191699067Y-104032177D01*
X191991595Y-104835571D01*
X179559040Y-102643376D01*
X179679767Y-102965569D01*
X179800494Y-103287761D01*
X166309430Y-100908922D01*
X166791737Y-100327677D01*
X166987099Y-100092238D01*
X167959437Y-100263687D01*
X168035994Y-100297512D01*
X168259603Y-100355116D01*
X168610311Y-100432315D01*
X169068161Y-100524931D01*
X169613197Y-100628782D01*
X170225463Y-100739687D01*
X170263445Y-100746395D01*
X172580527Y-101154959D01*
X172910417Y-100761770D01*
X173050027Y-100595227D01*
X173098755Y-100537061D01*
X174094807Y-100712691D01*
X174114691Y-100734416D01*
X174201290Y-100765857D01*
X174362740Y-100808553D01*
X174607177Y-100864047D01*
X174942738Y-100933879D01*
X175377559Y-101019588D01*
X175919775Y-101122717D01*
X176577525Y-101244806D01*
X177358944Y-101387395D01*
X178272168Y-101552026D01*
X179325335Y-101740239D01*
X180526582Y-101953574D01*
X181884042Y-102193573D01*
X182340095Y-102274024D01*
X183501525Y-102478394D01*
X184614848Y-102673477D01*
X185668872Y-102857357D01*
X186652400Y-103028118D01*
X187554239Y-103183845D01*
X188363191Y-103322620D01*
X189068065Y-103442528D01*
X189657663Y-103541652D01*
X190120792Y-103618077D01*
X190446255Y-103669886D01*
X190622858Y-103695163D01*
X190652708Y-103696820D01*
X190631415Y-103600373D01*
X190568760Y-103394626D01*
X190503949Y-103199642D01*
X190347847Y-102744109D01*
X186419752Y-102028085D01*
X182491657Y-101312061D01*
X183146621Y-100531329D01*
X184144408Y-100707266D01*
X184219347Y-100734027D01*
X184453951Y-100787901D01*
X184840956Y-100867530D01*
X185373107Y-100971557D01*
X186043142Y-101098624D01*
X186843802Y-101247375D01*
X187767826Y-101416453D01*
X188807956Y-101604500D01*
X189956931Y-101810157D01*
X191207492Y-102032069D01*
X191621155Y-102105097D01*
X192918055Y-102332902D01*
X194111635Y-102540791D01*
X195195059Y-102727632D01*
X196161491Y-102892293D01*
X197004096Y-103033640D01*
X197716036Y-103150542D01*
X198290476Y-103241865D01*
X198720581Y-103306478D01*
X198999514Y-103343248D01*
X199120441Y-103351041D01*
X199125172Y-103348263D01*
X199092929Y-103247766D01*
X199007840Y-103003882D01*
X198874930Y-102630352D01*
X198699226Y-102140921D01*
X198485753Y-101549332D01*
X198239538Y-100869330D01*
X197965606Y-100114657D01*
X197668985Y-99299056D01*
X197354698Y-98436273D01*
X197027774Y-97540050D01*
X196693236Y-96624131D01*
X196356112Y-95702259D01*
X196021427Y-94788178D01*
X195694209Y-93895632D01*
X195379482Y-93038363D01*
X195082272Y-92230116D01*
X194807607Y-91484636D01*
X194560510Y-90815663D01*
X194346009Y-90236943D01*
X194169129Y-89762219D01*
X194034898Y-89405234D01*
X193948340Y-89179733D01*
X193914481Y-89099459D01*
X193914405Y-89099431D01*
X193856590Y-89161632D01*
X193699449Y-89342433D01*
X193452405Y-89630639D01*
X193124883Y-90015050D01*
X192726306Y-90484474D01*
X192266098Y-91027711D01*
X191753681Y-91633568D01*
X191198482Y-92290844D01*
X190609922Y-92988346D01*
X189997425Y-93714876D01*
X189370416Y-94459238D01*
X188738319Y-95210236D01*
X188110557Y-95956672D01*
X187496552Y-96687352D01*
X186905732Y-97391077D01*
X186347516Y-98056652D01*
X185831331Y-98672880D01*
X185366601Y-99228565D01*
X184962747Y-99712509D01*
X184629195Y-100113519D01*
X184375368Y-100420395D01*
X184210690Y-100621942D01*
X184144584Y-100706962D01*
X184144408Y-100707266D01*
X183146621Y-100531329D01*
X187602120Y-95220276D01*
X186281798Y-91583722D01*
X186009807Y-90838614D01*
X185753385Y-90143916D01*
X185518615Y-89515551D01*
X185311580Y-88969443D01*
X185138362Y-88521516D01*
X185005041Y-88187692D01*
X184917701Y-87983895D01*
X184884262Y-87924823D01*
X184823645Y-87985713D01*
X184663291Y-88165765D01*
X184412187Y-88454327D01*
X184079324Y-88840743D01*
X183673690Y-89314362D01*
X183204273Y-89864528D01*
X182680062Y-90480588D01*
X182110047Y-91151889D01*
X181503217Y-91867776D01*
X180868560Y-92617597D01*
X180215064Y-93390695D01*
X179551719Y-94176421D01*
X178887514Y-94964117D01*
X178231437Y-95743131D01*
X177592477Y-96502810D01*
X176979624Y-97232499D01*
X176401866Y-97921545D01*
X175868190Y-98559293D01*
X175387588Y-99135092D01*
X174969047Y-99638285D01*
X174621557Y-100058221D01*
X174354105Y-100384244D01*
X174175682Y-100605702D01*
X174095275Y-100711940D01*
X174094807Y-100712691D01*
X173098755Y-100537061D01*
X173281040Y-100319478D01*
X173586173Y-99955159D01*
X173948138Y-99522914D01*
X174349653Y-99043383D01*
X174773431Y-98537202D01*
X174848693Y-98447298D01*
X176457080Y-96526016D01*
X175657428Y-94314168D01*
X175447949Y-93738436D01*
X175256006Y-93217946D01*
X175089315Y-92773058D01*
X174955595Y-92424135D01*
X174862557Y-92191538D01*
X174817921Y-92095626D01*
X174816211Y-92094275D01*
X174754578Y-92155238D01*
X174596929Y-92332419D01*
X174355322Y-92611681D01*
X174041820Y-92978887D01*
X173668484Y-93419896D01*
X173247375Y-93920575D01*
X172790555Y-94466784D01*
X172723063Y-94547730D01*
X170671483Y-97009229D01*
X171310920Y-98747124D01*
X171950358Y-100485019D01*
X170138380Y-100187027D01*
X169541972Y-100089708D01*
X169089722Y-100018993D01*
X168758836Y-99973190D01*
X168526524Y-99950607D01*
X168369988Y-99949549D01*
X168266438Y-99968325D01*
X168193079Y-100005240D01*
X168149457Y-100039290D01*
X168013680Y-100175530D01*
X167959437Y-100263687D01*
X166987099Y-100092238D01*
X167274043Y-99746432D01*
X165432748Y-99398590D01*
X164896770Y-99298788D01*
X164418784Y-99212552D01*
X164023089Y-99144041D01*
X163733987Y-99097408D01*
X163575776Y-99076811D01*
X163553691Y-99077189D01*
X163564796Y-99162473D01*
X163624978Y-99371163D01*
X163723510Y-99668242D01*
X163804767Y-99896894D01*
X164093605Y-100690159D01*
X154687662Y-99031637D01*
X155117672Y-98518540D01*
X155321001Y-98270864D01*
X155386046Y-98187587D01*
X156369622Y-98361018D01*
X156385996Y-98392176D01*
X156478323Y-98431629D01*
X156659219Y-98482030D01*
X156941303Y-98546032D01*
X157337193Y-98626288D01*
X157859506Y-98725451D01*
X158520861Y-98846175D01*
X159333874Y-98991111D01*
X159537230Y-99027019D01*
X160386169Y-99175635D01*
X161081466Y-99294727D01*
X161635884Y-99386119D01*
X162062189Y-99451629D01*
X162373145Y-99493084D01*
X162581516Y-99512304D01*
X162700066Y-99511113D01*
X162741559Y-99491334D01*
X162741593Y-99484569D01*
X162698944Y-99341185D01*
X162606813Y-99069490D01*
X162473123Y-98690717D01*
X162305800Y-98226098D01*
X162112762Y-97696867D01*
X161901936Y-97124257D01*
X161681242Y-96529502D01*
X161458605Y-95933834D01*
X161441772Y-95889131D01*
X162442942Y-96065665D01*
X162446386Y-96125623D01*
X162451193Y-96139811D01*
X162510405Y-96294939D01*
X162612347Y-96567772D01*
X162741635Y-96916967D01*
X162855463Y-97226368D01*
X163184231Y-98122573D01*
X166898879Y-98777566D01*
X167714374Y-98919697D01*
X168456925Y-99045839D01*
X169112246Y-99153767D01*
X169666055Y-99241258D01*
X170104066Y-99306089D01*
X170411998Y-99346036D01*
X170575565Y-99358875D01*
X170598807Y-99353517D01*
X170564861Y-99246617D01*
X170479137Y-99001193D01*
X170347975Y-98634417D01*
X170177715Y-98163463D01*
X169974697Y-97605505D01*
X169745261Y-96977713D01*
X169495746Y-96297262D01*
X169232494Y-95581324D01*
X168961843Y-94847073D01*
X168690134Y-94111680D01*
X168423706Y-93392320D01*
X168168901Y-92706166D01*
X167932057Y-92070388D01*
X167719514Y-91502163D01*
X167537614Y-91018661D01*
X167392695Y-90637057D01*
X167291097Y-90374522D01*
X167239162Y-90248230D01*
X167234010Y-90239380D01*
X167172321Y-90300472D01*
X167013046Y-90478286D01*
X166767394Y-90759784D01*
X166446573Y-91131922D01*
X166061789Y-91581665D01*
X165624252Y-92095971D01*
X165145166Y-92661800D01*
X164783431Y-93090643D01*
X164204268Y-93779285D01*
X163725942Y-94350873D01*
X163339428Y-94817205D01*
X163035699Y-95190083D01*
X162805731Y-95481306D01*
X162640497Y-95702675D01*
X162530972Y-95865991D01*
X162468128Y-95983054D01*
X162442942Y-96065665D01*
X161441772Y-95889131D01*
X161241949Y-95358487D01*
X161039194Y-94824693D01*
X160858264Y-94353687D01*
X160707083Y-93966703D01*
X160593573Y-93684971D01*
X160525657Y-93529727D01*
X160510741Y-93505965D01*
X160446347Y-93565794D01*
X160287918Y-93738183D01*
X160050161Y-94005889D01*
X159747785Y-94351671D01*
X159395497Y-94758284D01*
X159008003Y-95208487D01*
X158600011Y-95685036D01*
X158186229Y-96170688D01*
X157781364Y-96648200D01*
X157400123Y-97100330D01*
X157057214Y-97509834D01*
X156767343Y-97859470D01*
X156545219Y-98131994D01*
X156405548Y-98310164D01*
X156369622Y-98361018D01*
X155386046Y-98187587D01*
X155475121Y-98073548D01*
X155552925Y-97961575D01*
X155557237Y-97951251D01*
X155477403Y-97928526D01*
X155243148Y-97878980D01*
X154866858Y-97804902D01*
X154360927Y-97708581D01*
X153737743Y-97592302D01*
X153009698Y-97458353D01*
X152189179Y-97309023D01*
X151288579Y-97146598D01*
X150320287Y-96973365D01*
X149296693Y-96791612D01*
X148817718Y-96707016D01*
X142068645Y-95516972D01*
X142753874Y-94695883D01*
X143734989Y-94868880D01*
X143808973Y-94898092D01*
X144044664Y-94954153D01*
X144436749Y-95036058D01*
X144979910Y-95142799D01*
X145668828Y-95273375D01*
X146498187Y-95426775D01*
X147462670Y-95601998D01*
X148556961Y-95798034D01*
X149775741Y-96013883D01*
X149974871Y-96048945D01*
X156256601Y-97154203D01*
X156993368Y-96266932D01*
X157263886Y-95937362D01*
X157491588Y-95652755D01*
X157656174Y-95439031D01*
X157737345Y-95322109D01*
X157742297Y-95310680D01*
X157716535Y-95220879D01*
X157638244Y-94987797D01*
X157512864Y-94626472D01*
X157345837Y-94151940D01*
X157142607Y-93579235D01*
X156908613Y-92923393D01*
X156649301Y-92199451D01*
X156370111Y-91422443D01*
X156076486Y-90607405D01*
X155773868Y-89769372D01*
X155467698Y-88923381D01*
X155163422Y-88084466D01*
X154866478Y-87267664D01*
X154582311Y-86488009D01*
X154316362Y-85760539D01*
X154074073Y-85100287D01*
X153860888Y-84522290D01*
X153682247Y-84041582D01*
X153543593Y-83673201D01*
X153450370Y-83432181D01*
X153408017Y-83333558D01*
X153406507Y-83331975D01*
X153348704Y-83394232D01*
X153191856Y-83575249D01*
X152945401Y-83863767D01*
X152618777Y-84248525D01*
X152221424Y-84718266D01*
X151762779Y-85261730D01*
X151252284Y-85867658D01*
X150699374Y-86524789D01*
X150113489Y-87221867D01*
X149504069Y-87947632D01*
X148880550Y-88690823D01*
X148252373Y-89440181D01*
X147628976Y-90184448D01*
X147019797Y-90912366D01*
X146434276Y-91612674D01*
X145881851Y-92274113D01*
X145371961Y-92885424D01*
X144914044Y-93435347D01*
X144517539Y-93912625D01*
X144191884Y-94305996D01*
X143946520Y-94604204D01*
X143790883Y-94795987D01*
X143734989Y-94868880D01*
X142753874Y-94695883D01*
X142928626Y-94486484D01*
X143788608Y-93455996D01*
X143005181Y-93293251D01*
X142529778Y-93200643D01*
X141991391Y-93105056D01*
X141495002Y-93025001D01*
X141426013Y-93014801D01*
X140630272Y-92899096D01*
X141115824Y-94252811D01*
X141601376Y-95606525D01*
X135937253Y-94607788D01*
X134981970Y-94440268D01*
X134076999Y-94283365D01*
X133235908Y-94139316D01*
X132472268Y-94010359D01*
X131799646Y-93898733D01*
X131231614Y-93806676D01*
X130781739Y-93736427D01*
X130463591Y-93690223D01*
X130290740Y-93670305D01*
X130262415Y-93671640D01*
X130283767Y-93784633D01*
X130350146Y-93984606D01*
X130369141Y-94034350D01*
X130486583Y-94334469D01*
X114567958Y-91527586D01*
X115248206Y-90722941D01*
X116235855Y-90897090D01*
X116306392Y-90924994D01*
X116524884Y-90976377D01*
X116872146Y-91047538D01*
X117328996Y-91134780D01*
X117876249Y-91234401D01*
X118494721Y-91342701D01*
X118930315Y-91416751D01*
X121664449Y-91876175D01*
X122215209Y-91221027D01*
X123208222Y-91396122D01*
X123228202Y-91417601D01*
X123314685Y-91448819D01*
X123475690Y-91491290D01*
X123719234Y-91546531D01*
X124053333Y-91616055D01*
X124486007Y-91701379D01*
X125025271Y-91804015D01*
X125679144Y-91925480D01*
X126455644Y-92067290D01*
X127362787Y-92230958D01*
X128408591Y-92417999D01*
X129601074Y-92629931D01*
X130948252Y-92868264D01*
X131712548Y-93003130D01*
X133143464Y-93255062D01*
X134415796Y-93478212D01*
X135537595Y-93673897D01*
X136516915Y-93843435D01*
X137361807Y-93988145D01*
X138080323Y-94109346D01*
X138680516Y-94208357D01*
X139170436Y-94286495D01*
X139558138Y-94345080D01*
X139851672Y-94385428D01*
X140059092Y-94408860D01*
X140188447Y-94416695D01*
X140247792Y-94410248D01*
X140253657Y-94401692D01*
X140217616Y-94287386D01*
X140128606Y-94029760D01*
X139991354Y-93641722D01*
X139810586Y-93136184D01*
X139591030Y-92526054D01*
X139337410Y-91824242D01*
X139054455Y-91043659D01*
X138746890Y-90197213D01*
X138419442Y-89297816D01*
X138076838Y-88358375D01*
X137723805Y-87391802D01*
X137585774Y-87014422D01*
X138562031Y-87186562D01*
X139199318Y-88941184D01*
X139402206Y-89499572D01*
X139600860Y-90045921D01*
X139782643Y-90545501D01*
X139934918Y-90963588D01*
X140045049Y-91265456D01*
X140063582Y-91316143D01*
X140290558Y-91936481D01*
X144433396Y-92666975D01*
X145807925Y-91021372D01*
X146183433Y-90569085D01*
X146521100Y-90157158D01*
X146806136Y-89804064D01*
X147023749Y-89528270D01*
X147159147Y-89348248D01*
X147198465Y-89284976D01*
X147173633Y-89191088D01*
X147097083Y-88957187D01*
X146975232Y-88601024D01*
X146814501Y-88140347D01*
X146621310Y-87592906D01*
X146402077Y-86976450D01*
X146163222Y-86308729D01*
X145911163Y-85607492D01*
X145652322Y-84890488D01*
X145393116Y-84175468D01*
X145139966Y-83480179D01*
X144899291Y-82822372D01*
X144677510Y-82219796D01*
X144481041Y-81690201D01*
X144316306Y-81251335D01*
X144189724Y-80920948D01*
X144107711Y-80716790D01*
X144077518Y-80655644D01*
X144016664Y-80717246D01*
X143857781Y-80896647D01*
X143611300Y-81181604D01*
X143287646Y-81559875D01*
X142897251Y-82019218D01*
X142450543Y-82547389D01*
X141957948Y-83132147D01*
X141429897Y-83761247D01*
X141298889Y-83917659D01*
X138562031Y-87186562D01*
X137585774Y-87014422D01*
X137365068Y-86411006D01*
X137005354Y-85428895D01*
X136649390Y-84458382D01*
X136301902Y-83512374D01*
X135967618Y-82603782D01*
X135651263Y-81745515D01*
X135357563Y-80950483D01*
X135091247Y-80231598D01*
X134857040Y-79601765D01*
X134659669Y-79073898D01*
X134503859Y-78660905D01*
X134394338Y-78375695D01*
X134335832Y-78231179D01*
X134327528Y-78215506D01*
X134267941Y-78276315D01*
X134108429Y-78456411D01*
X133857841Y-78745306D01*
X133525026Y-79132511D01*
X133118832Y-79607536D01*
X132648108Y-80159893D01*
X132121703Y-80779091D01*
X131548465Y-81454644D01*
X130937244Y-82176059D01*
X130296888Y-82932850D01*
X129636246Y-83714527D01*
X128964166Y-84510600D01*
X128289497Y-85310580D01*
X127621088Y-86103979D01*
X126967788Y-86880308D01*
X126338445Y-87629075D01*
X125741909Y-88339795D01*
X125187026Y-89001974D01*
X124682649Y-89605129D01*
X124237623Y-90138766D01*
X123860799Y-90592397D01*
X123561025Y-90955533D01*
X123347148Y-91217687D01*
X123228020Y-91368366D01*
X123208222Y-91396122D01*
X122215209Y-91221027D01*
X123993380Y-89105836D01*
X124490630Y-88513880D01*
X124956794Y-87958049D01*
X125379969Y-87452596D01*
X125748256Y-87011778D01*
X126049750Y-86649852D01*
X126272550Y-86381072D01*
X126404755Y-86219694D01*
X126434592Y-86181808D01*
X126458372Y-86115594D01*
X126455514Y-86003253D01*
X126421118Y-85828610D01*
X126350284Y-85575492D01*
X126238113Y-85227725D01*
X126079703Y-84769136D01*
X125870154Y-84183551D01*
X125626574Y-83514875D01*
X125399390Y-82899128D01*
X125188551Y-82336588D01*
X125001517Y-81846464D01*
X124845747Y-81447967D01*
X124728702Y-81160307D01*
X124657839Y-81002695D01*
X124641706Y-80978504D01*
X124592459Y-81014529D01*
X124473233Y-81136705D01*
X124280206Y-81349499D01*
X124009558Y-81657380D01*
X123657467Y-82064814D01*
X123220113Y-82576267D01*
X122693674Y-83196207D01*
X122074329Y-83929100D01*
X121358258Y-84779414D01*
X120541638Y-85751616D01*
X119691549Y-86765544D01*
X118712437Y-87934213D01*
X119583027Y-90305545D01*
X117036293Y-89903650D01*
X116655911Y-90370252D01*
X116462221Y-90609373D01*
X116312373Y-90797209D01*
X116237246Y-90895029D01*
X116235855Y-90897090D01*
X115248206Y-90722941D01*
X116054393Y-89769325D01*
X114431282Y-89459774D01*
X113929364Y-89365681D01*
X113486666Y-89285796D01*
X113129140Y-89224545D01*
X112882738Y-89186357D01*
X112773413Y-89175661D01*
X112770714Y-89176450D01*
X112784364Y-89260922D01*
X112847527Y-89474901D01*
X112950832Y-89789129D01*
X113084904Y-90174351D01*
X113136237Y-90317421D01*
X113539217Y-91432165D01*
X106524980Y-90195365D01*
X106624807Y-90427899D01*
X106724634Y-90660433D01*
X99546232Y-89394687D01*
X99870098Y-89050213D01*
X93737035Y-87911661D01*
X92632397Y-87707044D01*
X91494099Y-87497029D01*
X90346047Y-87285975D01*
X89212142Y-87078244D01*
X88116293Y-86878195D01*
X87082401Y-86690192D01*
X86134372Y-86518592D01*
X85296108Y-86367759D01*
X84591516Y-86242051D01*
X84368720Y-86202646D01*
X81133467Y-85632183D01*
X81449360Y-85262859D01*
X101225716Y-88749964D01*
X101293227Y-88787222D01*
X101515056Y-88847577D01*
X101878184Y-88928219D01*
X102369588Y-89026339D01*
X102976250Y-89139128D01*
X103282455Y-89193757D01*
X103937663Y-89306174D01*
X104485471Y-89393768D01*
X104912680Y-89454726D01*
X105206094Y-89487236D01*
X105352518Y-89489483D01*
X105366942Y-89480174D01*
X105332360Y-89361990D01*
X105250465Y-89117954D01*
X105130796Y-88774301D01*
X104982898Y-88357265D01*
X104816308Y-87893083D01*
X104640570Y-87407989D01*
X104465225Y-86928218D01*
X104299813Y-86480007D01*
X104153876Y-86089590D01*
X104036954Y-85783201D01*
X103958590Y-85587077D01*
X103929086Y-85526529D01*
X103868428Y-85586573D01*
X103718014Y-85755898D01*
X103495779Y-86013117D01*
X103219666Y-86336839D01*
X102907610Y-86705674D01*
X102577552Y-87098233D01*
X102247429Y-87493126D01*
X101935182Y-87868963D01*
X101658747Y-88204354D01*
X101436066Y-88477910D01*
X101285075Y-88668241D01*
X101225716Y-88749964D01*
X81449360Y-85262859D01*
X81580752Y-85109243D01*
X77657141Y-84417405D01*
X77917685Y-84097960D01*
X82817648Y-84961956D01*
X82837407Y-84984098D01*
X82924239Y-85015915D01*
X83086474Y-85058992D01*
X83332453Y-85114912D01*
X83670506Y-85185260D01*
X84108971Y-85271618D01*
X84656182Y-85375573D01*
X85320475Y-85498708D01*
X86110184Y-85642606D01*
X87033644Y-85808850D01*
X88099190Y-85999027D01*
X89315159Y-86214718D01*
X90655158Y-86451387D01*
X92026154Y-86692721D01*
X93238898Y-86905253D01*
X94301765Y-87090347D01*
X95223131Y-87249367D01*
X96011367Y-87383672D01*
X96674848Y-87494626D01*
X97221950Y-87583591D01*
X97661045Y-87651930D01*
X98000508Y-87701004D01*
X98248714Y-87732177D01*
X98414037Y-87746809D01*
X98504849Y-87746264D01*
X98529646Y-87732405D01*
X98493947Y-87618251D01*
X98405760Y-87361274D01*
X98269974Y-86974913D01*
X98091480Y-86472600D01*
X97875166Y-85867775D01*
X97625919Y-85173872D01*
X97348630Y-84404328D01*
X97048188Y-83572579D01*
X96729481Y-82692061D01*
X96447238Y-81913661D01*
X97425356Y-82086130D01*
X98403278Y-84801651D01*
X98639881Y-85457856D01*
X98862862Y-86074754D01*
X99064562Y-86631280D01*
X99237327Y-87106368D01*
X99373501Y-87478953D01*
X99465428Y-87727970D01*
X99499324Y-87817414D01*
X99584959Y-87998534D01*
X99695658Y-88100898D01*
X99887443Y-88162826D01*
X100049729Y-88193876D01*
X100482010Y-88270098D01*
X102322773Y-86058478D01*
X102759292Y-85536397D01*
X103162383Y-85058868D01*
X103519150Y-84640813D01*
X103816696Y-84297160D01*
X104042126Y-84042832D01*
X104182540Y-83892754D01*
X104224545Y-83857614D01*
X104266480Y-83936990D01*
X104357851Y-84157571D01*
X104491664Y-84500905D01*
X104660922Y-84948544D01*
X104858629Y-85482040D01*
X105077787Y-86082942D01*
X105255175Y-86575540D01*
X106224794Y-89282706D01*
X109209540Y-89808998D01*
X109896567Y-89928809D01*
X110528298Y-90036413D01*
X111086022Y-90128824D01*
X111551030Y-90203050D01*
X111904612Y-90256099D01*
X112128056Y-90284985D01*
X112202749Y-90287301D01*
X112179302Y-90190749D01*
X112109525Y-89977128D01*
X112007090Y-89687712D01*
X111976336Y-89603897D01*
X111741460Y-88968479D01*
X107015507Y-88089552D01*
X107692180Y-87284660D01*
X108685552Y-87459819D01*
X108703437Y-87486497D01*
X108792607Y-87522269D01*
X108963590Y-87569232D01*
X109226913Y-87629478D01*
X109593103Y-87705102D01*
X110072687Y-87798198D01*
X110676192Y-87910861D01*
X111414144Y-88045184D01*
X112297072Y-88203263D01*
X113335501Y-88387191D01*
X113437336Y-88405153D01*
X114490571Y-88590171D01*
X115387882Y-88746148D01*
X116139877Y-88874716D01*
X116757167Y-88977507D01*
X117250357Y-89056153D01*
X117630059Y-89112288D01*
X117906879Y-89147543D01*
X118091427Y-89163550D01*
X118194310Y-89161944D01*
X118226137Y-89144356D01*
X118225877Y-89142035D01*
X118187281Y-89016638D01*
X118097521Y-88754679D01*
X117962974Y-88373475D01*
X117790012Y-87890345D01*
X117585016Y-87322607D01*
X117354357Y-86687578D01*
X117104415Y-86002577D01*
X116841563Y-85284923D01*
X116572178Y-84551932D01*
X116302636Y-83820921D01*
X116039313Y-83109211D01*
X115788584Y-82434120D01*
X115556827Y-81812964D01*
X115350415Y-81263061D01*
X115175726Y-80801730D01*
X115039135Y-80446290D01*
X114947019Y-80214056D01*
X114905753Y-80122349D01*
X114904859Y-80121608D01*
X114843602Y-80180973D01*
X114685502Y-80356118D01*
X114442448Y-80633012D01*
X114126333Y-80997625D01*
X113749047Y-81435928D01*
X113322480Y-81933891D01*
X112858523Y-82477481D01*
X112369068Y-83052671D01*
X111866005Y-83645429D01*
X111361226Y-84241727D01*
X110866619Y-84827533D01*
X110394078Y-85388818D01*
X109955493Y-85911551D01*
X109562753Y-86381702D01*
X109227751Y-86785241D01*
X108962378Y-87108139D01*
X108778522Y-87336364D01*
X108688077Y-87455888D01*
X108685552Y-87459819D01*
X107692180Y-87284660D01*
X108431800Y-86404895D01*
X108819768Y-85942465D01*
X109176096Y-85515953D01*
X109484840Y-85144581D01*
X109730062Y-84847575D01*
X109895823Y-84644157D01*
X109962815Y-84558519D01*
X109978023Y-84509999D01*
X109974933Y-84422992D01*
X109950093Y-84287201D01*
X109900050Y-84092327D01*
X109821348Y-83828076D01*
X109710534Y-83484149D01*
X109564154Y-83050249D01*
X109378755Y-82516079D01*
X109150882Y-81871342D01*
X108877081Y-81105741D01*
X108553899Y-80208977D01*
X108177881Y-79170755D01*
X107886480Y-78368347D01*
X107535505Y-77404059D01*
X107200830Y-76487234D01*
X106886995Y-75630142D01*
X106598536Y-74845052D01*
X106339992Y-74144230D01*
X106115901Y-73539944D01*
X105930802Y-73044466D01*
X105789232Y-72670061D01*
X105695731Y-72428999D01*
X105654835Y-72333547D01*
X105653746Y-72332465D01*
X105594012Y-72394520D01*
X105434120Y-72576449D01*
X105182564Y-72868240D01*
X104847838Y-73259887D01*
X104438434Y-73741380D01*
X103962844Y-74302712D01*
X103429562Y-74933872D01*
X102847079Y-75624853D01*
X102223890Y-76365646D01*
X101568486Y-77146242D01*
X101518713Y-77205582D01*
X97425356Y-82086130D01*
X96447238Y-81913661D01*
X96397398Y-81776209D01*
X96056829Y-80838463D01*
X95712662Y-79892254D01*
X95369786Y-78951021D01*
X95033090Y-78028200D01*
X94707463Y-77137227D01*
X94397795Y-76291537D01*
X94108973Y-75504568D01*
X93845887Y-74789756D01*
X93613426Y-74160536D01*
X93416479Y-73630343D01*
X93259935Y-73212616D01*
X93148683Y-72920790D01*
X93087612Y-72768301D01*
X93077519Y-72748527D01*
X93018090Y-72809214D01*
X92859362Y-72989001D01*
X92610512Y-73276966D01*
X92280719Y-73662181D01*
X91879159Y-74133723D01*
X91415010Y-74680666D01*
X90897449Y-75292087D01*
X90335653Y-75957059D01*
X89738800Y-76664659D01*
X89116068Y-77403961D01*
X88476633Y-78164041D01*
X87829674Y-78933974D01*
X87184367Y-79702834D01*
X86549889Y-80459698D01*
X85935419Y-81193639D01*
X85350134Y-81893736D01*
X84803210Y-82549059D01*
X84303826Y-83148687D01*
X83861160Y-83681694D01*
X83484386Y-84137154D01*
X83182684Y-84504145D01*
X82965231Y-84771740D01*
X82841204Y-84929015D01*
X82817648Y-84961956D01*
X77917685Y-84097960D01*
X78208880Y-83740936D01*
X76539572Y-83446592D01*
X76910926Y-84457772D01*
X77282280Y-85468952D01*
X55280671Y-81589475D01*
X55970458Y-80771258D01*
X56950555Y-80944076D01*
X57026381Y-80969854D01*
X57263228Y-81023145D01*
X57655219Y-81102864D01*
X58196473Y-81207923D01*
X58881112Y-81337237D01*
X59703259Y-81489719D01*
X60657034Y-81664283D01*
X61736557Y-81859843D01*
X62935951Y-82075313D01*
X64249336Y-82309605D01*
X65670834Y-82561635D01*
X66428322Y-82695379D01*
X67795489Y-82935784D01*
X69085358Y-83161279D01*
X70289746Y-83370485D01*
X71400470Y-83562027D01*
X72409343Y-83734528D01*
X73308185Y-83886610D01*
X74088810Y-84016898D01*
X74743036Y-84124015D01*
X75262676Y-84206583D01*
X75639550Y-84263227D01*
X75865472Y-84292570D01*
X75932964Y-84294269D01*
X75900627Y-84195457D01*
X75814727Y-83951413D01*
X75679741Y-83574348D01*
X75508529Y-83099711D01*
X79320696Y-83771899D01*
X79385486Y-83810945D01*
X79597224Y-83871098D01*
X79935509Y-83947618D01*
X80379938Y-84035762D01*
X80731699Y-84099804D01*
X82184025Y-84355888D01*
X83074661Y-83286023D01*
X83373781Y-82923321D01*
X83631744Y-82604079D01*
X83830114Y-82351631D01*
X83950457Y-82189310D01*
X83978350Y-82142141D01*
X83955787Y-82040874D01*
X83885525Y-81816663D01*
X83779129Y-81501438D01*
X83648157Y-81127132D01*
X83504173Y-80725673D01*
X83358737Y-80328993D01*
X83223413Y-79969023D01*
X83109763Y-79677693D01*
X83029346Y-79486932D01*
X82995452Y-79427636D01*
X82935463Y-79488162D01*
X82782390Y-79660341D01*
X82551711Y-79925874D01*
X82258907Y-80266461D01*
X81919455Y-80663801D01*
X81548837Y-81099595D01*
X81162531Y-81555546D01*
X80776016Y-82013352D01*
X80404772Y-82454713D01*
X80064278Y-82861331D01*
X79770014Y-83214906D01*
X79537459Y-83497138D01*
X79382091Y-83689728D01*
X79320696Y-83771899D01*
X75508529Y-83099711D01*
X75500144Y-83076469D01*
X75280416Y-82469988D01*
X75025032Y-81767115D01*
X74738469Y-80980059D01*
X74425204Y-80121030D01*
X74089715Y-79202238D01*
X73736476Y-78235893D01*
X73369967Y-77234206D01*
X73182198Y-76721475D01*
X74255433Y-76910716D01*
X74272582Y-77012598D01*
X74342268Y-77254276D01*
X74458150Y-77616777D01*
X74613887Y-78081129D01*
X74803136Y-78628359D01*
X75019557Y-79239497D01*
X75212222Y-79773283D01*
X76215425Y-82529827D01*
X77537498Y-82741391D01*
X78859571Y-82952956D01*
X79655542Y-82009416D01*
X80451512Y-81065878D01*
X78997286Y-77058007D01*
X78712640Y-76275602D01*
X78444796Y-75543396D01*
X78199369Y-74876459D01*
X77981972Y-74289855D01*
X77798218Y-73798651D01*
X77653723Y-73417912D01*
X77554099Y-73162705D01*
X77504961Y-73048097D01*
X77501299Y-73043184D01*
X77438375Y-73103314D01*
X77284209Y-73274616D01*
X77055203Y-73537545D01*
X76767758Y-73872558D01*
X76438279Y-74260113D01*
X76083165Y-74680664D01*
X75718819Y-75114669D01*
X75361645Y-75542584D01*
X75028044Y-75944866D01*
X74734417Y-76301970D01*
X74497168Y-76594353D01*
X74332698Y-76802472D01*
X74257409Y-76906783D01*
X74255433Y-76910716D01*
X73182198Y-76721475D01*
X72994664Y-76209386D01*
X72615043Y-75173641D01*
X72235580Y-74139184D01*
X71860755Y-73118223D01*
X71495042Y-72122969D01*
X71142920Y-71165631D01*
X70808864Y-70258420D01*
X70497353Y-69413544D01*
X70212861Y-68643215D01*
X69959867Y-67959642D01*
X69742847Y-67375035D01*
X69566279Y-66901604D01*
X69434640Y-66551558D01*
X69352405Y-66337108D01*
X69324216Y-66270064D01*
X69266685Y-66332370D01*
X69108613Y-66514383D01*
X68858384Y-66806163D01*
X68524381Y-67197765D01*
X68114986Y-67679249D01*
X67638587Y-68240670D01*
X67103563Y-68872088D01*
X66518301Y-69563560D01*
X65891183Y-70305144D01*
X65230593Y-71086899D01*
X64544914Y-71898879D01*
X63842531Y-72731145D01*
X63131827Y-73573754D01*
X62421187Y-74416763D01*
X61718992Y-75250230D01*
X61033628Y-76064214D01*
X60373477Y-76848771D01*
X59746924Y-77593960D01*
X59162352Y-78289837D01*
X58628146Y-78926461D01*
X58152688Y-79493891D01*
X57744361Y-79982183D01*
X57411551Y-80381394D01*
X57162641Y-80681583D01*
X57006013Y-80872809D01*
X56950555Y-80944076D01*
X55970458Y-80771258D01*
X56195602Y-80504197D01*
X57110535Y-79418919D01*
X55194045Y-79080990D01*
X54581300Y-78973653D01*
X54115843Y-78894743D01*
X53778350Y-78842418D01*
X53549501Y-78814834D01*
X53409976Y-78810149D01*
X53340456Y-78826520D01*
X53321618Y-78862106D01*
X53330073Y-78903221D01*
X53380593Y-79048763D01*
X53473890Y-79310340D01*
X53594567Y-79644962D01*
X53675118Y-79866776D01*
X53967644Y-80670171D01*
X38641694Y-77967792D01*
X39071704Y-77454696D01*
X39275034Y-77207019D01*
X39314043Y-77157077D01*
X40293010Y-77329695D01*
X40372303Y-77354923D01*
X40605478Y-77406721D01*
X40979580Y-77482658D01*
X41481659Y-77580304D01*
X42098763Y-77697230D01*
X42817940Y-77831005D01*
X43626238Y-77979200D01*
X44510707Y-78139382D01*
X45458393Y-78309126D01*
X46451267Y-78485102D01*
X47449274Y-78660397D01*
X48397469Y-78825615D01*
X49282854Y-78978577D01*
X50092434Y-79117099D01*
X50813215Y-79238999D01*
X51432199Y-79342094D01*
X51936394Y-79424202D01*
X52312803Y-79483140D01*
X52548430Y-79516726D01*
X52630275Y-79522819D01*
X52609226Y-79421452D01*
X52545633Y-79212860D01*
X52482049Y-79025045D01*
X52324962Y-78577517D01*
X49816950Y-78112582D01*
X47308937Y-77647646D01*
X47953043Y-76879998D01*
X48942688Y-77054499D01*
X49020674Y-77080535D01*
X49250202Y-77132500D01*
X49615959Y-77207472D01*
X50102631Y-77302527D01*
X50694903Y-77414742D01*
X51377463Y-77541193D01*
X52134994Y-77678958D01*
X52952182Y-77825114D01*
X53326334Y-77891262D01*
X57724764Y-78666152D01*
X58568463Y-77660009D01*
X58859959Y-77308601D01*
X59109659Y-77000376D01*
X59298438Y-76759517D01*
X59407165Y-76610207D01*
X59425911Y-76575898D01*
X59401584Y-76477412D01*
X59324877Y-76240117D01*
X59202402Y-75882029D01*
X59040775Y-75421167D01*
X58846605Y-74875548D01*
X58626512Y-74263190D01*
X58387104Y-73602110D01*
X58134998Y-72910327D01*
X57876805Y-72205855D01*
X57619142Y-71506717D01*
X57368620Y-70830927D01*
X57131853Y-70196502D01*
X56915455Y-69621462D01*
X56726041Y-69123824D01*
X56570223Y-68721605D01*
X56454614Y-68432824D01*
X56385829Y-68275495D01*
X56370326Y-68251525D01*
X56307358Y-68314081D01*
X56146691Y-68493697D01*
X55899196Y-68777486D01*
X55575747Y-69152561D01*
X55187216Y-69606039D01*
X54744475Y-70125033D01*
X54258399Y-70696655D01*
X53739858Y-71308021D01*
X53199727Y-71946245D01*
X52648877Y-72598440D01*
X52098180Y-73251722D01*
X51558512Y-73893202D01*
X51040742Y-74509997D01*
X50555746Y-75089220D01*
X50114394Y-75617985D01*
X49727560Y-76083406D01*
X49406117Y-76472596D01*
X49160936Y-76772671D01*
X49002892Y-76970744D01*
X48942856Y-77053930D01*
X48942688Y-77054499D01*
X47953043Y-76879998D01*
X48933132Y-75711925D01*
X49341331Y-75222681D01*
X49711024Y-74774297D01*
X50028910Y-74383327D01*
X50281688Y-74066330D01*
X50456058Y-73839860D01*
X50538719Y-73720475D01*
X50543588Y-73707304D01*
X50507516Y-73590542D01*
X50421863Y-73341490D01*
X50294435Y-72981400D01*
X50133038Y-72531522D01*
X49945475Y-72013109D01*
X49739553Y-71447414D01*
X49523079Y-70855688D01*
X49303855Y-70259183D01*
X49089689Y-69679151D01*
X48888385Y-69136844D01*
X48707750Y-68653516D01*
X48555588Y-68250415D01*
X48439705Y-67948796D01*
X48367906Y-67769909D01*
X48347896Y-67729040D01*
X48288357Y-67790116D01*
X48133379Y-67965605D01*
X47896080Y-68239964D01*
X47589574Y-68597647D01*
X47226981Y-69023107D01*
X46821416Y-69500800D01*
X46385996Y-70015182D01*
X45933838Y-70550707D01*
X45478059Y-71091828D01*
X45031777Y-71623002D01*
X44608107Y-72128683D01*
X44220166Y-72593324D01*
X43881072Y-73001384D01*
X43603941Y-73337314D01*
X43401889Y-73585570D01*
X43330039Y-73675885D01*
X43144974Y-73911994D01*
X43829320Y-75791297D01*
X44513665Y-77670601D01*
X42538239Y-77344557D01*
X41904894Y-77241224D01*
X41417631Y-77165340D01*
X41055782Y-77114900D01*
X40798677Y-77087898D01*
X40625648Y-77082329D01*
X40516025Y-77096188D01*
X40449138Y-77127468D01*
X40433857Y-77140382D01*
X40322942Y-77269371D01*
X40293010Y-77329695D01*
X39314043Y-77157077D01*
X39429155Y-77009703D01*
X39506958Y-76897730D01*
X39511270Y-76887407D01*
X39432051Y-76863311D01*
X39200557Y-76812956D01*
X38831342Y-76739074D01*
X38338960Y-76644400D01*
X37737969Y-76531665D01*
X37042924Y-76403604D01*
X36268381Y-76262951D01*
X35428896Y-76112439D01*
X34635943Y-75971878D01*
X29751062Y-75110542D01*
X30038161Y-75934921D01*
X22220829Y-74556514D01*
X22863466Y-73788607D01*
X22882670Y-73765659D01*
X23868192Y-73939434D01*
X23944433Y-73968449D01*
X24160945Y-74020077D01*
X24491033Y-74088721D01*
X24908002Y-74168782D01*
X25301401Y-74239974D01*
X26742788Y-74494129D01*
X27343387Y-73773549D01*
X28337131Y-73948773D01*
X28417207Y-73970684D01*
X28652270Y-74019576D01*
X29030501Y-74093281D01*
X29540083Y-74189630D01*
X30169198Y-74306458D01*
X30906026Y-74441594D01*
X31738748Y-74592872D01*
X32655548Y-74758122D01*
X33644606Y-74935178D01*
X34694104Y-75121870D01*
X35748968Y-75308407D01*
X36845625Y-75501193D01*
X37893581Y-75684279D01*
X38880990Y-75855661D01*
X39796004Y-76013336D01*
X40626775Y-76155299D01*
X41361457Y-76279547D01*
X41988202Y-76384075D01*
X42495162Y-76466879D01*
X42870489Y-76525955D01*
X43102339Y-76559299D01*
X43178935Y-76565231D01*
X43152660Y-76477378D01*
X43073332Y-76244854D01*
X42945959Y-75881460D01*
X42775556Y-75400996D01*
X42567135Y-74817265D01*
X42325709Y-74144068D01*
X42056290Y-73395204D01*
X41763891Y-72584477D01*
X41453523Y-71725687D01*
X41130200Y-70832634D01*
X40798935Y-69919121D01*
X40464739Y-68998949D01*
X40132626Y-68085918D01*
X39807608Y-67193830D01*
X39494696Y-66336487D01*
X39198905Y-65527689D01*
X38925246Y-64781237D01*
X38678732Y-64110933D01*
X38464375Y-63530577D01*
X38287189Y-63053973D01*
X38152185Y-62694919D01*
X38064376Y-62467217D01*
X38028774Y-62384669D01*
X38028585Y-62384583D01*
X37969691Y-62446647D01*
X37811830Y-62627550D01*
X37564431Y-62916035D01*
X37236927Y-63300852D01*
X36838746Y-63770747D01*
X36379323Y-64314465D01*
X35868085Y-64920754D01*
X35314465Y-65578362D01*
X34727893Y-66276034D01*
X34117800Y-67002517D01*
X33493617Y-67746558D01*
X32864775Y-68496906D01*
X32240704Y-69242303D01*
X31630836Y-69971500D01*
X31044601Y-70673241D01*
X30491431Y-71336275D01*
X29980756Y-71949347D01*
X29522006Y-72501206D01*
X29124614Y-72980596D01*
X28798008Y-73376266D01*
X28551622Y-73676961D01*
X28394885Y-73871428D01*
X28337227Y-73948416D01*
X28337131Y-73948773D01*
X27343387Y-73773549D01*
X27365748Y-73746721D01*
X27614114Y-73443508D01*
X27818061Y-73184608D01*
X27955156Y-72999170D01*
X28002881Y-72918940D01*
X27980367Y-72814180D01*
X27909056Y-72587658D01*
X27800839Y-72271493D01*
X27667613Y-71897805D01*
X27521269Y-71498716D01*
X27373700Y-71106344D01*
X27236802Y-70752809D01*
X27122466Y-70470231D01*
X27042585Y-70290730D01*
X27012016Y-70242962D01*
X26948915Y-70302604D01*
X26794183Y-70472423D01*
X26564685Y-70732588D01*
X26277288Y-71063266D01*
X25948859Y-71444628D01*
X25596262Y-71856843D01*
X25236365Y-72280078D01*
X24886033Y-72694504D01*
X24562134Y-73080288D01*
X24281532Y-73417601D01*
X24061096Y-73686609D01*
X23917689Y-73867485D01*
X23868192Y-73939434D01*
X22882670Y-73765659D01*
X23506102Y-73020700D01*
X22847331Y-72879570D01*
X22188559Y-72738442D01*
X22334392Y-71911381D01*
X24159032Y-72233115D01*
X24746456Y-71541446D01*
X25020717Y-71217766D01*
X25282585Y-70907417D01*
X25494829Y-70654583D01*
X25584709Y-70546646D01*
X25835537Y-70243514D01*
X24750654Y-67284393D01*
X23665770Y-64325272D01*
X23829115Y-63538528D01*
X23992462Y-62751785D01*
X25207747Y-66098658D01*
X25467727Y-66811956D01*
X25710846Y-67473828D01*
X25930893Y-68067752D01*
X26121660Y-68577202D01*
X26276939Y-68985654D01*
X26390521Y-69276584D01*
X26456195Y-69433466D01*
X26469443Y-69456611D01*
X26542067Y-69401786D01*
X26688696Y-69247246D01*
X26878129Y-69025961D01*
X26885465Y-69017029D01*
X27076060Y-68793458D01*
X27225099Y-68634907D01*
X27301273Y-68574603D01*
X27302236Y-68574680D01*
X27343614Y-68653040D01*
X27433667Y-68868100D01*
X27563571Y-69197285D01*
X27724504Y-69618022D01*
X27907639Y-70107739D01*
X28008491Y-70381542D01*
X28223349Y-70963593D01*
X28390223Y-71402893D01*
X28517166Y-71716486D01*
X28612231Y-71921412D01*
X28683473Y-72034714D01*
X28738946Y-72073432D01*
X28786703Y-72054610D01*
X28795238Y-72046284D01*
X28867715Y-71962368D01*
X29040581Y-71758119D01*
X29305726Y-71443213D01*
X29655044Y-71027326D01*
X30080426Y-70520134D01*
X30573766Y-69931314D01*
X31126953Y-69270540D01*
X31731882Y-68547490D01*
X32380442Y-67771840D01*
X33064529Y-66953264D01*
X33601104Y-66310909D01*
X34304022Y-65469929D01*
X34975908Y-64667396D01*
X35608852Y-63912678D01*
X36194950Y-63215141D01*
X36726294Y-62584152D01*
X37194976Y-62029080D01*
X37593091Y-61559292D01*
X37912731Y-61184155D01*
X38145989Y-60913036D01*
X38284960Y-60755303D01*
X38322840Y-60717012D01*
X38357928Y-60795868D01*
X38445869Y-61021685D01*
X38582112Y-61382121D01*
X38762108Y-61864833D01*
X38981303Y-62457473D01*
X39235149Y-63147701D01*
X39519093Y-63923172D01*
X39828585Y-64771541D01*
X40159074Y-65680465D01*
X40506009Y-66637601D01*
X40524950Y-66689940D01*
X40873896Y-67653551D01*
X41207296Y-68572865D01*
X41520500Y-69435150D01*
X41808860Y-70227669D01*
X42067727Y-70937688D01*
X42292453Y-71552473D01*
X42478387Y-72059287D01*
X42620883Y-72445397D01*
X42715291Y-72698069D01*
X42756962Y-72804566D01*
X42757325Y-72805322D01*
X42788802Y-72821030D01*
X42852854Y-72789459D01*
X42957527Y-72701628D01*
X43110862Y-72548561D01*
X43320904Y-72321279D01*
X43595697Y-72010806D01*
X43943284Y-71608162D01*
X44371708Y-71104371D01*
X44889015Y-70490454D01*
X45503246Y-69757433D01*
X45714622Y-69504578D01*
X46263870Y-68848376D01*
X46780495Y-68233304D01*
X47254354Y-67671292D01*
X47675304Y-67174268D01*
X48033199Y-66754159D01*
X48317899Y-66422893D01*
X48519257Y-66192397D01*
X48627132Y-66074601D01*
X48642598Y-66061548D01*
X48679709Y-66140250D01*
X48767771Y-66362102D01*
X48900714Y-66710810D01*
X49072472Y-67170078D01*
X49276977Y-67723613D01*
X49508161Y-68355117D01*
X49759957Y-69048297D01*
X49926905Y-69510622D01*
X50188522Y-70234336D01*
X50433244Y-70906663D01*
X50655019Y-71511311D01*
X50847792Y-72031988D01*
X51005508Y-72452400D01*
X51122116Y-72756258D01*
X51191560Y-72927268D01*
X51208388Y-72959463D01*
X51269295Y-72898046D01*
X51428096Y-72718970D01*
X51674238Y-72434620D01*
X51997161Y-72057382D01*
X52386310Y-71599640D01*
X52831126Y-71073780D01*
X53321054Y-70492187D01*
X53845533Y-69867247D01*
X53922642Y-69775180D01*
X54452154Y-69145017D01*
X54949974Y-68556872D01*
X55405386Y-68023106D01*
X55807672Y-67556076D01*
X56146115Y-67168140D01*
X56410000Y-66871658D01*
X56588608Y-66678988D01*
X56671223Y-66602490D01*
X56674509Y-66601751D01*
X56717162Y-66682529D01*
X56811737Y-66908460D01*
X56952852Y-67265354D01*
X57135131Y-67739020D01*
X57353196Y-68315266D01*
X57601666Y-68979904D01*
X57875164Y-69718739D01*
X58168310Y-70517584D01*
X58406143Y-71170453D01*
X58710235Y-72007022D01*
X58997481Y-72795646D01*
X59262627Y-73522009D01*
X59500421Y-74171799D01*
X59705611Y-74730704D01*
X59872943Y-75184409D01*
X59997165Y-75518600D01*
X60073025Y-75718965D01*
X60095197Y-75773077D01*
X60153843Y-75717700D01*
X60313336Y-75541739D01*
X60565780Y-75254424D01*
X60903286Y-74864976D01*
X61317962Y-74382624D01*
X61801917Y-73816594D01*
X62347258Y-73176111D01*
X62946095Y-72470401D01*
X63590537Y-71708690D01*
X64272689Y-70900204D01*
X64853785Y-70209856D01*
X65561414Y-69368958D01*
X66237888Y-68566371D01*
X66875288Y-67811413D01*
X67465701Y-67113400D01*
X68001210Y-66481647D01*
X68473900Y-65925473D01*
X68875854Y-65454192D01*
X69199157Y-65077123D01*
X69435892Y-64803579D01*
X69578145Y-64642879D01*
X69618690Y-64601832D01*
X69654054Y-64680574D01*
X69742579Y-64905846D01*
X69879574Y-65265036D01*
X70060343Y-65745532D01*
X70280193Y-66334720D01*
X70534429Y-67019990D01*
X70818358Y-67788728D01*
X71127285Y-68628321D01*
X71456518Y-69526159D01*
X71741819Y-70306509D01*
X72084005Y-71242891D01*
X72409276Y-72131426D01*
X72712983Y-72959517D01*
X72990482Y-73714566D01*
X73237124Y-74383975D01*
X73448260Y-74955148D01*
X73619245Y-75415487D01*
X73745430Y-75752394D01*
X73822170Y-75953272D01*
X73844990Y-76007669D01*
X73902610Y-75946011D01*
X74056310Y-75768800D01*
X74293774Y-75490575D01*
X74602686Y-75125875D01*
X74970728Y-74689238D01*
X75385584Y-74195202D01*
X75809381Y-73688887D01*
X76257891Y-73153881D01*
X76672249Y-72662765D01*
X77039988Y-72230074D01*
X77348644Y-71870338D01*
X77585754Y-71598089D01*
X77738852Y-71427860D01*
X77795043Y-71373856D01*
X77831305Y-71452600D01*
X77919722Y-71676343D01*
X78054980Y-72030802D01*
X78231762Y-72501695D01*
X78444753Y-73074737D01*
X78688638Y-73735648D01*
X78958100Y-74470143D01*
X79247824Y-75263940D01*
X79457479Y-75840726D01*
X79823258Y-76845393D01*
X80136861Y-77699117D01*
X80401833Y-78410861D01*
X80621719Y-78989584D01*
X80800064Y-79444247D01*
X80940414Y-79783810D01*
X81046313Y-80017235D01*
X81121309Y-80153480D01*
X81168945Y-80201509D01*
X81181369Y-80197803D01*
X81267936Y-80102021D01*
X81443093Y-79898958D01*
X81687271Y-79611623D01*
X81980905Y-79263027D01*
X82265134Y-78923306D01*
X82580181Y-78548907D01*
X82858137Y-78224856D01*
X83081019Y-77971615D01*
X83230842Y-77809642D01*
X83288781Y-77758836D01*
X83329661Y-77837161D01*
X83418871Y-78052088D01*
X83547566Y-78380830D01*
X83706900Y-78800599D01*
X83888031Y-79288610D01*
X83978295Y-79535393D01*
X84167431Y-80047044D01*
X84340473Y-80500349D01*
X84488330Y-80872679D01*
X84601908Y-81141404D01*
X84672117Y-81283894D01*
X84687585Y-81300820D01*
X84750842Y-81236891D01*
X84914085Y-81052646D01*
X85168978Y-80757928D01*
X85507184Y-80362574D01*
X85920365Y-79876425D01*
X86400185Y-79309318D01*
X86938307Y-78671095D01*
X87526394Y-77971593D01*
X88156111Y-77220653D01*
X88819118Y-76428113D01*
X89020471Y-76187058D01*
X89691783Y-75384386D01*
X90332513Y-74620785D01*
X90934306Y-73906058D01*
X91488810Y-73250010D01*
X91987670Y-72662445D01*
X92422534Y-72153166D01*
X92785049Y-71731978D01*
X93066861Y-71408685D01*
X93259616Y-71193091D01*
X93354963Y-71095001D01*
X93363287Y-71089945D01*
X93404577Y-71169826D01*
X93497911Y-71395534D01*
X93638188Y-71753496D01*
X93820310Y-72230141D01*
X94039173Y-72811896D01*
X94289679Y-73485189D01*
X94566724Y-74236445D01*
X94865211Y-75052095D01*
X95180036Y-75918566D01*
X95233225Y-76065550D01*
X95549917Y-76940341D01*
X95850074Y-77767790D01*
X96128680Y-78534175D01*
X96380719Y-79225779D01*
X96601176Y-79828882D01*
X96785032Y-80329763D01*
X96927272Y-80714704D01*
X97022879Y-80969985D01*
X97066837Y-81081885D01*
X97068736Y-81085560D01*
X97128104Y-81031314D01*
X97287831Y-80856634D01*
X97539750Y-80571063D01*
X97875687Y-80184144D01*
X98287475Y-79705424D01*
X98766943Y-79144446D01*
X99305919Y-78510753D01*
X99896234Y-77813891D01*
X100529717Y-77063405D01*
X101198198Y-76268837D01*
X101507828Y-75899953D01*
X102189826Y-75087563D01*
X102840487Y-74313866D01*
X103451624Y-73588517D01*
X104015046Y-72921172D01*
X104522566Y-72321487D01*
X104965992Y-71799119D01*
X105337137Y-71363723D01*
X105627812Y-71024954D01*
X105829826Y-70792470D01*
X105934993Y-70675924D01*
X105948492Y-70663865D01*
X105983299Y-70742679D01*
G04 #@! TO.C,REF\002A\002A*
D12*
X143548266Y-55951780D02*
X143214933Y-55475590D01*
X142976838Y-55951780D02*
X142976838Y-54951780D01*
X143357790Y-54951780D01*
X143453028Y-54999400D01*
X143500647Y-55047019D01*
X143548266Y-55142257D01*
X143548266Y-55285114D01*
X143500647Y-55380352D01*
X143453028Y-55427971D01*
X143357790Y-55475590D01*
X142976838Y-55475590D01*
X143976838Y-55427971D02*
X144310171Y-55427971D01*
X144453028Y-55951780D02*
X143976838Y-55951780D01*
X143976838Y-54951780D01*
X144453028Y-54951780D01*
X145214933Y-55427971D02*
X144881600Y-55427971D01*
X144881600Y-55951780D02*
X144881600Y-54951780D01*
X145357790Y-54951780D01*
X145881600Y-54951780D02*
X145881600Y-55189876D01*
X145643504Y-55094638D02*
X145881600Y-55189876D01*
X146119695Y-55094638D01*
X145738742Y-55380352D02*
X145881600Y-55189876D01*
X146024457Y-55380352D01*
X146643504Y-54951780D02*
X146643504Y-55189876D01*
X146405409Y-55094638D02*
X146643504Y-55189876D01*
X146881600Y-55094638D01*
X146500647Y-55380352D02*
X146643504Y-55189876D01*
X146786361Y-55380352D01*
G04 #@! TD*
M02*
