G04 #@! TF.GenerationSoftware,KiCad,Pcbnew,(5.0.2)-1*
G04 #@! TF.CreationDate,2019-05-29T12:45:37-04:00*
G04 #@! TF.ProjectId,bottom_plate,626f7474-6f6d-45f7-906c-6174652e6b69,rev?*
G04 #@! TF.SameCoordinates,Original*
G04 #@! TF.FileFunction,Soldermask,Top*
G04 #@! TF.FilePolarity,Negative*
%FSLAX46Y46*%
G04 Gerber Fmt 4.6, Leading zero omitted, Abs format (unit mm)*
G04 Created by KiCad (PCBNEW (5.0.2)-1) date 5/29/2019 12:45:37 PM*
%MOMM*%
%LPD*%
G01*
G04 APERTURE LIST*
%ADD10C,0.100000*%
G04 APERTURE END LIST*
D10*
G36*
X82326934Y-97140432D02*
X82536402Y-97227196D01*
X82724923Y-97353162D01*
X82885238Y-97513477D01*
X83011204Y-97701998D01*
X83097968Y-97911466D01*
X83142200Y-98133835D01*
X83142200Y-98360565D01*
X83097968Y-98582934D01*
X83011204Y-98792402D01*
X82885238Y-98980923D01*
X82724923Y-99141238D01*
X82536402Y-99267204D01*
X82326934Y-99353968D01*
X82104565Y-99398200D01*
X81877835Y-99398200D01*
X81655466Y-99353968D01*
X81445998Y-99267204D01*
X81257477Y-99141238D01*
X81097162Y-98980923D01*
X80971196Y-98792402D01*
X80884432Y-98582934D01*
X80840200Y-98360565D01*
X80840200Y-98133835D01*
X80884432Y-97911466D01*
X80971196Y-97701998D01*
X81097162Y-97513477D01*
X81257477Y-97353162D01*
X81445998Y-97227196D01*
X81655466Y-97140432D01*
X81877835Y-97096200D01*
X82104565Y-97096200D01*
X82326934Y-97140432D01*
X82326934Y-97140432D01*
G37*
G36*
X270515534Y-97115032D02*
X270725002Y-97201796D01*
X270913523Y-97327762D01*
X271073838Y-97488077D01*
X271199804Y-97676598D01*
X271286568Y-97886066D01*
X271330800Y-98108435D01*
X271330800Y-98335165D01*
X271286568Y-98557534D01*
X271199804Y-98767002D01*
X271073838Y-98955523D01*
X270913523Y-99115838D01*
X270725002Y-99241804D01*
X270515534Y-99328568D01*
X270293165Y-99372800D01*
X270066435Y-99372800D01*
X269844066Y-99328568D01*
X269634598Y-99241804D01*
X269446077Y-99115838D01*
X269285762Y-98955523D01*
X269159796Y-98767002D01*
X269073032Y-98557534D01*
X269028800Y-98335165D01*
X269028800Y-98108435D01*
X269073032Y-97886066D01*
X269159796Y-97676598D01*
X269285762Y-97488077D01*
X269446077Y-97327762D01*
X269634598Y-97201796D01*
X269844066Y-97115032D01*
X270066435Y-97070800D01*
X270293165Y-97070800D01*
X270515534Y-97115032D01*
X270515534Y-97115032D01*
G37*
G36*
X208158534Y-97115032D02*
X208368002Y-97201796D01*
X208556523Y-97327762D01*
X208716838Y-97488077D01*
X208842804Y-97676598D01*
X208929568Y-97886066D01*
X208973800Y-98108435D01*
X208973800Y-98335165D01*
X208929568Y-98557534D01*
X208842804Y-98767002D01*
X208716838Y-98955523D01*
X208556523Y-99115838D01*
X208368002Y-99241804D01*
X208158534Y-99328568D01*
X207936165Y-99372800D01*
X207709435Y-99372800D01*
X207487066Y-99328568D01*
X207277598Y-99241804D01*
X207089077Y-99115838D01*
X206928762Y-98955523D01*
X206802796Y-98767002D01*
X206716032Y-98557534D01*
X206671800Y-98335165D01*
X206671800Y-98108435D01*
X206716032Y-97886066D01*
X206802796Y-97676598D01*
X206928762Y-97488077D01*
X207089077Y-97327762D01*
X207277598Y-97201796D01*
X207487066Y-97115032D01*
X207709435Y-97070800D01*
X207936165Y-97070800D01*
X208158534Y-97115032D01*
X208158534Y-97115032D01*
G37*
G36*
X145268134Y-97115032D02*
X145477602Y-97201796D01*
X145666123Y-97327762D01*
X145826438Y-97488077D01*
X145952404Y-97676598D01*
X146039168Y-97886066D01*
X146083400Y-98108435D01*
X146083400Y-98335165D01*
X146039168Y-98557534D01*
X145952404Y-98767002D01*
X145826438Y-98955523D01*
X145666123Y-99115838D01*
X145477602Y-99241804D01*
X145268134Y-99328568D01*
X145045765Y-99372800D01*
X144819035Y-99372800D01*
X144596666Y-99328568D01*
X144387198Y-99241804D01*
X144198677Y-99115838D01*
X144038362Y-98955523D01*
X143912396Y-98767002D01*
X143825632Y-98557534D01*
X143781400Y-98335165D01*
X143781400Y-98108435D01*
X143825632Y-97886066D01*
X143912396Y-97676598D01*
X144038362Y-97488077D01*
X144198677Y-97327762D01*
X144387198Y-97201796D01*
X144596666Y-97115032D01*
X144819035Y-97070800D01*
X145045765Y-97070800D01*
X145268134Y-97115032D01*
X145268134Y-97115032D01*
G37*
G36*
X19995334Y-97115032D02*
X20204802Y-97201796D01*
X20393323Y-97327762D01*
X20553638Y-97488077D01*
X20679604Y-97676598D01*
X20766368Y-97886066D01*
X20810600Y-98108435D01*
X20810600Y-98335165D01*
X20766368Y-98557534D01*
X20679604Y-98767002D01*
X20553638Y-98955523D01*
X20393323Y-99115838D01*
X20204802Y-99241804D01*
X19995334Y-99328568D01*
X19772965Y-99372800D01*
X19546235Y-99372800D01*
X19323866Y-99328568D01*
X19114398Y-99241804D01*
X18925877Y-99115838D01*
X18765562Y-98955523D01*
X18639596Y-98767002D01*
X18552832Y-98557534D01*
X18508600Y-98335165D01*
X18508600Y-98108435D01*
X18552832Y-97886066D01*
X18639596Y-97676598D01*
X18765562Y-97488077D01*
X18925877Y-97327762D01*
X19114398Y-97201796D01*
X19323866Y-97115032D01*
X19546235Y-97070800D01*
X19772965Y-97070800D01*
X19995334Y-97115032D01*
X19995334Y-97115032D01*
G37*
G36*
X145190045Y-56465654D02*
X145538193Y-56534904D01*
X145947849Y-56704589D01*
X146316529Y-56950934D01*
X146630066Y-57264471D01*
X146876411Y-57633151D01*
X147046096Y-58042807D01*
X147132600Y-58477696D01*
X147132600Y-58921104D01*
X147046096Y-59355993D01*
X146876411Y-59765649D01*
X146630066Y-60134329D01*
X146316529Y-60447866D01*
X145947849Y-60694211D01*
X145538193Y-60863896D01*
X145190045Y-60933146D01*
X145103306Y-60950400D01*
X144659894Y-60950400D01*
X144573155Y-60933146D01*
X144225007Y-60863896D01*
X143815351Y-60694211D01*
X143446671Y-60447866D01*
X143133134Y-60134329D01*
X142886789Y-59765649D01*
X142717104Y-59355993D01*
X142630600Y-58921104D01*
X142630600Y-58477696D01*
X142717104Y-58042807D01*
X142886789Y-57633151D01*
X143133134Y-57264471D01*
X143446671Y-56950934D01*
X143815351Y-56704589D01*
X144225007Y-56534904D01*
X144573155Y-56465654D01*
X144659894Y-56448400D01*
X145103306Y-56448400D01*
X145190045Y-56465654D01*
X145190045Y-56465654D01*
G37*
G36*
X82276134Y-57618032D02*
X82485602Y-57704796D01*
X82674123Y-57830762D01*
X82834438Y-57991077D01*
X82960404Y-58179598D01*
X83047168Y-58389066D01*
X83091400Y-58611435D01*
X83091400Y-58838165D01*
X83047168Y-59060534D01*
X82960404Y-59270002D01*
X82834438Y-59458523D01*
X82674123Y-59618838D01*
X82485602Y-59744804D01*
X82276134Y-59831568D01*
X82053765Y-59875800D01*
X81827035Y-59875800D01*
X81604666Y-59831568D01*
X81395198Y-59744804D01*
X81206677Y-59618838D01*
X81046362Y-59458523D01*
X80920396Y-59270002D01*
X80833632Y-59060534D01*
X80789400Y-58838165D01*
X80789400Y-58611435D01*
X80833632Y-58389066D01*
X80920396Y-58179598D01*
X81046362Y-57991077D01*
X81206677Y-57830762D01*
X81395198Y-57704796D01*
X81604666Y-57618032D01*
X81827035Y-57573800D01*
X82053765Y-57573800D01*
X82276134Y-57618032D01*
X82276134Y-57618032D01*
G37*
G36*
X208107734Y-57592632D02*
X208317202Y-57679396D01*
X208505723Y-57805362D01*
X208666038Y-57965677D01*
X208792004Y-58154198D01*
X208878768Y-58363666D01*
X208923000Y-58586035D01*
X208923000Y-58812765D01*
X208878768Y-59035134D01*
X208792004Y-59244602D01*
X208666038Y-59433123D01*
X208505723Y-59593438D01*
X208317202Y-59719404D01*
X208107734Y-59806168D01*
X207885365Y-59850400D01*
X207658635Y-59850400D01*
X207436266Y-59806168D01*
X207226798Y-59719404D01*
X207038277Y-59593438D01*
X206877962Y-59433123D01*
X206751996Y-59244602D01*
X206665232Y-59035134D01*
X206621000Y-58812765D01*
X206621000Y-58586035D01*
X206665232Y-58363666D01*
X206751996Y-58154198D01*
X206877962Y-57965677D01*
X207038277Y-57805362D01*
X207226798Y-57679396D01*
X207436266Y-57592632D01*
X207658635Y-57548400D01*
X207885365Y-57548400D01*
X208107734Y-57592632D01*
X208107734Y-57592632D01*
G37*
G36*
X82276134Y-18070232D02*
X82485602Y-18156996D01*
X82674123Y-18282962D01*
X82834438Y-18443277D01*
X82960404Y-18631798D01*
X83047168Y-18841266D01*
X83091400Y-19063635D01*
X83091400Y-19290365D01*
X83047168Y-19512734D01*
X82960404Y-19722202D01*
X82834438Y-19910723D01*
X82674123Y-20071038D01*
X82485602Y-20197004D01*
X82276134Y-20283768D01*
X82053765Y-20328000D01*
X81827035Y-20328000D01*
X81604666Y-20283768D01*
X81395198Y-20197004D01*
X81206677Y-20071038D01*
X81046362Y-19910723D01*
X80920396Y-19722202D01*
X80833632Y-19512734D01*
X80789400Y-19290365D01*
X80789400Y-19063635D01*
X80833632Y-18841266D01*
X80920396Y-18631798D01*
X81046362Y-18443277D01*
X81206677Y-18282962D01*
X81395198Y-18156996D01*
X81604666Y-18070232D01*
X81827035Y-18026000D01*
X82053765Y-18026000D01*
X82276134Y-18070232D01*
X82276134Y-18070232D01*
G37*
G36*
X270502834Y-18070232D02*
X270712302Y-18156996D01*
X270900823Y-18282962D01*
X271061138Y-18443277D01*
X271187104Y-18631798D01*
X271273868Y-18841266D01*
X271318100Y-19063635D01*
X271318100Y-19290365D01*
X271273868Y-19512734D01*
X271187104Y-19722202D01*
X271061138Y-19910723D01*
X270900823Y-20071038D01*
X270712302Y-20197004D01*
X270502834Y-20283768D01*
X270280465Y-20328000D01*
X270053735Y-20328000D01*
X269831366Y-20283768D01*
X269621898Y-20197004D01*
X269433377Y-20071038D01*
X269273062Y-19910723D01*
X269147096Y-19722202D01*
X269060332Y-19512734D01*
X269016100Y-19290365D01*
X269016100Y-19063635D01*
X269060332Y-18841266D01*
X269147096Y-18631798D01*
X269273062Y-18443277D01*
X269433377Y-18282962D01*
X269621898Y-18156996D01*
X269831366Y-18070232D01*
X270053735Y-18026000D01*
X270280465Y-18026000D01*
X270502834Y-18070232D01*
X270502834Y-18070232D01*
G37*
G36*
X145217334Y-18044832D02*
X145426802Y-18131596D01*
X145615323Y-18257562D01*
X145775638Y-18417877D01*
X145901604Y-18606398D01*
X145988368Y-18815866D01*
X146032600Y-19038235D01*
X146032600Y-19264965D01*
X145988368Y-19487334D01*
X145901604Y-19696802D01*
X145775638Y-19885323D01*
X145615323Y-20045638D01*
X145426802Y-20171604D01*
X145217334Y-20258368D01*
X144994965Y-20302600D01*
X144768235Y-20302600D01*
X144545866Y-20258368D01*
X144336398Y-20171604D01*
X144147877Y-20045638D01*
X143987562Y-19885323D01*
X143861596Y-19696802D01*
X143774832Y-19487334D01*
X143730600Y-19264965D01*
X143730600Y-19038235D01*
X143774832Y-18815866D01*
X143861596Y-18606398D01*
X143987562Y-18417877D01*
X144147877Y-18257562D01*
X144336398Y-18131596D01*
X144545866Y-18044832D01*
X144768235Y-18000600D01*
X144994965Y-18000600D01*
X145217334Y-18044832D01*
X145217334Y-18044832D01*
G37*
G36*
X208107734Y-18044832D02*
X208317202Y-18131596D01*
X208505723Y-18257562D01*
X208666038Y-18417877D01*
X208792004Y-18606398D01*
X208878768Y-18815866D01*
X208923000Y-19038235D01*
X208923000Y-19264965D01*
X208878768Y-19487334D01*
X208792004Y-19696802D01*
X208666038Y-19885323D01*
X208505723Y-20045638D01*
X208317202Y-20171604D01*
X208107734Y-20258368D01*
X207885365Y-20302600D01*
X207658635Y-20302600D01*
X207436266Y-20258368D01*
X207226798Y-20171604D01*
X207038277Y-20045638D01*
X206877962Y-19885323D01*
X206751996Y-19696802D01*
X206665232Y-19487334D01*
X206621000Y-19264965D01*
X206621000Y-19038235D01*
X206665232Y-18815866D01*
X206751996Y-18606398D01*
X206877962Y-18417877D01*
X207038277Y-18257562D01*
X207226798Y-18131596D01*
X207436266Y-18044832D01*
X207658635Y-18000600D01*
X207885365Y-18000600D01*
X208107734Y-18044832D01*
X208107734Y-18044832D01*
G37*
G36*
X20008034Y-18032132D02*
X20217502Y-18118896D01*
X20406023Y-18244862D01*
X20566338Y-18405177D01*
X20692304Y-18593698D01*
X20779068Y-18803166D01*
X20823300Y-19025535D01*
X20823300Y-19252265D01*
X20779068Y-19474634D01*
X20692304Y-19684102D01*
X20566338Y-19872623D01*
X20406023Y-20032938D01*
X20217502Y-20158904D01*
X20008034Y-20245668D01*
X19785665Y-20289900D01*
X19558935Y-20289900D01*
X19336566Y-20245668D01*
X19127098Y-20158904D01*
X18938577Y-20032938D01*
X18778262Y-19872623D01*
X18652296Y-19684102D01*
X18565532Y-19474634D01*
X18521300Y-19252265D01*
X18521300Y-19025535D01*
X18565532Y-18803166D01*
X18652296Y-18593698D01*
X18778262Y-18405177D01*
X18938577Y-18244862D01*
X19127098Y-18118896D01*
X19336566Y-18032132D01*
X19558935Y-17987900D01*
X19785665Y-17987900D01*
X20008034Y-18032132D01*
X20008034Y-18032132D01*
G37*
M02*
